<?xml version="1.0" encoding="utf-8"?>
<!-- Generator: Adobe Illustrator 26.3.1, SVG Export Plug-In . SVG Version: 6.00 Build 0)  -->
<svg version="1.1" id="Layer_1" xmlns="http://www.w3.org/2000/svg" xmlns:xlink="http://www.w3.org/1999/xlink" x="0px" y="0px"
	 viewBox="0 0 216.28 56.89" style="enable-background:new 0 0 216.28 56.89;" xml:space="preserve">
<style type="text/css">
	.st0{fill:#FFFFFF;}
	.st1{fill:#FF1241;}
	.st2{opacity:0.25;}
</style>
<g>
	<path class="st0" d="M67.46,39.98c-1.32,0-2.55-0.19-3.7-0.58c-1.15-0.38-2.03-0.87-2.66-1.46l0.7-1.22
		c0.61,0.53,1.42,0.98,2.43,1.35c1.01,0.38,2.11,0.56,3.29,0.56c1.66,0,2.86-0.27,3.59-0.82c0.73-0.55,1.1-1.27,1.1-2.16
		c0-0.65-0.19-1.16-0.56-1.54c-0.38-0.38-0.88-0.66-1.5-0.87c-0.63-0.2-1.32-0.37-2.07-0.5s-1.5-0.28-2.25-0.44s-1.44-0.4-2.07-0.7
		c-0.63-0.3-1.13-0.73-1.51-1.26s-0.56-1.25-0.56-2.14c0-0.81,0.22-1.54,0.67-2.19c0.45-0.65,1.12-1.17,2.01-1.57
		s2.01-0.59,3.35-0.59c0.99,0,1.99,0.14,3,0.43s1.82,0.66,2.45,1.12l-0.7,1.22c-0.67-0.51-1.42-0.87-2.25-1.09
		c-0.83-0.22-1.67-0.33-2.52-0.33c-1.54,0-2.67,0.28-3.39,0.85c-0.72,0.57-1.08,1.28-1.08,2.13c0,0.67,0.19,1.2,0.56,1.6
		c0.38,0.4,0.88,0.7,1.51,0.91c0.63,0.21,1.32,0.38,2.07,0.52c0.75,0.13,1.5,0.28,2.25,0.44c0.75,0.16,1.44,0.39,2.07,0.68
		c0.63,0.29,1.13,0.7,1.51,1.22c0.38,0.52,0.56,1.21,0.56,2.08c0,0.87-0.24,1.63-0.71,2.28c-0.48,0.65-1.18,1.16-2.11,1.52
		S68.82,39.98,67.46,39.98z"/>
	<path class="st0" d="M84.19,39.98c-1.52,0-2.87-0.34-4.06-1.03S78,37.3,77.3,36.09c-0.7-1.22-1.05-2.61-1.05-4.17
		c0-1.58,0.35-2.98,1.05-4.18c0.7-1.21,1.64-2.15,2.83-2.84s2.54-1.03,4.06-1.03c1.52,0,2.88,0.34,4.08,1.03s2.14,1.64,2.83,2.84
		c0.69,1.21,1.03,2.6,1.03,4.18c0,1.56-0.34,2.95-1.03,4.17c-0.69,1.22-1.63,2.17-2.83,2.86S85.71,39.98,84.19,39.98z M84.19,38.61
		c1.22,0,2.31-0.28,3.29-0.84c0.97-0.56,1.73-1.34,2.28-2.36c0.55-1.01,0.82-2.18,0.82-3.5c0-1.34-0.27-2.51-0.82-3.51
		c-0.55-1-1.31-1.78-2.28-2.34c-0.97-0.56-2.07-0.84-3.29-0.84s-2.31,0.28-3.27,0.84c-0.96,0.56-1.72,1.34-2.28,2.34
		c-0.56,1-0.84,2.18-0.84,3.51c0,1.32,0.28,2.48,0.84,3.5c0.56,1.01,1.32,1.8,2.28,2.36C81.88,38.33,82.97,38.61,84.19,38.61z"/>
	<path class="st0" d="M104.6,23.86c1.3,0,2.43,0.25,3.39,0.75c0.96,0.5,1.71,1.25,2.25,2.25s0.81,2.25,0.81,3.73v9.28h-1.52V30.7
		c0-1.78-0.45-3.14-1.35-4.08c-0.9-0.93-2.17-1.4-3.79-1.4c-1.24,0-2.31,0.25-3.22,0.76s-1.61,1.22-2.08,2.13
		c-0.48,0.91-0.71,2.01-0.71,3.29v8.46h-1.52V23.98h1.46v4.41l-0.21-0.49c0.49-1.26,1.29-2.25,2.4-2.97
		C101.61,24.22,102.98,23.86,104.6,23.86z"/>
	<path class="st0" d="M123.49,39.28c-1.5,0-2.84-0.33-4.03-0.99s-2.13-1.57-2.83-2.74c-0.7-1.17-1.05-2.5-1.05-4
		c0-1.52,0.35-2.86,1.05-4.01c0.7-1.16,1.64-2.06,2.83-2.71c1.19-0.65,2.53-0.97,4.03-0.97c1.44,0,2.73,0.31,3.88,0.93
		c1.15,0.62,2.05,1.5,2.72,2.65c0.67,1.15,1,2.52,1,4.12c0,1.58-0.33,2.95-1,4.11c-0.67,1.16-1.58,2.05-2.72,2.68
		C126.22,38.96,124.93,39.28,123.49,39.28z M123.92,45.88c-1.44,0-2.81-0.22-4.11-0.67s-2.35-1.06-3.16-1.86l0.82-1.16
		c0.79,0.73,1.74,1.3,2.84,1.7c1.11,0.41,2.3,0.61,3.57,0.61c2.13,0,3.7-0.5,4.7-1.49c1-0.99,1.5-2.56,1.5-4.68v-4.41l0.3-2.37
		l-0.24-2.37v-5.2h1.46v14.18c0,2.66-0.64,4.61-1.93,5.86C128.39,45.26,126.47,45.88,123.92,45.88z M123.61,37.91
		c1.28,0,2.4-0.27,3.38-0.81s1.74-1.29,2.3-2.25c0.56-0.96,0.84-2.06,0.84-3.3c0-1.26-0.28-2.36-0.84-3.32s-1.32-1.69-2.3-2.22
		s-2.1-0.79-3.38-0.79c-1.24,0-2.35,0.26-3.33,0.79c-0.98,0.53-1.75,1.27-2.31,2.22c-0.56,0.95-0.84,2.06-0.84,3.32
		c0,1.24,0.28,2.34,0.84,3.3c0.56,0.96,1.33,1.71,2.31,2.25C121.27,37.64,122.38,37.91,123.61,37.91z"/>
	<path class="st0" d="M135.17,26.78v-3.04H146v3.04H135.17z M143.45,40.07c-1.78,0-3.16-0.46-4.14-1.38s-1.46-2.29-1.46-4.09V20.02
		h3.8V34.5c0,0.77,0.2,1.37,0.59,1.79c0.4,0.43,0.95,0.64,1.66,0.64c0.85,0,1.56-0.22,2.13-0.67l1.06,2.71
		c-0.45,0.36-0.99,0.64-1.64,0.82C144.8,39.98,144.14,40.07,143.45,40.07z"/>
	<path class="st0" d="M156.98,40.07c-1.66,0-3.14-0.36-4.44-1.08c-1.3-0.72-2.32-1.71-3.07-2.97c-0.75-1.26-1.12-2.69-1.12-4.29
		c0-1.62,0.38-3.06,1.12-4.3c0.75-1.25,1.77-2.23,3.07-2.94s2.78-1.07,4.44-1.07c1.68,0,3.18,0.36,4.49,1.07
		c1.31,0.71,2.33,1.68,3.07,2.92c0.74,1.24,1.11,2.68,1.11,4.32c0,1.6-0.37,3.03-1.11,4.29c-0.74,1.26-1.76,2.25-3.07,2.97
		C160.16,39.71,158.67,40.07,156.98,40.07z M156.98,36.82c0.93,0,1.76-0.2,2.49-0.61c0.73-0.41,1.3-0.99,1.72-1.76
		c0.42-0.77,0.62-1.67,0.62-2.71c0-1.05-0.21-1.96-0.62-2.72c-0.42-0.76-0.99-1.34-1.72-1.75c-0.73-0.41-1.55-0.61-2.46-0.61
		c-0.93,0-1.76,0.2-2.48,0.61c-0.72,0.41-1.29,0.99-1.72,1.75c-0.43,0.76-0.64,1.67-0.64,2.72c0,1.03,0.21,1.94,0.64,2.71
		c0.43,0.77,1,1.36,1.72,1.76C155.25,36.61,156.07,36.82,156.98,36.82z"/>
	<path class="st0" d="M176.6,40.07c-1.66,0-3.14-0.36-4.44-1.08c-1.3-0.72-2.32-1.71-3.07-2.97c-0.75-1.26-1.12-2.69-1.12-4.29
		c0-1.62,0.38-3.06,1.12-4.3c0.75-1.25,1.77-2.23,3.07-2.94s2.78-1.07,4.44-1.07c1.68,0,3.18,0.36,4.49,1.07
		c1.31,0.71,2.33,1.68,3.07,2.92c0.74,1.24,1.11,2.68,1.11,4.32c0,1.6-0.37,3.03-1.11,4.29c-0.74,1.26-1.76,2.25-3.07,2.97
		C179.78,39.71,178.29,40.07,176.6,40.07z M176.6,36.82c0.93,0,1.76-0.2,2.49-0.61c0.73-0.41,1.3-0.99,1.72-1.76
		c0.42-0.77,0.62-1.67,0.62-2.71c0-1.05-0.21-1.96-0.62-2.72c-0.42-0.76-0.99-1.34-1.72-1.75c-0.73-0.41-1.55-0.61-2.46-0.61
		c-0.93,0-1.76,0.2-2.48,0.61c-0.72,0.41-1.29,0.99-1.72,1.75c-0.43,0.76-0.64,1.67-0.64,2.72c0,1.03,0.21,1.94,0.64,2.71
		c0.43,0.77,1,1.36,1.72,1.76C174.87,36.61,175.69,36.82,176.6,36.82z"/>
	<path class="st0" d="M188.92,39.86V17.29h3.8v22.57H188.92z"/>
	<path class="st0" d="M202.73,40.07c-1.36,0-2.66-0.18-3.91-0.53s-2.24-0.79-2.97-1.29l1.46-2.89c0.73,0.47,1.6,0.85,2.62,1.16
		c1.01,0.3,2.03,0.46,3.04,0.46c1.2,0,2.06-0.16,2.6-0.49c0.54-0.32,0.81-0.76,0.81-1.31c0-0.45-0.18-0.79-0.55-1.02
		s-0.84-0.41-1.43-0.53c-0.59-0.12-1.24-0.23-1.96-0.33s-1.44-0.24-2.16-0.41c-0.72-0.17-1.37-0.43-1.96-0.76
		c-0.59-0.33-1.06-0.79-1.43-1.35c-0.37-0.57-0.55-1.32-0.55-2.25c0-1.03,0.29-1.93,0.88-2.69c0.59-0.76,1.41-1.35,2.48-1.76
		c1.07-0.42,2.33-0.62,3.79-0.62c1.09,0,2.2,0.12,3.32,0.37s2.04,0.59,2.77,1.03l-1.46,2.89c-0.77-0.47-1.55-0.79-2.33-0.96
		c-0.78-0.17-1.56-0.26-2.33-0.26c-1.16,0-2.01,0.17-2.57,0.52s-0.84,0.78-0.84,1.31c0,0.49,0.18,0.85,0.55,1.1
		c0.37,0.24,0.84,0.44,1.43,0.58s1.24,0.26,1.96,0.35c0.72,0.09,1.43,0.23,2.14,0.41c0.71,0.18,1.36,0.43,1.96,0.75
		c0.6,0.31,1.08,0.75,1.44,1.32c0.37,0.57,0.55,1.31,0.55,2.22c0,1.01-0.3,1.9-0.9,2.65c-0.6,0.75-1.45,1.33-2.54,1.75
		C205.56,39.86,204.25,40.07,202.73,40.07z"/>
</g>
<path class="st1" d="M44.29,20.58c-0.23-1.21-0.88-1.87-2.06-2.09c-3.16-0.58-4.92-3.6-3.87-6.64c0.38-1.11,0.11-2.05-0.8-2.8
	c-0.32-0.27-0.66-0.51-1-0.76c-0.47,1.96-0.97,4.04-1.13,4.62c-0.35,1.26-0.7,2.51-1.03,3.68c-1.02,3.64-1.83,6.51-1.83,6.51
	c0,0.01-0.01,0.02-0.01,0.03c-0.5,2.17-2.54,4.51-5.29,5.91c-3.1,1.67-6.38,1.43-8.14-0.4c-0.01-0.01-0.01-0.01-0.02-0.02
	c-0.84-0.74-1.42-1.66-1.62-2.73c-0.12-0.66-0.09-1.32,0.08-1.96c0.24-0.96,0.78-1.88,1.55-2.68c1.11-1.16,2.69-2.1,4.56-2.6
	c0.27-0.07,0.54-0.13,0.82-0.19c0.18-0.03,0.35-0.06,0.52-0.08c0.27-0.04,0.53-0.06,0.79-0.08c1.65-0.11,3.2,0.14,4.5,0.7
	c0.06,0.03,0.12,0.06,0.17,0.09l0.66-2.5l0.96-3.68l1.44-6.4c-0.43-0.2-0.88-0.39-1.33-0.57c-1.06-0.4-2.04-0.15-2.78,0.72
	c-2.17,2.52-5.62,2.52-7.79,0c-0.75-0.87-1.72-1.12-2.79-0.71c-1.76,0.67-3.4,1.57-4.89,2.73c-1.05,0.81-1.33,1.76-0.88,3
	c1.1,3.07-0.84,6.23-4.08,6.64c-1.2,0.15-1.97,0.9-2.19,2.06c-0.38,2.09-0.43,4.17-0.1,6.27c0.18,1.13,0.9,1.9,2.03,2.06
	c0.79,0.12,1.54,0.33,2.23,0.76c2.06,1.3,2.86,3.87,1.91,6.15c-0.51,1.21-0.26,2.18,0.75,2.99c1.19,0.96,2.46,1.78,3.85,2.42
	c0.75,0.35,1.49,0.75,2.22,0.79c0.88-0.01,1.48-0.31,1.95-0.89c0.17-0.2,0.32-0.42,0.5-0.62c2.07-2.27,5.6-2.12,7.57,0.32
	c0.83,1.02,1.82,1.27,3.03,0.76c1.71-0.72,3.29-1.67,4.73-2.85c0.94-0.77,1.2-1.73,0.77-2.87c-1.16-3.08,0.71-6.25,3.97-6.74
	c1.04-0.16,1.83-0.89,2.03-1.9C44.66,24.89,44.7,22.73,44.29,20.58z"/>
<g class="st2">
	<path class="st1" d="M47.41,21.3l-0.63,7.39l1.21,2.09L39.9,44.79h-4.99h-11.2l-0.95-1.64c-2.1,0.53-3.83,0.17-4.88,0.01l3.38,5.86
		h21.08l1.1-1.9l4.46-7.72l4.98-8.63L47.41,21.3z"/>
</g>
</svg>
