<?xml version="1.0" encoding="utf-8"?>
<!-- Generator: Adobe Illustrator 26.3.1, SVG Export Plug-In . SVG Version: 6.00 Build 0)  -->
<svg version="1.1" id="Layer_1" xmlns="http://www.w3.org/2000/svg" xmlns:xlink="http://www.w3.org/1999/xlink" x="0px" y="0px"
	 viewBox="0 0 500 500" style="enable-background:new 0 0 500 500;" xml:space="preserve">
<style type="text/css">
	.st0{fill:#cccccc;}
	.st1{opacity:0.2;}
	.op{
		opacity: 0.36;
	}
</style>
<g class="op">
<g>
	<rect class="st0" width="500" height="500"/>
</g>
<g class="st1">
	<path d="M250,336.15c0,13.25,6.27,25,16.46,33.71H116.41c-8.96,0-16.23-7.26-16.23-16.2c0-44.81,36.34-81.18,81.14-81.18h47.47
		c20.6,0,39.37,7.77,53.7,20.46C263.11,300.89,250,316.95,250,336.15z M145.13,190.07c0-33.1,26.83-59.93,59.93-59.93
		s59.93,26.83,59.93,59.93S238.16,250,205.05,250S145.13,223.17,145.13,190.07z M399.82,220.04v29.36c0,6.74-5.06,13.3-12.04,14.72
		l-32.9,6.58v65.45c0,18.61-20.12,33.71-44.95,33.71c-24.82,0-44.95-15.09-44.95-33.71c0-18.62,20.12-33.71,44.95-33.71
		c5.29,0,10.25,0.8,14.98,2.06v-75.47c0-7.54,5.06-13.3,12.03-14.7l44.95-8.99C391.16,203.51,399.82,210.58,399.82,220.04z"/>
</g>
</g>
</svg>
