<svg width="96" height="61" viewBox="0 0 96 61" fill="none" xmlns="http://www.w3.org/2000/svg">
<path opacity="0.221517" fill-rule="evenodd" clip-rule="evenodd" d="M96.0001 59.622C96.0001 59.8982 95.7762 60.122 95.5001 60.122H1.26147C1.11625 60.122 0.998535 60.0043 0.998535 59.8591C0.998535 59.7579 1.05655 59.6658 1.14775 59.622C1.83388 59.2929 2.58516 59.122 3.34615 59.122H95.5001C95.7762 59.122 96.0001 59.3459 96.0001 59.622ZM96.0001 52.622C96.0001 52.8982 95.7762 53.122 95.5001 53.122H11.0537C10.9085 53.122 10.7909 53.0044 10.7909 52.8592C10.7909 52.7579 10.8492 52.6656 10.9407 52.622C11.6321 52.2928 12.3882 52.122 13.1539 52.122H95.5001C95.7762 52.122 96.0001 52.3459 96.0001 52.622ZM96.0001 46.622C96.0001 46.8982 95.7762 47.122 95.5001 47.122H21.8141C21.6689 47.122 21.5512 47.0043 21.5512 46.8592C21.5512 46.7579 21.6094 46.6657 21.7007 46.622C22.3897 46.2929 23.1435 46.122 23.907 46.122H95.5001C95.7762 46.122 96.0001 46.3459 96.0001 46.622ZM96.0001 39.622C96.0001 39.8982 95.7762 40.122 95.5001 40.122H32.5734C32.4282 40.122 32.3104 40.0043 32.3104 39.8591C32.3104 39.7579 32.3684 39.6658 32.4596 39.622C33.1453 39.2929 33.8961 39.122 34.6567 39.122H95.5001C95.7762 39.122 96.0001 39.3459 96.0001 39.622ZM96.0001 33.622C96.0001 33.8982 95.7762 34.122 95.5001 34.122H42.3695C42.2244 34.122 42.1068 34.0044 42.1068 33.8593C42.1068 33.7579 42.1653 33.6655 42.2569 33.622C42.9508 33.2928 43.7091 33.122 44.4771 33.122H95.5001C95.7762 33.122 96.0001 33.3459 96.0001 33.622ZM96.0001 26.622C96.0001 26.8982 95.7762 27.122 95.5001 27.122H53.1283C52.9832 27.122 52.8655 27.0044 52.8655 26.8592C52.8655 26.7579 52.9238 26.6656 53.0152 26.622C53.7054 26.2928 54.4605 26.122 55.2252 26.122H95.5001C95.7762 26.122 96.0001 26.3459 96.0001 26.622ZM96.0001 20.622C96.0001 20.8982 95.7762 21.122 95.5001 21.122H63.8841C63.7389 21.122 63.6212 21.0043 63.6212 20.859C63.6212 20.7579 63.6791 20.6658 63.7702 20.622C64.4545 20.2929 65.2041 20.122 65.9635 20.122H95.5001C95.7762 20.122 96.0001 20.3459 96.0001 20.622ZM96.0001 13.622C96.0001 13.8982 95.7762 14.122 95.5001 14.122H73.6944C73.5495 14.122 73.432 14.0045 73.432 13.8596C73.432 13.7578 73.4909 13.6652 73.5831 13.622C74.2862 13.2927 75.053 13.122 75.8294 13.122H95.5001C95.7762 13.122 96.0001 13.3459 96.0001 13.622ZM96.0001 7.62201C96.0001 7.89815 95.7762 8.12201 95.5001 8.12201H84.4514C84.3064 8.12201 84.1889 8.00446 84.1889 7.85946C84.1889 7.75785 84.2475 7.66536 84.3394 7.62201C85.0375 7.29276 85.7997 7.12201 86.5715 7.12201H95.5001C95.7762 7.12201 96.0001 7.34587 96.0001 7.62201ZM96.0001 0.122009L95.9988 1.12201H93.0645L96.0001 0.122009Z" fill="url(#paint0_linear)"/>
<defs>
<linearGradient id="paint0_linear" x1="48.4993" y1="0.122009" x2="48.4993" y2="60.122" gradientUnits="userSpaceOnUse">
<stop stop-color="#2EC4B6"/>
<stop offset="1" stop-color="#E35951"/>
</linearGradient>
</defs>
</svg>
