<?xml version="1.0" encoding="UTF-8"?>
<svg width="30px" height="27px" viewBox="0 0 30 27" version="1.1" xmlns="http://www.w3.org/2000/svg" xmlns:xlink="http://www.w3.org/1999/xlink">
    <title>Shape</title>
    <g id="Page-1" stroke="none" stroke-width="1" fill="none" fill-rule="evenodd">
        <g id="Artboard-Copy" transform="translate(-1144.000000, -4442.000000)" fill="#DA2528" fill-rule="nonzero" stroke="#DA2528" stroke-width="2">
            <path d="M1147.55707,4445.21386 C1149.01482,4443.98601 1150.66734,4443.57246 1152.23283,4443.68547 C1154.16769,4443.82514 1155.97268,4444.75021 1157.13226,4445.93815 L1157.13226,4445.93815 L1159.00262,4447.84711 L1160.86985,4445.93195 C1162.18882,4444.58424 1163.91335,4443.81356 1165.66152,4443.68829 C1167.35333,4443.56706 1169.06804,4444.05301 1170.44327,4445.2127 C1172.05164,4446.57236 1172.901,4448.46994 1172.99183,4450.39729 C1173.08357,4452.34378 1172.40268,4454.3222 1170.94223,4455.80978 L1170.94223,4455.80978 L1159.59893,4467.41082 C1159.43325,4467.58287 1159.21409,4467.66744 1158.995,4467.66744 C1158.77311,4467.66744 1158.55283,4467.57617 1158.38577,4467.40537 L1158.38577,4467.40537 L1147.0476,4455.80959 C1145.593,4454.32271 1144.91485,4452.34304 1145.00852,4450.39564 C1145.1012,4448.46886 1145.95052,4446.57199 1147.55707,4445.21386 Z" id="Shape"></path>
        </g>
    </g>
</svg>