<?xml version="1.0" encoding="UTF-8"?>
<svg width="23px" height="23px" viewBox="0 0 23 23" version="1.1" xmlns="http://www.w3.org/2000/svg" xmlns:xlink="http://www.w3.org/1999/xlink">
    <title>SPOTIFY-ICON</title>
    <g id="Page-1" stroke="none" stroke-width="1" fill-rule="evenodd">
        <g id="id_0034--notification-review-gotnew-compress" transform="translate(-285.000000, -234.000000)" fill-rule="nonzero">
            <g id="Group-5" transform="translate(96.332822, 228.800000)">
                <path d="M200.000197,6 C193.925085,6 189,10.9249536 189,17.0000657 C189,23.0754405 193.925085,28 200.000197,28 C206.075966,28 211.000525,23.0754405 211.000525,17.0000657 C211.000525,10.9253476 206.075966,6.00052543 200.000066,6.00052543 L200.000197,6 Z M205.044816,21.865252 C204.847782,22.1883893 204.424813,22.2908474 204.101676,22.0924989 C201.518942,20.514906 198.267603,20.157616 194.438558,21.0324511 C194.069577,21.1165193 193.701779,20.8853316 193.61771,20.5162196 C193.533248,20.1471075 193.763516,19.7793089 194.133417,19.6952407 C198.323693,18.7375196 201.918004,19.1501108 204.81757,20.9221115 C205.140707,21.12046 205.243165,21.5421147 205.044816,21.865252 L205.044816,21.865252 Z M206.391222,18.8696644 C206.142958,19.273586 205.614904,19.4010019 205.211639,19.1527379 C202.254802,17.3348937 197.747562,16.8085477 194.250193,17.8701719 C193.796618,18.0071768 193.317561,17.7515569 193.179899,17.2987706 C193.043288,16.8451962 193.299039,16.3670581 193.751826,16.2291337 C197.746774,15.0169749 202.713237,15.6041389 206.108805,17.6907388 C206.51207,17.9390028 206.639486,18.4670564 206.391222,18.8697957 L206.391222,18.8696644 Z M206.506816,15.7507329 C202.961501,13.644955 197.11219,13.4513354 193.727262,14.4786754 C193.183708,14.643528 192.608892,14.3366789 192.44417,13.7931253 C192.279449,13.2493089 192.586036,12.6748864 193.129983,12.5096398 C197.015643,11.3300574 203.475105,11.5579611 207.55688,13.9810966 C208.046841,14.2712634 208.207096,14.9026946 207.916798,15.3909471 C207.627813,15.8798565 206.994674,16.041031 206.507341,15.7507329 L206.506816,15.7507329 Z" id="SPOTIFY-ICON"></path>
            </g>
        </g>
    </g>
</svg>