<?xml version="1.0" encoding="UTF-8"?>
<svg width="26px" height="24px" viewBox="0 0 26 24" version="1.1" xmlns="http://www.w3.org/2000/svg" xmlns:xlink="http://www.w3.org/1999/xlink">
    <title>Path</title>
    <g id="Page-1" stroke="none" stroke-width="1" fill="none" fill-rule="evenodd" opacity="0.7">
        <g id="Group-180" transform="translate(-83.000000, -17.000000)" fill="#FFFFFF" fill-rule="nonzero">
            <g id="Group-179" transform="translate(65.000000, 0.000000)">
                <g id="arrow-up" transform="translate(31.000000, 29.000000) scale(1, -1) translate(-31.000000, -29.000000) translate(18.000000, 17.000000)">
                    <path d="M1.74186899,13.7957817 L0.419835089,12.6066287 C-0.13994503,12.1031135 -0.13994503,11.2889186 0.419835089,10.79076 L11.9906093,0.377636425 C12.5503894,-0.125878808 13.4555657,-0.125878808 14.0093907,0.377636425 L25.5801649,10.7854034 C26.139945,11.2889186 26.139945,12.1031135 25.5801649,12.6012722 L24.258131,13.7904252 C23.6923958,14.299297 22.7693541,14.2885839 22.2155291,13.768999 L15.3850206,7.31971878 L15.3850206,22.7144292 C15.3850206,23.4268497 14.7478241,24 13.9557948,24 L12.0501603,24 C11.258131,24 10.6209345,23.4268497 10.6209345,22.7144292 L10.6209345,7.31971878 L3.78447091,13.7743555 C3.2306459,14.299297 2.30760421,14.31001 1.74186899,13.7957817 Z" id="Path"></path>
                </g>
            </g>
        </g>
    </g>
</svg>