<?xml version="1.0" encoding="UTF-8"?>
<svg width="131px" height="48px" viewBox="0 0 131 48" version="1.1" xmlns="http://www.w3.org/2000/svg" xmlns:xlink="http://www.w3.org/1999/xlink">
    <title>Group 24</title>
    <g id="Page-1" stroke="none" stroke-width="1" fill="none" fill-rule="evenodd">
        <g id="Artboard-Copy" transform="translate(-998.000000, -276.000000)" fill="#FFFFFF">
            <g id="Group-20" transform="translate(0.000000, 24.000000)">
                <g id="Group-24" transform="translate(998.000000, 252.000000)">
                    <g id="Group-10" opacity="0.594238281" transform="translate(0.000000, 27.000000)">
                        <rect id="Rectangle" x="0" y="0" width="33.2051282" height="1"></rect>
                        <rect id="Rectangle" opacity="0.236328125" x="35.8974359" y="0" width="33.2051282" height="1"></rect>
                        <rect id="Rectangle" opacity="0.236328125" x="71.7948718" y="0" width="33.2051282" height="1"></rect>
                    </g>
                    <path d="M107.818321,0 C107.949548,0 108.078233,0 108.204454,0 L108.932817,0.000897184444 C109.049485,0.0010436847 109.163842,0.00120642794 109.275964,0.00138605139 L109.922482,0.00267145194 C113.854969,0.0121597857 114.780621,0.0478633313 116.894967,0.144746069 C119.449579,0.260881915 121.194128,0.666547571 122.720798,1.25942154 C124.322352,1.86220122 125.773131,2.80712796 126.971943,4.02829447 C128.192828,5.22712131 129.137522,6.67784659 129.740147,8.27930471 C130.333476,9.80593375 130.739127,11.5505438 130.855735,14.1052466 C130.878587,14.6060304 130.898026,15.0401367 130.914512,15.4633049 L130.92507,15.7444081 C130.975725,17.1479392 130.994712,18.5675637 130.999103,22.0677032 L131,22.796083 C131,22.9223069 131,23.0509954 131,23.1822249 L131,24.8191864 C131,24.9504152 131,25.0791029 131,25.2053258 L130.999103,25.9336981 C130.994712,29.4337924 130.975725,30.8532623 130.92507,32.2568469 L130.914512,32.5379638 C130.898026,32.9611567 130.878587,33.3953083 130.855735,33.8961667 C130.739127,36.4507743 130.333476,38.1953843 129.740147,39.7221087 C128.493323,42.9459733 125.944834,45.4945526 122.721084,46.7414202 C121.194509,47.3347705 119.44996,47.7404361 116.895348,47.8570483 C116.283301,47.8849794 115.770854,47.9078113 115.256244,47.9263853 L114.974722,47.9360996 C113.65424,47.979509 112.199854,47.9963229 108.933173,48.0004215 L108.204819,48.001318 C108.0786,48.001318 107.949916,48.001318 107.818691,48.001318 L106.181787,48.001318 C106.050563,48.001318 105.92188,48.001318 105.795662,48.001318 L105.067315,48.0004215 C100.284022,47.99442 99.3867356,47.9611551 97.1051283,47.8570483 C94.5506112,47.7404361 92.8060629,47.3347705 91.2793927,46.7414202 C89.6779913,46.1387739 88.2273173,45.1940467 87.0285329,43.9731189 C85.8076554,42.7742862 84.8629628,41.3235626 84.2603296,39.7221087 C83.6670003,38.1954796 83.261349,36.4508695 83.1447409,33.8961667 C83.1217958,33.3953829 83.1022824,32.9612803 83.0857361,32.5381173 L83.0751398,32.2570176 C83.0293885,30.9938567 83.0094128,29.7176696 83.0026713,26.9234349 L83.001386,26.2768937 C83.0012063,26.1647682 83.0010436,26.0504074 83.0008971,25.9337348 L83,25.2053467 C83,25.0791212 83,24.9504311 83,24.8191998 L83,23.1822135 C83,23.0509822 83,22.9222921 83,22.7960667 L83.0008971,22.0676784 C83.0010436,21.9510059 83.0012063,21.8366452 83.001386,21.7245196 L83.0026713,21.0779784 C83.0094128,18.2837437 83.0293885,17.0075565 83.0751398,15.7443958 L83.0857361,15.463296 C83.1022824,15.040133 83.1217958,14.6060304 83.1447409,14.1052466 C83.2608726,11.5505438 83.6665239,9.80593375 84.2593769,8.27920944 C84.8622306,6.6776846 85.8071874,5.22695477 87.0283424,4.02819921 C88.2271307,2.8072761 89.6778035,1.86254969 91.2792021,1.2598979 C92.8057771,0.666547571 94.5503254,0.260881915 97.1049378,0.144269712 C99.2192834,0.0477804865 100.144935,0.012145378 104.077423,0.00266894624 L104.723941,0.0013849943 C104.836063,0.00120554704 104.950419,0.0010429506 105.067088,0.000896572701 L105.79545,0 C105.921671,0 106.050357,0 106.181583,0 L107.818321,0 Z M107.409856,4.32430274 L106.590036,4.32430274 C106.455985,4.32430274 106.324527,4.32430274 106.195586,4.32430274 L105.101034,4.32525599 C100.405624,4.33070047 99.5574705,4.36133847 97.3017615,4.46425644 C94.9617881,4.57096042 93.6910077,4.96195427 92.8453134,5.29064064 C91.8028834,5.67539902 90.8599313,6.28889623 90.0857795,7.08603032 C89.2885903,7.86021564 88.6750476,8.80323687 88.2902628,9.84575719 C87.9615881,10.6915768 87.5707033,11.9623068 87.4639078,14.3023631 C87.4408149,14.8085783 87.4213611,15.2439038 87.4050147,15.6677168 L87.3945715,15.9492048 C87.3445991,17.3546329 87.3278382,18.778753 87.3245862,22.4207115 L87.3245862,25.5812796 C87.3278382,29.2232674 87.3445991,30.6475102 87.3945715,32.0528999 L87.4050147,32.334378 C87.4213611,32.7581726 87.4408149,33.1934639 87.4639078,33.6996218 C87.570608,36.0396782 87.9615881,37.3105035 88.2902628,38.1562278 C88.6750075,39.1986947 89.288483,40.1416801 90.0855889,40.9158593 C90.8597366,41.7129984 91.8026899,42.3264964 92.8451228,42.711249 C93.6909125,43.0398402 94.9615976,43.430834 97.301571,43.5376333 C97.7966893,43.560225 98.2239802,43.5793339 98.6390316,43.5954579 L98.9145294,43.6057707 C100.33487,43.6568245 101.756559,43.6737793 105.451245,43.6769878 L108.548475,43.6769878 C112.362374,43.6736758 113.754369,43.6557164 115.222823,43.6007228 L115.499664,43.5899721 C115.871607,43.5750444 116.258088,43.5577147 116.698143,43.5376333 C119.038117,43.4309293 120.308897,43.0399354 121.154591,42.711249 C123.24767,41.9038125 124.902043,40.2493805 125.709451,38.1562278 C126.038031,37.3104082 126.429011,36.0396782 126.535806,33.6996218 C126.558899,33.1934067 126.578353,32.7580811 126.594699,32.3342682 L126.61003,31.9120937 C126.653032,30.6438877 126.669665,29.3011642 126.674292,26.2807455 L126.675409,25.5812734 C126.675409,25.4598748 126.675409,25.3360119 126.675409,25.2096033 L126.675409,22.7923793 C126.675409,22.6659701 126.675409,22.5421067 126.675409,22.4207075 L126.674292,21.7212307 C126.669665,18.7007876 126.653032,17.3579986 126.61003,16.0898093 L126.594699,15.6676436 C126.578353,15.2438428 126.558899,14.8085401 126.535806,14.3023631 C126.429106,11.9623068 126.038126,10.6914815 125.709451,9.84575719 C125.324709,8.80328881 124.711234,7.8603028 123.914125,7.08612559 C123.139975,6.28898899 122.197023,5.67549139 121.154591,5.29073591 C120.308802,4.96204955 119.038117,4.57115096 116.698143,4.46435171 C116.147929,4.43924977 115.681457,4.41844314 115.222483,4.40125059 L114.947388,4.3913633 C114.901486,4.38978588 114.855506,4.38824325 114.809372,4.38673471 L114.530115,4.37808718 C113.30672,4.34234036 111.876308,4.32872215 108.898815,4.32525911 L107.804295,4.32430274 C107.546421,4.32430274 107.278479,4.32430274 106.999857,4.32430274 L107.409856,4.32430274 Z M107,11.6131386 C113.841251,11.6131386 119.38718,17.1592205 119.38718,24.000659 C119.38718,30.8420976 113.841251,36.3881794 107,36.3881794 C100.158749,36.3881794 94.6128197,30.8420976 94.6128197,24.000659 C94.6128197,17.1592205 100.158749,11.6131386 107,11.6131386 Z M107.000128,15.9597109 C102.559369,15.9597109 98.9593684,19.5597146 98.9593684,24.0005952 C98.9593684,28.4414757 102.559241,32.0416071 107,32.0416071 C111.440787,32.0416071 115.040823,28.4415675 115.040823,24.000659 C115.040823,19.5597785 111.440886,15.9597109 107.000128,15.9597109 Z M119.77428,8.51625853 C121.270803,8.51625853 122.483975,9.72946393 122.483975,11.2260286 C122.483975,12.7225933 121.270803,13.9357988 119.77428,13.9357988 C118.277756,13.9357988 117.064584,12.7225933 117.064584,11.2260286 C117.064584,9.72946393 118.277756,8.51625853 119.77428,8.51625853 Z" id="Combined-Shape" fill-rule="nonzero"></path>
                </g>
            </g>
        </g>
    </g>
</svg>