<?xml version="1.0" encoding="UTF-8"?>
<svg width="134px" height="133px" viewBox="0 0 134 133" version="1.1" xmlns="http://www.w3.org/2000/svg" xmlns:xlink="http://www.w3.org/1999/xlink">
    <title>Path</title>
    <defs>
        <linearGradient x1="50%" y1="0%" x2="50%" y2="100%" id="linearGradient-1">
            <stop stop-color="#000000" stop-opacity="0.204186926" offset="0%"></stop>
            <stop stop-color="#000000" stop-opacity="0" offset="100%"></stop>
        </linearGradient>
    </defs>
    <g id="Page-1" stroke="none" stroke-width="1" fill="none" fill-rule="evenodd" opacity="0.346078055">
        <g id="main-dashboard" transform="translate(-1147.000000, -2248.000000)" fill="url(#linearGradient-1)">
            <g id="CARD-FEED" transform="translate(554.000000, 2116.222727)">
                <path d="M602.150863,256.284267 C602.298227,256.688853 602.599871,257.017363 602.989827,257.199041 L610.742131,260.814247 C612.497199,264.583733 616.882208,266.45717 620.861302,265.0088 L626.958022,262.789829 C631.161354,261.260063 633.33484,256.598413 631.805074,252.395081 L618.490976,215.815295 C616.96121,211.611963 612.299827,209.438212 608.096229,210.968244 L604.504431,212.275633 C603.474745,207.974148 602.907633,203.533012 602.907633,198.99851 C602.907633,195.255358 603.298919,191.576313 604.005149,187.983983 L605.651423,188.357713 C608.141183,188.908865 610.643977,187.400911 611.378935,184.904501 C617.607058,163.597104 637.470341,148.720523 659.67735,148.720523 C681.884625,148.720523 701.747642,163.597104 707.976031,184.904501 C708.710989,187.400911 711.213517,188.908865 713.703543,188.357713 L715.355137,187.982919 C716.060303,191.575249 716.446801,195.255624 716.446801,198.99851 C716.446801,203.53381 715.875965,207.974414 714.845481,212.276431 L711.257939,210.970638 C707.054341,209.440606 702.393224,211.614357 700.863192,215.817689 L687.549095,252.397475 C686.019329,256.601073 688.192814,261.262191 692.396146,262.791957 L698.492866,265.011194 C702.47196,266.459298 706.856969,264.586127 708.612037,260.816641 L716.364341,257.201435 C716.754297,257.019757 717.055941,256.691247 717.203305,256.286395 L726.079458,231.899782 C726.226556,231.49493 726.206606,231.04938 726.025194,230.65969 L722.409989,222.907121 C723.437015,219.082041 721.526869,215.046289 717.903949,213.419699 C719.054665,208.753262 719.690671,203.928288 719.690671,198.99851 C719.690671,195.010638 719.269061,191.091927 718.510695,187.266581 L720.039663,186.919451 C723.098397,186.188217 724.346468,183.167255 723.688916,180.874867 C715.482817,152.265771 689.291394,132.500642 659.67735,132.500642 C630.063572,132.500642 603.872415,152.265771 595.665784,180.874867 C595.008498,183.167255 596.25657,186.188217 599.315569,186.919451 L600.838419,187.265251 C600.081117,191.090863 599.663497,195.010638 599.663497,198.99851 C599.663497,203.92882 600.268115,208.763636 601.418565,213.430605 C597.816394,215.065973 595.919814,219.090553 596.94418,222.904727 L593.32924,230.657296 C593.147562,231.047252 593.127612,231.492536 593.274976,231.897388 L602.150863,256.284267 Z" id="Path"></path>
            </g>
        </g>
    </g>
</svg>