<?xml version="1.0" encoding="utf-8"?>
<!-- Generator: Adobe Illustrator 26.3.1, SVG Export Plug-In . SVG Version: 6.00 Build 0)  -->
<svg version="1.1" id="Layer_1" xmlns="http://www.w3.org/2000/svg" xmlns:xlink="http://www.w3.org/1999/xlink" x="0px" y="0px"
	 viewBox="0 0 500 500" style="enable-background:new 0 0 500 500;" xml:space="preserve">
<style type="text/css">
	.st0{fill:#cccccc;}
	.st1{opacity:0.2;}
.op{
		opacity: 0.36;
	}
</style>
<g class="op">
<g>
	<rect class="st0" width="500" height="500"/>
</g>
<g class="st1">
	<path d="M130.14,175.08c0-8.27,6.7-14.98,14.97-14.98h104.9c8.26,0,14.97,6.72,14.97,14.99c0,8.25-6.69,14.57-14.95,14.57H145.11
		C136.85,189.65,130.14,183.34,130.14,175.08z M130.14,234.6c0-7.87,6.7-14.98,14.97-14.57h104.9c8.26,0,14.97,6.71,14.97,14.99
		s-6.69,14.56-14.95,14.56H145.11C136.85,249.58,130.14,242.46,130.14,234.6z M205.05,294.95c0,8.29-6.69,14.56-14.98,14.57h-44.96
		c-8.26,0-14.97-7.13-14.97-14.99s6.7-14.98,14.97-14.98h44.96C198.36,279.54,205.05,286.66,205.05,294.95z M363.83,133.1
		c3.81,2.81,6.03,7.26,6.03,12v29.96c0,6.67-4.4,12.52-10.77,14.4l-34.18,10.01V332.4c0,20.66-23.46,37.46-52.44,37.46
		c-28.98,0-52.44-16.78-52.44-37.44s23.47-37.46,52.44-37.46c7.67,0,15.22,1.29,22.47,3.75V158.39c0-6.55,4.26-12.35,10.47-14.28
		l45.24-13.34C355.16,129.42,360.07,130.3,363.83,133.1z"/>
</g>
</g>
</svg>
