<?xml version="1.0" encoding="UTF-8"?>
<svg width="50px" height="44px" viewBox="0 0 50 44" version="1.1" xmlns="http://www.w3.org/2000/svg" xmlns:xlink="http://www.w3.org/1999/xlink">
    <!-- Generator: Sketch 53.2 (72643) - https://sketchapp.com -->
    <title>LogoIconSolid</title>
    <desc>Created with Sketch.</desc>
    <defs>
        <linearGradient x1="50%" y1="-2.48949813e-15%" x2="50%" y2="99.2477829%" id="linearGradient-1">
            <stop stop-color="#FFFFFF" offset="0%"></stop>
            <stop stop-color="#FFBFE2" stop-opacity="0.8" offset="100%"></stop>
        </linearGradient>
        <path d="M25.6862281,22.6094273 C25.6154716,22.6017852 25.5439771,22.5845754 25.4752671,22.5575612 C25.2476654,22.4680766 25.0973959,22.289374 25.0973959,22.108124 L25.0973959,16.8548361 C25.0973959,16.6968977 25.2118342,16.5635446 25.3968948,16.5058432 C25.4868082,16.4778219 25.5865853,16.4697946 25.6863623,16.480547 C25.7918429,16.4919214 25.8972563,16.5243266 25.9907595,16.5763705 L29.7895344,18.8361453 C29.9399045,18.9198539 30.0418959,19.0447354 30.0676957,19.1766667 C30.0934284,19.3086276 30.040319,19.4338645 29.9227606,19.5182543 L26.1240193,22.5117674 C26.0100842,22.5935209 25.8499846,22.6270814 25.6862281,22.6094273 Z M18.0519481,10.1190452 L28.5865801,9.18945399 C32.2417955,8.88347058 35.8333333,11.6901945 35.8333333,15.8356921 L35.8333333,28.7559824 C35.8333333,30.7191045 33.4299946,32.5218 30.465368,32.7824635 C27.5007413,33.0430974 25.0974026,31.6630026 25.0974026,29.6998805 L25.0974026,26.1453782 L27.7813853,25.9094184 C30.7460119,25.6487846 33.1493506,23.0996139 33.1493506,19.4858699 L33.1493506,17.7086187 C33.1493506,14.62805 30.7460119,12.6748213 27.7813853,12.9354848 L20.7359307,13.5560713 L20.7359307,30.0548865 C20.7359307,32.0179789 18.332592,33.8206744 15.3679654,34.0813083 C12.4033052,34.3419718 10,32.9618474 10,30.9987846 C10,29.0356625 12.4033052,27.232967 15.3679654,26.9723035 C16.8502955,26.8420014 18.0519481,25.9406388 18.0519481,24.9590926 L18.0519481,13.792031 L18.0519481,12.6071969 L18.0519481,10.1190452 Z" id="path-2"></path>
    </defs>
    <g id="Welcome" stroke="none" stroke-width="1" fill="none" fill-rule="evenodd">
        <g id="LogoIconSolid">
            <path d="M1.73205081,18.6666667 L10.7679492,3.01603157 C11.839746,1.15962511 13.8205081,0.0160315721 15.9641016,0.0160315721 L34.0358984,0.0160315721 C36.1794919,0.0160315721 38.160254,1.15962511 39.2320508,3.01603157 L48.2679492,18.6666667 C49.339746,20.5230731 49.339746,22.8102602 48.2679492,24.6666667 L39.2320508,40.3173018 C38.160254,42.1737082 36.1794919,43.3173018 34.0358984,43.3173018 L15.9641016,43.3173018 C13.8205081,43.3173018 11.839746,42.1737082 10.7679492,40.3173018 L1.73205081,24.6666667 C0.660254038,22.8102602 0.660254038,20.5230731 1.73205081,18.6666667 Z" id="Combined-Shape" fill="#DB2529"></path>
            <g id="Combined-Shape">
                <use fill="url(#linearGradient-1)" xlink:href="#path-2"></use>
                <use fill="#FFFFFF" xlink:href="#path-2"></use>
            </g>
        </g>
    </g>
</svg>