<?xml version="1.0" encoding="UTF-8"?>
<svg width="625px" height="410px" viewBox="0 0 625 410" version="1.1" xmlns="http://www.w3.org/2000/svg" xmlns:xlink="http://www.w3.org/1999/xlink">
    <title>Shape</title>
    <g id="Page-1" stroke="none" stroke-width="1" fill="none" fill-rule="evenodd" opacity="0.194690523">
        <g id="id_0017--placements-achievement-top-week-copy" fill="#000000" fill-rule="nonzero">
            <path d="M706.874512,152.277832 L553.826423,-120.850666 C535.041263,-153.917422 501.111477,-173 465.288614,-173 L157.153738,-173 C121.476496,-173 87.4010889,-153.917422 68.6159282,-120.850666 L-84.4321599,152.277832 C-101.469863,183.596566 -101.469863,223.655412 -82.6847032,256.722169 L70.5090061,529.850666 C89.2941668,562.917422 123.223952,582 159.046816,582 L465.434236,582 C501.111477,582 535.186884,562.917422 553.972045,529.850666 L707.165754,256.722169 C725.659671,223.655412 725.659671,185.344588 706.874512,152.277832 Z M636.205059,265.916849 L635.767181,266.64488 C635.767181,266.64488 635.913141,266.499274 635.913141,266.353667 L634.891426,268.246551 C608.4728,315.131808 569.35572,384.44045 517.394224,476.463689 C501.630625,503.983297 473.02261,520 443.100962,520 L185.920752,520 C155.853145,520 127.39109,503.983297 111.627491,476.463689 L100.388627,456.66122 C54.119543,375.849673 18.6514439,313.675744 -5.86971179,270.139434 L-6.30758883,269.265795 C-9.95657092,264.897604 -12,259.36456 -12,253.394699 C-12,239.562092 -0.761137638,228.350399 13.1049918,228.350399 C14.1267068,228.350399 15.0024628,228.350399 16.0241769,228.496006 L153.955675,228.496006 L154.539512,228.496006 C163.880904,228.350399 172.346541,222.67175 176.141482,214.080973 L176.433401,213.498548 L215.988359,119 L303.126035,311.346042 L303.417954,311.928467 C312.02955,329.838053 337.426461,330.274873 346.767853,312.802106 L347.059771,312.219681 L423.250503,160.789034 L450.398925,214.809005 L450.690844,215.245824 C454.777703,222.962963 462.805462,227.91358 471.563018,228.059187 L472.146855,228.059187 L611.975822,228.059187 C612.851578,227.91358 613.873293,227.91358 614.895007,227.91358 C628.761137,227.91358 640,239.125272 640,252.957879 C640,257.76289 638.686366,262.131082 636.351018,265.916849 L636.205059,265.916849 Z M617.37125,179.636066 C616.64129,179.781967 615.91133,179.927868 615.18137,179.927868 L487.14644,179.927868 L444.95477,95.742623 L444.662785,95.1590165 C435.611286,78.0885242 410.792656,78.0885242 401.741155,95.1590165 L401.449172,95.742623 L326.409315,245 L237.354232,47.886885 L237.062249,47.3032785 C228.15674,28.7737703 201.440215,29.2114755 192.972683,47.886885 L192.680699,48.4704916 L137.78773,179.636066 L13.1106141,179.636066 L12.9646224,179.490164 C-0.904611841,179.490164 -12,168.255737 -12,154.540984 C-12,147.683607 -9.22615296,141.555738 -4.84639438,137.032787 C21.2861626,90.6360655 59.6820422,22.5 110.341245,-67.3754098 C126.108375,-94.9508197 154.576803,-111 184.651142,-111 L443.49485,-111 C473.569189,-111 502.037618,-94.9508197 517.804747,-67.3754098 C568.755934,23.0836062 607.297805,91.3655734 633.430363,137.616393 C637.518137,141.993443 640,147.97541 640,154.540984 C640,167.672131 630.072548,178.322951 617.37125,179.636066 Z" id="Shape"></path>
        </g>
    </g>
</svg>