<svg width="144" height="27" viewBox="0 0 144 27" fill="none" xmlns="http://www.w3.org/2000/svg">
<rect x="11" y="18" width="124" height="4" fill="#D8D8D8"/>
<circle cx="7" cy="20" r="5" fill="#2DBFB2" stroke="#2DBFB2" stroke-width="4"/>
<circle cx="40" cy="20" r="5" fill="#2DBFB2" stroke="#2DBFB2" stroke-width="4"/>
<circle cx="72" cy="20" r="5" fill="#2DBFB2" stroke="#2DBFB2" stroke-width="4"/>
<circle cx="105" cy="20" r="5" fill="white" stroke="#2DBFB2" stroke-width="4"/>
<circle cx="137" cy="20" r="5" fill="#D8D8D8" stroke="#D8D8D8" stroke-width="4"/>
<rect x="11" y="18" width="90" height="4" fill="#2DBFB2"/>
<path d="M95.7155 8V7.104L95.6755 6.936V5.408C95.6755 5.08267 95.5795 4.832 95.3875 4.656C95.2008 4.47467 94.9181 4.384 94.5395 4.384C94.2888 4.384 94.0435 4.42667 93.8035 4.512C93.5635 4.592 93.3608 4.70133 93.1955 4.84L92.8755 4.264C93.0941 4.088 93.3555 3.95467 93.6595 3.864C93.9688 3.768 94.2915 3.72 94.6275 3.72C95.2088 3.72 95.6568 3.86133 95.9715 4.144C96.2861 4.42667 96.4435 4.85867 96.4435 5.44V8H95.7155ZM94.3235 8.048C94.0088 8.048 93.7315 7.99467 93.4915 7.888C93.2568 7.78133 93.0755 7.63467 92.9475 7.448C92.8195 7.256 92.7555 7.04 92.7555 6.8C92.7555 6.57067 92.8088 6.36267 92.9155 6.176C93.0275 5.98933 93.2061 5.84 93.4515 5.728C93.7021 5.616 94.0381 5.56 94.4595 5.56H95.8035V6.112H94.4915C94.1075 6.112 93.8488 6.176 93.7155 6.304C93.5821 6.432 93.5155 6.58667 93.5155 6.768C93.5155 6.976 93.5981 7.144 93.7635 7.272C93.9288 7.39467 94.1581 7.456 94.4515 7.456C94.7395 7.456 94.9901 7.392 95.2035 7.264C95.4221 7.136 95.5795 6.94933 95.6755 6.704L95.8275 7.232C95.7261 7.48267 95.5475 7.68267 95.2915 7.832C95.0355 7.976 94.7128 8.048 94.3235 8.048ZM99.7207 9.6C99.3314 9.6 98.9527 9.544 98.5847 9.432C98.2221 9.32533 97.9261 9.17067 97.6967 8.968L98.0647 8.376C98.2621 8.54667 98.5047 8.68 98.7927 8.776C99.0807 8.87733 99.3821 8.928 99.6967 8.928C100.198 8.928 100.566 8.81067 100.801 8.576C101.035 8.34133 101.153 7.984 101.153 7.504V6.608L101.233 5.768L101.193 4.92V3.76H101.921V7.424C101.921 8.17067 101.734 8.72 101.361 9.072C100.987 9.424 100.441 9.6 99.7207 9.6ZM99.6247 7.824C99.2141 7.824 98.8461 7.73867 98.5207 7.568C98.2007 7.392 97.9447 7.14933 97.7527 6.84C97.5661 6.53067 97.4727 6.17333 97.4727 5.768C97.4727 5.35733 97.5661 5 97.7527 4.696C97.9447 4.38667 98.2007 4.14667 98.5207 3.976C98.8461 3.80533 99.2141 3.72 99.6247 3.72C99.9874 3.72 100.318 3.79467 100.617 3.944C100.915 4.088 101.153 4.312 101.329 4.616C101.51 4.92 101.601 5.304 101.601 5.768C101.601 6.22667 101.51 6.608 101.329 6.912C101.153 7.216 100.915 7.44533 100.617 7.6C100.318 7.74933 99.9874 7.824 99.6247 7.824ZM99.7127 7.152C99.9954 7.152 100.246 7.09333 100.465 6.976C100.683 6.85867 100.854 6.696 100.977 6.488C101.105 6.28 101.169 6.04 101.169 5.768C101.169 5.496 101.105 5.256 100.977 5.048C100.854 4.84 100.683 4.68 100.465 4.568C100.246 4.45067 99.9954 4.392 99.7127 4.392C99.4301 4.392 99.1767 4.45067 98.9527 4.568C98.7341 4.68 98.5607 4.84 98.4327 5.048C98.3101 5.256 98.2487 5.496 98.2487 5.768C98.2487 6.04 98.3101 6.28 98.4327 6.488C98.5607 6.696 98.7341 6.85867 98.9527 6.976C99.1767 7.09333 99.4301 7.152 99.7127 7.152ZM103.388 8V3.76H104.124V4.912L104.052 4.624C104.169 4.33067 104.367 4.10667 104.644 3.952C104.921 3.79733 105.263 3.72 105.668 3.72V4.464C105.636 4.45867 105.604 4.456 105.572 4.456C105.545 4.456 105.519 4.456 105.492 4.456C105.081 4.456 104.756 4.57867 104.516 4.824C104.276 5.06933 104.156 5.424 104.156 5.888V8H103.388ZM108.464 8.048C108.01 8.048 107.61 7.95467 107.264 7.768C106.922 7.58133 106.656 7.32533 106.464 7C106.277 6.67467 106.184 6.30133 106.184 5.88C106.184 5.45867 106.274 5.08533 106.456 4.76C106.642 4.43467 106.896 4.18133 107.216 4C107.541 3.81333 107.906 3.72 108.312 3.72C108.722 3.72 109.085 3.81067 109.4 3.992C109.714 4.17333 109.96 4.42933 110.136 4.76C110.317 5.08533 110.408 5.46667 110.408 5.904C110.408 5.936 110.405 5.97333 110.4 6.016C110.4 6.05867 110.397 6.09867 110.392 6.136H106.784V5.584H109.992L109.68 5.776C109.685 5.504 109.629 5.26133 109.512 5.048C109.394 4.83467 109.232 4.66933 109.024 4.552C108.821 4.42933 108.584 4.368 108.312 4.368C108.045 4.368 107.808 4.42933 107.6 4.552C107.392 4.66933 107.229 4.83733 107.112 5.056C106.994 5.26933 106.936 5.51467 106.936 5.792V5.92C106.936 6.20267 107 6.456 107.128 6.68C107.261 6.89867 107.445 7.06933 107.68 7.192C107.914 7.31467 108.184 7.376 108.488 7.376C108.738 7.376 108.965 7.33333 109.168 7.248C109.376 7.16267 109.557 7.03467 109.712 6.864L110.136 7.36C109.944 7.584 109.704 7.75467 109.416 7.872C109.133 7.98933 108.816 8.048 108.464 8.048ZM113.362 8.048C112.909 8.048 112.509 7.95467 112.162 7.768C111.821 7.58133 111.554 7.32533 111.362 7C111.175 6.67467 111.082 6.30133 111.082 5.88C111.082 5.45867 111.173 5.08533 111.354 4.76C111.541 4.43467 111.794 4.18133 112.114 4C112.439 3.81333 112.805 3.72 113.21 3.72C113.621 3.72 113.983 3.81067 114.298 3.992C114.613 4.17333 114.858 4.42933 115.034 4.76C115.215 5.08533 115.306 5.46667 115.306 5.904C115.306 5.936 115.303 5.97333 115.298 6.016C115.298 6.05867 115.295 6.09867 115.29 6.136H111.682V5.584H114.89L114.578 5.776C114.583 5.504 114.527 5.26133 114.41 5.048C114.293 4.83467 114.13 4.66933 113.922 4.552C113.719 4.42933 113.482 4.368 113.21 4.368C112.943 4.368 112.706 4.42933 112.498 4.552C112.29 4.66933 112.127 4.83733 112.01 5.056C111.893 5.26933 111.834 5.51467 111.834 5.792V5.92C111.834 6.20267 111.898 6.456 112.026 6.68C112.159 6.89867 112.343 7.06933 112.578 7.192C112.813 7.31467 113.082 7.376 113.386 7.376C113.637 7.376 113.863 7.33333 114.066 7.248C114.274 7.16267 114.455 7.03467 114.61 6.864L115.034 7.36C114.842 7.584 114.602 7.75467 114.314 7.872C114.031 7.98933 113.714 8.048 113.362 8.048Z" fill="#2DBFB2"/>
</svg>
