<svg width="144" height="27" viewBox="0 0 144 27" fill="none" xmlns="http://www.w3.org/2000/svg">
<circle cx="7" cy="20" r="5" fill="#2DBFB2" stroke="#2DBFB2" stroke-width="4"/>
<circle cx="40" cy="20" r="5" fill="#2DBFB2" stroke="#2DBFB2" stroke-width="4"/>
<circle cx="72" cy="20" r="5" fill="#2DBFB2" stroke="#2DBFB2" stroke-width="4"/>
<circle cx="106" cy="20" r="5" fill="#2DBFB2" stroke="#2DBFB2" stroke-width="4"/>
<circle cx="137" cy="20" r="5" fill="white" stroke="#2DBFB2" stroke-width="4"/>
<rect x="11" y="18" width="121" height="4" fill="#2DBFB2"/>
<path d="M87.0963 8.048C86.7443 8.048 86.4083 8 86.0883 7.904C85.7737 7.808 85.5257 7.69067 85.3443 7.552L85.6643 6.944C85.8457 7.06667 86.0697 7.17067 86.3363 7.256C86.603 7.34133 86.875 7.384 87.1523 7.384C87.5097 7.384 87.7657 7.33333 87.9203 7.232C88.0803 7.13067 88.1603 6.98933 88.1603 6.808C88.1603 6.67467 88.1123 6.57067 88.0163 6.496C87.9203 6.42133 87.7923 6.36533 87.6323 6.328C87.4777 6.29067 87.3043 6.25867 87.1123 6.232C86.9203 6.2 86.7283 6.16267 86.5363 6.12C86.3443 6.072 86.1683 6.008 86.0083 5.928C85.8483 5.84267 85.7203 5.728 85.6243 5.584C85.5283 5.43467 85.4803 5.23733 85.4803 4.992C85.4803 4.736 85.5523 4.512 85.6963 4.32C85.8403 4.128 86.043 3.98133 86.3043 3.88C86.571 3.77333 86.8857 3.72 87.2483 3.72C87.5257 3.72 87.8057 3.75467 88.0883 3.824C88.3763 3.888 88.611 3.98133 88.7923 4.104L88.4643 4.712C88.2723 4.584 88.0723 4.496 87.8643 4.448C87.6563 4.4 87.4483 4.376 87.2403 4.376C86.9043 4.376 86.6537 4.432 86.4883 4.544C86.323 4.65067 86.2403 4.78933 86.2403 4.96C86.2403 5.104 86.2883 5.216 86.3843 5.296C86.4857 5.37067 86.6137 5.42933 86.7683 5.472C86.9283 5.51467 87.1043 5.552 87.2963 5.584C87.4883 5.61067 87.6803 5.648 87.8723 5.696C88.0643 5.73867 88.2377 5.8 88.3923 5.88C88.5523 5.96 88.6803 6.072 88.7763 6.216C88.8777 6.36 88.9283 6.552 88.9283 6.792C88.9283 7.048 88.8537 7.26933 88.7043 7.456C88.555 7.64267 88.3443 7.78933 88.0723 7.896C87.8003 7.99733 87.475 8.048 87.0963 8.048ZM91.3442 8.048C90.9175 8.048 90.5868 7.93333 90.3522 7.704C90.1175 7.47467 90.0002 7.14667 90.0002 6.72V2.832H90.7682V6.688C90.7682 6.91733 90.8242 7.09333 90.9362 7.216C91.0535 7.33867 91.2188 7.4 91.4322 7.4C91.6722 7.4 91.8722 7.33333 92.0322 7.2L92.2722 7.752C92.1548 7.85333 92.0135 7.928 91.8482 7.976C91.6882 8.024 91.5202 8.048 91.3442 8.048ZM89.2802 4.392V3.76H91.9842V4.392H89.2802ZM93.2007 8V3.76H93.9367V4.912L93.8647 4.624C93.982 4.33067 94.1793 4.10667 94.4567 3.952C94.734 3.79733 95.0753 3.72 95.4807 3.72V4.464C95.4487 4.45867 95.4167 4.456 95.3847 4.456C95.358 4.456 95.3313 4.456 95.3047 4.456C94.894 4.456 94.5687 4.57867 94.3287 4.824C94.0887 5.06933 93.9687 5.424 93.9687 5.888V8H93.2007ZM98.2042 8.048C97.7775 8.048 97.3988 7.95467 97.0682 7.768C96.7375 7.58133 96.4762 7.32533 96.2842 7C96.0922 6.66933 95.9962 6.296 95.9962 5.88C95.9962 5.45867 96.0922 5.08533 96.2842 4.76C96.4762 4.43467 96.7375 4.18133 97.0682 4C97.3988 3.81333 97.7775 3.72 98.2042 3.72C98.6255 3.72 99.0015 3.81333 99.3322 4C99.6682 4.18133 99.9295 4.43467 100.116 4.76C100.308 5.08 100.404 5.45333 100.404 5.88C100.404 6.30133 100.308 6.67467 100.116 7C99.9295 7.32533 99.6682 7.58133 99.3322 7.768C99.0015 7.95467 98.6255 8.048 98.2042 8.048ZM98.2042 7.376C98.4762 7.376 98.7188 7.31467 98.9322 7.192C99.1508 7.06933 99.3215 6.896 99.4442 6.672C99.5668 6.44267 99.6282 6.17867 99.6282 5.88C99.6282 5.576 99.5668 5.31467 99.4442 5.096C99.3215 4.872 99.1508 4.69867 98.9322 4.576C98.7188 4.45333 98.4762 4.392 98.2042 4.392C97.9322 4.392 97.6895 4.45333 97.4762 4.576C97.2628 4.69867 97.0922 4.872 96.9642 5.096C96.8362 5.31467 96.7722 5.576 96.7722 5.88C96.7722 6.17867 96.8362 6.44267 96.9642 6.672C97.0922 6.896 97.2628 7.06933 97.4762 7.192C97.6895 7.31467 97.9322 7.376 98.2042 7.376ZM103.73 3.72C104.077 3.72 104.381 3.78667 104.642 3.92C104.909 4.05333 105.117 4.256 105.266 4.528C105.416 4.8 105.49 5.144 105.49 5.56V8H104.722V5.648C104.722 5.23733 104.621 4.928 104.418 4.72C104.221 4.512 103.941 4.408 103.578 4.408C103.306 4.408 103.069 4.46133 102.866 4.568C102.664 4.67467 102.506 4.832 102.394 5.04C102.288 5.248 102.234 5.50667 102.234 5.816V8H101.466V3.76H102.202V4.904L102.082 4.6C102.221 4.32267 102.434 4.10667 102.722 3.952C103.01 3.79733 103.346 3.72 103.73 3.72ZM108.768 9.6C108.378 9.6 108 9.544 107.632 9.432C107.269 9.32533 106.973 9.17067 106.744 8.968L107.112 8.376C107.309 8.54667 107.552 8.68 107.84 8.776C108.128 8.87733 108.429 8.928 108.744 8.928C109.245 8.928 109.613 8.81067 109.848 8.576C110.082 8.34133 110.2 7.984 110.2 7.504V6.608L110.28 5.768L110.24 4.92V3.76H110.968V7.424C110.968 8.17067 110.781 8.72 110.408 9.072C110.034 9.424 109.488 9.6 108.768 9.6ZM108.672 7.824C108.261 7.824 107.893 7.73867 107.568 7.568C107.248 7.392 106.992 7.14933 106.8 6.84C106.613 6.53067 106.52 6.17333 106.52 5.768C106.52 5.35733 106.613 5 106.8 4.696C106.992 4.38667 107.248 4.14667 107.568 3.976C107.893 3.80533 108.261 3.72 108.672 3.72C109.034 3.72 109.365 3.79467 109.664 3.944C109.962 4.088 110.2 4.312 110.376 4.616C110.557 4.92 110.648 5.304 110.648 5.768C110.648 6.22667 110.557 6.608 110.376 6.912C110.2 7.216 109.962 7.44533 109.664 7.6C109.365 7.74933 109.034 7.824 108.672 7.824ZM108.76 7.152C109.042 7.152 109.293 7.09333 109.512 6.976C109.73 6.85867 109.901 6.696 110.024 6.488C110.152 6.28 110.216 6.04 110.216 5.768C110.216 5.496 110.152 5.256 110.024 5.048C109.901 4.84 109.73 4.68 109.512 4.568C109.293 4.45067 109.042 4.392 108.76 4.392C108.477 4.392 108.224 4.45067 108 4.568C107.781 4.68 107.608 4.84 107.48 5.048C107.357 5.256 107.296 5.496 107.296 5.768C107.296 6.04 107.357 6.28 107.48 6.488C107.608 6.696 107.781 6.85867 108 6.976C108.224 7.09333 108.477 7.152 108.76 7.152ZM112.435 8V2.064H113.203V8H112.435ZM114.853 9.6C114.651 9.6 114.453 9.56533 114.261 9.496C114.069 9.432 113.904 9.336 113.765 9.208L114.093 8.632C114.2 8.73333 114.317 8.81067 114.445 8.864C114.573 8.91733 114.709 8.944 114.853 8.944C115.04 8.944 115.195 8.896 115.317 8.8C115.44 8.704 115.555 8.53333 115.661 8.288L115.925 7.704L116.005 7.608L117.669 3.76H118.421L116.365 8.424C116.243 8.72267 116.104 8.95733 115.949 9.128C115.8 9.29867 115.635 9.41867 115.453 9.488C115.272 9.56267 115.072 9.6 114.853 9.6ZM115.861 8.136L113.925 3.76H114.725L116.373 7.536L115.861 8.136ZM123.919 8V7.104L123.879 6.936V5.408C123.879 5.08267 123.783 4.832 123.591 4.656C123.404 4.47467 123.121 4.384 122.743 4.384C122.492 4.384 122.247 4.42667 122.007 4.512C121.767 4.592 121.564 4.70133 121.399 4.84L121.079 4.264C121.297 4.088 121.559 3.95467 121.863 3.864C122.172 3.768 122.495 3.72 122.831 3.72C123.412 3.72 123.86 3.86133 124.175 4.144C124.489 4.42667 124.647 4.85867 124.647 5.44V8H123.919ZM122.527 8.048C122.212 8.048 121.935 7.99467 121.695 7.888C121.46 7.78133 121.279 7.63467 121.151 7.448C121.023 7.256 120.959 7.04 120.959 6.8C120.959 6.57067 121.012 6.36267 121.119 6.176C121.231 5.98933 121.409 5.84 121.655 5.728C121.905 5.616 122.241 5.56 122.663 5.56H124.007V6.112H122.695C122.311 6.112 122.052 6.176 121.919 6.304C121.785 6.432 121.719 6.58667 121.719 6.768C121.719 6.976 121.801 7.144 121.967 7.272C122.132 7.39467 122.361 7.456 122.655 7.456C122.943 7.456 123.193 7.392 123.407 7.264C123.625 7.136 123.783 6.94933 123.879 6.704L124.031 7.232C123.929 7.48267 123.751 7.68267 123.495 7.832C123.239 7.976 122.916 8.048 122.527 8.048ZM127.924 9.6C127.535 9.6 127.156 9.544 126.788 9.432C126.425 9.32533 126.129 9.17067 125.9 8.968L126.268 8.376C126.465 8.54667 126.708 8.68 126.996 8.776C127.284 8.87733 127.585 8.928 127.9 8.928C128.401 8.928 128.769 8.81067 129.004 8.576C129.239 8.34133 129.356 7.984 129.356 7.504V6.608L129.436 5.768L129.396 4.92V3.76H130.124V7.424C130.124 8.17067 129.937 8.72 129.564 9.072C129.191 9.424 128.644 9.6 127.924 9.6ZM127.828 7.824C127.417 7.824 127.049 7.73867 126.724 7.568C126.404 7.392 126.148 7.14933 125.956 6.84C125.769 6.53067 125.676 6.17333 125.676 5.768C125.676 5.35733 125.769 5 125.956 4.696C126.148 4.38667 126.404 4.14667 126.724 3.976C127.049 3.80533 127.417 3.72 127.828 3.72C128.191 3.72 128.521 3.79467 128.82 3.944C129.119 4.088 129.356 4.312 129.532 4.616C129.713 4.92 129.804 5.304 129.804 5.768C129.804 6.22667 129.713 6.608 129.532 6.912C129.356 7.216 129.119 7.44533 128.82 7.6C128.521 7.74933 128.191 7.824 127.828 7.824ZM127.916 7.152C128.199 7.152 128.449 7.09333 128.668 6.976C128.887 6.85867 129.057 6.696 129.18 6.488C129.308 6.28 129.372 6.04 129.372 5.768C129.372 5.496 129.308 5.256 129.18 5.048C129.057 4.84 128.887 4.68 128.668 4.568C128.449 4.45067 128.199 4.392 127.916 4.392C127.633 4.392 127.38 4.45067 127.156 4.568C126.937 4.68 126.764 4.84 126.636 5.048C126.513 5.256 126.452 5.496 126.452 5.768C126.452 6.04 126.513 6.28 126.636 6.488C126.764 6.696 126.937 6.85867 127.156 6.976C127.38 7.09333 127.633 7.152 127.916 7.152ZM131.591 8V3.76H132.327V4.912L132.255 4.624C132.373 4.33067 132.57 4.10667 132.847 3.952C133.125 3.79733 133.466 3.72 133.871 3.72V4.464C133.839 4.45867 133.807 4.456 133.775 4.456C133.749 4.456 133.722 4.456 133.695 4.456C133.285 4.456 132.959 4.57867 132.719 4.824C132.479 5.06933 132.359 5.424 132.359 5.888V8H131.591ZM136.667 8.048C136.213 8.048 135.813 7.95467 135.467 7.768C135.125 7.58133 134.859 7.32533 134.667 7C134.48 6.67467 134.387 6.30133 134.387 5.88C134.387 5.45867 134.477 5.08533 134.659 4.76C134.845 4.43467 135.099 4.18133 135.419 4C135.744 3.81333 136.109 3.72 136.515 3.72C136.925 3.72 137.288 3.81067 137.603 3.992C137.917 4.17333 138.163 4.42933 138.339 4.76C138.52 5.08533 138.611 5.46667 138.611 5.904C138.611 5.936 138.608 5.97333 138.603 6.016C138.603 6.05867 138.6 6.09867 138.595 6.136H134.987V5.584H138.195L137.883 5.776C137.888 5.504 137.832 5.26133 137.715 5.048C137.597 4.83467 137.435 4.66933 137.227 4.552C137.024 4.42933 136.787 4.368 136.515 4.368C136.248 4.368 136.011 4.42933 135.803 4.552C135.595 4.66933 135.432 4.83733 135.315 5.056C135.197 5.26933 135.139 5.51467 135.139 5.792V5.92C135.139 6.20267 135.203 6.456 135.331 6.68C135.464 6.89867 135.648 7.06933 135.883 7.192C136.117 7.31467 136.387 7.376 136.691 7.376C136.941 7.376 137.168 7.33333 137.371 7.248C137.579 7.16267 137.76 7.03467 137.915 6.864L138.339 7.36C138.147 7.584 137.907 7.75467 137.619 7.872C137.336 7.98933 137.019 8.048 136.667 8.048ZM141.565 8.048C141.112 8.048 140.712 7.95467 140.365 7.768C140.024 7.58133 139.757 7.32533 139.565 7C139.379 6.67467 139.285 6.30133 139.285 5.88C139.285 5.45867 139.376 5.08533 139.557 4.76C139.744 4.43467 139.997 4.18133 140.317 4C140.643 3.81333 141.008 3.72 141.413 3.72C141.824 3.72 142.187 3.81067 142.501 3.992C142.816 4.17333 143.061 4.42933 143.237 4.76C143.419 5.08533 143.509 5.46667 143.509 5.904C143.509 5.936 143.507 5.97333 143.501 6.016C143.501 6.05867 143.499 6.09867 143.493 6.136H139.885V5.584H143.093L142.781 5.776C142.787 5.504 142.731 5.26133 142.613 5.048C142.496 4.83467 142.333 4.66933 142.125 4.552C141.923 4.42933 141.685 4.368 141.413 4.368C141.147 4.368 140.909 4.42933 140.701 4.552C140.493 4.66933 140.331 4.83733 140.213 5.056C140.096 5.26933 140.037 5.51467 140.037 5.792V5.92C140.037 6.20267 140.101 6.456 140.229 6.68C140.363 6.89867 140.547 7.06933 140.781 7.192C141.016 7.31467 141.285 7.376 141.589 7.376C141.84 7.376 142.067 7.33333 142.269 7.248C142.477 7.16267 142.659 7.03467 142.813 6.864L143.237 7.36C143.045 7.584 142.805 7.75467 142.517 7.872C142.235 7.98933 141.917 8.048 141.565 8.048Z" fill="#2DBFB2"/>
</svg>
