<svg width="144" height="27" viewBox="0 0 144 27" fill="none" xmlns="http://www.w3.org/2000/svg">
<rect x="11" y="18" width="124" height="4" fill="#D8D8D8"/>
<circle cx="105" cy="20" r="5" fill="#D8D8D8" stroke="#D8D8D8" stroke-width="4"/>
<circle cx="76" cy="20" r="5" fill="#D8D8D8" stroke="#D8D8D8" stroke-width="4"/>
<circle cx="39" cy="20" r="5" fill="#D8D8D8" stroke="#D8D8D8" stroke-width="4"/>
<circle cx="137" cy="20" r="5" fill="#D8D8D8" stroke="#D8D8D8" stroke-width="4"/>
<circle cx="7" cy="20" r="5" fill="white" stroke="#2DBFB2" stroke-width="4"/>
<path d="M2.24869 8.048C1.89669 8.048 1.56069 8 1.24069 7.904C0.926021 7.808 0.678021 7.69067 0.496688 7.552L0.816688 6.944C0.998021 7.06667 1.22202 7.17067 1.48869 7.256C1.75535 7.34133 2.02735 7.384 2.30469 7.384C2.66202 7.384 2.91802 7.33333 3.07269 7.232C3.23269 7.13067 3.31269 6.98933 3.31269 6.808C3.31269 6.67467 3.26469 6.57067 3.16869 6.496C3.07269 6.42133 2.94469 6.36533 2.78469 6.328C2.63002 6.29067 2.45669 6.25867 2.26469 6.232C2.07269 6.2 1.88069 6.16267 1.68869 6.12C1.49669 6.072 1.32069 6.008 1.16069 5.928C1.00069 5.84267 0.872688 5.728 0.776688 5.584C0.680688 5.43467 0.632688 5.23733 0.632688 4.992C0.632688 4.736 0.704688 4.512 0.848688 4.32C0.992688 4.128 1.19535 3.98133 1.45669 3.88C1.72335 3.77333 2.03802 3.72 2.40069 3.72C2.67802 3.72 2.95802 3.75467 3.24069 3.824C3.52869 3.888 3.76335 3.98133 3.94469 4.104L3.61669 4.712C3.42469 4.584 3.22469 4.496 3.01669 4.448C2.80869 4.4 2.60069 4.376 2.39269 4.376C2.05669 4.376 1.80602 4.432 1.64069 4.544C1.47535 4.65067 1.39269 4.78933 1.39269 4.96C1.39269 5.104 1.44069 5.216 1.53669 5.296C1.63802 5.37067 1.76602 5.42933 1.92069 5.472C2.08069 5.51467 2.25669 5.552 2.44869 5.584C2.64069 5.61067 2.83269 5.648 3.02469 5.696C3.21669 5.73867 3.39002 5.8 3.54469 5.88C3.70469 5.96 3.83269 6.072 3.92869 6.216C4.03002 6.36 4.08069 6.552 4.08069 6.792C4.08069 7.048 4.00602 7.26933 3.85669 7.456C3.70735 7.64267 3.49669 7.78933 3.22469 7.896C2.95269 7.99733 2.62735 8.048 2.24869 8.048ZM6.4965 8.048C6.06983 8.048 5.73917 7.93333 5.5045 7.704C5.26983 7.47467 5.1525 7.14667 5.1525 6.72V2.832H5.9205V6.688C5.9205 6.91733 5.9765 7.09333 6.0885 7.216C6.20583 7.33867 6.37117 7.4 6.5845 7.4C6.8245 7.4 7.0245 7.33333 7.1845 7.2L7.4245 7.752C7.30717 7.85333 7.16583 7.928 7.0005 7.976C6.8405 8.024 6.6725 8.048 6.4965 8.048ZM4.4325 4.392V3.76H7.1365V4.392H4.4325ZM8.353 8V3.76H9.089V4.912L9.017 4.624C9.13433 4.33067 9.33167 4.10667 9.609 3.952C9.88633 3.79733 10.2277 3.72 10.633 3.72V4.464C10.601 4.45867 10.569 4.456 10.537 4.456C10.5103 4.456 10.4837 4.456 10.457 4.456C10.0463 4.456 9.721 4.57867 9.481 4.824C9.241 5.06933 9.121 5.424 9.121 5.888V8H8.353ZM13.3565 8.048C12.9298 8.048 12.5512 7.95467 12.2205 7.768C11.8898 7.58133 11.6285 7.32533 11.4365 7C11.2445 6.66933 11.1485 6.296 11.1485 5.88C11.1485 5.45867 11.2445 5.08533 11.4365 4.76C11.6285 4.43467 11.8898 4.18133 12.2205 4C12.5512 3.81333 12.9298 3.72 13.3565 3.72C13.7778 3.72 14.1538 3.81333 14.4845 4C14.8205 4.18133 15.0818 4.43467 15.2685 4.76C15.4605 5.08 15.5565 5.45333 15.5565 5.88C15.5565 6.30133 15.4605 6.67467 15.2685 7C15.0818 7.32533 14.8205 7.58133 14.4845 7.768C14.1538 7.95467 13.7778 8.048 13.3565 8.048ZM13.3565 7.376C13.6285 7.376 13.8712 7.31467 14.0845 7.192C14.3032 7.06933 14.4738 6.896 14.5965 6.672C14.7192 6.44267 14.7805 6.17867 14.7805 5.88C14.7805 5.576 14.7192 5.31467 14.5965 5.096C14.4738 4.872 14.3032 4.69867 14.0845 4.576C13.8712 4.45333 13.6285 4.392 13.3565 4.392C13.0845 4.392 12.8418 4.45333 12.6285 4.576C12.4152 4.69867 12.2445 4.872 12.1165 5.096C11.9885 5.31467 11.9245 5.576 11.9245 5.88C11.9245 6.17867 11.9885 6.44267 12.1165 6.672C12.2445 6.896 12.4152 7.06933 12.6285 7.192C12.8418 7.31467 13.0845 7.376 13.3565 7.376ZM18.8826 3.72C19.2293 3.72 19.5333 3.78667 19.7946 3.92C20.0613 4.05333 20.2693 4.256 20.4186 4.528C20.568 4.8 20.6426 5.144 20.6426 5.56V8H19.8746V5.648C19.8746 5.23733 19.7733 4.928 19.5706 4.72C19.3733 4.512 19.0933 4.408 18.7306 4.408C18.4586 4.408 18.2213 4.46133 18.0186 4.568C17.816 4.67467 17.6586 4.832 17.5466 5.04C17.44 5.248 17.3866 5.50667 17.3866 5.816V8H16.6186V3.76H17.3546V4.904L17.2346 4.6C17.3733 4.32267 17.5866 4.10667 17.8746 3.952C18.1626 3.79733 18.4986 3.72 18.8826 3.72ZM23.9199 9.6C23.5306 9.6 23.1519 9.544 22.7839 9.432C22.4213 9.32533 22.1253 9.17067 21.8959 8.968L22.2639 8.376C22.4613 8.54667 22.7039 8.68 22.9919 8.776C23.2799 8.87733 23.5813 8.928 23.8959 8.928C24.3973 8.928 24.7653 8.81067 24.9999 8.576C25.2346 8.34133 25.3519 7.984 25.3519 7.504V6.608L25.4319 5.768L25.3919 4.92V3.76H26.1199V7.424C26.1199 8.17067 25.9333 8.72 25.5599 9.072C25.1866 9.424 24.6399 9.6 23.9199 9.6ZM23.8239 7.824C23.4133 7.824 23.0453 7.73867 22.7199 7.568C22.3999 7.392 22.1439 7.14933 21.9519 6.84C21.7653 6.53067 21.6719 6.17333 21.6719 5.768C21.6719 5.35733 21.7653 5 21.9519 4.696C22.1439 4.38667 22.3999 4.14667 22.7199 3.976C23.0453 3.80533 23.4133 3.72 23.8239 3.72C24.1866 3.72 24.5173 3.79467 24.8159 3.944C25.1146 4.088 25.3519 4.312 25.5279 4.616C25.7093 4.92 25.7999 5.304 25.7999 5.768C25.7999 6.22667 25.7093 6.608 25.5279 6.912C25.3519 7.216 25.1146 7.44533 24.8159 7.6C24.5173 7.74933 24.1866 7.824 23.8239 7.824ZM23.9119 7.152C24.1946 7.152 24.4453 7.09333 24.6639 6.976C24.8826 6.85867 25.0533 6.696 25.1759 6.488C25.3039 6.28 25.3679 6.04 25.3679 5.768C25.3679 5.496 25.3039 5.256 25.1759 5.048C25.0533 4.84 24.8826 4.68 24.6639 4.568C24.4453 4.45067 24.1946 4.392 23.9119 4.392C23.6293 4.392 23.3759 4.45067 23.1519 4.568C22.9333 4.68 22.7599 4.84 22.6319 5.048C22.5093 5.256 22.4479 5.496 22.4479 5.768C22.4479 6.04 22.5093 6.28 22.6319 6.488C22.7599 6.696 22.9333 6.85867 23.1519 6.976C23.3759 7.09333 23.6293 7.152 23.9119 7.152ZM27.5874 8V2.064H28.3554V8H27.5874ZM30.0058 9.6C29.8031 9.6 29.6058 9.56533 29.4138 9.496C29.2218 9.432 29.0564 9.336 28.9177 9.208L29.2458 8.632C29.3524 8.73333 29.4698 8.81067 29.5978 8.864C29.7258 8.91733 29.8618 8.944 30.0058 8.944C30.1924 8.944 30.3471 8.896 30.4698 8.8C30.5924 8.704 30.7071 8.53333 30.8138 8.288L31.0778 7.704L31.1578 7.608L32.8218 3.76H33.5738L31.5178 8.424C31.3951 8.72267 31.2564 8.95733 31.1018 9.128C30.9524 9.29867 30.7871 9.41867 30.6058 9.488C30.4244 9.56267 30.2244 9.6 30.0058 9.6ZM31.0138 8.136L29.0777 3.76H29.8778L31.5258 7.536L31.0138 8.136ZM38.1909 8.048C37.7803 8.048 37.4123 7.95733 37.0869 7.776C36.7669 7.59467 36.5136 7.34133 36.3269 7.016C36.1403 6.69067 36.0469 6.312 36.0469 5.88C36.0469 5.448 36.1403 5.072 36.3269 4.752C36.5136 4.42667 36.7669 4.17333 37.0869 3.992C37.4123 3.81067 37.7803 3.72 38.1909 3.72C38.5483 3.72 38.8709 3.8 39.1589 3.96C39.4469 4.12 39.6763 4.36 39.8469 4.68C40.0229 5 40.1109 5.4 40.1109 5.88C40.1109 6.36 40.0256 6.76 39.8549 7.08C39.6896 7.4 39.4629 7.64267 39.1749 7.808C38.8869 7.968 38.5589 8.048 38.1909 8.048ZM38.2549 7.376C38.5216 7.376 38.7616 7.31467 38.9749 7.192C39.1936 7.06933 39.3643 6.896 39.4869 6.672C39.6149 6.44267 39.6789 6.17867 39.6789 5.88C39.6789 5.576 39.6149 5.31467 39.4869 5.096C39.3643 4.872 39.1936 4.69867 38.9749 4.576C38.7616 4.45333 38.5216 4.392 38.2549 4.392C37.9829 4.392 37.7403 4.45333 37.5269 4.576C37.3136 4.69867 37.1429 4.872 37.0149 5.096C36.8869 5.31467 36.8229 5.576 36.8229 5.88C36.8229 6.17867 36.8869 6.44267 37.0149 6.672C37.1429 6.896 37.3136 7.06933 37.5269 7.192C37.7403 7.31467 37.9829 7.376 38.2549 7.376ZM39.7029 8V6.856L39.7509 5.872L39.6709 4.888V2.064H40.4389V8H39.7029ZM41.8921 8V3.76H42.6601V8H41.8921ZM42.2761 2.944C42.1267 2.944 42.0014 2.896 41.9001 2.8C41.8041 2.704 41.7561 2.58667 41.7561 2.448C41.7561 2.304 41.8041 2.184 41.9001 2.088C42.0014 1.992 42.1267 1.944 42.2761 1.944C42.4254 1.944 42.5481 1.992 42.6441 2.088C42.7454 2.17867 42.7961 2.29333 42.7961 2.432C42.7961 2.576 42.7481 2.69867 42.6521 2.8C42.5561 2.896 42.4307 2.944 42.2761 2.944ZM45.3424 8.048C44.9904 8.048 44.6544 8 44.3344 7.904C44.0198 7.808 43.7718 7.69067 43.5904 7.552L43.9104 6.944C44.0918 7.06667 44.3158 7.17067 44.5824 7.256C44.8491 7.34133 45.1211 7.384 45.3984 7.384C45.7558 7.384 46.0118 7.33333 46.1664 7.232C46.3264 7.13067 46.4064 6.98933 46.4064 6.808C46.4064 6.67467 46.3584 6.57067 46.2624 6.496C46.1664 6.42133 46.0384 6.36533 45.8784 6.328C45.7238 6.29067 45.5504 6.25867 45.3584 6.232C45.1664 6.2 44.9744 6.16267 44.7824 6.12C44.5904 6.072 44.4144 6.008 44.2544 5.928C44.0944 5.84267 43.9664 5.728 43.8704 5.584C43.7744 5.43467 43.7264 5.23733 43.7264 4.992C43.7264 4.736 43.7984 4.512 43.9424 4.32C44.0864 4.128 44.2891 3.98133 44.5504 3.88C44.8171 3.77333 45.1318 3.72 45.4944 3.72C45.7718 3.72 46.0518 3.75467 46.3344 3.824C46.6224 3.888 46.8571 3.98133 47.0384 4.104L46.7104 4.712C46.5184 4.584 46.3184 4.496 46.1104 4.448C45.9024 4.4 45.6944 4.376 45.4864 4.376C45.1504 4.376 44.8998 4.432 44.7344 4.544C44.5691 4.65067 44.4864 4.78933 44.4864 4.96C44.4864 5.104 44.5344 5.216 44.6304 5.296C44.7318 5.37067 44.8598 5.42933 45.0144 5.472C45.1744 5.51467 45.3504 5.552 45.5424 5.584C45.7344 5.61067 45.9264 5.648 46.1184 5.696C46.3104 5.73867 46.4838 5.8 46.6384 5.88C46.7984 5.96 46.9264 6.072 47.0224 6.216C47.1238 6.36 47.1744 6.552 47.1744 6.792C47.1744 7.048 47.0998 7.26933 46.9504 7.456C46.8011 7.64267 46.5904 7.78933 46.3184 7.896C46.0464 7.99733 45.7211 8.048 45.3424 8.048ZM50.7663 8V7.104L50.7263 6.936V5.408C50.7263 5.08267 50.6303 4.832 50.4383 4.656C50.2516 4.47467 49.9689 4.384 49.5903 4.384C49.3396 4.384 49.0943 4.42667 48.8543 4.512C48.6143 4.592 48.4116 4.70133 48.2463 4.84L47.9263 4.264C48.1449 4.088 48.4063 3.95467 48.7103 3.864C49.0196 3.768 49.3423 3.72 49.6783 3.72C50.2596 3.72 50.7076 3.86133 51.0223 4.144C51.3369 4.42667 51.4943 4.85867 51.4943 5.44V8H50.7663ZM49.3743 8.048C49.0596 8.048 48.7823 7.99467 48.5423 7.888C48.3076 7.78133 48.1263 7.63467 47.9983 7.448C47.8703 7.256 47.8063 7.04 47.8063 6.8C47.8063 6.57067 47.8596 6.36267 47.9663 6.176C48.0783 5.98933 48.2569 5.84 48.5023 5.728C48.7529 5.616 49.0889 5.56 49.5103 5.56H50.8543V6.112H49.5423C49.1583 6.112 48.8996 6.176 48.7663 6.304C48.6329 6.432 48.5663 6.58667 48.5663 6.768C48.5663 6.976 48.6489 7.144 48.8143 7.272C48.9796 7.39467 49.2089 7.456 49.5023 7.456C49.7903 7.456 50.0409 7.392 50.2543 7.264C50.4729 7.136 50.6303 6.94933 50.7263 6.704L50.8783 7.232C50.7769 7.48267 50.5983 7.68267 50.3423 7.832C50.0863 7.976 49.7636 8.048 49.3743 8.048ZM54.7715 9.6C54.3822 9.6 54.0035 9.544 53.6355 9.432C53.2728 9.32533 52.9768 9.17067 52.7475 8.968L53.1155 8.376C53.3128 8.54667 53.5555 8.68 53.8435 8.776C54.1315 8.87733 54.4328 8.928 54.7475 8.928C55.2488 8.928 55.6168 8.81067 55.8515 8.576C56.0862 8.34133 56.2035 7.984 56.2035 7.504V6.608L56.2835 5.768L56.2435 4.92V3.76H56.9715V7.424C56.9715 8.17067 56.7848 8.72 56.4115 9.072C56.0382 9.424 55.4915 9.6 54.7715 9.6ZM54.6755 7.824C54.2648 7.824 53.8968 7.73867 53.5715 7.568C53.2515 7.392 52.9955 7.14933 52.8035 6.84C52.6168 6.53067 52.5235 6.17333 52.5235 5.768C52.5235 5.35733 52.6168 5 52.8035 4.696C52.9955 4.38667 53.2515 4.14667 53.5715 3.976C53.8968 3.80533 54.2648 3.72 54.6755 3.72C55.0382 3.72 55.3688 3.79467 55.6675 3.944C55.9662 4.088 56.2035 4.312 56.3795 4.616C56.5608 4.92 56.6515 5.304 56.6515 5.768C56.6515 6.22667 56.5608 6.608 56.3795 6.912C56.2035 7.216 55.9662 7.44533 55.6675 7.6C55.3688 7.74933 55.0382 7.824 54.6755 7.824ZM54.7635 7.152C55.0462 7.152 55.2968 7.09333 55.5155 6.976C55.7342 6.85867 55.9048 6.696 56.0275 6.488C56.1555 6.28 56.2195 6.04 56.2195 5.768C56.2195 5.496 56.1555 5.256 56.0275 5.048C55.9048 4.84 55.7342 4.68 55.5155 4.568C55.2968 4.45067 55.0462 4.392 54.7635 4.392C54.4808 4.392 54.2275 4.45067 54.0035 4.568C53.7848 4.68 53.6115 4.84 53.4835 5.048C53.3608 5.256 53.2995 5.496 53.2995 5.768C53.2995 6.04 53.3608 6.28 53.4835 6.488C53.6115 6.696 53.7848 6.85867 54.0035 6.976C54.2275 7.09333 54.4808 7.152 54.7635 7.152ZM58.4389 8V3.76H59.1749V4.912L59.1029 4.624C59.2203 4.33067 59.4176 4.10667 59.6949 3.952C59.9723 3.79733 60.3136 3.72 60.7189 3.72V4.464C60.6869 4.45867 60.6549 4.456 60.6229 4.456C60.5963 4.456 60.5696 4.456 60.5429 4.456C60.1323 4.456 59.8069 4.57867 59.5669 4.824C59.3269 5.06933 59.2069 5.424 59.2069 5.888V8H58.4389ZM63.5144 8.048C63.0611 8.048 62.6611 7.95467 62.3144 7.768C61.9731 7.58133 61.7064 7.32533 61.5144 7C61.3278 6.67467 61.2344 6.30133 61.2344 5.88C61.2344 5.45867 61.3251 5.08533 61.5064 4.76C61.6931 4.43467 61.9464 4.18133 62.2664 4C62.5918 3.81333 62.9571 3.72 63.3624 3.72C63.7731 3.72 64.1358 3.81067 64.4504 3.992C64.7651 4.17333 65.0104 4.42933 65.1864 4.76C65.3678 5.08533 65.4584 5.46667 65.4584 5.904C65.4584 5.936 65.4558 5.97333 65.4504 6.016C65.4504 6.05867 65.4478 6.09867 65.4424 6.136H61.8344V5.584H65.0424L64.7304 5.776C64.7358 5.504 64.6798 5.26133 64.5624 5.048C64.4451 4.83467 64.2824 4.66933 64.0744 4.552C63.8718 4.42933 63.6344 4.368 63.3624 4.368C63.0958 4.368 62.8584 4.42933 62.6504 4.552C62.4424 4.66933 62.2798 4.83733 62.1624 5.056C62.0451 5.26933 61.9864 5.51467 61.9864 5.792V5.92C61.9864 6.20267 62.0504 6.456 62.1784 6.68C62.3118 6.89867 62.4958 7.06933 62.7304 7.192C62.9651 7.31467 63.2344 7.376 63.5384 7.376C63.7891 7.376 64.0158 7.33333 64.2184 7.248C64.4264 7.16267 64.6078 7.03467 64.7624 6.864L65.1864 7.36C64.9944 7.584 64.7544 7.75467 64.4664 7.872C64.1838 7.98933 63.8664 8.048 63.5144 8.048ZM68.4129 8.048C67.9595 8.048 67.5595 7.95467 67.2129 7.768C66.8715 7.58133 66.6049 7.32533 66.4129 7C66.2262 6.67467 66.1329 6.30133 66.1329 5.88C66.1329 5.45867 66.2235 5.08533 66.4049 4.76C66.5915 4.43467 66.8449 4.18133 67.1649 4C67.4902 3.81333 67.8555 3.72 68.2609 3.72C68.6715 3.72 69.0342 3.81067 69.3489 3.992C69.6635 4.17333 69.9089 4.42933 70.0849 4.76C70.2662 5.08533 70.3569 5.46667 70.3569 5.904C70.3569 5.936 70.3542 5.97333 70.3489 6.016C70.3489 6.05867 70.3462 6.09867 70.3409 6.136H66.7329V5.584H69.9409L69.6289 5.776C69.6342 5.504 69.5782 5.26133 69.4609 5.048C69.3435 4.83467 69.1809 4.66933 68.9729 4.552C68.7702 4.42933 68.5329 4.368 68.2609 4.368C67.9942 4.368 67.7569 4.42933 67.5489 4.552C67.3409 4.66933 67.1782 4.83733 67.0609 5.056C66.9435 5.26933 66.8849 5.51467 66.8849 5.792V5.92C66.8849 6.20267 66.9489 6.456 67.0769 6.68C67.2102 6.89867 67.3942 7.06933 67.6289 7.192C67.8635 7.31467 68.1329 7.376 68.4369 7.376C68.6875 7.376 68.9142 7.33333 69.1169 7.248C69.3249 7.16267 69.5062 7.03467 69.6609 6.864L70.0849 7.36C69.8929 7.584 69.6529 7.75467 69.3649 7.872C69.0822 7.98933 68.7649 8.048 68.4129 8.048Z" fill="#2DBFB2"/>
</svg>
