<?xml version="1.0" encoding="UTF-8"?>
<svg width="165px" height="32px" viewBox="0 0 165 32" version="1.1" xmlns="http://www.w3.org/2000/svg" xmlns:xlink="http://www.w3.org/1999/xlink">
    <title>score-55pc</title>
    <g id="Page-1" stroke="none" stroke-width="1" fill="none" fill-rule="evenodd">
        <g id="score-55pc" fill-rule="nonzero">
            <g id="Group-2" transform="translate(0.000000, 0.000000)">
                <path d="M6,5 C7.0638879,5 6.4075754,6.35460666 8.8150916,6.98082878 C11.2226078,7.6070509 12,9.7959594 12,12.4 L12,14.8 C12,16.3163321 10.9453352,18.586334 9.5295471,18.9164642 L9.5294118,26.6705882 C9.5294118,29.1721133 8.501525,31.2 6,31.2 C3.498475,31.2 2.4705882,29.1721133 2.4705882,26.6705882 L2.4704529,18.9164642 C1.0546648,18.586334 0,16.3163321 0,14.8 L0,12.4 C0,9.7959594 0.7773922,7.6070509 3.1851944,6.9802569 C5.5929966,6.3534629 4.9361121,5 6,5 Z M6,0 C7.65685425,0 9,1.34314575 9,3 C9,4.65685425 7.65685425,6 6,6 C4.34314575,6 3,4.65685425 3,3 C3,1.34314575 4.34314575,0 6,0 Z" id="Combined-Shape" fill="#1DBA54"></path>
                <path d="M23,5 C24.0638879,5 23.4075754,6.35460666 25.8150916,6.98082878 C28.2226078,7.6070509 29,9.7959594 29,12.4 L29,14.8 C29,16.3163321 27.9453352,18.586334 26.5295471,18.9164642 L26.5294118,26.6705882 C26.5294118,29.1721133 25.501525,31.2 23,31.2 C20.498475,31.2 19.4705882,29.1721133 19.4705882,26.6705882 L19.4704529,18.9164642 C18.0546648,18.586334 17,16.3163321 17,14.8 L17,12.4 C17,9.7959594 17.7773922,7.6070509 20.1851944,6.9802569 C22.5929966,6.3534629 21.9361121,5 23,5 Z M23,0 C24.6568543,0 26,1.34314575 26,3 C26,4.65685425 24.6568543,6 23,6 C21.3431457,6 20,4.65685425 20,3 C20,1.34314575 21.3431457,0 23,0 Z" id="Combined-Shape" fill="#1DBA54"></path>
                <path d="M40,5 C41.0638879,5 40.4075754,6.35460666 42.8150916,6.98082878 C45.2226078,7.6070509 46,9.7959594 46,12.4 L46,14.8 C46,16.3163321 44.9453352,18.586334 43.5295471,18.9164642 L43.5294118,26.6705882 C43.5294118,29.1721133 42.501525,31.2 40,31.2 C37.498475,31.2 36.4705882,29.1721133 36.4705882,26.6705882 L36.4704529,18.9164642 C35.0546648,18.586334 34,16.3163321 34,14.8 L34,12.4 C34,9.7959594 34.7773922,7.6070509 37.1851944,6.9802569 C39.5929966,6.3534629 38.9361121,5 40,5 Z M40,0 C41.6568543,0 43,1.34314575 43,3 C43,4.65685425 41.6568543,6 40,6 C38.3431457,6 37,4.65685425 37,3 C37,1.34314575 38.3431457,0 40,0 Z" id="Combined-Shape" fill="#1DBA54"></path>
                <path d="M57,5 C58.0638879,5 57.4075754,6.35460666 59.8150916,6.98082878 C62.2226078,7.6070509 63,9.7959594 63,12.4 L63,14.8 C63,16.3163321 61.9453352,18.586334 60.5295471,18.9164642 L60.5294118,26.6705882 C60.5294118,29.1721133 59.501525,31.2 57,31.2 C54.498475,31.2 53.4705882,29.1721133 53.4705882,26.6705882 L53.4704529,18.9164642 C52.0546648,18.586334 51,16.3163321 51,14.8 L51,12.4 C51,9.7959594 51.7773922,7.6070509 54.1851944,6.9802569 C56.5929966,6.3534629 55.9361121,5 57,5 Z M57,0 C58.6568543,0 60,1.34314575 60,3 C60,4.65685425 58.6568543,6 57,6 C55.3431457,6 54,4.65685425 54,3 C54,1.34314575 55.3431457,0 57,0 Z" id="Combined-Shape" fill="#1DBA54"></path>
                <path d="M74,5 C75.0638879,5 74.4075754,6.35460666 76.8150916,6.98082878 C79.2226078,7.6070509 80,9.7959594 80,12.4 L80,14.8 C80,16.3163321 78.9453352,18.586334 77.5295471,18.9164642 L77.5294118,26.6705882 C77.5294118,29.1721133 76.501525,31.2 74,31.2 C71.498475,31.2 70.4705882,29.1721133 70.4705882,26.6705882 L70.4704529,18.9164642 C69.0546648,18.586334 68,16.3163321 68,14.8 L68,12.4 C68,9.7959594 68.7773922,7.6070509 71.1851944,6.9802569 C73.5929966,6.3534629 72.9361121,5 74,5 Z M74,0 C75.6568543,0 77,1.34314575 77,3 C77,4.65685425 75.6568543,6 74,6 C72.3431457,6 71,4.65685425 71,3 C71,1.34314575 72.3431457,0 74,0 Z" id="Combined-Shape" fill="#1DBA54"></path>
                <path d="M91,5 C92.0638879,5 91.4075754,6.35460666 93.8150916,6.98082878 C96.2226078,7.6070509 97,9.7959594 97,12.4 L97,14.8 C97,16.3163321 95.9453352,18.586334 94.5295471,18.9164642 L94.5294118,26.6705882 C94.5294118,29.1721133 93.501525,31.2 91,31.2 C88.498475,31.2 87.4705882,29.1721133 87.4705882,26.6705882 L87.4704529,18.9164642 C86.0546648,18.586334 85,16.3163321 85,14.8 L85,12.4 C85,9.7959594 85.7773922,7.6070509 88.1851944,6.9802569 C90.5929966,6.3534629 89.9361121,5 91,5 Z M91,0 C92.6568543,0 94,1.34314575 94,3 C94,4.65685425 92.6568543,6 91,6 C89.3431457,6 88,4.65685425 88,3 C88,1.34314575 89.3431457,0 91,0 Z" id="Combined-Shape" fill="#FFFFFF"></path>
                <path d="M108,5 C109.063888,5 108.407575,6.35460666 110.815092,6.98082878 C113.222608,7.6070509 114,9.7959594 114,12.4 L114,14.8 C114,16.3163321 112.945335,18.586334 111.529547,18.9164642 L111.529412,26.6705882 C111.529412,29.1721133 110.501525,31.2 108,31.2 C105.498475,31.2 104.470588,29.1721133 104.470588,26.6705882 L104.470453,18.9164642 C103.054665,18.586334 102,16.3163321 102,14.8 L102,12.4 C102,9.7959594 102.777392,7.6070509 105.185194,6.9802569 C107.592997,6.3534629 106.936112,5 108,5 Z M108,0 C109.656854,0 111,1.34314575 111,3 C111,4.65685425 109.656854,6 108,6 C106.343146,6 105,4.65685425 105,3 C105,1.34314575 106.343146,0 108,0 Z" id="Combined-Shape" fill="#FFFFFF"></path>
                <path d="M125,5 C126.063888,5 125.407575,6.35460666 127.815092,6.98082878 C130.222608,7.6070509 131,9.7959594 131,12.4 L131,14.8 C131,16.3163321 129.945335,18.586334 128.529547,18.9164642 L128.529412,26.6705882 C128.529412,29.1721133 127.501525,31.2 125,31.2 C122.498475,31.2 121.470588,29.1721133 121.470588,26.6705882 L121.470453,18.9164642 C120.054665,18.586334 119,16.3163321 119,14.8 L119,12.4 C119,9.7959594 119.777392,7.6070509 122.185194,6.9802569 C124.592997,6.3534629 123.936112,5 125,5 Z M125,0 C126.656854,0 128,1.34314575 128,3 C128,4.65685425 126.656854,6 125,6 C123.343146,6 122,4.65685425 122,3 C122,1.34314575 123.343146,0 125,0 Z" id="Combined-Shape" fill="#FFFFFF"></path>
                <path d="M142,5 C143.063888,5 142.407575,6.35460666 144.815092,6.98082878 C147.222608,7.6070509 148,9.7959594 148,12.4 L148,14.8 C148,16.3163321 146.945335,18.586334 145.529547,18.9164642 L145.529412,26.6705882 C145.529412,29.1721133 144.501525,31.2 142,31.2 C139.498475,31.2 138.470588,29.1721133 138.470588,26.6705882 L138.470453,18.9164642 C137.054665,18.586334 136,16.3163321 136,14.8 L136,12.4 C136,9.7959594 136.777392,7.6070509 139.185194,6.9802569 C141.592997,6.3534629 140.936112,5 142,5 Z M142,0 C143.656854,0 145,1.34314575 145,3 C145,4.65685425 143.656854,6 142,6 C140.343146,6 139,4.65685425 139,3 C139,1.34314575 140.343146,0 142,0 Z" id="Combined-Shape" fill="#FFFFFF"></path>
                <path d="M159,5 C160.063888,5 159.407575,6.35460666 161.815092,6.98082878 C164.222608,7.6070509 165,9.7959594 165,12.4 L165,14.8 C165,16.3163321 163.945335,18.586334 162.529547,18.9164642 L162.529412,26.6705882 C162.529412,29.1721133 161.501525,31.2 159,31.2 C156.498475,31.2 155.470588,29.1721133 155.470588,26.6705882 L155.470453,18.9164642 C154.054665,18.586334 153,16.3163321 153,14.8 L153,12.4 C153,9.7959594 153.777392,7.6070509 156.185194,6.9802569 C158.592997,6.3534629 157.936112,5 159,5 Z M159,0 C160.656854,0 162,1.34314575 162,3 C162,4.65685425 160.656854,6 159,6 C157.343146,6 156,4.65685425 156,3 C156,1.34314575 157.343146,0 159,0 Z" id="Combined-Shape" fill="#FFFFFF"></path>
            </g>
            <g id="Group-3" transform="translate(85.000000, 0.000000)">
                <path d="M6,5 C7.0638879,5 6.4075754,6.35460666 8.8150916,6.98082878 C11.2226078,7.6070509 12,9.7959594 12,12.4 L12,14.8 C12,16.3163321 10.9453352,18.586334 9.5295471,18.9164642 L9.5294118,26.6705882 C9.5294118,29.1721133 8.501525,31.2 6,31.2 C3.498475,31.2 2.4705882,29.1721133 2.4705882,26.6705882 L2.4704529,18.9164642 C1.0546648,18.586334 0,16.3163321 0,14.8 L0,12.4 C0,9.7959594 0.7773922,7.6070509 3.1851944,6.9802569 C5.5929966,6.3534629 4.9361121,5 6,5 Z" id="Combined-Shape-path" fill="#FFFFFF"></path>
                <path d="M6,0 C7.65685425,0 9,1.34314575 9,3 C9,4.65685425 7.65685425,6 6,6 C4.34314575,6 3,4.65685425 3,3 C3,1.34314575 4.34314575,0 6,0 Z" id="Combined-Shape-path" fill="#FFFFFF"></path>
                <path d="M6,2.84217094e-14 L6,31.2 L6,31.2 C3.498475,31.2 2.4705882,29.1721133 2.4705882,26.6705882 L2.4704529,18.9164642 C1.0546648,18.586334 0,16.3163321 0,14.8 L0,12.4 C0,9.87733567 0.72956436,7.74426308 2.9642135,7.04356034 L3.1851944,6.9802569 C4.30696891,6.68823892 4.76353827,6.23849392 5.03882729,5.84137317 C3.85291067,5.4414035 3,4.32030573 3,3 C3,1.34314575 4.34314575,2.84217094e-14 6,2.84217094e-14 Z" id="Combined-Shape" fill="#1DBA54"></path>
            </g>
        </g>
    </g>
</svg>