<?xml version="1.0" encoding="UTF-8"?>
<svg width="179px" height="190px" viewBox="0 0 179 190" version="1.1" xmlns="http://www.w3.org/2000/svg" xmlns:xlink="http://www.w3.org/1999/xlink">
    <title>Group 10</title>
    <defs>
        <linearGradient x1="50%" y1="0%" x2="50%" y2="100%" id="linearGradient-1">
            <stop stop-color="#EEEEEE" stop-opacity="0" offset="0%"></stop>
            <stop stop-color="#D8D8D8" offset="100%"></stop>
        </linearGradient>
        <linearGradient x1="50%" y1="0%" x2="50%" y2="100%" id="linearGradient-2">
            <stop stop-color="#FFFFFF" offset="0%"></stop>
            <stop stop-color="#FFFFFF" stop-opacity="0" offset="100%"></stop>
        </linearGradient>
        <linearGradient x1="37.5498613%" y1="0%" x2="37.5498613%" y2="119.003183%" id="linearGradient-3">
            <stop stop-color="#FFFFFF" stop-opacity="0.93432105" offset="0%"></stop>
            <stop stop-color="#FFFFFF" stop-opacity="0" offset="99.9600497%"></stop>
        </linearGradient>
        <linearGradient x1="50%" y1="0%" x2="50%" y2="100%" id="linearGradient-4">
            <stop stop-color="#FFFFFF" stop-opacity="0" offset="0%"></stop>
            <stop stop-color="#FFFFFF" offset="100%"></stop>
        </linearGradient>
    </defs>
    <g id="Page-1" stroke="none" stroke-width="1" fill="none" fill-rule="evenodd">
        <g id="Artboard" transform="translate(-1308.000000, -567.000000)">
            <g id="Group-10" transform="translate(1308.000000, 567.000000)">
                <path d="M35,119 L179,119 L179,119 L179,190 L0,190 L0,154 C-2.36723813e-15,134.670034 15.6700338,119 35,119 Z" id="Rectangle" fill="url(#linearGradient-1)" opacity="0.0581330799"></path>
                <g id="Group-9" transform="translate(48.000000, 0.000000)" fill-rule="nonzero">
                    <path d="M119.090909,20.1428571 L101.227273,20.1428571 L101.227273,13.4285714 C101.227273,6.01217622 95.8953911,0 89.3181818,0 L41.6818182,0 C35.1046089,0 29.7727273,6.01217622 29.7727273,13.4285714 L29.7727273,20.1428571 L11.9090909,20.1428571 C5.33188162,20.1428571 0,26.1550334 0,33.5714286 L0,174.571429 C0,181.987824 5.33188162,188 11.9090909,188 L119.090909,188 C125.668118,188 131,181.987824 131,174.571429 L131,33.5714286 C131,26.1550334 125.668118,20.1428571 119.090909,20.1428571 Z" id="Combined-Shape" fill="url(#linearGradient-2)" opacity="0.202678862"></path>
                    <path d="M17,66.5614035 L85,66.5614035 L85,75.4385965 L17,75.4385965 L17,66.5614035 Z M17,48 L118,48 L118,56.877193 L17,56.877193 L17,48 Z M17,85.122807 L59,85.122807 L59,94 L17,94 L17,85.122807 Z M84,145 C85.6568542,145 87,146.343146 87,148 C87,149.656854 85.6568542,151 84,151 C82.3431458,151 81,149.656854 81,148 C81,146.343146 82.3431458,145 84,145 L84,145 Z M84.5002521,122 C89.2294696,122 93,126.137889 93,131.537688 C93,134.403886 92.0183777,135.978827 89.6652365,137.984187 L88.394632,139.035778 C87.2662251,139.984656 86.8855024,140.503115 86.8075231,141.227001 L86.7570659,141.990016 C86.5454146,143.2365 85.4761496,144.104332 84.2930188,143.989875 C83.109888,143.875418 82.2045551,142.816562 82.2067421,141.549815 C82.2067421,138.761875 83.1700163,137.226063 85.4910484,135.25005 L86.7662399,134.198459 C88.0873017,133.0735 88.4175671,132.525695 88.4175671,131.537688 C88.4175671,128.808442 86.6653255,126.891122 84.5002521,126.891122 C82.2342642,126.891122 80.560002,128.681273 80.5875241,131.513232 C80.6001908,132.863879 79.5836198,133.969743 78.3169492,133.983249 C77.0502786,133.996756 76.0131709,132.91279 76.0005042,131.562144 C75.9500469,125.996047 79.6930552,122 84.5002521,122 Z M61,136.991373 C61.0040435,126.324207 68.0490942,116.940056 78.2917174,113.958482 C88.5343407,110.976908 99.5157304,115.113657 105.244943,124.111908 C110.974156,133.110159 110.075859,144.809826 103.040121,152.828106 C96.0043828,160.846386 84.5201776,163.25844 74.8527615,158.748363 L63.8704097,160.941821 C63.0841493,161.098338 62.2716534,160.851955 61.7047734,160.285109 C61.1378934,159.718264 60.8914957,158.905817 61.0480221,158.119604 L63.2416124,147.133116 C61.760479,143.957544 60.9952398,140.495332 61,136.991373 L61,136.991373 Z M84.5069174,117 C77.7187615,116.998282 71.418078,120.526061 67.8721984,126.313851 C64.3263188,132.101641 64.045452,139.316649 67.1306692,145.36252 C67.381055,145.852335 67.4583776,146.412434 67.3500662,146.951757 L65.6728975,155.331813 L74.0538657,153.654827 C74.5932475,153.546527 75.1534073,153.623842 75.6432756,153.8742 C82.8362125,157.538914 91.5437845,156.393503 97.5440488,150.993329 C103.544313,145.593156 105.596752,137.054673 102.706223,129.517838 C99.8156945,121.981004 92.5797962,117.004012 84.5069174,117 Z M79,164.69072 C83.2570968,168.134409 88.5689193,170.009002 94.0442164,170 C97.6567448,170 101.087209,169.199747 104.16792,167.762225 L115.134866,169.95205 C115.919681,170.108308 116.730682,169.862333 117.29652,169.296426 C117.862357,168.730519 118.108302,167.919418 117.952063,167.134507 L115.762507,156.171007 C117.199853,153.089919 118,149.654242 118,146.04127 C118.007909,140.566945 116.133609,135.256341 112.691379,131 C113.374074,134.547432 113.38545,138.191454 112.724917,141.74308 C113.729501,146.13379 113.161482,150.737853 111.119881,154.752653 C110.873827,155.234106 110.797841,155.784643 110.904279,156.31476 L112.552435,164.55176 L104.311654,162.903401 C103.783137,162.798064 103.234545,162.874033 102.75453,163.11903 C98.7394564,165.163996 94.1333444,165.732198 89.7417621,164.724262 C86.1905511,165.38465 82.5470186,165.373273 79,164.69072 L79,164.69072 Z" id="Combined-Shape" fill="url(#linearGradient-3)" opacity="0.194478353"></path>
                </g>
                <path d="M29.5,95 C33.6421356,95 37,98.3578644 37,102.5 C37,106.642136 33.6421356,110 29.5,110 C25.3578644,110 22,106.642136 22,102.5 C22,98.3578644 25.3578644,95 29.5,95 Z M14.5,66 C22.5081289,66 29,72.4918711 29,80.5 C29,88.5081289 22.5081289,95 14.5,95 C6.49187113,95 0,88.5081289 0,80.5 C0,72.4918711 6.49187113,66 14.5,66 Z" id="Combined-Shape" fill="url(#linearGradient-4)" opacity="0.0748465402"></path>
            </g>
        </g>
    </g>
</svg>