<?xml version="1.0" encoding="UTF-8"?>
<svg width="190px" height="178px" viewBox="0 0 190 178" version="1.1" xmlns="http://www.w3.org/2000/svg" xmlns:xlink="http://www.w3.org/1999/xlink">
    <title>upload-csv-artists-bg.d68dd238</title>
    <defs>
        <linearGradient x1="50%" y1="0%" x2="50%" y2="76.8430411%" id="linearGradient-1">
            <stop stop-color="#AEABAB" stop-opacity="0.329977396" offset="0%"></stop>
            <stop stop-color="#FFFFFF" stop-opacity="0" offset="100%"></stop>
        </linearGradient>
        <linearGradient x1="0%" y1="3.38882283%" x2="104.011588%" y2="96.6111772%" id="linearGradient-2">
            <stop stop-color="#FFFFFF" stop-opacity="0" offset="0%"></stop>
            <stop stop-color="#FFFFFF" stop-opacity="0.388637729" offset="100%"></stop>
        </linearGradient>
        <linearGradient x1="37.5498613%" y1="28.7756142%" x2="37.5498613%" y2="119.003183%" id="linearGradient-3">
            <stop stop-color="#FFFFFF" stop-opacity="0.93432105" offset="0%"></stop>
            <stop stop-color="#FFFFFF" stop-opacity="0" offset="99.9600497%"></stop>
        </linearGradient>
    </defs>
    <g id="Page-1" stroke="none" stroke-width="1" fill="none" fill-rule="evenodd" opacity="0.537516276">
        <g id="Artboard" transform="translate(-2053.000000, -579.000000)">
            <g id="Group-11" transform="translate(1550.000000, 31.000000)">
                <g id="upload-csv-artists-bg.d68dd238" transform="translate(503.000000, 548.000000)">
                    <g id="Group-203" transform="translate(9.000000, 0.000000)">
                        <path d="M56,0 L180,0 L180,0 L180,166 L47,166 L47,9 C47,4.02943725 51.0294373,0 56,0 Z" id="Rectangle" fill="url(#linearGradient-1)" fill-rule="nonzero"></path>
                        <g id="Group-195" opacity="0.385861351" transform="translate(47.000000, 0.000000)" fill="#FFFFFF" fill-opacity="0.598516718" fill-rule="nonzero">
                            <path d="M9,0 L133,0 L133,0 L133,39 L0,39 L0,9 C0,4.02943725 4.02943725,0 9,0 Z" id="Rectangle" opacity="0.399969192"></path>
                        </g>
                        <g id="soptify-for-artists-logo" transform="translate(57.762397, 11.162544)" fill="#FFFFFF" fill-rule="nonzero">
                            <path d="M8.37382001,0 C12.9987322,0 16.74764,3.73284554 16.74764,8.33733528 C16.74764,12.9423072 12.9987322,16.6749117 8.37382001,16.6749117 C3.74926989,16.6749117 0,12.9423072 0,8.33733528 C0,3.73284554 3.74926989,0 8.37382001,0 Z M47.3994933,4.11550444 C47.8909496,4.11550444 48.21907,4.19368615 48.4757234,4.27017352 C48.5158028,4.28215493 48.542603,4.31930939 48.542603,4.36082073 L48.542603,4.36082073 L48.542603,5.45149186 C48.542603,5.48174794 48.5285993,5.51055172 48.50361,5.5283423 C48.4792243,5.5462539 48.4479575,5.55085282 48.4181393,5.54141292 C48.1751274,5.4606897 47.958312,5.40707593 47.6886207,5.40707593 C47.2359159,5.40707593 47.03407,5.64162106 47.03407,6.16759273 L47.03407,6.16759273 L47.03407,6.34646667 L49.2460458,6.34646667 C49.2854009,6.34646667 49.3207723,6.37067153 49.3345345,6.40758394 L49.3345345,6.40758394 L50.8469306,10.3522505 L52.2279819,6.41000444 C52.2411406,6.37224484 52.2772362,6.34646667 52.3175571,6.34646667 L52.3175571,6.34646667 L53.6656515,6.34646667 C53.6971598,6.34646667 53.72565,6.3620788 53.7435168,6.38761493 C53.7615042,6.41351414 53.7647637,6.4466748 53.7535366,6.47559961 L53.7535366,6.47559961 L51.5070345,12.2773843 C51.0411711,13.4746778 50.5126534,13.9199263 49.5564202,13.9199263 C49.0455278,13.9199263 48.631816,13.814151 48.1736788,13.5660511 C48.1299777,13.5425725 48.1118694,13.4889587 48.1327543,13.4436956 L48.1327543,13.4436956 L48.5716968,12.4813102 C48.5821995,12.4573474 48.6030844,12.4389517 48.6277115,12.430117 C48.6527008,12.4224924 48.6799838,12.4246709 48.703283,12.4373784 C48.94883,12.5714733 49.1889446,12.6398521 49.4171078,12.6398521 C49.6994749,12.6398521 49.9061498,12.5469054 50.1163255,12.0805987 L50.1163255,12.0805987 L48.2643405,7.64263707 L47.0553169,7.64263707 L47.0553169,12.0816879 C47.0553169,12.1339704 47.0129437,12.176571 46.9606715,12.176571 L46.9606715,12.176571 L45.6656943,12.176571 C45.6134221,12.176571 45.5712903,12.1339704 45.5712903,12.0816879 L45.5712903,12.0816879 L45.5712903,7.64263707 L44.9492136,7.64263707 C44.897062,7.64263707 44.854206,7.60003649 44.854206,7.54787503 L44.854206,7.54787503 L44.854206,6.42997345 C44.854206,6.37769094 44.897062,6.33533243 44.9492136,6.33533243 L44.9492136,6.33533243 L45.5712903,6.33533243 L45.5712903,6.06133338 C45.5712903,4.78864169 46.2035076,4.11550444 47.3994933,4.11550444 Z M28.9981914,6.22241674 C30.3532877,6.22241674 31.7250434,7.26528328 31.7250434,9.25867476 C31.7250434,11.2517032 30.3532877,12.2942066 28.9981914,12.2942066 C28.2687935,12.2942066 27.6707403,12.0239594 27.1773524,11.4705152 L27.1773524,11.4705152 L27.1773524,13.7928507 C27.1773524,13.8450122 27.1349793,13.8876128 27.082707,13.8876128 L27.082707,13.8876128 L25.7877299,13.8876128 C25.7354576,13.8876128 25.6930844,13.8450122 25.6930844,13.7928507 L25.6930844,13.7928507 L25.6930844,6.43566158 C25.6930844,6.38337908 25.7354576,6.34077853 25.7877299,6.34077853 L25.7877299,6.34077853 L27.082707,6.34077853 C27.1349793,6.34077853 27.1773524,6.38337908 27.1773524,6.43566158 L27.1773524,6.43566158 L27.1773524,7.09778561 C27.6707403,6.50960744 28.2687935,6.22241674 28.9981914,6.22241674 Z M89.1972449,6.21115321 C90.556579,6.21115321 91.1322624,7.01491294 91.2914091,7.70898147 L91.2914091,7.70898147 L90.6423754,7.95259252 C90.5322896,7.39232325 90.1278367,6.84446961 89.1972449,6.84446961 C88.535885,6.84446961 87.9481172,7.25852399 87.9481172,7.8674914 C87.9481172,8.36676743 88.2665319,8.65907662 88.8666252,8.7931169 L88.8666252,8.7931169 L89.7973382,8.99996334 C90.7649079,9.21922535 91.315819,9.76719953 91.315819,10.6076034 C91.315819,11.4723563 90.5809882,12.3249347 89.2830413,12.3249347 C87.8501158,12.3249347 87.1276105,11.4113631 87.0174042,10.6440064 L87.0174042,10.6440064 L87.6908479,10.4126905 C87.8010549,11.1189335 88.3400028,11.6914978 89.2951258,11.6914978 C90.0176304,11.6914978 90.5933144,11.2652689 90.5933144,10.6563015 C90.5933144,10.1203813 90.2259593,9.8281927 89.601456,9.68197787 L89.601456,9.68197787 L88.6584175,9.4628364 C87.8010549,9.26804397 87.2256126,8.7563523 87.2256126,7.91606893 C87.2256126,6.97850996 88.1317951,6.21115321 89.1972449,6.21115321 Z M97.3566318,6.21115321 C98.7159659,6.21115321 99.2916499,7.01491294 99.4507967,7.70898147 L99.4507967,7.70898147 L98.8016417,7.95259252 C98.6915559,7.39232325 98.2873448,6.84446961 97.3566318,6.84446961 C96.6952726,6.84446961 96.107263,7.25852399 96.107263,7.8674914 C96.107263,8.36676743 96.4259188,8.65907662 97.0258916,8.7931169 L97.0258916,8.7931169 L97.9567258,8.99996334 C98.9241743,9.21922535 99.4752066,9.76719953 99.4752066,10.6076034 C99.4752066,11.4723563 98.7403758,12.3249347 97.4424289,12.3249347 C96.0093822,12.3249347 95.2868776,11.4113631 95.1766705,10.6440064 L95.1766705,10.6440064 L95.8502354,10.4126905 C95.9603212,11.1189335 96.4992692,11.6914978 97.4545126,11.6914978 C98.1770179,11.6914978 98.7527013,11.2652689 98.7527013,10.6563015 C98.7527013,10.1203813 98.3852256,9.8281927 97.7607224,9.68197787 L97.7607224,9.68197787 L96.8176839,9.4628364 C95.9603212,9.26804397 95.3849995,8.7563523 95.3849995,7.91606893 C95.3849995,6.97850996 96.2910615,6.21115321 97.3566318,6.21115321 Z M62.3498858,6.20560837 C63.9786939,6.20560837 65.2522311,7.4355971 65.2522311,9.26249914 C65.2522311,11.0771061 63.9786939,12.3193899 62.3498858,12.3193899 C60.7211985,12.3193899 59.4474196,11.0771061 59.4474196,9.26249914 C59.4474196,7.4355971 60.7088728,6.20560837 62.3498858,6.20560837 Z M35.2412919,6.22241674 C36.980644,6.22241674 38.3426213,7.55610468 38.3426213,9.25867476 C38.3426213,10.966812 36.9712277,12.3053408 35.2198035,12.3053408 C33.4866083,12.3053408 32.1288561,10.9764939 32.1288561,9.28033809 C32.1288561,7.5655446 33.4961452,6.22241674 35.2412919,6.22241674 Z M22.1538989,4.39410242 C23.2157632,4.39410242 24.1244322,4.70876564 24.9310918,5.35576163 C24.9704469,5.38710692 24.9782938,5.44350425 24.9493206,5.48428945 L24.9493206,5.48428945 L24.2431012,6.47923034 C24.2281318,6.50016754 24.2057984,6.51396432 24.1804469,6.51771607 C24.1552162,6.52195192 24.1295026,6.51577968 24.1091006,6.5004096 C23.4310093,5.99525411 22.7845468,5.7498168 22.1322898,5.7498168 C21.4597516,5.7498168 21.0071676,6.07295172 21.0071676,6.55305517 C21.0071676,7.06123626 21.2649075,7.30328489 22.7109069,7.64784111 C24.4728338,8.07626719 25.1913669,8.7408117 25.1913669,9.94270418 C25.1913669,11.3648609 24.1040303,12.2836775 22.4214173,12.2836775 C21.232192,12.2836775 20.1301275,11.8613026 19.2338928,11.061695 C19.1953827,11.0279292 19.1912782,10.9694745 19.2243559,10.9305047 L19.2243559,10.9305047 L20.0162874,9.98881442 C20.0323433,9.9693295 20.0556425,9.95771123 20.0811147,9.95553273 C20.1055004,9.95395945 20.1315762,9.96158396 20.1507709,9.97804326 C20.9208519,10.6446452 21.6095667,10.9289313 22.4535291,10.9289313 C23.2135902,10.9289313 23.6858519,10.6002293 23.6858519,10.071353 C23.6858519,9.59427516 23.4522562,9.32741655 22.0684283,9.00875956 C20.4426749,8.61603564 19.501894,8.10737045 19.501894,6.67056979 C19.501894,5.33046754 20.59249,4.39410242 22.1538989,4.39410242 Z M12.041138,11.3108824 C9.83386758,9.9680368 7.0978323,9.65559016 3.90786313,10.3816188 C3.62640236,10.4453859 3.45103251,10.7242011 3.51548364,11.0038602 C3.5795727,11.2833986 3.85934374,11.4586677 4.14020103,11.3946596 C7.05522698,10.7316748 9.53007822,11.0019315 11.4965621,12.1984382 C11.7425385,12.3482728 12.0638287,12.2712461 12.2142146,12.0257005 C12.3647213,11.7806373 12.2871144,11.4604759 12.041138,11.3108824 Z M40.5500098,4.79009398 C40.6022821,4.79009398 40.6445346,4.83269453 40.6445346,4.88485602 L40.6445346,4.88485602 L40.6445346,6.34089955 L42.0695284,6.34089955 C42.1218007,6.34089955 42.1639324,6.38350011 42.1639324,6.43566158 L42.1639324,6.43566158 L42.1639324,7.54787503 C42.1639324,7.60015752 42.1218007,7.6427581 42.0695284,7.6427581 L42.0695284,7.6427581 L40.6445346,7.6427581 L40.6445346,10.3177585 C40.6445346,10.7403754 40.8299624,10.9288103 41.2452436,10.9288103 C41.5148142,10.9288103 41.7560153,10.8710817 42.0055461,10.7454584 C42.0342778,10.7311776 42.0695284,10.7320248 42.0977772,10.7498154 C42.1256638,10.7670008 42.1426855,10.797741 42.1426855,10.8304175 L42.1426855,10.8304175 L42.1426855,11.8895013 C42.1426855,11.9235092 42.1244566,11.9550965 42.0947592,11.9715558 C41.7316296,12.1775392 41.3462873,12.2732694 40.8817518,12.2732694 C39.7394872,12.2732694 39.160508,11.6835179 39.160508,10.5205953 L39.160508,10.5205953 L39.160508,7.6427581 L38.5377069,7.6427581 C38.4856761,7.6427581 38.4434236,7.60015752 38.4434236,7.54787503 L38.4434236,7.54787503 L38.4434236,6.43566158 C38.4434236,6.38350011 38.4856761,6.34089955 38.5377069,6.34089955 L38.5377069,6.34089955 L39.160508,6.34089955 L39.160508,4.88485602 C39.160508,4.83269453 39.2028811,4.79009398 39.2553949,4.79009398 L39.2553949,4.79009398 L40.5500098,4.79009398 Z M93.3882326,4.518412 L93.3882326,6.35736805 L94.9068339,6.35736805 L94.9068339,7.01503348 L93.3882326,7.01503348 L93.3882326,10.5223817 C93.3882326,11.2288658 93.7189728,11.5697525 94.3802115,11.5697525 C94.5884199,11.5697525 94.7966276,11.5209339 94.9068339,11.4723563 L94.9068339,11.4723563 L94.9068339,12.1177267 C94.8089531,12.1664248 94.5393583,12.227418 94.1842081,12.227418 C93.2414114,12.227418 92.6534018,11.6549742 92.6534018,10.5954289 L92.6534018,10.5954289 L92.6534018,7.01503348 L91.4166003,7.01503348 L91.4166003,6.35736805 L91.8574263,6.35736805 C92.4328679,6.35736805 92.6778117,6.10146194 92.6778117,5.50478964 L92.6778117,5.50478964 L92.6778117,4.518412 L93.3882326,4.518412 Z M83.4427028,4.518412 L83.4427028,6.35736805 L84.9613048,6.35736805 L84.9613048,7.01503348 L83.4427028,7.01503348 L83.4427028,10.5223817 C83.4427028,11.2288658 83.773443,11.5697525 84.4348029,11.5697525 C84.6428901,11.5697525 84.8510978,11.5209339 84.9613048,11.4723563 L84.9613048,11.4723563 L84.9613048,12.1177267 C84.863424,12.1664248 84.5938291,12.227418 84.238679,12.227418 C83.2958815,12.227418 82.707872,11.6549742 82.707872,10.5954289 L82.707872,10.5954289 L82.707872,7.01503348 L81.4710704,7.01503348 L81.4710704,6.35736805 L81.9118965,6.35736805 C82.4875805,6.35736805 82.7325237,6.10146194 82.7325237,5.50478964 L82.7325237,5.50478964 L82.7325237,4.518412 L83.4427028,4.518412 Z M44.1558334,6.34089955 C44.2081058,6.34089955 44.2507204,6.38350011 44.2507204,6.43566158 L44.2507204,6.43566158 L44.2507204,12.081809 C44.2507204,12.1340915 44.2081058,12.176692 44.1558334,12.176692 L44.1558334,12.176692 L42.8609771,12.176692 C42.8087048,12.176692 42.7660902,12.1340915 42.7660902,12.081809 L42.7660902,12.081809 L42.7660902,6.43566158 C42.7660902,6.38350011 42.8087048,6.34089955 42.8609771,6.34089955 L42.8609771,6.34089955 L44.1558334,6.34089955 Z M53.8081027,10.3493459 C54.3200815,10.3493459 54.7185824,10.7603445 54.7185824,11.2590857 C54.7185824,11.7580689 54.3152527,12.1743926 53.8033945,12.1743926 C53.2914156,12.1743926 52.8929147,11.763394 52.8929147,11.2641687 C52.8929147,10.7651854 53.2964859,10.3493459 53.8081027,10.3493459 Z M86.4558592,6.35736805 L86.4558592,12.1665454 L85.7210284,12.1665454 L85.7210284,6.35736805 L86.4558592,6.35736805 Z M80.5849476,6.2843209 C80.7810715,6.2843209 80.9400978,6.30854941 81.0380991,6.34507299 L81.0380991,6.34507299 L81.0380991,7.1124297 C80.9034828,7.07590611 80.7196851,7.05143653 80.5238022,7.05143653 C79.5317027,7.05143653 78.7971137,7.68487352 78.7971137,9.01237891 L78.7971137,9.01237891 L78.7971137,12.1664248 L78.0622829,12.1664248 L78.0622829,6.35736805 L78.7847882,6.35736805 L78.7847882,7.44126248 C79.1398171,6.63750268 79.8133813,6.2843209 80.5849476,6.2843209 Z M74.542322,4.40088564 L77.7020579,12.1632908 L76.9029402,12.1632908 L75.9405666,9.78142324 L72.2676221,9.78142324 L71.3162453,12.1632908 L70.5167654,12.1632908 L73.67638,4.40088564 L74.542322,4.40088564 Z M68.5352238,6.27877607 C68.7311061,6.27877607 68.8902529,6.30312512 68.9883754,6.33964869 L68.9883754,6.33964869 L68.9883754,7.10688486 C68.8537592,7.07036127 68.6699609,7.0458917 68.4740786,7.0458917 C67.4819787,7.0458917 66.7473897,7.67932869 66.7473897,9.00683408 L66.7473897,9.00683408 L66.7473897,12.1610006 L66.0124382,12.1610006 L66.0124382,6.35182322 L66.735064,6.35182322 L66.735064,7.43571764 C67.0900931,6.63195785 67.7636577,6.27877607 68.5352238,6.27877607 Z M58.95717,3.76998003 C59.2632588,3.76998003 59.4837925,3.83073212 59.6185296,3.89172529 L59.6185296,3.89172529 L59.6185296,4.5492702 C59.5082023,4.50069264 59.3246457,4.45199454 59.0673764,4.45199454 C58.4796086,4.45199454 57.952986,4.75635767 57.952986,5.68198324 L57.952986,5.68198324 L57.952986,6.35170268 L59.5816733,6.35170268 L59.5816733,7.00936811 L57.952986,7.00936811 L57.952986,12.16088 L57.2181554,12.16088 L57.2181554,7.00936811 L56.0179683,7.00936811 L56.0179683,6.35170268 L57.2181554,6.35170268 L57.2181554,5.64545966 C57.2181554,4.41547096 57.9773958,3.76998003 58.95717,3.76998003 Z M53.8081027,10.4399931 C53.3417564,10.4399931 52.9888881,10.8103275 52.9888881,11.2641687 C52.9888881,11.7176468 53.339342,12.0832612 53.8033945,12.0832612 C54.2696201,12.0832612 54.6229712,11.7130478 54.6229712,11.2590857 C54.6229712,10.8054865 54.2721552,10.4399931 53.8081027,10.4399931 Z M53.8636344,10.757924 C54.0857615,10.757924 54.2318343,10.8714448 54.2318343,11.0625421 C54.2318343,11.2191476 54.1412933,11.3148779 54.0099486,11.3526375 L54.0099486,11.3526375 L54.2675678,11.7130478 L54.0503903,11.7130478 L53.8186054,11.3825304 L53.6194153,11.3825304 L53.6194153,11.7130478 L53.4374883,11.7130478 L53.4374883,10.757924 L53.8636344,10.757924 Z M62.3498858,6.86339437 C61.1987599,6.86339437 60.1943343,7.74020132 60.1943343,9.26249914 C60.1943343,10.7725019 61.1987599,11.6616039 62.3498858,11.6616039 C63.5011325,11.6616039 64.5053164,10.7725019 64.5053164,9.26249914 C64.5053164,7.74020132 63.5011325,6.86339437 62.3498858,6.86339437 Z M53.8563912,10.9216699 L53.6194153,10.9216699 L53.6194153,11.2237465 L53.8563912,11.2237465 C53.9748187,11.2237465 54.0453199,11.166018 54.0453199,11.0727082 C54.0453199,10.9743154 53.9748187,10.9216699 53.8563912,10.9216699 L53.8563912,10.9216699 Z M35.2198035,7.54605969 C34.2889218,7.54605969 33.6132448,8.26627538 33.6132448,9.25867476 C33.6132448,10.2469593 34.3130661,10.9923481 35.2412919,10.9923481 C36.1784511,10.9923481 36.8587155,10.2727375 36.8587155,9.28033809 C36.8587155,8.29132742 36.1540654,7.54605969 35.2198035,7.54605969 Z M28.6983197,7.53577264 C27.8128292,7.53577264 27.1449991,8.27607832 27.1449991,9.25867476 C27.1449991,10.2413922 27.8128292,10.9818189 28.6983197,10.9818189 C29.5938301,10.9818189 30.2195285,10.2735847 30.2195285,9.25867476 C30.2195285,8.2599821 29.579585,7.53577264 28.6983197,7.53577264 Z M13.0239575,8.86157547 C10.4395152,7.28029645 6.65862317,6.83501172 3.61735024,7.75414977 C3.27252458,7.85866027 3.07796422,8.22089104 3.18188263,8.56467881 C3.2867666,8.9077433 3.65138623,9.1014554 3.99657397,8.99766818 C6.65898526,8.19316622 10.0905859,8.59204199 12.340703,9.9693628 C12.6477511,10.1571683 13.0494241,10.0612163 13.2387946,9.75527896 C13.4276823,9.45006485 13.3310056,9.04986315 13.0239575,8.86157547 Z M74.0985962,5.18077851 L72.539392,9.09940872 L75.6683131,9.09940872 L74.0985962,5.18077851 Z M14.1266271,6.05003771 C11.019334,4.21344926 6.10209847,4.04071158 3.14422579,4.93489727 C2.73012119,5.06014112 2.49681774,5.49554133 2.62221986,5.90767679 C2.74762198,6.31969171 3.1851414,6.55233911 3.5988839,6.42721579 C6.17572243,5.64863054 10.6279201,5.795331 13.327264,7.39131627 C13.6984012,7.61130664 14.1796122,7.48931744 14.4003634,7.11864867 C14.6209939,6.74870315 14.4989712,6.27002812 14.1266271,6.05003771 Z M43.5150449,3.76998003 C44.0277482,3.76998003 44.443633,4.18521445 44.443633,4.69775243 C44.443633,5.21065347 44.0277482,5.62625097 43.5150449,5.62625097 C43.0021003,5.62625097 42.5858533,5.21065347 42.5858533,4.69775243 C42.5858533,4.18521445 43.0021003,3.76998003 43.5150449,3.76998003 Z M86.088504,3.76998003 C86.4314492,3.76998003 86.7008023,4.02564506 86.7008023,4.37894739 C86.7008023,4.73212917 86.4314492,4.98791474 86.088504,4.98791474 C85.7454383,4.98791474 85.4760845,4.73212917 85.4760845,4.37894739 C85.4760845,4.02564506 85.7454383,3.76998003 86.088504,3.76998003 Z" id="Combined-Shape"></path>
                        </g>
                        <g id="Group-202" transform="translate(7.000000, 85.058702)" fill-rule="nonzero">
                            <polygon id="Rectangle" fill="#D8D8D8" opacity="0.425412133" points="0 2.34618953e-15 54.3033033 2.34618953e-15 54.3033033 33.5524862 0 33.5524862"></polygon>
                            <rect id="Rectangle" fill="#D8D8D8" opacity="0.425412133" transform="translate(27.151652, 41.166436) scale(-1, 1) rotate(-180.000000) translate(-27.151652, -41.166436) " x="0" y="34.8722366" width="54.3033033" height="12.5883978"></rect>
                            <rect id="Rectangle" fill="#D8D8D8" opacity="0.425412133" x="0" y="48.7803867" width="54.3033033" height="44.1609116"></rect>
                            <rect id="Rectangle" fill="#D8D8D8" opacity="0.425412133" x="2.13153153" y="50.9122928" width="29.1309309" height="4.77140884"></rect>
                            <rect id="Rectangle" fill="#D8D8D8" opacity="0.425412133" x="2.13153153" y="18.9337017" width="50.1417417" height="4.77140884"></rect>
                            <rect id="Rectangle" fill="#D8D8D8" opacity="0.425412133" x="2.13153153" y="25.7354972" width="43.7471471" height="2.13190608"></rect>
                            <g id="Group-197" transform="translate(2.131532, 36.801105)">
                                <rect id="Rectangle" fill="#D8D8D8" opacity="0.425412133" x="0" y="7.20787293" width="26.1873874" height="1.42127072"></rect>
                                <g id="Group-196" fill="#FFFFFF">
                                    <ellipse id="Oval" fill-opacity="0.224083534" cx="2.94354354" cy="2.94406077" rx="2.94354354" ry="2.94406077"></ellipse>
                                    <path d="M2.13153153,1.85976462 L2.13153153,4.02835692 C2.13153153,4.14067543 2.22258367,4.23172756 2.33490217,4.23172756 C2.36792805,4.23172756 2.40045708,4.22368455 2.42967748,4.20829374 L4.48828124,3.12399759 C4.5876576,3.07165464 4.62578571,2.94866183 4.57344276,2.84928547 C4.55430494,2.81295112 4.52461559,2.78326178 4.48828124,2.76412395 L2.42967748,1.6798278 C2.33030112,1.62748485 2.20730831,1.66561296 2.15496535,1.76498932 C2.13957455,1.79420972 2.13153153,1.82673874 2.13153153,1.85976462 Z" id="Path-22"></path>
                                </g>
                                <path d="M12.6193057,1.44779092 C12.2087362,1.10081062 11.5947652,1.15839141 11.2135759,1.54874424 L11.0651682,1.70129592 L10.9167606,1.54949204 C10.6093984,1.23391944 9.98940081,1.04397764 9.51103083,1.44779092 C9.03793422,1.84861298 9.01307405,2.56799885 9.43645031,3.00172422 L10.8941604,4.49583334 C10.9408674,4.54369269 11.0026411,4.56837017 11.0644149,4.56837017 C11.1261887,4.56837017 11.1879624,4.54444049 11.2346694,4.49583334 L12.6923795,3.00172422 C13.1172624,2.56799885 13.0924023,1.84861298 12.6193057,1.44779092 Z" id="Shape" fill="#FFFFFF"></path>
                                <path d="M16.6490343,2.53798343 C16.8732652,2.53798343 17.0550403,2.7200877 17.0550403,2.94472471 C17.0550403,3.16936171 16.8732652,3.35146599 16.6490343,3.35146599 C16.4248033,3.35146599 16.2430283,3.16936171 16.2430283,2.94472471 C16.2430283,2.7200877 16.4248033,2.53798343 16.6490343,2.53798343 Z M17.7655508,2.53798343 C17.9897817,2.53798343 18.1715568,2.7200877 18.1715568,2.94472471 C18.1715568,3.16936171 17.9897817,3.35146599 17.7655508,3.35146599 C17.5413199,3.35146599 17.3595448,3.16936171 17.3595448,2.94472471 C17.3595448,2.7200877 17.5413199,2.53798343 17.7655508,2.53798343 Z M18.8820673,2.53798343 C19.1062982,2.53798343 19.2880733,2.7200877 19.2880733,2.94472471 C19.2880733,3.16936171 19.1062982,3.35146599 18.8820673,3.35146599 C18.6578364,3.35146599 18.4760613,3.16936171 18.4760613,2.94472471 C18.4760613,2.7200877 18.6578364,2.53798343 18.8820673,2.53798343 Z" id="Combined-Shape" fill-opacity="0.22" fill="#FFFFFF"></path>
                            </g>
                            <rect id="Rectangle" fill="#D8D8D8" opacity="0.425412133" x="2.13153153" y="56.698895" width="26.1873874" height="4.77140884"></rect>
                            <rect id="Rectangle" fill="#D8D8D8" opacity="0.425412133" x="2.13153153" y="62.4854972" width="31.4654655" height="4.77140884"></rect>
                            <rect id="Rectangle" fill="#D8D8D8" opacity="0.425412133" x="2.13153153" y="68.2720994" width="45.7771772" height="4.77140884"></rect>
                            <rect id="Rectangle" fill="#D8D8D8" opacity="0.425412133" x="2.13153153" y="74.0587017" width="24.2588589" height="4.77140884"></rect>
                            <rect id="Rectangle" fill="#D8D8D8" opacity="0.425412133" x="2.13153153" y="79.8453039" width="36.845045" height="4.77140884"></rect>
                            <rect id="Rectangle" fill="#D8D8D8" opacity="0.425412133" x="2.13153153" y="85.6319061" width="15.9357357" height="4.77140884"></rect>
                        </g>
                        <g id="Group-202" transform="translate(64.348348, 68.308011)" fill-rule="nonzero">
                            <polygon id="Rectangle" fill="#D8D8D8" opacity="0.425412133" points="0 -1.03416353e-15 54.3033033 -1.03416353e-15 54.3033033 33.5524862 0 33.5524862"></polygon>
                            <rect id="Rectangle" fill="#D8D8D8" opacity="0.425412133" transform="translate(27.151652, 41.166436) scale(-1, 1) rotate(-180.000000) translate(-27.151652, -41.166436) " x="0" y="34.8722366" width="54.3033033" height="12.5883978"></rect>
                            <rect id="Rectangle" fill="#D8D8D8" opacity="0.425412133" x="0" y="48.7803867" width="54.3033033" height="60.9116022"></rect>
                            <rect id="Rectangle" fill="#D8D8D8" opacity="0.425412133" x="2.13153153" y="50.9122928" width="44.9651652" height="4.77140884"></rect>
                            <rect id="Rectangle" fill="#D8D8D8" opacity="0.425412133" x="2.13153153" y="18.9337017" width="50.1417417" height="4.77140884"></rect>
                            <rect id="Rectangle" fill="#D8D8D8" opacity="0.425412133" x="2.13153153" y="25.7354972" width="43.7471471" height="2.13190608"></rect>
                            <g id="Group-197" transform="translate(2.131532, 36.801105)">
                                <rect id="Rectangle" fill="#D8D8D8" opacity="0.425412133" x="0" y="7.20787293" width="26.1873874" height="1.42127072"></rect>
                                <g id="Group-196" fill="#FFFFFF">
                                    <ellipse id="Oval" fill-opacity="0.22" cx="2.94354354" cy="2.94406077" rx="2.94354354" ry="2.94406077"></ellipse>
                                    <path d="M2.13153153,1.85976462 L2.13153153,4.02835692 C2.13153153,4.14067543 2.22258367,4.23172756 2.33490217,4.23172756 C2.36792805,4.23172756 2.40045708,4.22368455 2.42967748,4.20829374 L4.48828124,3.12399759 C4.5876576,3.07165464 4.62578571,2.94866183 4.57344276,2.84928547 C4.55430494,2.81295112 4.52461559,2.78326178 4.48828124,2.76412395 L2.42967748,1.6798278 C2.33030112,1.62748485 2.20730831,1.66561296 2.15496535,1.76498932 C2.13957455,1.79420972 2.13153153,1.82673874 2.13153153,1.85976462 Z" id="Path-22"></path>
                                </g>
                                <path d="M12.6193057,1.44779092 C12.2087362,1.10081062 11.5947652,1.15839141 11.2135759,1.54874424 L11.0651682,1.70129592 L10.9167606,1.54949204 C10.6093984,1.23391944 9.98940081,1.04397764 9.51103083,1.44779092 C9.03793422,1.84861298 9.01307405,2.56799885 9.43645031,3.00172422 L10.8941604,4.49583334 C10.9408674,4.54369269 11.0026411,4.56837017 11.0644149,4.56837017 C11.1261887,4.56837017 11.1879624,4.54444049 11.2346694,4.49583334 L12.6923795,3.00172422 C13.1172624,2.56799885 13.0924023,1.84861298 12.6193057,1.44779092 Z" id="Shape" fill="#FFFFFF"></path>
                                <path d="M16.6490343,2.53798343 C16.8732652,2.53798343 17.0550403,2.7200877 17.0550403,2.94472471 C17.0550403,3.16936171 16.8732652,3.35146599 16.6490343,3.35146599 C16.4248033,3.35146599 16.2430283,3.16936171 16.2430283,2.94472471 C16.2430283,2.7200877 16.4248033,2.53798343 16.6490343,2.53798343 Z M17.7655508,2.53798343 C17.9897817,2.53798343 18.1715568,2.7200877 18.1715568,2.94472471 C18.1715568,3.16936171 17.9897817,3.35146599 17.7655508,3.35146599 C17.5413199,3.35146599 17.3595448,3.16936171 17.3595448,2.94472471 C17.3595448,2.7200877 17.5413199,2.53798343 17.7655508,2.53798343 Z M18.8820673,2.53798343 C19.1062982,2.53798343 19.2880733,2.7200877 19.2880733,2.94472471 C19.2880733,3.16936171 19.1062982,3.35146599 18.8820673,3.35146599 C18.6578364,3.35146599 18.4760613,3.16936171 18.4760613,2.94472471 C18.4760613,2.7200877 18.6578364,2.53798343 18.8820673,2.53798343 Z" id="Combined-Shape" fill-opacity="0.22" fill="#FFFFFF"></path>
                            </g>
                            <rect id="Rectangle" fill="#D8D8D8" opacity="0.425412133" x="2.13153153" y="56.698895" width="19.2852853" height="4.77140884"></rect>
                            <rect id="Rectangle" fill="#D8D8D8" opacity="0.425412133" x="2.13153153" y="62.4854972" width="31.4654655" height="4.77140884"></rect>
                            <rect id="Rectangle" fill="#D8D8D8" opacity="0.425412133" x="2.13153153" y="68.2720994" width="47.7057057" height="4.77140884"></rect>
                            <rect id="Rectangle" fill="#D8D8D8" opacity="0.425412133" x="2.13153153" y="74.0587017" width="34.206006" height="4.77140884"></rect>
                            <rect id="Rectangle" fill="#D8D8D8" opacity="0.425412133" x="2.13153153" y="79.8453039" width="21.9243243" height="4.77140884"></rect>
                            <rect id="Rectangle" fill="#D8D8D8" opacity="0.425412133" x="2.13153153" y="85.6319061" width="34.206006" height="4.77140884"></rect>
                            <rect id="Rectangle" fill="#D8D8D8" opacity="0.425412133" x="2.13153153" y="91.4185083" width="26.1873874" height="4.77140884"></rect>
                            <rect id="Rectangle" fill="#D8D8D8" opacity="0.425412133" x="2.13153153" y="97.2051105" width="21.9243243" height="4.77140884"></rect>
                            <rect id="Rectangle" fill="#D8D8D8" opacity="0.425412133" x="2.13153153" y="102.991713" width="34.206006" height="4.77140884"></rect>
                        </g>
                        <g id="Group-202" transform="translate(121.696697, 49.526934)" fill-rule="nonzero">
                            <polygon id="Rectangle" fill="#D8D8D8" opacity="0.425412133" points="0 4.62030664e-15 54.3033033 4.62030664e-15 54.3033033 33.5524862 0 33.5524862"></polygon>
                            <rect id="Rectangle" fill="#D8D8D8" opacity="0.425412133" transform="translate(27.151652, 41.166435) scale(-1, 1) rotate(-180.000000) translate(-27.151652, -41.166435) " x="0" y="34.8722366" width="54.3033033" height="12.5883978"></rect>
                            <path d="M0,48.7803867 L54.3033033,48.7803867 L54.3033033,125.473066 C54.3033033,127.129921 52.9601576,128.473066 51.3033033,128.473066 L0,128.473066 L0,128.473066 L0,48.7803867 Z" id="Rectangle" fill="#D8D8D8" opacity="0.425412133"></path>
                            <rect id="Rectangle" fill="#D8D8D8" opacity="0.425412133" x="2.13153153" y="50.9122928" width="14.6162162" height="4.77140884"></rect>
                            <rect id="Rectangle" fill="#D8D8D8" opacity="0.425412133" x="2.13153153" y="18.9337017" width="50.1417417" height="4.77140884"></rect>
                            <rect id="Rectangle" fill="#D8D8D8" opacity="0.425412133" x="2.13153153" y="25.7354972" width="43.7471471" height="2.13190608"></rect>
                            <g id="Group-197" transform="translate(2.131532, 36.801105)">
                                <rect id="Rectangle" fill="#D8D8D8" opacity="0.425412133" x="0" y="7.20787293" width="26.1873874" height="1.42127072"></rect>
                                <g id="Group-196" fill="#FFFFFF">
                                    <ellipse id="Oval" fill-opacity="0.22" cx="2.94354354" cy="2.94406077" rx="2.94354354" ry="2.94406077"></ellipse>
                                    <path d="M2.13153153,1.85976462 L2.13153153,4.02835692 C2.13153153,4.14067543 2.22258367,4.23172756 2.33490217,4.23172756 C2.36792805,4.23172756 2.40045708,4.22368455 2.42967748,4.20829374 L4.48828124,3.12399759 C4.5876576,3.07165464 4.62578571,2.94866183 4.57344276,2.84928547 C4.55430494,2.81295112 4.52461559,2.78326178 4.48828124,2.76412395 L2.42967748,1.6798278 C2.33030112,1.62748485 2.20730831,1.66561296 2.15496535,1.76498932 C2.13957455,1.79420972 2.13153153,1.82673874 2.13153153,1.85976462 Z" id="Path-22"></path>
                                </g>
                                <path d="M12.6179117,1.44779092 C12.2073421,1.10081062 11.5933712,1.15839141 11.2121819,1.54874424 L11.0637742,1.70129592 L10.9153665,1.54949204 C10.6080044,1.23391944 9.98800679,1.04397764 9.50963682,1.44779092 C9.03654021,1.84861298 9.01168004,2.56799885 9.4350563,3.00172422 L10.8927664,4.49583334 C10.9394734,4.54369269 11.0012471,4.56837017 11.0630209,4.56837017 C11.1247947,4.56837017 11.1865684,4.54444049 11.2332754,4.49583334 L12.6909855,3.00172422 C13.1158684,2.56799885 13.0910083,1.84861298 12.6179117,1.44779092 Z" id="Shape" fill="#FFFFFF"></path>
                                <path d="M16.6462462,2.53798343 C16.8704772,2.53798343 17.0522523,2.7200877 17.0522523,2.94472471 C17.0522523,3.16936171 16.8704772,3.35146599 16.6462462,3.35146599 C16.4220153,3.35146599 16.2402402,3.16936171 16.2402402,2.94472471 C16.2402402,2.7200877 16.4220153,2.53798343 16.6462462,2.53798343 Z M17.7627628,2.53798343 C17.9869937,2.53798343 18.1687688,2.7200877 18.1687688,2.94472471 C18.1687688,3.16936171 17.9869937,3.35146599 17.7627628,3.35146599 C17.5385318,3.35146599 17.3567568,3.16936171 17.3567568,2.94472471 C17.3567568,2.7200877 17.5385318,2.53798343 17.7627628,2.53798343 Z M18.8792793,2.53798343 C19.1035102,2.53798343 19.2852853,2.7200877 19.2852853,2.94472471 C19.2852853,3.16936171 19.1035102,3.35146599 18.8792793,3.35146599 C18.6550484,3.35146599 18.4732733,3.16936171 18.4732733,2.94472471 C18.4732733,2.7200877 18.6550484,2.53798343 18.8792793,2.53798343 Z" id="Combined-Shape" fill-opacity="0.22" fill="#FFFFFF"></path>
                            </g>
                            <rect id="Rectangle" fill="#D8D8D8" opacity="0.425412133" x="2.13153153" y="56.698895" width="47.4012012" height="4.77140884"></rect>
                            <rect id="Rectangle" fill="#D8D8D8" opacity="0.425412133" x="2.13153153" y="62.4854972" width="31.4654655" height="4.77140884"></rect>
                            <rect id="Rectangle" fill="#D8D8D8" opacity="0.425412133" x="2.13153153" y="68.2720994" width="40.1945946" height="4.77140884"></rect>
                            <rect id="Rectangle" fill="#D8D8D8" opacity="0.425412133" x="2.13153153" y="74.0587017" width="29.1309309" height="4.77140884"></rect>
                            <rect id="Rectangle" fill="#D8D8D8" opacity="0.425412133" x="2.13153153" y="79.8453039" width="35.5255255" height="4.77140884"></rect>
                            <rect id="Rectangle" fill="#D8D8D8" opacity="0.425412133" x="2.13153153" y="85.6319061" width="15.9357357" height="4.77140884"></rect>
                            <rect id="Rectangle" fill="#D8D8D8" opacity="0.425412133" x="2.13153153" y="91.4185083" width="21.9243243" height="4.77140884"></rect>
                            <rect id="Rectangle" fill="#D8D8D8" opacity="0.425412133" x="2.13153153" y="97.2051105" width="31.4654655" height="4.77140884"></rect>
                            <rect id="Rectangle" fill="#D8D8D8" opacity="0.425412133" x="2.13153153" y="102.991713" width="25.0708709" height="4.77140884"></rect>
                            <rect id="Rectangle" fill="#D8D8D8" opacity="0.425412133" x="2.13153153" y="108.778315" width="47.4012012" height="4.77140884"></rect>
                            <rect id="Rectangle" fill="#D8D8D8" opacity="0.425412133" x="2.13153153" y="114.564917" width="21.9243243" height="4.77140884"></rect>
                            <rect id="Rectangle" fill="#D8D8D8" opacity="0.425412133" x="2.13153153" y="120.351519" width="17.1537538" height="4.77140884"></rect>
                        </g>
                        <path d="M29,83 C29,65.9780027 43.834973,52.1789474 62.1348397,52.1789474 C74.0181927,52.1789474 84.4404723,57.9977216 90.2882655,66.7392649 L90.1659483,66.5596624 C90.3808255,49.0955992 105.667496,35 124.493522,35 C136.368836,35 146.835845,40.6086264 153,49.1334566 M180,23.0478971 C175.641546,22.82873 171.97488,23.4794309 169,25 C166.403915,26.3269532 164.036171,27.9862165 161.96467,29.9153221 C156.421834,35.077141 153,42.1709437 153,50" id="Shape" stroke-opacity="0.388637729" stroke="#FFFFFF" opacity="0.414978027" stroke-linecap="round" stroke-linejoin="round" stroke-dasharray="0,3"></path>
                        <path d="M0,55 C16.1863994,55.9206382 29,68.1047531 29,83" id="Path" stroke="url(#linearGradient-2)" opacity="0.414978027" stroke-linecap="round" stroke-linejoin="round" stroke-dasharray="0,4"></path>
                        <path d="M29,83 C29,65.9780027 43.834973,52.1789474 62.1348397,52.1789474 C74.0181927,52.1789474 84.4404723,57.9977216 90.2882655,66.7392649 L90.1659483,66.5596624 C90.3808255,49.0955992 105.667496,35 124.493522,35 C136.368836,35 146.835845,40.6086264 153,49.1334566 M180,23.0478971 C175.641546,22.82873 171.97488,23.4794309 169,25 C166.403915,26.3269532 164.036171,27.9862165 161.96467,29.9153221 C156.421834,35.077141 153,42.1709437 153,50" id="Shape" stroke-opacity="0.388637729" stroke="#FFFFFF" opacity="0.414978027" stroke-linecap="round" stroke-linejoin="round" stroke-dasharray="0,3"></path>
                        <path d="M0,55 C16.1863994,55.9206382 29,68.1047531 29,83" id="Path" stroke="url(#linearGradient-2)" opacity="0.414978027" stroke-linecap="round" stroke-linejoin="round" stroke-dasharray="0,4"></path>
                    </g>
                    <path d="M16.1245031,49 C16.1245031,50.1547522 15.4848822,51.2144975 14.463156,51.7525757 L14.117479,51.9346218 L14.117479,51.9346218 L14.1176471,61.9169584 L14.1066699,61.9168828 C14.113937,61.9876292 14.1176471,62.0592437 14.1176471,62.1315961 C14.1176471,63.4750617 12.8384606,64.5641558 11.2605042,64.5641558 C9.68254777,64.5641558 8.40336134,63.4750617 8.40336134,62.1315961 C8.40336134,60.7881304 9.68254777,59.6990363 11.2605042,59.6990363 C11.8886359,59.6990363 12.4694254,59.8716109 12.9410316,60.1641088 L12.9410084,52.5542857 L8.91826545,54.6730108 C6.94780962,55.7108236 5.71428571,57.7546585 5.71428571,59.9817084 L5.71428571,66.3528027 L5.71428571,66.3528027 L5.70331771,66.3528162 C5.71057873,66.4235336 5.71428571,66.4951184 5.71428571,66.5674403 C5.71428571,67.9109059 4.43509929,69 2.85714286,69 C1.27918643,69 0,67.9109059 0,66.5674403 C0,65.2239746 1.27918643,64.1348805 2.85714286,64.1348805 C3.48534971,64.1348805 4.06620304,64.3074964 4.53783948,64.6000579 L4.53782441,58.7238333 C4.5378187,56.4967908 5.77132919,54.4529583 7.74177217,53.4151371 L16.1245031,49 L16.1245031,49 Z" id="Path" fill="url(#linearGradient-3)" fill-rule="nonzero" opacity="0.559066046"></path>
                </g>
            </g>
        </g>
    </g>
</svg>