<?xml version="1.0" encoding="UTF-8"?>
<svg width="658px" height="217px" viewBox="0 0 658 217" version="1.1" xmlns="http://www.w3.org/2000/svg" xmlns:xlink="http://www.w3.org/1999/xlink">
    <title>Group</title>
    <defs>
        <linearGradient x1="47.743999%" y1="115.483883%" x2="47.743999%" y2="0%" id="linearGradient-1">
            <stop stop-color="#000000" stop-opacity="0" offset="0%"></stop>
            <stop stop-color="#000000" offset="100%"></stop>
        </linearGradient>
        <linearGradient x1="50%" y1="0%" x2="50%" y2="100%" id="linearGradient-2">
            <stop stop-color="#FFFFFF" offset="0%"></stop>
            <stop stop-color="#FFFFFF" stop-opacity="0" offset="100%"></stop>
        </linearGradient>
    </defs>
    <g id="Page-1" stroke="none" stroke-width="1" fill="none" fill-rule="evenodd">
        <g id="id_0002--totallistens" transform="translate(-51.000000, -99.000000)">
            <g id="Group" transform="translate(51.376156, 99.869482)">
                <path d="M346.542018,192.35891 C347.406514,192.35891 348.110173,193.057543 348.110173,193.927065 C348.110173,194.79156 347.406514,195.500245 346.542018,195.500245 C345.677523,195.500245 344.973864,194.79156 344.973864,193.927065 C344.973864,193.057543 345.677523,192.35891 346.542018,192.35891 Z M525.648372,192.35891 C526.512867,192.35891 527.216526,193.057543 527.216526,193.927065 C527.216526,194.79156 526.512867,195.500245 525.648372,195.500245 C524.783876,195.500245 524.080217,194.79156 524.080217,193.927065 C524.080217,193.057543 524.783876,192.35891 525.648372,192.35891 Z M615.204061,192.35891 C616.068556,192.35891 616.772216,193.057543 616.772216,193.927065 C616.772216,194.79156 616.068556,195.500245 615.204061,195.500245 C614.33454,195.500245 613.635907,194.79156 613.635907,193.927065 C613.635907,193.057543 614.33454,192.35891 615.204061,192.35891 Z M364.450141,192.35891 C365.324688,192.35891 366.023321,193.057543 366.023321,193.927065 C366.023321,194.79156 365.324688,195.500245 364.450141,195.500245 C363.590671,195.500245 362.881986,194.79156 362.881986,193.927065 C362.881986,193.057543 363.590671,192.35891 364.450141,192.35891 Z M131.604343,192.35891 C132.468838,192.35891 133.177523,193.057543 133.177523,193.927065 C133.177523,194.79156 132.468838,195.500245 131.604343,195.500245 C130.734821,195.500245 130.036188,194.79156 130.036188,193.927065 C130.036188,193.057543 130.734821,192.35891 131.604343,192.35891 Z M525.648372,177.255372 C526.940088,177.255372 527.995577,178.31086 527.995577,179.602577 C527.995577,180.89932 526.940088,181.949783 525.648372,181.949783 C524.361681,181.949783 523.311218,180.89932 523.311218,179.602577 C523.311218,178.31086 524.361681,177.255372 525.648372,177.255372 Z M615.204061,177.255372 C616.495778,177.255372 617.551267,178.31086 617.551267,179.602577 C617.551267,180.89932 616.495778,181.949783 615.204061,181.949783 C613.912344,181.949783 612.856856,180.89932 612.856856,179.602577 C612.856856,178.31086 613.912344,177.255372 615.204061,177.255372 Z M113.691194,177.255372 C114.987937,177.255372 116.0384,178.31086 116.0384,179.602577 C116.0384,180.89932 114.987937,181.949783 113.691194,181.949783 C112.394451,181.949783 111.349015,180.89932 111.349015,179.602577 C111.349015,178.31086 112.394451,177.255372 113.691194,177.255372 Z M131.604343,177.255372 C132.89606,177.255372 133.951548,178.31086 133.951548,179.602577 C133.951548,180.89932 132.89606,181.949783 131.604343,181.949783 C130.3076,181.949783 129.257137,180.89932 129.257137,179.602577 C129.257137,178.31086 130.3076,177.255372 131.604343,177.255372 Z M149.512465,177.255372 C150.809208,177.255372 151.85967,178.31086 151.85967,179.602577 C151.85967,180.89932 150.809208,181.949783 149.512465,181.949783 C148.220748,181.949783 147.170285,180.89932 147.170285,179.602577 C147.170285,178.31086 148.220748,177.255372 149.512465,177.255372 Z M328.62887,177.255372 C329.925613,177.255372 330.981102,178.31086 330.981102,179.602577 C330.981102,180.89932 329.925613,181.949783 328.62887,181.949783 C327.337153,181.949783 326.286691,180.89932 326.286691,179.602577 C326.286691,178.31086 327.337153,177.255372 328.62887,177.255372 Z M346.542018,177.255372 C347.838762,177.255372 348.884198,178.31086 348.884198,179.602577 C348.884198,180.89932 347.838762,181.949783 346.542018,181.949783 C345.245275,181.949783 344.189787,180.89932 344.189787,179.602577 C344.189787,178.31086 345.245275,177.255372 346.542018,177.255372 Z M364.450141,177.255372 C365.746884,177.255372 366.797346,178.31086 366.797346,179.602577 C366.797346,180.89932 365.746884,181.949783 364.450141,181.949783 C363.158424,181.949783 362.107961,180.89932 362.107961,179.602577 C362.107961,178.31086 363.158424,177.255372 364.450141,177.255372 Z M149.512465,162.161886 C151.236429,162.161886 152.638721,163.559151 152.638721,165.283116 C152.638721,167.002055 151.236429,168.39932 149.512465,168.39932 C147.793526,168.39932 146.396261,167.002055 146.396261,165.283116 C146.396261,163.559151 147.793526,162.161886 149.512465,162.161886 Z M167.425613,162.161886 C169.149578,162.161886 170.55187,163.559151 170.55187,165.283116 C170.55187,167.002055 169.149578,168.39932 167.425613,168.39932 C165.701649,168.39932 164.304383,167.002055 164.304383,165.283116 C164.304383,163.559151 165.701649,162.161886 167.425613,162.161886 Z M310.720748,162.161886 C312.439686,162.161886 313.841978,163.559151 313.841978,165.283116 C313.841978,167.002055 312.439686,168.39932 310.720748,168.39932 C308.996783,168.39932 307.599517,167.002055 307.599517,165.283116 C307.599517,163.559151 308.996783,162.161886 310.720748,162.161886 Z M328.62887,162.161886 C330.352835,162.161886 331.750101,163.559151 331.750101,165.283116 C331.750101,167.002055 330.352835,168.39932 328.62887,168.39932 C326.909932,168.39932 325.50764,167.002055 325.50764,165.283116 C325.50764,163.559151 326.909932,162.161886 328.62887,162.161886 Z M346.542018,162.161886 C348.265983,162.161886 349.663249,163.559151 349.663249,165.283116 C349.663249,167.002055 348.265983,168.39932 346.542018,168.39932 C344.82308,168.39932 343.420788,167.002055 343.420788,165.283116 C343.420788,163.559151 344.82308,162.161886 346.542018,162.161886 Z M364.450141,162.161886 C366.174105,162.161886 367.571371,163.559151 367.571371,165.283116 C367.571371,167.002055 366.174105,168.39932 364.450141,168.39932 C362.726176,168.39932 361.333936,167.002055 361.333936,165.283116 C361.333936,163.559151 362.726176,162.161886 364.450141,162.161886 Z M382.368315,162.161886 C383.564206,162.161886 384.608381,162.842162 385.130327,163.839031 L383.55582,168.163553 C383.189379,168.315459 382.788199,168.39932 382.368315,168.39932 C380.644351,168.39932 379.242059,167.002055 379.242059,165.283116 C379.242059,163.559151 380.644351,162.161886 382.368315,162.161886 Z M525.648372,162.161886 C527.377362,162.161886 528.769602,163.559151 528.769602,165.283116 C528.769602,167.002055 527.377362,168.39932 525.648372,168.39932 C523.929433,168.39932 522.532167,167.002055 522.532167,165.283116 C522.532167,163.559151 523.929433,162.161886 525.648372,162.161886 Z M597.290913,162.161886 C599.014877,162.161886 600.412143,163.559151 600.412143,165.283116 C600.412143,167.002055 599.014877,168.39932 597.290913,168.39932 C595.571974,168.39932 594.169682,167.002055 594.169682,165.283116 C594.169682,163.559151 595.571974,162.161886 597.290913,162.161886 Z M615.204061,162.161886 C616.923,162.161886 618.325292,163.559151 618.325292,165.283116 C618.325292,167.002055 616.923,168.39932 615.204061,168.39932 C613.485123,168.39932 612.082831,167.002055 612.082831,165.283116 C612.082831,163.559151 613.485123,162.161886 615.204061,162.161886 Z M131.604343,162.161886 C133.328307,162.161886 134.725573,163.559151 134.725573,165.283116 C134.725573,167.002055 133.328307,168.39932 131.604343,168.39932 C129.885404,168.39932 128.483112,167.002055 128.483112,165.283116 C128.483112,163.559151 129.885404,162.161886 131.604343,162.161886 Z M113.691194,162.161886 C115.415159,162.161886 116.812425,163.559151 116.812425,165.283116 C116.812425,167.002055 115.415159,168.39932 113.691194,168.39932 C111.96723,168.39932 110.569964,167.002055 110.569964,165.283116 C110.569964,163.559151 111.96723,162.161886 113.691194,162.161886 Z M95.783072,162.161886 C97.5070366,162.161886 98.9043024,163.559151 98.9043024,165.283116 C98.9043024,167.002055 97.5070366,168.39932 95.783072,168.39932 C94.0591074,168.39932 92.6618416,167.002055 92.6618416,165.283116 C92.6618416,163.559151 94.0591074,162.161886 95.783072,162.161886 Z M185.338762,147.0684 C187.489948,147.0684 189.234017,148.812469 189.234017,150.958629 C189.234017,153.109815 187.489948,154.85891 185.338762,154.85891 C183.187575,154.85891 181.43848,153.109815 181.43848,150.958629 C181.43848,148.812469 183.187575,147.0684 185.338762,147.0684 Z M167.425613,147.0684 C169.581825,147.0684 171.320869,148.812469 171.320869,150.958629 C171.320869,153.109815 169.581825,154.85891 167.425613,154.85891 C165.274427,154.85891 163.530358,153.109815 163.530358,150.958629 C163.530358,148.812469 165.274427,147.0684 167.425613,147.0684 Z M507.735223,147.0684 C509.886409,147.0684 511.635505,148.812469 511.635505,150.958629 C511.635505,153.109815 509.886409,154.85891 507.735223,154.85891 C505.589063,154.85891 503.844994,153.109815 503.844994,150.958629 C503.844994,148.812469 505.589063,147.0684 507.735223,147.0684 Z M525.648372,147.0684 C527.799558,147.0684 529.543627,148.812469 529.543627,150.958629 C529.543627,153.109815 527.799558,154.85891 525.648372,154.85891 C523.492159,154.85891 521.753116,153.109815 521.753116,150.958629 C521.753116,148.812469 523.492159,147.0684 525.648372,147.0684 Z M561.469642,147.0684 C563.620828,147.0684 565.364897,148.812469 565.364897,150.958629 C565.364897,153.109815 563.620828,154.85891 561.469642,154.85891 C559.323482,154.85891 557.579413,153.109815 557.579413,150.958629 C557.579413,148.812469 559.323482,147.0684 561.469642,147.0684 Z M597.290913,147.0684 C599.442099,147.0684 601.191194,148.812469 601.191194,150.958629 C601.191194,153.109815 599.442099,154.85891 597.290913,154.85891 C595.139727,154.85891 593.395657,153.109815 593.395657,150.958629 C593.395657,148.812469 595.139727,147.0684 597.290913,147.0684 Z M615.204061,147.0684 C617.360273,147.0684 619.09429,148.812469 619.09429,150.958629 C619.09429,153.109815 617.360273,154.85891 615.204061,154.85891 C613.052875,154.85891 611.308806,153.109815 611.308806,150.958629 C611.308806,148.812469 613.052875,147.0684 615.204061,147.0684 Z M59.9567752,147.0684 C62.1079614,147.0684 63.8520306,148.812469 63.8520306,150.958629 C63.8520306,153.109815 62.1079614,154.85891 59.9567752,154.85891 C57.8055891,154.85891 56.0615199,153.109815 56.0615199,150.958629 C56.0615199,148.812469 57.8055891,147.0684 59.9567752,147.0684 Z M95.783072,147.0684 C97.9342581,147.0684 99.6783273,148.812469 99.6783273,150.958629 C99.6783273,153.109815 97.9342581,154.85891 95.783072,154.85891 C93.6318858,154.85891 91.8827905,153.109815 91.8827905,150.958629 C91.8827905,148.812469 93.6318858,147.0684 95.783072,147.0684 Z M113.691194,147.0684 C115.84238,147.0684 117.58645,148.812469 117.58645,150.958629 C117.58645,153.109815 115.84238,154.85891 113.691194,154.85891 C111.540008,154.85891 109.795939,153.109815 109.795939,150.958629 C109.795939,148.812469 111.540008,147.0684 113.691194,147.0684 Z M131.604343,147.0684 C133.755529,147.0684 135.499598,148.812469 135.499598,150.958629 C135.499598,153.109815 133.755529,154.85891 131.604343,154.85891 C129.453156,154.85891 127.709087,153.109815 127.709087,150.958629 C127.709087,148.812469 129.453156,147.0684 131.604343,147.0684 Z M149.512465,147.0684 C151.668677,147.0684 153.412746,148.812469 153.412746,150.958629 C153.412746,153.109815 151.668677,154.85891 149.512465,154.85891 C147.366305,154.85891 145.622236,153.109815 145.622236,150.958629 C145.622236,148.812469 147.366305,147.0684 149.512465,147.0684 Z M292.8076,147.0684 C294.963812,147.0684 296.702855,148.812469 296.702855,150.958629 C296.702855,153.109815 294.963812,154.85891 292.8076,154.85891 C290.656413,154.85891 288.912344,153.109815 288.912344,150.958629 C288.912344,148.812469 290.656413,147.0684 292.8076,147.0684 Z M310.720748,147.0684 C312.871934,147.0684 314.616003,148.812469 314.616003,150.958629 C314.616003,153.109815 312.871934,154.85891 310.720748,154.85891 C308.569562,154.85891 306.820466,153.109815 306.820466,150.958629 C306.820466,148.812469 308.569562,147.0684 310.720748,147.0684 Z M328.62887,147.0684 C330.780056,147.0684 332.524125,148.812469 332.524125,150.958629 C332.524125,153.109815 330.780056,154.85891 328.62887,154.85891 C326.477684,154.85891 324.733615,153.109815 324.733615,150.958629 C324.733615,148.812469 326.477684,147.0684 328.62887,147.0684 Z M346.542018,147.0684 C348.693205,147.0684 350.437274,148.812469 350.437274,150.958629 C350.437274,153.109815 348.693205,154.85891 346.542018,154.85891 C344.390832,154.85891 342.646763,153.109815 342.646763,150.958629 C342.646763,148.812469 344.390832,147.0684 346.542018,147.0684 Z M364.450141,147.0684 C366.606353,147.0684 368.345396,148.812469 368.345396,150.958629 C368.345396,153.109815 366.606353,154.85891 364.450141,154.85891 C362.298955,154.85891 360.559912,153.109815 360.559912,150.958629 C360.559912,148.812469 362.298955,147.0684 364.450141,147.0684 Z M382.368315,147.0684 C384.514475,147.0684 386.258544,148.812469 386.258544,150.958629 C386.258544,153.109815 384.514475,154.85891 382.368315,154.85891 C380.212103,154.85891 378.468034,153.109815 378.468034,150.958629 C378.468034,148.812469 380.212103,147.0684 382.368315,147.0684 Z M436.092682,147.0684 C438.248894,147.0684 439.987937,148.812469 439.987937,150.958629 C439.987937,153.109815 438.248894,154.85891 436.092682,154.85891 C435.301455,154.85891 434.56488,154.621176 433.950202,154.213206 L432.227198,150.518113 C432.446434,148.578821 434.095446,147.0684 436.092682,147.0684 Z M292.8076,131.969887 C295.386007,131.969887 297.47688,134.06076 297.47688,136.639168 C297.47688,139.222601 295.386007,141.308448 292.8076,141.308448 C290.229192,141.308448 288.133293,139.222601 288.133293,136.639168 C288.133293,134.06076 290.229192,131.969887 292.8076,131.969887 Z M310.720748,131.969887 C313.299156,131.969887 315.390028,134.06076 315.390028,136.639168 C315.390028,139.222601 313.299156,141.308448 310.720748,141.308448 C308.14234,141.308448 306.051468,139.222601 306.051468,136.639168 C306.051468,134.06076 308.14234,131.969887 310.720748,131.969887 Z M328.62887,131.969887 C331.212304,131.969887 333.29815,134.06076 333.29815,136.639168 C333.29815,139.222601 331.212304,141.308448 328.62887,141.308448 C326.055489,141.308448 323.95959,139.222601 323.95959,136.639168 C323.95959,134.06076 326.055489,131.969887 328.62887,131.969887 Z M525.648372,131.969887 C528.226779,131.969887 530.317652,134.06076 530.317652,136.639168 C530.317652,139.222601 528.226779,141.308448 525.648372,141.308448 C523.069964,141.308448 520.984117,139.222601 520.984117,136.639168 C520.984117,134.06076 523.069964,131.969887 525.648372,131.969887 Z M95.783072,131.969887 C98.3614797,131.969887 100.452352,134.06076 100.452352,136.639168 C100.452352,139.222601 98.3614797,141.308448 95.783072,141.308448 C93.2046643,141.308448 91.1087656,139.222601 91.1087656,136.639168 C91.1087656,134.06076 93.2046643,131.969887 95.783072,131.969887 Z M436.092682,131.969887 C438.676116,131.969887 440.772014,134.06076 440.772014,136.639168 C440.772014,139.222601 438.676116,141.308448 436.092682,141.308448 C433.514274,141.308448 431.428428,139.222601 431.428428,136.639168 C431.428428,134.06076 433.514274,131.969887 436.092682,131.969887 Z M454.010856,131.969887 C456.584238,131.969887 458.680137,134.06076 458.680137,136.639168 C458.680137,139.222601 456.584238,141.308448 454.010856,141.308448 C451.422396,141.308448 449.33655,139.222601 449.33655,136.639168 C449.33655,134.06076 451.422396,131.969887 454.010856,131.969887 Z M507.735223,131.969887 C510.313631,131.969887 512.40953,134.06076 512.40953,136.639168 C512.40953,139.222601 510.313631,141.308448 507.735223,141.308448 C505.156815,141.308448 503.070969,139.222601 503.070969,136.639168 C503.070969,134.06076 505.156815,131.969887 507.735223,131.969887 Z M346.542018,131.969887 C349.120426,131.969887 351.211299,134.06076 351.211299,136.639168 C351.211299,139.222601 349.120426,141.308448 346.542018,141.308448 C343.963611,141.308448 341.872738,139.222601 341.872738,136.639168 C341.872738,134.06076 343.963611,131.969887 346.542018,131.969887 Z M113.691194,131.969887 C116.269602,131.969887 118.365501,134.06076 118.365501,136.639168 C118.365501,139.222601 116.269602,141.308448 113.691194,141.308448 C111.112786,141.308448 109.02694,139.222601 109.02694,136.639168 C109.02694,134.06076 111.112786,131.969887 113.691194,131.969887 Z M274.894451,131.969887 C277.472859,131.969887 279.568758,134.06076 279.568758,136.639168 C279.568758,139.222601 277.472859,141.308448 274.894451,141.308448 C272.316043,141.308448 270.225171,139.222601 270.225171,136.639168 C270.225171,134.06076 272.316043,131.969887 274.894451,131.969887 Z M131.604343,131.969887 C134.18275,131.969887 136.273623,134.06076 136.273623,136.639168 C136.273623,139.222601 134.18275,141.308448 131.604343,141.308448 C129.025935,141.308448 126.935062,139.222601 126.935062,136.639168 C126.935062,134.06076 129.025935,131.969887 131.604343,131.969887 Z M149.512465,131.969887 C152.095899,131.969887 154.186771,134.06076 154.186771,136.639168 C154.186771,139.222601 152.095899,141.308448 149.512465,141.308448 C146.939083,141.308448 144.843185,139.222601 144.843185,136.639168 C144.843185,134.06076 146.939083,131.969887 149.512465,131.969887 Z M167.425613,131.969887 C170.009047,131.969887 172.094893,134.06076 172.094893,136.639168 C172.094893,139.222601 170.009047,141.308448 167.425613,141.308448 C164.847205,141.308448 162.756333,139.222601 162.756333,136.639168 C162.756333,134.06076 164.847205,131.969887 167.425613,131.969887 Z M185.338762,131.969887 C187.917169,131.969887 190.008042,134.06076 190.008042,136.639168 C190.008042,139.222601 187.917169,141.308448 185.338762,141.308448 C182.760354,141.308448 180.669481,139.222601 180.669481,136.639168 C180.669481,134.06076 182.760354,131.969887 185.338762,131.969887 Z M203.25191,131.969887 C205.830318,131.969887 207.92119,134.06076 207.92119,136.639168 C207.92119,139.222601 205.830318,141.308448 203.25191,141.308448 C200.673502,141.308448 198.58263,139.222601 198.58263,136.639168 C198.58263,134.06076 200.673502,131.969887 203.25191,131.969887 Z M364.450141,131.969887 C367.028548,131.969887 369.124447,134.06076 369.124447,136.639168 C369.124447,139.222601 367.028548,141.308448 364.450141,141.308448 C361.876759,141.308448 359.78086,139.222601 359.78086,136.639168 C359.78086,134.06076 361.876759,131.969887 364.450141,131.969887 Z M382.368315,131.969887 C384.941697,131.969887 387.032569,134.06076 387.032569,136.639168 C387.032569,139.222601 384.941697,141.308448 382.368315,141.308448 C379.779855,141.308448 377.699035,139.222601 377.699035,136.639168 C377.699035,134.06076 379.779855,131.969887 382.368315,131.969887 Z M561.469642,131.969887 C564.053076,131.969887 566.143949,134.06076 566.143949,136.639168 C566.143949,139.222601 564.053076,141.308448 561.469642,141.308448 C558.891234,141.308448 556.805388,139.222601 556.805388,136.639168 C556.805388,134.06076 558.891234,131.969887 561.469642,131.969887 Z M597.290913,131.969887 C599.86932,131.969887 601.965219,134.06076 601.965219,136.639168 C601.965219,139.222601 599.86932,141.308448 597.290913,141.308448 C594.717531,141.308448 592.621632,139.222601 592.621632,136.639168 C592.621632,134.06076 594.717531,131.969887 597.290913,131.969887 Z M615.204061,131.969887 C617.782469,131.969887 619.873341,134.06076 619.873341,136.639168 C619.873341,139.222601 617.782469,141.308448 615.204061,141.308448 C612.620627,141.308448 610.529755,139.222601 610.529755,136.639168 C610.529755,134.06076 612.620627,131.969887 615.204061,131.969887 Z M633.117209,131.969887 C635.695617,131.969887 637.78649,134.06076 637.78649,136.639168 C637.78649,139.222601 635.695617,141.308448 633.117209,141.308448 C630.533776,141.308448 628.442903,139.222601 628.442903,136.639168 C628.442903,134.06076 630.533776,131.969887 633.117209,131.969887 Z M59.9567752,131.969887 C62.535183,131.969887 64.6310816,134.06076 64.6310816,136.639168 C64.6310816,139.222601 62.535183,141.308448 59.9567752,141.308448 C57.3783675,141.308448 55.287495,139.222601 55.287495,136.639168 C55.287495,134.06076 57.3783675,131.969887 59.9567752,131.969887 Z M77.8699236,131.969887 C80.4483313,131.969887 82.5392039,134.06076 82.5392039,136.639168 C82.5392039,139.222601 80.4483313,141.308448 77.8699236,141.308448 C75.2915159,141.308448 73.2006433,139.222601 73.2006433,136.639168 C73.2006433,134.06076 75.2915159,131.969887 77.8699236,131.969887 Z M543.56152,131.969887 C546.139928,131.969887 548.2308,134.06076 548.2308,136.639168 C548.2308,139.222601 546.139928,141.308448 543.56152,141.308448 C540.983112,141.308448 538.887214,139.222601 538.887214,136.639168 C538.887214,134.06076 540.983112,131.969887 543.56152,131.969887 Z M77.8699236,116.876401 C80.8755529,116.876401 83.3132288,119.309051 83.3132288,122.31468 C83.3132288,125.320309 80.8755529,127.768038 77.8699236,127.768038 C74.8642943,127.768038 72.4215923,125.320309 72.4215923,122.31468 C72.4215923,119.309051 74.8642943,116.876401 77.8699236,116.876401 Z M95.783072,116.876401 C98.7887012,116.876401 101.226377,119.309051 101.226377,122.31468 C101.226377,125.320309 98.7887012,127.768038 95.783072,127.768038 C92.7724166,127.768038 90.3347407,125.320309 90.3347407,122.31468 C90.3347407,119.309051 92.7724166,116.876401 95.783072,116.876401 Z M292.8076,116.876401 C295.813229,116.876401 298.250905,119.309051 298.250905,122.31468 C298.250905,125.320309 295.813229,127.768038 292.8076,127.768038 C289.80197,127.768038 287.364294,125.320309 287.364294,122.31468 C287.364294,119.309051 289.80197,116.876401 292.8076,116.876401 Z M131.604343,116.876401 C134.614998,116.876401 137.047648,119.309051 137.047648,122.31468 C137.047648,125.320309 134.614998,127.768038 131.604343,127.768038 C128.598713,127.768038 126.156011,125.320309 126.156011,122.31468 C126.156011,119.309051 128.598713,116.876401 131.604343,116.876401 Z M149.512465,116.876401 C152.518094,116.876401 154.960796,119.309051 154.960796,122.31468 C154.960796,125.320309 152.518094,127.768038 149.512465,127.768038 C146.506836,127.768038 144.06916,125.320309 144.06916,122.31468 C144.06916,119.309051 146.506836,116.876401 149.512465,116.876401 Z M167.425613,116.876401 C170.431242,116.876401 172.873945,119.309051 172.873945,122.31468 C172.873945,125.320309 170.431242,127.768038 167.425613,127.768038 C164.419984,127.768038 161.982308,125.320309 161.982308,122.31468 C161.982308,119.309051 164.419984,116.876401 167.425613,116.876401 Z M185.338762,116.876401 C188.344391,116.876401 190.782067,119.309051 190.782067,122.31468 C190.782067,125.320309 188.344391,127.768038 185.338762,127.768038 C182.333132,127.768038 179.89043,125.320309 179.89043,122.31468 C179.89043,119.309051 182.333132,116.876401 185.338762,116.876401 Z M203.25191,116.876401 C206.257539,116.876401 208.700241,119.309051 208.700241,122.31468 C208.700241,125.320309 206.257539,127.768038 203.25191,127.768038 C200.246281,127.768038 197.803579,125.320309 197.803579,122.31468 C197.803579,119.309051 200.246281,116.876401 203.25191,116.876401 Z M221.160032,116.876401 C224.170688,116.876401 226.608363,119.309051 226.608363,122.31468 C226.608363,125.320309 224.170688,127.768038 221.160032,127.768038 C218.149377,127.768038 215.716727,125.320309 215.716727,122.31468 C215.716727,119.309051 218.149377,116.876401 221.160032,116.876401 Z M239.073181,116.876401 C242.07881,116.876401 244.521512,119.309051 244.521512,122.31468 C244.521512,125.320309 242.07881,127.768038 239.073181,127.768038 C238.915339,127.768038 238.759086,127.76131 238.604689,127.748126 C237.852581,124.321453 237.282922,120.842841 236.915173,117.320535 C237.576397,117.034353 238.306024,116.876401 239.073181,116.876401 Z M256.986329,116.876401 C259.991958,116.876401 262.429634,119.309051 262.429634,122.31468 C262.429634,125.320309 259.991958,127.768038 256.986329,127.768038 C253.975674,127.768038 251.537998,125.320309 251.537998,122.31468 C251.537998,119.309051 253.975674,116.876401 256.986329,116.876401 Z M274.894451,116.876401 C277.90008,116.876401 280.342782,119.309051 280.342782,122.31468 C280.342782,125.320309 277.90008,127.768038 274.894451,127.768038 C271.888822,127.768038 269.451146,125.320309 269.451146,122.31468 C269.451146,119.309051 271.888822,116.876401 274.894451,116.876401 Z M489.827101,116.876401 C492.83273,116.876401 495.270406,119.309051 495.270406,122.31468 C495.270406,125.320309 492.83273,127.768038 489.827101,127.768038 C486.821472,127.768038 484.383796,125.320309 484.383796,122.31468 C484.383796,119.309051 486.821472,116.876401 489.827101,116.876401 Z M507.735223,116.876401 C510.745879,116.876401 513.183554,119.309051 513.183554,122.31468 C513.183554,125.320309 510.745879,127.768038 507.735223,127.768038 C504.73462,127.768038 502.296944,125.320309 502.296944,122.31468 C502.296944,119.309051 504.73462,116.876401 507.735223,116.876401 Z M525.648372,116.876401 C528.659027,116.876401 531.096703,119.309051 531.096703,122.31468 C531.096703,125.320309 528.659027,127.768038 525.648372,127.768038 C522.637716,127.768038 520.205066,125.320309 520.205066,122.31468 C520.205066,119.309051 522.637716,116.876401 525.648372,116.876401 Z M543.56152,116.876401 C546.567149,116.876401 549.009851,119.309051 549.009851,122.31468 C549.009851,125.320309 546.567149,127.768038 543.56152,127.768038 C540.555891,127.768038 538.118215,125.320309 538.118215,122.31468 C538.118215,119.309051 540.555891,116.876401 543.56152,116.876401 Z M346.542018,116.876401 C349.552674,116.876401 351.985324,119.309051 351.985324,122.31468 C351.985324,125.320309 349.552674,127.768038 346.542018,127.768038 C343.531363,127.768038 341.093687,125.320309 341.093687,122.31468 C341.093687,119.309051 343.531363,116.876401 346.542018,116.876401 Z M364.450141,116.876401 C367.460796,116.876401 369.903498,119.309051 369.903498,122.31468 C369.903498,125.320309 367.460796,127.768038 364.450141,127.768038 C361.444511,127.768038 359.001809,125.320309 359.001809,122.31468 C359.001809,119.309051 361.444511,116.876401 364.450141,116.876401 Z M382.368315,116.876401 C385.373945,116.876401 387.81162,119.309051 387.81162,122.31468 C387.81162,125.320309 385.373945,127.768038 382.368315,127.768038 C379.352634,127.768038 376.914958,125.320309 376.914958,122.31468 C376.914958,119.309051 379.352634,116.876401 382.368315,116.876401 Z M400.276437,116.876401 C403.277041,116.876401 405.714717,119.309051 405.714717,122.31468 C405.714717,125.320309 403.277041,127.768038 400.276437,127.768038 C397.265782,127.768038 394.833132,125.320309 394.833132,122.31468 C394.833132,119.309051 397.265782,116.876401 400.276437,116.876401 Z M418.18456,116.876401 C418.947079,116.876401 419.67252,117.032449 420.330752,117.314332 C419.961616,120.840374 419.38987,124.320634 418.636651,127.74876 C418.487055,127.7618 418.336544,127.768038 418.18456,127.768038 C415.17893,127.768038 412.741255,125.320309 412.741255,122.31468 C412.741255,119.309051 415.17893,116.876401 418.18456,116.876401 Z M436.092682,116.876401 C439.103337,116.876401 441.546039,119.309051 441.546039,122.31468 C441.546039,125.320309 439.103337,127.768038 436.092682,127.768038 C433.087053,127.768038 430.649377,125.320309 430.649377,122.31468 C430.649377,119.309051 433.087053,116.876401 436.092682,116.876401 Z M454.010856,116.876401 C457.01146,116.876401 459.449136,119.309051 459.449136,122.31468 C459.449136,125.320309 457.01146,127.768038 454.010856,127.768038 C451.000201,127.768038 448.557499,125.320309 448.557499,122.31468 C448.557499,119.309051 451.000201,116.876401 454.010856,116.876401 Z M471.913953,116.876401 C474.924608,116.876401 477.362284,119.309051 477.362284,122.31468 C477.362284,125.320309 474.924608,127.768038 471.913953,127.768038 C468.908323,127.768038 466.475674,125.320309 466.475674,122.31468 C466.475674,119.309051 468.908323,116.876401 471.913953,116.876401 Z M579.382791,116.876401 C582.393446,116.876401 584.826096,119.309051 584.826096,122.31468 C584.826096,125.320309 582.393446,127.768038 579.382791,127.768038 C576.382187,127.768038 573.939485,125.320309 573.939485,122.31468 C573.939485,119.309051 576.382187,116.876401 579.382791,116.876401 Z M597.290913,116.876401 C600.301568,116.876401 602.739244,119.309051 602.739244,122.31468 C602.739244,125.320309 600.301568,127.768038 597.290913,127.768038 C594.285283,127.768038 591.847608,125.320309 591.847608,122.31468 C591.847608,119.309051 594.285283,116.876401 597.290913,116.876401 Z M615.204061,116.876401 C618.214717,116.876401 620.652392,119.309051 620.652392,122.31468 C620.652392,125.320309 618.214717,127.768038 615.204061,127.768038 C612.193406,127.768038 609.75573,125.320309 609.75573,122.31468 C609.75573,119.309051 612.193406,116.876401 615.204061,116.876401 Z M633.117209,116.876401 C636.122839,116.876401 638.555489,119.309051 638.555489,122.31468 C638.555489,125.320309 636.122839,127.768038 633.117209,127.768038 C630.106554,127.768038 627.668878,125.320309 627.668878,122.31468 C627.668878,119.309051 630.106554,116.876401 633.117209,116.876401 Z M24.1355046,116.876401 C27.1411339,116.876401 29.5838359,119.309051 29.5838359,122.31468 C29.5838359,125.320309 27.1411339,127.768038 24.1355046,127.768038 C21.1298754,127.768038 18.6871733,125.320309 18.6871733,122.31468 C18.6871733,119.309051 21.1298754,116.876401 24.1355046,116.876401 Z M59.9567752,116.876401 C62.9624045,116.876401 65.4000804,119.309051 65.4000804,122.31468 C65.4000804,125.320309 62.9624045,127.768038 59.9567752,127.768038 C56.951146,127.768038 54.51347,125.320309 54.51347,122.31468 C54.51347,119.309051 56.951146,116.876401 59.9567752,116.876401 Z M328.62887,116.876401 C331.639526,116.876401 334.072175,119.309051 334.072175,122.31468 C334.072175,125.320309 331.639526,127.768038 328.62887,127.768038 C325.623241,127.768038 323.185565,125.320309 323.185565,122.31468 C323.185565,119.309051 325.623241,116.876401 328.62887,116.876401 Z M310.720748,116.876401 C313.726377,116.876401 316.164053,119.309051 316.164053,122.31468 C316.164053,125.320309 313.726377,127.768038 310.720748,127.768038 C307.715119,127.768038 305.272417,125.320309 305.272417,122.31468 C305.272417,119.309051 307.715119,116.876401 310.720748,116.876401 Z M561.469642,116.876401 C564.480298,116.876401 566.917973,119.309051 566.917973,122.31468 C566.917973,125.320309 564.480298,127.768038 561.469642,127.768038 C558.458987,127.768038 556.031363,125.320309 556.031363,122.31468 C556.031363,119.309051 558.458987,116.876401 561.469642,116.876401 Z M113.691194,116.876401 C116.696823,116.876401 119.139526,119.309051 119.139526,122.31468 C119.139526,125.320309 116.696823,127.768038 113.691194,127.768038 C110.685565,127.768038 108.247889,125.320309 108.247889,122.31468 C108.247889,119.309051 110.685565,116.876401 113.691194,116.876401 Z M346.542018,101.772863 C349.974869,101.772863 352.764375,104.562368 352.764375,108.000245 C352.764375,111.218543 350.312661,113.866983 347.177615,114.185466 L346.542018,114.217575 C343.104142,114.217575 340.319662,111.433096 340.319662,108.000245 C340.319662,106.711041 340.71123,105.513721 341.381983,104.520667 L341.740105,104.039638 C342.881146,102.65548 344.608213,101.772863 346.542018,101.772863 Z M382.368315,101.772863 C385.79614,101.772863 388.580619,104.562368 388.580619,108.000245 C388.580619,111.218543 386.133323,113.866983 383.00297,114.185466 L382.368315,114.217575 C378.930438,114.217575 376.140933,111.433096 376.140933,108.000245 C376.140933,106.711041 376.533207,105.513721 377.204844,104.520667 L377.56342,104.039638 C378.705852,102.65548 380.434509,101.772863 382.368315,101.772863 Z M418.18456,101.772863 C419.055178,101.772863 419.884215,101.951759 420.636897,102.274779 C420.758765,104.171705 420.821223,106.079071 420.821223,107.996538 C420.821223,109.914157 420.758385,111.821352 420.635896,113.716865 C420.068733,113.959748 419.459087,114.120734 418.821041,114.185466 L418.18456,114.217575 C414.746683,114.217575 411.96723,111.433096 411.96723,108.000245 C411.96723,106.711041 412.35809,105.513721 413.02796,104.520667 L413.385628,104.039638 C414.525278,102.65548 416.250754,101.772863 418.18456,101.772863 Z M454.010856,101.772863 C457.443707,101.772863 460.228187,104.562368 460.228187,108.000245 C460.228187,111.218543 457.78089,113.866983 454.646396,114.185466 L454.010856,114.217575 C450.567953,114.217575 447.7885,111.433096 447.7885,108.000245 C447.7885,106.711041 448.179361,105.513721 448.849496,104.520667 L449.20732,104.039638 C450.34751,102.65548 452.074223,101.772863 454.010856,101.772863 Z M489.827101,101.772863 C493.259952,101.772863 496.049457,104.562368 496.049457,108.000245 C496.049457,111.218543 493.597743,113.866983 490.462697,114.185466 L489.827101,114.217575 C489.182499,114.217575 488.560868,114.119683 487.976256,113.937981 L487.404503,113.728862 C485.171014,112.784812 483.604745,110.574883 483.604745,108.000245 C483.604745,104.562368 486.389224,101.772863 489.827101,101.772863 Z M525.648372,101.772863 C529.086248,101.772863 531.870728,104.562368 531.870728,108.000245 C531.870728,111.218543 529.423432,113.866983 526.284796,114.185466 L525.648372,114.217575 C522.210495,114.217575 519.431041,111.433096 519.431041,108.000245 C519.431041,106.711041 519.821902,105.513721 520.491772,104.520667 L520.84944,104.039638 C521.989089,102.65548 523.714566,101.772863 525.648372,101.772863 Z M561.469642,101.772863 C564.907519,101.772863 567.691998,104.562368 567.691998,108.000245 C567.691998,111.218543 565.244702,113.866983 562.106067,114.185466 L561.469642,114.217575 C558.036791,114.217575 555.252312,111.433096 555.252312,108.000245 C555.252312,106.711041 555.643879,105.513721 556.314368,104.520667 L556.672334,104.039638 C557.812834,102.65548 559.538664,101.772863 561.469642,101.772863 Z M597.290913,101.772863 C600.72879,101.772863 603.518295,104.562368 603.518295,108.000245 C603.518295,111.218543 601.066581,113.866983 597.927394,114.185466 L597.290913,114.217575 C593.84801,114.217575 591.078609,111.433096 591.078609,108.000245 C591.078609,106.711041 591.468056,105.513721 592.136424,104.520667 L592.49334,104.039638 C593.630747,102.65548 595.35428,101.772863 597.290913,101.772863 Z M615.204061,101.772863 C618.641938,101.772863 621.421391,104.562368 621.421391,108.000245 C621.421391,111.218543 618.978512,113.866983 615.840429,114.185466 L615.204061,114.217575 C611.766184,114.217575 608.981705,111.433096 608.981705,108.000245 C608.981705,106.711041 609.373272,105.513721 610.044026,104.520667 L610.402148,104.039638 C611.543189,102.65548 613.270255,101.772863 615.204061,101.772863 Z M42.048653,101.772863 C45.4815038,101.772863 48.2659831,104.562368 48.2659831,108.000245 C48.2659831,111.218543 45.8186869,113.866983 42.6841929,114.185466 L42.048653,114.217575 C38.610776,114.217575 35.8212706,111.433096 35.8212706,108.000245 C35.8212706,106.711041 36.2135448,105.513721 36.8851819,104.520667 L37.2437579,104.039638 C38.3861902,102.65548 40.1148472,101.772863 42.048653,101.772863 Z M77.8699236,101.772863 C81.3078006,101.772863 84.0922799,104.562368 84.0922799,108.000245 C84.0922799,111.218543 81.6449836,113.866983 78.5063482,114.185466 L77.8699236,114.217575 C74.4320466,114.217575 71.6475674,111.433096 71.6475674,108.000245 C71.6475674,106.711041 72.0391348,105.513721 72.7098883,104.520667 L73.0680103,104.039638 C74.2090511,102.65548 75.9361178,101.772863 77.8699236,101.772863 Z M113.691194,101.772863 C117.129071,101.772863 119.91355,104.562368 119.91355,108.000245 C119.91355,111.218543 117.466254,113.866983 114.327619,114.185466 L113.691194,114.217575 C110.258343,114.217575 107.468838,111.433096 107.468838,108.000245 C107.468838,106.711041 107.861112,105.513721 108.532484,104.520667 L108.890904,104.039638 C110.032796,102.65548 111.760216,101.772863 113.691194,101.772863 Z M149.512465,101.772863 C152.955368,101.772863 155.734821,104.562368 155.734821,108.000245 C155.734821,111.218543 153.291942,113.866983 150.149718,114.185466 L149.512465,114.217575 C146.079614,114.217575 143.295135,111.433096 143.295135,108.000245 C143.295135,106.711041 143.686702,105.513721 144.357191,104.520667 L144.715157,104.039638 C145.855656,102.65548 147.581486,101.772863 149.512465,101.772863 Z M185.338762,101.772863 C188.771612,101.772863 191.561118,104.562368 191.561118,108.000245 C191.561118,111.218543 189.109404,113.866983 185.974358,114.185466 L185.338762,114.217575 C181.905911,114.217575 179.116405,111.433096 179.116405,108.000245 C179.116405,106.711041 179.50868,105.513721 180.180052,104.520667 L180.538472,104.039638 C181.680363,102.65548 183.407783,101.772863 185.338762,101.772863 Z M203.25191,101.772863 C206.684761,101.772863 209.474266,104.562368 209.474266,108.000245 C209.474266,111.218543 207.022552,113.866983 203.887506,114.185466 L203.25191,114.217575 C199.814033,114.217575 197.029554,111.433096 197.029554,108.000245 C197.029554,106.711041 197.421121,105.513721 198.091875,104.520667 L198.449997,104.039638 C199.591037,102.65548 201.318104,101.772863 203.25191,101.772863 Z M507.735223,101.772863 C511.1731,101.772863 513.962606,104.562368 513.962606,108.000245 C513.962606,111.218543 511.510892,113.866983 508.371704,114.185466 L507.735223,114.217575 C504.302372,114.217575 501.517893,111.433096 501.517893,108.000245 C501.517893,106.711041 501.90946,105.513721 502.579949,104.520667 L502.937915,104.039638 C504.078415,102.65548 505.804245,101.772863 507.735223,101.772863 Z M256.986329,101.772863 C260.41918,101.772863 263.203659,104.562368 263.203659,108.000245 C263.203659,111.218543 260.756363,113.866983 257.621869,114.185466 L256.986329,114.217575 C253.548452,114.217575 250.763973,111.433096 250.763973,108.000245 C250.763973,106.711041 251.15554,105.513721 251.826294,104.520667 L252.184416,104.039638 C253.325456,102.65548 255.052523,101.772863 256.986329,101.772863 Z M310.720748,101.772863 C314.153599,101.772863 316.938078,104.562368 316.938078,108.000245 C316.938078,111.218543 314.490782,113.866983 311.356288,114.185466 L310.720748,114.217575 C307.282871,114.217575 304.498392,111.433096 304.498392,108.000245 C304.498392,106.711041 304.889959,105.513721 305.560713,104.520667 L305.918835,104.039638 C307.059875,102.65548 308.786942,101.772863 310.720748,101.772863 Z M364.450141,101.772863 C367.888018,101.772863 370.677523,104.562368 370.677523,108.000245 C370.677523,111.218543 368.225809,113.866983 365.086622,114.185466 L364.450141,114.217575 C361.01729,114.217575 358.237837,111.433096 358.237837,108.000245 C358.237837,106.711041 358.628697,105.513721 359.298302,104.520667 L359.655814,104.039638 C360.794923,102.65548 362.519162,101.772863 364.450141,101.772863 Z M579.382791,101.772863 C582.815641,101.772863 585.605147,104.562368 585.605147,108.000245 C585.605147,111.218543 583.153433,113.866983 580.018387,114.185466 L579.382791,114.217575 C575.944914,114.217575 573.16546,111.433096 573.16546,108.000245 C573.16546,106.711041 573.556321,105.513721 574.226191,104.520667 L574.583859,104.039638 C575.723508,102.65548 577.448985,101.772863 579.382791,101.772863 Z M651.020306,101.772863 C654.463209,101.772863 657.247688,104.562368 657.247688,108.000245 C657.247688,111.218543 654.800392,113.866983 651.657615,114.185466 L651.020306,114.217575 C650.377588,114.217575 649.757312,114.119683 649.173657,113.937981 L648.602734,113.728862 C646.372072,112.784812 644.802975,110.574883 644.802975,108.000245 C644.802975,104.562368 647.592481,101.772863 651.020306,101.772863 Z M6.22235625,101.772863 C9.66023321,101.772863 12.4447125,104.562368 12.4447125,108.000245 C12.4447125,111.218543 9.99741625,113.866983 6.8587809,114.185466 L6.22235625,114.217575 C2.78950543,114.217575 0,111.433096 0,108.000245 C0,106.711041 0.392274201,105.513721 1.06364619,104.520667 L1.42206638,104.039638 C2.56395758,102.65548 4.29137766,101.772863 6.22235625,101.772863 Z M400.276437,101.772863 C403.709288,101.772863 406.493768,104.562368 406.493768,108.000245 C406.493768,111.218543 404.046471,113.866983 400.911977,114.185466 L400.276437,114.217575 C396.838561,114.217575 394.059107,111.433096 394.059107,108.000245 C394.059107,106.711041 394.449968,105.513721 395.119838,104.520667 L395.477506,104.039638 C396.617155,102.65548 398.342632,101.772863 400.276437,101.772863 Z M24.1355046,101.772863 C27.5733816,101.772863 30.3578609,104.562368 30.3578609,108.000245 C30.3578609,111.218543 27.9105646,113.866983 24.7719293,114.185466 L24.1355046,114.217575 C20.7026538,114.217575 17.9131484,111.433096 17.9131484,108.000245 C17.9131484,106.711041 18.3054226,105.513721 18.9767946,104.520667 L19.3352147,104.039638 C20.477106,102.65548 22.204526,101.772863 24.1355046,101.772863 Z M292.8076,101.772863 C296.245476,101.772863 299.029956,104.562368 299.029956,108.000245 C299.029956,111.218543 296.58266,113.866983 293.444024,114.185466 L292.8076,114.217575 C289.369723,114.217575 286.585243,111.433096 286.585243,108.000245 C286.585243,106.711041 286.976811,105.513721 287.647564,104.520667 L288.005686,104.039638 C289.146727,102.65548 290.873794,101.772863 292.8076,101.772863 Z M59.9567752,101.772863 C63.3946522,101.772863 66.1791315,104.562368 66.1791315,108.000245 C66.1791315,111.218543 63.7318352,113.866983 60.5931999,114.185466 L59.9567752,114.217575 C56.5239244,114.217575 53.7394451,111.433096 53.7394451,108.000245 C53.7394451,106.711041 54.1310125,105.513721 54.801501,104.520667 L55.1594672,104.039638 C56.2999669,102.65548 58.0257966,101.772863 59.9567752,101.772863 Z M436.092682,101.772863 C438.026488,101.772863 439.753554,102.65548 440.894595,104.039638 L441.252717,104.520667 C441.923471,105.513721 442.315038,106.711041 442.315038,108.000245 C442.315038,110.574883 440.748769,112.784812 438.515279,113.728862 L437.943527,113.937981 C437.553786,114.059116 437.147591,114.143002 436.729107,114.185466 L436.092682,114.217575 C434.588611,114.217575 433.210566,113.684609 432.136163,112.797553 L431.694813,112.396229 C430.570215,111.271003 429.875352,109.716671 429.875352,108.000245 C429.875352,106.394915 430.481401,104.930959 431.47754,103.826383 C431.683097,103.601217 431.902446,103.391387 432.136163,103.198332 L432.614694,102.836774 C433.606865,102.165137 434.803478,101.772863 436.092682,101.772863 Z M95.783072,101.772863 C99.2159228,101.772863 102.000402,104.562368 102.000402,108.000245 C102.000402,111.218543 99.5531058,113.866983 96.4186119,114.185466 L95.783072,114.217575 C92.345195,114.217575 89.5607157,111.433096 89.5607157,108.000245 C89.5607157,106.711041 89.9522831,105.513721 90.6230367,104.520667 L90.9811587,104.039638 C92.1221995,102.65548 93.8492662,101.772863 95.783072,101.772863 Z M221.160032,101.772863 C224.597909,101.772863 227.382388,104.562368 227.382388,108.000245 C227.382388,111.218543 224.935092,113.866983 221.796457,114.185466 L221.160032,114.217575 C217.727181,114.217575 214.937676,111.433096 214.937676,108.000245 C214.937676,106.711041 215.32995,105.513721 216.001322,104.520667 L216.359742,104.039638 C217.501633,102.65548 219.229054,101.772863 221.160032,101.772863 Z M131.604343,101.772863 C135.037193,101.772863 137.821673,104.562368 137.821673,108.000245 C137.821673,111.218543 135.374376,113.866983 132.239882,114.185466 L131.604343,114.217575 C128.166466,114.217575 125.381986,111.433096 125.381986,108.000245 C125.381986,106.711041 125.773554,105.513721 126.444307,104.520667 L126.802429,104.039638 C127.94347,102.65548 129.670537,101.772863 131.604343,101.772863 Z M471.913953,101.772863 C475.356856,101.772863 478.136309,104.562368 478.136309,108.000245 C478.136309,111.218543 475.69343,113.866983 472.551205,114.185466 L471.913953,114.217575 C468.481102,114.217575 465.696622,111.433096 465.696622,108.000245 C465.696622,106.711041 466.08819,105.513721 466.758678,104.520667 L467.116644,104.039638 C468.257144,102.65548 469.982974,101.772863 471.913953,101.772863 Z M167.425613,101.772863 C170.86349,101.772863 173.647969,104.562368 173.647969,108.000245 C173.647969,111.218543 171.200673,113.866983 168.062038,114.185466 L167.425613,114.217575 C163.992762,114.217575 161.203257,111.433096 161.203257,108.000245 C161.203257,106.711041 161.595531,105.513721 162.266903,104.520667 L162.625323,104.039638 C163.767215,102.65548 165.494635,101.772863 167.425613,101.772863 Z M328.62887,101.772863 C332.066747,101.772863 334.851226,104.562368 334.851226,108.000245 C334.851226,111.218543 332.40393,113.866983 329.265295,114.185466 L328.62887,114.217575 C325.196019,114.217575 322.41154,111.433096 322.41154,108.000245 C322.41154,106.711041 322.803107,105.513721 323.473596,104.520667 L323.831562,104.039638 C324.972062,102.65548 326.697892,101.772863 328.62887,101.772863 Z M633.117209,101.772863 C636.55006,101.772863 639.33454,104.562368 639.33454,108.000245 C639.33454,111.218543 636.887243,113.866983 633.752749,114.185466 L633.117209,114.217575 C629.674306,114.217575 626.894853,111.433096 626.894853,108.000245 C626.894853,106.711041 627.285714,105.513721 627.955849,104.520667 L628.313673,104.039638 C629.453863,102.65548 631.180576,101.772863 633.117209,101.772863 Z M239.073181,101.772863 C242.511057,101.772863 245.295537,104.562368 245.295537,108.000245 C245.295537,111.218543 242.848241,113.866983 239.709605,114.185466 L239.073181,114.217575 C238.198979,114.217575 237.366824,114.037 236.611994,113.711127 C236.489081,111.816799 236.426785,109.911796 236.426785,107.996538 C236.426785,106.080607 236.489907,104.175018 236.612268,102.280919 C237.366617,101.953809 238.19887,101.772863 239.073181,101.772863 Z M274.894451,101.772863 C278.332328,101.772863 281.116807,104.562368 281.116807,108.000245 C281.116807,111.218543 278.669511,113.866983 275.530876,114.185466 L274.894451,114.217575 C271.4616,114.217575 268.677121,111.433096 268.677121,108.000245 C268.677121,106.711041 269.068688,105.513721 269.739177,104.520667 L270.097143,104.039638 C271.237643,102.65548 272.963473,101.772863 274.894451,101.772863 Z M543.56152,101.772863 C546.994371,101.772863 549.77885,104.562368 549.77885,108.000245 C549.77885,111.218543 547.331554,113.866983 544.19706,114.185466 L543.56152,114.217575 C540.123643,114.217575 537.34419,111.433096 537.34419,108.000245 C537.34419,106.711041 537.73505,105.513721 538.40492,104.520667 L538.762588,104.039638 C539.902238,102.65548 541.627714,101.772863 543.56152,101.772863 Z M579.382791,88.2324526 C582.393446,88.2324526 584.826096,90.6701285 584.826096,93.6757578 C584.826096,96.6864132 582.393446,99.1240891 579.382791,99.1240891 C576.382187,99.1240891 573.939485,96.6864132 573.939485,93.6757578 C573.939485,90.6701285 576.382187,88.2324526 579.382791,88.2324526 Z M95.783072,88.2324526 C98.7887012,88.2324526 101.226377,90.6701285 101.226377,93.6757578 C101.226377,96.6864132 98.7887012,99.1240891 95.783072,99.1240891 C92.7724166,99.1240891 90.3347407,96.6864132 90.3347407,93.6757578 C90.3347407,90.6701285 92.7724166,88.2324526 95.783072,88.2324526 Z M24.1355046,88.2324526 C27.1411339,88.2324526 29.5838359,90.6701285 29.5838359,93.6757578 C29.5838359,96.6864132 27.1411339,99.1240891 24.1355046,99.1240891 C21.1298754,99.1240891 18.6871733,96.6864132 18.6871733,93.6757578 C18.6871733,90.6701285 21.1298754,88.2324526 24.1355046,88.2324526 Z M525.648372,88.2324526 C528.659027,88.2324526 531.096703,90.6701285 531.096703,93.6757578 C531.096703,96.6864132 528.659027,99.1240891 525.648372,99.1240891 C522.637716,99.1240891 520.205066,96.6864132 520.205066,93.6757578 C520.205066,90.6701285 522.637716,88.2324526 525.648372,88.2324526 Z M113.691194,88.2324526 C116.696823,88.2324526 119.139526,90.6701285 119.139526,93.6757578 C119.139526,96.6864132 116.696823,99.1240891 113.691194,99.1240891 C110.685565,99.1240891 108.247889,96.6864132 108.247889,93.6757578 C108.247889,90.6701285 110.685565,88.2324526 113.691194,88.2324526 Z M364.450141,88.2324526 C367.460796,88.2324526 369.903498,90.6701285 369.903498,93.6757578 C369.903498,96.6864132 367.460796,99.1240891 364.450141,99.1240891 C361.444511,99.1240891 359.001809,96.6864132 359.001809,93.6757578 C359.001809,90.6701285 361.444511,88.2324526 364.450141,88.2324526 Z M185.338762,88.2324526 C188.344391,88.2324526 190.782067,90.6701285 190.782067,93.6757578 C190.782067,96.6864132 188.344391,99.1240891 185.338762,99.1240891 C182.333132,99.1240891 179.89043,96.6864132 179.89043,93.6757578 C179.89043,90.6701285 182.333132,88.2324526 185.338762,88.2324526 Z M382.368315,88.2324526 C385.373945,88.2324526 387.81162,90.6701285 387.81162,93.6757578 C387.81162,96.6864132 385.373945,99.1240891 382.368315,99.1240891 C379.352634,99.1240891 376.914958,96.6864132 376.914958,93.6757578 C376.914958,90.6701285 379.352634,88.2324526 382.368315,88.2324526 Z M256.986329,88.2324526 C259.991958,88.2324526 262.429634,90.6701285 262.429634,93.6757578 C262.429634,96.6864132 259.991958,99.1240891 256.986329,99.1240891 C253.975674,99.1240891 251.537998,96.6864132 251.537998,93.6757578 C251.537998,90.6701285 253.975674,88.2324526 256.986329,88.2324526 Z M167.425613,88.2324526 C170.431242,88.2324526 172.873945,90.6701285 172.873945,93.6757578 C172.873945,96.6864132 170.431242,99.1240891 167.425613,99.1240891 C164.419984,99.1240891 161.982308,96.6864132 161.982308,93.6757578 C161.982308,90.6701285 164.419984,88.2324526 167.425613,88.2324526 Z M328.62887,88.2324526 C331.639526,88.2324526 334.072175,90.6701285 334.072175,93.6757578 C334.072175,96.6864132 331.639526,99.1240891 328.62887,99.1240891 C325.623241,99.1240891 323.185565,96.6864132 323.185565,93.6757578 C323.185565,90.6701285 325.623241,88.2324526 328.62887,88.2324526 Z M561.469642,88.2324526 C564.480298,88.2324526 566.917973,90.6701285 566.917973,93.6757578 C566.917973,96.6864132 564.480298,99.1240891 561.469642,99.1240891 C558.458987,99.1240891 556.031363,96.6864132 556.031363,93.6757578 C556.031363,90.6701285 558.458987,88.2324526 561.469642,88.2324526 Z M471.913953,88.2324526 C474.924608,88.2324526 477.362284,90.6701285 477.362284,93.6757578 C477.362284,96.6864132 474.924608,99.1240891 471.913953,99.1240891 C468.908323,99.1240891 466.475674,96.6864132 466.475674,93.6757578 C466.475674,90.6701285 468.908323,88.2324526 471.913953,88.2324526 Z M203.25191,88.2324526 C206.257539,88.2324526 208.700241,90.6701285 208.700241,93.6757578 C208.700241,96.6864132 206.257539,99.1240891 203.25191,99.1240891 C200.246281,99.1240891 197.803579,96.6864132 197.803579,93.6757578 C197.803579,90.6701285 200.246281,88.2324526 203.25191,88.2324526 Z M615.204061,88.2324526 C618.214717,88.2324526 620.652392,90.6701285 620.652392,93.6757578 C620.652392,96.6864132 618.214717,99.1240891 615.204061,99.1240891 C612.193406,99.1240891 609.75573,96.6864132 609.75573,93.6757578 C609.75573,90.6701285 612.193406,88.2324526 615.204061,88.2324526 Z M454.010856,88.2324526 C457.01146,88.2324526 459.449136,90.6701285 459.449136,93.6757578 C459.449136,96.6864132 457.01146,99.1240891 454.010856,99.1240891 C451.000201,99.1240891 448.557499,96.6864132 448.557499,93.6757578 C448.557499,90.6701285 451.000201,88.2324526 454.010856,88.2324526 Z M149.512465,88.2324526 C152.518094,88.2324526 154.960796,90.6701285 154.960796,93.6757578 C154.960796,96.6864132 152.518094,99.1240891 149.512465,99.1240891 C146.506836,99.1240891 144.06916,96.6864132 144.06916,93.6757578 C144.06916,90.6701285 146.506836,88.2324526 149.512465,88.2324526 Z M238.209217,90.108283 L240.882865,90.7152429 C241.835321,90.9260859 242.788953,90.9513827 243.705958,90.8138584 C244.223136,91.6442014 244.521512,92.6252919 244.521512,93.6757578 C244.521512,96.6864132 242.07881,99.1240891 239.073181,99.1240891 C238.306797,99.1240891 237.577867,98.9661294 236.916985,98.6809683 C237.21828,95.7920111 237.653771,92.9336328 238.209217,90.108283 Z M292.8076,88.2324526 C295.813229,88.2324526 298.250905,90.6701285 298.250905,93.6757578 C298.250905,96.6864132 295.813229,99.1240891 292.8076,99.1240891 C289.80197,99.1240891 287.364294,96.6864132 287.364294,93.6757578 C287.364294,90.6701285 289.80197,88.2324526 292.8076,88.2324526 Z M597.290913,88.2324526 C600.301568,88.2324526 602.739244,90.6701285 602.739244,93.6757578 C602.739244,96.6864132 600.301568,99.1240891 597.290913,99.1240891 C594.285283,99.1240891 591.847608,96.6864132 591.847608,93.6757578 C591.847608,90.6701285 594.285283,88.2324526 597.290913,88.2324526 Z M543.56152,88.2324526 C546.567149,88.2324526 549.009851,90.6701285 549.009851,93.6757578 C549.009851,96.6864132 546.567149,99.1240891 543.56152,99.1240891 C540.555891,99.1240891 538.118215,96.6864132 538.118215,93.6757578 C538.118215,90.6701285 540.555891,88.2324526 543.56152,88.2324526 Z M274.894451,88.2324526 C277.90008,88.2324526 280.342782,90.6701285 280.342782,93.6757578 C280.342782,96.6864132 277.90008,99.1240891 274.894451,99.1240891 C271.888822,99.1240891 269.451146,96.6864132 269.451146,93.6757578 C269.451146,90.6701285 271.888822,88.2324526 274.894451,88.2324526 Z M221.160032,88.2324526 C224.170688,88.2324526 226.608363,90.6701285 226.608363,93.6757578 C226.608363,96.6864132 224.170688,99.1240891 221.160032,99.1240891 C218.149377,99.1240891 215.716727,96.6864132 215.716727,93.6757578 C215.716727,90.6701285 218.149377,88.2324526 221.160032,88.2324526 Z M346.542018,88.2324526 C349.552674,88.2324526 351.985324,90.6701285 351.985324,93.6757578 C351.985324,96.6864132 349.552674,99.1240891 346.542018,99.1240891 C343.531363,99.1240891 341.093687,96.6864132 341.093687,93.6757578 C341.093687,90.6701285 343.531363,88.2324526 346.542018,88.2324526 Z M77.8699236,88.2324526 C80.8755529,88.2324526 83.3132288,90.6701285 83.3132288,93.6757578 C83.3132288,96.6864132 80.8755529,99.1240891 77.8699236,99.1240891 C74.8642943,99.1240891 72.4215923,96.6864132 72.4215923,93.6757578 C72.4215923,90.6701285 74.8642943,88.2324526 77.8699236,88.2324526 Z M310.720748,88.2324526 C313.726377,88.2324526 316.164053,90.6701285 316.164053,93.6757578 C316.164053,96.6864132 313.726377,99.1240891 310.720748,99.1240891 C307.715119,99.1240891 305.272417,96.6864132 305.272417,93.6757578 C305.272417,90.6701285 307.715119,88.2324526 310.720748,88.2324526 Z M400.276437,88.2324526 C403.277041,88.2324526 405.714717,90.6701285 405.714717,93.6757578 C405.714717,96.6864132 403.277041,99.1240891 400.276437,99.1240891 C397.265782,99.1240891 394.833132,96.6864132 394.833132,93.6757578 C394.833132,90.6701285 397.265782,88.2324526 400.276437,88.2324526 Z M633.117209,88.2324526 C636.122839,88.2324526 638.555489,90.6701285 638.555489,93.6757578 C638.555489,96.6864132 636.122839,99.1240891 633.117209,99.1240891 C630.106554,99.1240891 627.668878,96.6864132 627.668878,93.6757578 C627.668878,90.6701285 630.106554,88.2324526 633.117209,88.2324526 Z M131.604343,88.2324526 C134.614998,88.2324526 137.047648,90.6701285 137.047648,93.6757578 C137.047648,96.6864132 134.614998,99.1240891 131.604343,99.1240891 C128.598713,99.1240891 126.156011,96.6864132 126.156011,93.6757578 C126.156011,90.6701285 128.598713,88.2324526 131.604343,88.2324526 Z M489.827101,88.2324526 C492.83273,88.2324526 495.270406,90.6701285 495.270406,93.6757578 C495.270406,96.6864132 492.83273,99.1240891 489.827101,99.1240891 C486.821472,99.1240891 484.383796,96.6864132 484.383796,93.6757578 C484.383796,90.6701285 486.821472,88.2324526 489.827101,88.2324526 Z M436.092682,88.2324526 C439.103337,88.2324526 441.546039,90.6701285 441.546039,93.6757578 C441.546039,96.6864132 439.103337,99.1240891 436.092682,99.1240891 C433.087053,99.1240891 430.649377,96.6864132 430.649377,93.6757578 C430.649377,90.6701285 433.087053,88.2324526 436.092682,88.2324526 Z M419.048295,90.106555 C419.603161,92.9332106 420.03654,95.7934323 420.335903,98.6825033 C419.675461,98.9670838 418.948625,99.1240891 418.18456,99.1240891 C415.17893,99.1240891 412.741255,96.6864132 412.741255,93.6757578 C412.741255,92.6261394 413.038536,91.6457845 413.553471,90.814321 C414.467744,90.9511677 415.417434,90.9252037 416.366007,90.7152429 L419.048295,90.106555 Z M507.735223,88.2324526 C510.745879,88.2324526 513.183554,90.6701285 513.183554,93.6757578 C513.183554,96.6864132 510.745879,99.1240891 507.735223,99.1240891 C504.73462,99.1240891 502.296944,96.6864132 502.296944,93.6757578 C502.296944,90.6701285 504.73462,88.2324526 507.735223,88.2324526 Z M59.9567752,88.2324526 C62.9624045,88.2324526 65.4000804,90.6701285 65.4000804,93.6757578 C65.4000804,96.6864132 62.9624045,99.1240891 59.9567752,99.1240891 C56.951146,99.1240891 54.51347,96.6864132 54.51347,93.6757578 C54.51347,90.6701285 56.951146,88.2324526 59.9567752,88.2324526 Z M328.62887,74.6870164 C331.212304,74.6870164 333.29815,76.7778889 333.29815,79.3562966 C333.29815,81.9347043 331.212304,84.030603 328.62887,84.030603 C326.055489,84.030603 323.95959,81.9347043 323.95959,79.3562966 C323.95959,76.7778889 326.055489,74.6870164 328.62887,74.6870164 Z M346.542018,74.6870164 C349.120426,74.6870164 351.211299,76.7778889 351.211299,79.3562966 C351.211299,81.9347043 349.120426,84.030603 346.542018,84.030603 C343.963611,84.030603 341.872738,81.9347043 341.872738,79.3562966 C341.872738,76.7778889 343.963611,74.6870164 346.542018,74.6870164 Z M364.450141,74.6870164 C367.028548,74.6870164 369.124447,76.7778889 369.124447,79.3562966 C369.124447,81.9347043 367.028548,84.030603 364.450141,84.030603 C361.876759,84.030603 359.78086,81.9347043 359.78086,79.3562966 C359.78086,76.7778889 361.876759,74.6870164 364.450141,74.6870164 Z M597.290913,74.6870164 C599.86932,74.6870164 601.965219,76.7778889 601.965219,79.3562966 C601.965219,81.9347043 599.86932,84.030603 597.290913,84.030603 C594.717531,84.030603 592.621632,81.9347043 592.621632,79.3562966 C592.621632,76.7778889 594.717531,74.6870164 597.290913,74.6870164 Z M77.8699236,74.6870164 C80.4483313,74.6870164 82.5392039,76.7778889 82.5392039,79.3562966 C82.5392039,81.9347043 80.4483313,84.030603 77.8699236,84.030603 C75.2915159,84.030603 73.2006433,81.9347043 73.2006433,79.3562966 C73.2006433,76.7778889 75.2915159,74.6870164 77.8699236,74.6870164 Z M95.783072,74.6870164 C98.3614797,74.6870164 100.452352,76.7778889 100.452352,79.3562966 C100.452352,81.9347043 98.3614797,84.030603 95.783072,84.030603 C93.2046643,84.030603 91.1087656,81.9347043 91.1087656,79.3562966 C91.1087656,76.7778889 93.2046643,74.6870164 95.783072,74.6870164 Z M310.720748,74.6870164 C313.299156,74.6870164 315.390028,76.7778889 315.390028,79.3562966 C315.390028,81.9347043 313.299156,84.030603 310.720748,84.030603 C308.14234,84.030603 306.051468,81.9347043 306.051468,79.3562966 C306.051468,76.7778889 308.14234,74.6870164 310.720748,74.6870164 Z M400.276437,74.6870164 C401.825439,74.6870164 403.200298,75.4416364 404.051198,76.6032394 C404.348071,77.310475 404.63478,78.0236787 404.911683,78.742161 C404.937103,78.9434428 404.950744,79.1482831 404.950744,79.3562966 C404.950744,81.9347043 402.854845,84.030603 400.276437,84.030603 C397.69803,84.030603 395.602131,81.9347043 395.602131,79.3562966 C395.602131,76.7778889 397.69803,74.6870164 400.276437,74.6870164 Z M292.8076,74.6870164 C295.386007,74.6870164 297.47688,76.7778889 297.47688,79.3562966 C297.47688,81.9347043 295.386007,84.030603 292.8076,84.030603 C290.229192,84.030603 288.133293,81.9347043 288.133293,79.3562966 C288.133293,76.7778889 290.229192,74.6870164 292.8076,74.6870164 Z M59.9567752,74.6870164 C62.535183,74.6870164 64.6310816,76.7778889 64.6310816,79.3562966 C64.6310816,81.9347043 62.535183,84.030603 59.9567752,84.030603 C57.3783675,84.030603 55.287495,81.9347043 55.287495,79.3562966 C55.287495,76.7778889 57.3783675,74.6870164 59.9567752,74.6870164 Z M256.986329,74.6870164 C259.564737,74.6870164 261.655609,76.7778889 261.655609,79.3562966 C261.655609,81.9347043 259.564737,84.030603 256.986329,84.030603 C254.402895,84.030603 252.312023,81.9347043 252.312023,79.3562966 C252.312023,79.1289128 252.328283,78.9053205 252.359709,78.6866195 C252.623985,77.9993956 252.898159,77.3175797 253.181132,76.640713 C254.030083,75.458197 255.41737,74.6870164 256.986329,74.6870164 Z M131.604343,74.6870164 C134.18275,74.6870164 136.273623,76.7778889 136.273623,79.3562966 C136.273623,81.9347043 134.18275,84.030603 131.604343,84.030603 C129.025935,84.030603 126.935062,81.9347043 126.935062,79.3562966 C126.935062,76.7778889 129.025935,74.6870164 131.604343,74.6870164 Z M274.894451,74.6870164 C277.472859,74.6870164 279.568758,76.7778889 279.568758,79.3562966 C279.568758,81.9347043 277.472859,84.030603 274.894451,84.030603 C272.316043,84.030603 270.225171,81.9347043 270.225171,79.3562966 C270.225171,76.7778889 272.316043,74.6870164 274.894451,74.6870164 Z M436.092682,74.6870164 C438.676116,74.6870164 440.772014,76.7778889 440.772014,79.3562966 C440.772014,81.9347043 438.676116,84.030603 436.092682,84.030603 C434.716099,84.030603 433.479914,83.4331936 432.626591,82.4838977 C432.950826,81.1661972 432.937537,79.7991623 432.582854,78.5626516 C432.426984,78.0192378 432.267118,77.4777887 432.103295,76.9383326 C432.918624,75.5887136 434.399443,74.6870164 436.092682,74.6870164 Z M454.010856,74.6870164 C456.584238,74.6870164 458.680137,76.7778889 458.680137,79.3562966 C458.680137,81.9347043 456.584238,84.030603 454.010856,84.030603 C451.422396,84.030603 449.33655,81.9347043 449.33655,79.3562966 C449.33655,76.7778889 451.422396,74.6870164 454.010856,74.6870164 Z M507.735223,74.6870164 C510.313631,74.6870164 512.40953,76.7778889 512.40953,79.3562966 C512.40953,81.9347043 510.313631,84.030603 507.735223,84.030603 C505.156815,84.030603 503.070969,81.9347043 503.070969,79.3562966 C503.070969,76.7778889 505.156815,74.6870164 507.735223,74.6870164 Z M525.648372,74.6870164 C528.226779,74.6870164 530.317652,76.7778889 530.317652,79.3562966 C530.317652,81.9347043 528.226779,84.030603 525.648372,84.030603 C523.069964,84.030603 520.984117,81.9347043 520.984117,79.3562966 C520.984117,76.7778889 523.069964,74.6870164 525.648372,74.6870164 Z M543.56152,74.6870164 C546.139928,74.6870164 548.2308,76.7778889 548.2308,79.3562966 C548.2308,81.9347043 546.139928,84.030603 543.56152,84.030603 C540.983112,84.030603 538.887214,81.9347043 538.887214,79.3562966 C538.887214,76.7778889 540.983112,74.6870164 543.56152,74.6870164 Z M149.512465,74.6870164 C152.095899,74.6870164 154.186771,76.7778889 154.186771,79.3562966 C154.186771,81.9347043 152.095899,84.030603 149.512465,84.030603 C146.939083,84.030603 144.843185,81.9347043 144.843185,79.3562966 C144.843185,76.7778889 146.939083,74.6870164 149.512465,74.6870164 Z M561.469642,74.6870164 C564.053076,74.6870164 566.143949,76.7778889 566.143949,79.3562966 C566.143949,81.9347043 564.053076,84.030603 561.469642,84.030603 C558.891234,84.030603 556.805388,81.9347043 556.805388,79.3562966 C556.805388,76.7778889 558.891234,74.6870164 561.469642,74.6870164 Z M185.338762,74.6870164 C187.917169,74.6870164 190.008042,76.7778889 190.008042,79.3562966 C190.008042,81.9347043 187.917169,84.030603 185.338762,84.030603 C182.760354,84.030603 180.669481,81.9347043 180.669481,79.3562966 C180.669481,76.7778889 182.760354,74.6870164 185.338762,74.6870164 Z M615.204061,74.6870164 C617.782469,74.6870164 619.873341,76.7778889 619.873341,79.3562966 C619.873341,81.9347043 617.782469,84.030603 615.204061,84.030603 C612.620627,84.030603 610.529755,81.9347043 610.529755,79.3562966 C610.529755,76.7778889 612.620627,74.6870164 615.204061,74.6870164 Z M113.691194,74.6870164 C116.269602,74.6870164 118.365501,76.7778889 118.365501,79.3562966 C118.365501,81.9347043 116.269602,84.030603 113.691194,84.030603 C111.112786,84.030603 109.02694,81.9347043 109.02694,79.3562966 C109.02694,76.7778889 111.112786,74.6870164 113.691194,74.6870164 Z M382.368315,74.6870164 C384.941697,74.6870164 387.032569,76.7778889 387.032569,79.3562966 C387.032569,81.9347043 384.941697,84.030603 382.368315,84.030603 C379.779855,84.030603 377.699035,81.9347043 377.699035,79.3562966 C377.699035,76.7778889 379.779855,74.6870164 382.368315,74.6870164 Z M633.117209,74.6870164 C635.695617,74.6870164 637.78649,76.7778889 637.78649,79.3562966 C637.78649,81.9347043 635.695617,84.030603 633.117209,84.030603 C630.533776,84.030603 628.442903,81.9347043 628.442903,79.3562966 C628.442903,76.7778889 630.533776,74.6870164 633.117209,74.6870164 Z M167.425613,74.6870164 C170.009047,74.6870164 172.094893,76.7778889 172.094893,79.3562966 C172.094893,81.9347043 170.009047,84.030603 167.425613,84.030603 C164.847205,84.030603 162.756333,81.9347043 162.756333,79.3562966 C162.756333,76.7778889 164.847205,74.6870164 167.425613,74.6870164 Z M203.25191,74.6870164 C205.830318,74.6870164 207.92119,76.7778889 207.92119,79.3562966 C207.92119,81.9347043 205.830318,84.030603 203.25191,84.030603 C200.673502,84.030603 198.58263,81.9347043 198.58263,79.3562966 C198.58263,76.7778889 200.673502,74.6870164 203.25191,74.6870164 Z M310.720748,61.1415801 C312.871934,61.1415801 314.616003,62.8806231 314.616003,65.0368354 C314.616003,67.1880216 312.871934,68.9270646 310.720748,68.9270646 C308.569562,68.9270646 306.820466,67.1880216 306.820466,65.0368354 C306.820466,62.8806231 308.569562,61.1415801 310.720748,61.1415801 Z M328.62887,61.1415801 C330.780056,61.1415801 332.524125,62.8806231 332.524125,65.0368354 C332.524125,67.1880216 330.780056,68.9270646 328.62887,68.9270646 C326.477684,68.9270646 324.733615,67.1880216 324.733615,65.0368354 C324.733615,62.8806231 326.477684,61.1415801 328.62887,61.1415801 Z M346.542018,61.1415801 C348.693205,61.1415801 350.437274,62.8806231 350.437274,65.0368354 C350.437274,67.1880216 348.693205,68.9270646 346.542018,68.9270646 C344.390832,68.9270646 342.646763,67.1880216 342.646763,65.0368354 C342.646763,62.8806231 344.390832,61.1415801 346.542018,61.1415801 Z M364.450141,61.1415801 C366.606353,61.1415801 368.345396,62.8806231 368.345396,65.0368354 C368.345396,67.1880216 366.606353,68.9270646 364.450141,68.9270646 C362.298955,68.9270646 360.559912,67.1880216 360.559912,65.0368354 C360.559912,62.8806231 362.298955,61.1415801 364.450141,61.1415801 Z M382.368315,61.1415801 C384.514475,61.1415801 386.258544,62.8806231 386.258544,65.0368354 C386.258544,67.1880216 384.514475,68.9270646 382.368315,68.9270646 C380.212103,68.9270646 378.468034,67.1880216 378.468034,65.0368354 C378.468034,62.8806231 380.212103,61.1415801 382.368315,61.1415801 Z M59.9567752,61.1415801 C62.1079614,61.1415801 63.8520306,62.8806231 63.8520306,65.0368354 C63.8520306,67.1880216 62.1079614,68.9270646 59.9567752,68.9270646 C57.8055891,68.9270646 56.0615199,67.1880216 56.0615199,65.0368354 C56.0615199,62.8806231 57.8055891,61.1415801 59.9567752,61.1415801 Z M95.783072,61.1415801 C97.9342581,61.1415801 99.6783273,62.8806231 99.6783273,65.0368354 C99.6783273,67.1880216 97.9342581,68.9270646 95.783072,68.9270646 C93.6318858,68.9270646 91.8827905,67.1880216 91.8827905,65.0368354 C91.8827905,62.8806231 93.6318858,61.1415801 95.783072,61.1415801 Z M113.691194,61.1415801 C115.84238,61.1415801 117.58645,62.8806231 117.58645,65.0368354 C117.58645,67.1880216 115.84238,68.9270646 113.691194,68.9270646 C111.540008,68.9270646 109.795939,67.1880216 109.795939,65.0368354 C109.795939,62.8806231 111.540008,61.1415801 113.691194,61.1415801 Z M131.604343,61.1415801 C133.755529,61.1415801 135.499598,62.8806231 135.499598,65.0368354 C135.499598,67.1880216 133.755529,68.9270646 131.604343,68.9270646 C129.453156,68.9270646 127.709087,67.1880216 127.709087,65.0368354 C127.709087,62.8806231 129.453156,61.1415801 131.604343,61.1415801 Z M436.092682,61.1415801 C438.248894,61.1415801 439.987937,62.8806231 439.987937,65.0368354 C439.987937,67.1880216 438.248894,68.9270646 436.092682,68.9270646 C433.946522,68.9270646 432.202453,67.1880216 432.202453,65.0368354 C432.202453,62.8806231 433.946522,61.1415801 436.092682,61.1415801 Z M507.735223,61.1415801 C509.886409,61.1415801 511.635505,62.8806231 511.635505,65.0368354 C511.635505,67.1880216 509.886409,68.9270646 507.735223,68.9270646 C505.589063,68.9270646 503.844994,67.1880216 503.844994,65.0368354 C503.844994,62.8806231 505.589063,61.1415801 507.735223,61.1415801 Z M525.648372,61.1415801 C527.799558,61.1415801 529.543627,62.8806231 529.543627,65.0368354 C529.543627,67.1880216 527.799558,68.9270646 525.648372,68.9270646 C523.492159,68.9270646 521.753116,67.1880216 521.753116,65.0368354 C521.753116,62.8806231 523.492159,61.1415801 525.648372,61.1415801 Z M561.469642,61.1415801 C563.620828,61.1415801 565.364897,62.8806231 565.364897,65.0368354 C565.364897,67.1880216 563.620828,68.9270646 561.469642,68.9270646 C559.323482,68.9270646 557.579413,67.1880216 557.579413,65.0368354 C557.579413,62.8806231 559.323482,61.1415801 561.469642,61.1415801 Z M597.290913,61.1415801 C599.442099,61.1415801 601.191194,62.8806231 601.191194,65.0368354 C601.191194,67.1880216 599.442099,68.9270646 597.290913,68.9270646 C595.139727,68.9270646 593.395657,67.1880216 593.395657,65.0368354 C593.395657,62.8806231 595.139727,61.1415801 597.290913,61.1415801 Z M615.204061,61.1415801 C617.360273,61.1415801 619.09429,62.8806231 619.09429,65.0368354 C619.09429,67.1880216 617.360273,68.9270646 615.204061,68.9270646 C613.052875,68.9270646 611.308806,67.1880216 611.308806,65.0368354 C611.308806,62.8806231 613.052875,61.1415801 615.204061,61.1415801 Z M400.348242,68.9239496 L400.276437,68.9270646 L400.276437,68.9270646 C398.125251,68.9270646 396.381182,67.1880216 396.381182,65.0368354 C396.381182,64.3555782 396.555284,63.7159648 396.86132,63.159687 C398.100209,65.025896 399.263567,66.9487919 400.348242,68.9239496 Z M149.512465,61.1415801 C151.668677,61.1415801 153.412746,62.8806231 153.412746,65.0368354 C153.412746,67.1880216 151.668677,68.9270646 149.512465,68.9270646 C147.366305,68.9270646 145.622236,67.1880216 145.622236,65.0368354 C145.622236,62.8806231 147.366305,61.1415801 149.512465,61.1415801 Z M167.425613,61.1415801 C169.581825,61.1415801 171.320869,62.8806231 171.320869,65.0368354 C171.320869,67.1880216 169.581825,68.9270646 167.425613,68.9270646 C165.274427,68.9270646 163.530358,67.1880216 163.530358,65.0368354 C163.530358,62.8806231 165.274427,61.1415801 167.425613,61.1415801 Z M260.881584,65.0368354 C260.881584,67.1880216 259.132489,68.9270646 256.986329,68.9270646 L256.900479,68.9239496 C257.987265,66.9449251 259.153045,65.0183673 260.39295,63.1479174 C260.704642,63.7074281 260.881584,64.3510309 260.881584,65.0368354 Z M292.8076,61.1415801 C294.963812,61.1415801 296.702855,62.8806231 296.702855,65.0368354 C296.702855,67.1880216 294.963812,68.9270646 292.8076,68.9270646 C290.656413,68.9270646 288.912344,67.1880216 288.912344,65.0368354 C288.912344,62.8806231 290.656413,61.1415801 292.8076,61.1415801 Z M185.338762,61.1415801 C187.489948,61.1415801 189.234017,62.8806231 189.234017,65.0368354 C189.234017,67.1880216 187.489948,68.9270646 185.338762,68.9270646 C183.187575,68.9270646 181.43848,67.1880216 181.43848,65.0368354 C181.43848,62.8806231 183.187575,61.1415801 185.338762,61.1415801 Z M310.720748,47.5911177 C312.439686,47.5911177 313.841978,48.9883835 313.841978,50.7123481 C313.841978,52.4312866 312.439686,53.8335785 310.720748,53.8335785 C308.996783,53.8335785 307.599517,52.4312866 307.599517,50.7123481 C307.599517,48.9883835 308.996783,47.5911177 310.720748,47.5911177 Z M328.62887,47.5911177 C330.352835,47.5911177 331.750101,48.9883835 331.750101,50.7123481 C331.750101,52.4312866 330.352835,53.8335785 328.62887,53.8335785 C326.909932,53.8335785 325.50764,52.4312866 325.50764,50.7123481 C325.50764,48.9883835 326.909932,47.5911177 328.62887,47.5911177 Z M346.542018,47.5911177 C348.265983,47.5911177 349.663249,48.9883835 349.663249,50.7123481 C349.663249,52.4312866 348.265983,53.8335785 346.542018,53.8335785 C344.82308,53.8335785 343.420788,52.4312866 343.420788,50.7123481 C343.420788,48.9883835 344.82308,47.5911177 346.542018,47.5911177 Z M364.450141,47.5911177 C366.174105,47.5911177 367.571371,48.9883835 367.571371,50.7123481 C367.571371,52.4312866 366.174105,53.8335785 364.450141,53.8335785 C362.726176,53.8335785 361.333936,52.4312866 361.333936,50.7123481 C361.333936,48.9883835 362.726176,47.5911177 364.450141,47.5911177 Z M382.368315,47.5911177 C382.926486,47.5911177 383.451606,47.7393135 383.906002,47.9987266 C384.261526,48.3258834 384.61483,48.655664 384.965269,48.9885692 C385.293108,49.4830768 385.48452,50.0754153 385.48452,50.7123481 C385.48452,52.4312866 384.082228,53.8335785 382.368315,53.8335785 C380.644351,53.8335785 379.242059,52.4312866 379.242059,50.7123481 C379.242059,48.9883835 380.644351,47.5911177 382.368315,47.5911177 Z M149.512465,47.5911177 C151.236429,47.5911177 152.638721,48.9883835 152.638721,50.7123481 C152.638721,52.4312866 151.236429,53.8335785 149.512465,53.8335785 C147.793526,53.8335785 146.396261,52.4312866 146.396261,50.7123481 C146.396261,48.9883835 147.793526,47.5911177 149.512465,47.5911177 Z M525.648372,47.5911177 C527.377362,47.5911177 528.769602,48.9883835 528.769602,50.7123481 C528.769602,52.4312866 527.377362,53.8335785 525.648372,53.8335785 C523.929433,53.8335785 522.532167,52.4312866 522.532167,50.7123481 C522.532167,48.9883835 523.929433,47.5911177 525.648372,47.5911177 Z M597.290913,47.5911177 C599.014877,47.5911177 600.412143,48.9883835 600.412143,50.7123481 C600.412143,52.4312866 599.014877,53.8335785 597.290913,53.8335785 C595.571974,53.8335785 594.169682,52.4312866 594.169682,50.7123481 C594.169682,48.9883835 595.571974,47.5911177 597.290913,47.5911177 Z M615.204061,47.5911177 C616.923,47.5911177 618.325292,48.9883835 618.325292,50.7123481 C618.325292,52.4312866 616.923,53.8335785 615.204061,53.8335785 C613.485123,53.8335785 612.082831,52.4312866 612.082831,50.7123481 C612.082831,48.9883835 613.485123,47.5911177 615.204061,47.5911177 Z M167.425613,47.5911177 C169.149578,47.5911177 170.55187,48.9883835 170.55187,50.7123481 C170.55187,52.4312866 169.149578,53.8335785 167.425613,53.8335785 C165.701649,53.8335785 164.304383,52.4312866 164.304383,50.7123481 C164.304383,48.9883835 165.701649,47.5911177 167.425613,47.5911177 Z M95.783072,47.5911177 C97.5070366,47.5911177 98.9043024,48.9883835 98.9043024,50.7123481 C98.9043024,52.4312866 97.5070366,53.8335785 95.783072,53.8335785 C94.0591074,53.8335785 92.6618416,52.4312866 92.6618416,50.7123481 C92.6618416,48.9883835 94.0591074,47.5911177 95.783072,47.5911177 Z M113.691194,47.5911177 C115.415159,47.5911177 116.812425,48.9883835 116.812425,50.7123481 C116.812425,52.4312866 115.415159,53.8335785 113.691194,53.8335785 C111.96723,53.8335785 110.569964,52.4312866 110.569964,50.7123481 C110.569964,48.9883835 111.96723,47.5911177 113.691194,47.5911177 Z M131.604343,47.5911177 C133.328307,47.5911177 134.725573,48.9883835 134.725573,50.7123481 C134.725573,52.4312866 133.328307,53.8335785 131.604343,53.8335785 C129.885404,53.8335785 128.483112,52.4312866 128.483112,50.7123481 C128.483112,48.9883835 129.885404,47.5911177 131.604343,47.5911177 Z M418.18456,47.5911177 C419.908524,47.5911177 421.30579,48.9883835 421.30579,50.7123481 C421.30579,51.2048373 421.191093,51.671334 420.986877,52.0863056 C420.061358,50.5600374 419.098481,49.0621923 418.101284,47.5916138 L418.18456,47.5911177 L418.18456,47.5911177 Z M239.073181,47.5911177 L239.147573,47.5916138 C238.15233,49.0592951 237.191269,50.5541358 236.265703,52.0751507 C236.064985,51.66455 235.95195,51.201257 235.95195,50.7123481 C235.95195,48.9883835 237.349216,47.5911177 239.073181,47.5911177 Z M525.648372,34.0456814 C526.940088,34.0456814 527.995577,35.0961438 527.995577,36.3928869 C527.995577,37.6846038 526.940088,38.7350662 525.648372,38.7350662 C524.361681,38.7350662 523.311218,37.6846038 523.311218,36.3928869 C523.311218,35.0961438 524.361681,34.0456814 525.648372,34.0456814 Z M131.604343,34.0456814 C132.89606,34.0456814 133.951548,35.0961438 133.951548,36.3928869 C133.951548,37.6846038 132.89606,38.7350662 131.604343,38.7350662 C130.3076,38.7350662 129.257137,37.6846038 129.257137,36.3928869 C129.257137,35.0961438 130.3076,34.0456814 131.604343,34.0456814 Z M149.512465,34.0456814 C150.809208,34.0456814 151.85967,35.0961438 151.85967,36.3928869 C151.85967,37.6846038 150.809208,38.7350662 149.512465,38.7350662 C148.220748,38.7350662 147.170285,37.6846038 147.170285,36.3928869 C147.170285,35.0961438 148.220748,34.0456814 149.512465,34.0456814 Z M328.62887,34.0456814 C329.925613,34.0456814 330.981102,35.0961438 330.981102,36.3928869 C330.981102,37.6846038 329.925613,38.7350662 328.62887,38.7350662 C327.337153,38.7350662 326.286691,37.6846038 326.286691,36.3928869 C326.286691,35.0961438 327.337153,34.0456814 328.62887,34.0456814 Z M366.739364,35.8718394 L366.749676,35.9197233 C366.780933,36.0725493 366.797346,36.230794 366.797346,36.3928869 C366.797346,37.6846038 365.746884,38.7350662 364.450141,38.7350662 C363.158424,38.7350662 362.107961,37.6846038 362.107961,36.3928869 C362.107961,35.4340331 362.682312,34.6098358 363.503858,34.2454193 C364.595438,34.7642234 365.673889,35.3065179 366.739364,35.8718394 Z M346.542018,34.0456814 C347.838762,34.0456814 348.884198,35.0961438 348.884198,36.3928869 C348.884198,37.6846038 347.838762,38.7350662 346.542018,38.7350662 C345.245275,38.7350662 344.189787,37.6846038 344.189787,36.3928869 C344.189787,35.0961438 345.245275,34.0456814 346.542018,34.0456814 Z M113.691194,34.0456814 C114.987937,34.0456814 116.0384,35.0961438 116.0384,36.3928869 C116.0384,37.6846038 114.987937,38.7350662 113.691194,38.7350662 C112.394451,38.7350662 111.349015,37.6846038 111.349015,36.3928869 C111.349015,35.0961438 112.394451,34.0456814 113.691194,34.0456814 Z M615.204061,34.0456814 C616.495778,34.0456814 617.551267,35.0961438 617.551267,36.3928869 C617.551267,37.6846038 616.495778,38.7350662 615.204061,38.7350662 C613.912344,38.7350662 612.856856,37.6846038 612.856856,36.3928869 C612.856856,35.0961438 613.912344,34.0456814 615.204061,34.0456814 Z M131.604343,20.5002451 C132.468838,20.5002451 133.177523,21.2039042 133.177523,22.0683996 C133.177523,22.9379211 132.468838,23.6415801 131.604343,23.6415801 C130.734821,23.6415801 130.036188,22.9379211 130.036188,22.0683996 C130.036188,21.2039042 130.734821,20.5002451 131.604343,20.5002451 Z M256.986329,20.5002451 C257.850824,20.5002451 258.559509,21.2039042 258.559509,22.0683996 C258.559509,22.9379211 257.850824,23.6415801 256.986329,23.6415801 C256.116807,23.6415801 255.413148,22.9379211 255.413148,22.0683996 C255.413148,21.2039042 256.116807,20.5002451 256.986329,20.5002451 Z M525.648372,20.5002451 C526.512867,20.5002451 527.216526,21.2039042 527.216526,22.0683996 C527.216526,22.9379211 526.512867,23.6415801 525.648372,23.6415801 C524.783876,23.6415801 524.080217,22.9379211 524.080217,22.0683996 C524.080217,21.2039042 524.783876,20.5002451 525.648372,20.5002451 Z M615.204061,20.5002451 C616.068556,20.5002451 616.772216,21.2039042 616.772216,22.0683996 C616.772216,22.9379211 616.068556,23.6415801 615.204061,23.6415801 C614.33454,23.6415801 613.635907,22.9379211 613.635907,22.0683996 C613.635907,21.2039042 614.33454,20.5002451 615.204061,20.5002451 Z" id="Combined-Shape" fill="url(#linearGradient-1)" opacity="0.131036668"></path>
                <path d="M235.197745,201.032053 C235.437073,201.689125 235.926961,202.222645 236.560273,202.517701 L249.15048,208.389012 C252.000816,214.510884 259.122336,217.55346 265.584623,215.20122 L275.486063,211.597476 C282.312527,209.113044 285.842398,201.542245 283.357966,194.715781 L261.735072,135.308008 C259.25064,128.481545 251.680272,124.951241 244.853377,127.436105 L239.020081,129.559385 C237.347809,122.573513 236.426785,115.360842 236.426785,107.996538 C236.426785,101.917434 237.062257,95.9424427 238.209217,90.108283 L240.882865,90.7152429 C244.926385,91.6103469 248.991072,89.161339 250.184688,85.1070193 C260.299536,50.5025252 292.558702,26.3420625 328.62422,26.3420625 C364.69017,26.3420625 396.948904,50.5025252 407.064184,85.1070193 C408.257799,89.161339 412.322055,91.6103469 416.366007,90.7152429 L419.048295,90.106555 C420.193527,95.9407147 420.821223,101.917866 420.821223,107.996538 C420.821223,115.362138 419.894151,122.573945 418.220583,129.560681 L412.394199,127.439993 C405.567304,124.955129 397.997368,128.485433 395.512504,135.311896 L373.889609,194.719669 C371.405178,201.546565 374.935049,209.1165 381.761513,211.600932 L391.662952,215.205108 C398.12524,217.556916 405.24676,214.514772 408.097096,208.3929 L420.687303,202.521589 C421.320615,202.226533 421.810503,201.693013 422.049831,201.035509 L436.465238,161.430183 C436.704134,160.772679 436.671734,160.049079 436.37711,159.416199 L430.505798,146.82556 C432.17375,140.6134 429.071558,134.059097 423.187719,131.417417 C425.056551,123.838841 426.089462,116.002794 426.089462,107.996538 C426.089462,101.519994 425.404743,95.1557707 424.173111,88.943179 L426.656246,88.3794191 C431.623814,87.1918511 433.650758,82.2856274 432.582854,78.5626516 C419.255655,32.0997582 376.719209,0 328.62422,0 C280.529663,0 237.993649,32.0997582 224.665586,78.5626516 C223.598114,82.2856274 225.625058,87.1918511 230.593057,88.3794191 L233.066257,88.941019 C231.836353,95.1540427 231.158113,101.519994 231.158113,107.996538 C231.158113,116.003658 232.140049,123.855689 234.008449,131.435129 C228.158306,134.091065 225.078146,140.627224 226.741778,146.821672 L220.870898,159.412311 C220.575842,160.045623 220.543442,160.768791 220.78277,161.426295 L235.197745,201.032053 Z" id="Path" fill="url(#linearGradient-2)" opacity="0.18577503" style="mix-blend-mode: overlay;"></path>
                <circle id="Oval" fill="#000000" opacity="0.102784656" style="mix-blend-mode: overlay;" cx="328.623844" cy="107.630518" r="64.35"></circle>
            </g>
        </g>
    </g>
</svg>