<?xml version="1.0" encoding="utf-8"?>
<!-- Generator: Adobe Illustrator 26.3.1, SVG Export Plug-In . SVG Version: 6.00 Build 0)  -->
<svg version="1.1" id="Layer_1" xmlns="http://www.w3.org/2000/svg" xmlns:xlink="http://www.w3.org/1999/xlink" x="0px" y="0px"
	 viewBox="0 0 160 150" style="enable-background:new 0 0 160 150;" xml:space="preserve">
<style type="text/css">
	.st0{fill:#FFC53B;}
	.st1{opacity:0.25;fill:#FFC53B;enable-background:new    ;}
	.st2{opacity:0.15;fill:#FFC53B;}
	.st3{opacity:0.1;fill:#FFC53B;}
	.st4{opacity:0.25;fill:#FFC53B;}
	.st5{opacity:0.2;fill:#FFC53B;}
</style>
<g>
	<g>
		<path class="st0" d="M122.8,26.3h-8.6c-5.2,17.7-12.7,43-12.7,43c0,0,0,0.1,0,0.1C100,75.4,94,81.9,86,85.8
			c-9.1,4.6-18.7,4-23.8-1.1c-2.5-2-4.2-4.6-4.8-7.6c-1.7-8.5,6.3-17.1,18.1-20.1c0.8-0.2,1.6-0.4,2.4-0.5c1.3-0.2,2.6-0.4,3.9-0.4
			c4.8-0.3,9.4,0.4,13.2,1.9c0.2,0.1,0.3,0.2,0.5,0.3l8.8-31.9H42.1c-3.9,0-7.1,3-7.1,6.7V91c0,3.7,3.2,6.7,7.1,6.7h80.8
			c3.9,0,7.1-3,7.1-6.7V33C129.9,29.3,126.7,26.3,122.8,26.3z M81.6,34.4c3.2,0,5.7,2.4,5.7,5.4c0,3-2.6,5.4-5.7,5.4
			c-3.2,0-5.7-2.4-5.7-5.4C75.9,36.8,78.5,34.4,81.6,34.4z M65.2,34.4c3.2,0,5.7,2.4,5.7,5.4c0,3-2.6,5.4-5.7,5.4
			c-3.2,0-5.7-2.4-5.7-5.4C59.5,36.8,62.1,34.4,65.2,34.4z M48.9,45.3c-3.2,0-5.7-2.4-5.7-5.4c0-3,2.6-5.4,5.7-5.4
			c3.2,0,5.7,2.4,5.7,5.4C54.6,42.8,52,45.3,48.9,45.3z"/>
	</g>
	<g>
		<polygon class="st1" points="146.5,54.7 146.5,54.7 136.9,37.8 136.9,58.9 147.8,78.2 127.6,113.1 115.2,113.1 115.2,113.1 
			90.3,113.1 87.3,113.1 81.6,103.2 69.4,103.2 81.2,123.7 87.5,123.7 133.7,123.7 133.7,123.7 136.5,118.9 147.6,99.7 160,78.2 		
			"/>
	</g>
</g>
<path class="st2" d="M28.7,9.7H9.4c-0.9,0-1.7,0.7-1.7,1.6v16.2c0,0.9,0.8,1.6,1.7,1.6h19.3c0.9,0,1.7-0.7,1.7-1.6V11.3
	C30.4,10.4,29.7,9.7,28.7,9.7z M18.9,11.6c0.8,0,1.4,0.6,1.4,1.3c0,0.7-0.6,1.3-1.4,1.3c-0.8,0-1.4-0.6-1.4-1.3
	C17.5,12.2,18.1,11.6,18.9,11.6z M15,11.6c0.8,0,1.4,0.6,1.4,1.3c0,0.7-0.6,1.3-1.4,1.3c-0.8,0-1.4-0.6-1.4-1.3
	C13.6,12.2,14.2,11.6,15,11.6z M11.1,11.6c0.8,0,1.4,0.6,1.4,1.3c0,0.7-0.6,1.3-1.4,1.3s-1.4-0.6-1.4-1.3
	C9.7,12.2,10.3,11.6,11.1,11.6z"/>
<path class="st3" d="M48.4,101H20.8c-1.3,0-2.4,1-2.4,2.3v23.2c0,1.3,1.1,2.3,2.4,2.3h27.6c1.3,0,2.4-1,2.4-2.3v-23.2
	C50.8,102.1,49.7,101,48.4,101z M34.3,103.8c1.1,0,2,0.8,2,1.9c0,1-0.9,1.9-2,1.9c-1.1,0-2-0.8-2-1.9
	C32.3,104.6,33.2,103.8,34.3,103.8z M28.7,103.8c1.1,0,2,0.8,2,1.9c0,1-0.9,1.9-2,1.9c-1.1,0-2-0.8-2-1.9
	C26.7,104.6,27.6,103.8,28.7,103.8z M23.1,103.8c1.1,0,2,0.8,2,1.9c0,1-0.9,1.9-2,1.9s-2-0.8-2-1.9C21.1,104.6,22,103.8,23.1,103.8z
	"/>
<path class="st4" d="M156.5,2.6h-13.8c-0.7,0-1.2,0.5-1.2,1.2v11.6c0,0.6,0.5,1.2,1.2,1.2h13.8c0.7,0,1.2-0.5,1.2-1.2V3.7
	C157.7,3.1,157.1,2.6,156.5,2.6z M149.4,4c0.5,0,1,0.4,1,0.9c0,0.5-0.4,0.9-1,0.9c-0.5,0-1-0.4-1-0.9C148.4,4.4,148.9,4,149.4,4z
	 M146.6,4c0.5,0,1,0.4,1,0.9c0,0.5-0.4,0.9-1,0.9c-0.5,0-1-0.4-1-0.9C145.6,4.4,146.1,4,146.6,4z M143.8,4c0.5,0,1,0.4,1,0.9
	c0,0.5-0.4,0.9-1,0.9c-0.5,0-1-0.4-1-0.9C142.8,4.4,143.3,4,143.8,4z"/>
<path class="st3" d="M29.1,65.9c0.2,0.2,0.4,0.4,0.4,0.7v1.8c0,0.4-0.3,0.7-0.6,0.8l-2,0.6v7.8c0,1.2-1.4,2.2-3.1,2.2
	s-3.1-1-3.1-2.2s1.4-2.2,3.1-2.2c0.4,0,0.9,0.1,1.3,0.2v-8.2c0-0.4,0.2-0.7,0.6-0.8l2.6-0.8C28.5,65.7,28.8,65.8,29.1,65.9z"/>
<path class="st5" d="M20.9,61.6c0,1.3-1.2,2.3-2.7,2.3s-2.7-1-2.7-2.3c0-1.3,1.2-2.3,2.7-2.3c0.3,0,0.6,0.1,0.9,0.1v-4.2l-7.4,2.2
	l0,6c0,1.3-1.2,2.3-2.8,2.3s-2.7-1-2.7-2.3c0-1.3,1.2-2.3,2.7-2.3c0.3,0,0.6,0.1,0.9,0.1v-6.7c0-0.4,0.3-0.8,0.6-0.9l9.2-2.7
	c0.1,0,0.2,0,0.3,0c0.5,0,0.9,0.4,0.9,0.9L20.9,61.6z"/>
<path class="st2" d="M97.6,14.8c0,0.9-0.9,1.6-1.9,1.6s-1.9-0.7-1.9-1.6c0-0.9,0.9-1.6,1.9-1.6c0.2,0,0.4,0,0.7,0.1v-3l-5.2,1.6
	l0,4.3c0,0.9-0.9,1.6-2,1.6s-1.9-0.7-1.9-1.6c0-0.9,0.9-1.6,1.9-1.6c0.2,0,0.4,0,0.7,0.1V9.9c0-0.3,0.2-0.5,0.5-0.6l6.5-1.9
	c0.1,0,0.2,0,0.2,0c0.4,0,0.7,0.3,0.7,0.7L97.6,14.8z"/>
</svg>
