<?xml version="1.0" encoding="utf-8"?>
<!-- Generator: Adobe Illustrator 26.3.1, SVG Export Plug-In . SVG Version: 6.00 Build 0)  -->
<svg version="1.1" id="Layer_1" xmlns="http://www.w3.org/2000/svg" xmlns:xlink="http://www.w3.org/1999/xlink" x="0px" y="0px"
	 viewBox="0 0 160 150" style="enable-background:new 0 0 160 150;" xml:space="preserve">
<style type="text/css">
	.st0{fill:#99E266;}
	.st1{opacity:0.5;fill:#99E266;enable-background:new    ;}
	.st2{opacity:0.2;fill:#99E266;}
	.st3{opacity:0.25;fill:#99E266;}
	.st4{opacity:0.1;fill:#99E266;}
	.st5{opacity:0.15;fill:#99E266;}
</style>
<g>
	<g>
		<g>
			<path class="st0" d="M128.1,28.1c0-1.9-1.5-3.4-3.4-3.5l-19.3,0.5c-2.1-0.1-4,1.2-4.8,3.1l-3.7,7.5l-46.2,1
				c-2.6,0.1-4.9,1.9-5.6,4.4l68.2-0.8c1.9,0,3.5,1.4,3.7,3.2l7.6,58.9c2.7-3.6,4.2-7.9,4.1-12.4L128.1,28.1z"/>
			<path class="st0" d="M108.9,47.2l-7.5,0.1C98,61.3,93.3,80,93.3,80c0,0,0,0,0,0.1C92.4,84.9,88,90.2,82,93.5
				c-6.7,3.9-14,3.6-18-0.3c-1.9-1.6-3.3-3.6-3.8-5.9c-1.5-6.7,4.3-13.8,13.2-16.4c0.6-0.2,1.2-0.3,1.8-0.5c1-0.2,1.9-0.4,2.9-0.5
				c3.6-0.4,7.1,0.1,10,1.2c0.1,0.1,0.3,0.1,0.4,0.2l5.5-24L37.2,48c-1.4,0-2.4,1.2-2.2,2.6l7.4,48.3c0.4,2.6,2.6,4.5,5.3,4.6
				l69.7,0.4c0.5,0,1-0.5,0.9-1l-6.3-52.9C111.7,48.3,110.4,47.2,108.9,47.2z"/>
		</g>
		<g>
			<polygon class="st1" points="135.8,41 135.8,60.7 144.5,75.9 144.5,75.9 148.6,83 129.9,115.6 118.3,115.6 93.7,115.6 
				92.3,115.6 88.5,109 77.1,109 86.6,125.4 91.1,125.4 135.5,125.4 138.1,121 148.4,103.1 160,83 			"/>
		</g>
	</g>
</g>
<path class="st2" d="M26.2,44.3c0-0.7-0.6-1.2-1.2-1.2h-4.9l-1.6-1.6h-4.1c-0.7,0-1.2,0.5-1.2,1.2v1.6v0.4v6.9
	c0,0.7,0.5,1.2,1.2,1.2H25c0.7,0,1.2-0.5,1.2-1.2v-6.9L26.2,44.3L26.2,44.3L26.2,44.3z"/>
<path class="st3" d="M101,15c0-0.9-0.8-1.6-1.7-1.6h-6.7l-2.2-2.2h-5.6c-0.9,0-1.7,0.7-1.7,1.7V15v0.6v9.5c0,0.9,0.7,1.7,1.7,1.7
	h14.5c0.9,0,1.7-0.7,1.7-1.7v-9.5L101,15L101,15L101,15z"/>
<text transform="matrix(1 0 0 1 133 -262.4993)" style="font-family:'FontAwesome6Pro-Solid'; font-size:36px;">ç</text>
<text transform="matrix(1 0 0 1 499 -277.1102)" style="font-family:'FontAwesome6Pro-Regular'; font-size:12px;"></text>
<path class="st4" d="M121.2,15.5c0-0.2,0-0.3,0-0.5c0-5.5,4.5-10,10-10c3.7,0,7,2,8.7,5c1-0.7,2.1-1,3.3-1c3.3,0,6,2.6,6,6
	c0,0.8-0.1,1.5-0.4,2.2c3.7,0.7,6.4,4,6.4,7.9c0,4.4-3.6,8-8,8h-23.1c-5,0-9-4-9-9C115.2,20.1,117.7,16.8,121.2,15.5z"/>
<path class="st5" d="M11.1,94.1c0-0.1,0-0.2,0-0.3c0-2.9,2.4-5.3,5.3-5.3c2,0,3.7,1.1,4.6,2.6c0.5-0.4,1.1-0.5,1.8-0.5
	c1.7,0,3.2,1.4,3.2,3.2c0,0.4-0.1,0.8-0.2,1.1c1.9,0.4,3.4,2.1,3.4,4.1c0,2.3-1.9,4.2-4.2,4.2H12.7c-2.6,0-4.7-2.1-4.7-4.7
	C8,96.6,9.3,94.8,11.1,94.1z"/>
<path class="st5" d="M59.9,129.5c0-0.1,0-0.3,0-0.4c0-4.2,3.4-7.7,7.7-7.7c2.8,0,5.3,1.5,6.7,3.9c0.7-0.5,1.6-0.8,2.6-0.8
	c2.5,0,4.6,2,4.6,4.6c0,0.6-0.1,1.1-0.3,1.7c2.8,0.6,4.9,3,4.9,6c0,3.4-2.8,6.1-6.1,6.1H62.2c-3.8,0-6.9-3.1-6.9-6.9
	C55.3,133,57.2,130.4,59.9,129.5z"/>
<path class="st2" d="M44.7,22C44.6,22,44.6,22.1,44.7,22c0-0.2,0-0.4,0-0.7c0-1.9-1.5-3.4-3.4-3.4c-1.1,0-2,0.5-2.6,1.2
	c-0.8-1.5-2.4-2.6-4.3-2.6c-2.7,0-4.8,2.2-4.8,4.8c0,0.3,0,0.6,0.1,0.9c-1.7,0.5-2.9,2.1-2.9,3.9c0,2.3,1.9,4.1,4.1,4.1h13.8
	c2.3,0,4.1-1.9,4.1-4.1S46.9,22,44.7,22z M34.3,15.1c1.8,0,3.4,0.7,4.5,2c0.4-0.2,0.9-0.4,1.4-0.5c0.2-0.5,0.3-1,0.3-1.5
	c0-2.3-1.9-4.1-4.1-4.1c-0.6,0-1.2,0.1-1.7,0.4c-0.7-1.8-2.4-3.1-4.5-3.1c-2.4,0-4.4,1.8-4.8,4.2c0,0,0,0-0.1,0
	c-2.3,0-4.1,1.9-4.1,4.1s1.9,4.1,4.1,4.1h2.8C28.5,17.6,31.1,15.1,34.3,15.1z"/>
</svg>
