<?xml version="1.0" encoding="utf-8"?>
<!-- Generator: Adobe Illustrator 26.3.1, SVG Export Plug-In . SVG Version: 6.00 Build 0)  -->
<svg version="1.1" id="Layer_1" xmlns="http://www.w3.org/2000/svg" xmlns:xlink="http://www.w3.org/1999/xlink" x="0px" y="0px"
	 viewBox="0 0 160 150" style="enable-background:new 0 0 160 150;" xml:space="preserve">
<style type="text/css">
	.st0{opacity:0.3;fill:#3D77FF;enable-background:new    ;}
	.st1{fill:#3D77FF;}
	.st2{opacity:0.15;fill:#3D77FF;enable-background:new    ;}
	.st3{opacity:0.1;fill:#3D77FF;enable-background:new    ;}
	.st4{opacity:0.2;fill:#3D77FF;enable-background:new    ;}
</style>
<g>
	<polygon class="st0" points="148,63.2 146.5,60.7 142,52.8 142,73.9 144.2,77.7 144.2,77.7 147.9,84 127.7,118.9 115.4,118.9 
		115.4,118.9 90.5,118.9 87.7,118.9 87.5,118.9 83.4,111.8 71.3,111.8 81.4,129.4 85,129.4 87.7,129.4 133.8,129.4 133.8,129.4 
		136.5,124.7 147.6,105.5 160,84 	"/>
	<path class="st1" d="M127.3,38.7c-2.9-3.5-6.4-6.6-10.4-9.2c-0.8,3-1.7,6.1-2.6,9.2c-1,3.6-2,7.2-3,10.5
		c-2.9,10.4-5.2,18.6-5.2,18.6v0.1c-1.4,6.2-7.3,12.9-15.1,16.9c-8.9,4.8-18.3,4.1-23.3-1.1l0,0c-2.4-2.1-4.1-4.7-4.6-7.8
		c-0.4-1.9-0.2-3.8,0.2-5.6c0.7-2.7,2.2-5.4,4.4-7.7c3.2-3.3,7.7-6,13-7.4c0.8-0.2,1.6-0.4,2.4-0.5c0.5-0.1,1-0.2,1.5-0.2
		c0.8-0.1,1.5-0.2,2.3-0.2c4.7-0.3,9.2,0.4,12.9,2c0.2,0.1,0.3,0.2,0.5,0.3l1.9-7.2l2.8-10.5l3.6-13.6c-6.8-2.8-14.5-4.4-22.6-4.4
		c-28.2-0.3-51,18.8-51,42.5c0,10,4.1,19.3,11,26.6l-2.2,17.3c-0.3,2.3,2,4,4.1,3.1l18.2-7.6h0.1c4.3,1.5,9,2.6,13.8,3
		c1.9,0.2,3.9,0.3,5.8,0.3c27.6,0,50-18.5,50.8-41.5c0-0.4,0-0.8,0-1.3C136.7,54.2,133.2,45.7,127.3,38.7z"/>
</g>
<path class="st2" d="M151.2,10.5c-0.7-0.9-1.6-1.6-2.6-2.2c-0.9-0.6-2.1-1.1-2.1-1.1C144.9,6.4,143,6,141,6
	c-6.9,0-12.5,4.7-12.5,10.5c0,2.5,1,4.7,2.7,6.5l-0.5,4.3c-0.1,0.6,0.5,1,1,0.8l4.5-1.9l0,0c1.1,0.4,2.2,0.6,3.4,0.7
	c0.5,0,0.9,0.1,1.4,0.1c6.8,0,12.3-4.5,12.5-10.2c0-0.1,0-0.2,0-0.3C153.5,14.3,152.7,12.2,151.2,10.5z"/>
<path class="st3" d="M64.9,120.2c-0.4-0.5-1-1-1.6-1.4c-0.5-0.3-1.3-0.7-1.3-0.7c-1-0.4-2.2-0.7-3.4-0.7c-4.2,0-7.6,2.8-7.6,6.4
	c0,1.5,0.6,2.9,1.6,4l-0.3,2.6c0,0.3,0.3,0.6,0.6,0.5l2.7-1.1l0,0c0.6,0.2,1.3,0.4,2.1,0.5c0.3,0,0.6,0,0.9,0c4.1,0,7.4-2.8,7.6-6.2
	c0-0.1,0-0.1,0-0.2C66.2,122.5,65.7,121.3,64.9,120.2z"/>
<path class="st3" d="M32.4,21.5c-0.6-0.7-1.3-1.3-2.1-1.9c-0.7-0.5-1.7-0.9-1.7-0.9c-1.4-0.6-3-0.9-4.6-0.9
	c-5.7,0-10.4,3.9-10.4,8.7c0,2.1,0.8,3.9,2.3,5.4l-0.5,3.5c-0.1,0.5,0.4,0.8,0.8,0.6l3.7-1.6l0,0c0.9,0.3,1.8,0.5,2.8,0.6
	c0.4,0,0.8,0.1,1.2,0.1c5.6,0,10.2-3.8,10.4-8.5c0-0.1,0-0.2,0-0.3C34.3,24.6,33.6,22.9,32.4,21.5z"/>
<path class="st4" d="M34.6,104.7c0,1.8-1.8,3.3-3.9,3.3s-3.9-1.5-3.9-3.3s1.8-3.3,3.9-3.3c0.5,0,0.9,0.1,1.3,0.2v-6l-10.6,3.2v8.6
	c0,1.8-1.8,3.3-4,3.3s-3.9-1.5-3.9-3.3s1.8-3.3,3.9-3.3c0.5,0,0.9,0.1,1.3,0.2v-9.6c0-0.5,0.4-1.1,0.9-1.3l13.2-3.9
	c0.1,0,0.4-0.1,0.5-0.1c0.7,0,1.3,0.6,1.3,1.3L34.6,104.7z"/>
</svg>
