<?xml version="1.0" encoding="utf-8"?>
<!-- Generator: Adobe Illustrator 26.3.1, SVG Export Plug-In . SVG Version: 6.00 Build 0)  -->
<svg version="1.1" id="Layer_1" xmlns="http://www.w3.org/2000/svg" xmlns:xlink="http://www.w3.org/1999/xlink" x="0px" y="0px"
	 viewBox="0 0 160 150" style="enable-background:new 0 0 160 150;" xml:space="preserve">
<style type="text/css">
	.st0{fill:#B65FDE;}
	.st1{opacity:0.3;fill:#B65FDE;enable-background:new    ;}
	.st2{opacity:0.2;fill:#B65FDE;}
	.st3{opacity:0.1;fill:#B65FDE;}
	.st4{opacity:0.15;fill:#B65FDE;}
	.st5{opacity:0.25;fill:#B65FDE;}
</style>
<g>
	<path class="st0" d="M137.3,58.6c1.7-1.6,2.4-4.1,1.6-6.4c-0.7-2.3-2.7-3.9-5.1-4.1l-19.2-2.8c-3.3,12-8.1,29-8.1,29
		c0,0,0,0.1,0,0.1C105,80.4,99.3,87,91.5,91c-8.7,4.7-18,4-22.9-1.1c-2.4-2.1-4-4.7-4.6-7.7c-1.6-8.6,6-17.4,17.4-20.4
		c0.8-0.2,1.5-0.4,2.3-0.5c1.2-0.2,2.5-0.4,3.7-0.5c4.6-0.3,9,0.4,12.6,2c0.2,0.1,0.3,0.2,0.5,0.3l5-20c-0.7-0.5-1.2-1.2-1.6-1.9
		l0,0L92.7,18.2l0,0c-1-2.2-3.2-3.5-5.6-3.5s-4.6,1.4-5.6,3.5L70.3,41c-0.9,1.8-2.7,3-4.6,3.3l-25.3,3.7C38,48.3,36,50,35.3,52.2
		c-0.7,2.3-0.1,4.7,1.6,6.4l18.2,17.9c1.5,1.4,2.2,3.4,1.8,5.4l-4.3,25.1c-0.4,2.3,0.6,4.6,2.4,6c1.9,1.4,4.4,1.6,6.5,0.5l0,0
		l22.6-11.9c1.8-0.8,3.9-0.8,5.7,0l22.6,11.9c2.1,1.1,4.6,0.9,6.5-0.5c1.9-1.4,2.8-3.7,2.4-6l-4.3-25.1c-0.4-2,0.3-4,1.8-5.4
		L137.3,58.6z"/>
	<polygon class="st1" points="144,64.4 136.9,72.4 147.9,90 127.8,124.9 115.4,124.9 87.6,124.9 80.2,112 70.9,117.1 81.5,135.4 
		133.8,135.4 136.6,130.7 147.6,111.5 160,90 	"/>
</g>
<path class="st2" d="M21.2,111.2l4.5-4.4l-1.1-6.2c-0.1-0.5,0.1-1,0.5-1.3c0.4-0.3,1-0.3,1.4-0.1l5.6,2.9l5.6-2.9
	c1-0.5,2.2,0.3,2,1.4l-1,6.2l4.5,4.4c0.8,0.8,0.4,2.2-0.8,2.3l-6.2,0.9l-2.8,5.6c-0.5,1-1.9,1-2.4,0l-2.8-5.6l-6.2-0.9
	C20.9,113.4,20.5,112,21.2,111.2z M29.9,124.1c0.6,0.6,0.6,1.5,0,2l-2.8,2.8c-0.6,0.6-1.5,0.6-2,0c-0.6-0.6-0.6-1.5,0-2l2.8-2.8
	c0.3-0.3,0.6-0.4,1-0.4C29.3,123.7,29.7,123.8,29.9,124.1z M25.2,119.5l-9.5,9.5c-0.6,0.6-1.5,0.6-2,0s-0.6-1.5,0-2l9.5-9.5
	c0.3-0.3,0.6-0.4,1-0.4s0.7,0.1,1,0.5C25.7,118,25.7,118.9,25.2,119.5z M13.7,117.6c-0.6-0.6-0.6-1.5,0-2l2.8-2.8
	c0.3-0.3,0.6-0.4,1-0.4c0.4,0,0.7,0.1,1,0.4c0.6,0.6,0.6,1.5,0,2l-2.8,2.8C15.1,118.1,14.2,118.1,13.7,117.6z"/>
<path class="st3" d="M16.8,36.2l2-1.9l-0.5-2.7c0-0.2,0.1-0.4,0.2-0.6c0.2-0.1,0.4-0.2,0.6,0l2.4,1.3l2.4-1.3c0.4-0.2,1,0.1,0.9,0.6
	l-0.4,2.7l2,1.9c0.4,0.3,0.2,1-0.3,1l-2.7,0.4l-1.2,2.5c-0.2,0.4-0.9,0.4-1.1,0l-1.2-2.5l-2.7-0.4C16.6,37.2,16.4,36.6,16.8,36.2z
	 M20.6,41.9c0.2,0.2,0.2,0.6,0,0.9L19.3,44c-0.2,0.2-0.6,0.2-0.9,0c-0.2-0.2-0.2-0.6,0-0.9l1.3-1.3c0.1-0.1,0.3-0.2,0.4-0.2
	C20.3,41.7,20.5,41.8,20.6,41.9z M18.5,39.9L14.3,44c-0.2,0.2-0.6,0.2-0.9,0c-0.2-0.2-0.2-0.6,0-0.9l4.2-4.2
	c0.1-0.1,0.3-0.2,0.4-0.2c0.2,0,0.3,0.1,0.4,0.2C18.7,39.2,18.7,39.6,18.5,39.9z M13.4,39c-0.2-0.2-0.2-0.6,0-0.9l1.3-1.3
	c0.1-0.1,0.3-0.2,0.4-0.2c0.2,0,0.3,0.1,0.4,0.2c0.2,0.2,0.2,0.6,0,0.9L14.3,39C14.1,39.3,13.7,39.3,13.4,39z"/>
<path class="st4" d="M51.4,14.9l-4.8,4.7l1.2,6.6c0.1,0.5-0.2,1.1-0.6,1.4c-0.5,0.3-1,0.4-1.5,0.1l-5.9-3.1l-5.9,3.1
	c-1.1,0.6-2.3-0.3-2.1-1.5l1.1-6.6l-4.8-4.7c-0.9-0.8-0.4-2.4,0.8-2.5l6.6-1l3-6c0.5-1.1,2.1-1.1,2.6,0l3,6l6.6,1
	C51.8,12.6,52.3,14.1,51.4,14.9z"/>
<path class="st3" d="M130.9,23c0-0.3,0.1-0.5,0.4-0.6l5.1-2.1l2.1-5.1c0.1-0.2,0.4-0.4,0.6-0.4s0.5,0.1,0.6,0.4l2.1,5.1l5.1,2.1
	c0.2,0.1,0.4,0.4,0.4,0.6c0,0.3-0.1,0.5-0.4,0.6l-5.1,2.1l-2.1,5.1c-0.1,0.2-0.4,0.4-0.6,0.4s-0.5-0.1-0.6-0.4l-2.1-5.1l-5.1-2.1
	C131.1,23.5,130.9,23.2,130.9,23z"/>
<path class="st4" d="M139.2,41.3c0-0.1,0.1-0.2,0.2-0.2l2.1-0.9l0.9-2.1c0-0.1,0.1-0.2,0.2-0.2c0.1,0,0.2,0.1,0.2,0.2l0.9,2.1
	l2.1,0.9c0.1,0,0.2,0.1,0.2,0.2c0,0.1-0.1,0.2-0.2,0.2l-2.1,0.9l-0.9,2.1c0,0.1-0.1,0.2-0.2,0.2c-0.1,0-0.2-0.1-0.2-0.2l-0.9-2.1
	l-2.1-0.9C139.3,41.5,139.2,41.4,139.2,41.3z"/>
<path class="st5" d="M59,135.4c0,0.2-0.1,0.4-0.3,0.5l-3.7,1.6l-1.6,3.7c-0.1,0.2-0.3,0.3-0.4,0.3s-0.4-0.1-0.4-0.3l-1.6-3.7
	l-3.7-1.6c-0.2-0.1-0.3-0.3-0.3-0.4s0.1-0.4,0.3-0.4l3.7-1.6l1.6-3.7c0.1-0.2,0.3-0.3,0.4-0.3s0.4,0.1,0.4,0.3l1.6,3.7l3.7,1.6
	C58.9,135,59,135.2,59,135.4z"/>
<path class="st5" d="M117.9,5.5c0.3,0.2,0.5,0.6,0.5,1v2.4c0,0.5-0.4,1-0.9,1.2l-2.7,0.8v10.6c0,1.7-1.9,3-4.2,3s-4.2-1.3-4.2-3
	c0-1.7,1.9-3,4.2-3c0.6,0,1.2,0.1,1.8,0.3V7.6c0-0.5,0.3-1,0.8-1.1l3.6-1.1C117.2,5.3,117.6,5.3,117.9,5.5z"/>
<path class="st5" d="M39,82.3c0,1.5-1.5,2.7-3.2,2.7s-3.2-1.2-3.2-2.7c0-1.5,1.5-2.7,3.2-2.7c0.4,0,0.7,0.1,1.1,0.2v-5l-8.7,2.6
	l0,7.1c0,1.5-1.5,2.7-3.3,2.7s-3.2-1.2-3.2-2.7c0-1.5,1.5-2.7,3.2-2.7c0.4,0,0.7,0.1,1.1,0.2V74c0-0.4,0.3-0.9,0.8-1l10.9-3.2
	c0.1,0,0.3-0.1,0.4-0.1c0.6,0,1.1,0.5,1.1,1.1L39,82.3z"/>
</svg>
