<?xml version="1.0" encoding="utf-8"?>
<!-- Generator: Adobe Illustrator 26.3.1, SVG Export Plug-In . SVG Version: 6.00 Build 0)  -->
<svg version="1.1" id="Layer_1" xmlns="http://www.w3.org/2000/svg" xmlns:xlink="http://www.w3.org/1999/xlink" x="0px" y="0px"
	 viewBox="0 0 160 150" style="enable-background:new 0 0 160 150;" xml:space="preserve">
<style type="text/css">
	.st0{opacity:0.3;fill:#FF1241;enable-background:new    ;}
	.st1{opacity:0.2;fill:#FF1241;enable-background:new    ;}
	.st2{fill:url(#b_00000062163630159011825510000014110386018522047909_);}
	.st3{opacity:0.25;fill:#FF8098;enable-background:new    ;}
</style>
<path class="st0" d="M43.17,29.95c0,3.14-3.05,5.68-6.75,5.68s-6.75-2.54-6.75-5.63c0-3.14,3.05-5.63,6.75-5.63
	c0.79,0,1.55,0.14,2.27,0.35V14.38l-18.18,5.4v14.78c-0.07,3.14-3.05,5.68-6.88,5.68s-6.75-2.54-6.75-5.68
	c0-3.14,3.05-5.63,6.75-5.63c0.79,0,1.55,0.14,2.27,0.35V12.84c0-0.92,0.72-1.89,1.59-2.17l22.68-6.72
	c0.25-0.05,0.62-0.11,0.81-0.11c1.25,0,2.27,1.02,2.27,2.27L43.17,29.95z"/>
<path class="st0" d="M149.64,108.26c0,1.24-1.21,2.25-2.68,2.25s-2.68-1.01-2.68-2.23c0-1.24,1.21-2.23,2.68-2.23
	c0.32,0,0.62,0.05,0.9,0.14v-4.1l-7.21,2.14v5.86c-0.03,1.24-1.21,2.25-2.73,2.25s-2.68-1.01-2.68-2.25s1.21-2.23,2.68-2.23
	c0.32,0,0.62,0.05,0.9,0.14v-6.51c0-0.36,0.28-0.75,0.63-0.86l8.98-2.66c0.1-0.02,0.24-0.04,0.32-0.04c0.5,0,0.9,0.4,0.9,0.9
	L149.64,108.26z"/>
<path class="st1" d="M142.38,21.65c0,1.96-1.91,3.54-4.21,3.54s-4.21-1.59-4.21-3.51c0-1.96,1.91-3.51,4.21-3.51
	c0.5,0,0.97,0.08,1.42,0.21v-6.46l-11.34,3.37v9.22c-0.05,1.96-1.91,3.54-4.29,3.54c-2.4,0-4.21-1.59-4.21-3.54s1.91-3.51,4.21-3.51
	c0.5,0,0.97,0.08,1.42,0.21V10.97c0-0.57,0.45-1.18,0.99-1.36l14.14-4.19c0.15-0.03,0.39-0.06,0.5-0.06c0.78,0,1.42,0.63,1.42,1.42
	L142.38,21.65z"/>
<linearGradient id="b_00000070834423341697471250000007231902915394352825_" gradientUnits="userSpaceOnUse" x1="39.0802" y1="68.9694" x2="125.8195" y2="68.9694">
	<stop  offset="0" style="stop-color:#DB0F38"/>
	<stop  offset="0.4581" style="stop-color:#FF1241"/>
	<stop  offset="1" style="stop-color:#FF388E"/>
</linearGradient>
<path id="b_00000140692558736763848250000018261298206411086767_" style="fill:url(#b_00000070834423341697471250000007231902915394352825_);" d="
	M90.61,72.4c-0.25,0-0.5-0.08-0.75-0.17c-0.75-0.33-1.34-0.92-1.34-1.59V52.39c0-0.59,0.42-1,1-1.17c0.33-0.08,0.67-0.08,1-0.08
	c0.33,0,0.75,0.17,1.09,0.33l13.21,7.87c0.5,0.25,0.84,0.75,1,1.17c0.08,0.42-0.08,0.92-0.5,1.17L92.11,72.07
	C91.7,72.4,91.11,72.48,90.61,72.4z M64.01,28.95l36.63-3.27c12.71-1.09,25.17,8.71,25.17,23.11v44.96
	c0,6.87-8.36,13.06-18.65,13.98c-10.29,0.92-18.65-3.94-18.65-10.72V84.62l9.28-0.84c10.29-0.92,18.65-9.8,18.65-22.35v-6.2
	c0-10.72-8.36-17.5-18.65-16.58L73.3,40.84v57.35c0,6.87-8.36,13.06-18.65,13.98c-8.34,1.18-15.37-3.94-15.56-10.72
	c-0.21-7.66,5.27-13.06,15.56-13.98c5.19-0.42,9.28-3.6,9.28-7.03V41.76v-4.1L64.01,28.95z"/>
<path class="st3" d="M84.75,109.76l-4.51,7.82l-7.99,13.84H60.62H34.46l-18.9-32.74l18.9-32.71H46.1h8.56v-9.91H28.75l-2.56,4.45
	L15.77,78.54L4.13,98.68l15.1,26.16H19.2l9.51,16.49h0.03h4.48h44.72l2.56-4.42l10.41-18.04l2.21-3.83
	C89.84,113.78,86.99,111.98,84.75,109.76z"/>
</svg>
