<?xml version="1.0" encoding="utf-8"?>
<!-- Generator: Adobe Illustrator 26.3.1, SVG Export Plug-In . SVG Version: 6.00 Build 0)  -->
<svg version="1.1" id="Layer_1" xmlns="http://www.w3.org/2000/svg" xmlns:xlink="http://www.w3.org/1999/xlink" x="0px" y="0px"
	 viewBox="0 0 18 18" style="enable-background:new 0 0 18 18;" xml:space="preserve">
<style type="text/css">
	.st0{fill:#B65FDE;}
	.st1{fill:#F961EA;}
	.st2{fill:#FFFFFF;}
</style>
<path id="b_00000140692558736763848250000018261298206411086767_" class="st2" d="M10.57,9.62c-0.05,0-0.09-0.01-0.14-0.03
	c-0.14-0.06-0.24-0.16-0.24-0.28l0.19-3.24c0.01-0.1,0.09-0.18,0.2-0.21c0.06-0.01,0.13-0.01,0.19-0.01c0.06,0,0.14,0.03,0.2,0.06
	l2.42,1.4c0.09,0.04,0.15,0.13,0.18,0.21c0.01,0.07-0.03,0.16-0.11,0.21l-2.61,1.84C10.78,9.62,10.67,9.64,10.57,9.62z M5.99,1.92
	l6.98-0.58c2.42-0.19,4.68,1.54,4.53,4.1l-0.47,7.98c-0.07,1.22-1.72,2.32-3.68,2.48c-1.96,0.16-3.49-0.7-3.42-1.9l0.13-2.2
	l1.77-0.15c1.96-0.16,3.64-1.74,3.77-3.97l0.07-1.1c0.11-1.9-1.4-3.1-3.36-2.94L7.62,4.02l-0.6,9.56c-0.07,1.22-1.42,3.1-3.68,3.1
	c-1.89,0.03-2.87-1.06-2.84-2.26c0.04-1.36,1.14-1.96,3.1-2.12c0.99-0.07,1.8-0.64,1.83-1.25l0.41-6.86l0.04-0.73L5.99,1.92z"/>
</svg>
