<?xml version="1.0" encoding="utf-8"?>
<!-- Generator: Adobe Illustrator 26.3.1, SVG Export Plug-In . SVG Version: 6.00 Build 0)  -->
<svg version="1.1" id="Layer_1" xmlns="http://www.w3.org/2000/svg" xmlns:xlink="http://www.w3.org/1999/xlink" x="0px" y="0px"
	 viewBox="0 0 18 18" style="enable-background:new 0 0 18 18;" xml:space="preserve">
<style type="text/css">
	.st0{fill:#B65FDE;}
	.st1{fill:#F961EA;}
	.st2{fill:#FFFFFF;}
</style>
<g>
	<g>
		<path class="st2" d="M17.89,1.5L7.69,5.44C7.32,5.58,6.75,5.82,6.66,6.21L5.3,11.88c-0.02-0.01-0.05-0.03-0.07-0.04
			c-0.52-0.23-1.15-0.34-1.82-0.29c-0.17,0.01-0.35,0.03-0.53,0.07c-0.11,0.02-0.22,0.05-0.33,0.08c-1.64,0.45-2.74,1.75-2.51,3.02
			c0.08,0.45,0.32,0.84,0.67,1.14c0.71,0.77,2.04,0.86,3.3,0.17c1.12-0.58,1.94-1.56,2.15-2.47c0,0,0-0.01,0.01-0.01
			c0,0,1.42-5.16,1.6-5.95c0.08-0.37,0.33-0.67,0.66-0.82l7.96-3.93c0.12-0.05,0.2,0.12,0.09,0.19L8.69,7.33
			C8.18,7.62,8.04,7.88,7.9,8.46C7.83,8.75,7.97,9.05,8.24,9.17l0.24,0.15c1.28,0.58,2.27,0.58,3.15-0.03
			c0.07-0.05,0.06-0.16-0.02-0.18L8.55,8.08C8.47,8.05,8.46,7.93,8.54,7.89l0.08-0.05C8.68,7.81,8.74,7.81,8.8,7.83l2.44,0.79
			c0.27,0.09,0.55,0.13,0.83,0.1c1.84-0.17,3.14-1.21,3.86-2.5c0.04-0.06-0.02-0.14-0.09-0.13l-5.16,0.68
			c-0.05,0.01-0.07-0.06-0.03-0.09l0.27-0.14c0.16-0.08,0.32-0.14,0.5-0.17c2.44-0.42,6.03-1.04,6.56-4.07
			C18.03,1.91,17.97,1.47,17.89,1.5z"/>
	</g>
</g>
</svg>
