<?xml version="1.0" encoding="utf-8"?>
<!-- Generator: Adobe Illustrator 26.3.1, SVG Export Plug-In . SVG Version: 6.00 Build 0)  -->
<svg version="1.1" id="Layer_1" xmlns="http://www.w3.org/2000/svg" xmlns:xlink="http://www.w3.org/1999/xlink" x="0px" y="0px"
	 viewBox="0 0 18 18" style="enable-background:new 0 0 18 18;" xml:space="preserve">
<style type="text/css">
	.st0{fill:#B65FDE;}
	.st1{fill:#F961EA;}
	.st2{fill:#FFFFFF;}
</style>
<g>
	<path class="st2" d="M15.79,2.5h-1.45c-0.88,3.22-2.14,7.83-2.14,7.83v0.02c-0.25,1.09-1.26,2.28-2.61,2.99
		c-1.53,0.84-3.15,0.73-4.01-0.2c-0.42-0.36-0.71-0.84-0.81-1.38C4.49,10.2,5.83,8.64,7.82,8.09C7.96,8.05,8.09,8.02,8.23,8
		c0.22-0.04,0.44-0.07,0.66-0.07C9.69,7.87,10.47,8,11.11,8.27c0.03,0.02,0.05,0.04,0.08,0.05l1.48-5.81H2.2
		C1.54,2.52,1,3.06,1,3.74v10.54c0,0.67,0.54,1.22,1.2,1.22H15.8c0.66,0,1.2-0.55,1.2-1.22V3.72C16.98,3.05,16.44,2.5,15.79,2.5z
		 M8.85,3.97c0.54,0,0.96,0.44,0.96,0.98S9.37,5.94,8.85,5.94c-0.54,0-0.96-0.44-0.96-0.98C7.89,4.41,8.33,3.97,8.85,3.97z
		 M6.09,3.97c0.54,0,0.96,0.44,0.96,0.98S6.61,5.94,6.09,5.94c-0.54,0-0.96-0.44-0.96-0.98C5.13,4.41,5.56,3.97,6.09,3.97z
		 M3.34,5.96c-0.54,0-0.96-0.44-0.96-0.98s0.44-0.98,0.96-0.98c0.54,0,0.96,0.44,0.96,0.98C4.3,5.5,3.86,5.96,3.34,5.96z"/>
</g>
</svg>
