<?xml version="1.0" encoding="utf-8"?>
<!-- Generator: Adobe Illustrator 26.3.1, SVG Export Plug-In . SVG Version: 6.00 Build 0)  -->
<svg version="1.1" id="Layer_1" xmlns="http://www.w3.org/2000/svg" xmlns:xlink="http://www.w3.org/1999/xlink" x="0px" y="0px"
	 viewBox="0 0 18 18" style="enable-background:new 0 0 18 18;" xml:space="preserve">
<style type="text/css">
	.st0{fill:#FFFFFF;}
</style>
<path id="b_00000140692558736763848250000018261298206411086767_" class="st0" d="M-24.5,9.6c0,0-0.1,0-0.1,0
	c-0.1-0.1-0.2-0.2-0.2-0.3l0.2-3.2c0-0.1,0.1-0.2,0.2-0.2c0.1,0,0.1,0,0.2,0c0.1,0,0.1,0,0.2,0.1l2.4,1.4c0.1,0,0.1,0.1,0.2,0.2
	c0,0.1,0,0.2-0.1,0.2l-2.6,1.8C-24.2,9.6-24.4,9.6-24.5,9.6z M-29,1.9l7-0.6c2.4-0.2,4.7,1.5,4.5,4.1l-0.5,8
	c-0.1,1.2-1.7,2.3-3.7,2.5s-3.5-0.7-3.4-1.9l0.1-2.2l1.8-0.1c2-0.2,3.6-1.7,3.8-4l0.1-1.1c0.1-1.9-1.4-3.1-3.4-2.9L-27.4,4l-0.6,9.6
	c-0.1,1.2-1.4,3.1-3.7,3.1c-1.9,0-2.9-1.1-2.8-2.3c0-1.4,1.1-2,3.1-2.1c1-0.1,1.8-0.6,1.8-1.2l0.4-6.9l0-0.7L-29,1.9z"/>
<g>
	<g>
		<path class="st0" d="M17.9,1.5L7.7,5.4c-0.4,0.1-0.9,0.4-1,0.8l-1.4,5.7c0,0-0.1,0-0.1,0c-0.5-0.2-1.2-0.3-1.8-0.3
			c-0.2,0-0.3,0-0.5,0.1c-0.1,0-0.2,0.1-0.3,0.1c-1.6,0.4-2.7,1.8-2.5,3c0.1,0.4,0.3,0.8,0.7,1.1c0.7,0.8,2,0.9,3.3,0.2
			c1.1-0.6,1.9-1.6,2.2-2.5c0,0,0,0,0,0c0,0,1.4-5.2,1.6-5.9c0.1-0.4,0.3-0.7,0.7-0.8l8-3.9c0.1,0,0.2,0.1,0.1,0.2L8.7,7.3
			C8.2,7.6,8,7.9,7.9,8.5C7.8,8.8,8,9.1,8.2,9.2l0.2,0.1c1.3,0.6,2.3,0.6,3.1,0c0.1-0.1,0.1-0.2,0-0.2l-3.1-1c-0.1,0-0.1-0.2,0-0.2
			l0.1-0.1c0.1,0,0.1,0,0.2,0l2.4,0.8c0.3,0.1,0.6,0.1,0.8,0.1c1.8-0.2,3.1-1.2,3.9-2.5c0-0.1,0-0.1-0.1-0.1l-5.2,0.7
			c-0.1,0-0.1-0.1,0-0.1l0.3-0.1c0.2-0.1,0.3-0.1,0.5-0.2c2.4-0.4,6-1,6.6-4.1C18,1.9,18,1.5,17.9,1.5z"/>
	</g>
</g>
<g>
	<path class="st0" d="M-54.1,4.5c-0.5-0.6-1.1-1.1-1.7-1.5c-0.1,0.5-0.3,1-0.4,1.5c-0.2,0.6-0.3,1.2-0.5,1.8
		c-0.5,1.7-0.9,3.1-0.9,3.1v0c-0.2,1-1.2,2.2-2.5,2.8c-1.5,0.8-3.1,0.7-3.9-0.2l0,0c-0.4-0.4-0.7-0.8-0.8-1.3c-0.1-0.3,0-0.6,0-0.9
		c0.1-0.4,0.4-0.9,0.7-1.3c0.5-0.6,1.3-1,2.2-1.2c0.1,0,0.3-0.1,0.4-0.1c0.1,0,0.2,0,0.2,0c0.1,0,0.2,0,0.4,0
		c0.8-0.1,1.5,0.1,2.2,0.3c0,0,0,0,0.1,0.1l0.3-1.2l0.5-1.8l0.6-2.3c-1.1-0.5-2.4-0.7-3.8-0.7c-4.7,0-8.5,3.2-8.5,7.1
		c0,1.7,0.7,3.2,1.8,4.4l-0.4,2.9c-0.1,0.4,0.3,0.7,0.7,0.5l3.1-1.3h0c0.7,0.2,1.5,0.4,2.3,0.5c0.3,0,0.7,0.1,1,0.1
		c4.6,0,8.4-3.1,8.5-6.9c0-0.1,0-0.1,0-0.2C-52.5,7.1-53.1,5.6-54.1,4.5z"/>
</g>
<g>
	<path class="st0" d="M-90.2,2.5h-1.4c-0.9,3.2-2.1,7.8-2.1,7.8v0c-0.2,1.1-1.3,2.3-2.6,3c-1.5,0.8-3.2,0.7-4-0.2
		c-0.4-0.4-0.7-0.8-0.8-1.4c-0.3-1.6,1.1-3.1,3.1-3.7c0.1,0,0.3-0.1,0.4-0.1c0.2,0,0.4-0.1,0.7-0.1c0.8-0.1,1.6,0.1,2.2,0.3
		c0,0,0.1,0,0.1,0.1l1.5-5.8h-10.5c-0.7,0-1.2,0.5-1.2,1.2v10.5c0,0.7,0.5,1.2,1.2,1.2h13.6c0.7,0,1.2-0.6,1.2-1.2V3.7
		C-89,3-89.5,2.5-90.2,2.5z M-97.1,4c0.5,0,1,0.4,1,1s-0.4,1-1,1c-0.5,0-1-0.4-1-1S-97.6,4-97.1,4z M-99.9,4c0.5,0,1,0.4,1,1
		s-0.4,1-1,1c-0.5,0-1-0.4-1-1S-100.4,4-99.9,4z M-102.6,6c-0.5,0-1-0.4-1-1s0.4-1,1-1c0.5,0,1,0.4,1,1C-101.7,5.5-102.1,6-102.6,6z
		"/>
</g>
<g>
	<g>
		<g>
			<path class="st0" d="M-125.2,2.6c0-0.3-0.3-0.6-0.6-0.6l-3.3,0.1c-0.4,0-0.7,0.2-0.8,0.5l-0.6,1.3l-7.9,0.2c-0.5,0-0.8,0.3-1,0.8
				l11.6-0.1c0.3,0,0.6,0.2,0.6,0.6l1.3,10c0.5-0.6,0.7-1.4,0.7-2.1L-125.2,2.6z"/>
			<path class="st0" d="M-128.5,5.8l-1.3,0c-0.6,2.4-1.4,5.6-1.4,5.6c0,0,0,0,0,0c-0.2,0.8-0.9,1.7-1.9,2.3
				c-1.1,0.7-2.4,0.6-3.1-0.1c-0.3-0.3-0.6-0.6-0.7-1c-0.3-1.1,0.7-2.4,2.2-2.8c0.1,0,0.2-0.1,0.3-0.1c0.2,0,0.3-0.1,0.5-0.1
				c0.6-0.1,1.2,0,1.7,0.2c0,0,0,0,0.1,0l0.9-4.1l-9.7,0.1c-0.2,0-0.4,0.2-0.4,0.4l1.3,8.2c0.1,0.4,0.4,0.8,0.9,0.8l11.9,0.1
				c0.1,0,0.2-0.1,0.2-0.2l-1.1-9C-128,6-128.3,5.8-128.5,5.8z"/>
		</g>
	</g>
</g>
</svg>
