<?xml version="1.0" encoding="utf-8"?>
<!-- Generator: Adobe Illustrator 26.3.1, SVG Export Plug-In . SVG Version: 6.00 Build 0)  -->
<svg version="1.1" id="Layer_1" xmlns="http://www.w3.org/2000/svg" xmlns:xlink="http://www.w3.org/1999/xlink" x="0px" y="0px"
	 viewBox="0 0 130 130" style="enable-background:new 0 0 130 130;" xml:space="preserve">
<style type="text/css">
	.st0{fill:#FFC53B;}
	.st1{opacity:0.25;fill:#FFC53B;}
	.st2{opacity:0.3;fill:#3D77FF;}
	.st3{fill:#3D77FF;}
	.st4{fill:#FF1241;}
	.st5{opacity:0.25;fill:#FF8098;}
	.st6{fill:#99E266;}
	.st7{opacity:0.5;fill:#99E266;}
	.st8{fill:#B65FDE;}
	.st9{opacity:0.3;fill:#B65FDE;}
	.st10{opacity:0.25;}
	.st11{fill:#D6D6D6;}
</style>
<g>
	<path class="st11" d="M17,35.67C17,29.77,21.78,25,27.67,25H81c5.88,0,10.67,4.77,10.67,10.67v16.12
		c-0.88-0.08-1.77-0.12-2.67-0.12c-3.35,0-6.58,0.57-9.58,1.6c-3.7-10.27-13.53-17.6-25.08-17.6c-14.73,0-26.67,11.93-26.67,26.67
		S39.6,89,54.33,89c2.15,0,4.23-0.25,6.23-0.73c1.08,4.25,2.95,8.12,5.8,11.4h-38.7C21.78,99.67,17,94.88,17,89V35.67z M49,62.33
		c0-2.95,2.38-5.33,5.33-5.33c2.95,0,5.33,2.38,5.33,5.33c0,2.95-2.38,5.33-5.33,5.33C51.38,67.67,49,65.28,49,62.33z M113,81
		c0,13.25-10.75,24-24,24S65,94.25,65,81s10.75-24,24-24S113,67.75,113,81z M94.43,89H83.57c-3.5,0-6.48,2.28-7.52,5.45
		c3.37,3.23,7.92,5.22,12.95,5.22s9.58-1.98,12.95-5.22C100.92,91.28,97.93,89,94.43,89z M89,67.67c-4.42,0-8,3.58-8,8
		c0,4.42,3.58,8,8,8s8-3.58,8-8C97,71.25,93.42,67.67,89,67.67z"/>
</g>
</svg>
