<?xml version="1.0" encoding="utf-8"?>
<!-- Generator: Adobe Illustrator 26.3.1, SVG Export Plug-In . SVG Version: 6.00 Build 0)  -->
<svg version="1.1" id="Layer_1" xmlns="http://www.w3.org/2000/svg" xmlns:xlink="http://www.w3.org/1999/xlink" x="0px" y="0px"
	 viewBox="0 0 130 130" style="enable-background:new 0 0 130 130;" xml:space="preserve">
<style type="text/css">
	.st0{fill:#FFC53B;}
	.st1{opacity:0.25;fill:#FFC53B;}
	.st2{opacity:0.3;fill:#3D77FF;}
	.st3{fill:#3D77FF;}
	.st4{fill:#FF1241;}
	.st5{opacity:0.25;fill:#FF8098;}
	.st6{fill:#99E266;}
	.st7{opacity:0.5;fill:#99E266;}
	.st8{fill:#B65FDE;}
	.st9{opacity:0.3;fill:#B65FDE;}
	.st10{opacity:0.25;}
	.st11{fill:#D6D6D6;}
</style>
<g>
	<path class="st11" d="M65,91.75c0,4.42,2.09,8.34,5.49,11.25H20.42c-2.99,0-5.42-2.42-5.42-5.41C15,82.64,27.13,70.5,42.08,70.5
		h15.84c6.88,0,13.14,2.59,17.92,6.83C69.38,79.98,65,85.34,65,91.75z"/>
	<circle class="st11" cx="50" cy="43" r="20"/>
	<path class="st11" d="M115,53v9.8c0,2.25-1.69,4.44-4.02,4.91L100,69.91v21.84c0,6.21-6.72,11.25-15,11.25s-15-5.04-15-11.25
		c0-6.21,6.72-11.25,15-11.25c1.77,0,3.42,0.27,5,0.69V56c0-2.52,1.69-4.44,4.02-4.91l15-3C112.11,47.48,115,49.84,115,53z"/>
</g>
</svg>
