<?xml version="1.0" encoding="utf-8"?>
<!-- Generator: Adobe Illustrator 26.3.1, SVG Export Plug-In . SVG Version: 6.00 Build 0)  -->
<svg version="1.1" id="Layer_1" xmlns="http://www.w3.org/2000/svg" xmlns:xlink="http://www.w3.org/1999/xlink" x="0px" y="0px"
	 viewBox="0 0 130 130" style="enable-background:new 0 0 130 130;" xml:space="preserve">
<style type="text/css">
	.st0{fill:#FFC53B;}
	.st1{opacity:0.25;fill:#FFC53B;}
	.st2{opacity:0.3;fill:#3D77FF;}
	.st3{fill:#3D77FF;}
	.st4{fill:#FF1241;}
	.st5{opacity:0.25;fill:#FF8098;}
	.st6{fill:#99E266;}
	.st7{opacity:0.5;fill:#99E266;}
	.st8{fill:#B65FDE;}
	.st9{opacity:0.3;fill:#B65FDE;}
	.st10{opacity:0.25;}
	.st11{fill:#D6D6D6;}
</style>
<g>
	<path class="st11" d="M97,43c0,11.05-8.95,20-20,20l-35.14-0.14C30.94,62.86,22,54.05,22,43s8.95-20,20-20
		c7.59,0,14.11,4.28,17.5,10.51C62.91,27.28,69.41,23,77,23C88.06,23,97,31.95,97,43z M87,75.5v20c0,4.14-3.36,7.5-7.5,7.5h-40
		c-4.14,0-7.5-3.36-7.5-7.5L31.86,78h-5C24.24,78,22,75.48,22,72.86c0-2.62,2.24-4.86,4.86-4.86H79.5C83.64,68,87,71.36,87,75.5z
		 M52,43c0-5.53-4.47-10-10-10s-10,4.47-10,10s4.47,10,10,10C47.53,53,52,48.53,52,43z M87,43c0-5.53-4.47-10-10-10
		c-5.53,0-10,4.47-10,10s4.47,10,10,10C82.53,53,87,48.53,87,43z M112,68v29.98c0,4.12-4.7,6.48-8.01,4.01L92,93V73l12-8.98
		C107.3,61.53,112,63.89,112,68z"/>
</g>
</svg>
