<?xml version="1.0" encoding="utf-8"?>
<!-- Generator: Adobe Illustrator 26.3.1, SVG Export Plug-In . SVG Version: 6.00 Build 0)  -->
<svg version="1.1" id="Layer_1" xmlns="http://www.w3.org/2000/svg" xmlns:xlink="http://www.w3.org/1999/xlink" x="0px" y="0px"
	 viewBox="0 0 130 130" style="enable-background:new 0 0 130 130;" xml:space="preserve">
<style type="text/css">
	.st0{fill:#FFC53B;}
	.st1{opacity:0.25;fill:#FFC53B;}
	.st2{opacity:0.3;fill:#3D77FF;}
	.st3{fill:#3D77FF;}
	.st4{fill:#FF1241;}
	.st5{opacity:0.25;fill:#FF8098;}
	.st6{fill:#99E266;}
	.st7{opacity:0.5;fill:#99E266;}
	.st8{fill:#B65FDE;}
	.st9{opacity:0.3;fill:#B65FDE;}
	.st10{opacity:0.25;}
	.st11{fill:#D6D6D6;}
</style>
<g>
	<path class="st11" d="M109.8,61.36v8.55c0,1.96-1.47,3.87-3.51,4.29l-9.59,1.92v19.07c0,5.42-5.86,9.82-13.09,9.82
		s-13.09-4.4-13.09-9.82c0-5.42,5.86-9.82,13.09-9.82c1.54,0,2.99,0.23,4.36,0.6V63.97c0-2.2,1.47-3.87,3.5-4.28l13.09-2.62
		C107.28,56.54,109.8,58.6,109.8,61.36z"/>
	<g>
		<path class="st11" d="M87.98,78.46c0.2-0.73,0.32-1.5,0.32-2.29V62.31c-0.2,0.51-0.32,1.06-0.32,1.67V78.46z"/>
		<path class="st11" d="M83.3,80.69V63.97c0-3.54,1.97-6.61,5-8.1V33.53c0-4.71-3.7-8.53-8.53-8.53H28.61
			c-4.59,0-8.41,3.82-8.41,8.53v42.64c0,4.71,3.82,8.53,8.41,8.53h42.63C74.35,82.25,78.57,80.75,83.3,80.69z M35,33.53
			c3.53,0,6.4,2.86,6.4,6.4c0,3.53-2.75,6.4-6.4,6.4c-3.65,0-6.4-2.86-6.4-6.4C28.61,36.39,31.59,33.53,35,33.53z M29.23,75
			c-0.36-0.72-0.3-1.57,0.18-2.22l9.33-12.79c0.4-0.56,1.04-0.88,1.72-0.88c0.68,0,1.32,0.33,1.72,0.88l4.33,5.93l12.43-18.53
			c0.4-0.7,1.07-1.06,1.77-1.06c0.71,0,1.38,0.36,1.77,0.95l17.06,25.58c0.44,0.65,0.48,1.49,0.11,2.2
			c-0.37,0.69-1.09,1.12-1.88,1.12H31.13C30.32,76.17,29.59,75.72,29.23,75z"/>
	</g>
</g>
</svg>
