<?xml version="1.0" encoding="utf-8"?>
<!-- Generator: Adobe Illustrator 26.3.1, SVG Export Plug-In . SVG Version: 6.00 Build 0)  -->
<svg version="1.1" id="Layer_1" xmlns="http://www.w3.org/2000/svg" xmlns:xlink="http://www.w3.org/1999/xlink" x="0px" y="0px"
	 viewBox="0 0 130 130" style="enable-background:new 0 0 130 130;" xml:space="preserve">
<style type="text/css">
	.st0{fill:#FFC53B;}
	.st1{opacity:0.25;fill:#FFC53B;}
	.st2{opacity:0.3;fill:#3D77FF;}
	.st3{fill:#3D77FF;}
	.st4{fill:#FF1241;}
	.st5{opacity:0.25;fill:#FF8098;}
	.st6{fill:#99E266;}
	.st7{opacity:0.5;fill:#99E266;}
	.st8{fill:#B65FDE;}
	.st9{opacity:0.3;fill:#B65FDE;}
	.st10{opacity:0.25;}
	.st11{fill:#D6D6D6;}
</style>
<g>
	<path class="st11" d="M89.17,55.41c3.75,0.6,7.14,2.24,9.89,4.6l0.11-31.1c0-2.76-2.24-5-5-5c-0.42,0-1.23,0.1-1.78,0.23
		L42.52,38.91c-1.93,0.61-3.5,2.74-3.5,4.77v36.14c-1.57-0.47-3.24-0.77-5-0.77c-8.14,0-14.86,5.46-14.86,12.36
		c0,6.91,6.44,12.5,14.86,12.5c8.42,0,15-5.59,15.14-12.48V58.91l40-11.86V55.41z"/>
	<g>
		<path class="st11" d="M77.7,79.06l6.15,6.15c0.56,0.6,1.32,0.94,2.11,0.94c0.02,0,0.05,0,0.07,0c0.75-0.02,1.46-0.35,1.96-0.91
			c0.56-0.5,0.89-1.21,0.91-1.96c0.02-0.81-0.32-1.59-0.93-2.16l-6.13-6.13c-0.51-0.56-1.22-0.88-1.99-0.89
			c-0.77-0.02-1.58,0.29-2.16,0.86c-0.56,0.57-0.88,1.35-0.86,2.15C76.86,77.88,77.18,78.59,77.7,79.06z"/>
		<path class="st11" d="M85.97,62.36c-1.97,0-3.57,1.6-3.57,3.57v4.94c0,1.97,1.6,3.57,3.57,3.57c1.97,0,3.57-1.6,3.57-3.57v-0.91
			c5.96,1.59,10.16,6.97,10.16,13.26c0,7.57-6.16,13.73-13.73,13.73s-13.73-6.16-13.73-13.73c0-3.72,1.46-7.2,4.12-9.8
			c0.69-0.67,1.07-1.56,1.08-2.52c0.01-0.95-0.35-1.86-1.02-2.54c-1.38-1.4-3.64-1.43-5.05-0.05c-4.04,3.96-6.26,9.25-6.26,14.9
			c0,11.51,9.36,20.87,20.87,20.87s20.87-9.36,20.87-20.87S97.48,62.36,85.97,62.36z"/>
	</g>
</g>
</svg>
