<?xml version="1.0" encoding="utf-8"?>
<!-- Generator: Adobe Illustrator 26.3.1, SVG Export Plug-In . SVG Version: 6.00 Build 0)  -->
<svg version="1.1" id="Layer_1" xmlns="http://www.w3.org/2000/svg" xmlns:xlink="http://www.w3.org/1999/xlink" x="0px" y="0px"
	 viewBox="0 0 130 130" style="enable-background:new 0 0 130 130;" xml:space="preserve">
<style type="text/css">
	.st0{fill:#FFC53B;}
	.st1{opacity:0.25;fill:#FFC53B;}
	.st2{opacity:0.3;fill:#3D77FF;}
	.st3{fill:#3D77FF;}
	.st4{fill:#FF1241;}
	.st5{opacity:0.25;fill:#FF8098;}
	.st6{fill:#99E266;}
	.st7{opacity:0.5;fill:#99E266;}
	.st8{fill:#B65FDE;}
	.st9{opacity:0.3;fill:#B65FDE;}
	.st10{opacity:0.25;}
	.st11{fill:#D6D6D6;}
</style>
<g>
	<path class="st11" d="M99.86,82.36c0,6.9-6.72,12.5-14.86,12.5s-14.86-5.6-14.86-12.36c0-6.9,6.72-12.36,14.86-12.36
		c1.76,0,3.43,0.3,5,0.77V48.14L50,60v32.52C49.86,99.41,43.28,105,34.86,105S20,99.41,20,92.5c0-6.9,6.72-12.36,14.86-12.36
		c1.76,0,3.43,0.3,5,0.77V44.77c0-2.03,1.57-4.16,3.5-4.77l49.86-14.76C93.77,25.1,94.58,25,95,25c2.76,0,5,2.24,5,5L99.86,82.36z"
		/>
</g>
</svg>
