<?xml version="1.0" encoding="utf-8"?>
<!-- Generator: Adobe Illustrator 26.3.1, SVG Export Plug-In . SVG Version: 6.00 Build 0)  -->
<svg version="1.1" id="Layer_1" xmlns="http://www.w3.org/2000/svg" xmlns:xlink="http://www.w3.org/1999/xlink" x="0px" y="0px"
	 viewBox="0 0 272 190" style="enable-background:new 0 0 272 190;" xml:space="preserve">
<style type="text/css">
	.st0{opacity:0.23;}
	@keyframes rotate {
        0% {
          transform:  rotate(0) ;	
        }

        100% {
          
          transform: rotate(360deg);
        }

      }
	  .cog{
		transform-box: fill-box;
		transform-origin: center;
	}
	  @keyframes rotateReverse {
        0% {
          transform:  rotate(0) ;	
        }

        100% {
          transform:  rotate(-360deg);
        }

      }
	  #Cog1{
		animation: rotate 2s;
  
        animation-iteration-count: infinite;
	  }
	  #Cog2{
		animation: rotateReverse 2s;
  
        animation-iteration-count: infinite;
	  }
</style>
<g id="Logo" class="st0">
	<path d="M185.9,75.8c-1.1-5.9-4.3-9.1-10-10.2c-15.3-2.8-23.9-17.5-18.8-32.3c1.9-5.4,0.6-9.9-3.9-13.6c-1.6-1.3-3.2-2.5-4.9-3.7
		c-2.3,9.5-4.7,19.6-5.5,22.5c-1.7,6.1-3.4,12.2-5,17.9C132.9,74.1,129,88,129,88c0,0,0,0.1-0.1,0.1c-2.4,10.5-12.4,21.9-25.7,28.7
		c-15.1,8.1-31,7-39.5-2c0,0-0.1-0.1-0.1-0.1c-4.1-3.6-6.9-8.1-7.9-13.2c-0.6-3.2-0.4-6.4,0.4-9.5c1.2-4.7,3.8-9.1,7.5-13
		c5.4-5.7,13.1-10.2,22.1-12.6c1.3-0.3,2.6-0.6,4-0.9c0.9-0.2,1.7-0.3,2.5-0.4c1.3-0.2,2.6-0.3,3.9-0.4c8-0.5,15.6,0.7,21.8,3.4
		c0.3,0.2,0.6,0.3,0.8,0.5l3.2-12.2l4.7-17.9l7-31.1c-2.1-1-4.3-1.9-6.5-2.8c-5.1-2-9.9-0.7-13.5,3.5c-10.5,12.3-27.3,12.2-37.9,0
		C72.2,4,67.5,2.8,62.3,4.7C53.8,8,45.8,12.4,38.6,18c-5.1,3.9-6.5,8.5-4.3,14.6c5.3,14.9-4.1,30.2-19.8,32.3
		c-5.8,0.7-9.6,4.4-10.6,10C2,85,1.7,95.1,3.4,105.3c0.9,5.5,4.4,9.2,9.9,10c3.9,0.6,7.5,1.6,10.8,3.7c10,6.3,13.9,18.8,9.3,29.9
		c-2.5,5.9-1.3,10.6,3.6,14.5c5.8,4.7,12,8.6,18.7,11.7c3.6,1.7,7.2,3.7,10.8,3.8c4.3-0.1,7.2-1.5,9.5-4.3c0.8-1,1.5-2.1,2.4-3
		c10.1-11,27.2-10.3,36.8,1.5c4,5,8.8,6.2,14.7,3.7c8.3-3.5,16-8.1,23-13.8c4.6-3.7,5.8-8.4,3.7-13.9c-5.6-15,3.4-30.4,19.3-32.8
		c5.1-0.8,8.9-4.3,9.9-9.2C187.7,96.7,187.9,86.3,185.9,75.8z"/>
</g>
<path id="Cog1" class="st0 cog" d="M263.7,119.6c0.2-1.3,0.3-2.6,0.3-4.1c0-1.2-0.1-2.5-0.3-3.8l4.2-3.7c1.3-1.4,1.9-3.1,1.2-4.7
	c-0.4-1-0.9-2-1.4-2.9l-0.6-1c-0.7-0.9-1.2-1.9-1.8-2.7c-1.1-1.4-3-1.9-4.7-1.3l-5.3,1.8c-2-1.7-4.3-3-6.8-3.9l-1.3-5.5
	c-0.2-1.7-1.6-3.1-3.3-3.4c-1.3-0.2-2.5-0.2-3.8-0.2c-1.3,0-2.6,0.1-3.8,0.2c-1.8,0.2-3.3,1.6-3.5,3.4l-1.3,5.5
	c-2.3,0.9-4.6,2.3-6.7,3.9l-5.3-1.8c-1.7-0.6-3.6-0.1-4.7,1.3c-0.7,0.9-1.3,1.8-1.9,2.8l-0.6,1c-0.5,0.9-1,1.8-1.4,2.9
	c-0.7,1.6-0.2,3.4,1.2,4.7l4.2,3.7c-0.2,1.3-0.5,2.6-0.5,3.8c0,1.5,0.3,2.8,0.5,4.1l-4.2,3.7c-1.3,1.2-1.9,2.9-1.2,4.7
	c0.4,1,0.9,2,1.4,2.9l0.6,1c0.6,0.9,1.2,1.9,1.9,2.8c1.1,1.4,3,1.9,4.7,1.3l5.3-1.8c2,1.7,4.3,3,6.7,4l1.3,5.5
	c0.2,1.8,1.7,3.1,3.5,3.4c1.3,0.2,2.5,0.2,3.8,0.2c1.3,0,2.6-0.1,3.8-0.2c1.8-0.2,3.1-1.6,3.3-3.4l1.3-5.5c2.5-0.9,4.8-2.3,6.8-4
	l5.3,1.8c1.7,0.6,3.6,0.1,4.7-1.3c0.7-0.9,1.1-1.8,1.8-2.7l0.6-1c0.5-0.9,1-2.1,1.4-2.9c0.7-1.8,0.1-3.5-1.2-4.7L263.7,119.6z
	 M239.9,124.5c-5,0-9-3.9-9-9c0-4.8,4.1-9,9-9c5,0,9,4.2,9,9C248.9,120.7,244.9,124.5,239.9,124.5z"/>
<path id="Cog2" class="st0 cog" d="M223.3,168.3c-0.1-1-0.9-1.9-1.9-2l-3.1-0.7c-0.5-1.3-1.3-2.6-2.2-3.7l1-3c0.3-1,0.1-2-0.8-2.6
	c-0.5-0.4-1-0.8-1.5-1l-0.6-0.3c-0.5-0.3-1.1-0.6-1.6-0.8c-1-0.4-2-0.1-2.6,0.7l-2.1,2.4c-0.7-0.1-1.5-0.2-2.2-0.2s-1.5,0.1-2.2,0.2
	l-2.1-2.4c-0.8-0.7-1.7-1-2.6-0.7c-0.7,0.2-1.1,0.5-1.6,0.8l-0.6,0.3c-0.5,0.2-1,0.7-1.5,1c-0.8,0.6-1.1,1.7-0.8,2.6l1,3
	c-0.9,1.1-1.7,2.4-2.2,3.7l-3.1,0.7c-1,0.1-1.8,1-1.9,2c-0.1,0.7-0.1,1.4-0.1,2.2s0,1.5,0.1,2.2c0.1,1,0.9,1.8,1.9,1.9l3.1,0.7
	c0.5,1.4,1.3,2.7,2.2,3.8l-1,3c-0.3,1-0.1,2,0.8,2.6c0.5,0.4,1,0.6,1.5,1l0.6,0.3c0.5,0.3,1.1,0.6,1.6,0.8c0.9,0.4,1.9,0.1,2.6-0.7
	l2.1-2.4c0.7,0.1,1.5,0.2,2.2,0.2s1.5-0.1,2.2-0.2l2.1,2.4c0.7,0.7,1.6,1,2.6,0.7c0.5-0.2,1.1-0.5,1.6-0.8l0.6-0.3
	c0.5-0.4,1-0.7,1.5-1c0.8-0.6,1.1-1.7,0.8-2.6l-1-3c0.9-1.1,1.7-2.4,2.2-3.8l3.1-0.7c1-0.1,1.8-0.9,1.9-1.9c0.1-0.7,0.1-1.4,0.1-2.2
	S223.3,169,223.3,168.3z M205.6,175.5c-2.8,0-5.1-2.3-5.1-5.1s2.3-5.1,5.1-5.1s5.1,2.3,5.1,5.1S208.4,175.5,205.6,175.5z"/>
</svg>
