<?xml version="1.0" encoding="utf-8"?>
<!-- Generator: Adobe Illustrator 26.3.1, SVG Export Plug-In . SVG Version: 6.00 Build 0)  -->
<svg version="1.1" id="Layer_1" xmlns="http://www.w3.org/2000/svg" xmlns:xlink="http://www.w3.org/1999/xlink" x="0px" y="0px"
	 viewBox="0 0 316 585" style="enable-background:new 0 0 316 585;" xml:space="preserve">
<style type="text/css">
	.st0{fill-rule:evenodd;clip-rule:evenodd;fill:#EEEEEE;}
	.st1{fill-rule:evenodd;clip-rule:evenodd;fill:#FFFFFF;}
	.st2{fill-rule:evenodd;clip-rule:evenodd;fill:url(#Fill-3_00000069374747167363743550000015065261137851850908_);}
	.st3{fill-rule:evenodd;clip-rule:evenodd;fill:#DADADA;}
	.st4{fill-rule:evenodd;clip-rule:evenodd;fill:none;}
</style>
<g id="Page-1">
	<g id="Artboard" transform="translate(-1966.000000, -556.000000)">
		<g id="Group-6" transform="translate(2006.000000, 596.000000)">
			<g id="Group">
				<g id="Group-2" transform="translate(-0.000000, 0.000000)">
					<path id="Fill-1" class="st0" d="M0,120.14V25.67C0,13.56,2.21,0,26.11,0h181.97c23.89,0,26.11,13.56,26.11,25.67v59.89
						l0.44,0.31c0.86,0.62,1.38,1.62,1.38,2.69c0,10.61,0,67.68,0,77.75c0,0.96-0.42,1.88-1.15,2.51l-0.67,0.57v43.22l0.85,0.86
						c0.62,0.62,0.96,1.46,0.96,2.33c0,6.07,0,30.58,0,36.95c0,0.96-0.42,1.88-1.15,2.51l-0.67,0.57v223.44
						c0,12.11-2.21,25.67-26.11,25.67H26.11C2.21,504.93,0,491.37,0,479.26V120.14"/>
					<path id="Fill-2" class="st1" d="M207.03,497.2H27.02c-21.14,0-22.99-12.96-22.99-25.01V31.55c0-12.06,1.85-25.01,22.99-25.01
						h180.01c21.14,0,22.99,12.95,22.99,25.01v440.64C230.02,484.24,228.17,497.2,207.03,497.2"/>
				</g>
				
					<linearGradient id="Fill-3_00000000945536409915318280000018446378313343102639_" gradientUnits="userSpaceOnUse" x1="54.0727" y1="317.4811" x2="54.0727" y2="316.4811" gradientTransform="matrix(220.0002 0 0 -476 -11779.2148 151137.9219)">
					<stop  offset="0" style="stop-color:#363636"/>
					<stop  offset="0.9993" style="stop-color:#969696"/>
				</linearGradient>
				
					<path id="Fill-3" style="fill-rule:evenodd;clip-rule:evenodd;fill:url(#Fill-3_00000000945536409915318280000018446378313343102639_);" d="
					M206.59,16.92c8.02,0,13.22,3.29,16.14,6.95c4.15,5.2,4.07,11.16,4.07,19.3c0,45.76,0,29.08,0,29.08v349.22c0,0,0-0.55,0,45.22
					c0,8.13,0.08,14.09-4.07,19.3c-2.92,3.66-8.12,6.95-16.14,6.95H27c-8.02,0-13.22-3.29-16.14-6.95
					c-4.15-5.2-4.07-11.16-4.07-19.3c0-45.76,0-45.22,0-45.22V72.24c0,0,0,16.69,0-29.08c0-8.13-0.08-14.09,4.07-19.3
					c2.92-3.66,8.12-6.95,16.14-6.95H206.59z"/>
				<path id="Fill-5" class="st3" d="M158.87,6.54H72.63c0,2.14,1.73,3.87,3.86,3.87c14.31,0,64.2,0,78.51,0
					c1.03,0,2.01-0.41,2.73-1.13C158.46,8.55,158.87,7.57,158.87,6.54"/>
				<path id="Fill-6" class="st0" d="M124.09,8.31c0.03-0.38,0.33-0.68,0.7-0.68c0.39,0,0.71,0.33,0.71,0.73c0,0.03,0,0.05,0,0.07
					c-0.04,0.37-0.34,0.66-0.7,0.66c-0.39,0-0.71-0.33-0.71-0.73C124.08,8.34,124.09,8.32,124.09,8.31z M75.39,7.63
					c0.39,0,0.71,0.33,0.71,0.73c0,0.4-0.32,0.73-0.71,0.73c-0.39,0-0.71-0.33-0.71-0.73C74.68,7.96,75,7.63,75.39,7.63z
					 M77.36,7.63c0.39,0,0.71,0.33,0.71,0.73c0,0.4-0.32,0.73-0.71,0.73c-0.39,0-0.71-0.33-0.71-0.73
					C76.66,7.96,76.97,7.63,77.36,7.63z M79.34,7.63c0.39,0,0.71,0.33,0.71,0.73c0,0.4-0.32,0.73-0.71,0.73
					c-0.39,0-0.71-0.33-0.71-0.73C78.63,7.96,78.95,7.63,79.34,7.63z M81.32,7.63c0.39,0,0.71,0.33,0.71,0.73
					c0,0.4-0.32,0.73-0.71,0.73c-0.39,0-0.71-0.33-0.71-0.73C80.61,7.96,80.93,7.63,81.32,7.63z M99.1,7.63
					c0.39,0,0.71,0.33,0.71,0.73c0,0.4-0.32,0.73-0.71,0.73c-0.39,0-0.71-0.33-0.71-0.73C98.4,7.96,98.71,7.63,99.1,7.63z
					 M141.3,8.31c0,0.02,0,0.04,0,0.06c0,0.4-0.32,0.73-0.71,0.73c-0.39,0-0.71-0.33-0.71-0.73c0-0.02,0-0.04,0-0.06
					c0.03-0.38,0.33-0.68,0.7-0.68S141.28,7.93,141.3,8.31z M101.08,7.63c0.39,0,0.71,0.33,0.71,0.73c0,0.4-0.32,0.73-0.71,0.73
					s-0.71-0.33-0.71-0.73C100.37,7.96,100.69,7.63,101.08,7.63z M103.05,7.63c0.39,0,0.71,0.33,0.71,0.73
					c0,0.4-0.32,0.73-0.71,0.73c-0.39,0-0.71-0.33-0.71-0.73C102.35,7.96,102.66,7.63,103.05,7.63z M107.01,7.63
					c0.39,0,0.71,0.33,0.71,0.73c0,0.4-0.32,0.73-0.71,0.73c-0.39,0-0.71-0.33-0.71-0.73C106.3,7.96,106.62,7.63,107.01,7.63z
					 M105.03,7.63c0.39,0,0.71,0.33,0.71,0.73c0,0.4-0.32,0.73-0.71,0.73c-0.39,0-0.71-0.33-0.71-0.73
					C104.32,7.96,104.64,7.63,105.03,7.63z M93.17,7.63c0.39,0,0.71,0.33,0.71,0.73c0,0.4-0.32,0.73-0.71,0.73
					c-0.39,0-0.71-0.33-0.71-0.73C92.47,7.96,92.78,7.63,93.17,7.63z M95.15,7.63c0.39,0,0.71,0.33,0.71,0.73
					c0,0.4-0.32,0.73-0.71,0.73c-0.39,0-0.71-0.33-0.71-0.73C94.44,7.96,94.76,7.63,95.15,7.63z M97.12,7.63
					c0.39,0,0.71,0.33,0.71,0.73c0,0.4-0.32,0.73-0.71,0.73c-0.39,0-0.71-0.33-0.71-0.73C96.42,7.96,96.74,7.63,97.12,7.63z
					 M83.29,7.63c0.39,0,0.71,0.33,0.71,0.73c0,0.4-0.32,0.73-0.71,0.73s-0.71-0.33-0.71-0.73C82.59,7.96,82.9,7.63,83.29,7.63z
					 M85.27,7.63c0.39,0,0.71,0.33,0.71,0.73c0,0.4-0.32,0.73-0.71,0.73c-0.39,0-0.71-0.33-0.71-0.73
					C84.56,7.96,84.88,7.63,85.27,7.63z M87.24,7.63c0.39,0,0.71,0.33,0.71,0.73c0,0.4-0.32,0.73-0.71,0.73
					c-0.39,0-0.71-0.33-0.71-0.73C86.54,7.96,86.85,7.63,87.24,7.63z M89.22,7.63c0.39,0,0.71,0.33,0.71,0.73
					c0,0.4-0.32,0.73-0.71,0.73c-0.39,0-0.71-0.33-0.71-0.73C88.51,7.96,88.83,7.63,89.22,7.63z M137.92,8.31
					c0.03-0.38,0.33-0.68,0.7-0.68s0.68,0.3,0.7,0.68c0,0.02,0,0.04,0,0.06c0,0.4-0.32,0.73-0.71,0.73s-0.71-0.33-0.71-0.73
					C137.92,8.34,137.92,8.32,137.92,8.31z M137.35,8.31c0,0.02,0,0.04,0,0.06c0,0.4-0.32,0.73-0.71,0.73
					c-0.39,0-0.71-0.33-0.71-0.73c0-0.02,0-0.04,0-0.06c0.03-0.38,0.33-0.67,0.7-0.67C137.02,7.63,137.32,7.93,137.35,8.31z
					 M133.97,8.31c0.03-0.38,0.33-0.68,0.7-0.68c0.37,0,0.68,0.3,0.7,0.68c0,0.02,0,0.04,0,0.06c0,0.4-0.32,0.73-0.71,0.73
					c-0.39,0-0.71-0.33-0.71-0.73C133.97,8.34,133.97,8.32,133.97,8.31z M133.4,8.31c0,0.02,0,0.04,0,0.06
					c0,0.4-0.32,0.73-0.71,0.73c-0.39,0-0.71-0.33-0.71-0.73c0-0.02,0-0.04,0-0.06c0.03-0.38,0.33-0.68,0.7-0.68
					S133.37,7.93,133.4,8.31z M146.53,7.63c0.39,0,0.71,0.33,0.71,0.73c0,0.4-0.32,0.73-0.71,0.73c-0.39,0-0.71-0.33-0.71-0.73
					C145.82,7.96,146.14,7.63,146.53,7.63z M144.55,7.63c0.39,0,0.71,0.33,0.71,0.73c0,0.4-0.32,0.73-0.71,0.73
					c-0.39,0-0.71-0.33-0.71-0.73C143.85,7.96,144.16,7.63,144.55,7.63z M142.58,7.63c0.39,0,0.71,0.33,0.71,0.73
					c0,0.4-0.32,0.73-0.71,0.73c-0.39,0-0.71-0.33-0.71-0.73C141.87,7.96,142.19,7.63,142.58,7.63z M91.2,7.63
					c0.39,0,0.71,0.33,0.71,0.73c0,0.4-0.32,0.73-0.71,0.73s-0.71-0.33-0.71-0.73C90.49,7.96,90.81,7.63,91.2,7.63z M154.43,7.63
					c0.39,0,0.71,0.33,0.71,0.73c0,0.4-0.32,0.73-0.71,0.73s-0.71-0.33-0.71-0.73C153.73,7.96,154.04,7.63,154.43,7.63z
					 M156.41,7.63c0.39,0,0.71,0.33,0.71,0.73c0,0.4-0.32,0.73-0.71,0.73c-0.39,0-0.71-0.33-0.71-0.73
					C155.7,7.96,156.02,7.63,156.41,7.63z M152.46,7.63c0.39,0,0.71,0.33,0.71,0.73c0,0.4-0.32,0.73-0.71,0.73
					c-0.39,0-0.71-0.33-0.71-0.73C151.75,7.96,152.07,7.63,152.46,7.63z M150.48,7.63c0.39,0,0.71,0.33,0.71,0.73
					c0,0.4-0.32,0.73-0.71,0.73c-0.39,0-0.71-0.33-0.71-0.73C149.77,7.96,150.09,7.63,150.48,7.63z M148.5,7.63
					c0.39,0,0.71,0.33,0.71,0.73c0,0.4-0.32,0.73-0.71,0.73c-0.39,0-0.71-0.33-0.71-0.73C147.8,7.96,148.11,7.63,148.5,7.63z
					 M130.01,8.31c0.03-0.38,0.33-0.68,0.7-0.68c0.39,0,0.71,0.33,0.71,0.73c0,0.04,0,0.07-0.01,0.11c-0.05,0.35-0.34,0.62-0.7,0.62
					c-0.39,0-0.71-0.33-0.71-0.73C130.01,8.34,130.01,8.32,130.01,8.31z M128.04,8.31c0.03-0.38,0.33-0.68,0.7-0.68
					s0.68,0.3,0.7,0.68c0,0.02,0,0.04,0,0.06c0,0.4-0.32,0.73-0.71,0.73c-0.39,0-0.71-0.33-0.71-0.73
					C128.04,8.34,128.04,8.32,128.04,8.31z M126.06,8.31c0.03-0.38,0.33-0.68,0.7-0.68c0.37,0,0.68,0.3,0.7,0.68
					c0,0.02,0,0.04,0,0.06c0,0.4-0.32,0.73-0.71,0.73c-0.39,0-0.71-0.33-0.71-0.73C126.06,8.34,126.06,8.32,126.06,8.31z
					 M122.81,7.63c0.39,0,0.71,0.33,0.71,0.73c0,0.4-0.32,0.73-0.71,0.73c-0.39,0-0.71-0.33-0.71-0.73
					C122.11,7.96,122.43,7.63,122.81,7.63z M120.84,7.63c0.39,0,0.71,0.33,0.71,0.73c0,0.4-0.32,0.73-0.71,0.73
					c-0.39,0-0.71-0.33-0.71-0.73C120.13,7.96,120.45,7.63,120.84,7.63z M118.86,7.63c0.39,0,0.71,0.33,0.71,0.73
					c0,0.4-0.32,0.73-0.71,0.73c-0.39,0-0.71-0.33-0.71-0.73C118.16,7.96,118.47,7.63,118.86,7.63z M116.89,7.63
					c0.39,0,0.71,0.33,0.71,0.73c0,0.4-0.32,0.73-0.71,0.73c-0.39,0-0.71-0.33-0.71-0.73C116.18,7.96,116.5,7.63,116.89,7.63z
					 M114.91,7.63c0.39,0,0.71,0.33,0.71,0.73c0,0.4-0.32,0.73-0.71,0.73c-0.39,0-0.71-0.33-0.71-0.73
					C114.2,7.96,114.52,7.63,114.91,7.63z M112.93,7.63c0.39,0,0.71,0.33,0.71,0.73c0,0.4-0.32,0.73-0.71,0.73
					c-0.39,0-0.71-0.33-0.71-0.73C112.23,7.96,112.54,7.63,112.93,7.63z M110.96,7.63c0.39,0,0.71,0.33,0.71,0.73
					c0,0.4-0.32,0.73-0.71,0.73c-0.39,0-0.71-0.33-0.71-0.73C110.25,7.96,110.57,7.63,110.96,7.63z M108.98,7.63
					c0.39,0,0.71,0.33,0.71,0.73c0,0.4-0.32,0.73-0.71,0.73s-0.71-0.33-0.71-0.73C108.28,7.96,108.59,7.63,108.98,7.63z M80.85,6.54
					c0,0.4-0.32,0.73-0.71,0.73c-0.39,0-0.71-0.33-0.71-0.73H80.85z M78.88,6.54c0,0.4-0.32,0.73-0.71,0.73s-0.71-0.33-0.71-0.73
					H78.88z M157.99,6.54c0,0.4-0.32,0.73-0.71,0.73c-0.39,0-0.71-0.33-0.71-0.73H157.99z M76.9,6.54c0,0.4-0.32,0.73-0.71,0.73
					c-0.39,0-0.71-0.33-0.71-0.73H76.9z M96.66,6.54c0,0.4-0.32,0.73-0.71,0.73c-0.39,0-0.71-0.33-0.71-0.73H96.66z M74.92,6.54
					c0,0.4-0.32,0.73-0.71,0.73c-0.39,0-0.71-0.33-0.71-0.73H74.92z M88.76,6.54c0,0.4-0.32,0.73-0.71,0.73
					c-0.39,0-0.71-0.33-0.71-0.73H88.76z M86.78,6.54c0,0.4-0.32,0.73-0.71,0.73s-0.71-0.33-0.71-0.73H86.78z M84.8,6.54
					c0,0.4-0.32,0.73-0.71,0.73c-0.39,0-0.71-0.33-0.71-0.73H84.8z M82.83,6.54c0,0.4-0.32,0.73-0.71,0.73
					c-0.39,0-0.71-0.33-0.71-0.73H82.83z M150.02,6.54c0,0.4-0.32,0.73-0.71,0.73c-0.39,0-0.71-0.33-0.71-0.73H150.02z M148.04,6.54
					c0,0.4-0.32,0.73-0.71,0.73c-0.39,0-0.71-0.33-0.71-0.73H148.04z M108.59,6.54c0,0.4-0.32,0.73-0.71,0.73c-0.01,0-0.02,0-0.03,0
					c-0.01,0-0.02,0-0.04,0c-0.39,0-0.71-0.33-0.71-0.73H108.59z M94.68,6.54c0,0.4-0.32,0.73-0.71,0.73s-0.71-0.33-0.71-0.73H94.68
					z M92.71,6.54c0,0.4-0.32,0.73-0.71,0.73c-0.39,0-0.71-0.33-0.71-0.73H92.71z M90.73,6.54c0,0.4-0.32,0.73-0.71,0.73
					c-0.39,0-0.71-0.33-0.71-0.73H90.73z M104.57,6.54c0,0.4-0.32,0.73-0.71,0.73c-0.39,0-0.71-0.33-0.71-0.73H104.57z M106.54,6.54
					c0,0.4-0.32,0.73-0.71,0.73c-0.39,0-0.71-0.33-0.71-0.73H106.54z M100.61,6.54c0,0.4-0.32,0.73-0.71,0.73
					c-0.39,0-0.71-0.33-0.71-0.73H100.61z M98.64,6.54c0,0.4-0.32,0.73-0.71,0.73c-0.39,0-0.71-0.33-0.71-0.73H98.64z M130.26,6.54
					c0,0.04,0,0.07-0.01,0.11c-0.05,0.35-0.34,0.62-0.7,0.62c-0.39,0-0.71-0.33-0.71-0.73H130.26z M128.28,6.54
					c0,0.4-0.32,0.73-0.71,0.73c-0.39,0-0.71-0.33-0.71-0.73H128.28z M126.3,6.54c0,0.4-0.32,0.73-0.71,0.73
					c-0.39,0-0.71-0.33-0.71-0.73H126.3z M146.06,6.54c0,0.4-0.32,0.73-0.71,0.73c-0.39,0-0.71-0.33-0.71-0.73H146.06z M124.33,6.54
					c0,0.03,0,0.05,0,0.07c-0.04,0.37-0.34,0.66-0.7,0.66c-0.39,0-0.71-0.33-0.71-0.73H124.33z M138.16,6.54
					c0,0.4-0.32,0.73-0.71,0.73c-0.39,0-0.71-0.33-0.71-0.73H138.16z M136.18,6.54c0,0.4-0.32,0.73-0.71,0.73
					c-0.39,0-0.71-0.33-0.71-0.73H136.18z M134.21,6.54c0,0.4-0.32,0.73-0.71,0.73c-0.39,0-0.71-0.33-0.71-0.73H134.21z
					 M132.23,6.54c0,0.4-0.32,0.73-0.71,0.73c-0.39,0-0.71-0.33-0.71-0.73H132.23z M102.59,6.54c0,0.4-0.32,0.73-0.71,0.73
					s-0.71-0.33-0.71-0.73H102.59z M144.09,6.54c0,0.4-0.32,0.73-0.71,0.73c-0.39,0-0.71-0.33-0.71-0.73H144.09z M142.18,6.54
					c0,0.4-0.32,0.73-0.71,0.73c-0.01,0-0.02,0-0.04,0s-0.02,0-0.03,0c-0.39,0-0.71-0.33-0.71-0.73H142.18z M140.14,6.54
					c0,0.4-0.32,0.73-0.71,0.73s-0.71-0.33-0.71-0.73H140.14z M153.97,6.54c0,0.4-0.32,0.73-0.71,0.73c-0.39,0-0.71-0.33-0.71-0.73
					H153.97z M155.94,6.54c0,0.4-0.32,0.73-0.71,0.73s-0.71-0.33-0.71-0.73H155.94z M151.99,6.54c0,0.4-0.32,0.73-0.71,0.73
					c-0.39,0-0.71-0.33-0.71-0.73H151.99z M114.45,6.54c0,0.4-0.32,0.73-0.71,0.73c-0.39,0-0.71-0.33-0.71-0.73H114.45z
					 M112.47,6.54c0,0.4-0.32,0.73-0.71,0.73c-0.39,0-0.71-0.33-0.71-0.73H112.47z M122.35,6.54c0,0.4-0.32,0.73-0.71,0.73
					c-0.39,0-0.71-0.33-0.71-0.73H122.35z M120.37,6.54c0,0.4-0.32,0.73-0.71,0.73c-0.39,0-0.71-0.33-0.71-0.73H120.37z M118.4,6.54
					c0,0.4-0.32,0.73-0.71,0.73c-0.39,0-0.71-0.33-0.71-0.73H118.4z M116.42,6.54c0,0.4-0.32,0.73-0.71,0.73s-0.71-0.33-0.71-0.73
					H116.42z M110.49,6.54c0,0.4-0.32,0.73-0.71,0.73s-0.71-0.33-0.71-0.73H110.49L110.49,6.54z"/>
				<path id="Fill-7" class="st3" d="M190.75,504.93h4.74v-7.69h-4.74V504.93z M36.01,504.93h4.74v-7.69h-4.74V504.93z M0,37.64
					h3.92v-4.37H0V37.64z M55.51,6.54h3.51V0h-3.51V6.54z"/>
			</g>
			<path id="Fill" class="st4" d="M206.59,16.92c8.02,0,13.22,3.29,16.14,6.95c4.15,5.2,4.07,11.16,4.07,19.3
				c0,45.76,0,29.08,0,29.08v349.22c0,0,0-0.55,0,45.22c0,8.13,0.08,14.09-4.07,19.3c-2.92,3.66-8.12,6.95-16.14,6.95H27
				c-8.02,0-13.22-3.29-16.14-6.95c-4.15-5.2-4.07-11.16-4.07-19.3c0-45.76,0-45.22,0-45.22V72.24c0,0,0,16.69,0-29.08
				c0-8.13-0.08-14.09,4.07-19.3c2.92-3.66,8.12-6.95,16.14-6.95H206.59z"/>
		</g>
	</g>
</g>
</svg>
