<?xml version="1.0" encoding="utf-8"?>
<!-- Generator: Adobe Illustrator 26.3.1, SVG Export Plug-In . SVG Version: 6.00 Build 0)  -->
<svg version="1.1" id="Layer_1" xmlns="http://www.w3.org/2000/svg" xmlns:xlink="http://www.w3.org/1999/xlink" x="0px" y="0px"
	 viewBox="0 0 210 60" style="enable-background:new 0 0 210 60;" xml:space="preserve">
<style type="text/css">
	.st0{fill:#FFC53B;}
	.st1{opacity:0.25;fill:#FFC53B;}
	.st2{fill:#FF1241;}
	.st3{opacity:0.25;fill:#FF8098;}
	.st4{fill:#99E266;}
	.st5{opacity:0.5;fill:#99E266;}
	.st6{opacity:0.3;fill:#3D77FF;}
	.st7{fill:#3D77FF;}
	.st8{fill:#F961EA;}
	.st9{opacity:0.21;fill:#F961EA;}
	.st10{fill:#17171C;}
	.st11{fill:#B65FDE;}
	.st12{opacity:0.3;fill:#B65FDE;}
</style>
<g>
	<polygon class="st6" points="42.01,29.08 41.56,28.31 40.18,25.92 40.18,32.32 40.86,33.49 40.86,33.49 41.97,35.42 35.85,46.02 
		32.08,46.02 32.08,46.02 24.53,46.02 23.67,46.02 23.61,46.02 22.36,43.85 18.66,43.85 21.77,49.23 22.84,49.23 23.67,49.23 
		37.7,49.23 37.7,49.23 38.53,47.79 41.9,41.95 45.67,35.42 42.01,29.08 	"/>
	<path class="st7" d="M35.73,21.62c-0.89-1.06-1.96-2-3.17-2.79c-0.25,0.91-0.52,1.85-0.78,2.79c-0.31,1.1-0.61,2.18-0.9,3.2
		c-0.89,3.17-1.59,5.66-1.59,5.66c0,0.01-0.01,0.02-0.01,0.03c-0.44,1.89-2.21,3.92-4.61,5.14c-2.7,1.45-5.55,1.25-7.08-0.35
		c-0.01,0-0.01-0.01-0.01-0.01c-0.73-0.64-1.24-1.44-1.41-2.37c-0.11-0.57-0.07-1.15,0.07-1.71c0.21-0.83,0.68-1.63,1.35-2.33
		c0.96-1.01,2.34-1.83,3.97-2.26c0.23-0.06,0.47-0.12,0.72-0.16c0.15-0.03,0.3-0.05,0.45-0.07c0.23-0.03,0.46-0.06,0.69-0.07
		c1.43-0.1,2.79,0.13,3.91,0.61c0.05,0.03,0.1,0.05,0.15,0.08l0.57-2.18l0.84-3.2l1.09-4.16c-2.07-0.86-4.4-1.35-6.87-1.35
		c-8.54,0-15.47,5.83-15.47,13.01c0,3.06,1.26,5.87,3.36,8.09l-0.67,5.28c-0.09,0.7,0.61,1.23,1.25,0.96l5.53-2.31l0.02-0.01
		c1.32,0.47,2.73,0.78,4.21,0.92c0.58,0.06,1.18,0.09,1.78,0.09c8.39,0,15.22-5.62,15.46-12.63c0-0.13,0.01-0.25,0.01-0.38
		C38.57,26.33,37.51,23.74,35.73,21.62z"/>
</g>
<g>
	<path class="st10" d="M58.95,42.31c-1,0-1.93-0.15-2.79-0.44s-1.54-0.66-2.01-1.1l0.53-0.92c0.46,0.4,1.07,0.74,1.84,1.02
		c0.77,0.28,1.59,0.43,2.48,0.43c1.26,0,2.16-0.21,2.71-0.62c0.55-0.41,0.83-0.96,0.83-1.63c0-0.49-0.14-0.88-0.42-1.16
		c-0.28-0.28-0.66-0.5-1.14-0.66c-0.48-0.15-1-0.28-1.56-0.38s-1.13-0.21-1.7-0.33c-0.57-0.12-1.09-0.3-1.56-0.53
		c-0.48-0.23-0.85-0.55-1.14-0.95s-0.43-0.95-0.43-1.62c0-0.61,0.17-1.17,0.51-1.66c0.34-0.49,0.84-0.89,1.52-1.18
		s1.52-0.45,2.53-0.45c0.75,0,1.51,0.11,2.27,0.32c0.76,0.21,1.38,0.5,1.85,0.85l-0.53,0.92c-0.51-0.38-1.07-0.66-1.7-0.83
		s-1.26-0.25-1.91-0.25c-1.17,0-2.02,0.21-2.56,0.64c-0.54,0.43-0.82,0.97-0.82,1.61c0,0.51,0.14,0.91,0.43,1.21
		c0.28,0.3,0.66,0.53,1.14,0.69c0.47,0.16,1,0.29,1.56,0.39c0.57,0.1,1.13,0.21,1.7,0.33s1.09,0.29,1.56,0.52
		c0.47,0.22,0.85,0.53,1.14,0.92c0.28,0.39,0.43,0.92,0.43,1.58c0,0.66-0.18,1.23-0.54,1.73c-0.36,0.49-0.89,0.87-1.6,1.15
		C60.84,42.17,59.98,42.31,58.95,42.31z"/>
	<path class="st10" d="M71.6,42.31c-1.15,0-2.17-0.26-3.07-0.78c-0.9-0.52-1.61-1.24-2.14-2.16c-0.53-0.92-0.79-1.97-0.79-3.15
		c0-1.2,0.26-2.25,0.79-3.16c0.53-0.91,1.24-1.63,2.14-2.15c0.9-0.52,1.92-0.78,3.07-0.78c1.15,0,2.18,0.26,3.08,0.78
		c0.9,0.52,1.62,1.24,2.14,2.15s0.78,1.97,0.78,3.16c0,1.18-0.26,2.23-0.78,3.15c-0.52,0.92-1.23,1.64-2.14,2.16
		C73.77,42.05,72.75,42.31,71.6,42.31z M71.6,41.27c0.92,0,1.75-0.21,2.48-0.63c0.74-0.42,1.31-1.02,1.72-1.78
		c0.41-0.77,0.62-1.65,0.62-2.64c0-1.01-0.21-1.9-0.62-2.66c-0.41-0.76-0.99-1.35-1.72-1.77c-0.74-0.42-1.56-0.63-2.48-0.63
		s-1.74,0.21-2.47,0.63c-0.73,0.42-1.3,1.01-1.72,1.77c-0.42,0.76-0.63,1.64-0.63,2.66c0,1,0.21,1.88,0.63,2.64
		c0.42,0.77,1,1.36,1.72,1.78S70.68,41.27,71.6,41.27z"/>
	<path class="st10" d="M87.03,30.12c0.98,0,1.84,0.19,2.56,0.56s1.3,0.94,1.7,1.7c0.41,0.76,0.61,1.7,0.61,2.82v7.01h-1.15v-6.92
		c0-1.35-0.34-2.38-1.02-3.08c-0.68-0.71-1.64-1.06-2.86-1.06c-0.93,0-1.75,0.19-2.44,0.58c-0.69,0.38-1.22,0.92-1.58,1.61
		c-0.36,0.69-0.54,1.52-0.54,2.48v6.39h-1.15V30.21h1.1v3.33l-0.16-0.37c0.37-0.95,0.97-1.7,1.82-2.24
		C84.77,30.39,85.8,30.12,87.03,30.12z"/>
	<path class="st10" d="M101.31,41.78c-1.14,0-2.15-0.25-3.05-0.75c-0.9-0.5-1.61-1.19-2.14-2.07c-0.53-0.88-0.79-1.89-0.79-3.02
		c0-1.15,0.26-2.16,0.79-3.04c0.53-0.87,1.24-1.56,2.14-2.05c0.9-0.49,1.91-0.74,3.05-0.74c1.09,0,2.07,0.23,2.93,0.7
		s1.55,1.13,2.06,2c0.51,0.87,0.76,1.91,0.76,3.12c0,1.2-0.25,2.23-0.76,3.11s-1.19,1.55-2.06,2.02
		C103.38,41.54,102.4,41.78,101.31,41.78z M101.64,46.77c-1.09,0-2.12-0.17-3.1-0.51c-0.98-0.34-1.78-0.8-2.39-1.4l0.62-0.87
		c0.6,0.55,1.31,0.98,2.15,1.29s1.74,0.46,2.7,0.46c1.61,0,2.79-0.38,3.55-1.13c0.76-0.75,1.14-1.93,1.14-3.54v-3.33l0.23-1.79
		l-0.18-1.79v-3.93h1.1v10.72c0,2.01-0.49,3.48-1.46,4.43C105.02,46.3,103.57,46.77,101.64,46.77z M101.41,40.74
		c0.97,0,1.82-0.2,2.55-0.61s1.31-0.97,1.74-1.7s0.63-1.56,0.63-2.5c0-0.95-0.21-1.79-0.63-2.51s-1-1.28-1.74-1.68
		c-0.74-0.4-1.59-0.6-2.55-0.6c-0.94,0-1.78,0.2-2.52,0.6c-0.74,0.4-1.33,0.96-1.75,1.68s-0.63,1.56-0.63,2.51
		c0,0.94,0.21,1.77,0.63,2.5s1,1.3,1.75,1.7C99.63,40.54,100.47,40.74,101.41,40.74z"/>
	<path class="st10" d="M111.78,42.22V25.15h2.88v7.64l-0.23,3.27l0.09,3.27v2.9H111.78z M118.59,42.38c-1.04,0-1.97-0.23-2.78-0.69
		c-0.81-0.46-1.45-1.15-1.92-2.08s-0.7-2.1-0.7-3.53c0-1.44,0.24-2.62,0.72-3.54c0.48-0.92,1.13-1.61,1.96-2.06s1.73-0.68,2.73-0.68
		c1.21,0,2.28,0.26,3.21,0.78s1.66,1.25,2.21,2.18c0.54,0.94,0.82,2.04,0.82,3.31s-0.27,2.38-0.82,3.31
		c-0.54,0.94-1.28,1.67-2.21,2.2C120.87,42.11,119.8,42.38,118.59,42.38z M118.26,39.92c0.69,0,1.31-0.15,1.85-0.46
		c0.54-0.31,0.98-0.75,1.3-1.33c0.32-0.58,0.48-1.27,0.48-2.05c0-0.8-0.16-1.48-0.48-2.06c-0.32-0.58-0.76-1.02-1.3-1.32
		c-0.54-0.31-1.16-0.46-1.85-0.46c-0.69,0-1.31,0.15-1.86,0.46c-0.55,0.31-0.99,0.75-1.31,1.32c-0.32,0.58-0.48,1.26-0.48,2.06
		c0,0.78,0.16,1.46,0.48,2.05c0.32,0.58,0.76,1.03,1.31,1.33S117.57,39.92,118.26,39.92z"/>
	<path class="st10" d="M127.56,42.22V25.15h2.88v17.07H127.56z"/>
	<path class="st10" d="M139.72,42.38c-1.26,0-2.38-0.27-3.36-0.82s-1.76-1.29-2.32-2.24c-0.57-0.95-0.85-2.03-0.85-3.24
		c0-1.23,0.28-2.31,0.85-3.25c0.57-0.94,1.34-1.68,2.32-2.22c0.98-0.54,2.1-0.8,3.36-0.8c1.27,0,2.4,0.27,3.39,0.8
		c0.99,0.54,1.76,1.27,2.32,2.21c0.56,0.94,0.84,2.02,0.84,3.27c0,1.21-0.28,2.29-0.84,3.24c-0.56,0.95-1.33,1.7-2.32,2.24
		C142.13,42.1,141,42.38,139.72,42.38z M139.72,39.92c0.71,0,1.33-0.15,1.89-0.46s0.99-0.75,1.3-1.33c0.31-0.58,0.47-1.27,0.47-2.05
		c0-0.8-0.16-1.48-0.47-2.06c-0.31-0.58-0.75-1.02-1.3-1.32c-0.55-0.31-1.17-0.46-1.86-0.46c-0.71,0-1.33,0.15-1.87,0.46
		c-0.54,0.31-0.98,0.75-1.3,1.32s-0.48,1.26-0.48,2.06c0,0.78,0.16,1.46,0.48,2.05s0.75,1.03,1.3,1.33
		C138.42,39.76,139.03,39.92,139.72,39.92z"/>
	<path class="st10" d="M154.24,41.66c-1.17,0-2.22-0.25-3.16-0.75c-0.94-0.5-1.69-1.19-2.23-2.08s-0.82-1.93-0.82-3.13
		c0-1.18,0.27-2.22,0.82-3.11c0.54-0.89,1.29-1.58,2.23-2.07c0.94-0.49,2-0.74,3.16-0.74c1.04,0,1.98,0.21,2.81,0.62
		s1.49,1.06,1.99,1.93c0.5,0.87,0.75,1.99,0.75,3.36c0,1.36-0.25,2.49-0.75,3.37c-0.5,0.88-1.16,1.53-1.99,1.96
		S155.28,41.66,154.24,41.66z M154.6,46.84c-1.13,0-2.24-0.15-3.32-0.45s-1.97-0.73-2.66-1.3l1.29-2.16
		c0.54,0.44,1.21,0.8,2.04,1.07c0.82,0.27,1.65,0.4,2.5,0.4c1.35,0,2.34-0.31,2.97-0.93c0.63-0.62,0.94-1.55,0.94-2.79v-2.18
		l0.23-2.78l-0.09-2.78v-2.99h2.74v10.42c0,2.22-0.57,3.86-1.7,4.91C158.39,46.31,156.75,46.84,154.6,46.84z M154.67,39.22
		c0.72,0,1.36-0.15,1.93-0.45s1.01-0.71,1.32-1.24s0.47-1.14,0.47-1.83c0-0.69-0.16-1.3-0.47-1.83c-0.31-0.53-0.75-0.93-1.32-1.22
		c-0.57-0.28-1.21-0.43-1.93-0.43c-0.72,0-1.37,0.14-1.94,0.43c-0.57,0.28-1.02,0.69-1.33,1.22c-0.31,0.53-0.47,1.14-0.47,1.83
		c0,0.69,0.16,1.3,0.47,1.83s0.76,0.94,1.33,1.24C153.3,39.08,153.95,39.22,154.67,39.22z"/>
</g>
<g>
	<path class="st10" d="M50.94,21v-7h2.88c0.62,0,1.15,0.1,1.59,0.3s0.79,0.49,1.03,0.86c0.24,0.37,0.36,0.82,0.36,1.33
		s-0.12,0.96-0.36,1.33c-0.24,0.37-0.58,0.66-1.03,0.86c-0.44,0.2-0.97,0.3-1.59,0.3h-2.16l0.58-0.61V21H50.94z M52.24,18.51
		l-0.58-0.63h2.1c0.57,0,1-0.12,1.29-0.37c0.29-0.24,0.44-0.58,0.44-1.02c0-0.45-0.15-0.79-0.44-1.03s-0.72-0.36-1.29-0.36h-2.1
		l0.58-0.64V18.51z"/>
	<path class="st10" d="M60.36,21.07c-0.55,0-1.03-0.12-1.46-0.36c-0.43-0.24-0.76-0.56-1.01-0.97c-0.25-0.41-0.37-0.88-0.37-1.41
		c0-0.53,0.12-1,0.37-1.42c0.25-0.41,0.58-0.73,1.01-0.96s0.91-0.35,1.46-0.35c0.55,0,1.04,0.12,1.48,0.35
		c0.43,0.23,0.77,0.55,1.01,0.96s0.37,0.88,0.37,1.42c0,0.53-0.12,1-0.37,1.41s-0.58,0.74-1.01,0.97
		C61.41,20.95,60.92,21.07,60.36,21.07z M60.36,20c0.31,0,0.58-0.07,0.82-0.2c0.24-0.13,0.43-0.33,0.57-0.58
		c0.14-0.25,0.2-0.55,0.2-0.89c0-0.35-0.07-0.65-0.2-0.9c-0.14-0.25-0.33-0.44-0.57-0.57c-0.24-0.13-0.51-0.2-0.81-0.2
		c-0.31,0-0.58,0.07-0.82,0.2c-0.24,0.13-0.42,0.32-0.57,0.57c-0.14,0.25-0.21,0.55-0.21,0.9c0,0.34,0.07,0.64,0.21,0.89
		c0.14,0.25,0.33,0.45,0.57,0.58C59.79,19.93,60.06,20,60.36,20z"/>
	<path class="st10" d="M65.44,21l-1.96-5.34h1.18l1.68,4.71h-0.56l1.76-4.71h1.05l1.71,4.71h-0.55l1.73-4.71h1.11L70.62,21h-1.2
		l-1.56-4.17h0.37L66.64,21H65.44z"/>
	<path class="st10" d="M75.81,21.07c-0.59,0-1.11-0.12-1.55-0.36c-0.44-0.24-0.79-0.56-1.03-0.97s-0.37-0.88-0.37-1.41
		c0-0.53,0.12-1,0.36-1.42c0.24-0.41,0.56-0.73,0.98-0.96s0.89-0.35,1.42-0.35c0.52,0,0.98,0.11,1.39,0.34
		c0.41,0.23,0.73,0.55,0.96,0.96c0.23,0.41,0.35,0.9,0.35,1.46c0,0.05,0,0.11,0,0.18s-0.01,0.13-0.01,0.19h-4.45V17.9h3.79
		l-0.49,0.26c0.01-0.31-0.06-0.58-0.19-0.81c-0.13-0.23-0.32-0.42-0.55-0.55c-0.23-0.13-0.49-0.2-0.79-0.2
		c-0.31,0-0.57,0.07-0.8,0.2c-0.23,0.13-0.41,0.32-0.54,0.56c-0.13,0.24-0.2,0.51-0.2,0.83v0.2c0,0.32,0.07,0.6,0.22,0.85
		c0.15,0.25,0.35,0.44,0.62,0.57c0.27,0.13,0.57,0.2,0.92,0.2c0.3,0,0.57-0.05,0.81-0.14s0.45-0.24,0.64-0.44l0.67,0.77
		c-0.24,0.28-0.54,0.5-0.91,0.64C76.69,20.99,76.28,21.07,75.81,21.07z"/>
	<path class="st10" d="M79.52,21v-5.34h1.19v1.47l-0.14-0.43c0.16-0.36,0.41-0.63,0.75-0.82s0.77-0.28,1.29-0.28v1.19
		c-0.05-0.01-0.1-0.02-0.15-0.03c-0.05,0-0.09,0-0.14,0c-0.47,0-0.85,0.14-1.13,0.42c-0.28,0.28-0.42,0.69-0.42,1.24V21H79.52z"/>
	<path class="st10" d="M86.13,21.07c-0.59,0-1.11-0.12-1.55-0.36c-0.44-0.24-0.79-0.56-1.03-0.97s-0.37-0.88-0.37-1.41
		c0-0.53,0.12-1,0.36-1.42c0.24-0.41,0.56-0.73,0.98-0.96s0.89-0.35,1.42-0.35c0.52,0,0.98,0.11,1.39,0.34
		c0.41,0.23,0.73,0.55,0.96,0.96c0.23,0.41,0.35,0.9,0.35,1.46c0,0.05,0,0.11,0,0.18s-0.01,0.13-0.01,0.19h-4.45V17.9h3.79
		l-0.49,0.26c0.01-0.31-0.06-0.58-0.19-0.81c-0.13-0.23-0.32-0.42-0.55-0.55c-0.23-0.13-0.49-0.2-0.79-0.2
		c-0.31,0-0.57,0.07-0.8,0.2c-0.23,0.13-0.41,0.32-0.54,0.56c-0.13,0.24-0.2,0.51-0.2,0.83v0.2c0,0.32,0.07,0.6,0.22,0.85
		c0.15,0.25,0.35,0.44,0.62,0.57c0.27,0.13,0.57,0.2,0.92,0.2c0.3,0,0.57-0.05,0.81-0.14s0.45-0.24,0.64-0.44l0.67,0.77
		c-0.24,0.28-0.54,0.5-0.91,0.64C87.01,20.99,86.6,21.07,86.13,21.07z"/>
	<path class="st10" d="M92.1,21.07c-0.51,0-0.97-0.12-1.38-0.35c-0.41-0.23-0.73-0.55-0.96-0.96c-0.23-0.41-0.35-0.89-0.35-1.44
		s0.12-1.03,0.35-1.44c0.23-0.41,0.55-0.72,0.96-0.95s0.87-0.34,1.38-0.34c0.45,0,0.85,0.1,1.2,0.29c0.35,0.2,0.63,0.5,0.84,0.9
		c0.21,0.4,0.31,0.91,0.31,1.54c0,0.62-0.1,1.13-0.3,1.54s-0.48,0.71-0.83,0.9C92.97,20.97,92.56,21.07,92.1,21.07z M92.25,20
		c0.3,0,0.57-0.07,0.8-0.2c0.24-0.13,0.43-0.33,0.57-0.58c0.14-0.25,0.21-0.55,0.21-0.89c0-0.35-0.07-0.65-0.21-0.9
		c-0.14-0.25-0.33-0.44-0.57-0.57c-0.24-0.13-0.5-0.2-0.8-0.2c-0.3,0-0.57,0.07-0.81,0.2c-0.24,0.13-0.43,0.32-0.57,0.57
		c-0.14,0.25-0.22,0.55-0.22,0.9c0,0.34,0.07,0.64,0.22,0.89c0.14,0.25,0.33,0.45,0.57,0.58C91.68,19.93,91.95,20,92.25,20z
		 M93.87,21v-1.26l0.05-1.42l-0.1-1.42v-3.32h1.24V21H93.87z"/>
	<path class="st10" d="M99.47,21v-7.42h1.25v3.32l-0.1,1.42l0.04,1.42V21H99.47z M102.43,21.07c-0.45,0-0.86-0.1-1.21-0.3
		c-0.35-0.2-0.63-0.5-0.83-0.9c-0.2-0.4-0.31-0.92-0.31-1.54c0-0.63,0.11-1.14,0.32-1.54s0.49-0.7,0.85-0.9
		c0.36-0.2,0.75-0.29,1.19-0.29c0.53,0,0.99,0.11,1.39,0.34s0.72,0.54,0.96,0.95c0.24,0.41,0.36,0.89,0.36,1.44
		s-0.12,1.03-0.36,1.44c-0.24,0.41-0.56,0.73-0.96,0.96C103.42,20.95,102.96,21.07,102.43,21.07z M102.29,20
		c0.3,0,0.57-0.07,0.81-0.2c0.24-0.13,0.42-0.33,0.56-0.58c0.14-0.25,0.21-0.55,0.21-0.89c0-0.35-0.07-0.65-0.21-0.9
		c-0.14-0.25-0.33-0.44-0.56-0.57c-0.24-0.13-0.5-0.2-0.81-0.2c-0.3,0-0.57,0.07-0.81,0.2c-0.24,0.13-0.43,0.32-0.57,0.57
		c-0.14,0.25-0.21,0.55-0.21,0.9c0,0.34,0.07,0.64,0.21,0.89c0.14,0.25,0.33,0.45,0.57,0.58C101.72,19.93,101.99,20,102.29,20z"/>
	<path class="st10" d="M106.62,23.01c-0.26,0-0.52-0.04-0.78-0.13c-0.26-0.09-0.48-0.21-0.65-0.36l0.5-0.92
		c0.13,0.11,0.27,0.2,0.43,0.27s0.32,0.1,0.49,0.1c0.23,0,0.41-0.06,0.55-0.17c0.14-0.11,0.27-0.3,0.39-0.57l0.31-0.7l0.1-0.15
		l2.02-4.72h1.2l-2.5,5.77c-0.17,0.4-0.35,0.72-0.56,0.95c-0.2,0.23-0.43,0.4-0.68,0.49C107.2,22.96,106.92,23.01,106.62,23.01z
		 M107.72,21.19l-2.41-5.53h1.3l1.96,4.61L107.72,21.19z"/>
</g>
</svg>
