<?xml version="1.0" encoding="utf-8"?>
<!-- Generator: Adobe Illustrator 26.3.1, SVG Export Plug-In . SVG Version: 6.00 Build 0)  -->
<svg version="1.1" id="Layer_1" xmlns="http://www.w3.org/2000/svg" xmlns:xlink="http://www.w3.org/1999/xlink" x="0px" y="0px"
	 viewBox="0 0 210 60" style="enable-background:new 0 0 210 60;" xml:space="preserve">
<style type="text/css">
	.st0{fill:#FFC53B;}
	.st1{opacity:0.25;fill:#FFC53B;}
	.st2{fill:#FF1241;}
	.st3{opacity:0.25;fill:#FF8098;}
	.st4{fill:#99E266;}
	.st5{opacity:0.5;fill:#99E266;}
	.st6{opacity:0.3;fill:#3D77FF;}
	.st7{fill:#3D77FF;}
	.st8{fill:#F961EA;}
	.st9{opacity:0.21;fill:#F961EA;}
	.st10{fill:#17171C;}
	.st11{fill:#B65FDE;}
	.st12{opacity:0.3;fill:#B65FDE;}
</style>
<g>
	<path class="st8" d="M33.64,40.55c-0.34,0-0.67,0.07-0.97,0.19l-0.73-1.11c2.51-2.01,4.13-5.09,4.13-8.56
		c0-2.53-0.87-4.86-2.31-6.72c-1.24,4.42-2.44,8.69-2.44,8.69c0,0.01-0.01,0.02-0.01,0.02c-0.43,1.85-2.17,3.85-4.52,5.04
		c-2.64,1.42-5.45,1.22-6.94-0.34c-0.73-0.63-1.23-1.42-1.4-2.34c-0.49-2.61,1.83-5.26,5.28-6.18c0.23-0.06,0.46-0.11,0.7-0.16
		c0.38-0.07,0.75-0.11,1.12-0.14c1.41-0.1,2.73,0.12,3.84,0.6c0.05,0.03,0.1,0.05,0.15,0.08l1.95-7.46
		c-0.39-0.28-0.79-0.52-1.21-0.75l1.34-3.31c0.27,0.08,0.55,0.13,0.84,0.13c1.74,0,3.16-1.42,3.16-3.16s-1.42-3.16-3.16-3.16
		c-1.74,0-3.16,1.42-3.16,3.16c0,1.02,0.49,1.92,1.25,2.5l-1.35,3.34c-1.26-0.51-2.63-0.79-4.08-0.79c-2.68,0-5.14,0.97-7.04,2.57
		l-1.78-1.74c0.08-0.13,0.15-0.26,0.21-0.4c0.34-0.77,0.35-1.63,0.04-2.42c-0.31-0.79-0.91-1.4-1.68-1.74
		c-1.6-0.7-3.46,0.04-4.16,1.64c-0.34,0.77-0.35,1.63-0.04,2.42c0.31,0.79,0.91,1.4,1.68,1.74c0.41,0.18,0.84,0.26,1.26,0.26
		c0.68,0,1.34-0.23,1.88-0.63l1.73,1.69c-1.88,1.97-3.04,4.63-3.04,7.56c0,1.48,0.3,2.89,0.83,4.18l-5.05,3.2
		C9.36,37.7,8.46,37.2,7.43,37.2c-1.74,0-3.16,1.42-3.16,3.16s1.42,3.16,3.16,3.16s3.16-1.42,3.16-3.16c0-0.29-0.05-0.56-0.12-0.83
		l5.04-3.2c1.86,3.39,5.46,5.69,9.61,5.69c2.16,0,4.16-0.63,5.86-1.71l0.71,1.08c-0.46,0.49-0.75,1.14-0.75,1.86
		c0,1.49,1.21,2.7,2.7,2.7c1.49,0,2.7-1.21,2.7-2.7C36.34,41.76,35.13,40.55,33.64,40.55z M32.45,13.11c1.09,0,1.97,0.88,1.97,1.97
		c0,1.09-0.88,1.97-1.97,1.97c-1.09,0-1.97-0.88-1.97-1.97C30.48,13.99,31.36,13.11,32.45,13.11z M7.43,42.33
		c-1.09,0-1.97-0.88-1.97-1.97c0-1.09,0.88-1.97,1.97-1.97c1.09,0,1.97,0.88,1.97,1.97C9.4,41.44,8.52,42.33,7.43,42.33z
		 M12.82,21.09c-1-0.43-1.45-1.6-1.02-2.59c0.21-0.48,0.6-0.85,1.08-1.05c0.23-0.09,0.48-0.14,0.72-0.14c0.27,0,0.53,0.05,0.79,0.16
		c0.48,0.21,0.85,0.6,1.05,1.08c0.19,0.49,0.18,1.02-0.03,1.51C14.98,21.07,13.81,21.52,12.82,21.09z M33.64,44.77
		c-0.83,0-1.51-0.68-1.51-1.51c0-0.83,0.68-1.51,1.51-1.51c0.83,0,1.51,0.68,1.51,1.51C35.15,44.09,34.47,44.77,33.64,44.77z"/>
	<g>
		<polygon class="st9" points="37.7,22.26 36.53,22.26 36.53,26.63 40.63,33.74 40.63,33.74 41.97,36.06 35.85,46.65 32.08,46.65 
			24.09,46.65 23.61,46.65 21.56,43.1 17.86,43.1 21.76,49.86 23.22,49.86 37.7,49.86 38.53,48.42 41.9,42.58 45.67,36.06 		"/>
	</g>
</g>
<g>
	<path class="st10" d="M58.95,42.78c-1,0-1.93-0.15-2.79-0.44s-1.54-0.66-2.01-1.1l0.53-0.92c0.46,0.4,1.07,0.74,1.84,1.02
		c0.77,0.28,1.59,0.43,2.48,0.43c1.26,0,2.16-0.21,2.71-0.62c0.55-0.41,0.83-0.96,0.83-1.63c0-0.49-0.14-0.88-0.42-1.16
		c-0.28-0.28-0.66-0.5-1.14-0.66c-0.48-0.15-1-0.28-1.56-0.38s-1.13-0.21-1.7-0.33c-0.57-0.12-1.09-0.3-1.56-0.53
		c-0.48-0.23-0.85-0.55-1.14-0.95s-0.43-0.95-0.43-1.62c0-0.61,0.17-1.17,0.51-1.66c0.34-0.49,0.84-0.89,1.52-1.18
		s1.52-0.45,2.53-0.45c0.75,0,1.51,0.11,2.27,0.32c0.76,0.21,1.38,0.5,1.85,0.85l-0.53,0.92c-0.51-0.38-1.07-0.66-1.7-0.83
		c-0.63-0.17-1.26-0.25-1.91-0.25c-1.17,0-2.02,0.21-2.56,0.64c-0.54,0.43-0.82,0.97-0.82,1.61c0,0.51,0.14,0.91,0.43,1.21
		c0.28,0.3,0.66,0.53,1.14,0.69c0.47,0.16,1,0.29,1.56,0.39c0.57,0.1,1.13,0.21,1.7,0.33s1.09,0.29,1.56,0.52
		c0.47,0.22,0.85,0.53,1.14,0.92c0.28,0.39,0.43,0.92,0.43,1.58c0,0.66-0.18,1.23-0.54,1.73c-0.36,0.49-0.89,0.87-1.6,1.15
		C60.84,42.64,59.97,42.78,58.95,42.78z"/>
	<path class="st10" d="M71.6,42.78c-1.15,0-2.17-0.26-3.07-0.78c-0.9-0.52-1.61-1.24-2.14-2.16c-0.53-0.92-0.79-1.97-0.79-3.15
		c0-1.2,0.26-2.25,0.79-3.16c0.53-0.91,1.24-1.63,2.14-2.15c0.9-0.52,1.92-0.78,3.07-0.78c1.15,0,2.18,0.26,3.08,0.78
		c0.9,0.52,1.62,1.24,2.14,2.15s0.78,1.97,0.78,3.16c0,1.18-0.26,2.23-0.78,3.15c-0.52,0.92-1.23,1.64-2.14,2.16
		C73.77,42.52,72.75,42.78,71.6,42.78z M71.6,41.75c0.92,0,1.75-0.21,2.48-0.63c0.74-0.42,1.31-1.02,1.72-1.78
		c0.41-0.77,0.62-1.65,0.62-2.64c0-1.01-0.21-1.9-0.62-2.66c-0.41-0.76-0.99-1.35-1.72-1.77c-0.74-0.42-1.56-0.63-2.48-0.63
		s-1.74,0.21-2.47,0.63c-0.73,0.42-1.3,1.01-1.72,1.77c-0.42,0.76-0.63,1.64-0.63,2.66c0,1,0.21,1.88,0.63,2.64
		c0.42,0.77,1,1.36,1.72,1.78S70.68,41.75,71.6,41.75z"/>
	<path class="st10" d="M87.03,30.59c0.98,0,1.84,0.19,2.56,0.56s1.3,0.94,1.7,1.7c0.41,0.76,0.61,1.7,0.61,2.82v7.01h-1.15v-6.92
		c0-1.35-0.34-2.38-1.02-3.08c-0.68-0.71-1.64-1.06-2.86-1.06c-0.93,0-1.75,0.19-2.44,0.58c-0.69,0.38-1.22,0.92-1.58,1.61
		c-0.36,0.69-0.54,1.52-0.54,2.48v6.39h-1.15V30.68h1.1v3.33l-0.16-0.37c0.37-0.95,0.97-1.7,1.82-2.24
		C84.77,30.86,85.8,30.59,87.03,30.59z"/>
	<path class="st10" d="M101.31,42.25c-1.14,0-2.15-0.25-3.05-0.75c-0.9-0.5-1.61-1.19-2.14-2.07c-0.53-0.88-0.79-1.89-0.79-3.02
		c0-1.15,0.26-2.16,0.79-3.04c0.53-0.87,1.24-1.56,2.14-2.05c0.9-0.49,1.91-0.74,3.05-0.74c1.09,0,2.07,0.23,2.93,0.7
		s1.55,1.13,2.06,2s0.76,1.91,0.76,3.12c0,1.2-0.25,2.23-0.76,3.11s-1.19,1.55-2.06,2.02C103.38,42.01,102.4,42.25,101.31,42.25z
		 M101.63,47.24c-1.09,0-2.12-0.17-3.1-0.51c-0.98-0.34-1.78-0.8-2.39-1.4l0.62-0.87c0.6,0.55,1.31,0.98,2.15,1.29
		s1.74,0.46,2.7,0.46c1.61,0,2.79-0.38,3.55-1.13c0.76-0.75,1.14-1.93,1.14-3.54V38.2l0.23-1.79l-0.18-1.79v-3.93h1.1V41.4
		c0,2.01-0.49,3.48-1.46,4.43C105.02,46.77,103.57,47.24,101.63,47.24z M101.41,41.22c0.97,0,1.82-0.2,2.55-0.61s1.31-0.97,1.74-1.7
		s0.63-1.56,0.63-2.5c0-0.95-0.21-1.79-0.63-2.51s-1-1.28-1.74-1.68c-0.74-0.4-1.59-0.6-2.55-0.6c-0.94,0-1.78,0.2-2.52,0.6
		c-0.74,0.4-1.33,0.96-1.75,1.68s-0.63,1.56-0.63,2.51c0,0.94,0.21,1.77,0.63,2.5s1,1.3,1.75,1.7
		C99.63,41.01,100.47,41.22,101.41,41.22z"/>
	<path class="st10" d="M116.98,42.85c-1.18,0-2.24-0.26-3.19-0.79c-0.94-0.53-1.68-1.26-2.22-2.2c-0.54-0.93-0.8-2.04-0.8-3.31
		s0.27-2.38,0.8-3.31c0.54-0.93,1.28-1.66,2.22-2.18s2-0.78,3.19-0.78c1.03,0,1.95,0.23,2.76,0.68s1.46,1.14,1.93,2.06
		c0.47,0.92,0.71,2.1,0.71,3.54c0,1.43-0.23,2.6-0.69,3.53s-1.1,1.62-1.91,2.08S118.03,42.85,116.98,42.85z M117.32,40.39
		c0.69,0,1.31-0.15,1.85-0.46s0.98-0.75,1.31-1.33c0.33-0.58,0.49-1.27,0.49-2.05c0-0.8-0.17-1.48-0.49-2.06
		c-0.33-0.58-0.77-1.02-1.31-1.32c-0.54-0.31-1.16-0.46-1.85-0.46c-0.69,0-1.31,0.15-1.85,0.46c-0.54,0.31-0.98,0.75-1.31,1.32
		c-0.33,0.58-0.49,1.26-0.49,2.06c0,0.78,0.16,1.46,0.49,2.05c0.33,0.58,0.77,1.03,1.31,1.33
		C116.01,40.24,116.63,40.39,117.32,40.39z M121.05,42.69v-2.9l0.11-3.27l-0.23-3.27v-7.64h2.85v17.07H121.05z"/>
	<path class="st10" d="M129.03,28.38c-0.54,0-0.98-0.17-1.32-0.51c-0.34-0.34-0.52-0.74-0.52-1.22c0-0.49,0.17-0.9,0.52-1.23
		c0.34-0.33,0.79-0.49,1.32-0.49c0.54,0,0.98,0.16,1.32,0.47c0.35,0.31,0.52,0.71,0.52,1.18c0,0.51-0.17,0.93-0.51,1.28
		C130.03,28.21,129.58,28.38,129.03,28.38z M127.58,42.69V30.41h2.88v12.28H127.58z"/>
	<path class="st10" d="M138.02,42.85c-1.03,0-2.01-0.13-2.96-0.4c-0.94-0.27-1.69-0.59-2.24-0.98l1.1-2.19
		c0.55,0.35,1.21,0.64,1.98,0.87c0.77,0.23,1.53,0.35,2.3,0.35c0.9,0,1.56-0.12,1.97-0.37s0.61-0.58,0.61-0.99
		c0-0.34-0.14-0.59-0.41-0.77c-0.28-0.18-0.64-0.31-1.08-0.4c-0.45-0.09-0.94-0.18-1.48-0.25c-0.54-0.08-1.09-0.18-1.63-0.31
		c-0.54-0.13-1.04-0.32-1.48-0.58c-0.44-0.25-0.8-0.59-1.08-1.02c-0.28-0.43-0.41-1-0.41-1.7c0-0.78,0.22-1.46,0.67-2.04
		c0.45-0.58,1.07-1.02,1.88-1.33s1.76-0.47,2.86-0.47c0.83,0,1.66,0.09,2.51,0.28c0.84,0.18,1.54,0.44,2.09,0.78l-1.1,2.19
		c-0.58-0.35-1.17-0.59-1.76-0.72c-0.59-0.13-1.18-0.2-1.76-0.2c-0.87,0-1.52,0.13-1.94,0.39S136,33.57,136,33.97
		c0,0.37,0.14,0.64,0.41,0.83c0.28,0.18,0.64,0.33,1.08,0.44c0.44,0.11,0.94,0.2,1.48,0.26c0.54,0.07,1.08,0.17,1.62,0.31
		s1.03,0.33,1.48,0.56c0.45,0.24,0.82,0.57,1.09,1c0.28,0.43,0.41,0.99,0.41,1.68c0,0.77-0.23,1.43-0.68,2s-1.09,1.01-1.92,1.32
		C140.16,42.69,139.17,42.85,138.02,42.85z"/>
	<path class="st10" d="M144.44,32.8v-2.3h8.19v2.3H144.44z M150.69,42.85c-1.35,0-2.39-0.35-3.13-1.05c-0.74-0.7-1.1-1.73-1.1-3.09
		V27.69h2.88v10.95c0,0.58,0.15,1.04,0.45,1.36c0.3,0.32,0.72,0.48,1.25,0.48c0.64,0,1.18-0.17,1.61-0.51l0.8,2.05
		c-0.34,0.28-0.75,0.48-1.24,0.62C151.72,42.78,151.21,42.85,150.69,42.85z"/>
	<path class="st10" d="M155.82,42.69V30.41h2.74v3.38l-0.32-0.99c0.37-0.83,0.95-1.46,1.74-1.89c0.79-0.43,1.78-0.64,2.96-0.64v2.74
		c-0.12-0.03-0.24-0.05-0.34-0.06c-0.11-0.01-0.22-0.01-0.32-0.01c-1.09,0-1.96,0.32-2.6,0.95c-0.64,0.64-0.97,1.58-0.97,2.84v5.96
		H155.82z"/>
	<path class="st10" d="M170.77,42.85c-1.26,0-2.38-0.27-3.36-0.82s-1.76-1.29-2.32-2.24c-0.57-0.95-0.85-2.03-0.85-3.24
		c0-1.23,0.28-2.31,0.85-3.25s1.34-1.68,2.32-2.22c0.98-0.54,2.1-0.8,3.36-0.8c1.27,0,2.4,0.27,3.39,0.8
		c0.99,0.54,1.76,1.27,2.32,2.21c0.56,0.94,0.84,2.02,0.84,3.27c0,1.21-0.28,2.29-0.84,3.24c-0.56,0.95-1.33,1.7-2.32,2.24
		C173.18,42.58,172.04,42.85,170.77,42.85z M170.77,40.39c0.71,0,1.33-0.15,1.89-0.46s0.99-0.75,1.3-1.33
		c0.31-0.58,0.47-1.27,0.47-2.05c0-0.8-0.16-1.48-0.47-2.06c-0.31-0.58-0.75-1.02-1.3-1.32c-0.55-0.31-1.17-0.46-1.86-0.46
		c-0.71,0-1.33,0.15-1.87,0.46c-0.54,0.31-0.98,0.75-1.3,1.32s-0.48,1.26-0.48,2.06c0,0.78,0.16,1.46,0.48,2.05s0.75,1.03,1.3,1.33
		C169.46,40.24,170.08,40.39,170.77,40.39z"/>
</g>
<g>
	<path class="st10" d="M50.94,21.47v-7h2.88c0.62,0,1.15,0.1,1.59,0.3s0.79,0.49,1.03,0.86c0.24,0.37,0.36,0.82,0.36,1.33
		s-0.12,0.96-0.36,1.33c-0.24,0.37-0.58,0.66-1.03,0.86c-0.44,0.2-0.97,0.3-1.59,0.3h-2.16l0.58-0.61v2.63H50.94z M52.24,18.98
		l-0.58-0.63h2.1c0.57,0,1-0.12,1.29-0.37c0.29-0.24,0.44-0.58,0.44-1.02c0-0.45-0.15-0.79-0.44-1.03s-0.72-0.36-1.29-0.36h-2.1
		l0.58-0.64V18.98z"/>
	<path class="st10" d="M60.36,21.54c-0.55,0-1.03-0.12-1.46-0.36c-0.43-0.24-0.76-0.56-1.01-0.97c-0.25-0.41-0.37-0.88-0.37-1.41
		c0-0.53,0.12-1,0.37-1.42c0.25-0.41,0.58-0.73,1.01-0.96s0.91-0.35,1.46-0.35c0.55,0,1.04,0.12,1.48,0.35
		c0.43,0.23,0.77,0.55,1.01,0.96s0.37,0.88,0.37,1.42c0,0.53-0.12,1-0.37,1.41s-0.58,0.74-1.01,0.97
		C61.41,21.42,60.92,21.54,60.36,21.54z M60.36,20.47c0.31,0,0.58-0.07,0.82-0.2c0.24-0.13,0.43-0.33,0.57-0.58
		c0.14-0.25,0.2-0.55,0.2-0.89c0-0.35-0.07-0.65-0.2-0.9c-0.14-0.25-0.33-0.44-0.57-0.57c-0.24-0.13-0.51-0.2-0.81-0.2
		c-0.31,0-0.58,0.07-0.82,0.2c-0.24,0.13-0.42,0.32-0.57,0.57c-0.14,0.25-0.21,0.55-0.21,0.9c0,0.34,0.07,0.64,0.21,0.89
		c0.14,0.25,0.33,0.45,0.57,0.58C59.79,20.4,60.06,20.47,60.36,20.47z"/>
	<path class="st10" d="M65.44,21.47l-1.96-5.34h1.18l1.68,4.71h-0.56l1.76-4.71h1.05l1.71,4.71h-0.55l1.73-4.71h1.11l-1.97,5.34
		h-1.2l-1.56-4.17h0.37l-1.59,4.17H65.44z"/>
	<path class="st10" d="M75.81,21.54c-0.59,0-1.11-0.12-1.55-0.36c-0.44-0.24-0.79-0.56-1.03-0.97s-0.37-0.88-0.37-1.41
		c0-0.53,0.12-1,0.36-1.42c0.24-0.41,0.56-0.73,0.98-0.96s0.89-0.35,1.42-0.35c0.52,0,0.98,0.11,1.39,0.34
		c0.41,0.23,0.73,0.55,0.96,0.96c0.23,0.41,0.35,0.9,0.35,1.46c0,0.05,0,0.11,0,0.18s-0.01,0.13-0.01,0.19h-4.45v-0.83h3.79
		l-0.49,0.26c0.01-0.31-0.06-0.58-0.19-0.81c-0.13-0.23-0.32-0.42-0.55-0.55c-0.23-0.13-0.49-0.2-0.79-0.2
		c-0.31,0-0.57,0.07-0.8,0.2c-0.23,0.13-0.41,0.32-0.54,0.56c-0.13,0.24-0.2,0.51-0.2,0.83v0.2c0,0.32,0.07,0.6,0.22,0.85
		c0.15,0.25,0.35,0.44,0.62,0.57c0.27,0.13,0.57,0.2,0.92,0.2c0.3,0,0.57-0.05,0.81-0.14s0.45-0.24,0.64-0.44l0.67,0.77
		c-0.24,0.28-0.54,0.5-0.91,0.64C76.69,21.47,76.28,21.54,75.81,21.54z"/>
	<path class="st10" d="M79.52,21.47v-5.34h1.19v1.47l-0.14-0.43c0.16-0.36,0.41-0.63,0.75-0.82s0.77-0.28,1.29-0.28v1.19
		c-0.05-0.01-0.1-0.02-0.15-0.03c-0.05,0-0.09,0-0.14,0c-0.47,0-0.85,0.14-1.13,0.42c-0.28,0.28-0.42,0.69-0.42,1.24v2.59H79.52z"/>
	<path class="st10" d="M86.13,21.54c-0.59,0-1.11-0.12-1.55-0.36c-0.44-0.24-0.79-0.56-1.03-0.97s-0.37-0.88-0.37-1.41
		c0-0.53,0.12-1,0.36-1.42c0.24-0.41,0.56-0.73,0.98-0.96s0.89-0.35,1.42-0.35c0.52,0,0.98,0.11,1.39,0.34
		c0.41,0.23,0.73,0.55,0.96,0.96c0.23,0.41,0.35,0.9,0.35,1.46c0,0.05,0,0.11,0,0.18s-0.01,0.13-0.01,0.19h-4.45v-0.83h3.79
		l-0.49,0.26c0.01-0.31-0.06-0.58-0.19-0.81c-0.13-0.23-0.32-0.42-0.55-0.55c-0.23-0.13-0.49-0.2-0.79-0.2
		c-0.31,0-0.57,0.07-0.8,0.2c-0.23,0.13-0.41,0.32-0.54,0.56c-0.13,0.24-0.2,0.51-0.2,0.83v0.2c0,0.32,0.07,0.6,0.22,0.85
		c0.15,0.25,0.35,0.44,0.62,0.57c0.27,0.13,0.57,0.2,0.92,0.2c0.3,0,0.57-0.05,0.81-0.14s0.45-0.24,0.64-0.44l0.67,0.77
		c-0.24,0.28-0.54,0.5-0.91,0.64C87.01,21.47,86.6,21.54,86.13,21.54z"/>
	<path class="st10" d="M92.1,21.54c-0.51,0-0.97-0.12-1.38-0.35c-0.41-0.23-0.73-0.55-0.96-0.96c-0.23-0.41-0.35-0.89-0.35-1.44
		s0.12-1.03,0.35-1.44c0.23-0.41,0.55-0.72,0.96-0.95s0.87-0.34,1.38-0.34c0.45,0,0.85,0.1,1.2,0.29c0.35,0.2,0.63,0.5,0.84,0.9
		c0.21,0.4,0.31,0.91,0.31,1.54c0,0.62-0.1,1.13-0.3,1.54s-0.48,0.71-0.83,0.9C92.97,21.44,92.56,21.54,92.1,21.54z M92.25,20.47
		c0.3,0,0.57-0.07,0.8-0.2c0.24-0.13,0.43-0.33,0.57-0.58c0.14-0.25,0.21-0.55,0.21-0.89c0-0.35-0.07-0.65-0.21-0.9
		c-0.14-0.25-0.33-0.44-0.57-0.57c-0.24-0.13-0.5-0.2-0.8-0.2c-0.3,0-0.57,0.07-0.81,0.2c-0.24,0.13-0.43,0.32-0.57,0.57
		c-0.14,0.25-0.22,0.55-0.22,0.9c0,0.34,0.07,0.64,0.22,0.89c0.14,0.25,0.33,0.45,0.57,0.58C91.68,20.4,91.95,20.47,92.25,20.47z
		 M93.87,21.47v-1.26l0.05-1.42l-0.1-1.42v-3.32h1.24v7.42H93.87z"/>
	<path class="st10" d="M99.47,21.47v-7.42h1.25v3.32l-0.1,1.42l0.04,1.42v1.26H99.47z M102.43,21.54c-0.45,0-0.86-0.1-1.21-0.3
		c-0.35-0.2-0.63-0.5-0.83-0.9c-0.2-0.4-0.31-0.92-0.31-1.54c0-0.63,0.11-1.14,0.32-1.54s0.49-0.7,0.85-0.9
		c0.36-0.2,0.75-0.29,1.19-0.29c0.53,0,0.99,0.11,1.39,0.34s0.72,0.54,0.96,0.95c0.24,0.41,0.36,0.89,0.36,1.44
		s-0.12,1.03-0.36,1.44c-0.24,0.41-0.56,0.73-0.96,0.96C103.42,21.43,102.96,21.54,102.43,21.54z M102.29,20.47
		c0.3,0,0.57-0.07,0.81-0.2c0.24-0.13,0.42-0.33,0.56-0.58c0.14-0.25,0.21-0.55,0.21-0.89c0-0.35-0.07-0.65-0.21-0.9
		c-0.14-0.25-0.33-0.44-0.56-0.57c-0.24-0.13-0.5-0.2-0.81-0.2c-0.3,0-0.57,0.07-0.81,0.2c-0.24,0.13-0.43,0.32-0.57,0.57
		c-0.14,0.25-0.21,0.55-0.21,0.9c0,0.34,0.07,0.64,0.21,0.89c0.14,0.25,0.33,0.45,0.57,0.58C101.72,20.4,101.99,20.47,102.29,20.47z
		"/>
	<path class="st10" d="M106.62,23.48c-0.26,0-0.52-0.04-0.78-0.13c-0.26-0.09-0.48-0.21-0.65-0.36l0.5-0.92
		c0.13,0.11,0.27,0.2,0.43,0.27s0.32,0.1,0.49,0.1c0.23,0,0.41-0.06,0.55-0.17c0.14-0.11,0.27-0.3,0.39-0.57l0.31-0.7l0.1-0.15
		l2.02-4.72h1.2l-2.5,5.77c-0.17,0.4-0.35,0.72-0.56,0.95c-0.2,0.23-0.43,0.4-0.68,0.49C107.2,23.43,106.92,23.48,106.62,23.48z
		 M107.72,21.66l-2.41-5.53h1.3l1.96,4.61L107.72,21.66z"/>
</g>
</svg>
