<?xml version="1.0" encoding="utf-8"?>
<!-- Generator: Adobe Illustrator 26.3.1, SVG Export Plug-In . SVG Version: 6.00 Build 0)  -->
<svg version="1.1" id="Layer_1" xmlns="http://www.w3.org/2000/svg" xmlns:xlink="http://www.w3.org/1999/xlink" x="0px" y="0px"
	 viewBox="0 0 210 60" style="enable-background:new 0 0 210 60;" xml:space="preserve">
<style type="text/css">
	.st0{fill:#FFC53B;}
	.st1{opacity:0.25;fill:#FFC53B;}
	.st2{fill:#FF1241;}
	.st3{opacity:0.25;fill:#FF8098;}
	.st4{fill:#99E266;}
	.st5{opacity:0.5;fill:#99E266;}
	.st6{opacity:0.3;fill:#3D77FF;}
	.st7{fill:#3D77FF;}
	.st8{fill:#F961EA;}
	.st9{opacity:0.21;fill:#F961EA;}
	.st10{fill:#17171C;}
	.st11{fill:#B65FDE;}
	.st12{opacity:0.3;fill:#B65FDE;}
</style>
<g>
	<path class="st2" d="M70.33,2.89l-28.02,10.5c-0.99,0.37-2.57,1.03-2.8,2.06l-3.74,15.14c-0.06-0.04-0.12-0.07-0.19-0.11
		c-1.44-0.62-3.17-0.91-5.01-0.78c-0.48,0.03-0.97,0.09-1.46,0.18c-0.31,0.06-0.62,0.13-0.92,0.21c-4.49,1.19-7.52,4.66-6.89,8.06
		c0.22,1.2,0.88,2.23,1.83,3.05c1.95,2.05,5.61,2.3,9.06,0.45c3.06-1.56,5.34-4.16,5.9-6.58c0-0.01,0.01-0.02,0.01-0.03
		c0,0,3.92-13.77,4.39-15.87c0.22-0.98,0.9-1.79,1.82-2.19L66.16,6.51c0.32-0.14,0.55,0.33,0.25,0.5L45.07,18.45
		c-1.39,0.77-1.8,1.47-2.18,3.01c-0.19,0.77,0.2,1.57,0.92,1.89l0.67,0.39c3.51,1.55,6.24,1.54,8.64-0.08
		c0.19-0.13,0.15-0.41-0.06-0.48l-8.37-2.75c-0.23-0.08-0.26-0.39-0.04-0.5l0.23-0.12c0.15-0.08,0.33-0.1,0.49-0.05l6.7,2.1
		c0.74,0.23,1.51,0.34,2.28,0.27c5.05-0.45,8.63-3.22,10.59-6.67c0.1-0.17-0.05-0.37-0.24-0.35l-14.18,1.8
		c-0.14,0.02-0.2-0.17-0.07-0.23l0.75-0.38c0.43-0.22,0.89-0.37,1.37-0.45C59.28,14.73,69.14,13.09,70.59,5
		C70.71,3.98,70.54,2.81,70.33,2.89z"/>
	<g>
		<polygon class="st3" points="41.65,28.87 40.47,33.23 41.8,35.54 35.69,46.14 31.92,46.14 23.45,46.14 17.33,35.54 23.45,24.95 
			27.22,24.95 35.21,24.95 36.08,21.74 21.6,21.74 20.77,23.18 17.4,29.02 17.4,29.02 13.63,35.54 21.6,49.35 37.53,49.35 
			38.36,47.91 38.36,47.91 41.73,42.07 41.73,42.07 45.5,35.54 		"/>
	</g>
</g>
<g>
	<path class="st10" d="M58.95,43.4c-1,0-1.93-0.15-2.79-0.44s-1.54-0.66-2.01-1.1l0.53-0.92c0.46,0.4,1.07,0.74,1.84,1.02
		c0.77,0.28,1.59,0.43,2.48,0.43c1.26,0,2.16-0.21,2.71-0.62c0.55-0.41,0.83-0.96,0.83-1.63c0-0.49-0.14-0.88-0.42-1.16
		c-0.28-0.28-0.66-0.5-1.14-0.66c-0.48-0.15-1-0.28-1.56-0.38s-1.13-0.21-1.7-0.33c-0.57-0.12-1.09-0.3-1.56-0.53
		c-0.48-0.23-0.85-0.55-1.14-0.95s-0.43-0.95-0.43-1.62c0-0.61,0.17-1.17,0.51-1.66c0.34-0.49,0.84-0.89,1.52-1.18
		s1.52-0.45,2.53-0.45c0.75,0,1.51,0.11,2.27,0.32c0.76,0.21,1.38,0.5,1.85,0.85l-0.53,0.92c-0.51-0.38-1.07-0.66-1.7-0.83
		s-1.26-0.25-1.91-0.25c-1.17,0-2.02,0.21-2.56,0.64c-0.54,0.43-0.82,0.97-0.82,1.61c0,0.51,0.14,0.91,0.43,1.21
		c0.28,0.3,0.66,0.53,1.14,0.69c0.47,0.16,1,0.29,1.56,0.39c0.57,0.1,1.13,0.21,1.7,0.33s1.09,0.29,1.56,0.52
		c0.47,0.22,0.85,0.53,1.14,0.92c0.28,0.39,0.43,0.92,0.43,1.58c0,0.66-0.18,1.23-0.54,1.73c-0.36,0.49-0.89,0.87-1.6,1.15
		C60.84,43.26,59.98,43.4,58.95,43.4z"/>
	<path class="st10" d="M71.6,43.4c-1.15,0-2.17-0.26-3.07-0.78c-0.9-0.52-1.61-1.24-2.14-2.16c-0.53-0.92-0.79-1.97-0.79-3.15
		c0-1.2,0.26-2.25,0.79-3.16c0.53-0.91,1.24-1.63,2.14-2.15c0.9-0.52,1.92-0.78,3.07-0.78c1.15,0,2.18,0.26,3.08,0.78
		c0.9,0.52,1.62,1.24,2.14,2.15s0.78,1.97,0.78,3.16c0,1.18-0.26,2.23-0.78,3.15c-0.52,0.92-1.23,1.64-2.14,2.16
		C73.77,43.14,72.75,43.4,71.6,43.4z M71.6,42.36c0.92,0,1.75-0.21,2.48-0.63c0.74-0.42,1.31-1.02,1.72-1.78
		c0.41-0.77,0.62-1.65,0.62-2.64c0-1.01-0.21-1.9-0.62-2.66c-0.41-0.76-0.99-1.35-1.72-1.77c-0.74-0.42-1.56-0.63-2.48-0.63
		s-1.74,0.21-2.47,0.63c-0.73,0.42-1.3,1.01-1.72,1.77c-0.42,0.76-0.63,1.64-0.63,2.66c0,1,0.21,1.88,0.63,2.64
		c0.42,0.77,1,1.36,1.72,1.78S70.68,42.36,71.6,42.36z"/>
	<path class="st10" d="M87.03,31.21c0.98,0,1.84,0.19,2.56,0.56s1.3,0.94,1.7,1.7c0.41,0.76,0.61,1.7,0.61,2.82v7.01h-1.15v-6.92
		c0-1.35-0.34-2.38-1.02-3.08c-0.68-0.71-1.64-1.06-2.86-1.06c-0.93,0-1.75,0.19-2.44,0.58c-0.69,0.38-1.22,0.92-1.58,1.61
		c-0.36,0.69-0.54,1.52-0.54,2.48v6.39h-1.15V31.3h1.1v3.33l-0.16-0.37c0.37-0.95,0.97-1.7,1.82-2.24
		C84.77,31.48,85.8,31.21,87.03,31.21z"/>
	<path class="st10" d="M101.31,42.87c-1.14,0-2.15-0.25-3.05-0.75c-0.9-0.5-1.61-1.19-2.14-2.07c-0.53-0.88-0.79-1.89-0.79-3.02
		c0-1.15,0.26-2.16,0.79-3.04c0.53-0.87,1.24-1.56,2.14-2.05c0.9-0.49,1.91-0.74,3.05-0.74c1.09,0,2.07,0.23,2.93,0.7
		s1.55,1.13,2.06,2s0.76,1.91,0.76,3.12c0,1.2-0.25,2.23-0.76,3.11s-1.19,1.55-2.06,2.02C103.38,42.63,102.4,42.87,101.31,42.87z
		 M101.64,47.86c-1.09,0-2.12-0.17-3.1-0.51c-0.98-0.34-1.78-0.8-2.39-1.4l0.62-0.87c0.6,0.55,1.31,0.98,2.15,1.29
		s1.74,0.46,2.7,0.46c1.61,0,2.79-0.38,3.55-1.13c0.76-0.75,1.14-1.93,1.14-3.54v-3.33l0.23-1.79l-0.18-1.79V31.3h1.1v10.72
		c0,2.01-0.49,3.48-1.46,4.43C105.02,47.39,103.57,47.86,101.64,47.86z M101.41,41.83c0.97,0,1.82-0.2,2.55-0.61s1.31-0.97,1.74-1.7
		s0.63-1.56,0.63-2.5c0-0.95-0.21-1.79-0.63-2.51s-1-1.28-1.74-1.68s-1.59-0.6-2.55-0.6c-0.94,0-1.78,0.2-2.52,0.6
		c-0.74,0.4-1.33,0.96-1.75,1.68s-0.63,1.56-0.63,2.51c0,0.94,0.21,1.77,0.63,2.5s1,1.3,1.75,1.7
		C99.63,41.63,100.47,41.83,101.41,41.83z"/>
	<path class="st10" d="M110.24,32.93v-1.82h7.77v1.82H110.24z M112.31,43.31V30.03c0-1.2,0.35-2.15,1.05-2.86
		c0.7-0.71,1.69-1.07,2.98-1.07c0.47,0,0.93,0.06,1.37,0.17c0.44,0.12,0.81,0.29,1.12,0.54l-0.67,1.68
		c-0.23-0.18-0.49-0.33-0.78-0.43s-0.6-0.15-0.92-0.15c-0.64,0-1.13,0.18-1.47,0.54c-0.34,0.36-0.51,0.89-0.51,1.6v1.63l0.05,1.01
		v10.6H112.31z M120.1,43.31V26.24h2.21v17.07H120.1z"/>
	<path class="st10" d="M127.05,47.9c-0.58,0-1.15-0.1-1.7-0.29c-0.55-0.19-1.03-0.47-1.43-0.84l0.94-1.66
		c0.31,0.29,0.64,0.51,1.01,0.67c0.37,0.15,0.76,0.23,1.17,0.23c0.54,0,0.98-0.14,1.33-0.41c0.35-0.28,0.68-0.77,0.99-1.47
		l0.76-1.68l0.23-0.28l4.78-11.06h2.16l-5.91,13.41c-0.35,0.86-0.75,1.53-1.18,2.02c-0.44,0.49-0.92,0.84-1.44,1.05
		S127.68,47.9,127.05,47.9z M129.95,43.7l-5.57-12.58h2.3l4.74,10.86L129.95,43.7z"/>
</g>
<g>
	<path class="st10" d="M72.94,22.09v-7h2.88c0.62,0,1.15,0.1,1.59,0.3s0.79,0.49,1.03,0.86c0.24,0.37,0.36,0.82,0.36,1.33
		s-0.12,0.96-0.36,1.33c-0.24,0.37-0.58,0.66-1.03,0.86c-0.44,0.2-0.97,0.3-1.59,0.3h-2.16l0.58-0.61v2.63H72.94z M74.24,19.6
		l-0.58-0.63h2.1c0.57,0,1-0.12,1.29-0.37c0.29-0.24,0.44-0.58,0.44-1.02c0-0.45-0.15-0.79-0.44-1.03s-0.72-0.36-1.29-0.36h-2.1
		l0.58-0.64V19.6z"/>
	<path class="st10" d="M82.36,22.16c-0.55,0-1.03-0.12-1.46-0.36c-0.43-0.24-0.76-0.56-1.01-0.97c-0.25-0.41-0.37-0.88-0.37-1.41
		c0-0.53,0.12-1,0.37-1.42c0.25-0.41,0.58-0.73,1.01-0.96s0.91-0.35,1.46-0.35c0.55,0,1.04,0.12,1.48,0.35
		c0.43,0.23,0.77,0.55,1.01,0.96s0.37,0.88,0.37,1.42c0,0.53-0.12,1-0.37,1.41s-0.58,0.74-1.01,0.97
		C83.41,22.04,82.92,22.16,82.36,22.16z M82.36,21.09c0.31,0,0.58-0.07,0.82-0.2c0.24-0.13,0.43-0.33,0.57-0.58
		c0.14-0.25,0.2-0.55,0.2-0.89c0-0.35-0.07-0.65-0.2-0.9c-0.14-0.25-0.33-0.44-0.57-0.57c-0.24-0.13-0.51-0.2-0.81-0.2
		c-0.31,0-0.58,0.07-0.82,0.2c-0.24,0.13-0.42,0.32-0.57,0.57c-0.14,0.25-0.21,0.55-0.21,0.9c0,0.34,0.07,0.64,0.21,0.89
		c0.14,0.25,0.33,0.45,0.57,0.58C81.79,21.02,82.06,21.09,82.36,21.09z"/>
	<path class="st10" d="M87.44,22.09l-1.96-5.34h1.18l1.68,4.71h-0.56l1.76-4.71h1.05l1.71,4.71h-0.55l1.73-4.71h1.11l-1.97,5.34
		h-1.2l-1.56-4.17h0.37l-1.59,4.17H87.44z"/>
	<path class="st10" d="M97.81,22.16c-0.59,0-1.11-0.12-1.55-0.36c-0.44-0.24-0.79-0.56-1.03-0.97s-0.37-0.88-0.37-1.41
		c0-0.53,0.12-1,0.36-1.42c0.24-0.41,0.56-0.73,0.98-0.96s0.89-0.35,1.42-0.35c0.52,0,0.98,0.11,1.39,0.34
		c0.41,0.23,0.73,0.55,0.96,0.96c0.23,0.41,0.35,0.9,0.35,1.46c0,0.05,0,0.11,0,0.18s-0.01,0.13-0.01,0.19h-4.45v-0.83h3.79
		l-0.49,0.26c0.01-0.31-0.06-0.58-0.19-0.81c-0.13-0.23-0.32-0.42-0.55-0.55c-0.23-0.13-0.49-0.2-0.79-0.2
		c-0.31,0-0.57,0.07-0.8,0.2c-0.23,0.13-0.41,0.32-0.54,0.56c-0.13,0.24-0.2,0.51-0.2,0.83v0.2c0,0.32,0.07,0.6,0.22,0.85
		c0.15,0.25,0.35,0.44,0.62,0.57c0.27,0.13,0.57,0.2,0.92,0.2c0.3,0,0.57-0.05,0.81-0.14s0.45-0.24,0.64-0.44l0.67,0.77
		c-0.24,0.28-0.54,0.5-0.91,0.64C98.69,22.08,98.28,22.16,97.81,22.16z"/>
	<path class="st10" d="M101.52,22.09v-5.34h1.19v1.47l-0.14-0.43c0.16-0.36,0.41-0.63,0.75-0.82s0.77-0.28,1.29-0.28v1.19
		c-0.05-0.01-0.1-0.02-0.15-0.03c-0.05,0-0.09,0-0.14,0c-0.47,0-0.85,0.14-1.13,0.42c-0.28,0.28-0.42,0.69-0.42,1.24v2.59H101.52z"
		/>
	<path class="st10" d="M108.13,22.16c-0.59,0-1.11-0.12-1.55-0.36c-0.44-0.24-0.79-0.56-1.03-0.97s-0.37-0.88-0.37-1.41
		c0-0.53,0.12-1,0.36-1.42c0.24-0.41,0.56-0.73,0.98-0.96s0.89-0.35,1.42-0.35c0.52,0,0.98,0.11,1.39,0.34
		c0.41,0.23,0.73,0.55,0.96,0.96c0.23,0.41,0.35,0.9,0.35,1.46c0,0.05,0,0.11,0,0.18s-0.01,0.13-0.01,0.19h-4.45v-0.83h3.79
		l-0.49,0.26c0.01-0.31-0.06-0.58-0.19-0.81c-0.13-0.23-0.32-0.42-0.55-0.55c-0.23-0.13-0.49-0.2-0.79-0.2
		c-0.31,0-0.57,0.07-0.8,0.2c-0.23,0.13-0.41,0.32-0.54,0.56c-0.13,0.24-0.2,0.51-0.2,0.83v0.2c0,0.32,0.07,0.6,0.22,0.85
		c0.15,0.25,0.35,0.44,0.62,0.57c0.27,0.13,0.57,0.2,0.92,0.2c0.3,0,0.57-0.05,0.81-0.14s0.45-0.24,0.64-0.44l0.67,0.77
		c-0.24,0.28-0.54,0.5-0.91,0.64C109.01,22.08,108.6,22.16,108.13,22.16z"/>
	<path class="st10" d="M114.1,22.16c-0.51,0-0.97-0.12-1.38-0.35c-0.41-0.23-0.73-0.55-0.96-0.96c-0.23-0.41-0.35-0.89-0.35-1.44
		s0.12-1.03,0.35-1.44c0.23-0.41,0.55-0.72,0.96-0.95s0.87-0.34,1.38-0.34c0.45,0,0.85,0.1,1.2,0.29c0.35,0.2,0.63,0.5,0.84,0.9
		c0.21,0.4,0.31,0.91,0.31,1.54c0,0.62-0.1,1.13-0.3,1.54s-0.48,0.71-0.83,0.9C114.97,22.06,114.56,22.16,114.1,22.16z
		 M114.25,21.09c0.3,0,0.57-0.07,0.8-0.2c0.24-0.13,0.43-0.33,0.57-0.58c0.14-0.25,0.21-0.55,0.21-0.89c0-0.35-0.07-0.65-0.21-0.9
		c-0.14-0.25-0.33-0.44-0.57-0.57c-0.24-0.13-0.5-0.2-0.8-0.2c-0.3,0-0.57,0.07-0.81,0.2c-0.24,0.13-0.43,0.32-0.57,0.57
		c-0.14,0.25-0.22,0.55-0.22,0.9c0,0.34,0.07,0.64,0.22,0.89c0.14,0.25,0.33,0.45,0.57,0.58C113.68,21.02,113.95,21.09,114.25,21.09
		z M115.87,22.09v-1.26l0.05-1.42l-0.1-1.42v-3.32h1.24v7.42H115.87z"/>
	<path class="st10" d="M121.47,22.09v-7.42h1.25v3.32l-0.1,1.42l0.04,1.42v1.26H121.47z M124.43,22.16c-0.45,0-0.86-0.1-1.21-0.3
		c-0.35-0.2-0.63-0.5-0.83-0.9c-0.2-0.4-0.31-0.92-0.31-1.54c0-0.63,0.11-1.14,0.32-1.54s0.49-0.7,0.85-0.9
		c0.36-0.2,0.75-0.29,1.19-0.29c0.53,0,0.99,0.11,1.39,0.34s0.72,0.54,0.96,0.95c0.24,0.41,0.36,0.89,0.36,1.44
		s-0.12,1.03-0.36,1.44c-0.24,0.41-0.56,0.73-0.96,0.96C125.42,22.04,124.96,22.16,124.43,22.16z M124.29,21.09
		c0.3,0,0.57-0.07,0.81-0.2c0.24-0.13,0.42-0.33,0.56-0.58c0.14-0.25,0.21-0.55,0.21-0.89c0-0.35-0.07-0.65-0.21-0.9
		c-0.14-0.25-0.33-0.44-0.56-0.57c-0.24-0.13-0.5-0.2-0.81-0.2c-0.3,0-0.57,0.07-0.81,0.2c-0.24,0.13-0.43,0.32-0.57,0.57
		c-0.14,0.25-0.21,0.55-0.21,0.9c0,0.34,0.07,0.64,0.21,0.89c0.14,0.25,0.33,0.45,0.57,0.58C123.72,21.02,123.99,21.09,124.29,21.09
		z"/>
	<path class="st10" d="M128.62,24.1c-0.26,0-0.52-0.04-0.78-0.13c-0.26-0.09-0.48-0.21-0.65-0.36l0.5-0.92
		c0.13,0.11,0.27,0.2,0.43,0.27s0.32,0.1,0.49,0.1c0.23,0,0.41-0.06,0.55-0.17c0.14-0.11,0.27-0.3,0.39-0.57l0.31-0.7l0.1-0.15
		l2.02-4.72h1.2l-2.5,5.77c-0.17,0.4-0.35,0.72-0.56,0.95c-0.2,0.23-0.43,0.4-0.68,0.49C129.2,24.05,128.92,24.1,128.62,24.1z
		 M129.72,22.28l-2.41-5.53h1.3l1.96,4.61L129.72,22.28z"/>
</g>
</svg>
