<?xml version="1.0" encoding="utf-8"?>
<!-- Generator: Adobe Illustrator 26.3.1, SVG Export Plug-In . SVG Version: 6.00 Build 0)  -->
<svg version="1.1" id="Layer_1" xmlns="http://www.w3.org/2000/svg" xmlns:xlink="http://www.w3.org/1999/xlink" x="0px" y="0px"
	 viewBox="0 0 210 60" style="enable-background:new 0 0 210 60;" xml:space="preserve">
<style type="text/css">
	.st0{fill:#FFC53B;}
	.st1{opacity:0.25;fill:#FFC53B;}
	.st2{fill:#FF1241;}
	.st3{opacity:0.25;fill:#FF8098;}
	.st4{fill:#99E266;}
	.st5{opacity:0.5;fill:#99E266;}
	.st6{opacity:0.3;fill:#3D77FF;}
	.st7{fill:#3D77FF;}
	.st8{fill:#F961EA;}
	.st9{opacity:0.21;fill:#F961EA;}
	.st10{fill:#17171C;}
	.st11{fill:#B65FDE;}
	.st12{opacity:0.3;fill:#B65FDE;}
</style>
<g>
	<g>
		<path class="st0" d="M34.4-250.74h-2.62c-1.57,5.35-3.85,13.04-3.85,13.04c0,0.01-0.01,0.02-0.01,0.02
			c-0.44,1.83-2.26,3.8-4.7,4.97c-2.75,1.4-5.67,1.21-7.22-0.34c-0.76-0.62-1.28-1.41-1.46-2.31c-0.51-2.58,1.91-5.2,5.49-6.1
			c0.24-0.06,0.48-0.11,0.73-0.16c0.39-0.07,0.78-0.11,1.17-0.14c1.46-0.1,2.84,0.12,3.99,0.59c0.05,0.03,0.1,0.05,0.15,0.08
			l2.67-9.67H9.91c-1.19,0-2.15,0.91-2.15,2.04v17.56c0,1.13,0.96,2.04,2.15,2.04H34.4c1.19,0,2.15-0.91,2.15-2.04v-17.56
			C36.55-249.83,35.58-250.74,34.4-250.74z M21.9-248.28c0.96,0,1.73,0.74,1.73,1.65c0,0.91-0.78,1.65-1.73,1.65
			c-0.96,0-1.73-0.74-1.73-1.65C20.17-247.55,20.94-248.28,21.9-248.28z M16.93-248.28c0.96,0,1.73,0.74,1.73,1.65
			c0,0.91-0.78,1.65-1.73,1.65c-0.96,0-1.73-0.74-1.73-1.65C15.2-247.55,15.98-248.28,16.93-248.28z M11.96-244.99
			c-0.96,0-1.73-0.74-1.73-1.65c0-0.91,0.78-1.65,1.73-1.65c0.96,0,1.73,0.74,1.73,1.65C13.7-245.73,12.92-244.99,11.96-244.99z"/>
	</g>
	<g>
		<polygon class="st1" points="41.56,-242.12 41.56,-242.12 38.68,-247.26 38.68,-240.85 41.97,-235.01 35.85,-224.41 
			32.08,-224.41 32.08,-224.41 24.53,-224.41 23.61,-224.41 21.89,-227.41 18.19,-227.41 21.77,-221.21 23.67,-221.21 37.7,-221.21 
			37.7,-221.21 38.53,-222.65 41.9,-228.48 45.67,-235.01 		"/>
	</g>
</g>
<g>
	<path class="st2" d="M70.33-449.11l-28.02,10.5c-0.99,0.37-2.57,1.03-2.8,2.06l-3.74,15.14c-0.06-0.04-0.12-0.07-0.19-0.11
		c-1.44-0.62-3.17-0.91-5.01-0.78c-0.48,0.03-0.97,0.09-1.46,0.18c-0.31,0.06-0.62,0.13-0.92,0.21c-4.49,1.19-7.52,4.66-6.89,8.06
		c0.22,1.2,0.88,2.23,1.83,3.05c1.95,2.05,5.61,2.3,9.06,0.45c3.06-1.56,5.34-4.16,5.9-6.58c0-0.01,0.01-0.02,0.01-0.03
		c0,0,3.92-13.77,4.39-15.87c0.22-0.98,0.9-1.79,1.82-2.19l21.86-10.47c0.32-0.14,0.55,0.33,0.25,0.5l-21.33,11.44
		c-1.39,0.77-1.8,1.47-2.18,3.01c-0.19,0.77,0.2,1.57,0.92,1.89l0.67,0.39c3.51,1.55,6.24,1.54,8.64-0.08
		c0.19-0.13,0.15-0.41-0.06-0.48l-8.37-2.75c-0.23-0.08-0.26-0.39-0.04-0.5l0.23-0.12c0.15-0.08,0.33-0.1,0.49-0.05l6.7,2.1
		c0.74,0.23,1.51,0.34,2.28,0.27c5.05-0.45,8.63-3.22,10.59-6.67c0.1-0.17-0.05-0.37-0.24-0.35l-14.18,1.8
		c-0.14,0.02-0.2-0.17-0.07-0.23l0.75-0.38c0.43-0.22,0.89-0.37,1.37-0.45c6.71-1.13,16.57-2.77,18.03-10.87
		C70.71-448.02,70.54-449.19,70.33-449.11z"/>
	<g>
		<polygon class="st3" points="41.65,-423.13 40.47,-418.77 41.8,-416.46 35.69,-405.86 31.92,-405.86 23.45,-405.86 17.33,-416.46 
			23.45,-427.05 27.22,-427.05 35.21,-427.05 36.08,-430.26 21.6,-430.26 20.77,-428.82 17.4,-422.98 17.4,-422.98 13.63,-416.46 
			21.6,-402.65 37.53,-402.65 38.36,-404.09 38.36,-404.09 41.73,-409.93 41.73,-409.93 45.5,-416.46 		"/>
	</g>
</g>
<g>
	<g>
		<g>
			<path class="st4" d="M35.28-162.29c-0.01-0.62-0.5-1.12-1.12-1.14l-6.28,0.17c-0.68-0.02-1.3,0.38-1.56,1.01l-1.19,2.46
				l-15.04,0.33c-0.86,0.02-1.6,0.61-1.82,1.44l22.2-0.26c0.61-0.01,1.13,0.44,1.21,1.05l2.48,19.18c0.89-1.16,1.37-2.59,1.35-4.05
				L35.28-162.29z"/>
			<path class="st4" d="M29.01-156.08l-2.43,0.03c-1.12,4.57-2.62,10.66-2.62,10.66c0,0.01-0.01,0.01-0.01,0.02
				c-0.31,1.57-1.73,3.31-3.68,4.38c-2.19,1.27-4.56,1.18-5.87-0.1c-0.63-0.51-1.07-1.17-1.24-1.94c-0.48-2.19,1.4-4.49,4.29-5.36
				c0.19-0.06,0.39-0.11,0.59-0.15c0.32-0.07,0.63-0.12,0.94-0.15c1.18-0.12,2.31,0.03,3.25,0.4c0.04,0.02,0.08,0.04,0.13,0.06
				l1.78-7.8l-18.47,0.2c-0.44,0-0.78,0.4-0.71,0.84l2.4,15.74c0.13,0.85,0.86,1.48,1.72,1.49l22.69,0.13
				c0.17,0,0.31-0.15,0.29-0.32L30-155.22C29.94-155.72,29.51-156.09,29.01-156.08z"/>
		</g>
		<g>
			<polygon class="st5" points="37.77,-158.08 37.77,-151.68 40.63,-146.73 40.63,-146.73 41.97,-144.41 35.85,-133.81 
				32.08,-133.81 24.09,-133.81 23.61,-133.81 22.38,-135.95 18.68,-135.95 21.76,-130.61 23.22,-130.61 37.7,-130.61 
				38.53,-132.04 41.9,-137.88 45.67,-144.41 			"/>
		</g>
	</g>
</g>
<g>
	<polygon class="st6" points="42.01,-332.52 41.56,-333.29 40.18,-335.68 40.18,-329.28 40.86,-328.11 40.86,-328.11 41.97,-326.18 
		35.85,-315.58 32.08,-315.58 32.08,-315.58 24.53,-315.58 23.67,-315.58 23.61,-315.58 22.36,-317.75 18.66,-317.75 21.77,-312.37 
		22.84,-312.37 23.67,-312.37 37.7,-312.37 37.7,-312.37 38.53,-313.81 41.9,-319.65 45.67,-326.18 42.01,-332.52 	"/>
	<path class="st7" d="M35.73-339.98c-0.89-1.06-1.96-2-3.17-2.79c-0.25,0.91-0.52,1.85-0.78,2.79c-0.31,1.1-0.61,2.18-0.9,3.2
		c-0.89,3.17-1.59,5.66-1.59,5.66c0,0.01-0.01,0.02-0.01,0.03c-0.44,1.89-2.21,3.92-4.61,5.14c-2.7,1.45-5.55,1.25-7.08-0.35
		c-0.01,0-0.01-0.01-0.01-0.01c-0.73-0.64-1.24-1.44-1.41-2.37c-0.11-0.57-0.07-1.15,0.07-1.71c0.21-0.83,0.68-1.63,1.35-2.33
		c0.96-1.01,2.34-1.83,3.97-2.26c0.23-0.06,0.47-0.12,0.72-0.16c0.15-0.03,0.3-0.05,0.45-0.07c0.23-0.03,0.46-0.06,0.69-0.07
		c1.43-0.1,2.79,0.13,3.91,0.61c0.05,0.03,0.1,0.05,0.15,0.08l0.57-2.18l0.84-3.2l1.09-4.16c-2.07-0.86-4.4-1.35-6.87-1.35
		c-8.54,0-15.47,5.83-15.47,13.01c0,3.06,1.26,5.87,3.36,8.09l-0.67,5.28c-0.09,0.7,0.61,1.23,1.25,0.96l5.53-2.31l0.02-0.01
		c1.32,0.47,2.73,0.78,4.21,0.92c0.58,0.06,1.18,0.09,1.78,0.09c8.39,0,15.22-5.62,15.46-12.63c0-0.13,0.01-0.25,0.01-0.38
		C38.57-335.27,37.51-337.86,35.73-339.98z"/>
</g>
<g>
	<path class="st8" d="M33.64-49.85c-0.34,0-0.67,0.07-0.97,0.19l-0.73-1.11c2.51-2.01,4.13-5.09,4.13-8.56
		c0-2.53-0.87-4.86-2.31-6.72c-1.24,4.42-2.44,8.69-2.44,8.69c0,0.01-0.01,0.02-0.01,0.02c-0.43,1.85-2.17,3.85-4.52,5.04
		c-2.64,1.42-5.45,1.22-6.94-0.34c-0.73-0.63-1.23-1.42-1.4-2.34c-0.49-2.61,1.83-5.26,5.28-6.18c0.23-0.06,0.46-0.11,0.7-0.16
		c0.38-0.07,0.75-0.11,1.12-0.14c1.41-0.1,2.73,0.12,3.84,0.6c0.05,0.03,0.1,0.05,0.15,0.08l1.95-7.46
		c-0.39-0.28-0.79-0.52-1.21-0.75l1.34-3.31c0.27,0.08,0.55,0.13,0.84,0.13c1.74,0,3.16-1.42,3.16-3.16c0-1.74-1.42-3.16-3.16-3.16
		c-1.74,0-3.16,1.42-3.16,3.16c0,1.02,0.49,1.92,1.25,2.5l-1.35,3.34c-1.26-0.51-2.63-0.79-4.08-0.79c-2.68,0-5.14,0.97-7.04,2.57
		l-1.78-1.74c0.08-0.13,0.15-0.26,0.21-0.4c0.34-0.77,0.35-1.63,0.04-2.42c-0.31-0.79-0.91-1.4-1.68-1.74
		c-1.6-0.7-3.46,0.04-4.16,1.64c-0.34,0.77-0.35,1.63-0.04,2.42c0.31,0.79,0.91,1.4,1.68,1.74c0.41,0.18,0.84,0.26,1.26,0.26
		c0.68,0,1.34-0.23,1.88-0.63l1.73,1.69c-1.88,1.97-3.04,4.63-3.04,7.56c0,1.48,0.3,2.89,0.83,4.18l-5.05,3.2
		C9.36-52.7,8.46-53.2,7.43-53.2c-1.74,0-3.16,1.42-3.16,3.16c0,1.74,1.42,3.16,3.16,3.16s3.16-1.42,3.16-3.16
		c0-0.29-0.05-0.56-0.12-0.83l5.04-3.2c1.86,3.39,5.46,5.69,9.61,5.69c2.16,0,4.16-0.63,5.86-1.71L31.68-49
		c-0.46,0.49-0.75,1.14-0.75,1.86c0,1.49,1.21,2.7,2.7,2.7c1.49,0,2.7-1.21,2.7-2.7C36.34-48.64,35.13-49.85,33.64-49.85z
		 M32.45-77.29c1.09,0,1.97,0.88,1.97,1.97c0,1.09-0.88,1.97-1.97,1.97c-1.09,0-1.97-0.88-1.97-1.97
		C30.48-76.41,31.36-77.29,32.45-77.29z M7.43-48.07c-1.09,0-1.97-0.88-1.97-1.97c0-1.09,0.88-1.97,1.97-1.97
		c1.09,0,1.97,0.88,1.97,1.97C9.4-48.96,8.52-48.07,7.43-48.07z M12.82-69.31c-1-0.43-1.45-1.6-1.02-2.59
		c0.21-0.48,0.6-0.85,1.08-1.05c0.23-0.09,0.48-0.14,0.72-0.14c0.27,0,0.53,0.05,0.79,0.16c0.48,0.21,0.85,0.6,1.05,1.08
		c0.19,0.49,0.18,1.02-0.03,1.51C14.98-69.33,13.81-68.88,12.82-69.31z M33.64-45.63c-0.83,0-1.51-0.68-1.51-1.51
		c0-0.83,0.68-1.51,1.51-1.51c0.83,0,1.51,0.68,1.51,1.51C35.15-46.31,34.47-45.63,33.64-45.63z"/>
	<g>
		<polygon class="st9" points="37.7,-68.14 36.53,-68.14 36.53,-63.77 40.63,-56.66 40.63,-56.66 41.97,-54.34 35.85,-43.75 
			32.08,-43.75 24.09,-43.75 23.61,-43.75 21.56,-47.3 17.86,-47.3 21.76,-40.54 23.22,-40.54 37.7,-40.54 38.53,-41.98 
			41.9,-47.82 45.67,-54.34 		"/>
	</g>
</g>
<g>
	<path class="st10" d="M58.95-408.6c-1,0-1.93-0.15-2.79-0.44s-1.54-0.66-2.01-1.1l0.53-0.92c0.46,0.4,1.07,0.74,1.84,1.02
		c0.77,0.28,1.59,0.43,2.48,0.43c1.26,0,2.16-0.21,2.71-0.62c0.55-0.41,0.83-0.96,0.83-1.63c0-0.49-0.14-0.88-0.42-1.16
		c-0.28-0.28-0.66-0.5-1.14-0.66c-0.48-0.15-1-0.28-1.56-0.38s-1.13-0.21-1.7-0.33c-0.57-0.12-1.09-0.3-1.56-0.53
		c-0.48-0.23-0.85-0.55-1.14-0.95s-0.43-0.95-0.43-1.62c0-0.61,0.17-1.17,0.51-1.66c0.34-0.49,0.84-0.89,1.52-1.18
		s1.52-0.45,2.53-0.45c0.75,0,1.51,0.11,2.27,0.32c0.76,0.21,1.38,0.5,1.85,0.85l-0.53,0.92c-0.51-0.38-1.07-0.66-1.7-0.83
		s-1.26-0.25-1.91-0.25c-1.17,0-2.02,0.21-2.56,0.64c-0.54,0.43-0.82,0.97-0.82,1.61c0,0.51,0.14,0.91,0.43,1.21
		c0.28,0.3,0.66,0.53,1.14,0.69c0.47,0.16,1,0.29,1.56,0.39c0.57,0.1,1.13,0.21,1.7,0.33s1.09,0.29,1.56,0.52
		c0.47,0.22,0.85,0.53,1.14,0.92c0.28,0.39,0.43,0.92,0.43,1.58c0,0.66-0.18,1.23-0.54,1.73c-0.36,0.49-0.89,0.87-1.6,1.15
		C60.84-408.74,59.98-408.6,58.95-408.6z"/>
	<path class="st10" d="M71.6-408.6c-1.15,0-2.17-0.26-3.07-0.78c-0.9-0.52-1.61-1.24-2.14-2.16c-0.53-0.92-0.79-1.97-0.79-3.15
		c0-1.2,0.26-2.25,0.79-3.16c0.53-0.91,1.24-1.63,2.14-2.15c0.9-0.52,1.92-0.78,3.07-0.78c1.15,0,2.18,0.26,3.08,0.78
		c0.9,0.52,1.62,1.24,2.14,2.15s0.78,1.97,0.78,3.16c0,1.18-0.26,2.23-0.78,3.15c-0.52,0.92-1.23,1.64-2.14,2.16
		C73.77-408.86,72.75-408.6,71.6-408.6z M71.6-409.64c0.92,0,1.75-0.21,2.48-0.63c0.74-0.42,1.31-1.02,1.72-1.78
		c0.41-0.77,0.62-1.65,0.62-2.64c0-1.01-0.21-1.9-0.62-2.66c-0.41-0.76-0.99-1.35-1.72-1.77c-0.74-0.42-1.56-0.63-2.48-0.63
		s-1.74,0.21-2.47,0.63c-0.73,0.42-1.3,1.01-1.72,1.77c-0.42,0.76-0.63,1.64-0.63,2.66c0,1,0.21,1.88,0.63,2.64
		c0.42,0.77,1,1.36,1.72,1.78S70.68-409.64,71.6-409.64z"/>
	<path class="st10" d="M87.03-420.79c0.98,0,1.84,0.19,2.56,0.56s1.3,0.94,1.7,1.7c0.41,0.76,0.61,1.7,0.61,2.82v7.01h-1.15v-6.92
		c0-1.35-0.34-2.38-1.02-3.08c-0.68-0.71-1.64-1.06-2.86-1.06c-0.93,0-1.75,0.19-2.44,0.58c-0.69,0.38-1.22,0.92-1.58,1.61
		c-0.36,0.69-0.54,1.52-0.54,2.48v6.39h-1.15v-12.01h1.1v3.33l-0.16-0.37c0.37-0.95,0.97-1.7,1.82-2.24
		C84.77-420.52,85.8-420.79,87.03-420.79z"/>
	<path class="st10" d="M101.31-409.13c-1.14,0-2.15-0.25-3.05-0.75c-0.9-0.5-1.61-1.19-2.14-2.07c-0.53-0.88-0.79-1.89-0.79-3.02
		c0-1.15,0.26-2.16,0.79-3.04c0.53-0.87,1.24-1.56,2.14-2.05c0.9-0.49,1.91-0.74,3.05-0.74c1.09,0,2.07,0.23,2.93,0.7
		s1.55,1.13,2.06,2s0.76,1.91,0.76,3.12c0,1.2-0.25,2.23-0.76,3.11s-1.19,1.55-2.06,2.02C103.38-409.37,102.4-409.13,101.31-409.13z
		 M101.64-404.14c-1.09,0-2.12-0.17-3.1-0.51c-0.98-0.34-1.78-0.8-2.39-1.4l0.62-0.87c0.6,0.55,1.31,0.98,2.15,1.29
		s1.74,0.46,2.7,0.46c1.61,0,2.79-0.38,3.55-1.13c0.76-0.75,1.14-1.93,1.14-3.54v-3.33l0.23-1.79l-0.18-1.79v-3.93h1.1v10.72
		c0,2.01-0.49,3.48-1.46,4.43C105.02-404.61,103.57-404.14,101.64-404.14z M101.41-410.17c0.97,0,1.82-0.2,2.55-0.61
		s1.31-0.97,1.74-1.7s0.63-1.56,0.63-2.5c0-0.95-0.21-1.79-0.63-2.51s-1-1.28-1.74-1.68s-1.59-0.6-2.55-0.6
		c-0.94,0-1.78,0.2-2.52,0.6c-0.74,0.4-1.33,0.96-1.75,1.68s-0.63,1.56-0.63,2.51c0,0.94,0.21,1.77,0.63,2.5s1,1.3,1.75,1.7
		C99.63-410.37,100.47-410.17,101.41-410.17z"/>
	<path class="st10" d="M110.24-419.07v-1.82h7.77v1.82H110.24z M112.31-408.69v-13.27c0-1.2,0.35-2.15,1.05-2.86
		c0.7-0.71,1.69-1.07,2.98-1.07c0.47,0,0.93,0.06,1.37,0.17c0.44,0.12,0.81,0.29,1.12,0.54l-0.67,1.68
		c-0.23-0.18-0.49-0.33-0.78-0.43s-0.6-0.15-0.92-0.15c-0.64,0-1.13,0.18-1.47,0.54c-0.34,0.36-0.51,0.89-0.51,1.6v1.63l0.05,1.01
		v10.6H112.31z M120.1-408.69v-17.07h2.21v17.07H120.1z"/>
	<path class="st10" d="M127.05-404.1c-0.58,0-1.15-0.1-1.7-0.29c-0.55-0.19-1.03-0.47-1.43-0.84l0.94-1.66
		c0.31,0.29,0.64,0.51,1.01,0.67c0.37,0.15,0.76,0.23,1.17,0.23c0.54,0,0.98-0.14,1.33-0.41c0.35-0.28,0.68-0.77,0.99-1.47
		l0.76-1.68l0.23-0.28l4.78-11.06h2.16l-5.91,13.41c-0.35,0.86-0.75,1.53-1.18,2.02c-0.44,0.49-0.92,0.84-1.44,1.05
		S127.68-404.1,127.05-404.1z M129.95-408.3l-5.57-12.58h2.3l4.74,10.86L129.95-408.3z"/>
</g>
<g>
	<path class="st10" d="M58.95-47.62c-1,0-1.93-0.15-2.79-0.44s-1.54-0.66-2.01-1.1l0.53-0.92c0.46,0.4,1.07,0.74,1.84,1.02
		c0.77,0.28,1.59,0.43,2.48,0.43c1.26,0,2.16-0.21,2.71-0.62c0.55-0.41,0.83-0.96,0.83-1.63c0-0.49-0.14-0.88-0.42-1.16
		c-0.28-0.28-0.66-0.5-1.14-0.66c-0.48-0.15-1-0.28-1.56-0.38s-1.13-0.21-1.7-0.33c-0.57-0.12-1.09-0.3-1.56-0.53
		c-0.48-0.23-0.85-0.55-1.14-0.95s-0.43-0.95-0.43-1.62c0-0.61,0.17-1.17,0.51-1.66c0.34-0.49,0.84-0.89,1.52-1.18
		s1.52-0.45,2.53-0.45c0.75,0,1.51,0.11,2.27,0.32c0.76,0.21,1.38,0.5,1.85,0.85l-0.53,0.92c-0.51-0.38-1.07-0.66-1.7-0.83
		s-1.26-0.25-1.91-0.25c-1.17,0-2.02,0.21-2.56,0.64c-0.54,0.43-0.82,0.97-0.82,1.61c0,0.51,0.14,0.91,0.43,1.21
		c0.28,0.3,0.66,0.53,1.14,0.69c0.47,0.16,1,0.29,1.56,0.39c0.57,0.1,1.13,0.21,1.7,0.33s1.09,0.29,1.56,0.52
		c0.47,0.22,0.85,0.53,1.14,0.92c0.28,0.39,0.43,0.92,0.43,1.58c0,0.66-0.18,1.23-0.54,1.73c-0.36,0.49-0.89,0.87-1.6,1.15
		C60.84-47.76,59.97-47.62,58.95-47.62z"/>
	<path class="st10" d="M71.6-47.62c-1.15,0-2.17-0.26-3.07-0.78c-0.9-0.52-1.61-1.24-2.14-2.16c-0.53-0.92-0.79-1.97-0.79-3.15
		c0-1.2,0.26-2.25,0.79-3.16c0.53-0.91,1.24-1.63,2.14-2.15c0.9-0.52,1.92-0.78,3.07-0.78c1.15,0,2.18,0.26,3.08,0.78
		c0.9,0.52,1.62,1.24,2.14,2.15s0.78,1.97,0.78,3.16c0,1.18-0.26,2.23-0.78,3.15c-0.52,0.92-1.23,1.64-2.14,2.16
		C73.77-47.88,72.75-47.62,71.6-47.62z M71.6-48.65c0.92,0,1.75-0.21,2.48-0.63c0.74-0.42,1.31-1.02,1.72-1.78
		c0.41-0.77,0.62-1.65,0.62-2.64c0-1.01-0.21-1.9-0.62-2.66c-0.41-0.76-0.99-1.35-1.72-1.77c-0.74-0.42-1.56-0.63-2.48-0.63
		s-1.74,0.21-2.47,0.63c-0.73,0.42-1.3,1.01-1.72,1.77c-0.42,0.76-0.63,1.64-0.63,2.66c0,1,0.21,1.88,0.63,2.64
		c0.42,0.77,1,1.36,1.72,1.78S70.68-48.65,71.6-48.65z"/>
	<path class="st10" d="M87.03-59.81c0.98,0,1.84,0.19,2.56,0.56s1.3,0.94,1.7,1.7c0.41,0.76,0.61,1.7,0.61,2.82v7.01h-1.15v-6.92
		c0-1.35-0.34-2.38-1.02-3.08c-0.68-0.71-1.64-1.06-2.86-1.06c-0.93,0-1.75,0.19-2.44,0.58c-0.69,0.38-1.22,0.92-1.58,1.61
		c-0.36,0.69-0.54,1.52-0.54,2.48v6.39h-1.15v-12.01h1.1v3.33l-0.16-0.37c0.37-0.95,0.97-1.7,1.82-2.24
		C84.77-59.54,85.8-59.81,87.03-59.81z"/>
	<path class="st10" d="M101.31-48.15c-1.14,0-2.15-0.25-3.05-0.75c-0.9-0.5-1.61-1.19-2.14-2.07c-0.53-0.88-0.79-1.89-0.79-3.02
		c0-1.15,0.26-2.16,0.79-3.04c0.53-0.87,1.24-1.56,2.14-2.05c0.9-0.49,1.91-0.74,3.05-0.74c1.09,0,2.07,0.23,2.93,0.7
		s1.55,1.13,2.06,2s0.76,1.91,0.76,3.12c0,1.2-0.25,2.23-0.76,3.11s-1.19,1.55-2.06,2.02C103.38-48.39,102.4-48.15,101.31-48.15z
		 M101.63-43.16c-1.09,0-2.12-0.17-3.1-0.51c-0.98-0.34-1.78-0.8-2.39-1.4l0.62-0.87c0.6,0.55,1.31,0.98,2.15,1.29
		s1.74,0.46,2.7,0.46c1.61,0,2.79-0.38,3.55-1.13c0.76-0.75,1.14-1.93,1.14-3.54v-3.33l0.23-1.79l-0.18-1.79v-3.93h1.1V-49
		c0,2.01-0.49,3.48-1.46,4.43C105.02-43.63,103.57-43.16,101.63-43.16z M101.41-49.18c0.97,0,1.82-0.2,2.55-0.61s1.31-0.97,1.74-1.7
		s0.63-1.56,0.63-2.5c0-0.95-0.21-1.79-0.63-2.51s-1-1.28-1.74-1.68s-1.59-0.6-2.55-0.6c-0.94,0-1.78,0.2-2.52,0.6
		c-0.74,0.4-1.33,0.96-1.75,1.68s-0.63,1.56-0.63,2.51c0,0.94,0.21,1.77,0.63,2.5s1,1.3,1.75,1.7
		C99.63-49.39,100.47-49.18,101.41-49.18z"/>
	<path class="st10" d="M116.98-47.55c-1.18,0-2.24-0.26-3.19-0.79c-0.94-0.53-1.68-1.26-2.22-2.2c-0.54-0.93-0.8-2.04-0.8-3.31
		s0.27-2.38,0.8-3.31c0.54-0.93,1.28-1.66,2.22-2.18s2-0.78,3.19-0.78c1.03,0,1.95,0.23,2.76,0.68s1.46,1.14,1.93,2.06
		c0.47,0.92,0.71,2.1,0.71,3.54c0,1.43-0.23,2.6-0.69,3.53s-1.1,1.62-1.91,2.08S118.03-47.55,116.98-47.55z M117.32-50.01
		c0.69,0,1.31-0.15,1.85-0.46s0.98-0.75,1.31-1.33c0.33-0.58,0.49-1.27,0.49-2.05c0-0.8-0.17-1.48-0.49-2.06
		c-0.33-0.58-0.77-1.02-1.31-1.32c-0.54-0.31-1.16-0.46-1.85-0.46c-0.69,0-1.31,0.15-1.85,0.46c-0.54,0.31-0.98,0.75-1.31,1.32
		c-0.33,0.58-0.49,1.26-0.49,2.06c0,0.78,0.16,1.46,0.49,2.05c0.33,0.58,0.77,1.03,1.31,1.33
		C116.01-50.16,116.63-50.01,117.32-50.01z M121.05-47.71v-2.9l0.11-3.27l-0.23-3.27v-7.64h2.85v17.07H121.05z"/>
	<path class="st10" d="M129.03-62.02c-0.54,0-0.98-0.17-1.32-0.51c-0.34-0.34-0.52-0.74-0.52-1.22c0-0.49,0.17-0.9,0.52-1.23
		c0.34-0.33,0.79-0.49,1.32-0.49c0.54,0,0.98,0.16,1.32,0.47c0.35,0.31,0.52,0.71,0.52,1.18c0,0.51-0.17,0.93-0.51,1.28
		C130.03-62.19,129.58-62.02,129.03-62.02z M127.58-47.71v-12.28h2.88v12.28H127.58z"/>
	<path class="st10" d="M138.02-47.55c-1.03,0-2.01-0.13-2.96-0.4c-0.94-0.27-1.69-0.59-2.24-0.98l1.1-2.19
		c0.55,0.35,1.21,0.64,1.98,0.87c0.77,0.23,1.53,0.35,2.3,0.35c0.9,0,1.56-0.12,1.97-0.37s0.61-0.58,0.61-0.99
		c0-0.34-0.14-0.59-0.41-0.77c-0.28-0.18-0.64-0.31-1.08-0.4c-0.45-0.09-0.94-0.18-1.48-0.25c-0.54-0.08-1.09-0.18-1.63-0.31
		c-0.54-0.13-1.04-0.32-1.48-0.58c-0.44-0.25-0.8-0.59-1.08-1.02c-0.28-0.43-0.41-1-0.41-1.7c0-0.78,0.22-1.46,0.67-2.04
		c0.45-0.58,1.07-1.02,1.88-1.33s1.76-0.47,2.86-0.47c0.83,0,1.66,0.09,2.51,0.28c0.84,0.18,1.54,0.44,2.09,0.78l-1.1,2.19
		c-0.58-0.35-1.17-0.59-1.76-0.72c-0.59-0.13-1.18-0.2-1.76-0.2c-0.87,0-1.52,0.13-1.94,0.39S136-56.83,136-56.43
		c0,0.37,0.14,0.64,0.41,0.83c0.28,0.18,0.64,0.33,1.08,0.44c0.44,0.11,0.94,0.2,1.48,0.26c0.54,0.07,1.08,0.17,1.62,0.31
		s1.03,0.33,1.48,0.56c0.45,0.24,0.82,0.57,1.09,1c0.28,0.43,0.41,0.99,0.41,1.68c0,0.77-0.23,1.43-0.68,2s-1.09,1.01-1.92,1.32
		C140.16-47.71,139.17-47.55,138.02-47.55z"/>
	<path class="st10" d="M144.44-57.6v-2.3h8.19v2.3H144.44z M150.69-47.55c-1.35,0-2.39-0.35-3.13-1.05c-0.74-0.7-1.1-1.73-1.1-3.09
		v-11.02h2.88v10.95c0,0.58,0.15,1.04,0.45,1.36c0.3,0.32,0.72,0.48,1.25,0.48c0.64,0,1.18-0.17,1.61-0.51l0.8,2.05
		c-0.34,0.28-0.75,0.48-1.24,0.62C151.72-47.62,151.21-47.55,150.69-47.55z"/>
	<path class="st10" d="M155.82-47.71v-12.28h2.74v3.38l-0.32-0.99c0.37-0.83,0.95-1.46,1.74-1.89c0.79-0.43,1.78-0.64,2.96-0.64
		v2.74c-0.12-0.03-0.24-0.05-0.34-0.06c-0.11-0.01-0.22-0.01-0.32-0.01c-1.09,0-1.96,0.32-2.6,0.95c-0.64,0.64-0.97,1.58-0.97,2.84
		v5.96H155.82z"/>
	<path class="st10" d="M170.77-47.55c-1.26,0-2.38-0.27-3.36-0.82s-1.76-1.29-2.32-2.24c-0.57-0.95-0.85-2.03-0.85-3.24
		c0-1.23,0.28-2.31,0.85-3.25s1.34-1.68,2.32-2.22c0.98-0.54,2.1-0.8,3.36-0.8c1.27,0,2.4,0.27,3.39,0.8
		c0.99,0.54,1.76,1.27,2.32,2.21c0.56,0.94,0.84,2.02,0.84,3.27c0,1.21-0.28,2.29-0.84,3.24c-0.56,0.95-1.33,1.7-2.32,2.24
		C173.18-47.82,172.04-47.55,170.77-47.55z M170.77-50.01c0.71,0,1.33-0.15,1.89-0.46s0.99-0.75,1.3-1.33
		c0.31-0.58,0.47-1.27,0.47-2.05c0-0.8-0.16-1.48-0.47-2.06c-0.31-0.58-0.75-1.02-1.3-1.32c-0.55-0.31-1.17-0.46-1.86-0.46
		c-0.71,0-1.33,0.15-1.87,0.46c-0.54,0.31-0.98,0.75-1.3,1.32s-0.48,1.26-0.48,2.06c0,0.78,0.16,1.46,0.48,2.05s0.75,1.03,1.3,1.33
		C169.46-50.16,170.08-50.01,170.77-50.01z"/>
</g>
<g>
	<path class="st10" d="M58.95-319.29c-1,0-1.93-0.15-2.79-0.44s-1.54-0.66-2.01-1.1l0.53-0.92c0.46,0.4,1.07,0.74,1.84,1.02
		c0.77,0.28,1.59,0.43,2.48,0.43c1.26,0,2.16-0.21,2.71-0.62c0.55-0.41,0.83-0.96,0.83-1.63c0-0.49-0.14-0.88-0.42-1.16
		c-0.28-0.28-0.66-0.5-1.14-0.66c-0.48-0.15-1-0.28-1.56-0.38s-1.13-0.21-1.7-0.33c-0.57-0.12-1.09-0.3-1.56-0.53
		c-0.48-0.23-0.85-0.55-1.14-0.95s-0.43-0.95-0.43-1.62c0-0.61,0.17-1.17,0.51-1.66c0.34-0.49,0.84-0.89,1.52-1.18
		s1.52-0.45,2.53-0.45c0.75,0,1.51,0.11,2.27,0.32c0.76,0.21,1.38,0.5,1.85,0.85l-0.53,0.92c-0.51-0.38-1.07-0.66-1.7-0.83
		s-1.26-0.25-1.91-0.25c-1.17,0-2.02,0.21-2.56,0.64c-0.54,0.43-0.82,0.97-0.82,1.61c0,0.51,0.14,0.91,0.43,1.21
		c0.28,0.3,0.66,0.53,1.14,0.69c0.47,0.16,1,0.29,1.56,0.39c0.57,0.1,1.13,0.21,1.7,0.33s1.09,0.29,1.56,0.52
		c0.47,0.22,0.85,0.53,1.14,0.92c0.28,0.39,0.43,0.92,0.43,1.58c0,0.66-0.18,1.23-0.54,1.73c-0.36,0.49-0.89,0.87-1.6,1.15
		C60.84-319.43,59.98-319.29,58.95-319.29z"/>
	<path class="st10" d="M71.6-319.29c-1.15,0-2.17-0.26-3.07-0.78c-0.9-0.52-1.61-1.24-2.14-2.16c-0.53-0.92-0.79-1.97-0.79-3.15
		c0-1.2,0.26-2.25,0.79-3.16c0.53-0.91,1.24-1.63,2.14-2.15c0.9-0.52,1.92-0.78,3.07-0.78c1.15,0,2.18,0.26,3.08,0.78
		c0.9,0.52,1.62,1.24,2.14,2.15s0.78,1.97,0.78,3.16c0,1.18-0.26,2.23-0.78,3.15c-0.52,0.92-1.23,1.64-2.14,2.16
		C73.77-319.55,72.75-319.29,71.6-319.29z M71.6-320.33c0.92,0,1.75-0.21,2.48-0.63c0.74-0.42,1.31-1.02,1.72-1.78
		c0.41-0.77,0.62-1.65,0.62-2.64c0-1.01-0.21-1.9-0.62-2.66c-0.41-0.76-0.99-1.35-1.72-1.77c-0.74-0.42-1.56-0.63-2.48-0.63
		s-1.74,0.21-2.47,0.63c-0.73,0.42-1.3,1.01-1.72,1.77c-0.42,0.76-0.63,1.64-0.63,2.66c0,1,0.21,1.88,0.63,2.64
		c0.42,0.77,1,1.36,1.72,1.78S70.68-320.33,71.6-320.33z"/>
	<path class="st10" d="M87.03-331.48c0.98,0,1.84,0.19,2.56,0.56s1.3,0.94,1.7,1.7c0.41,0.76,0.61,1.7,0.61,2.82v7.01h-1.15v-6.92
		c0-1.35-0.34-2.38-1.02-3.08c-0.68-0.71-1.64-1.06-2.86-1.06c-0.93,0-1.75,0.19-2.44,0.58c-0.69,0.38-1.22,0.92-1.58,1.61
		c-0.36,0.69-0.54,1.52-0.54,2.48v6.39h-1.15v-12.01h1.1v3.33l-0.16-0.37c0.37-0.95,0.97-1.7,1.82-2.24
		C84.77-331.21,85.8-331.48,87.03-331.48z"/>
	<path class="st10" d="M101.31-319.82c-1.14,0-2.15-0.25-3.05-0.75c-0.9-0.5-1.61-1.19-2.14-2.07c-0.53-0.88-0.79-1.89-0.79-3.02
		c0-1.15,0.26-2.16,0.79-3.04c0.53-0.87,1.24-1.56,2.14-2.05c0.9-0.49,1.91-0.74,3.05-0.74c1.09,0,2.07,0.23,2.93,0.7
		s1.55,1.13,2.06,2s0.76,1.91,0.76,3.12c0,1.2-0.25,2.23-0.76,3.11s-1.19,1.55-2.06,2.02C103.38-320.06,102.4-319.82,101.31-319.82z
		 M101.64-314.83c-1.09,0-2.12-0.17-3.1-0.51c-0.98-0.34-1.78-0.8-2.39-1.4l0.62-0.87c0.6,0.55,1.31,0.98,2.15,1.29
		s1.74,0.46,2.7,0.46c1.61,0,2.79-0.38,3.55-1.13c0.76-0.75,1.14-1.93,1.14-3.54v-3.33l0.23-1.79l-0.18-1.79v-3.93h1.1v10.72
		c0,2.01-0.49,3.48-1.46,4.43C105.02-315.3,103.57-314.83,101.64-314.83z M101.41-320.86c0.97,0,1.82-0.2,2.55-0.61
		s1.31-0.97,1.74-1.7s0.63-1.56,0.63-2.5c0-0.95-0.21-1.79-0.63-2.51s-1-1.28-1.74-1.68s-1.59-0.6-2.55-0.6
		c-0.94,0-1.78,0.2-2.52,0.6c-0.74,0.4-1.33,0.96-1.75,1.68s-0.63,1.56-0.63,2.51c0,0.94,0.21,1.77,0.63,2.5s1,1.3,1.75,1.7
		C99.63-321.06,100.47-320.86,101.41-320.86z"/>
	<path class="st10" d="M111.78-319.38v-17.07h2.88v7.64l-0.23,3.27l0.09,3.27v2.9H111.78z M118.59-319.22
		c-1.04,0-1.97-0.23-2.78-0.69c-0.81-0.46-1.45-1.15-1.92-2.08s-0.7-2.1-0.7-3.53c0-1.44,0.24-2.62,0.72-3.54
		c0.48-0.92,1.13-1.61,1.96-2.06s1.73-0.68,2.73-0.68c1.21,0,2.28,0.26,3.21,0.78s1.66,1.25,2.21,2.18
		c0.54,0.94,0.82,2.04,0.82,3.31s-0.27,2.38-0.82,3.31c-0.54,0.94-1.28,1.67-2.21,2.2C120.87-319.49,119.8-319.22,118.59-319.22z
		 M118.26-321.68c0.69,0,1.31-0.15,1.85-0.46c0.54-0.31,0.98-0.75,1.3-1.33c0.32-0.58,0.48-1.27,0.48-2.05
		c0-0.8-0.16-1.48-0.48-2.06c-0.32-0.58-0.76-1.02-1.3-1.32c-0.54-0.31-1.16-0.46-1.85-0.46c-0.69,0-1.31,0.15-1.86,0.46
		c-0.55,0.31-0.99,0.75-1.31,1.32c-0.32,0.58-0.48,1.26-0.48,2.06c0,0.78,0.16,1.46,0.48,2.05c0.32,0.58,0.76,1.03,1.31,1.33
		S117.57-321.68,118.26-321.68z"/>
	<path class="st10" d="M127.56-319.38v-17.07h2.88v17.07H127.56z"/>
	<path class="st10" d="M139.72-319.22c-1.26,0-2.38-0.27-3.36-0.82s-1.76-1.29-2.32-2.24c-0.57-0.95-0.85-2.03-0.85-3.24
		c0-1.23,0.28-2.31,0.85-3.25s1.34-1.68,2.32-2.22c0.98-0.54,2.1-0.8,3.36-0.8c1.27,0,2.4,0.27,3.39,0.8
		c0.99,0.54,1.76,1.27,2.32,2.21c0.56,0.94,0.84,2.02,0.84,3.27c0,1.21-0.28,2.29-0.84,3.24c-0.56,0.95-1.33,1.7-2.32,2.24
		C142.13-319.5,141-319.22,139.72-319.22z M139.72-321.68c0.71,0,1.33-0.15,1.89-0.46s0.99-0.75,1.3-1.33
		c0.31-0.58,0.47-1.27,0.47-2.05c0-0.8-0.16-1.48-0.47-2.06c-0.31-0.58-0.75-1.02-1.3-1.32c-0.55-0.31-1.17-0.46-1.86-0.46
		c-0.71,0-1.33,0.15-1.87,0.46c-0.54,0.31-0.98,0.75-1.3,1.32s-0.48,1.26-0.48,2.06c0,0.78,0.16,1.46,0.48,2.05s0.75,1.03,1.3,1.33
		C138.42-321.84,139.03-321.68,139.72-321.68z"/>
	<path class="st10" d="M154.24-319.94c-1.17,0-2.22-0.25-3.16-0.75c-0.94-0.5-1.69-1.19-2.23-2.08s-0.82-1.93-0.82-3.13
		c0-1.18,0.27-2.22,0.82-3.11c0.54-0.89,1.29-1.58,2.23-2.07c0.94-0.49,2-0.74,3.16-0.74c1.04,0,1.98,0.21,2.81,0.62
		s1.49,1.06,1.99,1.93c0.5,0.87,0.75,1.99,0.75,3.36c0,1.36-0.25,2.49-0.75,3.37c-0.5,0.88-1.16,1.53-1.99,1.96
		S155.28-319.94,154.24-319.94z M154.6-314.76c-1.13,0-2.24-0.15-3.32-0.45s-1.97-0.73-2.66-1.3l1.29-2.16
		c0.54,0.44,1.21,0.8,2.04,1.07c0.82,0.27,1.65,0.4,2.5,0.4c1.35,0,2.34-0.31,2.97-0.93c0.63-0.62,0.94-1.55,0.94-2.79v-2.18
		l0.23-2.78l-0.09-2.78v-2.99h2.74v10.42c0,2.22-0.57,3.86-1.7,4.91C158.39-315.29,156.75-314.76,154.6-314.76z M154.67-322.38
		c0.72,0,1.36-0.15,1.93-0.45s1.01-0.71,1.32-1.24s0.47-1.14,0.47-1.83c0-0.69-0.16-1.3-0.47-1.83c-0.31-0.53-0.75-0.93-1.32-1.22
		c-0.57-0.28-1.21-0.43-1.93-0.43c-0.72,0-1.37,0.14-1.94,0.43c-0.57,0.28-1.02,0.69-1.33,1.22c-0.31,0.53-0.47,1.14-0.47,1.83
		c0,0.69,0.16,1.3,0.47,1.83s0.76,0.94,1.33,1.24C153.3-322.52,153.95-322.38,154.67-322.38z"/>
</g>
<g>
	<path class="st10" d="M58.95-227.94c-1,0-1.93-0.15-2.79-0.44s-1.54-0.66-2.01-1.1l0.53-0.92c0.46,0.4,1.07,0.74,1.84,1.02
		c0.77,0.28,1.59,0.43,2.48,0.43c1.26,0,2.16-0.21,2.71-0.62c0.55-0.41,0.83-0.96,0.83-1.63c0-0.49-0.14-0.88-0.42-1.16
		c-0.28-0.28-0.66-0.5-1.14-0.66c-0.48-0.15-1-0.28-1.56-0.38s-1.13-0.21-1.7-0.33c-0.57-0.12-1.09-0.3-1.56-0.53
		c-0.48-0.23-0.85-0.55-1.14-0.95s-0.43-0.95-0.43-1.62c0-0.61,0.17-1.17,0.51-1.66c0.34-0.49,0.84-0.89,1.52-1.18
		s1.52-0.45,2.53-0.45c0.75,0,1.51,0.11,2.27,0.32c0.76,0.21,1.38,0.5,1.85,0.85l-0.53,0.92c-0.51-0.38-1.07-0.66-1.7-0.83
		s-1.26-0.25-1.91-0.25c-1.17,0-2.02,0.21-2.56,0.64c-0.54,0.43-0.82,0.97-0.82,1.61c0,0.51,0.14,0.91,0.43,1.21
		c0.28,0.3,0.66,0.53,1.14,0.69c0.47,0.16,1,0.29,1.56,0.39c0.57,0.1,1.13,0.21,1.7,0.33s1.09,0.29,1.56,0.52
		c0.47,0.22,0.85,0.53,1.14,0.92c0.28,0.39,0.43,0.92,0.43,1.58c0,0.66-0.18,1.23-0.54,1.73c-0.36,0.49-0.89,0.87-1.6,1.15
		C60.84-228.08,59.98-227.94,58.95-227.94z"/>
	<path class="st10" d="M71.6-227.94c-1.15,0-2.17-0.26-3.07-0.78c-0.9-0.52-1.61-1.24-2.14-2.16c-0.53-0.92-0.79-1.97-0.79-3.15
		c0-1.2,0.26-2.25,0.79-3.16c0.53-0.91,1.24-1.63,2.14-2.15c0.9-0.52,1.92-0.78,3.07-0.78c1.15,0,2.18,0.26,3.08,0.78
		c0.9,0.52,1.62,1.24,2.14,2.15s0.78,1.97,0.78,3.16c0,1.18-0.26,2.23-0.78,3.15c-0.52,0.92-1.23,1.64-2.14,2.16
		C73.77-228.2,72.75-227.94,71.6-227.94z M71.6-228.98c0.92,0,1.75-0.21,2.48-0.63c0.74-0.42,1.31-1.02,1.72-1.78
		c0.41-0.77,0.62-1.65,0.62-2.64c0-1.01-0.21-1.9-0.62-2.66c-0.41-0.76-0.99-1.35-1.72-1.77c-0.74-0.42-1.56-0.63-2.48-0.63
		s-1.74,0.21-2.47,0.63c-0.73,0.42-1.3,1.01-1.72,1.77c-0.42,0.76-0.63,1.64-0.63,2.66c0,1,0.21,1.88,0.63,2.64
		c0.42,0.77,1,1.36,1.72,1.78S70.68-228.98,71.6-228.98z"/>
	<path class="st10" d="M87.03-240.13c0.98,0,1.84,0.19,2.56,0.56s1.3,0.94,1.7,1.7c0.41,0.76,0.61,1.7,0.61,2.82v7.01h-1.15v-6.92
		c0-1.35-0.34-2.38-1.02-3.08c-0.68-0.71-1.64-1.06-2.86-1.06c-0.93,0-1.75,0.19-2.44,0.58c-0.69,0.38-1.22,0.92-1.58,1.61
		c-0.36,0.69-0.54,1.52-0.54,2.48v6.39h-1.15v-12.01h1.1v3.33l-0.16-0.37c0.37-0.95,0.97-1.7,1.82-2.24
		C84.77-239.86,85.8-240.13,87.03-240.13z"/>
	<path class="st10" d="M101.31-228.47c-1.14,0-2.15-0.25-3.05-0.75c-0.9-0.5-1.61-1.19-2.14-2.07c-0.53-0.88-0.79-1.89-0.79-3.02
		c0-1.15,0.26-2.16,0.79-3.04c0.53-0.87,1.24-1.56,2.14-2.05c0.9-0.49,1.91-0.74,3.05-0.74c1.09,0,2.07,0.23,2.93,0.7
		s1.55,1.13,2.06,2s0.76,1.91,0.76,3.12c0,1.2-0.25,2.23-0.76,3.11s-1.19,1.55-2.06,2.02C103.38-228.71,102.4-228.47,101.31-228.47z
		 M101.64-223.48c-1.09,0-2.12-0.17-3.1-0.51c-0.98-0.34-1.78-0.8-2.39-1.4l0.62-0.87c0.6,0.55,1.31,0.98,2.15,1.29
		s1.74,0.46,2.7,0.46c1.61,0,2.79-0.38,3.55-1.13c0.76-0.75,1.14-1.93,1.14-3.54v-3.33l0.23-1.79l-0.18-1.79v-3.93h1.1v10.72
		c0,2.01-0.49,3.48-1.46,4.43C105.02-223.95,103.57-223.48,101.64-223.48z M101.41-229.51c0.97,0,1.82-0.2,2.55-0.61
		s1.31-0.97,1.74-1.7s0.63-1.56,0.63-2.5c0-0.95-0.21-1.79-0.63-2.51s-1-1.28-1.74-1.68s-1.59-0.6-2.55-0.6
		c-0.94,0-1.78,0.2-2.52,0.6c-0.74,0.4-1.33,0.96-1.75,1.68s-0.63,1.56-0.63,2.51c0,0.94,0.21,1.77,0.63,2.5s1,1.3,1.75,1.7
		C99.63-229.71,100.47-229.51,101.41-229.51z"/>
	<path class="st10" d="M111.78-223.57v-16.74h2.74v2.9l-0.09,3.27l0.23,3.27v7.31H111.78z M118.59-227.87c-1,0-1.91-0.23-2.73-0.69
		s-1.47-1.15-1.96-2.08c-0.48-0.93-0.72-2.1-0.72-3.53c0-1.44,0.23-2.62,0.7-3.54s1.11-1.61,1.92-2.06
		c0.81-0.45,1.74-0.68,2.78-0.68c1.21,0,2.28,0.26,3.21,0.78s1.66,1.25,2.21,2.18c0.54,0.94,0.82,2.04,0.82,3.31
		s-0.27,2.38-0.82,3.32s-1.28,1.67-2.21,2.2S119.8-227.87,118.59-227.87z M118.26-230.33c0.69,0,1.31-0.15,1.85-0.46
		c0.54-0.31,0.98-0.75,1.3-1.33c0.32-0.58,0.48-1.27,0.48-2.05c0-0.8-0.16-1.48-0.48-2.06c-0.32-0.58-0.76-1.02-1.3-1.32
		c-0.54-0.31-1.16-0.46-1.85-0.46c-0.69,0-1.31,0.15-1.86,0.46c-0.55,0.31-0.99,0.75-1.31,1.32c-0.32,0.58-0.48,1.26-0.48,2.06
		c0,0.78,0.16,1.46,0.48,2.05c0.32,0.58,0.76,1.03,1.31,1.33S117.57-230.33,118.26-230.33z"/>
	<path class="st10" d="M131.1-227.87c-0.92,0-1.72-0.16-2.42-0.47c-0.69-0.31-1.22-0.75-1.6-1.31s-0.56-1.19-0.56-1.9
		c0-0.69,0.17-1.31,0.5-1.86c0.33-0.55,0.87-0.99,1.62-1.31c0.75-0.32,1.75-0.48,2.99-0.48h3.56v1.91h-3.36
		c-0.98,0-1.64,0.16-1.98,0.47c-0.34,0.31-0.51,0.7-0.51,1.16c0,0.52,0.21,0.94,0.62,1.24s0.99,0.46,1.72,0.46
		c0.71,0,1.34-0.16,1.9-0.48c0.56-0.32,0.96-0.8,1.21-1.43l0.48,1.72c-0.28,0.72-0.77,1.28-1.48,1.68
		C133.09-228.07,132.19-227.87,131.1-227.87z M134.96-228.04v-2.48l-0.16-0.53v-4.35c0-0.84-0.25-1.5-0.76-1.97s-1.27-0.7-2.3-0.7
		c-0.69,0-1.37,0.11-2.04,0.32s-1.23,0.51-1.69,0.9l-1.13-2.09c0.66-0.51,1.45-0.88,2.36-1.14c0.91-0.25,1.86-0.38,2.84-0.38
		c1.78,0,3.15,0.43,4.13,1.28s1.46,2.17,1.46,3.94v7.2H134.96z"/>
	<path class="st10" d="M146.58-228.59c-1.17,0-2.22-0.25-3.16-0.75c-0.94-0.5-1.69-1.19-2.23-2.08s-0.82-1.93-0.82-3.13
		c0-1.18,0.27-2.22,0.82-3.11c0.54-0.89,1.29-1.58,2.23-2.07c0.94-0.49,2-0.74,3.16-0.74c1.04,0,1.98,0.21,2.81,0.62
		s1.49,1.06,1.99,1.93c0.5,0.87,0.75,1.99,0.75,3.36c0,1.36-0.25,2.49-0.75,3.37c-0.5,0.88-1.16,1.53-1.99,1.96
		S147.62-228.59,146.58-228.59z M146.95-223.41c-1.13,0-2.24-0.15-3.32-0.45s-1.97-0.73-2.66-1.3l1.29-2.16
		c0.54,0.44,1.21,0.8,2.04,1.07c0.82,0.27,1.65,0.4,2.5,0.4c1.35,0,2.34-0.31,2.97-0.93c0.63-0.62,0.94-1.55,0.94-2.79v-2.18
		l0.23-2.78l-0.09-2.78v-2.99h2.74v10.42c0,2.22-0.57,3.86-1.7,4.91C150.73-223.94,149.09-223.41,146.95-223.41z M147.02-231.03
		c0.72,0,1.36-0.15,1.93-0.45s1.01-0.71,1.32-1.24s0.47-1.14,0.47-1.83c0-0.69-0.16-1.3-0.47-1.83c-0.31-0.53-0.75-0.93-1.32-1.22
		c-0.57-0.28-1.21-0.43-1.93-0.43c-0.72,0-1.37,0.14-1.94,0.43c-0.57,0.28-1.02,0.69-1.33,1.22c-0.31,0.53-0.47,1.14-0.47,1.83
		c0,0.69,0.16,1.3,0.47,1.83s0.76,0.94,1.33,1.24C145.65-231.17,146.29-231.03,147.02-231.03z"/>
	<path class="st10" d="M163.11-227.87c-1.37,0-2.56-0.27-3.58-0.82s-1.81-1.29-2.37-2.24c-0.56-0.95-0.84-2.03-0.84-3.24
		c0-1.23,0.27-2.31,0.82-3.25s1.3-1.68,2.25-2.22c0.96-0.54,2.05-0.8,3.28-0.8c1.2,0,2.26,0.26,3.2,0.78s1.67,1.26,2.21,2.21
		c0.54,0.95,0.8,2.07,0.8,3.36c0,0.12,0,0.26-0.01,0.41c-0.01,0.15-0.02,0.3-0.04,0.44h-10.23v-1.91h8.72l-1.13,0.6
		c0.01-0.71-0.13-1.33-0.44-1.86c-0.31-0.54-0.72-0.96-1.25-1.27c-0.53-0.31-1.14-0.46-1.83-0.46c-0.71,0-1.32,0.15-1.85,0.46
		c-0.53,0.31-0.94,0.73-1.24,1.28c-0.3,0.54-0.45,1.18-0.45,1.92v0.46c0,0.74,0.17,1.39,0.51,1.96c0.34,0.57,0.81,1,1.43,1.31
		c0.61,0.31,1.32,0.46,2.12,0.46c0.69,0,1.31-0.11,1.86-0.32s1.04-0.55,1.47-1.01l1.54,1.77c-0.55,0.64-1.25,1.14-2.08,1.48
		S164.19-227.87,163.11-227.87z"/>
</g>
<g>
	<path class="st10" d="M58.95-137.01c-1,0-1.93-0.15-2.79-0.44s-1.54-0.66-2.01-1.1l0.53-0.92c0.46,0.4,1.07,0.74,1.84,1.02
		c0.77,0.28,1.59,0.43,2.48,0.43c1.26,0,2.16-0.21,2.71-0.62c0.55-0.41,0.83-0.96,0.83-1.63c0-0.49-0.14-0.88-0.42-1.16
		c-0.28-0.28-0.66-0.5-1.14-0.66c-0.48-0.15-1-0.28-1.56-0.38s-1.13-0.21-1.7-0.33c-0.57-0.12-1.09-0.3-1.56-0.53
		c-0.48-0.23-0.85-0.55-1.14-0.95s-0.43-0.95-0.43-1.62c0-0.61,0.17-1.17,0.51-1.66c0.34-0.49,0.84-0.89,1.52-1.18
		s1.52-0.45,2.53-0.45c0.75,0,1.51,0.11,2.27,0.32c0.76,0.21,1.38,0.5,1.85,0.85l-0.53,0.92c-0.51-0.38-1.07-0.66-1.7-0.83
		s-1.26-0.25-1.91-0.25c-1.17,0-2.02,0.21-2.56,0.64c-0.54,0.43-0.82,0.97-0.82,1.61c0,0.51,0.14,0.91,0.43,1.21
		c0.28,0.3,0.66,0.53,1.14,0.69c0.47,0.16,1,0.29,1.56,0.39c0.57,0.1,1.13,0.21,1.7,0.33s1.09,0.29,1.56,0.52
		c0.47,0.22,0.85,0.53,1.14,0.92c0.28,0.39,0.43,0.92,0.43,1.58c0,0.66-0.18,1.23-0.54,1.73c-0.36,0.49-0.89,0.87-1.6,1.15
		C60.84-137.15,59.98-137.01,58.95-137.01z"/>
	<path class="st10" d="M71.6-137.01c-1.15,0-2.17-0.26-3.07-0.78c-0.9-0.52-1.61-1.24-2.14-2.16c-0.53-0.92-0.79-1.97-0.79-3.15
		c0-1.2,0.26-2.25,0.79-3.16c0.53-0.91,1.24-1.63,2.14-2.15c0.9-0.52,1.92-0.78,3.07-0.78c1.15,0,2.18,0.26,3.08,0.78
		c0.9,0.52,1.62,1.24,2.14,2.15s0.78,1.97,0.78,3.16c0,1.18-0.26,2.23-0.78,3.15c-0.52,0.92-1.23,1.64-2.14,2.16
		C73.77-137.27,72.75-137.01,71.6-137.01z M71.6-138.04c0.92,0,1.75-0.21,2.48-0.63c0.74-0.42,1.31-1.02,1.72-1.78
		c0.41-0.77,0.62-1.65,0.62-2.64c0-1.01-0.21-1.9-0.62-2.66c-0.41-0.76-0.99-1.35-1.72-1.77c-0.74-0.42-1.56-0.63-2.48-0.63
		s-1.74,0.21-2.47,0.63c-0.73,0.42-1.3,1.01-1.72,1.77c-0.42,0.76-0.63,1.64-0.63,2.66c0,1,0.21,1.88,0.63,2.64
		c0.42,0.77,1,1.36,1.72,1.78S70.68-138.04,71.6-138.04z"/>
	<path class="st10" d="M87.03-149.2c0.98,0,1.84,0.19,2.56,0.56s1.3,0.94,1.7,1.7c0.41,0.76,0.61,1.7,0.61,2.82v7.01h-1.15v-6.92
		c0-1.35-0.34-2.38-1.02-3.08c-0.68-0.71-1.64-1.06-2.86-1.06c-0.93,0-1.75,0.19-2.44,0.58c-0.69,0.38-1.22,0.92-1.58,1.61
		c-0.36,0.69-0.54,1.52-0.54,2.48v6.39h-1.15v-12.01h1.1v3.33l-0.16-0.37c0.37-0.95,0.97-1.7,1.82-2.24
		C84.77-148.92,85.8-149.2,87.03-149.2z"/>
	<path class="st10" d="M101.31-137.54c-1.14,0-2.15-0.25-3.05-0.75c-0.9-0.5-1.61-1.19-2.14-2.07c-0.53-0.88-0.79-1.89-0.79-3.02
		c0-1.15,0.26-2.16,0.79-3.04c0.53-0.87,1.24-1.56,2.14-2.05c0.9-0.49,1.91-0.74,3.05-0.74c1.09,0,2.07,0.23,2.93,0.7
		s1.55,1.13,2.06,2s0.76,1.91,0.76,3.12c0,1.2-0.25,2.23-0.76,3.11s-1.19,1.55-2.06,2.02C103.38-137.77,102.4-137.54,101.31-137.54z
		 M101.64-132.55c-1.09,0-2.12-0.17-3.1-0.51c-0.98-0.34-1.78-0.8-2.39-1.4l0.62-0.87c0.6,0.55,1.31,0.98,2.15,1.29
		s1.74,0.46,2.7,0.46c1.61,0,2.79-0.38,3.55-1.13c0.76-0.75,1.14-1.93,1.14-3.54v-3.33l0.23-1.79l-0.18-1.79v-3.93h1.1v10.72
		c0,2.01-0.49,3.48-1.46,4.43C105.02-133.02,103.57-132.55,101.64-132.55z M101.41-138.57c0.97,0,1.82-0.2,2.55-0.61
		s1.31-0.97,1.74-1.7s0.63-1.56,0.63-2.5c0-0.95-0.21-1.79-0.63-2.51s-1-1.28-1.74-1.68s-1.59-0.6-2.55-0.6
		c-0.94,0-1.78,0.2-2.52,0.6c-0.74,0.4-1.33,0.96-1.75,1.68s-0.63,1.56-0.63,2.51c0,0.94,0.21,1.77,0.63,2.5s1,1.3,1.75,1.7
		C99.63-138.77,100.47-138.57,101.41-138.57z"/>
	<path class="st10" d="M110.15-146.99v-2.3h8.19v2.3H110.15z M112.17-137.1v-12.97c0-1.29,0.38-2.32,1.14-3.09
		c0.76-0.77,1.84-1.16,3.25-1.16c0.51,0,0.99,0.05,1.44,0.16c0.45,0.11,0.83,0.28,1.14,0.51l-0.78,2.16
		c-0.21-0.17-0.46-0.29-0.74-0.38c-0.28-0.08-0.56-0.13-0.85-0.13c-0.6,0-1.05,0.17-1.36,0.5c-0.31,0.33-0.46,0.82-0.46,1.48v1.38
		l0.09,1.29v10.26H112.17z"/>
	<path class="st10" d="M125.6-136.94c-1.26,0-2.38-0.27-3.36-0.82s-1.76-1.29-2.32-2.24c-0.57-0.95-0.85-2.03-0.85-3.24
		c0-1.23,0.28-2.31,0.85-3.25s1.34-1.68,2.32-2.22c0.98-0.54,2.1-0.8,3.36-0.8c1.27,0,2.4,0.27,3.39,0.8
		c0.99,0.54,1.76,1.27,2.32,2.21c0.56,0.94,0.84,2.02,0.84,3.27c0,1.21-0.28,2.29-0.84,3.24c-0.56,0.95-1.33,1.7-2.32,2.24
		C128-137.21,126.87-136.94,125.6-136.94z M125.6-139.4c0.71,0,1.33-0.15,1.89-0.46s0.99-0.75,1.3-1.33
		c0.31-0.58,0.47-1.27,0.47-2.05c0-0.8-0.16-1.48-0.47-2.06c-0.31-0.58-0.75-1.02-1.3-1.32c-0.55-0.31-1.17-0.46-1.86-0.46
		c-0.71,0-1.33,0.15-1.87,0.46c-0.54,0.31-0.98,0.75-1.3,1.32s-0.48,1.26-0.48,2.06c0,0.78,0.16,1.46,0.48,2.05s0.75,1.03,1.3,1.33
		C124.29-139.55,124.91-139.4,125.6-139.4z"/>
	<path class="st10" d="M134.92-137.1v-17.07h2.88v17.07H134.92z"/>
	<path class="st10" d="M146.76-136.94c-1.18,0-2.24-0.26-3.19-0.79c-0.94-0.53-1.68-1.26-2.22-2.2c-0.54-0.93-0.8-2.04-0.8-3.31
		s0.27-2.38,0.8-3.31c0.54-0.93,1.28-1.66,2.22-2.18s2-0.78,3.19-0.78c1.03,0,1.95,0.23,2.76,0.68s1.46,1.14,1.93,2.06
		c0.47,0.92,0.71,2.1,0.71,3.54c0,1.43-0.23,2.6-0.69,3.53s-1.1,1.62-1.91,2.08S147.82-136.94,146.76-136.94z M147.1-139.4
		c0.69,0,1.31-0.15,1.85-0.46s0.98-0.75,1.31-1.33c0.33-0.58,0.49-1.27,0.49-2.05c0-0.8-0.17-1.48-0.49-2.06
		c-0.33-0.58-0.77-1.02-1.31-1.32c-0.54-0.31-1.16-0.46-1.85-0.46c-0.69,0-1.31,0.15-1.85,0.46c-0.54,0.31-0.98,0.75-1.31,1.32
		c-0.33,0.58-0.49,1.26-0.49,2.06c0,0.78,0.16,1.46,0.49,2.05c0.33,0.58,0.77,1.03,1.31,1.33C145.8-139.55,146.42-139.4,147.1-139.4
		z M150.83-137.1v-2.9l0.11-3.27l-0.23-3.27v-7.64h2.85v17.07H150.83z"/>
	<path class="st10" d="M163.14-136.94c-1.37,0-2.56-0.27-3.58-0.82s-1.81-1.29-2.37-2.24c-0.56-0.95-0.84-2.03-0.84-3.24
		c0-1.23,0.27-2.31,0.82-3.25s1.3-1.68,2.25-2.22c0.96-0.54,2.05-0.8,3.28-0.8c1.2,0,2.26,0.26,3.2,0.78s1.67,1.26,2.21,2.21
		c0.54,0.95,0.8,2.07,0.8,3.36c0,0.12,0,0.26-0.01,0.41c-0.01,0.15-0.02,0.3-0.04,0.44h-10.23v-1.91h8.72l-1.13,0.6
		c0.01-0.71-0.13-1.33-0.44-1.86c-0.31-0.54-0.72-0.96-1.25-1.27c-0.53-0.31-1.14-0.46-1.83-0.46c-0.71,0-1.32,0.15-1.85,0.46
		c-0.53,0.31-0.94,0.73-1.24,1.28c-0.3,0.54-0.45,1.18-0.45,1.92v0.46c0,0.74,0.17,1.39,0.51,1.96c0.34,0.57,0.81,1,1.43,1.31
		c0.61,0.31,1.32,0.46,2.12,0.46c0.69,0,1.31-0.11,1.86-0.32s1.04-0.55,1.47-1.01l1.54,1.77c-0.55,0.64-1.25,1.14-2.08,1.48
		S164.21-136.94,163.14-136.94z"/>
	<path class="st10" d="M171.67-137.1v-12.28h2.74v3.38l-0.32-0.99c0.37-0.83,0.95-1.46,1.74-1.89c0.79-0.43,1.78-0.64,2.96-0.64
		v2.74c-0.12-0.03-0.24-0.05-0.34-0.06c-0.11-0.01-0.22-0.01-0.32-0.01c-1.09,0-1.96,0.32-2.6,0.95c-0.64,0.64-0.97,1.58-0.97,2.84
		v5.96H171.67z"/>
</g>
<g>
	<path class="st10" d="M54.58,46.9V30.44h1.1v3.93l-0.18,2.09l0.23,2.09v8.35H54.58z M60.61,42.53c-1.06,0-2.01-0.25-2.86-0.74
		c-0.85-0.49-1.53-1.19-2.02-2.1s-0.75-2-0.75-3.25c0-1.26,0.25-2.34,0.75-3.25c0.5-0.91,1.17-1.61,2.02-2.1
		c0.85-0.49,1.81-0.74,2.86-0.74c1.13,0,2.15,0.26,3.05,0.77c0.9,0.51,1.6,1.23,2.12,2.15c0.51,0.92,0.77,1.98,0.77,3.17
		s-0.26,2.25-0.77,3.17c-0.51,0.92-1.22,1.64-2.12,2.15C62.76,42.28,61.74,42.53,60.61,42.53z M60.54,41.5
		c0.92,0,1.75-0.21,2.48-0.63s1.31-1.02,1.74-1.78c0.42-0.77,0.63-1.65,0.63-2.64c0-1.01-0.21-1.9-0.63-2.66
		c-0.42-0.76-1-1.35-1.74-1.77c-0.74-0.42-1.56-0.63-2.48-0.63c-0.92,0-1.74,0.21-2.47,0.63c-0.73,0.42-1.3,1.01-1.73,1.77
		c-0.42,0.76-0.63,1.64-0.63,2.66c0,1,0.21,1.88,0.63,2.64c0.42,0.77,1,1.36,1.73,1.78C58.79,41.29,59.62,41.5,60.54,41.5z"/>
	<path class="st10" d="M70.1,42.44V25.38h1.15v17.07H70.1z"/>
	<path class="st10" d="M79.35,42.53c-0.89,0-1.66-0.14-2.31-0.43c-0.65-0.28-1.15-0.69-1.5-1.21c-0.34-0.52-0.52-1.12-0.52-1.79
		c0-0.61,0.14-1.17,0.42-1.67c0.28-0.5,0.75-0.9,1.42-1.22c0.66-0.31,1.54-0.47,2.64-0.47h4.42v0.9h-4.39
		c-1.24,0-2.11,0.23-2.61,0.69c-0.5,0.46-0.75,1.04-0.75,1.73c0,0.77,0.29,1.38,0.87,1.84s1.4,0.69,2.46,0.69
		c1.01,0,1.87-0.23,2.56-0.69c0.7-0.46,1.21-1.13,1.55-2l0.32,0.78c-0.32,0.87-0.87,1.57-1.64,2.08
		C81.53,42.28,80.55,42.53,79.35,42.53z M83.67,42.44v-2.74l-0.05-0.41v-4.51c0-1.12-0.3-1.97-0.91-2.55
		c-0.61-0.58-1.49-0.87-2.66-0.87c-0.83,0-1.6,0.14-2.31,0.43c-0.71,0.28-1.32,0.65-1.83,1.09l-0.58-0.83
		c0.6-0.54,1.32-0.95,2.16-1.25s1.73-0.45,2.65-0.45c1.49,0,2.63,0.38,3.43,1.13c0.8,0.75,1.2,1.87,1.2,3.36v7.61H83.67z"/>
	<path class="st10" d="M89.01,47c-0.55,0-1.07-0.09-1.55-0.28c-0.48-0.18-0.89-0.45-1.23-0.81l0.58-0.87c0.31,0.32,0.64,0.56,1,0.71
		s0.77,0.23,1.23,0.23c0.55,0,1.04-0.15,1.46-0.46s0.82-0.87,1.18-1.68l0.83-1.84l0.16-0.21l5.08-11.36h1.17l-6.16,13.64
		c-0.32,0.74-0.67,1.31-1.05,1.74s-0.79,0.72-1.23,0.91C90.04,46.9,89.55,47,89.01,47z M92.48,42.74l-5.57-12.3h1.22l5.06,11.29
		L92.48,42.74z"/>
	<path class="st10" d="M101.43,42.44V25.38h1.15v17.07H101.43z"/>
	<path class="st10" d="M108.01,27.52c-0.26,0-0.48-0.09-0.67-0.28c-0.18-0.18-0.28-0.4-0.28-0.64c0-0.26,0.09-0.48,0.28-0.67
		c0.18-0.18,0.41-0.28,0.67-0.28c0.28,0,0.5,0.09,0.68,0.26c0.18,0.18,0.26,0.39,0.26,0.66s-0.09,0.48-0.26,0.67
		C108.51,27.42,108.28,27.52,108.01,27.52z M107.43,42.44V30.44h1.15v12.01H107.43z"/>
	<path class="st10" d="M116.47,42.53c-1,0-1.93-0.15-2.79-0.44s-1.54-0.66-2.01-1.1l0.53-0.92c0.46,0.4,1.07,0.74,1.84,1.02
		c0.77,0.28,1.59,0.43,2.48,0.43c1.26,0,2.16-0.21,2.71-0.62c0.55-0.41,0.83-0.96,0.83-1.63c0-0.49-0.14-0.88-0.42-1.16
		c-0.28-0.28-0.66-0.5-1.14-0.66c-0.48-0.15-1-0.28-1.56-0.38s-1.13-0.21-1.7-0.33c-0.57-0.12-1.09-0.3-1.56-0.53
		c-0.48-0.23-0.85-0.55-1.14-0.95s-0.43-0.95-0.43-1.62c0-0.61,0.17-1.17,0.51-1.66c0.34-0.49,0.84-0.89,1.52-1.18
		s1.52-0.45,2.53-0.45c0.75,0,1.51,0.11,2.27,0.32c0.76,0.21,1.38,0.5,1.85,0.85l-0.53,0.92c-0.51-0.38-1.07-0.66-1.7-0.83
		s-1.26-0.25-1.91-0.25c-1.17,0-2.02,0.21-2.56,0.64c-0.54,0.43-0.82,0.97-0.82,1.61c0,0.51,0.14,0.91,0.43,1.21
		c0.28,0.3,0.66,0.53,1.14,0.69c0.47,0.16,1,0.29,1.56,0.39c0.57,0.1,1.13,0.21,1.7,0.33s1.09,0.29,1.56,0.52
		c0.47,0.22,0.85,0.53,1.14,0.92c0.28,0.39,0.43,0.92,0.43,1.58c0,0.66-0.18,1.23-0.54,1.73c-0.36,0.49-0.89,0.87-1.6,1.15
		C118.36,42.4,117.5,42.53,116.47,42.53z"/>
	<path class="st10" d="M122.45,31.43v-0.99h7.18v0.99H122.45z M127.92,42.53c-1.06,0-1.87-0.29-2.43-0.87
		c-0.56-0.58-0.84-1.38-0.84-2.39V27.81h1.15v11.34c0,0.77,0.19,1.36,0.57,1.77c0.38,0.41,0.94,0.62,1.66,0.62
		c0.75,0,1.37-0.22,1.86-0.67l0.48,0.81c-0.31,0.29-0.68,0.51-1.12,0.64C128.83,42.47,128.38,42.53,127.92,42.53z"/>
	<path class="st10" d="M133.03,46.9V30.16h2.74v2.9l-0.09,3.27l0.23,3.27v7.31H133.03z M139.84,42.6c-1,0-1.91-0.23-2.73-0.69
		s-1.47-1.15-1.96-2.08c-0.48-0.93-0.72-2.1-0.72-3.53c0-1.44,0.23-2.62,0.7-3.54s1.11-1.61,1.92-2.06
		c0.81-0.45,1.74-0.68,2.78-0.68c1.21,0,2.28,0.26,3.21,0.78s1.66,1.25,2.21,2.18c0.54,0.94,0.82,2.04,0.82,3.31
		s-0.27,2.38-0.82,3.32s-1.28,1.67-2.21,2.2S141.05,42.6,139.84,42.6z M139.52,40.14c0.69,0,1.31-0.15,1.85-0.46
		c0.54-0.31,0.98-0.75,1.3-1.33c0.32-0.58,0.48-1.27,0.48-2.05c0-0.8-0.16-1.48-0.48-2.06c-0.32-0.58-0.76-1.02-1.3-1.32
		c-0.54-0.31-1.16-0.46-1.85-0.46c-0.69,0-1.31,0.15-1.86,0.46c-0.55,0.31-0.99,0.75-1.31,1.32c-0.32,0.58-0.48,1.26-0.48,2.06
		c0,0.78,0.16,1.46,0.48,2.05c0.32,0.58,0.76,1.03,1.31,1.33S138.83,40.14,139.52,40.14z"/>
	<path class="st10" d="M154.01,42.6c-1.04,0-1.96-0.2-2.76-0.59c-0.8-0.39-1.42-0.99-1.86-1.79c-0.45-0.8-0.67-1.82-0.67-3.05v-7.02
		h2.88v6.62c0,1.1,0.25,1.93,0.75,2.47c0.5,0.54,1.21,0.82,2.13,0.82c0.67,0,1.26-0.14,1.76-0.41c0.5-0.28,0.89-0.69,1.17-1.24
		c0.28-0.55,0.43-1.23,0.43-2.05v-6.21h2.88v12.28h-2.74v-3.31l0.48,1.01c-0.41,0.8-1.02,1.41-1.82,1.83
		C155.83,42.39,154.96,42.6,154.01,42.6z"/>
	<path class="st10" d="M164.47,42.44V25.38h2.88v17.07H164.47z"/>
	<path class="st10" d="M174.91,42.6c-1.03,0-2.01-0.13-2.96-0.4c-0.94-0.27-1.69-0.59-2.24-0.98l1.1-2.19
		c0.55,0.35,1.21,0.64,1.98,0.87c0.77,0.23,1.53,0.35,2.3,0.35c0.9,0,1.56-0.12,1.97-0.37s0.61-0.58,0.61-0.99
		c0-0.34-0.14-0.59-0.41-0.77c-0.28-0.18-0.64-0.31-1.08-0.4c-0.45-0.09-0.94-0.18-1.48-0.25c-0.54-0.08-1.09-0.18-1.63-0.31
		c-0.54-0.13-1.04-0.32-1.48-0.58c-0.44-0.25-0.8-0.59-1.08-1.02c-0.28-0.43-0.41-1-0.41-1.7c0-0.78,0.22-1.46,0.67-2.04
		c0.45-0.58,1.07-1.02,1.88-1.33s1.76-0.47,2.86-0.47c0.83,0,1.66,0.09,2.51,0.28c0.84,0.18,1.54,0.44,2.09,0.78l-1.1,2.19
		c-0.58-0.35-1.17-0.59-1.76-0.72c-0.59-0.13-1.18-0.2-1.76-0.2c-0.87,0-1.52,0.13-1.94,0.39s-0.63,0.59-0.63,0.99
		c0,0.37,0.14,0.64,0.41,0.83c0.28,0.18,0.64,0.33,1.08,0.44c0.44,0.11,0.94,0.2,1.48,0.26c0.54,0.07,1.08,0.17,1.62,0.31
		s1.03,0.33,1.48,0.56c0.45,0.24,0.82,0.57,1.09,1c0.28,0.43,0.41,0.99,0.41,1.68c0,0.77-0.23,1.43-0.68,2s-1.09,1.01-1.92,1.32
		C177.05,42.45,176.06,42.6,174.91,42.6z"/>
	<path class="st10" d="M188.74,42.6c-1.37,0-2.56-0.27-3.58-0.82s-1.81-1.29-2.37-2.24c-0.56-0.95-0.84-2.03-0.84-3.24
		c0-1.23,0.27-2.31,0.82-3.25s1.3-1.68,2.25-2.22c0.96-0.54,2.05-0.8,3.28-0.8c1.2,0,2.26,0.26,3.2,0.78s1.67,1.26,2.21,2.21
		c0.54,0.95,0.8,2.07,0.8,3.36c0,0.12,0,0.26-0.01,0.41c-0.01,0.15-0.02,0.3-0.04,0.44h-10.23v-1.91h8.72l-1.13,0.6
		c0.01-0.71-0.13-1.33-0.44-1.86c-0.31-0.54-0.72-0.96-1.25-1.27c-0.53-0.31-1.14-0.46-1.83-0.46c-0.71,0-1.32,0.15-1.85,0.46
		c-0.53,0.31-0.94,0.73-1.24,1.28c-0.3,0.54-0.45,1.18-0.45,1.92v0.46c0,0.74,0.17,1.39,0.51,1.96c0.34,0.57,0.81,1,1.43,1.31
		c0.61,0.31,1.32,0.46,2.12,0.46c0.69,0,1.31-0.11,1.86-0.32s1.04-0.55,1.47-1.01l1.54,1.77c-0.55,0.64-1.25,1.14-2.08,1.48
		S189.81,42.6,188.74,42.6z"/>
</g>
<g>
	<path class="st10" d="M74.06-429.91v-7h2.73c0.61,0,1.14,0.1,1.57,0.29c0.43,0.19,0.77,0.47,1,0.84c0.23,0.37,0.35,0.8,0.35,1.31
		c0,0.51-0.12,0.94-0.35,1.3s-0.57,0.64-1,0.84c-0.43,0.2-0.96,0.29-1.57,0.29h-2.18l0.45-0.47v2.59H74.06z M75.06-432.4l-0.45-0.5
		h2.15c0.64,0,1.12-0.14,1.46-0.41c0.33-0.27,0.5-0.66,0.5-1.16s-0.17-0.89-0.5-1.16s-0.82-0.41-1.46-0.41h-2.15l0.45-0.5V-432.4z"
		/>
	<path class="st10" d="M83.29-429.85c-0.53,0-1.01-0.12-1.42-0.35s-0.74-0.55-0.98-0.96c-0.24-0.41-0.36-0.88-0.36-1.4
		c0-0.53,0.12-0.99,0.36-1.4c0.24-0.41,0.57-0.73,0.98-0.96c0.41-0.23,0.89-0.34,1.42-0.34c0.53,0,1,0.11,1.42,0.34
		c0.42,0.23,0.74,0.55,0.98,0.95c0.24,0.4,0.35,0.87,0.35,1.4c0,0.53-0.12,0.99-0.35,1.4c-0.24,0.41-0.56,0.73-0.98,0.96
		C84.29-429.97,83.82-429.85,83.29-429.85z M83.29-430.69c0.34,0,0.65-0.08,0.92-0.23c0.27-0.15,0.48-0.37,0.64-0.66
		c0.15-0.28,0.23-0.61,0.23-0.99c0-0.38-0.08-0.71-0.23-0.98c-0.15-0.28-0.37-0.49-0.64-0.65c-0.27-0.15-0.58-0.23-0.92-0.23
		s-0.64,0.08-0.91,0.23s-0.48,0.37-0.64,0.65s-0.24,0.6-0.24,0.98c0,0.37,0.08,0.7,0.24,0.99s0.37,0.5,0.64,0.66
		S82.95-430.69,83.29-430.69z"/>
	<path class="st10" d="M88.34-429.91l-1.97-5.3h0.91l1.75,4.8H88.6l1.82-4.8h0.81l1.78,4.8h-0.42l1.79-4.8h0.86l-1.98,5.3h-0.92
		l-1.67-4.38h0.28l-1.69,4.38H88.34z"/>
	<path class="st10" d="M98.42-429.85c-0.57,0-1.06-0.12-1.49-0.35c-0.43-0.23-0.76-0.55-1-0.96c-0.24-0.41-0.36-0.87-0.36-1.4
		c0-0.53,0.12-0.99,0.34-1.4c0.23-0.41,0.55-0.73,0.95-0.96c0.4-0.23,0.86-0.34,1.37-0.34c0.51,0,0.97,0.11,1.36,0.34
		c0.39,0.23,0.7,0.54,0.92,0.96c0.22,0.41,0.33,0.89,0.33,1.43c0,0.04,0,0.09,0,0.14c0,0.05-0.01,0.1-0.02,0.15h-4.51v-0.69h4.01
		l-0.39,0.24c0.01-0.34-0.06-0.64-0.21-0.91c-0.15-0.27-0.35-0.47-0.61-0.62c-0.26-0.15-0.55-0.22-0.89-0.22
		c-0.33,0-0.63,0.08-0.89,0.22c-0.26,0.15-0.46,0.36-0.61,0.63c-0.15,0.27-0.22,0.58-0.22,0.92v0.16c0,0.35,0.08,0.67,0.25,0.94
		c0.16,0.28,0.39,0.49,0.68,0.65c0.29,0.15,0.63,0.23,1.01,0.23c0.31,0,0.6-0.05,0.86-0.16c0.26-0.11,0.48-0.27,0.67-0.48l0.53,0.62
		c-0.24,0.28-0.54,0.49-0.9,0.64S98.86-429.85,98.42-429.85z"/>
	<path class="st10" d="M102.18-429.91v-5.3h0.92v1.44l-0.09-0.36c0.15-0.37,0.39-0.65,0.74-0.84c0.35-0.19,0.77-0.29,1.28-0.29v0.93
		c-0.04-0.01-0.08-0.01-0.12-0.01c-0.04,0-0.07,0-0.1,0c-0.51,0-0.92,0.15-1.22,0.46c-0.3,0.31-0.45,0.75-0.45,1.33v2.64H102.18z"/>
	<path class="st10" d="M108.52-429.85c-0.57,0-1.06-0.12-1.49-0.35c-0.43-0.23-0.76-0.55-1-0.96c-0.24-0.41-0.36-0.87-0.36-1.4
		c0-0.53,0.12-0.99,0.34-1.4c0.23-0.41,0.55-0.73,0.95-0.96c0.4-0.23,0.86-0.34,1.37-0.34c0.51,0,0.97,0.11,1.36,0.34
		c0.39,0.23,0.7,0.54,0.92,0.96c0.22,0.41,0.33,0.89,0.33,1.43c0,0.04,0,0.09,0,0.14c0,0.05-0.01,0.1-0.02,0.15h-4.51v-0.69h4.01
		l-0.39,0.24c0.01-0.34-0.06-0.64-0.21-0.91c-0.15-0.27-0.35-0.47-0.61-0.62c-0.26-0.15-0.55-0.22-0.89-0.22
		c-0.33,0-0.63,0.08-0.89,0.22c-0.26,0.15-0.46,0.36-0.61,0.63c-0.15,0.27-0.22,0.58-0.22,0.92v0.16c0,0.35,0.08,0.67,0.25,0.94
		c0.16,0.28,0.39,0.49,0.68,0.65c0.29,0.15,0.63,0.23,1.01,0.23c0.31,0,0.6-0.05,0.86-0.16c0.26-0.11,0.48-0.27,0.67-0.48l0.53,0.62
		c-0.24,0.28-0.54,0.49-0.9,0.64S108.96-429.85,108.52-429.85z"/>
	<path class="st10" d="M114.47-429.85c-0.51,0-0.97-0.11-1.38-0.34s-0.72-0.54-0.96-0.95c-0.23-0.41-0.35-0.88-0.35-1.42
		s0.12-1.01,0.35-1.42c0.23-0.4,0.55-0.72,0.96-0.94s0.86-0.34,1.38-0.34c0.45,0,0.85,0.1,1.21,0.3c0.36,0.2,0.65,0.5,0.87,0.9
		c0.22,0.4,0.33,0.9,0.33,1.5c0,0.6-0.11,1.1-0.32,1.5c-0.21,0.4-0.49,0.7-0.85,0.91S114.93-429.85,114.47-429.85z M114.55-430.69
		c0.33,0,0.64-0.08,0.91-0.23c0.27-0.15,0.48-0.37,0.64-0.66c0.16-0.28,0.24-0.61,0.24-0.99c0-0.38-0.08-0.71-0.24-0.98
		c-0.16-0.28-0.37-0.49-0.64-0.65c-0.27-0.15-0.57-0.23-0.91-0.23c-0.34,0-0.64,0.08-0.91,0.23s-0.48,0.37-0.64,0.65
		s-0.24,0.6-0.24,0.98c0,0.37,0.08,0.7,0.24,0.99s0.37,0.5,0.64,0.66S114.21-430.69,114.55-430.69z M116.36-429.91v-1.43l0.06-1.23
		l-0.1-1.23v-3.53h0.96v7.42H116.36z"/>
	<path class="st10" d="M121.79-429.91v-7.42h0.96v3.53l-0.1,1.23l0.06,1.23v1.43H121.79z M124.6-429.85c-0.45,0-0.86-0.1-1.22-0.3
		s-0.65-0.5-0.86-0.91c-0.21-0.4-0.31-0.9-0.31-1.5c0-0.6,0.11-1.1,0.32-1.5c0.22-0.4,0.51-0.7,0.87-0.9s0.77-0.3,1.21-0.3
		c0.52,0,0.98,0.11,1.38,0.34c0.4,0.23,0.72,0.54,0.95,0.94c0.23,0.4,0.35,0.88,0.35,1.42s-0.12,1.01-0.35,1.42
		c-0.23,0.41-0.55,0.72-0.95,0.95C125.58-429.97,125.12-429.85,124.6-429.85z M124.52-430.69c0.34,0,0.65-0.08,0.92-0.23
		c0.27-0.15,0.48-0.37,0.64-0.66c0.16-0.28,0.23-0.61,0.23-0.99c0-0.38-0.08-0.71-0.23-0.98c-0.16-0.28-0.37-0.49-0.64-0.65
		c-0.27-0.15-0.57-0.23-0.92-0.23c-0.33,0-0.63,0.08-0.9,0.23c-0.27,0.15-0.48,0.37-0.64,0.65c-0.16,0.28-0.23,0.6-0.23,0.98
		c0,0.37,0.08,0.7,0.23,0.99c0.16,0.28,0.37,0.5,0.64,0.66C123.89-430.77,124.19-430.69,124.52-430.69z"/>
	<path class="st10" d="M128.69-427.91c-0.25,0-0.5-0.04-0.74-0.12c-0.24-0.08-0.45-0.21-0.62-0.37l0.41-0.72
		c0.13,0.13,0.28,0.22,0.44,0.29s0.33,0.1,0.51,0.1c0.23,0,0.43-0.06,0.58-0.18s0.3-0.33,0.43-0.64l0.33-0.73l0.1-0.12l2.08-4.81
		h0.94l-2.57,5.83c-0.15,0.37-0.33,0.67-0.52,0.88c-0.19,0.21-0.4,0.37-0.62,0.46S128.97-427.91,128.69-427.91z M129.95-429.74
		l-2.42-5.47h1l2.06,4.72L129.95-429.74z"/>
</g>
<g>
	<path class="st10" d="M52.06-68.93v-7h2.73c0.61,0,1.14,0.1,1.57,0.29c0.43,0.19,0.77,0.47,1,0.84c0.23,0.37,0.35,0.8,0.35,1.31
		c0,0.51-0.12,0.94-0.35,1.3s-0.57,0.64-1,0.84c-0.43,0.2-0.96,0.29-1.57,0.29h-2.18l0.45-0.47v2.59H52.06z M53.06-71.42l-0.45-0.5
		h2.15c0.64,0,1.12-0.14,1.46-0.41c0.33-0.27,0.5-0.66,0.5-1.16s-0.17-0.89-0.5-1.16s-0.82-0.41-1.46-0.41h-2.15l0.45-0.5V-71.42z"
		/>
	<path class="st10" d="M61.29-68.87c-0.53,0-1.01-0.12-1.42-0.35s-0.74-0.55-0.98-0.96c-0.24-0.41-0.36-0.88-0.36-1.4
		c0-0.53,0.12-0.99,0.36-1.4c0.24-0.41,0.57-0.73,0.98-0.96c0.41-0.23,0.89-0.34,1.42-0.34c0.53,0,1,0.11,1.42,0.34
		c0.42,0.23,0.74,0.55,0.98,0.95c0.24,0.4,0.35,0.87,0.35,1.4c0,0.53-0.12,0.99-0.35,1.4c-0.24,0.41-0.56,0.73-0.98,0.96
		C62.29-68.99,61.82-68.87,61.29-68.87z M61.29-69.71c0.34,0,0.65-0.08,0.92-0.23c0.27-0.15,0.48-0.37,0.64-0.66
		c0.15-0.28,0.23-0.61,0.23-0.99c0-0.38-0.08-0.71-0.23-0.98c-0.15-0.28-0.37-0.49-0.64-0.65c-0.27-0.15-0.58-0.23-0.92-0.23
		s-0.64,0.08-0.91,0.23s-0.48,0.37-0.64,0.65s-0.24,0.6-0.24,0.98c0,0.37,0.08,0.7,0.24,0.99s0.37,0.5,0.64,0.66
		S60.95-69.71,61.29-69.71z"/>
	<path class="st10" d="M66.34-68.93l-1.97-5.3h0.91l1.75,4.8H66.6l1.82-4.8h0.81l1.78,4.8h-0.42l1.79-4.8h0.86l-1.98,5.3h-0.92
		l-1.67-4.38h0.28l-1.69,4.38H66.34z"/>
	<path class="st10" d="M76.42-68.87c-0.57,0-1.06-0.12-1.49-0.35c-0.43-0.23-0.76-0.55-1-0.96c-0.24-0.41-0.36-0.87-0.36-1.4
		c0-0.53,0.12-0.99,0.34-1.4c0.23-0.41,0.55-0.73,0.95-0.96c0.4-0.23,0.86-0.34,1.37-0.34c0.51,0,0.97,0.11,1.36,0.34
		c0.39,0.23,0.7,0.54,0.92,0.96c0.22,0.41,0.33,0.89,0.33,1.43c0,0.04,0,0.09,0,0.14c0,0.05-0.01,0.1-0.02,0.15h-4.51v-0.69h4.01
		l-0.39,0.24c0.01-0.34-0.06-0.64-0.21-0.91c-0.15-0.27-0.35-0.47-0.61-0.62c-0.26-0.15-0.55-0.22-0.89-0.22
		c-0.33,0-0.63,0.08-0.89,0.22c-0.26,0.15-0.46,0.36-0.61,0.63c-0.15,0.27-0.22,0.58-0.22,0.92v0.16c0,0.35,0.08,0.67,0.25,0.94
		c0.16,0.28,0.39,0.49,0.68,0.65c0.29,0.15,0.63,0.23,1.01,0.23c0.31,0,0.6-0.05,0.86-0.16c0.26-0.11,0.48-0.27,0.67-0.48l0.53,0.62
		c-0.24,0.28-0.54,0.49-0.9,0.64S76.86-68.87,76.42-68.87z"/>
	<path class="st10" d="M80.18-68.93v-5.3h0.92v1.44l-0.09-0.36c0.15-0.37,0.39-0.65,0.74-0.84c0.35-0.19,0.77-0.29,1.28-0.29v0.93
		c-0.04-0.01-0.08-0.01-0.12-0.01c-0.04,0-0.07,0-0.1,0c-0.51,0-0.92,0.15-1.22,0.46c-0.3,0.31-0.45,0.75-0.45,1.33v2.64H80.18z"/>
	<path class="st10" d="M86.52-68.87c-0.57,0-1.06-0.12-1.49-0.35c-0.43-0.23-0.76-0.55-1-0.96c-0.24-0.41-0.36-0.87-0.36-1.4
		c0-0.53,0.12-0.99,0.34-1.4c0.23-0.41,0.55-0.73,0.95-0.96c0.4-0.23,0.86-0.34,1.37-0.34c0.51,0,0.97,0.11,1.36,0.34
		c0.39,0.23,0.7,0.54,0.92,0.96c0.22,0.41,0.33,0.89,0.33,1.43c0,0.04,0,0.09,0,0.14c0,0.05-0.01,0.1-0.02,0.15h-4.51v-0.69h4.01
		l-0.39,0.24c0.01-0.34-0.06-0.64-0.21-0.91c-0.15-0.27-0.35-0.47-0.61-0.62c-0.26-0.15-0.55-0.22-0.89-0.22
		c-0.33,0-0.63,0.08-0.89,0.22c-0.26,0.15-0.46,0.36-0.61,0.63c-0.15,0.27-0.22,0.58-0.22,0.92v0.16c0,0.35,0.08,0.67,0.25,0.94
		c0.16,0.28,0.39,0.49,0.68,0.65c0.29,0.15,0.63,0.23,1.01,0.23c0.31,0,0.6-0.05,0.86-0.16c0.26-0.11,0.48-0.27,0.67-0.48l0.53,0.62
		c-0.24,0.28-0.54,0.49-0.9,0.64S86.96-68.87,86.52-68.87z"/>
	<path class="st10" d="M92.47-68.87c-0.51,0-0.97-0.11-1.38-0.34s-0.72-0.54-0.96-0.95c-0.23-0.41-0.35-0.88-0.35-1.42
		s0.12-1.01,0.35-1.42c0.23-0.4,0.55-0.72,0.96-0.94s0.86-0.34,1.38-0.34c0.45,0,0.85,0.1,1.21,0.3c0.36,0.2,0.65,0.5,0.87,0.9
		c0.22,0.4,0.33,0.9,0.33,1.5c0,0.6-0.11,1.1-0.32,1.5c-0.21,0.4-0.49,0.7-0.85,0.91S92.93-68.87,92.47-68.87z M92.55-69.71
		c0.33,0,0.64-0.08,0.91-0.23c0.27-0.15,0.48-0.37,0.64-0.66c0.16-0.28,0.24-0.61,0.24-0.99c0-0.38-0.08-0.71-0.24-0.98
		c-0.16-0.28-0.37-0.49-0.64-0.65c-0.27-0.15-0.57-0.23-0.91-0.23c-0.34,0-0.64,0.08-0.91,0.23s-0.48,0.37-0.64,0.65
		s-0.24,0.6-0.24,0.98c0,0.37,0.08,0.7,0.24,0.99s0.37,0.5,0.64,0.66S92.21-69.71,92.55-69.71z M94.36-68.93v-1.43l0.06-1.23
		l-0.1-1.23v-3.53h0.96v7.42H94.36z"/>
	<path class="st10" d="M99.79-68.93v-7.42h0.96v3.53l-0.1,1.23l0.06,1.23v1.43H99.79z M102.6-68.87c-0.45,0-0.86-0.1-1.22-0.3
		s-0.65-0.5-0.86-0.91c-0.21-0.4-0.31-0.9-0.31-1.5c0-0.6,0.11-1.1,0.32-1.5c0.22-0.4,0.51-0.7,0.87-0.9s0.77-0.3,1.21-0.3
		c0.52,0,0.98,0.11,1.38,0.34c0.4,0.23,0.72,0.54,0.95,0.94c0.23,0.4,0.35,0.88,0.35,1.42s-0.12,1.01-0.35,1.42
		c-0.23,0.41-0.55,0.72-0.95,0.95C103.58-68.98,103.12-68.87,102.6-68.87z M102.52-69.71c0.34,0,0.65-0.08,0.92-0.23
		c0.27-0.15,0.48-0.37,0.64-0.66c0.16-0.28,0.23-0.61,0.23-0.99c0-0.38-0.08-0.71-0.23-0.98c-0.16-0.28-0.37-0.49-0.64-0.65
		c-0.27-0.15-0.57-0.23-0.92-0.23c-0.33,0-0.63,0.08-0.9,0.23c-0.27,0.15-0.48,0.37-0.64,0.65c-0.16,0.28-0.23,0.6-0.23,0.98
		c0,0.37,0.08,0.7,0.23,0.99c0.16,0.28,0.37,0.5,0.64,0.66C101.89-69.79,102.19-69.71,102.52-69.71z"/>
	<path class="st10" d="M106.69-66.93c-0.25,0-0.5-0.04-0.74-0.12c-0.24-0.08-0.45-0.21-0.62-0.37l0.41-0.72
		c0.13,0.13,0.28,0.22,0.44,0.29s0.33,0.1,0.51,0.1c0.23,0,0.43-0.06,0.58-0.18s0.3-0.33,0.43-0.64l0.33-0.73l0.1-0.12l2.08-4.81
		h0.94l-2.57,5.83c-0.15,0.37-0.33,0.67-0.52,0.88c-0.19,0.21-0.4,0.37-0.62,0.46S106.96-66.93,106.69-66.93z M107.95-68.76
		l-2.42-5.47h1l2.06,4.72L107.95-68.76z"/>
</g>
<g>
	<path class="st10" d="M52.06-340.6v-7h2.73c0.61,0,1.14,0.1,1.57,0.29c0.43,0.19,0.77,0.47,1,0.84c0.23,0.37,0.35,0.8,0.35,1.31
		c0,0.51-0.12,0.94-0.35,1.3s-0.57,0.64-1,0.84c-0.43,0.2-0.96,0.29-1.57,0.29h-2.18l0.45-0.47v2.59H52.06z M53.06-343.09l-0.45-0.5
		h2.15c0.64,0,1.12-0.14,1.46-0.41c0.33-0.27,0.5-0.66,0.5-1.16s-0.17-0.89-0.5-1.16s-0.82-0.41-1.46-0.41h-2.15l0.45-0.5V-343.09z"
		/>
	<path class="st10" d="M61.29-340.54c-0.53,0-1.01-0.12-1.42-0.35s-0.74-0.55-0.98-0.96c-0.24-0.41-0.36-0.88-0.36-1.4
		c0-0.53,0.12-0.99,0.36-1.4c0.24-0.41,0.57-0.73,0.98-0.96c0.41-0.23,0.89-0.34,1.42-0.34c0.53,0,1,0.11,1.42,0.34
		c0.42,0.23,0.74,0.55,0.98,0.95c0.24,0.4,0.35,0.87,0.35,1.4c0,0.53-0.12,0.99-0.35,1.4c-0.24,0.41-0.56,0.73-0.98,0.96
		C62.29-340.66,61.82-340.54,61.29-340.54z M61.29-341.38c0.34,0,0.65-0.08,0.92-0.23c0.27-0.15,0.48-0.37,0.64-0.66
		c0.15-0.28,0.23-0.61,0.23-0.99c0-0.38-0.08-0.71-0.23-0.98c-0.15-0.28-0.37-0.49-0.64-0.65c-0.27-0.15-0.58-0.23-0.92-0.23
		s-0.64,0.08-0.91,0.23s-0.48,0.37-0.64,0.65s-0.24,0.6-0.24,0.98c0,0.37,0.08,0.7,0.24,0.99s0.37,0.5,0.64,0.66
		S60.95-341.38,61.29-341.38z"/>
	<path class="st10" d="M66.34-340.6l-1.97-5.3h0.91l1.75,4.8H66.6l1.82-4.8h0.81l1.78,4.8h-0.42l1.79-4.8h0.86l-1.98,5.3h-0.92
		l-1.67-4.38h0.28l-1.69,4.38H66.34z"/>
	<path class="st10" d="M76.42-340.54c-0.57,0-1.06-0.12-1.49-0.35c-0.43-0.23-0.76-0.55-1-0.96c-0.24-0.41-0.36-0.87-0.36-1.4
		c0-0.53,0.12-0.99,0.34-1.4c0.23-0.41,0.55-0.73,0.95-0.96c0.4-0.23,0.86-0.34,1.37-0.34c0.51,0,0.97,0.11,1.36,0.34
		c0.39,0.23,0.7,0.54,0.92,0.96c0.22,0.41,0.33,0.89,0.33,1.43c0,0.04,0,0.09,0,0.14c0,0.05-0.01,0.1-0.02,0.15h-4.51v-0.69h4.01
		l-0.39,0.24c0.01-0.34-0.06-0.64-0.21-0.91c-0.15-0.27-0.35-0.47-0.61-0.62c-0.26-0.15-0.55-0.22-0.89-0.22
		c-0.33,0-0.63,0.08-0.89,0.22c-0.26,0.15-0.46,0.36-0.61,0.63c-0.15,0.27-0.22,0.58-0.22,0.92v0.16c0,0.35,0.08,0.67,0.25,0.94
		c0.16,0.28,0.39,0.49,0.68,0.65c0.29,0.15,0.63,0.23,1.01,0.23c0.31,0,0.6-0.05,0.86-0.16c0.26-0.11,0.48-0.27,0.67-0.48l0.53,0.62
		c-0.24,0.28-0.54,0.49-0.9,0.64S76.86-340.54,76.42-340.54z"/>
	<path class="st10" d="M80.18-340.6v-5.3h0.92v1.44l-0.09-0.36c0.15-0.37,0.39-0.65,0.74-0.84c0.35-0.19,0.77-0.29,1.28-0.29v0.93
		c-0.04-0.01-0.08-0.01-0.12-0.01c-0.04,0-0.07,0-0.1,0c-0.51,0-0.92,0.15-1.22,0.46c-0.3,0.31-0.45,0.75-0.45,1.33v2.64H80.18z"/>
	<path class="st10" d="M86.52-340.54c-0.57,0-1.06-0.12-1.49-0.35c-0.43-0.23-0.76-0.55-1-0.96c-0.24-0.41-0.36-0.87-0.36-1.4
		c0-0.53,0.12-0.99,0.34-1.4c0.23-0.41,0.55-0.73,0.95-0.96c0.4-0.23,0.86-0.34,1.37-0.34c0.51,0,0.97,0.11,1.36,0.34
		c0.39,0.23,0.7,0.54,0.92,0.96c0.22,0.41,0.33,0.89,0.33,1.43c0,0.04,0,0.09,0,0.14c0,0.05-0.01,0.1-0.02,0.15h-4.51v-0.69h4.01
		l-0.39,0.24c0.01-0.34-0.06-0.64-0.21-0.91c-0.15-0.27-0.35-0.47-0.61-0.62c-0.26-0.15-0.55-0.22-0.89-0.22
		c-0.33,0-0.63,0.08-0.89,0.22c-0.26,0.15-0.46,0.36-0.61,0.63c-0.15,0.27-0.22,0.58-0.22,0.92v0.16c0,0.35,0.08,0.67,0.25,0.94
		c0.16,0.28,0.39,0.49,0.68,0.65c0.29,0.15,0.63,0.23,1.01,0.23c0.31,0,0.6-0.05,0.86-0.16c0.26-0.11,0.48-0.27,0.67-0.48l0.53,0.62
		c-0.24,0.28-0.54,0.49-0.9,0.64S86.96-340.54,86.52-340.54z"/>
	<path class="st10" d="M92.47-340.54c-0.51,0-0.97-0.11-1.38-0.34s-0.72-0.54-0.96-0.95c-0.23-0.41-0.35-0.88-0.35-1.42
		s0.12-1.01,0.35-1.42c0.23-0.4,0.55-0.72,0.96-0.94s0.86-0.34,1.38-0.34c0.45,0,0.85,0.1,1.21,0.3c0.36,0.2,0.65,0.5,0.87,0.9
		c0.22,0.4,0.33,0.9,0.33,1.5c0,0.6-0.11,1.1-0.32,1.5c-0.21,0.4-0.49,0.7-0.85,0.91S92.93-340.54,92.47-340.54z M92.55-341.38
		c0.33,0,0.64-0.08,0.91-0.23c0.27-0.15,0.48-0.37,0.64-0.66c0.16-0.28,0.24-0.61,0.24-0.99c0-0.38-0.08-0.71-0.24-0.98
		c-0.16-0.28-0.37-0.49-0.64-0.65c-0.27-0.15-0.57-0.23-0.91-0.23c-0.34,0-0.64,0.08-0.91,0.23s-0.48,0.37-0.64,0.65
		s-0.24,0.6-0.24,0.98c0,0.37,0.08,0.7,0.24,0.99s0.37,0.5,0.64,0.66S92.21-341.38,92.55-341.38z M94.36-340.6v-1.43l0.06-1.23
		l-0.1-1.23v-3.53h0.96v7.42H94.36z"/>
	<path class="st10" d="M99.79-340.6v-7.42h0.96v3.53l-0.1,1.23l0.06,1.23v1.43H99.79z M102.6-340.54c-0.45,0-0.86-0.1-1.22-0.3
		s-0.65-0.5-0.86-0.91c-0.21-0.4-0.31-0.9-0.31-1.5c0-0.6,0.11-1.1,0.32-1.5c0.22-0.4,0.51-0.7,0.87-0.9s0.77-0.3,1.21-0.3
		c0.52,0,0.98,0.11,1.38,0.34c0.4,0.23,0.72,0.54,0.95,0.94c0.23,0.4,0.35,0.88,0.35,1.42s-0.12,1.01-0.35,1.42
		c-0.23,0.41-0.55,0.72-0.95,0.95C103.58-340.66,103.12-340.54,102.6-340.54z M102.52-341.38c0.34,0,0.65-0.08,0.92-0.23
		c0.27-0.15,0.48-0.37,0.64-0.66c0.16-0.28,0.23-0.61,0.23-0.99c0-0.38-0.08-0.71-0.23-0.98c-0.16-0.28-0.37-0.49-0.64-0.65
		c-0.27-0.15-0.57-0.23-0.92-0.23c-0.33,0-0.63,0.08-0.9,0.23c-0.27,0.15-0.48,0.37-0.64,0.65c-0.16,0.28-0.23,0.6-0.23,0.98
		c0,0.37,0.08,0.7,0.23,0.99c0.16,0.28,0.37,0.5,0.64,0.66C101.89-341.46,102.19-341.38,102.52-341.38z"/>
	<path class="st10" d="M106.69-338.6c-0.25,0-0.5-0.04-0.74-0.12c-0.24-0.08-0.45-0.21-0.62-0.37l0.41-0.72
		c0.13,0.13,0.28,0.22,0.44,0.29s0.33,0.1,0.51,0.1c0.23,0,0.43-0.06,0.58-0.18s0.3-0.33,0.43-0.64l0.33-0.73l0.1-0.12l2.08-4.81
		h0.94l-2.57,5.83c-0.15,0.37-0.33,0.67-0.52,0.88c-0.19,0.21-0.4,0.37-0.62,0.46S106.97-338.6,106.69-338.6z M107.95-340.43
		l-2.42-5.47h1l2.06,4.72L107.95-340.43z"/>
</g>
<g>
	<path class="st10" d="M52.06-249.25v-7h2.73c0.61,0,1.14,0.1,1.57,0.29c0.43,0.19,0.77,0.47,1,0.84c0.23,0.37,0.35,0.8,0.35,1.31
		c0,0.51-0.12,0.94-0.35,1.3s-0.57,0.64-1,0.84c-0.43,0.2-0.96,0.29-1.57,0.29h-2.18l0.45-0.47v2.59H52.06z M53.06-251.74l-0.45-0.5
		h2.15c0.64,0,1.12-0.14,1.46-0.41c0.33-0.27,0.5-0.66,0.5-1.16s-0.17-0.89-0.5-1.16s-0.82-0.41-1.46-0.41h-2.15l0.45-0.5V-251.74z"
		/>
	<path class="st10" d="M61.29-249.19c-0.53,0-1.01-0.12-1.42-0.35s-0.74-0.55-0.98-0.96c-0.24-0.41-0.36-0.88-0.36-1.4
		c0-0.53,0.12-0.99,0.36-1.4c0.24-0.41,0.57-0.73,0.98-0.96c0.41-0.23,0.89-0.34,1.42-0.34c0.53,0,1,0.11,1.42,0.34
		c0.42,0.23,0.74,0.55,0.98,0.95c0.24,0.4,0.35,0.87,0.35,1.4c0,0.53-0.12,0.99-0.35,1.4c-0.24,0.41-0.56,0.73-0.98,0.96
		C62.29-249.31,61.82-249.19,61.29-249.19z M61.29-250.03c0.34,0,0.65-0.08,0.92-0.23c0.27-0.15,0.48-0.37,0.64-0.66
		c0.15-0.28,0.23-0.61,0.23-0.99c0-0.38-0.08-0.71-0.23-0.98c-0.15-0.28-0.37-0.49-0.64-0.65c-0.27-0.15-0.58-0.23-0.92-0.23
		s-0.64,0.08-0.91,0.23s-0.48,0.37-0.64,0.65s-0.24,0.6-0.24,0.98c0,0.37,0.08,0.7,0.24,0.99s0.37,0.5,0.64,0.66
		S60.95-250.03,61.29-250.03z"/>
	<path class="st10" d="M66.34-249.25l-1.97-5.3h0.91l1.75,4.8H66.6l1.82-4.8h0.81l1.78,4.8h-0.42l1.79-4.8h0.86l-1.98,5.3h-0.92
		l-1.67-4.38h0.28l-1.69,4.38H66.34z"/>
	<path class="st10" d="M76.42-249.19c-0.57,0-1.06-0.12-1.49-0.35c-0.43-0.23-0.76-0.55-1-0.96c-0.24-0.41-0.36-0.87-0.36-1.4
		c0-0.53,0.12-0.99,0.34-1.4c0.23-0.41,0.55-0.73,0.95-0.96c0.4-0.23,0.86-0.34,1.37-0.34c0.51,0,0.97,0.11,1.36,0.34
		c0.39,0.23,0.7,0.54,0.92,0.96c0.22,0.41,0.33,0.89,0.33,1.43c0,0.04,0,0.09,0,0.14c0,0.05-0.01,0.1-0.02,0.15h-4.51v-0.69h4.01
		l-0.39,0.24c0.01-0.34-0.06-0.64-0.21-0.91c-0.15-0.27-0.35-0.47-0.61-0.62c-0.26-0.15-0.55-0.22-0.89-0.22
		c-0.33,0-0.63,0.08-0.89,0.22c-0.26,0.15-0.46,0.36-0.61,0.63c-0.15,0.27-0.22,0.58-0.22,0.92v0.16c0,0.35,0.08,0.67,0.25,0.94
		c0.16,0.28,0.39,0.49,0.68,0.65c0.29,0.15,0.63,0.23,1.01,0.23c0.31,0,0.6-0.05,0.86-0.16c0.26-0.11,0.48-0.27,0.67-0.48l0.53,0.62
		c-0.24,0.28-0.54,0.49-0.9,0.64S76.86-249.19,76.42-249.19z"/>
	<path class="st10" d="M80.18-249.25v-5.3h0.92v1.44l-0.09-0.36c0.15-0.37,0.39-0.65,0.74-0.84c0.35-0.19,0.77-0.29,1.28-0.29v0.93
		c-0.04-0.01-0.08-0.01-0.12-0.01c-0.04,0-0.07,0-0.1,0c-0.51,0-0.92,0.15-1.22,0.46c-0.3,0.31-0.45,0.75-0.45,1.33v2.64H80.18z"/>
	<path class="st10" d="M86.52-249.19c-0.57,0-1.06-0.12-1.49-0.35c-0.43-0.23-0.76-0.55-1-0.96c-0.24-0.41-0.36-0.87-0.36-1.4
		c0-0.53,0.12-0.99,0.34-1.4c0.23-0.41,0.55-0.73,0.95-0.96c0.4-0.23,0.86-0.34,1.37-0.34c0.51,0,0.97,0.11,1.36,0.34
		c0.39,0.23,0.7,0.54,0.92,0.96c0.22,0.41,0.33,0.89,0.33,1.43c0,0.04,0,0.09,0,0.14c0,0.05-0.01,0.1-0.02,0.15h-4.51v-0.69h4.01
		l-0.39,0.24c0.01-0.34-0.06-0.64-0.21-0.91c-0.15-0.27-0.35-0.47-0.61-0.62c-0.26-0.15-0.55-0.22-0.89-0.22
		c-0.33,0-0.63,0.08-0.89,0.22c-0.26,0.15-0.46,0.36-0.61,0.63c-0.15,0.27-0.22,0.58-0.22,0.92v0.16c0,0.35,0.08,0.67,0.25,0.94
		c0.16,0.28,0.39,0.49,0.68,0.65c0.29,0.15,0.63,0.23,1.01,0.23c0.31,0,0.6-0.05,0.86-0.16c0.26-0.11,0.48-0.27,0.67-0.48l0.53,0.62
		c-0.24,0.28-0.54,0.49-0.9,0.64S86.96-249.19,86.52-249.19z"/>
	<path class="st10" d="M92.47-249.19c-0.51,0-0.97-0.11-1.38-0.34s-0.72-0.54-0.96-0.95c-0.23-0.41-0.35-0.88-0.35-1.42
		s0.12-1.01,0.35-1.42c0.23-0.4,0.55-0.72,0.96-0.94s0.86-0.34,1.38-0.34c0.45,0,0.85,0.1,1.21,0.3c0.36,0.2,0.65,0.5,0.87,0.9
		c0.22,0.4,0.33,0.9,0.33,1.5c0,0.6-0.11,1.1-0.32,1.5c-0.21,0.4-0.49,0.7-0.85,0.91S92.93-249.19,92.47-249.19z M92.55-250.03
		c0.33,0,0.64-0.08,0.91-0.23c0.27-0.15,0.48-0.37,0.64-0.66c0.16-0.28,0.24-0.61,0.24-0.99c0-0.38-0.08-0.71-0.24-0.98
		c-0.16-0.28-0.37-0.49-0.64-0.65c-0.27-0.15-0.57-0.23-0.91-0.23c-0.34,0-0.64,0.08-0.91,0.23s-0.48,0.37-0.64,0.65
		s-0.24,0.6-0.24,0.98c0,0.37,0.08,0.7,0.24,0.99s0.37,0.5,0.64,0.66S92.21-250.03,92.55-250.03z M94.36-249.25v-1.43l0.06-1.23
		l-0.1-1.23v-3.53h0.96v7.42H94.36z"/>
	<path class="st10" d="M99.79-249.25v-7.42h0.96v3.53l-0.1,1.23l0.06,1.23v1.43H99.79z M102.6-249.19c-0.45,0-0.86-0.1-1.22-0.3
		s-0.65-0.5-0.86-0.91c-0.21-0.4-0.31-0.9-0.31-1.5c0-0.6,0.11-1.1,0.32-1.5c0.22-0.4,0.51-0.7,0.87-0.9s0.77-0.3,1.21-0.3
		c0.52,0,0.98,0.11,1.38,0.34c0.4,0.23,0.72,0.54,0.95,0.94c0.23,0.4,0.35,0.88,0.35,1.42s-0.12,1.01-0.35,1.42
		c-0.23,0.41-0.55,0.72-0.95,0.95C103.58-249.31,103.12-249.19,102.6-249.19z M102.52-250.03c0.34,0,0.65-0.08,0.92-0.23
		c0.27-0.15,0.48-0.37,0.64-0.66c0.16-0.28,0.23-0.61,0.23-0.99c0-0.38-0.08-0.71-0.23-0.98c-0.16-0.28-0.37-0.49-0.64-0.65
		c-0.27-0.15-0.57-0.23-0.92-0.23c-0.33,0-0.63,0.08-0.9,0.23c-0.27,0.15-0.48,0.37-0.64,0.65c-0.16,0.28-0.23,0.6-0.23,0.98
		c0,0.37,0.08,0.7,0.23,0.99c0.16,0.28,0.37,0.5,0.64,0.66C101.89-250.11,102.19-250.03,102.52-250.03z"/>
	<path class="st10" d="M106.69-247.25c-0.25,0-0.5-0.04-0.74-0.12c-0.24-0.08-0.45-0.21-0.62-0.37l0.41-0.72
		c0.13,0.13,0.28,0.22,0.44,0.29s0.33,0.1,0.51,0.1c0.23,0,0.43-0.06,0.58-0.18s0.3-0.33,0.43-0.64l0.33-0.73l0.1-0.12l2.08-4.81
		h0.94l-2.57,5.83c-0.15,0.37-0.33,0.67-0.52,0.88c-0.19,0.21-0.4,0.37-0.62,0.46S106.97-247.25,106.69-247.25z M107.95-249.08
		l-2.42-5.47h1l2.06,4.72L107.95-249.08z"/>
</g>
<g>
	<path class="st10" d="M52.06-158.32v-7h2.73c0.61,0,1.14,0.1,1.57,0.29c0.43,0.19,0.77,0.47,1,0.84c0.23,0.37,0.35,0.8,0.35,1.31
		c0,0.51-0.12,0.94-0.35,1.3s-0.57,0.64-1,0.84c-0.43,0.2-0.96,0.29-1.57,0.29h-2.18l0.45-0.47v2.59H52.06z M53.06-160.81l-0.45-0.5
		h2.15c0.64,0,1.12-0.14,1.46-0.41c0.33-0.27,0.5-0.66,0.5-1.16s-0.17-0.89-0.5-1.16s-0.82-0.41-1.46-0.41h-2.15l0.45-0.5V-160.81z"
		/>
	<path class="st10" d="M61.29-158.26c-0.53,0-1.01-0.12-1.42-0.35s-0.74-0.55-0.98-0.96c-0.24-0.41-0.36-0.88-0.36-1.4
		c0-0.53,0.12-0.99,0.36-1.4c0.24-0.41,0.57-0.73,0.98-0.96c0.41-0.23,0.89-0.34,1.42-0.34c0.53,0,1,0.11,1.42,0.34
		c0.42,0.23,0.74,0.55,0.98,0.95c0.24,0.4,0.35,0.87,0.35,1.4c0,0.53-0.12,0.99-0.35,1.4c-0.24,0.41-0.56,0.73-0.98,0.96
		C62.29-158.38,61.82-158.26,61.29-158.26z M61.29-159.1c0.34,0,0.65-0.08,0.92-0.23c0.27-0.15,0.48-0.37,0.64-0.66
		c0.15-0.28,0.23-0.61,0.23-0.99c0-0.38-0.08-0.71-0.23-0.98c-0.15-0.28-0.37-0.49-0.64-0.65c-0.27-0.15-0.58-0.23-0.92-0.23
		s-0.64,0.08-0.91,0.23s-0.48,0.37-0.64,0.65s-0.24,0.6-0.24,0.98c0,0.37,0.08,0.7,0.24,0.99s0.37,0.5,0.64,0.66
		S60.95-159.1,61.29-159.1z"/>
	<path class="st10" d="M66.34-158.32l-1.97-5.3h0.91l1.75,4.8H66.6l1.82-4.8h0.81l1.78,4.8h-0.42l1.79-4.8h0.86l-1.98,5.3h-0.92
		l-1.67-4.38h0.28l-1.69,4.38H66.34z"/>
	<path class="st10" d="M76.42-158.26c-0.57,0-1.06-0.12-1.49-0.35c-0.43-0.23-0.76-0.55-1-0.96c-0.24-0.41-0.36-0.87-0.36-1.4
		c0-0.53,0.12-0.99,0.34-1.4c0.23-0.41,0.55-0.73,0.95-0.96c0.4-0.23,0.86-0.34,1.37-0.34c0.51,0,0.97,0.11,1.36,0.34
		c0.39,0.23,0.7,0.54,0.92,0.96c0.22,0.41,0.33,0.89,0.33,1.43c0,0.04,0,0.09,0,0.14c0,0.05-0.01,0.1-0.02,0.15h-4.51v-0.69h4.01
		l-0.39,0.24c0.01-0.34-0.06-0.64-0.21-0.91c-0.15-0.27-0.35-0.47-0.61-0.62c-0.26-0.15-0.55-0.22-0.89-0.22
		c-0.33,0-0.63,0.08-0.89,0.22c-0.26,0.15-0.46,0.36-0.61,0.63c-0.15,0.27-0.22,0.58-0.22,0.92v0.16c0,0.35,0.08,0.67,0.25,0.94
		c0.16,0.28,0.39,0.49,0.68,0.65c0.29,0.15,0.63,0.23,1.01,0.23c0.31,0,0.6-0.05,0.86-0.16c0.26-0.11,0.48-0.27,0.67-0.48l0.53,0.62
		c-0.24,0.28-0.54,0.49-0.9,0.64S76.86-158.26,76.42-158.26z"/>
	<path class="st10" d="M80.18-158.32v-5.3h0.92v1.44l-0.09-0.36c0.15-0.37,0.39-0.65,0.74-0.84c0.35-0.19,0.77-0.29,1.28-0.29v0.93
		c-0.04-0.01-0.08-0.01-0.12-0.01c-0.04,0-0.07,0-0.1,0c-0.51,0-0.92,0.15-1.22,0.46c-0.3,0.31-0.45,0.75-0.45,1.33v2.64H80.18z"/>
	<path class="st10" d="M86.52-158.26c-0.57,0-1.06-0.12-1.49-0.35c-0.43-0.23-0.76-0.55-1-0.96c-0.24-0.41-0.36-0.87-0.36-1.4
		c0-0.53,0.12-0.99,0.34-1.4c0.23-0.41,0.55-0.73,0.95-0.96c0.4-0.23,0.86-0.34,1.37-0.34c0.51,0,0.97,0.11,1.36,0.34
		c0.39,0.23,0.7,0.54,0.92,0.96c0.22,0.41,0.33,0.89,0.33,1.43c0,0.04,0,0.09,0,0.14c0,0.05-0.01,0.1-0.02,0.15h-4.51v-0.69h4.01
		l-0.39,0.24c0.01-0.34-0.06-0.64-0.21-0.91c-0.15-0.27-0.35-0.47-0.61-0.62c-0.26-0.15-0.55-0.22-0.89-0.22
		c-0.33,0-0.63,0.08-0.89,0.22c-0.26,0.15-0.46,0.36-0.61,0.63c-0.15,0.27-0.22,0.58-0.22,0.92v0.16c0,0.35,0.08,0.67,0.25,0.94
		c0.16,0.28,0.39,0.49,0.68,0.65c0.29,0.15,0.63,0.23,1.01,0.23c0.31,0,0.6-0.05,0.86-0.16c0.26-0.11,0.48-0.27,0.67-0.48l0.53,0.62
		c-0.24,0.28-0.54,0.49-0.9,0.64S86.96-158.26,86.52-158.26z"/>
	<path class="st10" d="M92.47-158.26c-0.51,0-0.97-0.11-1.38-0.34s-0.72-0.54-0.96-0.95c-0.23-0.41-0.35-0.88-0.35-1.42
		s0.12-1.01,0.35-1.42c0.23-0.4,0.55-0.72,0.96-0.94s0.86-0.34,1.38-0.34c0.45,0,0.85,0.1,1.21,0.3c0.36,0.2,0.65,0.5,0.87,0.9
		c0.22,0.4,0.33,0.9,0.33,1.5c0,0.6-0.11,1.1-0.32,1.5c-0.21,0.4-0.49,0.7-0.85,0.91S92.93-158.26,92.47-158.26z M92.55-159.1
		c0.33,0,0.64-0.08,0.91-0.23c0.27-0.15,0.48-0.37,0.64-0.66c0.16-0.28,0.24-0.61,0.24-0.99c0-0.38-0.08-0.71-0.24-0.98
		c-0.16-0.28-0.37-0.49-0.64-0.65c-0.27-0.15-0.57-0.23-0.91-0.23c-0.34,0-0.64,0.08-0.91,0.23s-0.48,0.37-0.64,0.65
		s-0.24,0.6-0.24,0.98c0,0.37,0.08,0.7,0.24,0.99s0.37,0.5,0.64,0.66S92.21-159.1,92.55-159.1z M94.36-158.32v-1.43l0.06-1.23
		l-0.1-1.23v-3.53h0.96v7.42H94.36z"/>
	<path class="st10" d="M99.79-158.32v-7.42h0.96v3.53l-0.1,1.23l0.06,1.23v1.43H99.79z M102.6-158.26c-0.45,0-0.86-0.1-1.22-0.3
		s-0.65-0.5-0.86-0.91c-0.21-0.4-0.31-0.9-0.31-1.5c0-0.6,0.11-1.1,0.32-1.5c0.22-0.4,0.51-0.7,0.87-0.9s0.77-0.3,1.21-0.3
		c0.52,0,0.98,0.11,1.38,0.34c0.4,0.23,0.72,0.54,0.95,0.94c0.23,0.4,0.35,0.88,0.35,1.42s-0.12,1.01-0.35,1.42
		c-0.23,0.41-0.55,0.72-0.95,0.95C103.58-158.37,103.12-158.26,102.6-158.26z M102.52-159.1c0.34,0,0.65-0.08,0.92-0.23
		c0.27-0.15,0.48-0.37,0.64-0.66c0.16-0.28,0.23-0.61,0.23-0.99c0-0.38-0.08-0.71-0.23-0.98c-0.16-0.28-0.37-0.49-0.64-0.65
		c-0.27-0.15-0.57-0.23-0.92-0.23c-0.33,0-0.63,0.08-0.9,0.23c-0.27,0.15-0.48,0.37-0.64,0.65c-0.16,0.28-0.23,0.6-0.23,0.98
		c0,0.37,0.08,0.7,0.23,0.99c0.16,0.28,0.37,0.5,0.64,0.66C101.89-159.17,102.19-159.1,102.52-159.1z"/>
	<path class="st10" d="M106.69-156.32c-0.25,0-0.5-0.04-0.74-0.12c-0.24-0.08-0.45-0.21-0.62-0.37l0.41-0.72
		c0.13,0.13,0.28,0.22,0.44,0.29s0.33,0.1,0.51,0.1c0.23,0,0.43-0.06,0.58-0.18s0.3-0.33,0.43-0.64l0.33-0.73l0.1-0.12l2.08-4.81
		h0.94l-2.57,5.83c-0.15,0.37-0.33,0.67-0.52,0.88c-0.19,0.21-0.4,0.37-0.62,0.46S106.97-156.32,106.69-156.32z M107.95-158.15
		l-2.42-5.47h1l2.06,4.72L107.95-158.15z"/>
</g>
<g>
	<path class="st10" d="M52.06,21.22v-7h2.73c0.61,0,1.14,0.1,1.57,0.29c0.43,0.19,0.77,0.47,1,0.84c0.23,0.37,0.35,0.8,0.35,1.31
		c0,0.51-0.12,0.94-0.35,1.3s-0.57,0.64-1,0.84c-0.43,0.2-0.96,0.29-1.57,0.29h-2.18l0.45-0.47v2.59H52.06z M53.06,18.73l-0.45-0.5
		h2.15c0.64,0,1.12-0.14,1.46-0.41c0.33-0.27,0.5-0.66,0.5-1.16s-0.17-0.89-0.5-1.16s-0.82-0.41-1.46-0.41h-2.15l0.45-0.5V18.73z"/>
	<path class="st10" d="M61.29,21.28c-0.53,0-1.01-0.12-1.42-0.35s-0.74-0.55-0.98-0.96c-0.24-0.41-0.36-0.88-0.36-1.4
		c0-0.53,0.12-0.99,0.36-1.4c0.24-0.41,0.57-0.73,0.98-0.96c0.41-0.23,0.89-0.34,1.42-0.34c0.53,0,1,0.11,1.42,0.34
		c0.42,0.23,0.74,0.55,0.98,0.95c0.24,0.4,0.35,0.87,0.35,1.4c0,0.53-0.12,0.99-0.35,1.4c-0.24,0.41-0.56,0.73-0.98,0.96
		C62.29,21.17,61.82,21.28,61.29,21.28z M61.29,20.44c0.34,0,0.65-0.08,0.92-0.23c0.27-0.15,0.48-0.37,0.64-0.66
		c0.15-0.28,0.23-0.61,0.23-0.99c0-0.38-0.08-0.71-0.23-0.98c-0.15-0.28-0.37-0.49-0.64-0.65c-0.27-0.15-0.58-0.23-0.92-0.23
		s-0.64,0.08-0.91,0.23s-0.48,0.37-0.64,0.65s-0.24,0.6-0.24,0.98c0,0.37,0.08,0.7,0.24,0.99s0.37,0.5,0.64,0.66
		S60.95,20.44,61.29,20.44z"/>
	<path class="st10" d="M66.34,21.22l-1.97-5.3h0.91l1.75,4.8H66.6l1.82-4.8h0.81l1.78,4.8h-0.42l1.79-4.8h0.86l-1.98,5.3h-0.92
		l-1.67-4.38h0.28l-1.69,4.38H66.34z"/>
	<path class="st10" d="M76.42,21.28c-0.57,0-1.06-0.12-1.49-0.35c-0.43-0.23-0.76-0.55-1-0.96c-0.24-0.41-0.36-0.87-0.36-1.4
		c0-0.53,0.12-0.99,0.34-1.4c0.23-0.41,0.55-0.73,0.95-0.96c0.4-0.23,0.86-0.34,1.37-0.34c0.51,0,0.97,0.11,1.36,0.34
		c0.39,0.23,0.7,0.54,0.92,0.96c0.22,0.41,0.33,0.89,0.33,1.43c0,0.04,0,0.09,0,0.14c0,0.05-0.01,0.1-0.02,0.15h-4.51V18.2h4.01
		l-0.39,0.24c0.01-0.34-0.06-0.64-0.21-0.91c-0.15-0.27-0.35-0.47-0.61-0.62c-0.26-0.15-0.55-0.22-0.89-0.22
		c-0.33,0-0.63,0.08-0.89,0.22c-0.26,0.15-0.46,0.36-0.61,0.63c-0.15,0.27-0.22,0.58-0.22,0.92v0.16c0,0.35,0.08,0.67,0.25,0.94
		c0.16,0.28,0.39,0.49,0.68,0.65c0.29,0.15,0.63,0.23,1.01,0.23c0.31,0,0.6-0.05,0.86-0.16c0.26-0.11,0.48-0.27,0.67-0.48l0.53,0.62
		c-0.24,0.28-0.54,0.49-0.9,0.64S76.86,21.28,76.42,21.28z"/>
	<path class="st10" d="M80.18,21.22v-5.3h0.92v1.44L81.01,17c0.15-0.37,0.39-0.65,0.74-0.84c0.35-0.19,0.77-0.29,1.28-0.29v0.93
		c-0.04-0.01-0.08-0.01-0.12-0.01c-0.04,0-0.07,0-0.1,0c-0.51,0-0.92,0.15-1.22,0.46c-0.3,0.31-0.45,0.75-0.45,1.33v2.64H80.18z"/>
	<path class="st10" d="M86.52,21.28c-0.57,0-1.06-0.12-1.49-0.35c-0.43-0.23-0.76-0.55-1-0.96c-0.24-0.41-0.36-0.87-0.36-1.4
		c0-0.53,0.12-0.99,0.34-1.4c0.23-0.41,0.55-0.73,0.95-0.96c0.4-0.23,0.86-0.34,1.37-0.34c0.51,0,0.97,0.11,1.36,0.34
		c0.39,0.23,0.7,0.54,0.92,0.96c0.22,0.41,0.33,0.89,0.33,1.43c0,0.04,0,0.09,0,0.14c0,0.05-0.01,0.1-0.02,0.15h-4.51V18.2h4.01
		l-0.39,0.24c0.01-0.34-0.06-0.64-0.21-0.91c-0.15-0.27-0.35-0.47-0.61-0.62c-0.26-0.15-0.55-0.22-0.89-0.22
		c-0.33,0-0.63,0.08-0.89,0.22c-0.26,0.15-0.46,0.36-0.61,0.63c-0.15,0.27-0.22,0.58-0.22,0.92v0.16c0,0.35,0.08,0.67,0.25,0.94
		c0.16,0.28,0.39,0.49,0.68,0.65c0.29,0.15,0.63,0.23,1.01,0.23c0.31,0,0.6-0.05,0.86-0.16c0.26-0.11,0.48-0.27,0.67-0.48l0.53,0.62
		c-0.24,0.28-0.54,0.49-0.9,0.64S86.96,21.28,86.52,21.28z"/>
	<path class="st10" d="M92.47,21.28c-0.51,0-0.97-0.11-1.38-0.34s-0.72-0.54-0.96-0.95c-0.23-0.41-0.35-0.88-0.35-1.42
		s0.12-1.01,0.35-1.42c0.23-0.4,0.55-0.72,0.96-0.94s0.86-0.34,1.38-0.34c0.45,0,0.85,0.1,1.21,0.3c0.36,0.2,0.65,0.5,0.87,0.9
		c0.22,0.4,0.33,0.9,0.33,1.5c0,0.6-0.11,1.1-0.32,1.5c-0.21,0.4-0.49,0.7-0.85,0.91S92.93,21.28,92.47,21.28z M92.55,20.44
		c0.33,0,0.64-0.08,0.91-0.23c0.27-0.15,0.48-0.37,0.64-0.66c0.16-0.28,0.24-0.61,0.24-0.99c0-0.38-0.08-0.71-0.24-0.98
		c-0.16-0.28-0.37-0.49-0.64-0.65c-0.27-0.15-0.57-0.23-0.91-0.23c-0.34,0-0.64,0.08-0.91,0.23s-0.48,0.37-0.64,0.65
		s-0.24,0.6-0.24,0.98c0,0.37,0.08,0.7,0.24,0.99s0.37,0.5,0.64,0.66S92.21,20.44,92.55,20.44z M94.36,21.22v-1.43l0.06-1.23
		l-0.1-1.23V13.8h0.96v7.42H94.36z"/>
	<path class="st10" d="M99.79,21.22V13.8h0.96v3.53l-0.1,1.23l0.06,1.23v1.43H99.79z M102.6,21.28c-0.45,0-0.86-0.1-1.22-0.3
		s-0.65-0.5-0.86-0.91c-0.21-0.4-0.31-0.9-0.31-1.5c0-0.6,0.11-1.1,0.32-1.5c0.22-0.4,0.51-0.7,0.87-0.9s0.77-0.3,1.21-0.3
		c0.52,0,0.98,0.11,1.38,0.34c0.4,0.23,0.72,0.54,0.95,0.94c0.23,0.4,0.35,0.88,0.35,1.42s-0.12,1.01-0.35,1.42
		c-0.23,0.41-0.55,0.72-0.95,0.95C103.58,21.17,103.12,21.28,102.6,21.28z M102.52,20.44c0.34,0,0.65-0.08,0.92-0.23
		c0.27-0.15,0.48-0.37,0.64-0.66c0.16-0.28,0.23-0.61,0.23-0.99c0-0.38-0.08-0.71-0.23-0.98c-0.16-0.28-0.37-0.49-0.64-0.65
		c-0.27-0.15-0.57-0.23-0.92-0.23c-0.33,0-0.63,0.08-0.9,0.23c-0.27,0.15-0.48,0.37-0.64,0.65c-0.16,0.28-0.23,0.6-0.23,0.98
		c0,0.37,0.08,0.7,0.23,0.99c0.16,0.28,0.37,0.5,0.64,0.66C101.89,20.37,102.19,20.44,102.52,20.44z"/>
	<path class="st10" d="M106.69,23.22c-0.25,0-0.5-0.04-0.74-0.12c-0.24-0.08-0.45-0.21-0.62-0.37l0.41-0.72
		c0.13,0.13,0.28,0.22,0.44,0.29s0.33,0.1,0.51,0.1c0.23,0,0.43-0.06,0.58-0.18s0.3-0.33,0.43-0.64l0.33-0.73l0.1-0.12l2.08-4.81
		h0.94l-2.57,5.83c-0.15,0.37-0.33,0.67-0.52,0.88c-0.19,0.21-0.4,0.37-0.62,0.46S106.96,23.22,106.69,23.22z M107.95,21.39
		l-2.42-5.47h1l2.06,4.72L107.95,21.39z"/>
</g>
<g>
	<path class="st10" d="M135.27,55.85c-0.43,0.42-0.88,0.59-1.43,0.59c-1.08,0-1.97-0.65-1.97-1.97s0.9-1.97,1.97-1.97
		c0.53,0,0.93,0.15,1.34,0.55l-0.58,0.61c-0.22-0.2-0.49-0.29-0.75-0.29c-0.62,0-1.07,0.45-1.07,1.1c0,0.71,0.48,1.09,1.05,1.09
		c0.29,0,0.59-0.08,0.81-0.31L135.27,55.85z"/>
	<path class="st10" d="M144.13,51.05v2.07c0.33-0.43,0.74-0.56,1.16-0.56c1.06,0,1.52,0.72,1.52,1.81v1.96h-0.92v-1.95
		c0-0.68-0.35-0.96-0.84-0.96c-0.54,0-0.92,0.46-0.92,1.02v1.9h-0.92v-5.28H144.13z"/>
	<path class="st10" d="M158.08,52.61h0.88v3.72h-0.87l-0.04-0.54c-0.21,0.44-0.79,0.65-1.21,0.66c-1.1,0.01-1.92-0.67-1.92-1.98
		c0-1.28,0.85-1.95,1.94-1.94c0.5,0,0.97,0.23,1.18,0.6L158.08,52.61z M155.85,54.46c0,0.71,0.49,1.13,1.1,1.13
		c1.45,0,1.45-2.25,0-2.25C156.34,53.34,155.85,53.75,155.85,54.46z"/>
	<path class="st10" d="M168.12,52.61l0.07,0.43c0.29-0.46,0.67-0.53,1.05-0.53c0.38,0,0.75,0.15,0.96,0.35l-0.42,0.8
		c-0.19-0.16-0.36-0.24-0.66-0.24c-0.48,0-0.93,0.26-0.93,0.94v1.96h-0.92v-3.72H168.12z"/>
	<path class="st10" d="M179.61,51.56v1.05h1.03v0.79h-1.03v1.61c0,0.35,0.2,0.53,0.48,0.53c0.14,0,0.31-0.04,0.44-0.11l0.26,0.78
		c-0.26,0.11-0.48,0.15-0.76,0.16c-0.81,0.03-1.33-0.43-1.33-1.36v-1.61h-0.69v-0.79h0.69v-0.96L179.61,51.56z"/>
	<path class="st10" d="M191.28,53.6c-0.26-0.25-0.57-0.33-0.92-0.33c-0.44,0-0.68,0.14-0.68,0.37c0,0.24,0.22,0.38,0.69,0.41
		c0.7,0.05,1.59,0.2,1.59,1.19c0,0.66-0.54,1.22-1.6,1.22c-0.59,0-1.18-0.1-1.72-0.66l0.45-0.66c0.26,0.29,0.87,0.51,1.28,0.52
		c0.35,0.01,0.67-0.17,0.67-0.44c0-0.26-0.21-0.36-0.74-0.39c-0.7-0.05-1.54-0.31-1.54-1.15c0-0.86,0.89-1.16,1.57-1.16
		c0.58,0,1.02,0.11,1.45,0.49L191.28,53.6z"/>
</g>
<g>
	<path class="st11" d="M38.75,26.28c0.53-0.49,0.72-1.25,0.5-1.93c-0.23-0.69-0.83-1.18-1.55-1.26l-5.85-0.86
		c-1.01,3.67-2.48,8.83-2.48,8.83c0,0.01-0.01,0.02-0.01,0.02c-0.43,1.86-2.18,3.86-4.53,5.06c-2.65,1.43-5.47,1.23-6.97-0.34
		c-0.73-0.63-1.23-1.43-1.4-2.35c-0.49-2.62,1.84-5.29,5.3-6.2c0.23-0.06,0.47-0.11,0.71-0.16c0.38-0.07,0.76-0.11,1.13-0.14
		c1.41-0.1,2.75,0.12,3.85,0.6c0.05,0.03,0.1,0.05,0.15,0.08l1.51-6.09c-0.2-0.16-0.37-0.36-0.5-0.59h0l-3.41-6.96l0,0
		c-0.31-0.66-0.98-1.08-1.71-1.08c-0.73,0-1.39,0.42-1.7,1.08l-3.41,6.96c-0.29,0.54-0.81,0.92-1.41,1.02l-7.69,1.12
		c-0.72,0.08-1.32,0.57-1.55,1.26c-0.23,0.69-0.03,1.44,0.5,1.93l5.55,5.44c0.46,0.41,0.66,1.03,0.54,1.63L12.99,41
		c-0.12,0.7,0.17,1.42,0.74,1.84c0.58,0.42,1.34,0.48,1.98,0.16h0l6.89-3.63c0.55-0.26,1.19-0.26,1.74,0L31.24,43
		c0.64,0.33,1.4,0.27,1.98-0.16c0.58-0.42,0.86-1.13,0.74-1.84l-1.31-7.65c-0.12-0.6,0.09-1.22,0.54-1.63L38.75,26.28z"/>
	<polygon class="st12" points="40.81,28.05 38.64,30.47 41.97,35.86 35.85,46.45 32.08,46.45 23.61,46.45 21.36,42.55 18.55,44.09 
		21.76,49.66 37.7,49.66 38.53,48.22 41.9,42.38 45.67,35.86 	"/>
</g>
</svg>
