<?xml version="1.0" encoding="utf-8"?>
<!-- Generator: Adobe Illustrator 26.3.1, SVG Export Plug-In . SVG Version: 6.00 Build 0)  -->
<svg version="1.1" id="Layer_1" xmlns="http://www.w3.org/2000/svg" xmlns:xlink="http://www.w3.org/1999/xlink" x="0px" y="0px"
	 viewBox="0 0 210 60" style="enable-background:new 0 0 210 60;" xml:space="preserve">
<style type="text/css">
	.st0{fill:#FFC53B;}
	.st1{opacity:0.25;fill:#FFC53B;}
	.st2{fill:#FF1241;}
	.st3{opacity:0.25;fill:#FF8098;}
	.st4{fill:#99E266;}
	.st5{opacity:0.5;fill:#99E266;}
	.st6{opacity:0.3;fill:#3D77FF;}
	.st7{fill:#3D77FF;}
	.st8{fill:#F961EA;}
	.st9{opacity:0.21;fill:#F961EA;}
	.st10{fill:#17171C;}
	.st11{fill:#B65FDE;}
	.st12{opacity:0.3;fill:#B65FDE;}
</style>
<g>
	<path class="st10" d="M54.58,46.9V30.44h1.1v3.93l-0.18,2.09l0.23,2.09v8.35H54.58z M60.61,42.53c-1.06,0-2.01-0.25-2.86-0.74
		c-0.85-0.49-1.53-1.19-2.02-2.1s-0.75-2-0.75-3.25c0-1.26,0.25-2.34,0.75-3.25c0.5-0.91,1.17-1.61,2.02-2.1
		c0.85-0.49,1.81-0.74,2.86-0.74c1.13,0,2.15,0.26,3.05,0.77c0.9,0.51,1.6,1.23,2.12,2.15c0.51,0.92,0.77,1.98,0.77,3.17
		s-0.26,2.25-0.77,3.17c-0.51,0.92-1.22,1.64-2.12,2.15C62.76,42.28,61.74,42.53,60.61,42.53z M60.54,41.5
		c0.92,0,1.75-0.21,2.48-0.63s1.31-1.02,1.74-1.78c0.42-0.77,0.63-1.65,0.63-2.64c0-1.01-0.21-1.9-0.63-2.66
		c-0.42-0.76-1-1.35-1.74-1.77c-0.74-0.42-1.56-0.63-2.48-0.63c-0.92,0-1.74,0.21-2.47,0.63c-0.73,0.42-1.3,1.01-1.73,1.77
		c-0.42,0.76-0.63,1.64-0.63,2.66c0,1,0.21,1.88,0.63,2.64c0.42,0.77,1,1.36,1.73,1.78C58.79,41.29,59.62,41.5,60.54,41.5z"/>
	<path class="st10" d="M70.1,42.44V25.38h1.15v17.07H70.1z"/>
	<path class="st10" d="M79.35,42.53c-0.89,0-1.66-0.14-2.31-0.43c-0.65-0.28-1.15-0.69-1.5-1.21c-0.34-0.52-0.52-1.12-0.52-1.79
		c0-0.61,0.14-1.17,0.42-1.67c0.28-0.5,0.75-0.9,1.42-1.22c0.66-0.31,1.54-0.47,2.64-0.47h4.42v0.9h-4.39
		c-1.24,0-2.11,0.23-2.61,0.69c-0.5,0.46-0.75,1.04-0.75,1.73c0,0.77,0.29,1.38,0.87,1.84s1.4,0.69,2.46,0.69
		c1.01,0,1.87-0.23,2.56-0.69c0.7-0.46,1.21-1.13,1.55-2l0.32,0.78c-0.32,0.87-0.87,1.57-1.64,2.08
		C81.53,42.28,80.55,42.53,79.35,42.53z M83.67,42.44v-2.74l-0.05-0.41v-4.51c0-1.12-0.3-1.97-0.91-2.55
		c-0.61-0.58-1.49-0.87-2.66-0.87c-0.83,0-1.6,0.14-2.31,0.43c-0.71,0.28-1.32,0.65-1.83,1.09l-0.58-0.83
		c0.6-0.54,1.32-0.95,2.16-1.25s1.73-0.45,2.65-0.45c1.49,0,2.63,0.38,3.43,1.13c0.8,0.75,1.2,1.87,1.2,3.36v7.61H83.67z"/>
	<path class="st10" d="M89.01,47c-0.55,0-1.07-0.09-1.55-0.28c-0.48-0.18-0.89-0.45-1.23-0.81l0.58-0.87c0.31,0.32,0.64,0.56,1,0.71
		s0.77,0.23,1.23,0.23c0.55,0,1.04-0.15,1.46-0.46s0.82-0.87,1.18-1.68l0.83-1.84l0.16-0.21l5.08-11.36h1.17l-6.16,13.64
		c-0.32,0.74-0.67,1.31-1.05,1.74s-0.79,0.72-1.23,0.91C90.04,46.9,89.55,47,89.01,47z M92.48,42.74l-5.57-12.3h1.22l5.06,11.29
		L92.48,42.74z"/>
	<path class="st10" d="M101.43,42.44V25.38h1.15v17.07H101.43z"/>
	<path class="st10" d="M108.01,27.52c-0.26,0-0.48-0.09-0.67-0.28c-0.18-0.18-0.28-0.4-0.28-0.64c0-0.26,0.09-0.48,0.28-0.67
		c0.18-0.18,0.41-0.28,0.67-0.28c0.28,0,0.5,0.09,0.68,0.26c0.18,0.18,0.26,0.39,0.26,0.66s-0.09,0.48-0.26,0.67
		C108.51,27.42,108.28,27.52,108.01,27.52z M107.43,42.44V30.44h1.15v12.01H107.43z"/>
	<path class="st10" d="M116.47,42.53c-1,0-1.93-0.15-2.79-0.44s-1.54-0.66-2.01-1.1l0.53-0.92c0.46,0.4,1.07,0.74,1.84,1.02
		c0.77,0.28,1.59,0.43,2.48,0.43c1.26,0,2.16-0.21,2.71-0.62c0.55-0.41,0.83-0.96,0.83-1.63c0-0.49-0.14-0.88-0.42-1.16
		c-0.28-0.28-0.66-0.5-1.14-0.66c-0.48-0.15-1-0.28-1.56-0.38s-1.13-0.21-1.7-0.33c-0.57-0.12-1.09-0.3-1.56-0.53
		c-0.48-0.23-0.85-0.55-1.14-0.95s-0.43-0.95-0.43-1.62c0-0.61,0.17-1.17,0.51-1.66c0.34-0.49,0.84-0.89,1.52-1.18
		s1.52-0.45,2.53-0.45c0.75,0,1.51,0.11,2.27,0.32c0.76,0.21,1.38,0.5,1.85,0.85l-0.53,0.92c-0.51-0.38-1.07-0.66-1.7-0.83
		s-1.26-0.25-1.91-0.25c-1.17,0-2.02,0.21-2.56,0.64c-0.54,0.43-0.82,0.97-0.82,1.61c0,0.51,0.14,0.91,0.43,1.21
		c0.28,0.3,0.66,0.53,1.14,0.69c0.47,0.16,1,0.29,1.56,0.39c0.57,0.1,1.13,0.21,1.7,0.33s1.09,0.29,1.56,0.52
		c0.47,0.22,0.85,0.53,1.14,0.92c0.28,0.39,0.43,0.92,0.43,1.58c0,0.66-0.18,1.23-0.54,1.73c-0.36,0.49-0.89,0.87-1.6,1.15
		C118.36,42.4,117.5,42.53,116.47,42.53z"/>
	<path class="st10" d="M122.45,31.43v-0.99h7.18v0.99H122.45z M127.92,42.53c-1.06,0-1.87-0.29-2.43-0.87
		c-0.56-0.58-0.84-1.38-0.84-2.39V27.81h1.15v11.34c0,0.77,0.19,1.36,0.57,1.77c0.38,0.41,0.94,0.62,1.66,0.62
		c0.75,0,1.37-0.22,1.86-0.67l0.48,0.81c-0.31,0.29-0.68,0.51-1.12,0.64C128.83,42.47,128.38,42.53,127.92,42.53z"/>
	<path class="st10" d="M133.03,46.9V30.16h2.74v2.9l-0.09,3.27l0.23,3.27v7.31H133.03z M139.84,42.6c-1,0-1.91-0.23-2.73-0.69
		s-1.47-1.15-1.96-2.08c-0.48-0.93-0.72-2.1-0.72-3.53c0-1.44,0.23-2.62,0.7-3.54s1.11-1.61,1.92-2.06
		c0.81-0.45,1.74-0.68,2.78-0.68c1.21,0,2.28,0.26,3.21,0.78s1.66,1.25,2.21,2.18c0.54,0.94,0.82,2.04,0.82,3.31
		s-0.27,2.38-0.82,3.32s-1.28,1.67-2.21,2.2S141.05,42.6,139.84,42.6z M139.52,40.14c0.69,0,1.31-0.15,1.85-0.46
		c0.54-0.31,0.98-0.75,1.3-1.33c0.32-0.58,0.48-1.27,0.48-2.05c0-0.8-0.16-1.48-0.48-2.06c-0.32-0.58-0.76-1.02-1.3-1.32
		c-0.54-0.31-1.16-0.46-1.85-0.46c-0.69,0-1.31,0.15-1.86,0.46c-0.55,0.31-0.99,0.75-1.31,1.32c-0.32,0.58-0.48,1.26-0.48,2.06
		c0,0.78,0.16,1.46,0.48,2.05c0.32,0.58,0.76,1.03,1.31,1.33S138.83,40.14,139.52,40.14z"/>
	<path class="st10" d="M154.01,42.6c-1.04,0-1.96-0.2-2.76-0.59c-0.8-0.39-1.42-0.99-1.86-1.79c-0.45-0.8-0.67-1.82-0.67-3.05v-7.02
		h2.88v6.62c0,1.1,0.25,1.93,0.75,2.47c0.5,0.54,1.21,0.82,2.13,0.82c0.67,0,1.26-0.14,1.76-0.41c0.5-0.28,0.89-0.69,1.17-1.24
		c0.28-0.55,0.43-1.23,0.43-2.05v-6.21h2.88v12.28h-2.74v-3.31l0.48,1.01c-0.41,0.8-1.02,1.41-1.82,1.83
		C155.83,42.39,154.96,42.6,154.01,42.6z"/>
	<path class="st10" d="M164.47,42.44V25.38h2.88v17.07H164.47z"/>
	<path class="st10" d="M174.91,42.6c-1.03,0-2.01-0.13-2.96-0.4c-0.94-0.27-1.69-0.59-2.24-0.98l1.1-2.19
		c0.55,0.35,1.21,0.64,1.98,0.87c0.77,0.23,1.53,0.35,2.3,0.35c0.9,0,1.56-0.12,1.97-0.37s0.61-0.58,0.61-0.99
		c0-0.34-0.14-0.59-0.41-0.77c-0.28-0.18-0.64-0.31-1.08-0.4c-0.45-0.09-0.94-0.18-1.48-0.25c-0.54-0.08-1.09-0.18-1.63-0.31
		c-0.54-0.13-1.04-0.32-1.48-0.58c-0.44-0.25-0.8-0.59-1.08-1.02c-0.28-0.43-0.41-1-0.41-1.7c0-0.78,0.22-1.46,0.67-2.04
		c0.45-0.58,1.07-1.02,1.88-1.33s1.76-0.47,2.86-0.47c0.83,0,1.66,0.09,2.51,0.28c0.84,0.18,1.54,0.44,2.09,0.78l-1.1,2.19
		c-0.58-0.35-1.17-0.59-1.76-0.72c-0.59-0.13-1.18-0.2-1.76-0.2c-0.87,0-1.52,0.13-1.94,0.39s-0.63,0.59-0.63,0.99
		c0,0.37,0.14,0.64,0.41,0.83c0.28,0.18,0.64,0.33,1.08,0.44c0.44,0.11,0.94,0.2,1.48,0.26c0.54,0.07,1.08,0.17,1.62,0.31
		s1.03,0.33,1.48,0.56c0.45,0.24,0.82,0.57,1.09,1c0.28,0.43,0.41,0.99,0.41,1.68c0,0.77-0.23,1.43-0.68,2s-1.09,1.01-1.92,1.32
		C177.05,42.45,176.06,42.6,174.91,42.6z"/>
	<path class="st10" d="M188.74,42.6c-1.37,0-2.56-0.27-3.58-0.82s-1.81-1.29-2.37-2.24c-0.56-0.95-0.84-2.03-0.84-3.24
		c0-1.23,0.27-2.31,0.82-3.25s1.3-1.68,2.25-2.22c0.96-0.54,2.05-0.8,3.28-0.8c1.2,0,2.26,0.26,3.2,0.78s1.67,1.26,2.21,2.21
		c0.54,0.95,0.8,2.07,0.8,3.36c0,0.12,0,0.26-0.01,0.41c-0.01,0.15-0.02,0.3-0.04,0.44h-10.23v-1.91h8.72l-1.13,0.6
		c0.01-0.71-0.13-1.33-0.44-1.86c-0.31-0.54-0.72-0.96-1.25-1.27c-0.53-0.31-1.14-0.46-1.83-0.46c-0.71,0-1.32,0.15-1.85,0.46
		c-0.53,0.31-0.94,0.73-1.24,1.28c-0.3,0.54-0.45,1.18-0.45,1.92v0.46c0,0.74,0.17,1.39,0.51,1.96c0.34,0.57,0.81,1,1.43,1.31
		c0.61,0.31,1.32,0.46,2.12,0.46c0.69,0,1.31-0.11,1.86-0.32s1.04-0.55,1.47-1.01l1.54,1.77c-0.55,0.64-1.25,1.14-2.08,1.48
		S189.81,42.6,188.74,42.6z"/>
</g>
<g>
	<path class="st10" d="M52.06,21.22v-7h2.73c0.61,0,1.14,0.1,1.57,0.29c0.43,0.19,0.77,0.47,1,0.84c0.23,0.37,0.35,0.8,0.35,1.31
		c0,0.51-0.12,0.94-0.35,1.3s-0.57,0.64-1,0.84c-0.43,0.2-0.96,0.29-1.57,0.29h-2.18l0.45-0.47v2.59H52.06z M53.06,18.73l-0.45-0.5
		h2.15c0.64,0,1.12-0.14,1.46-0.41c0.33-0.27,0.5-0.66,0.5-1.16s-0.17-0.89-0.5-1.16s-0.82-0.41-1.46-0.41h-2.15l0.45-0.5V18.73z"/>
	<path class="st10" d="M61.29,21.28c-0.53,0-1.01-0.12-1.42-0.35s-0.74-0.55-0.98-0.96c-0.24-0.41-0.36-0.88-0.36-1.4
		c0-0.53,0.12-0.99,0.36-1.4c0.24-0.41,0.57-0.73,0.98-0.96c0.41-0.23,0.89-0.34,1.42-0.34c0.53,0,1,0.11,1.42,0.34
		c0.42,0.23,0.74,0.55,0.98,0.95c0.24,0.4,0.35,0.87,0.35,1.4c0,0.53-0.12,0.99-0.35,1.4c-0.24,0.41-0.56,0.73-0.98,0.96
		C62.29,21.17,61.82,21.28,61.29,21.28z M61.29,20.44c0.34,0,0.65-0.08,0.92-0.23c0.27-0.15,0.48-0.37,0.64-0.66
		c0.15-0.28,0.23-0.61,0.23-0.99c0-0.38-0.08-0.71-0.23-0.98c-0.15-0.28-0.37-0.49-0.64-0.65c-0.27-0.15-0.58-0.23-0.92-0.23
		s-0.64,0.08-0.91,0.23s-0.48,0.37-0.64,0.65s-0.24,0.6-0.24,0.98c0,0.37,0.08,0.7,0.24,0.99s0.37,0.5,0.64,0.66
		S60.95,20.44,61.29,20.44z"/>
	<path class="st10" d="M66.34,21.22l-1.97-5.3h0.91l1.75,4.8H66.6l1.82-4.8h0.81l1.78,4.8h-0.42l1.79-4.8h0.86l-1.98,5.3h-0.92
		l-1.67-4.38h0.28l-1.69,4.38H66.34z"/>
	<path class="st10" d="M76.42,21.28c-0.57,0-1.06-0.12-1.49-0.35c-0.43-0.23-0.76-0.55-1-0.96c-0.24-0.41-0.36-0.87-0.36-1.4
		c0-0.53,0.12-0.99,0.34-1.4c0.23-0.41,0.55-0.73,0.95-0.96c0.4-0.23,0.86-0.34,1.37-0.34c0.51,0,0.97,0.11,1.36,0.34
		c0.39,0.23,0.7,0.54,0.92,0.96c0.22,0.41,0.33,0.89,0.33,1.43c0,0.04,0,0.09,0,0.14c0,0.05-0.01,0.1-0.02,0.15h-4.51V18.2h4.01
		l-0.39,0.24c0.01-0.34-0.06-0.64-0.21-0.91c-0.15-0.27-0.35-0.47-0.61-0.62c-0.26-0.15-0.55-0.22-0.89-0.22
		c-0.33,0-0.63,0.08-0.89,0.22c-0.26,0.15-0.46,0.36-0.61,0.63c-0.15,0.27-0.22,0.58-0.22,0.92v0.16c0,0.35,0.08,0.67,0.25,0.94
		c0.16,0.28,0.39,0.49,0.68,0.65c0.29,0.15,0.63,0.23,1.01,0.23c0.31,0,0.6-0.05,0.86-0.16c0.26-0.11,0.48-0.27,0.67-0.48l0.53,0.62
		c-0.24,0.28-0.54,0.49-0.9,0.64S76.86,21.28,76.42,21.28z"/>
	<path class="st10" d="M80.18,21.22v-5.3h0.92v1.44L81.01,17c0.15-0.37,0.39-0.65,0.74-0.84c0.35-0.19,0.77-0.29,1.28-0.29v0.93
		c-0.04-0.01-0.08-0.01-0.12-0.01c-0.04,0-0.07,0-0.1,0c-0.51,0-0.92,0.15-1.22,0.46c-0.3,0.31-0.45,0.75-0.45,1.33v2.64H80.18z"/>
	<path class="st10" d="M86.52,21.28c-0.57,0-1.06-0.12-1.49-0.35c-0.43-0.23-0.76-0.55-1-0.96c-0.24-0.41-0.36-0.87-0.36-1.4
		c0-0.53,0.12-0.99,0.34-1.4c0.23-0.41,0.55-0.73,0.95-0.96c0.4-0.23,0.86-0.34,1.37-0.34c0.51,0,0.97,0.11,1.36,0.34
		c0.39,0.23,0.7,0.54,0.92,0.96c0.22,0.41,0.33,0.89,0.33,1.43c0,0.04,0,0.09,0,0.14c0,0.05-0.01,0.1-0.02,0.15h-4.51V18.2h4.01
		l-0.39,0.24c0.01-0.34-0.06-0.64-0.21-0.91c-0.15-0.27-0.35-0.47-0.61-0.62c-0.26-0.15-0.55-0.22-0.89-0.22
		c-0.33,0-0.63,0.08-0.89,0.22c-0.26,0.15-0.46,0.36-0.61,0.63c-0.15,0.27-0.22,0.58-0.22,0.92v0.16c0,0.35,0.08,0.67,0.25,0.94
		c0.16,0.28,0.39,0.49,0.68,0.65c0.29,0.15,0.63,0.23,1.01,0.23c0.31,0,0.6-0.05,0.86-0.16c0.26-0.11,0.48-0.27,0.67-0.48l0.53,0.62
		c-0.24,0.28-0.54,0.49-0.9,0.64S86.96,21.28,86.52,21.28z"/>
	<path class="st10" d="M92.47,21.28c-0.51,0-0.97-0.11-1.38-0.34s-0.72-0.54-0.96-0.95c-0.23-0.41-0.35-0.88-0.35-1.42
		s0.12-1.01,0.35-1.42c0.23-0.4,0.55-0.72,0.96-0.94s0.86-0.34,1.38-0.34c0.45,0,0.85,0.1,1.21,0.3c0.36,0.2,0.65,0.5,0.87,0.9
		c0.22,0.4,0.33,0.9,0.33,1.5c0,0.6-0.11,1.1-0.32,1.5c-0.21,0.4-0.49,0.7-0.85,0.91S92.93,21.28,92.47,21.28z M92.55,20.44
		c0.33,0,0.64-0.08,0.91-0.23c0.27-0.15,0.48-0.37,0.64-0.66c0.16-0.28,0.24-0.61,0.24-0.99c0-0.38-0.08-0.71-0.24-0.98
		c-0.16-0.28-0.37-0.49-0.64-0.65c-0.27-0.15-0.57-0.23-0.91-0.23c-0.34,0-0.64,0.08-0.91,0.23s-0.48,0.37-0.64,0.65
		s-0.24,0.6-0.24,0.98c0,0.37,0.08,0.7,0.24,0.99s0.37,0.5,0.64,0.66S92.21,20.44,92.55,20.44z M94.36,21.22v-1.43l0.06-1.23
		l-0.1-1.23V13.8h0.96v7.42H94.36z"/>
	<path class="st10" d="M99.79,21.22V13.8h0.96v3.53l-0.1,1.23l0.06,1.23v1.43H99.79z M102.6,21.28c-0.45,0-0.86-0.1-1.22-0.3
		s-0.65-0.5-0.86-0.91c-0.21-0.4-0.31-0.9-0.31-1.5c0-0.6,0.11-1.1,0.32-1.5c0.22-0.4,0.51-0.7,0.87-0.9s0.77-0.3,1.21-0.3
		c0.52,0,0.98,0.11,1.38,0.34c0.4,0.23,0.72,0.54,0.95,0.94c0.23,0.4,0.35,0.88,0.35,1.42s-0.12,1.01-0.35,1.42
		c-0.23,0.41-0.55,0.72-0.95,0.95C103.58,21.17,103.12,21.28,102.6,21.28z M102.52,20.44c0.34,0,0.65-0.08,0.92-0.23
		c0.27-0.15,0.48-0.37,0.64-0.66c0.16-0.28,0.23-0.61,0.23-0.99c0-0.38-0.08-0.71-0.23-0.98c-0.16-0.28-0.37-0.49-0.64-0.65
		c-0.27-0.15-0.57-0.23-0.92-0.23c-0.33,0-0.63,0.08-0.9,0.23c-0.27,0.15-0.48,0.37-0.64,0.65c-0.16,0.28-0.23,0.6-0.23,0.98
		c0,0.37,0.08,0.7,0.23,0.99c0.16,0.28,0.37,0.5,0.64,0.66C101.89,20.37,102.19,20.44,102.52,20.44z"/>
	<path class="st10" d="M106.69,23.22c-0.25,0-0.5-0.04-0.74-0.12c-0.24-0.08-0.45-0.21-0.62-0.37l0.41-0.72
		c0.13,0.13,0.28,0.22,0.44,0.29s0.33,0.1,0.51,0.1c0.23,0,0.43-0.06,0.58-0.18s0.3-0.33,0.43-0.64l0.33-0.73l0.1-0.12l2.08-4.81
		h0.94l-2.57,5.83c-0.15,0.37-0.33,0.67-0.52,0.88c-0.19,0.21-0.4,0.37-0.62,0.46S106.96,23.22,106.69,23.22z M107.95,21.39
		l-2.42-5.47h1l2.06,4.72L107.95,21.39z"/>
</g>
<g>
	<path class="st10" d="M135.27,55.85c-0.43,0.42-0.88,0.59-1.43,0.59c-1.08,0-1.97-0.65-1.97-1.97s0.9-1.97,1.97-1.97
		c0.53,0,0.93,0.15,1.34,0.55l-0.58,0.61c-0.22-0.2-0.49-0.29-0.75-0.29c-0.62,0-1.07,0.45-1.07,1.1c0,0.71,0.48,1.09,1.05,1.09
		c0.29,0,0.59-0.08,0.81-0.31L135.27,55.85z"/>
	<path class="st10" d="M144.13,51.05v2.07c0.33-0.43,0.74-0.56,1.16-0.56c1.06,0,1.52,0.72,1.52,1.81v1.96h-0.92v-1.95
		c0-0.68-0.35-0.96-0.84-0.96c-0.54,0-0.92,0.46-0.92,1.02v1.9h-0.92v-5.28H144.13z"/>
	<path class="st10" d="M158.08,52.61h0.88v3.72h-0.87l-0.04-0.54c-0.21,0.44-0.79,0.65-1.21,0.66c-1.1,0.01-1.92-0.67-1.92-1.98
		c0-1.28,0.85-1.95,1.94-1.94c0.5,0,0.97,0.23,1.18,0.6L158.08,52.61z M155.85,54.46c0,0.71,0.49,1.13,1.1,1.13
		c1.45,0,1.45-2.25,0-2.25C156.34,53.34,155.85,53.75,155.85,54.46z"/>
	<path class="st10" d="M168.12,52.61l0.07,0.43c0.29-0.46,0.67-0.53,1.05-0.53c0.38,0,0.75,0.15,0.96,0.35l-0.42,0.8
		c-0.19-0.16-0.36-0.24-0.66-0.24c-0.48,0-0.93,0.26-0.93,0.94v1.96h-0.92v-3.72H168.12z"/>
	<path class="st10" d="M179.61,51.56v1.05h1.03v0.79h-1.03v1.61c0,0.35,0.2,0.53,0.48,0.53c0.14,0,0.31-0.04,0.44-0.11l0.26,0.78
		c-0.26,0.11-0.48,0.15-0.76,0.16c-0.81,0.03-1.33-0.43-1.33-1.36v-1.61h-0.69v-0.79h0.69v-0.96L179.61,51.56z"/>
	<path class="st10" d="M191.28,53.6c-0.26-0.25-0.57-0.33-0.92-0.33c-0.44,0-0.68,0.14-0.68,0.37c0,0.24,0.22,0.38,0.69,0.41
		c0.7,0.05,1.59,0.2,1.59,1.19c0,0.66-0.54,1.22-1.6,1.22c-0.59,0-1.18-0.1-1.72-0.66l0.45-0.66c0.26,0.29,0.87,0.51,1.28,0.52
		c0.35,0.01,0.67-0.17,0.67-0.44c0-0.26-0.21-0.36-0.74-0.39c-0.7-0.05-1.54-0.31-1.54-1.15c0-0.86,0.89-1.16,1.57-1.16
		c0.58,0,1.02,0.11,1.45,0.49L191.28,53.6z"/>
</g>
<g>
	<path class="st11" d="M38.75,26.28c0.53-0.49,0.72-1.25,0.5-1.93c-0.23-0.69-0.83-1.18-1.55-1.26l-5.85-0.86
		c-1.01,3.67-2.48,8.83-2.48,8.83c0,0.01-0.01,0.02-0.01,0.02c-0.43,1.86-2.18,3.86-4.53,5.06c-2.65,1.43-5.47,1.23-6.97-0.34
		c-0.73-0.63-1.23-1.43-1.4-2.35c-0.49-2.62,1.84-5.29,5.3-6.2c0.23-0.06,0.47-0.11,0.71-0.16c0.38-0.07,0.76-0.11,1.13-0.14
		c1.41-0.1,2.75,0.12,3.85,0.6c0.05,0.03,0.1,0.05,0.15,0.08l1.51-6.09c-0.2-0.16-0.37-0.36-0.5-0.59h0l-3.41-6.96l0,0
		c-0.31-0.66-0.98-1.08-1.71-1.08c-0.73,0-1.39,0.42-1.7,1.08l-3.41,6.96c-0.29,0.54-0.81,0.92-1.41,1.02l-7.69,1.12
		c-0.72,0.08-1.32,0.57-1.55,1.26c-0.23,0.69-0.03,1.44,0.5,1.93l5.55,5.44c0.46,0.41,0.66,1.03,0.54,1.63L12.99,41
		c-0.12,0.7,0.17,1.42,0.74,1.84c0.58,0.42,1.34,0.48,1.98,0.16h0l6.89-3.63c0.55-0.26,1.19-0.26,1.74,0L31.24,43
		c0.64,0.33,1.4,0.27,1.98-0.16c0.58-0.42,0.86-1.13,0.74-1.84l-1.31-7.65c-0.12-0.6,0.09-1.22,0.54-1.63L38.75,26.28z"/>
	<polygon class="st12" points="40.81,28.05 38.64,30.47 41.97,35.86 35.85,46.45 32.08,46.45 23.61,46.45 21.36,42.55 18.55,44.09 
		21.76,49.66 37.7,49.66 38.53,48.22 41.9,42.38 45.67,35.86 	"/>
</g>
</svg>
