<?xml version="1.0" encoding="utf-8"?>
<!-- Generator: Adobe Illustrator 26.3.1, SVG Export Plug-In . SVG Version: 6.00 Build 0)  -->
<svg version="1.1" id="Layer_1" xmlns="http://www.w3.org/2000/svg" xmlns:xlink="http://www.w3.org/1999/xlink" x="0px" y="0px"
	 viewBox="0 0 210 60" style="enable-background:new 0 0 210 60;" xml:space="preserve">
<style type="text/css">
	.st0{fill:#FF1241;}
	.st1{opacity:0.25;fill:#FF8098;enable-background:new    ;}
	.st2{fill:#FFFFFF;}
</style>
<g>
	<g>
		<path id="b_00000140692558736763848250000018261298206411086767_" class="st0" d="M188.01,26.42c-0.08,0-0.16-0.03-0.24-0.05
			c-0.24-0.11-0.43-0.3-0.43-0.52v-5.91c0-0.19,0.14-0.33,0.32-0.38c0.11-0.03,0.22-0.03,0.32-0.03c0.11,0,0.24,0.05,0.35,0.11
			l4.28,2.55c0.16,0.08,0.27,0.24,0.32,0.38c0.03,0.14-0.03,0.3-0.16,0.38l-4.28,3.36C188.36,26.42,188.17,26.44,188.01,26.42z
			 M179.4,12.35l11.86-1.06c4.12-0.35,8.15,2.82,8.15,7.48v14.56c0,2.22-2.71,4.23-6.04,4.53c-3.33,0.3-6.04-1.27-6.04-3.47v-4.01
			l3.01-0.27c3.33-0.3,6.04-3.17,6.04-7.24v-2.01c0-3.47-2.71-5.67-6.04-5.37l-7.93,0.7v18.57c0,2.22-2.71,4.23-6.04,4.53
			c-2.7,0.38-4.98-1.27-5.04-3.47c-0.07-2.48,1.71-4.23,5.04-4.53c1.68-0.14,3.01-1.17,3.01-2.28V16.5v-1.33L179.4,12.35z"/>
	</g>
	<path class="st1" d="M186.11,38.51l-1.46,2.53l-2.59,4.48h-3.77h-8.47l-6.12-10.6l6.12-10.59h3.77h2.77v-3.21h-8.39l-0.83,1.44
		l-3.37,5.84l-3.77,6.52l4.89,8.47h-0.01l3.08,5.34h0.01h1.45h14.48l0.83-1.43l3.37-5.84l0.72-1.24
		C187.76,39.81,186.84,39.23,186.11,38.51z"/>
</g>
<g>
	<path class="st2" d="M92.7,27.14v-7h2.73c0.61,0,1.14,0.1,1.57,0.29s0.77,0.47,1,0.84c0.23,0.37,0.35,0.8,0.35,1.31
		c0,0.51-0.12,0.94-0.35,1.3c-0.23,0.36-0.57,0.64-1,0.84s-0.96,0.29-1.57,0.29h-2.18l0.45-0.47v2.59h-1V27.14z M93.7,24.65
		l-0.45-0.5h2.15c0.64,0,1.12-0.14,1.46-0.41c0.33-0.27,0.5-0.66,0.5-1.16s-0.17-0.89-0.5-1.16s-0.82-0.41-1.46-0.41h-2.15l0.45-0.5
		V24.65z"/>
	<path class="st2" d="M101.93,27.2c-0.53,0-1.01-0.12-1.42-0.35s-0.74-0.55-0.98-0.96c-0.24-0.41-0.36-0.88-0.36-1.4
		c0-0.53,0.12-0.99,0.36-1.4c0.24-0.41,0.57-0.73,0.98-0.96s0.89-0.34,1.42-0.34s1,0.11,1.42,0.34s0.74,0.55,0.98,0.95
		c0.24,0.4,0.35,0.87,0.35,1.4s-0.12,0.99-0.35,1.4c-0.24,0.41-0.56,0.73-0.98,0.96C102.93,27.08,102.46,27.2,101.93,27.2z
		 M101.93,26.36c0.34,0,0.65-0.08,0.92-0.23c0.27-0.15,0.48-0.37,0.64-0.66c0.15-0.28,0.23-0.61,0.23-0.99
		c0-0.38-0.08-0.71-0.23-0.98c-0.15-0.28-0.37-0.49-0.64-0.65c-0.27-0.15-0.58-0.23-0.92-0.23s-0.64,0.08-0.91,0.23
		c-0.27,0.15-0.48,0.37-0.64,0.65c-0.16,0.28-0.24,0.6-0.24,0.98c0,0.37,0.08,0.7,0.24,0.99c0.16,0.29,0.37,0.5,0.64,0.66
		C101.29,26.29,101.59,26.36,101.93,26.36z"/>
	<path class="st2" d="M106.98,27.14l-1.97-5.3h0.91l1.75,4.8h-0.43l1.82-4.8h0.81l1.78,4.8h-0.42l1.79-4.8h0.86l-1.98,5.3h-0.92
		l-1.67-4.38h0.28l-1.69,4.38H106.98z"/>
	<path class="st2" d="M117.06,27.2c-0.57,0-1.06-0.12-1.49-0.35s-0.76-0.55-1-0.96s-0.36-0.87-0.36-1.4c0-0.53,0.12-0.99,0.34-1.4
		c0.23-0.41,0.55-0.73,0.95-0.96c0.4-0.23,0.86-0.34,1.37-0.34s0.97,0.11,1.36,0.34s0.7,0.54,0.92,0.96
		c0.22,0.41,0.33,0.89,0.33,1.43c0,0.04,0,0.09,0,0.14s-0.01,0.1-0.02,0.15h-4.51v-0.69h4.01l-0.39,0.24
		c0.01-0.34-0.06-0.64-0.21-0.91s-0.35-0.47-0.61-0.62c-0.26-0.15-0.55-0.22-0.89-0.22c-0.33,0-0.63,0.08-0.89,0.22
		c-0.26,0.15-0.46,0.36-0.61,0.63s-0.22,0.58-0.22,0.92v0.16c0,0.35,0.08,0.67,0.25,0.94c0.16,0.28,0.39,0.49,0.68,0.65
		c0.29,0.15,0.63,0.23,1.01,0.23c0.31,0,0.6-0.05,0.86-0.16s0.48-0.27,0.67-0.48l0.53,0.62c-0.24,0.28-0.54,0.49-0.9,0.64
		C117.88,27.13,117.5,27.2,117.06,27.2z"/>
	<path class="st2" d="M120.82,27.14v-5.3h0.92v1.44l-0.09-0.36c0.15-0.37,0.39-0.65,0.74-0.84c0.35-0.19,0.77-0.29,1.28-0.29v0.93
		c-0.04-0.01-0.08-0.01-0.12-0.01s-0.07,0-0.1,0c-0.51,0-0.92,0.15-1.22,0.46c-0.3,0.31-0.45,0.75-0.45,1.33v2.64
		C121.78,27.14,120.82,27.14,120.82,27.14z"/>
	<path class="st2" d="M127.16,27.2c-0.57,0-1.06-0.12-1.49-0.35s-0.76-0.55-1-0.96s-0.36-0.87-0.36-1.4c0-0.53,0.12-0.99,0.34-1.4
		c0.23-0.41,0.55-0.73,0.95-0.96c0.4-0.23,0.86-0.34,1.37-0.34s0.97,0.11,1.36,0.34s0.7,0.54,0.92,0.96
		c0.22,0.41,0.33,0.89,0.33,1.43c0,0.04,0,0.09,0,0.14s-0.01,0.1-0.02,0.15h-4.51v-0.69h4.01l-0.39,0.24
		c0.01-0.34-0.06-0.64-0.21-0.91s-0.35-0.47-0.61-0.62c-0.26-0.15-0.55-0.22-0.89-0.22c-0.33,0-0.63,0.08-0.89,0.22
		c-0.26,0.15-0.46,0.36-0.61,0.63s-0.22,0.58-0.22,0.92v0.16c0,0.35,0.08,0.67,0.25,0.94c0.16,0.28,0.39,0.49,0.68,0.65
		c0.29,0.15,0.63,0.23,1.01,0.23c0.31,0,0.6-0.05,0.86-0.16c0.26-0.11,0.48-0.27,0.67-0.48l0.53,0.62c-0.24,0.28-0.54,0.49-0.9,0.64
		C127.98,27.13,127.6,27.2,127.16,27.2z"/>
	<path class="st2" d="M133.11,27.2c-0.51,0-0.97-0.11-1.38-0.34s-0.72-0.54-0.96-0.95c-0.23-0.41-0.35-0.88-0.35-1.42
		s0.12-1.01,0.35-1.42c0.23-0.4,0.55-0.72,0.96-0.94s0.86-0.34,1.38-0.34c0.45,0,0.85,0.1,1.21,0.3c0.36,0.2,0.65,0.5,0.87,0.9
		c0.22,0.4,0.33,0.9,0.33,1.5c0,0.6-0.11,1.1-0.32,1.5c-0.21,0.4-0.49,0.7-0.85,0.91C133.99,27.11,133.57,27.2,133.11,27.2z
		 M133.19,26.36c0.33,0,0.64-0.08,0.91-0.23c0.27-0.15,0.48-0.37,0.64-0.66c0.16-0.28,0.24-0.61,0.24-0.99
		c0-0.38-0.08-0.71-0.24-0.98c-0.16-0.28-0.37-0.49-0.64-0.65c-0.27-0.15-0.57-0.23-0.91-0.23s-0.64,0.08-0.91,0.23
		c-0.27,0.15-0.48,0.37-0.64,0.65c-0.16,0.28-0.24,0.6-0.24,0.98c0,0.37,0.08,0.7,0.24,0.99c0.16,0.29,0.37,0.5,0.64,0.66
		C132.55,26.29,132.85,26.36,133.19,26.36z M135,27.14v-1.43l0.06-1.23l-0.1-1.23v-3.53h0.96v7.42H135z"/>
	<path class="st2" d="M140.43,27.14v-7.42h0.96v3.53l-0.1,1.23l0.06,1.23v1.43H140.43z M143.24,27.2c-0.45,0-0.86-0.1-1.22-0.3
		c-0.36-0.2-0.65-0.5-0.86-0.91c-0.21-0.4-0.31-0.9-0.31-1.5c0-0.6,0.11-1.1,0.32-1.5c0.22-0.4,0.51-0.7,0.87-0.9
		c0.36-0.2,0.77-0.3,1.21-0.3c0.52,0,0.98,0.11,1.38,0.34c0.4,0.23,0.72,0.54,0.95,0.94c0.23,0.4,0.35,0.88,0.35,1.42
		s-0.12,1.01-0.35,1.42c-0.23,0.41-0.55,0.72-0.95,0.95C144.22,27.09,143.76,27.2,143.24,27.2z M143.16,26.36
		c0.34,0,0.65-0.08,0.92-0.23c0.27-0.15,0.48-0.37,0.64-0.66c0.16-0.28,0.23-0.61,0.23-0.99c0-0.38-0.08-0.71-0.23-0.98
		c-0.16-0.28-0.37-0.49-0.64-0.65c-0.27-0.15-0.57-0.23-0.92-0.23c-0.33,0-0.63,0.08-0.9,0.23c-0.27,0.15-0.48,0.37-0.64,0.65
		c-0.16,0.28-0.23,0.6-0.23,0.98c0,0.37,0.08,0.7,0.23,0.99c0.16,0.28,0.37,0.5,0.64,0.66C142.53,26.29,142.83,26.36,143.16,26.36z"
		/>
	<path class="st2" d="M147.33,29.14c-0.25,0-0.5-0.04-0.74-0.12c-0.24-0.08-0.45-0.21-0.62-0.37l0.41-0.72
		c0.13,0.13,0.28,0.22,0.44,0.29c0.16,0.07,0.33,0.1,0.51,0.1c0.23,0,0.43-0.06,0.58-0.18c0.15-0.12,0.3-0.33,0.43-0.64l0.33-0.73
		l0.1-0.12l2.08-4.81h0.94l-2.57,5.83c-0.15,0.37-0.33,0.67-0.52,0.88s-0.4,0.37-0.62,0.46C147.86,29.1,147.61,29.14,147.33,29.14z
		 M148.59,27.31l-2.42-5.47h1l2.06,4.72L148.59,27.31z"/>
</g>
<g>
	<g>
		<path class="st2" d="M13.3,44.08V33.72h4.73c0.95,0,1.76,0.15,2.45,0.46s1.22,0.75,1.59,1.32c0.37,0.58,0.56,1.26,0.56,2.05
			c0,0.78-0.19,1.46-0.56,2.03c-0.38,0.57-0.91,1.01-1.59,1.32s-1.5,0.47-2.45,0.47h-3.11l1.3-1.27v3.98H13.3z M16.23,40.41
			l-1.3-1.35h2.93c0.61,0,1.07-0.13,1.37-0.4c0.3-0.27,0.45-0.64,0.45-1.11c0-0.48-0.15-0.86-0.45-1.12c-0.3-0.27-0.76-0.4-1.37-0.4
			h-2.93l1.3-1.35V40.41z"/>
		<path class="st2" d="M24.07,44.08V33.72H27v8.03h4.94v2.32H24.07z"/>
		<path class="st2" d="M31.97,44.08l4.57-10.36h2.89l4.59,10.36h-3.05l-3.58-8.92h1.15l-3.58,8.92H31.97z M34.47,42.07l0.75-2.16
			h5.06l0.75,2.16H34.47z"/>
		<path class="st2" d="M46.81,44.08V39.7l0.68,1.76l-4.63-7.74h3.09l3.34,5.61h-1.79l3.36-5.61h2.84l-4.62,7.74l0.65-1.76v4.38
			H46.81z"/>
		<path class="st2" d="M54.4,44.08V33.72h2.93v8.03h4.94v2.32H54.4z"/>
		<path class="st2" d="M63.43,44.08V33.72h2.93v10.36H63.43z"/>
		<path class="st2" d="M72.08,44.28c-0.85,0-1.66-0.11-2.45-0.32s-1.42-0.49-1.92-0.82l0.96-2.16c0.46,0.3,1,0.54,1.61,0.73
			c0.61,0.19,1.21,0.29,1.81,0.29c0.4,0,0.73-0.04,0.98-0.11c0.25-0.07,0.43-0.17,0.54-0.3c0.11-0.12,0.17-0.27,0.17-0.44
			c0-0.24-0.11-0.42-0.33-0.56c-0.22-0.14-0.5-0.25-0.84-0.34s-0.73-0.18-1.15-0.27c-0.42-0.09-0.84-0.2-1.26-0.34
			c-0.42-0.14-0.8-0.32-1.15-0.54c-0.35-0.22-0.63-0.51-0.84-0.87c-0.22-0.36-0.33-0.82-0.33-1.37c0-0.62,0.17-1.18,0.51-1.69
			c0.34-0.5,0.85-0.91,1.53-1.21c0.68-0.31,1.53-0.46,2.54-0.46c0.68,0,1.35,0.08,2,0.23c0.66,0.15,1.24,0.38,1.75,0.67l-0.9,2.17
			c-0.49-0.27-0.98-0.47-1.46-0.6c-0.48-0.13-0.95-0.2-1.41-0.2c-0.4,0-0.73,0.04-0.98,0.12c-0.25,0.08-0.42,0.2-0.53,0.33
			c-0.11,0.14-0.16,0.3-0.16,0.47c0,0.23,0.11,0.41,0.32,0.54c0.21,0.13,0.49,0.24,0.84,0.33c0.35,0.08,0.73,0.17,1.15,0.26
			c0.42,0.09,0.84,0.2,1.26,0.33c0.42,0.13,0.8,0.31,1.15,0.53s0.62,0.51,0.84,0.87c0.21,0.36,0.32,0.81,0.32,1.35
			c0,0.6-0.17,1.16-0.51,1.67c-0.34,0.51-0.85,0.91-1.52,1.22C73.96,44.13,73.11,44.28,72.08,44.28z"/>
		<path class="st2" d="M80.09,44.08v-8.03H76.9v-2.32h9.28v2.32h-3.17v8.03H80.09z"/>
		<path class="st2" d="M90.18,41.81h5.42v2.26h-8.31V33.72h8.12v2.26h-5.22V41.81z M89.97,37.73h4.81v2.19h-4.81V37.73z"/>
		<path class="st2" d="M97.22,44.08V33.72h4.73c0.95,0,1.76,0.15,2.45,0.46s1.22,0.75,1.59,1.32c0.37,0.58,0.56,1.26,0.56,2.05
			c0,0.78-0.19,1.45-0.56,2.02c-0.38,0.57-0.91,1-1.59,1.3s-1.5,0.45-2.45,0.45h-3.11l1.3-1.23v3.98H97.22z M100.15,40.41l-1.3-1.35
			h2.93c0.61,0,1.07-0.13,1.37-0.4c0.3-0.27,0.45-0.64,0.45-1.11c0-0.48-0.15-0.86-0.45-1.12c-0.3-0.27-0.76-0.4-1.37-0.4h-2.93
			l1.3-1.35V40.41z M103.62,44.08l-2.57-3.77h3.12l2.59,3.77H103.62z"/>
		<path class="st2" d="M109.22,44.21c-0.47,0-0.87-0.16-1.2-0.47c-0.33-0.32-0.49-0.72-0.49-1.2c0-0.5,0.16-0.9,0.49-1.21
			s0.73-0.45,1.2-0.45c0.47,0,0.87,0.15,1.2,0.45c0.33,0.3,0.49,0.7,0.49,1.21c0,0.48-0.16,0.88-0.49,1.2
			C110.09,44.05,109.69,44.21,109.22,44.21z"/>
	</g>
	<g>
		<path class="st2" d="M116.74,44.17c-0.78,0-1.5-0.13-2.16-0.39c-0.66-0.26-1.23-0.63-1.72-1.1S112,41.64,111.73,41
			c-0.27-0.64-0.41-1.34-0.41-2.1c0-0.76,0.14-1.46,0.41-2.1c0.27-0.64,0.65-1.2,1.14-1.67s1.06-0.84,1.72-1.1
			c0.66-0.26,1.38-0.39,2.16-0.39c0.75,0,1.46,0.13,2.12,0.38c0.66,0.25,1.22,0.63,1.67,1.13l-0.7,0.7
			c-0.42-0.43-0.89-0.75-1.41-0.94s-1.07-0.29-1.66-0.29c-0.62,0-1.2,0.11-1.73,0.32c-0.53,0.21-1,0.51-1.39,0.9
			c-0.39,0.39-0.7,0.84-0.92,1.36c-0.22,0.52-0.33,1.09-0.33,1.71c0,0.62,0.11,1.19,0.33,1.71c0.22,0.52,0.53,0.97,0.92,1.36
			c0.39,0.39,0.86,0.69,1.39,0.9c0.53,0.21,1.11,0.32,1.73,0.32c0.59,0,1.14-0.1,1.66-0.3s0.98-0.51,1.41-0.95l0.7,0.7
			c-0.45,0.5-1.01,0.88-1.67,1.14C118.21,44.04,117.5,44.17,116.74,44.17z"/>
		<path class="st2" d="M122.88,44.08V33.72h1.09v9.41h5.8v0.95H122.88z"/>
		<path class="st2" d="M135.59,44.17c-1.32,0-2.36-0.38-3.12-1.14c-0.76-0.76-1.14-1.88-1.14-3.37v-5.93h1.09v5.89
			c0,1.22,0.28,2.12,0.83,2.71c0.55,0.58,1.33,0.87,2.34,0.87c1.02,0,1.8-0.29,2.35-0.87c0.55-0.58,0.83-1.48,0.83-2.71v-5.89h1.07
			v5.93c0,1.49-0.38,2.61-1.13,3.37C137.95,43.79,136.91,44.17,135.59,44.17z"/>
		<path class="st2" d="M143.13,44.08V33.72h4.47c1.15,0,2.05,0.23,2.68,0.7c0.64,0.46,0.96,1.12,0.96,1.97
			c0,0.56-0.13,1.04-0.39,1.42s-0.62,0.68-1.07,0.87c-0.45,0.2-0.94,0.3-1.47,0.3l0.25-0.36c0.66,0,1.23,0.1,1.71,0.3
			s0.85,0.5,1.12,0.9s0.4,0.9,0.4,1.49c0,0.88-0.32,1.56-0.97,2.04c-0.65,0.48-1.62,0.72-2.92,0.72H143.13z M144.23,43.18h3.65
			c0.91,0,1.6-0.16,2.09-0.47c0.48-0.31,0.72-0.81,0.72-1.49c0-0.67-0.24-1.16-0.72-1.47c-0.48-0.31-1.18-0.47-2.09-0.47h-3.77v-0.9
			h3.42c0.83,0,1.47-0.16,1.93-0.47c0.46-0.32,0.69-0.78,0.69-1.41c0-0.63-0.23-1.1-0.69-1.41s-1.1-0.47-1.93-0.47h-3.3V43.18z"/>
	</g>
</g>
</svg>
