<?xml version="1.0" encoding="utf-8"?>
<!-- Generator: Adobe Illustrator 26.3.1, SVG Export Plug-In . SVG Version: 6.00 Build 0)  -->
<svg version="1.1" id="Layer_1" xmlns="http://www.w3.org/2000/svg" xmlns:xlink="http://www.w3.org/1999/xlink" x="0px" y="0px"
	 viewBox="0 0 210 60" style="enable-background:new 0 0 210 60;" xml:space="preserve">
<style type="text/css">
	.st0{fill:#F961EA;}
	.st1{opacity:0.21;fill:#F961EA;enable-background:new    ;}
	.st2{fill:#FFFFFF;}
</style>
<g>
	<path class="st0" d="M187.97,40.55c-0.34,0-0.67,0.07-0.97,0.19l-0.73-1.11c2.51-2.01,4.13-5.09,4.13-8.56
		c0-2.53-0.87-4.86-2.31-6.72c-1.24,4.42-2.44,8.69-2.44,8.69c0,0.01-0.01,0.02-0.01,0.02c-0.43,1.85-2.17,3.85-4.52,5.04
		c-2.64,1.42-5.45,1.22-6.94-0.34c-0.73-0.63-1.23-1.42-1.4-2.34c-0.49-2.61,1.83-5.26,5.28-6.18c0.23-0.06,0.46-0.11,0.7-0.16
		c0.38-0.07,0.75-0.11,1.12-0.14c1.41-0.1,2.73,0.12,3.84,0.6c0.05,0.03,0.1,0.05,0.15,0.08l1.95-7.46
		c-0.39-0.28-0.79-0.52-1.21-0.75l1.34-3.31c0.27,0.08,0.55,0.13,0.84,0.13c1.74,0,3.16-1.42,3.16-3.16s-1.42-3.16-3.16-3.16
		c-1.74,0-3.16,1.42-3.16,3.16c0,1.02,0.49,1.92,1.25,2.5l-1.35,3.34c-1.26-0.51-2.63-0.79-4.08-0.79c-2.68,0-5.14,0.97-7.04,2.57
		l-1.78-1.74c0.08-0.13,0.15-0.26,0.21-0.4c0.34-0.77,0.35-1.63,0.04-2.42s-0.91-1.4-1.68-1.74c-1.6-0.7-3.46,0.04-4.16,1.64
		c-0.34,0.77-0.35,1.63-0.04,2.42s0.91,1.4,1.68,1.74c0.41,0.18,0.84,0.26,1.26,0.26c0.68,0,1.34-0.23,1.88-0.63l1.73,1.69
		c-1.88,1.97-3.04,4.63-3.04,7.56c0,1.48,0.3,2.89,0.83,4.18l-5.05,3.2c-0.6-0.75-1.5-1.25-2.53-1.25c-1.74,0-3.16,1.42-3.16,3.16
		s1.42,3.16,3.16,3.16c1.74,0,3.16-1.42,3.16-3.16c0-0.29-0.05-0.56-0.12-0.83l5.04-3.2c1.86,3.39,5.46,5.69,9.61,5.69
		c2.16,0,4.16-0.63,5.86-1.71l0.71,1.08c-0.46,0.49-0.75,1.14-0.75,1.86c0,1.49,1.21,2.7,2.7,2.7s2.7-1.21,2.7-2.7
		S189.46,40.55,187.97,40.55z M186.78,13.11c1.09,0,1.97,0.88,1.97,1.97s-0.88,1.97-1.97,1.97s-1.97-0.88-1.97-1.97
		C184.81,13.99,185.69,13.11,186.78,13.11z M161.76,42.33c-1.09,0-1.97-0.88-1.97-1.97s0.88-1.97,1.97-1.97
		c1.09,0,1.97,0.88,1.97,1.97C163.73,41.44,162.85,42.33,161.76,42.33z M167.15,21.09c-1-0.43-1.45-1.6-1.02-2.59
		c0.21-0.48,0.6-0.85,1.08-1.05c0.23-0.09,0.48-0.14,0.72-0.14c0.27,0,0.53,0.05,0.79,0.16c0.48,0.21,0.85,0.6,1.05,1.08
		c0.19,0.49,0.18,1.02-0.03,1.51C169.31,21.07,168.14,21.52,167.15,21.09z M187.97,44.77c-0.83,0-1.51-0.68-1.51-1.51
		c0-0.83,0.68-1.51,1.51-1.51s1.51,0.68,1.51,1.51C189.48,44.09,188.8,44.77,187.97,44.77z"/>
	<g>
		<polygon class="st1" points="192.03,22.26 190.86,22.26 190.86,26.63 194.96,33.74 194.96,33.74 196.3,36.06 190.18,46.65 
			186.41,46.65 178.42,46.65 177.94,46.65 175.89,43.1 172.19,43.1 176.09,49.86 177.55,49.86 192.03,49.86 192.86,48.42 
			196.23,42.58 200,36.06 		"/>
	</g>
</g>
<g>
	<path class="st2" d="M28.95,42.78c-1,0-1.93-0.15-2.79-0.44s-1.54-0.66-2.01-1.1l0.53-0.92c0.46,0.4,1.07,0.74,1.84,1.02
		s1.59,0.43,2.48,0.43c1.26,0,2.16-0.21,2.71-0.62s0.83-0.96,0.83-1.63c0-0.49-0.14-0.88-0.42-1.16s-0.66-0.5-1.14-0.66
		c-0.48-0.15-1-0.28-1.56-0.38s-1.13-0.21-1.7-0.33c-0.57-0.12-1.09-0.3-1.56-0.53c-0.48-0.23-0.85-0.55-1.14-0.95
		s-0.43-0.95-0.43-1.62c0-0.61,0.17-1.17,0.51-1.66c0.34-0.49,0.84-0.89,1.52-1.18s1.52-0.45,2.53-0.45c0.75,0,1.51,0.11,2.27,0.32
		c0.76,0.21,1.38,0.5,1.85,0.85l-0.53,0.92c-0.51-0.38-1.07-0.66-1.7-0.83s-1.26-0.25-1.91-0.25c-1.17,0-2.02,0.21-2.56,0.64
		c-0.54,0.43-0.82,0.97-0.82,1.61c0,0.51,0.14,0.91,0.43,1.21c0.28,0.3,0.66,0.53,1.14,0.69c0.47,0.16,1,0.29,1.56,0.39
		c0.57,0.1,1.13,0.21,1.7,0.33s1.09,0.29,1.56,0.52c0.47,0.22,0.85,0.53,1.14,0.92c0.28,0.39,0.43,0.92,0.43,1.58
		c0,0.66-0.18,1.23-0.54,1.73c-0.36,0.49-0.89,0.87-1.6,1.15C30.84,42.64,29.97,42.78,28.95,42.78z"/>
	<path class="st2" d="M41.6,42.78c-1.15,0-2.17-0.26-3.07-0.78s-1.61-1.24-2.14-2.16s-0.79-1.97-0.79-3.15
		c0-1.2,0.26-2.25,0.79-3.16s1.24-1.63,2.14-2.15s1.92-0.78,3.07-0.78s2.18,0.26,3.08,0.78s1.62,1.24,2.14,2.15s0.78,1.97,0.78,3.16
		c0,1.18-0.26,2.23-0.78,3.15c-0.52,0.92-1.23,1.64-2.14,2.16C43.77,42.52,42.75,42.78,41.6,42.78z M41.6,41.75
		c0.92,0,1.75-0.21,2.48-0.63c0.74-0.42,1.31-1.02,1.72-1.78c0.41-0.77,0.62-1.65,0.62-2.64c0-1.01-0.21-1.9-0.62-2.66
		s-0.99-1.35-1.72-1.77c-0.74-0.42-1.56-0.63-2.48-0.63s-1.74,0.21-2.47,0.63c-0.73,0.42-1.3,1.01-1.72,1.77
		c-0.42,0.76-0.63,1.64-0.63,2.66c0,1,0.21,1.88,0.63,2.64c0.42,0.77,1,1.36,1.72,1.78S40.68,41.75,41.6,41.75z"/>
	<path class="st2" d="M57.03,30.59c0.98,0,1.84,0.19,2.56,0.56s1.3,0.94,1.7,1.7c0.41,0.76,0.61,1.7,0.61,2.82v7.01h-1.15v-6.92
		c0-1.35-0.34-2.38-1.02-3.08c-0.68-0.71-1.64-1.06-2.86-1.06c-0.93,0-1.75,0.19-2.44,0.58c-0.69,0.38-1.22,0.92-1.58,1.61
		c-0.36,0.69-0.54,1.52-0.54,2.48v6.39h-1.15v-12h1.1v3.33l-0.16-0.37c0.37-0.95,0.97-1.7,1.82-2.24
		C54.77,30.86,55.8,30.59,57.03,30.59z"/>
	<path class="st2" d="M71.31,42.25c-1.14,0-2.15-0.25-3.05-0.75s-1.61-1.19-2.14-2.07s-0.79-1.89-0.79-3.02
		c0-1.15,0.26-2.16,0.79-3.04c0.53-0.87,1.24-1.56,2.14-2.05s1.91-0.74,3.05-0.74c1.09,0,2.07,0.23,2.93,0.7s1.55,1.13,2.06,2
		s0.76,1.91,0.76,3.12c0,1.2-0.25,2.23-0.76,3.11s-1.19,1.55-2.06,2.02C73.38,42.01,72.4,42.25,71.31,42.25z M71.63,47.24
		c-1.09,0-2.12-0.17-3.1-0.51c-0.98-0.34-1.78-0.8-2.39-1.4l0.62-0.87c0.6,0.55,1.31,0.98,2.15,1.29s1.74,0.46,2.7,0.46
		c1.61,0,2.79-0.38,3.55-1.13s1.14-1.93,1.14-3.54V38.2l0.23-1.79l-0.18-1.79v-3.93h1.1V41.4c0,2.01-0.49,3.48-1.46,4.43
		C75.02,46.77,73.57,47.24,71.63,47.24z M71.41,41.22c0.97,0,1.82-0.2,2.55-0.61s1.31-0.97,1.74-1.7s0.63-1.56,0.63-2.5
		c0-0.95-0.21-1.79-0.63-2.51s-1-1.28-1.74-1.68c-0.74-0.4-1.59-0.6-2.55-0.6c-0.94,0-1.78,0.2-2.52,0.6
		c-0.74,0.4-1.33,0.96-1.75,1.68s-0.63,1.56-0.63,2.51c0,0.94,0.21,1.77,0.63,2.5s1,1.3,1.75,1.7
		C69.63,41.01,70.47,41.22,71.41,41.22z"/>
	<path class="st2" d="M86.98,42.85c-1.18,0-2.24-0.26-3.19-0.79c-0.94-0.53-1.68-1.26-2.22-2.2c-0.54-0.93-0.8-2.04-0.8-3.31
		s0.27-2.38,0.8-3.31c0.54-0.93,1.28-1.66,2.22-2.18s2-0.78,3.19-0.78c1.03,0,1.95,0.23,2.76,0.68s1.46,1.14,1.93,2.06
		s0.71,2.1,0.71,3.54c0,1.43-0.23,2.6-0.69,3.53s-1.1,1.62-1.91,2.08S88.03,42.85,86.98,42.85z M87.32,40.39
		c0.69,0,1.31-0.15,1.85-0.46s0.98-0.75,1.31-1.33c0.33-0.58,0.49-1.27,0.49-2.05c0-0.8-0.17-1.48-0.49-2.06
		c-0.33-0.58-0.77-1.02-1.31-1.32c-0.54-0.31-1.16-0.46-1.85-0.46c-0.69,0-1.31,0.15-1.85,0.46c-0.54,0.31-0.98,0.75-1.31,1.32
		c-0.33,0.58-0.49,1.26-0.49,2.06c0,0.78,0.16,1.46,0.49,2.05c0.33,0.58,0.77,1.03,1.31,1.33C86.01,40.24,86.63,40.39,87.32,40.39z
		 M91.05,42.69v-2.9l0.11-3.27l-0.23-3.27v-7.64h2.85v17.07h-2.73V42.69z"/>
	<path class="st2" d="M99.03,28.38c-0.54,0-0.98-0.17-1.32-0.51c-0.34-0.34-0.52-0.74-0.52-1.22c0-0.49,0.17-0.9,0.52-1.23
		c0.34-0.33,0.79-0.49,1.32-0.49c0.54,0,0.98,0.16,1.32,0.47c0.35,0.31,0.52,0.71,0.52,1.18c0,0.51-0.17,0.93-0.51,1.28
		C100.03,28.21,99.58,28.38,99.03,28.38z M97.58,42.69V30.41h2.88v12.28H97.58z"/>
	<path class="st2" d="M108.02,42.85c-1.03,0-2.01-0.13-2.96-0.4c-0.94-0.27-1.69-0.59-2.24-0.98l1.1-2.19
		c0.55,0.35,1.21,0.64,1.98,0.87c0.77,0.23,1.53,0.35,2.3,0.35c0.9,0,1.56-0.12,1.97-0.37s0.61-0.58,0.61-0.99
		c0-0.34-0.14-0.59-0.41-0.77c-0.28-0.18-0.64-0.31-1.08-0.4c-0.45-0.09-0.94-0.18-1.48-0.25c-0.54-0.08-1.09-0.18-1.63-0.31
		c-0.54-0.13-1.04-0.32-1.48-0.58c-0.44-0.25-0.8-0.59-1.08-1.02s-0.41-1-0.41-1.7c0-0.78,0.22-1.46,0.67-2.04
		c0.45-0.58,1.07-1.02,1.88-1.33s1.76-0.47,2.86-0.47c0.83,0,1.66,0.09,2.51,0.28c0.84,0.18,1.54,0.44,2.09,0.78l-1.1,2.19
		c-0.58-0.35-1.17-0.59-1.76-0.72s-1.18-0.2-1.76-0.2c-0.87,0-1.52,0.13-1.94,0.39S106,33.57,106,33.97c0,0.37,0.14,0.64,0.41,0.83
		c0.28,0.18,0.64,0.33,1.08,0.44c0.44,0.11,0.94,0.2,1.48,0.26c0.54,0.07,1.08,0.17,1.62,0.31s1.03,0.33,1.48,0.56
		c0.45,0.24,0.82,0.57,1.09,1c0.28,0.43,0.41,0.99,0.41,1.68c0,0.77-0.23,1.43-0.68,2s-1.09,1.01-1.92,1.32
		C110.16,42.69,109.17,42.85,108.02,42.85z"/>
	<path class="st2" d="M114.44,32.8v-2.3h8.19v2.3H114.44z M120.69,42.85c-1.35,0-2.39-0.35-3.13-1.05s-1.1-1.73-1.1-3.09V27.69h2.88
		v10.95c0,0.58,0.15,1.04,0.45,1.36s0.72,0.48,1.25,0.48c0.64,0,1.18-0.17,1.61-0.51l0.8,2.05c-0.34,0.28-0.75,0.48-1.24,0.62
		C121.72,42.78,121.21,42.85,120.69,42.85z"/>
	<path class="st2" d="M125.82,42.69V30.41h2.74v3.38l-0.32-0.99c0.37-0.83,0.95-1.46,1.74-1.89c0.79-0.43,1.78-0.64,2.96-0.64v2.74
		c-0.12-0.03-0.24-0.05-0.34-0.06c-0.11-0.01-0.22-0.01-0.32-0.01c-1.09,0-1.96,0.32-2.6,0.95c-0.64,0.64-0.97,1.58-0.97,2.84v5.96
		C128.71,42.69,125.82,42.69,125.82,42.69z"/>
	<path class="st2" d="M140.77,42.85c-1.26,0-2.38-0.27-3.36-0.82s-1.76-1.29-2.32-2.24c-0.57-0.95-0.85-2.03-0.85-3.24
		c0-1.23,0.28-2.31,0.85-3.25s1.34-1.68,2.32-2.22c0.98-0.54,2.1-0.8,3.36-0.8c1.27,0,2.4,0.27,3.39,0.8
		c0.99,0.54,1.76,1.27,2.32,2.21c0.56,0.94,0.84,2.02,0.84,3.27c0,1.21-0.28,2.29-0.84,3.24s-1.33,1.7-2.32,2.24
		C143.18,42.58,142.04,42.85,140.77,42.85z M140.77,40.39c0.71,0,1.33-0.15,1.89-0.46s0.99-0.75,1.3-1.33s0.47-1.27,0.47-2.05
		c0-0.8-0.16-1.48-0.47-2.06s-0.75-1.02-1.3-1.32c-0.55-0.31-1.17-0.46-1.86-0.46c-0.71,0-1.33,0.15-1.87,0.46
		c-0.54,0.31-0.98,0.75-1.3,1.32s-0.48,1.26-0.48,2.06c0,0.78,0.16,1.46,0.48,2.05s0.75,1.03,1.3,1.33
		C139.46,40.24,140.08,40.39,140.77,40.39z"/>
</g>
<g>
	<path class="st2" d="M88.23,21.47v-7h2.73c0.61,0,1.14,0.1,1.57,0.29s0.77,0.47,1,0.84s0.35,0.8,0.35,1.31s-0.12,0.94-0.35,1.3
		s-0.57,0.64-1,0.84s-0.96,0.29-1.57,0.29h-2.18l0.45-0.47v2.59L88.23,21.47L88.23,21.47z M89.23,18.98l-0.45-0.5h2.15
		c0.64,0,1.12-0.14,1.46-0.41c0.33-0.27,0.5-0.66,0.5-1.16s-0.17-0.89-0.5-1.16s-0.82-0.41-1.46-0.41h-2.15l0.45-0.5V18.98z"/>
	<path class="st2" d="M97.46,21.53c-0.53,0-1.01-0.12-1.42-0.35s-0.74-0.55-0.98-0.96c-0.24-0.41-0.36-0.88-0.36-1.4
		c0-0.53,0.12-0.99,0.36-1.4c0.24-0.41,0.57-0.73,0.98-0.96s0.89-0.34,1.42-0.34s1,0.11,1.42,0.34s0.74,0.55,0.98,0.95
		c0.24,0.4,0.35,0.87,0.35,1.4c0,0.53-0.12,0.99-0.35,1.4c-0.24,0.41-0.56,0.73-0.98,0.96C98.46,21.41,97.99,21.53,97.46,21.53z
		 M97.46,20.69c0.34,0,0.65-0.08,0.92-0.23c0.27-0.15,0.48-0.37,0.64-0.66c0.15-0.28,0.23-0.61,0.23-0.99s-0.08-0.71-0.23-0.98
		c-0.15-0.28-0.37-0.49-0.64-0.65c-0.27-0.15-0.58-0.23-0.92-0.23s-0.64,0.08-0.91,0.23c-0.27,0.15-0.48,0.37-0.64,0.65
		c-0.16,0.28-0.24,0.6-0.24,0.98c0,0.37,0.08,0.7,0.24,0.99c0.16,0.29,0.37,0.5,0.64,0.66C96.82,20.62,97.12,20.69,97.46,20.69z"/>
	<path class="st2" d="M102.51,21.47l-1.97-5.3h0.91l1.75,4.8h-0.43l1.82-4.8h0.81l1.78,4.8h-0.42l1.79-4.8h0.86l-1.98,5.3h-0.92
		l-1.67-4.38h0.28l-1.69,4.38C103.43,21.47,102.51,21.47,102.51,21.47z"/>
	<path class="st2" d="M112.59,21.53c-0.57,0-1.06-0.12-1.49-0.35s-0.76-0.55-1-0.96s-0.36-0.87-0.36-1.4c0-0.53,0.12-0.99,0.34-1.4
		c0.23-0.41,0.55-0.73,0.95-0.96c0.4-0.23,0.86-0.34,1.37-0.34s0.97,0.11,1.36,0.34s0.7,0.54,0.92,0.96
		c0.22,0.41,0.33,0.89,0.33,1.43c0,0.04,0,0.09,0,0.14s-0.01,0.1-0.02,0.15h-4.51v-0.69h4.01l-0.39,0.24
		c0.01-0.34-0.06-0.64-0.21-0.91s-0.35-0.47-0.61-0.62c-0.26-0.15-0.55-0.22-0.89-0.22c-0.33,0-0.63,0.08-0.89,0.22
		c-0.26,0.15-0.46,0.36-0.61,0.63c-0.15,0.27-0.22,0.58-0.22,0.92v0.16c0,0.35,0.08,0.67,0.25,0.94c0.16,0.28,0.39,0.49,0.68,0.65
		c0.29,0.15,0.63,0.23,1.01,0.23c0.31,0,0.6-0.05,0.86-0.16s0.48-0.27,0.67-0.48l0.53,0.62c-0.24,0.28-0.54,0.49-0.9,0.64
		S113.03,21.53,112.59,21.53z"/>
	<path class="st2" d="M116.35,21.47v-5.3h0.92v1.44l-0.09-0.36c0.15-0.37,0.39-0.65,0.74-0.84s0.77-0.29,1.28-0.29v0.93
		c-0.04-0.01-0.08-0.01-0.12-0.01s-0.07,0-0.1,0c-0.51,0-0.92,0.15-1.22,0.46s-0.45,0.75-0.45,1.33v2.64
		C117.31,21.47,116.35,21.47,116.35,21.47z"/>
	<path class="st2" d="M122.69,21.53c-0.57,0-1.06-0.12-1.49-0.35s-0.76-0.55-1-0.96s-0.36-0.87-0.36-1.4c0-0.53,0.12-0.99,0.34-1.4
		c0.23-0.41,0.55-0.73,0.95-0.96c0.4-0.23,0.86-0.34,1.37-0.34s0.97,0.11,1.36,0.34s0.7,0.54,0.92,0.96
		c0.22,0.41,0.33,0.89,0.33,1.43c0,0.04,0,0.09,0,0.14s-0.01,0.1-0.02,0.15h-4.51v-0.69h4.01l-0.39,0.24
		c0.01-0.34-0.06-0.64-0.21-0.91s-0.35-0.47-0.61-0.62c-0.26-0.15-0.55-0.22-0.89-0.22c-0.33,0-0.63,0.08-0.89,0.22
		c-0.26,0.15-0.46,0.36-0.61,0.63c-0.15,0.27-0.22,0.58-0.22,0.92v0.16c0,0.35,0.08,0.67,0.25,0.94c0.16,0.28,0.39,0.49,0.68,0.65
		c0.29,0.15,0.63,0.23,1.01,0.23c0.31,0,0.6-0.05,0.86-0.16s0.48-0.27,0.67-0.48l0.53,0.62c-0.24,0.28-0.54,0.49-0.9,0.64
		S123.13,21.53,122.69,21.53z"/>
	<path class="st2" d="M128.64,21.53c-0.51,0-0.97-0.11-1.38-0.34s-0.72-0.54-0.96-0.95c-0.23-0.41-0.35-0.88-0.35-1.42
		s0.12-1.01,0.35-1.42c0.23-0.4,0.55-0.72,0.96-0.94s0.86-0.34,1.38-0.34c0.45,0,0.85,0.1,1.21,0.3c0.36,0.2,0.65,0.5,0.87,0.9
		s0.33,0.9,0.33,1.5s-0.11,1.1-0.32,1.5s-0.49,0.7-0.85,0.91C129.52,21.44,129.1,21.53,128.64,21.53z M128.72,20.69
		c0.33,0,0.64-0.08,0.91-0.23c0.27-0.15,0.48-0.37,0.64-0.66c0.16-0.28,0.24-0.61,0.24-0.99s-0.08-0.71-0.24-0.98
		c-0.16-0.28-0.37-0.49-0.64-0.65c-0.27-0.15-0.57-0.23-0.91-0.23s-0.64,0.08-0.91,0.23c-0.27,0.15-0.48,0.37-0.64,0.65
		s-0.24,0.6-0.24,0.98c0,0.37,0.08,0.7,0.24,0.99s0.37,0.5,0.64,0.66S128.38,20.69,128.72,20.69z M130.53,21.47v-1.43l0.06-1.23
		l-0.1-1.23v-3.53h0.96v7.42C131.45,21.47,130.53,21.47,130.53,21.47z"/>
	<path class="st2" d="M135.96,21.47v-7.42h0.96v3.53l-0.1,1.23l0.06,1.23v1.43H135.96z M138.77,21.53c-0.45,0-0.86-0.1-1.22-0.3
		s-0.65-0.5-0.86-0.91c-0.21-0.4-0.31-0.9-0.31-1.5s0.11-1.1,0.32-1.5c0.22-0.4,0.51-0.7,0.87-0.9s0.77-0.3,1.21-0.3
		c0.52,0,0.98,0.11,1.38,0.34c0.4,0.23,0.72,0.54,0.95,0.94c0.23,0.4,0.35,0.88,0.35,1.42s-0.12,1.01-0.35,1.42
		c-0.23,0.41-0.55,0.72-0.95,0.95C139.75,21.42,139.29,21.53,138.77,21.53z M138.69,20.69c0.34,0,0.65-0.08,0.92-0.23
		s0.48-0.37,0.64-0.66c0.16-0.28,0.23-0.61,0.23-0.99s-0.08-0.71-0.23-0.98c-0.16-0.28-0.37-0.49-0.64-0.65
		c-0.27-0.15-0.57-0.23-0.92-0.23c-0.33,0-0.63,0.08-0.9,0.23c-0.27,0.15-0.48,0.37-0.64,0.65c-0.16,0.28-0.23,0.6-0.23,0.98
		c0,0.37,0.08,0.7,0.23,0.99c0.16,0.28,0.37,0.5,0.64,0.66C138.06,20.61,138.36,20.69,138.69,20.69z"/>
	<path class="st2" d="M142.86,23.47c-0.25,0-0.5-0.04-0.74-0.12s-0.45-0.21-0.62-0.37l0.41-0.72c0.13,0.13,0.28,0.22,0.44,0.29
		s0.33,0.1,0.51,0.1c0.23,0,0.43-0.06,0.58-0.18s0.3-0.33,0.43-0.64l0.33-0.73l0.1-0.12l2.08-4.81h0.94L144.75,22
		c-0.15,0.37-0.33,0.67-0.52,0.88c-0.19,0.21-0.4,0.37-0.62,0.46S143.13,23.47,142.86,23.47z M144.12,21.64l-2.42-5.47h1l2.06,4.72
		L144.12,21.64z"/>
</g>
</svg>
