<?xml version="1.0" encoding="utf-8"?>
<!-- Generator: Adobe Illustrator 26.3.1, SVG Export Plug-In . SVG Version: 6.00 Build 0)  -->
<svg version="1.1" id="Layer_1" xmlns="http://www.w3.org/2000/svg" xmlns:xlink="http://www.w3.org/1999/xlink" x="0px" y="0px"
	 viewBox="0 0 210 60" style="enable-background:new 0 0 210 60;" xml:space="preserve">
<style type="text/css">
	.st0{fill:#FFC53B;}
	.st1{opacity:0.25;fill:#FFC53B;enable-background:new    ;}
	.st2{fill:#FFFFFF;}
</style>
<g>
	<g>
		<path class="st0" d="M188.81,18.13h-2.62c-1.57,5.35-3.85,13.04-3.85,13.04c0,0.01-0.01,0.02-0.01,0.02
			c-0.44,1.83-2.26,3.8-4.7,4.97c-2.75,1.4-5.67,1.21-7.22-0.34c-0.76-0.62-1.28-1.41-1.46-2.31c-0.51-2.58,1.91-5.2,5.49-6.1
			c0.24-0.06,0.48-0.11,0.73-0.16c0.39-0.07,0.78-0.11,1.17-0.14c1.46-0.1,2.84,0.12,3.99,0.59c0.05,0.03,0.1,0.05,0.15,0.08
			l2.67-9.67h-18.83c-1.19,0-2.15,0.91-2.15,2.04v17.56c0,1.13,0.96,2.04,2.15,2.04h24.49c1.19,0,2.15-0.91,2.15-2.04V20.17
			C190.96,19.04,189.99,18.13,188.81,18.13z M176.31,20.59c0.96,0,1.73,0.74,1.73,1.65s-0.78,1.65-1.73,1.65
			c-0.96,0-1.73-0.74-1.73-1.65C174.58,21.32,175.35,20.59,176.31,20.59z M171.34,20.59c0.96,0,1.73,0.74,1.73,1.65
			s-0.78,1.65-1.73,1.65c-0.96,0-1.73-0.74-1.73-1.65C169.61,21.32,170.39,20.59,171.34,20.59z M166.37,23.88
			c-0.96,0-1.73-0.74-1.73-1.65s0.78-1.65,1.73-1.65c0.96,0,1.73,0.74,1.73,1.65C168.11,23.14,167.33,23.88,166.37,23.88z"/>
	</g>
	<g>
		<polygon class="st1" points="195.97,26.75 195.97,26.75 193.09,21.61 193.09,28.02 196.38,33.86 190.26,44.46 186.49,44.46 
			186.49,44.46 178.94,44.46 178.02,44.46 176.3,41.46 172.6,41.46 176.18,47.66 178.08,47.66 192.11,47.66 192.11,47.66 
			192.94,46.22 196.31,40.39 200.08,33.86 		"/>
	</g>
</g>
<g>
	<path class="st2" d="M41.03,40.93c-1,0-1.93-0.15-2.79-0.44s-1.54-0.66-2.01-1.1l0.53-0.92c0.46,0.4,1.07,0.74,1.84,1.02
		s1.59,0.43,2.48,0.43c1.26,0,2.16-0.21,2.71-0.62s0.83-0.96,0.83-1.63c0-0.49-0.14-0.88-0.42-1.16s-0.66-0.5-1.14-0.66
		c-0.48-0.15-1-0.28-1.56-0.38s-1.13-0.21-1.7-0.33c-0.57-0.12-1.09-0.3-1.56-0.53c-0.48-0.23-0.85-0.55-1.14-0.95
		s-0.43-0.95-0.43-1.62c0-0.61,0.17-1.17,0.51-1.66s0.84-0.89,1.52-1.18s1.52-0.45,2.53-0.45c0.75,0,1.51,0.11,2.27,0.32
		c0.76,0.21,1.38,0.5,1.85,0.85l-0.53,0.92c-0.51-0.38-1.07-0.66-1.7-0.83s-1.26-0.25-1.91-0.25c-1.17,0-2.02,0.21-2.56,0.64
		s-0.82,0.97-0.82,1.61c0,0.51,0.14,0.91,0.43,1.21c0.28,0.3,0.66,0.53,1.14,0.69c0.47,0.16,1,0.29,1.56,0.39
		c0.57,0.1,1.13,0.21,1.7,0.33s1.09,0.29,1.56,0.52c0.47,0.22,0.85,0.53,1.14,0.92c0.28,0.39,0.43,0.92,0.43,1.58
		c0,0.66-0.18,1.23-0.54,1.73c-0.36,0.49-0.89,0.87-1.6,1.15C42.92,40.79,42.06,40.93,41.03,40.93z"/>
	<path class="st2" d="M53.68,40.93c-1.15,0-2.17-0.26-3.07-0.78s-1.61-1.24-2.14-2.16s-0.79-1.97-0.79-3.15
		c0-1.2,0.26-2.25,0.79-3.16s1.24-1.63,2.14-2.15c0.9-0.52,1.92-0.78,3.07-0.78s2.18,0.26,3.08,0.78c0.9,0.52,1.62,1.24,2.14,2.15
		s0.78,1.97,0.78,3.16c0,1.18-0.26,2.23-0.78,3.15c-0.52,0.92-1.23,1.64-2.14,2.16C55.85,40.67,54.83,40.93,53.68,40.93z
		 M53.68,39.89c0.92,0,1.75-0.21,2.48-0.63c0.74-0.42,1.31-1.02,1.72-1.78c0.41-0.77,0.62-1.65,0.62-2.64c0-1.01-0.21-1.9-0.62-2.66
		s-0.99-1.35-1.72-1.77c-0.74-0.42-1.56-0.63-2.48-0.63s-1.74,0.21-2.47,0.63c-0.73,0.42-1.3,1.01-1.72,1.77
		c-0.42,0.76-0.63,1.64-0.63,2.66c0,1,0.21,1.88,0.63,2.64c0.42,0.77,1,1.36,1.72,1.78S52.76,39.89,53.68,39.89z"/>
	<path class="st2" d="M69.11,28.74c0.98,0,1.84,0.19,2.56,0.56s1.3,0.94,1.7,1.7c0.41,0.76,0.61,1.7,0.61,2.82v7.01h-1.15v-6.92
		c0-1.35-0.34-2.38-1.02-3.08c-0.68-0.71-1.64-1.06-2.86-1.06c-0.93,0-1.75,0.19-2.44,0.58c-0.69,0.38-1.22,0.92-1.58,1.61
		c-0.36,0.69-0.54,1.52-0.54,2.48v6.39h-1.15v-12h1.1v3.33l-0.16-0.37c0.37-0.95,0.97-1.7,1.82-2.24
		C66.85,29.01,67.88,28.74,69.11,28.74z"/>
	<path class="st2" d="M83.39,40.4c-1.14,0-2.15-0.25-3.05-0.75s-1.61-1.19-2.14-2.07s-0.79-1.89-0.79-3.02
		c0-1.15,0.26-2.16,0.79-3.04c0.53-0.87,1.24-1.56,2.14-2.05c0.9-0.49,1.91-0.74,3.05-0.74c1.09,0,2.07,0.23,2.93,0.7
		c0.86,0.47,1.55,1.13,2.06,2s0.76,1.91,0.76,3.12c0,1.2-0.25,2.23-0.76,3.11s-1.19,1.55-2.06,2.02
		C85.46,40.16,84.48,40.4,83.39,40.4z M83.72,45.39c-1.09,0-2.12-0.17-3.1-0.51c-0.98-0.34-1.78-0.8-2.39-1.4l0.62-0.87
		c0.6,0.55,1.31,0.98,2.15,1.29s1.74,0.46,2.7,0.46c1.61,0,2.79-0.38,3.55-1.13s1.14-1.93,1.14-3.54v-3.33l0.23-1.79l-0.18-1.79
		v-3.93h1.1v10.72c0,2.01-0.49,3.48-1.46,4.43C87.1,44.92,85.65,45.39,83.72,45.39z M83.49,39.36c0.97,0,1.82-0.2,2.55-0.61
		s1.31-0.97,1.74-1.7s0.63-1.56,0.63-2.5c0-0.95-0.21-1.79-0.63-2.51s-1-1.28-1.74-1.68s-1.59-0.6-2.55-0.6
		c-0.94,0-1.78,0.2-2.52,0.6c-0.74,0.4-1.33,0.96-1.75,1.68s-0.63,1.56-0.63,2.51c0,0.94,0.21,1.77,0.63,2.5s1,1.3,1.75,1.7
		C81.71,39.16,82.55,39.36,83.49,39.36z"/>
	<path class="st2" d="M93.86,45.3V28.55h2.74v2.9l-0.09,3.27l0.23,3.27v7.31H93.86z M100.67,41c-1,0-1.91-0.23-2.73-0.69
		s-1.47-1.15-1.96-2.08c-0.48-0.93-0.72-2.1-0.72-3.53c0-1.44,0.23-2.62,0.7-3.54s1.11-1.61,1.92-2.06
		c0.81-0.45,1.74-0.68,2.78-0.68c1.21,0,2.28,0.26,3.21,0.78s1.66,1.25,2.21,2.18c0.54,0.94,0.82,2.04,0.82,3.31
		s-0.27,2.38-0.82,3.32s-1.28,1.67-2.21,2.2S101.88,41,100.67,41z M100.34,38.54c0.69,0,1.31-0.15,1.85-0.46
		c0.54-0.31,0.98-0.75,1.3-1.33s0.48-1.27,0.48-2.05c0-0.8-0.16-1.48-0.48-2.06s-0.76-1.02-1.3-1.32c-0.54-0.31-1.16-0.46-1.85-0.46
		c-0.69,0-1.31,0.15-1.86,0.46c-0.55,0.31-0.99,0.75-1.31,1.32c-0.32,0.58-0.48,1.26-0.48,2.06c0,0.78,0.16,1.46,0.48,2.05
		c0.32,0.58,0.76,1.03,1.31,1.33S99.65,38.54,100.34,38.54z"/>
	<path class="st2" d="M113.18,41c-0.92,0-1.72-0.16-2.42-0.47c-0.69-0.31-1.22-0.75-1.6-1.31s-0.56-1.19-0.56-1.9
		c0-0.69,0.17-1.31,0.5-1.86s0.87-0.99,1.62-1.31s1.75-0.48,2.99-0.48h3.56v1.91h-3.36c-0.98,0-1.64,0.16-1.98,0.47
		s-0.51,0.7-0.51,1.16c0,0.52,0.21,0.94,0.62,1.24s0.99,0.46,1.72,0.46c0.71,0,1.34-0.16,1.9-0.48s0.96-0.8,1.21-1.43l0.48,1.72
		c-0.28,0.72-0.77,1.28-1.48,1.68C115.17,40.8,114.27,41,113.18,41z M117.04,40.83v-2.48l-0.16-0.53v-4.35
		c0-0.84-0.25-1.5-0.76-1.97s-1.27-0.7-2.3-0.7c-0.69,0-1.37,0.11-2.04,0.32s-1.23,0.51-1.69,0.9l-1.13-2.09
		c0.66-0.51,1.45-0.88,2.36-1.14c0.91-0.25,1.86-0.38,2.84-0.38c1.78,0,3.15,0.43,4.13,1.28c0.98,0.85,1.46,2.17,1.46,3.94v7.2
		H117.04z"/>
	<path class="st2" d="M128.66,40.28c-1.17,0-2.22-0.25-3.16-0.75s-1.69-1.19-2.23-2.08s-0.82-1.93-0.82-3.13
		c0-1.18,0.27-2.22,0.82-3.11c0.54-0.89,1.29-1.58,2.23-2.07s2-0.74,3.16-0.74c1.04,0,1.98,0.21,2.81,0.62s1.49,1.06,1.99,1.93
		s0.75,1.99,0.75,3.36c0,1.36-0.25,2.49-0.75,3.37c-0.5,0.88-1.16,1.53-1.99,1.96S129.7,40.28,128.66,40.28z M129.03,45.46
		c-1.13,0-2.24-0.15-3.32-0.45s-1.97-0.73-2.66-1.3l1.29-2.16c0.54,0.44,1.21,0.8,2.04,1.07c0.82,0.27,1.65,0.4,2.5,0.4
		c1.35,0,2.34-0.31,2.97-0.93s0.94-1.55,0.94-2.79v-2.18l0.23-2.78l-0.09-2.78v-2.99h2.74v10.4c0,2.22-0.57,3.86-1.7,4.91
		C132.81,44.93,131.17,45.46,129.03,45.46z M129.1,37.84c0.72,0,1.36-0.15,1.93-0.45s1.01-0.71,1.32-1.24s0.47-1.14,0.47-1.83
		c0-0.69-0.16-1.3-0.47-1.83c-0.31-0.53-0.75-0.93-1.32-1.22c-0.57-0.28-1.21-0.43-1.93-0.43c-0.72,0-1.37,0.14-1.94,0.43
		c-0.57,0.28-1.02,0.69-1.33,1.22c-0.31,0.53-0.47,1.14-0.47,1.83c0,0.69,0.16,1.3,0.47,1.83s0.76,0.94,1.33,1.24
		C127.73,37.7,128.37,37.84,129.1,37.84z"/>
	<path class="st2" d="M145.19,41c-1.37,0-2.56-0.27-3.58-0.82s-1.81-1.29-2.37-2.24s-0.84-2.03-0.84-3.24
		c0-1.23,0.27-2.31,0.82-3.25s1.3-1.68,2.25-2.22c0.96-0.54,2.05-0.8,3.28-0.8c1.2,0,2.26,0.26,3.2,0.78s1.67,1.26,2.21,2.21
		c0.54,0.95,0.8,2.07,0.8,3.36c0,0.12,0,0.26-0.01,0.41s-0.02,0.3-0.04,0.44h-10.23v-1.91h8.72l-1.13,0.6
		c0.01-0.71-0.13-1.33-0.44-1.86c-0.31-0.54-0.72-0.96-1.25-1.27s-1.14-0.46-1.83-0.46c-0.71,0-1.32,0.15-1.85,0.46
		c-0.53,0.31-0.94,0.73-1.24,1.28c-0.3,0.54-0.45,1.18-0.45,1.92v0.46c0,0.74,0.17,1.39,0.51,1.96s0.81,1,1.43,1.31
		c0.61,0.31,1.32,0.46,2.12,0.46c0.69,0,1.31-0.11,1.86-0.32s1.04-0.55,1.47-1.01l1.54,1.77c-0.55,0.64-1.25,1.14-2.08,1.48
		S146.27,41,145.19,41z"/>
</g>
<g>
	<path class="st2" d="M91.87,19.62v-7h2.73c0.61,0,1.14,0.1,1.57,0.29s0.77,0.47,1,0.84c0.23,0.37,0.35,0.8,0.35,1.31
		s-0.12,0.94-0.35,1.3c-0.23,0.36-0.57,0.64-1,0.84s-0.96,0.29-1.57,0.29h-2.18l0.45-0.47v2.59h-1V19.62z M92.87,17.13l-0.45-0.5
		h2.15c0.64,0,1.12-0.14,1.46-0.41c0.33-0.27,0.5-0.66,0.5-1.16s-0.17-0.89-0.5-1.16s-0.82-0.41-1.46-0.41h-2.15l0.45-0.5V17.13z"/>
	<path class="st2" d="M101.1,19.68c-0.53,0-1.01-0.12-1.42-0.35c-0.41-0.23-0.74-0.55-0.98-0.96s-0.36-0.88-0.36-1.4
		c0-0.53,0.12-0.99,0.36-1.4c0.24-0.41,0.57-0.73,0.98-0.96c0.41-0.23,0.89-0.34,1.42-0.34s1,0.11,1.42,0.34s0.74,0.55,0.98,0.95
		c0.24,0.4,0.35,0.87,0.35,1.4c0,0.53-0.12,0.99-0.35,1.4c-0.24,0.41-0.56,0.73-0.98,0.96C102.1,19.56,101.63,19.68,101.1,19.68z
		 M101.1,18.84c0.34,0,0.65-0.08,0.92-0.23s0.48-0.37,0.64-0.66c0.15-0.28,0.22-0.61,0.22-0.98c0-0.38-0.08-0.71-0.23-0.98
		c-0.15-0.28-0.37-0.49-0.64-0.65c-0.27-0.15-0.58-0.23-0.92-0.23s-0.64,0.08-0.91,0.23c-0.27,0.15-0.48,0.37-0.64,0.65
		c-0.16,0.28-0.24,0.6-0.24,0.98c0,0.37,0.08,0.7,0.24,0.99c0.16,0.29,0.37,0.5,0.64,0.66C100.45,18.78,100.76,18.84,101.1,18.84z"
		/>
	<path class="st2" d="M106.15,19.62l-1.97-5.3h0.91l1.75,4.8h-0.43l1.82-4.8h0.81l1.78,4.8h-0.42l1.79-4.8h0.86l-1.98,5.3h-0.92
		l-1.67-4.38h0.28l-1.69,4.38H106.15z"/>
	<path class="st2" d="M116.23,19.68c-0.57,0-1.06-0.12-1.49-0.35s-0.76-0.55-1-0.96s-0.36-0.87-0.36-1.4c0-0.53,0.12-0.99,0.34-1.4
		c0.23-0.41,0.55-0.73,0.95-0.96c0.4-0.23,0.86-0.34,1.37-0.34s0.97,0.11,1.36,0.34s0.7,0.54,0.92,0.96
		c0.22,0.41,0.33,0.89,0.33,1.43c0,0.04,0,0.09,0,0.14s-0.01,0.1-0.02,0.15h-4.51V16.6h4.01l-0.39,0.24
		c0.01-0.34-0.06-0.64-0.21-0.91c-0.15-0.27-0.35-0.47-0.61-0.62c-0.26-0.15-0.55-0.22-0.89-0.22c-0.33,0-0.63,0.08-0.89,0.22
		c-0.26,0.15-0.46,0.36-0.61,0.63c-0.15,0.27-0.22,0.58-0.22,0.92v0.16c0,0.35,0.08,0.67,0.25,0.94c0.16,0.28,0.39,0.49,0.68,0.65
		c0.29,0.15,0.63,0.23,1.01,0.23c0.31,0,0.6-0.05,0.86-0.16s0.48-0.27,0.67-0.48l0.53,0.62c-0.24,0.28-0.54,0.49-0.9,0.64
		S116.67,19.68,116.23,19.68z"/>
	<path class="st2" d="M119.99,19.62v-5.3h0.92v1.44l-0.09-0.36c0.15-0.37,0.39-0.65,0.74-0.84s0.77-0.29,1.28-0.29v0.93
		c-0.04-0.01-0.08-0.01-0.12-0.01s-0.07,0-0.1,0c-0.51,0-0.92,0.15-1.22,0.46s-0.45,0.75-0.45,1.33v2.64
		C120.95,19.62,119.99,19.62,119.99,19.62z"/>
	<path class="st2" d="M126.33,19.68c-0.57,0-1.06-0.12-1.49-0.35s-0.76-0.55-1-0.96s-0.36-0.87-0.36-1.4c0-0.53,0.12-0.99,0.34-1.4
		c0.23-0.41,0.55-0.73,0.95-0.96c0.4-0.23,0.86-0.34,1.37-0.34s0.97,0.11,1.36,0.34s0.7,0.54,0.92,0.96
		c0.22,0.41,0.33,0.89,0.33,1.43c0,0.04,0,0.09,0,0.14s-0.01,0.1-0.02,0.15h-4.51V16.6h4.01l-0.39,0.24
		c0.01-0.34-0.06-0.64-0.21-0.91c-0.15-0.27-0.35-0.47-0.61-0.62c-0.26-0.15-0.55-0.22-0.89-0.22c-0.33,0-0.63,0.08-0.89,0.22
		c-0.26,0.15-0.46,0.36-0.61,0.63c-0.15,0.27-0.22,0.58-0.22,0.92v0.16c0,0.35,0.08,0.67,0.25,0.94c0.16,0.28,0.39,0.49,0.68,0.65
		c0.29,0.15,0.63,0.23,1.01,0.23c0.31,0,0.6-0.05,0.86-0.16s0.48-0.27,0.67-0.48l0.53,0.62c-0.24,0.28-0.54,0.49-0.9,0.64
		S126.77,19.68,126.33,19.68z"/>
	<path class="st2" d="M132.28,19.68c-0.51,0-0.97-0.11-1.38-0.34c-0.41-0.23-0.72-0.54-0.96-0.95c-0.23-0.41-0.35-0.88-0.35-1.42
		s0.12-1.01,0.35-1.42c0.23-0.4,0.55-0.72,0.96-0.94c0.41-0.22,0.86-0.34,1.38-0.34c0.45,0,0.85,0.1,1.21,0.3
		c0.36,0.2,0.65,0.5,0.87,0.9s0.33,0.9,0.33,1.5s-0.11,1.1-0.32,1.5c-0.21,0.4-0.49,0.7-0.85,0.91S132.74,19.68,132.28,19.68z
		 M132.36,18.84c0.33,0,0.64-0.08,0.91-0.23c0.27-0.15,0.48-0.37,0.64-0.66c0.16-0.28,0.24-0.61,0.24-0.99s-0.08-0.71-0.24-0.98
		c-0.16-0.28-0.37-0.49-0.64-0.65c-0.27-0.15-0.57-0.23-0.91-0.23s-0.64,0.08-0.91,0.23s-0.48,0.37-0.64,0.65
		c-0.16,0.28-0.24,0.6-0.24,0.98c0,0.37,0.08,0.7,0.24,0.99c0.16,0.29,0.37,0.5,0.64,0.66C131.72,18.77,132.02,18.84,132.36,18.84z
		 M134.17,19.62v-1.43l0.06-1.23l-0.1-1.23V12.2h0.96v7.42H134.17z"/>
	<path class="st2" d="M139.6,19.62V12.2h0.96v3.53l-0.1,1.23l0.06,1.23v1.43H139.6z M142.41,19.68c-0.45,0-0.86-0.1-1.22-0.3
		s-0.65-0.5-0.86-0.91c-0.21-0.4-0.31-0.9-0.31-1.5s0.11-1.1,0.32-1.5c0.22-0.4,0.51-0.7,0.87-0.9s0.77-0.3,1.21-0.3
		c0.52,0,0.98,0.11,1.38,0.34c0.4,0.23,0.72,0.54,0.95,0.94c0.23,0.4,0.35,0.88,0.35,1.42s-0.12,1.01-0.35,1.42
		s-0.55,0.72-0.95,0.95C143.39,19.56,142.93,19.68,142.41,19.68z M142.33,18.84c0.34,0,0.65-0.08,0.92-0.23
		c0.27-0.15,0.48-0.37,0.64-0.66c0.16-0.28,0.23-0.61,0.23-0.99s-0.08-0.71-0.23-0.98c-0.16-0.28-0.37-0.49-0.64-0.65
		c-0.27-0.15-0.57-0.23-0.92-0.23c-0.33,0-0.63,0.08-0.9,0.23s-0.48,0.37-0.64,0.65c-0.16,0.28-0.23,0.6-0.23,0.98
		c0,0.37,0.08,0.7,0.23,0.99c0.16,0.28,0.37,0.5,0.64,0.66C141.7,18.76,142,18.84,142.33,18.84z"/>
	<path class="st2" d="M146.5,21.62c-0.25,0-0.5-0.04-0.74-0.12c-0.24-0.08-0.45-0.21-0.62-0.37l0.41-0.72
		c0.13,0.13,0.28,0.22,0.44,0.29s0.33,0.1,0.51,0.1c0.23,0,0.43-0.06,0.58-0.18c0.15-0.12,0.3-0.33,0.43-0.64l0.33-0.73l0.1-0.12
		l2.08-4.81h0.94l-2.57,5.83c-0.15,0.37-0.33,0.67-0.52,0.88s-0.4,0.37-0.62,0.46S146.78,21.62,146.5,21.62z M147.76,19.79
		l-2.42-5.47h1l2.06,4.72L147.76,19.79z"/>
</g>
</svg>
