<?xml version="1.0" encoding="utf-8"?>
<!-- Generator: Adobe Illustrator 26.3.1, SVG Export Plug-In . SVG Version: 6.00 Build 0)  -->
<svg version="1.1" id="Layer_1" xmlns="http://www.w3.org/2000/svg" xmlns:xlink="http://www.w3.org/1999/xlink" x="0px" y="0px"
	 viewBox="0 0 210 60" style="enable-background:new 0 0 210 60;" xml:space="preserve">
<style type="text/css">
	.st0{fill:#FF1241;}
	.st1{opacity:0.25;fill:#FF8098;enable-background:new    ;}
	.st2{fill:#FFFFFF;}
</style>
<g>
	<path class="st0" d="M199.7,2.89l-28.02,10.5c-0.99,0.37-2.57,1.03-2.8,2.06l-3.74,15.14c-0.06-0.04-0.12-0.07-0.19-0.11
		c-1.44-0.62-3.17-0.91-5.01-0.78c-0.48,0.03-0.97,0.09-1.46,0.18c-0.31,0.06-0.62,0.13-0.92,0.21c-4.49,1.19-7.52,4.66-6.89,8.06
		c0.22,1.2,0.88,2.23,1.83,3.05c1.95,2.05,5.61,2.3,9.06,0.45c3.06-1.56,5.34-4.16,5.9-6.58c0-0.01,0.01-0.02,0.01-0.03
		c0,0,3.92-13.77,4.39-15.87c0.22-0.98,0.9-1.79,1.82-2.19l21.85-10.47c0.32-0.14,0.55,0.33,0.25,0.5l-21.34,11.44
		c-1.39,0.77-1.8,1.47-2.18,3.01c-0.19,0.77,0.2,1.57,0.92,1.89l0.67,0.39c3.51,1.55,6.24,1.54,8.64-0.08
		c0.19-0.13,0.15-0.41-0.06-0.48l-8.37-2.75c-0.23-0.08-0.26-0.39-0.04-0.5l0.23-0.12c0.15-0.08,0.33-0.1,0.49-0.05l6.7,2.1
		c0.74,0.23,1.51,0.34,2.28,0.27c5.05-0.45,8.63-3.22,10.59-6.67c0.1-0.17-0.05-0.37-0.24-0.35l-14.18,1.8
		c-0.14,0.02-0.2-0.17-0.07-0.23l0.75-0.38c0.43-0.22,0.89-0.37,1.37-0.45c6.71-1.12,16.57-2.76,18.02-10.85
		C200.08,3.98,199.91,2.81,199.7,2.89z"/>
	<g>
		<polygon class="st1" points="171.02,28.87 169.84,33.23 171.17,35.54 165.06,46.14 161.29,46.14 152.82,46.14 146.7,35.54 
			152.82,24.95 156.59,24.95 164.58,24.95 165.45,21.74 150.97,21.74 150.14,23.18 146.77,29.02 146.77,29.02 143,35.54 
			150.97,49.35 166.9,49.35 167.73,47.91 167.73,47.91 171.1,42.07 171.1,42.07 174.87,35.54 		"/>
	</g>
</g>
<g>
	<path class="st2" d="M58.95,43.4c-1,0-1.93-0.15-2.79-0.44s-1.54-0.66-2.01-1.1l0.53-0.92c0.46,0.4,1.07,0.74,1.84,1.02
		s1.59,0.43,2.48,0.43c1.26,0,2.16-0.21,2.71-0.62s0.83-0.96,0.83-1.63c0-0.49-0.14-0.88-0.42-1.16s-0.66-0.5-1.14-0.66
		c-0.48-0.15-1-0.28-1.56-0.38s-1.13-0.21-1.7-0.33c-0.57-0.12-1.09-0.3-1.56-0.53c-0.48-0.23-0.85-0.55-1.14-0.95
		s-0.43-0.95-0.43-1.62c0-0.61,0.17-1.17,0.51-1.66s0.84-0.89,1.52-1.18s1.52-0.45,2.53-0.45c0.75,0,1.51,0.11,2.27,0.32
		c0.76,0.21,1.38,0.5,1.85,0.85l-0.53,0.92c-0.51-0.38-1.07-0.66-1.7-0.83s-1.26-0.25-1.91-0.25c-1.17,0-2.02,0.21-2.56,0.64
		s-0.82,0.97-0.82,1.61c0,0.51,0.14,0.91,0.43,1.21c0.28,0.3,0.66,0.53,1.14,0.69c0.47,0.16,1,0.29,1.56,0.39
		c0.57,0.1,1.13,0.21,1.7,0.33s1.09,0.29,1.56,0.52c0.47,0.22,0.85,0.53,1.14,0.92c0.28,0.39,0.43,0.92,0.43,1.58
		c0,0.66-0.18,1.23-0.54,1.73c-0.36,0.49-0.89,0.87-1.6,1.15C60.84,43.26,59.98,43.4,58.95,43.4z"/>
	<path class="st2" d="M71.6,43.4c-1.15,0-2.17-0.26-3.07-0.78s-1.61-1.24-2.14-2.16s-0.79-1.97-0.79-3.15c0-1.2,0.26-2.25,0.79-3.16
		s1.24-1.63,2.14-2.15s1.92-0.78,3.07-0.78s2.18,0.26,3.08,0.78s1.62,1.24,2.14,2.15s0.78,1.97,0.78,3.16
		c0,1.18-0.26,2.23-0.78,3.15c-0.52,0.92-1.23,1.64-2.14,2.16C73.77,43.14,72.75,43.4,71.6,43.4z M71.6,42.36
		c0.92,0,1.75-0.21,2.48-0.63c0.74-0.42,1.31-1.02,1.72-1.78c0.41-0.77,0.62-1.65,0.62-2.64c0-1.01-0.21-1.9-0.62-2.66
		s-0.99-1.35-1.72-1.77c-0.74-0.42-1.56-0.63-2.48-0.63s-1.74,0.21-2.47,0.63c-0.73,0.42-1.3,1.01-1.72,1.77
		c-0.42,0.76-0.63,1.64-0.63,2.66c0,1,0.21,1.88,0.63,2.64c0.42,0.77,1,1.36,1.72,1.78S70.68,42.36,71.6,42.36z"/>
	<path class="st2" d="M87.03,31.21c0.98,0,1.84,0.19,2.56,0.56c0.72,0.37,1.3,0.94,1.7,1.7c0.41,0.76,0.61,1.7,0.61,2.82v7.01h-1.15
		v-6.92c0-1.35-0.34-2.38-1.02-3.08c-0.68-0.71-1.64-1.06-2.86-1.06c-0.93,0-1.75,0.19-2.44,0.58c-0.69,0.38-1.22,0.92-1.58,1.61
		c-0.36,0.69-0.54,1.52-0.54,2.48v6.39h-1.15v-12h1.1v3.33l-0.16-0.37c0.37-0.95,0.97-1.7,1.82-2.24
		C84.77,31.48,85.8,31.21,87.03,31.21z"/>
	<path class="st2" d="M101.31,42.87c-1.14,0-2.15-0.25-3.05-0.75s-1.61-1.19-2.14-2.07s-0.79-1.89-0.79-3.02
		c0-1.15,0.26-2.16,0.79-3.04c0.53-0.87,1.24-1.56,2.14-2.05c0.9-0.49,1.91-0.74,3.05-0.74c1.09,0,2.07,0.23,2.93,0.7
		c0.86,0.47,1.55,1.13,2.06,2s0.76,1.91,0.76,3.12c0,1.2-0.25,2.23-0.76,3.11s-1.19,1.55-2.06,2.02
		C103.38,42.63,102.4,42.87,101.31,42.87z M101.64,47.86c-1.09,0-2.12-0.17-3.1-0.51c-0.98-0.34-1.78-0.8-2.39-1.4l0.62-0.87
		c0.6,0.55,1.31,0.98,2.15,1.29s1.74,0.46,2.7,0.46c1.61,0,2.79-0.38,3.55-1.13s1.14-1.93,1.14-3.54v-3.33l0.23-1.79l-0.18-1.79
		V31.3h1.1v10.72c0,2.01-0.49,3.48-1.46,4.43C105.02,47.39,103.57,47.86,101.64,47.86z M101.41,41.83c0.97,0,1.82-0.2,2.55-0.61
		s1.31-0.97,1.74-1.7s0.63-1.56,0.63-2.5c0-0.95-0.21-1.79-0.63-2.51s-1-1.28-1.74-1.68s-1.59-0.6-2.55-0.6
		c-0.94,0-1.78,0.2-2.52,0.6c-0.74,0.4-1.33,0.96-1.75,1.68s-0.63,1.56-0.63,2.51c0,0.94,0.21,1.77,0.63,2.5s1,1.3,1.75,1.7
		C99.63,41.63,100.47,41.83,101.41,41.83z"/>
	<path class="st2" d="M110.24,32.93v-1.82h7.77v1.82H110.24z M112.31,43.31V30.03c0-1.2,0.35-2.15,1.05-2.86
		c0.7-0.71,1.69-1.07,2.98-1.07c0.47,0,0.93,0.06,1.37,0.17c0.44,0.12,0.81,0.29,1.12,0.54l-0.67,1.68
		c-0.23-0.18-0.49-0.33-0.78-0.43s-0.6-0.15-0.92-0.15c-0.64,0-1.13,0.18-1.47,0.54c-0.34,0.36-0.51,0.89-0.51,1.6v1.63l0.05,1.01
		v10.6h-2.22V43.31z M120.1,43.31V26.24h2.21v17.07C122.31,43.31,120.1,43.31,120.1,43.31z"/>
	<path class="st2" d="M127.05,47.9c-0.58,0-1.15-0.1-1.7-0.29c-0.55-0.19-1.03-0.47-1.43-0.84l0.94-1.66
		c0.31,0.29,0.64,0.51,1.01,0.67c0.37,0.15,0.76,0.23,1.17,0.23c0.54,0,0.98-0.14,1.33-0.41c0.35-0.28,0.68-0.77,0.99-1.47
		l0.76-1.68l0.23-0.28l4.78-11.06h2.16l-5.91,13.41c-0.35,0.86-0.75,1.53-1.18,2.02c-0.44,0.49-0.92,0.84-1.44,1.05
		S127.68,47.9,127.05,47.9z M129.95,43.7l-5.57-12.58h2.3l4.74,10.86L129.95,43.7z"/>
</g>
<g>
	<path class="st2" d="M74.06,22.09v-7h2.73c0.61,0,1.14,0.1,1.57,0.29s0.77,0.47,1,0.84c0.23,0.37,0.35,0.8,0.35,1.31
		s-0.12,0.94-0.35,1.3s-0.57,0.64-1,0.84s-0.96,0.29-1.57,0.29h-2.18l0.45-0.47v2.59h-1V22.09z M75.06,19.6l-0.45-0.5h2.15
		c0.64,0,1.12-0.14,1.46-0.41c0.33-0.27,0.5-0.66,0.5-1.16s-0.17-0.89-0.5-1.16s-0.82-0.41-1.46-0.41h-2.15l0.45-0.5V19.6z"/>
	<path class="st2" d="M83.29,22.15c-0.53,0-1.01-0.12-1.42-0.35s-0.74-0.55-0.98-0.96c-0.24-0.41-0.36-0.88-0.36-1.4
		c0-0.53,0.12-0.99,0.36-1.4s0.57-0.73,0.98-0.96s0.89-0.34,1.42-0.34s1,0.11,1.42,0.34s0.74,0.55,0.98,0.95
		c0.24,0.4,0.35,0.87,0.35,1.4c0,0.53-0.12,0.99-0.35,1.4c-0.24,0.41-0.56,0.73-0.98,0.96C84.29,22.03,83.82,22.15,83.29,22.15z
		 M83.29,21.31c0.34,0,0.65-0.08,0.92-0.23s0.48-0.37,0.64-0.66c0.15-0.28,0.23-0.61,0.23-0.99s-0.08-0.71-0.23-0.98
		c-0.15-0.28-0.37-0.49-0.64-0.65c-0.27-0.15-0.58-0.23-0.92-0.23s-0.64,0.08-0.91,0.23s-0.48,0.37-0.64,0.65s-0.24,0.6-0.24,0.98
		c0,0.37,0.08,0.7,0.24,0.99s0.37,0.5,0.64,0.66S82.95,21.31,83.29,21.31z"/>
	<path class="st2" d="M88.34,22.09l-1.97-5.3h0.91l1.75,4.8H88.6l1.82-4.8h0.81l1.78,4.8h-0.42l1.79-4.8h0.86l-1.98,5.3h-0.92
		l-1.67-4.38h0.28l-1.69,4.38H88.34z"/>
	<path class="st2" d="M98.42,22.15c-0.57,0-1.06-0.12-1.49-0.35s-0.76-0.55-1-0.96s-0.36-0.87-0.36-1.4c0-0.53,0.12-0.99,0.34-1.4
		c0.23-0.41,0.55-0.73,0.95-0.96c0.4-0.23,0.86-0.34,1.37-0.34s0.97,0.11,1.36,0.34s0.7,0.54,0.92,0.96
		c0.22,0.41,0.33,0.89,0.33,1.43c0,0.04,0,0.09,0,0.14s-0.01,0.1-0.02,0.15h-4.51v-0.69h4.01l-0.39,0.24
		c0.01-0.34-0.06-0.64-0.21-0.91s-0.35-0.47-0.61-0.62c-0.26-0.15-0.55-0.22-0.89-0.22c-0.33,0-0.63,0.08-0.89,0.22
		c-0.26,0.15-0.46,0.36-0.61,0.63c-0.15,0.27-0.22,0.58-0.22,0.92v0.16c0,0.35,0.08,0.67,0.25,0.94c0.16,0.28,0.39,0.49,0.68,0.65
		c0.29,0.15,0.63,0.23,1.01,0.23c0.31,0,0.6-0.05,0.86-0.16s0.48-0.27,0.67-0.48l0.53,0.62c-0.24,0.28-0.54,0.49-0.9,0.64
		S98.86,22.15,98.42,22.15z"/>
	<path class="st2" d="M102.18,22.09v-5.3h0.92v1.44l-0.09-0.36c0.15-0.37,0.39-0.65,0.74-0.84s0.77-0.29,1.28-0.29v0.93
		c-0.04-0.01-0.08-0.01-0.12-0.01s-0.07,0-0.1,0c-0.51,0-0.92,0.15-1.22,0.46s-0.45,0.75-0.45,1.33v2.64
		C103.14,22.09,102.18,22.09,102.18,22.09z"/>
	<path class="st2" d="M108.52,22.15c-0.57,0-1.06-0.12-1.49-0.35s-0.76-0.55-1-0.96s-0.36-0.87-0.36-1.4c0-0.53,0.12-0.99,0.34-1.4
		c0.23-0.41,0.55-0.73,0.95-0.96c0.4-0.23,0.86-0.34,1.37-0.34s0.97,0.11,1.36,0.34s0.7,0.54,0.92,0.96
		c0.22,0.41,0.33,0.89,0.33,1.43c0,0.04,0,0.09,0,0.14s-0.01,0.1-0.02,0.15h-4.51v-0.69h4.01l-0.39,0.24
		c0.01-0.34-0.06-0.64-0.21-0.91s-0.35-0.47-0.61-0.62c-0.26-0.15-0.55-0.22-0.89-0.22c-0.33,0-0.63,0.08-0.89,0.22
		c-0.26,0.15-0.46,0.36-0.61,0.63c-0.15,0.27-0.22,0.58-0.22,0.92v0.16c0,0.35,0.08,0.67,0.25,0.94c0.16,0.28,0.39,0.49,0.68,0.65
		c0.29,0.15,0.63,0.23,1.01,0.23c0.31,0,0.6-0.05,0.86-0.16s0.48-0.27,0.67-0.48l0.53,0.62c-0.24,0.28-0.54,0.49-0.9,0.64
		S108.96,22.15,108.52,22.15z"/>
	<path class="st2" d="M114.47,22.15c-0.51,0-0.97-0.11-1.38-0.34s-0.72-0.54-0.96-0.95c-0.23-0.41-0.35-0.88-0.35-1.42
		s0.12-1.01,0.35-1.42c0.23-0.4,0.55-0.72,0.96-0.94s0.86-0.34,1.38-0.34c0.45,0,0.85,0.1,1.21,0.3c0.36,0.2,0.65,0.5,0.87,0.9
		s0.33,0.9,0.33,1.5s-0.11,1.1-0.32,1.5s-0.49,0.7-0.85,0.91S114.93,22.15,114.47,22.15z M114.55,21.31c0.33,0,0.64-0.08,0.91-0.23
		c0.27-0.15,0.48-0.37,0.64-0.66c0.16-0.28,0.24-0.61,0.24-0.99s-0.08-0.71-0.24-0.98c-0.16-0.28-0.37-0.49-0.64-0.65
		c-0.27-0.15-0.57-0.23-0.91-0.23c-0.34,0-0.64,0.08-0.91,0.23s-0.48,0.37-0.64,0.65s-0.24,0.6-0.24,0.98c0,0.37,0.08,0.7,0.24,0.99
		s0.37,0.5,0.64,0.66S114.21,21.31,114.55,21.31z M116.36,22.09v-1.43l0.06-1.23l-0.1-1.23v-3.53h0.96v7.42H116.36z"/>
	<path class="st2" d="M121.79,22.09v-7.42h0.96v3.53l-0.1,1.23l0.06,1.23v1.43H121.79z M124.6,22.15c-0.45,0-0.86-0.1-1.22-0.3
		s-0.65-0.5-0.86-0.91c-0.21-0.4-0.31-0.9-0.31-1.5s0.11-1.1,0.32-1.5c0.22-0.4,0.51-0.7,0.87-0.9s0.77-0.3,1.21-0.3
		c0.52,0,0.98,0.11,1.38,0.34c0.4,0.23,0.72,0.54,0.95,0.94c0.23,0.4,0.35,0.88,0.35,1.42s-0.12,1.01-0.35,1.42
		c-0.23,0.41-0.55,0.72-0.95,0.95C125.58,22.03,125.12,22.15,124.6,22.15z M124.52,21.31c0.34,0,0.65-0.08,0.92-0.23
		s0.48-0.37,0.64-0.66c0.16-0.28,0.23-0.61,0.23-0.99s-0.08-0.71-0.23-0.98c-0.16-0.28-0.37-0.49-0.64-0.65
		c-0.27-0.15-0.57-0.23-0.92-0.23c-0.33,0-0.63,0.08-0.9,0.23c-0.27,0.15-0.48,0.37-0.64,0.65c-0.16,0.28-0.23,0.6-0.23,0.98
		c0,0.37,0.08,0.7,0.23,0.99c0.16,0.28,0.37,0.5,0.64,0.66C123.89,21.23,124.19,21.31,124.52,21.31z"/>
	<path class="st2" d="M128.69,24.09c-0.25,0-0.5-0.04-0.74-0.12s-0.45-0.21-0.62-0.37l0.41-0.72c0.13,0.13,0.28,0.22,0.44,0.29
		s0.33,0.1,0.51,0.1c0.23,0,0.43-0.06,0.58-0.18s0.3-0.33,0.43-0.64l0.33-0.73l0.1-0.12l2.08-4.81h0.94l-2.57,5.83
		c-0.15,0.37-0.33,0.67-0.52,0.88s-0.4,0.37-0.62,0.46S128.97,24.09,128.69,24.09z M129.95,22.26l-2.42-5.47h1l2.06,4.72
		L129.95,22.26z"/>
</g>
</svg>
