<?xml version="1.0" encoding="utf-8"?>
<!-- Generator: Adobe Illustrator 26.3.1, SVG Export Plug-In . SVG Version: 6.00 Build 0)  -->
<svg version="1.1" id="Layer_1" xmlns="http://www.w3.org/2000/svg" xmlns:xlink="http://www.w3.org/1999/xlink" x="0px" y="0px"
	 viewBox="0 0 210 60" style="enable-background:new 0 0 210 60;" xml:space="preserve">
<style type="text/css">
	.st0{fill:#FFFFFF;}
	.st1{fill:#B65FDE;}
	.st2{opacity:0.3;fill:#B65FDE;enable-background:new    ;}
</style>
<g>
	<path class="st0" d="M14.58,46.9V30.44h1.1v3.93l-0.18,2.09l0.23,2.09v8.35H14.58z M20.61,42.53c-1.06,0-2.01-0.25-2.86-0.74
		c-0.85-0.49-1.53-1.19-2.02-2.1s-0.75-2-0.75-3.25c0-1.26,0.25-2.34,0.75-3.25s1.17-1.61,2.02-2.1c0.85-0.49,1.81-0.74,2.86-0.74
		c1.13,0,2.15,0.26,3.05,0.77s1.6,1.23,2.12,2.15c0.51,0.92,0.77,1.98,0.77,3.17s-0.26,2.25-0.77,3.17
		c-0.51,0.92-1.22,1.64-2.12,2.15C22.76,42.28,21.74,42.53,20.61,42.53z M20.54,41.5c0.92,0,1.75-0.21,2.48-0.63
		s1.31-1.02,1.74-1.78c0.42-0.77,0.63-1.65,0.63-2.64c0-1.01-0.21-1.9-0.63-2.66s-1-1.35-1.74-1.77c-0.74-0.42-1.56-0.63-2.48-0.63
		s-1.74,0.21-2.47,0.63c-0.73,0.42-1.3,1.01-1.73,1.77c-0.42,0.76-0.63,1.64-0.63,2.66c0,1,0.21,1.88,0.63,2.64
		c0.42,0.77,1,1.36,1.73,1.78C18.79,41.29,19.62,41.5,20.54,41.5z"/>
	<path class="st0" d="M30.1,42.44V25.38h1.15v17.07L30.1,42.44L30.1,42.44z"/>
	<path class="st0" d="M39.35,42.53c-0.89,0-1.66-0.14-2.31-0.43c-0.65-0.28-1.15-0.69-1.5-1.21c-0.34-0.52-0.52-1.12-0.52-1.79
		c0-0.61,0.14-1.17,0.42-1.67s0.75-0.9,1.42-1.22c0.66-0.31,1.54-0.47,2.64-0.47h4.42v0.9h-4.39c-1.24,0-2.11,0.23-2.61,0.69
		s-0.75,1.04-0.75,1.73c0,0.77,0.29,1.38,0.87,1.84s1.4,0.69,2.46,0.69c1.01,0,1.87-0.23,2.56-0.69c0.7-0.46,1.21-1.13,1.55-2
		l0.32,0.78c-0.32,0.87-0.87,1.57-1.64,2.08C41.53,42.28,40.55,42.53,39.35,42.53z M43.67,42.44V39.7l-0.05-0.41v-4.51
		c0-1.12-0.3-1.97-0.91-2.55c-0.61-0.58-1.49-0.87-2.66-0.87c-0.83,0-1.6,0.14-2.31,0.43c-0.71,0.28-1.32,0.65-1.83,1.09l-0.58-0.83
		c0.6-0.54,1.32-0.95,2.16-1.25s1.73-0.45,2.65-0.45c1.49,0,2.63,0.38,3.43,1.13c0.8,0.75,1.2,1.87,1.2,3.36v7.61L43.67,42.44
		L43.67,42.44z"/>
	<path class="st0" d="M49.01,47c-0.55,0-1.07-0.09-1.55-0.28c-0.48-0.18-0.89-0.45-1.23-0.81l0.58-0.87c0.31,0.32,0.64,0.56,1,0.71
		s0.77,0.23,1.23,0.23c0.55,0,1.04-0.15,1.46-0.46s0.82-0.87,1.18-1.68L52.51,42l0.16-0.21l5.08-11.36h1.17l-6.16,13.64
		c-0.32,0.74-0.67,1.31-1.05,1.74s-0.79,0.72-1.23,0.91C50.04,46.9,49.55,47,49.01,47z M52.48,42.74l-5.57-12.3h1.22l5.06,11.29
		L52.48,42.74z"/>
	<path class="st0" d="M61.43,42.44V25.38h1.15v17.07L61.43,42.44L61.43,42.44z"/>
	<path class="st0" d="M68.01,27.52c-0.26,0-0.48-0.09-0.67-0.28c-0.18-0.18-0.28-0.4-0.28-0.64c0-0.26,0.09-0.48,0.28-0.67
		c0.18-0.18,0.41-0.28,0.67-0.28c0.28,0,0.5,0.09,0.68,0.26c0.18,0.18,0.26,0.39,0.26,0.66s-0.09,0.48-0.26,0.67
		C68.51,27.42,68.28,27.52,68.01,27.52z M67.43,42.44v-12h1.15v12.01h-1.15V42.44z"/>
	<path class="st0" d="M76.47,42.53c-1,0-1.93-0.15-2.79-0.44s-1.54-0.66-2.01-1.1l0.53-0.92c0.46,0.4,1.07,0.74,1.84,1.02
		s1.59,0.43,2.48,0.43c1.26,0,2.16-0.21,2.71-0.62c0.55-0.41,0.83-0.96,0.83-1.63c0-0.49-0.14-0.88-0.42-1.16s-0.66-0.5-1.14-0.66
		c-0.48-0.15-1-0.28-1.56-0.38s-1.13-0.21-1.7-0.33c-0.57-0.12-1.09-0.3-1.56-0.53c-0.48-0.23-0.85-0.55-1.14-0.95
		s-0.43-0.95-0.43-1.62c0-0.61,0.17-1.17,0.51-1.66c0.34-0.49,0.84-0.89,1.52-1.18s1.52-0.45,2.53-0.45c0.75,0,1.51,0.11,2.27,0.32
		c0.76,0.21,1.38,0.5,1.85,0.85l-0.53,0.92c-0.51-0.38-1.07-0.66-1.7-0.83s-1.26-0.25-1.91-0.25c-1.17,0-2.02,0.21-2.56,0.64
		c-0.54,0.43-0.82,0.97-0.82,1.61c0,0.51,0.14,0.91,0.43,1.21c0.28,0.3,0.66,0.53,1.14,0.69c0.47,0.16,1,0.29,1.56,0.39
		c0.57,0.1,1.13,0.21,1.7,0.33s1.09,0.29,1.56,0.52c0.47,0.22,0.85,0.53,1.14,0.92c0.28,0.39,0.43,0.92,0.43,1.58
		c0,0.66-0.18,1.23-0.54,1.73c-0.36,0.49-0.89,0.87-1.6,1.15C78.36,42.4,77.5,42.53,76.47,42.53z"/>
	<path class="st0" d="M82.45,31.43v-0.99h7.18v0.99H82.45z M87.92,42.53c-1.06,0-1.87-0.29-2.43-0.87
		c-0.56-0.58-0.84-1.38-0.84-2.39V27.81h1.15v11.34c0,0.77,0.19,1.36,0.57,1.77s0.94,0.62,1.66,0.62c0.75,0,1.37-0.22,1.86-0.67
		l0.48,0.81c-0.31,0.29-0.68,0.51-1.12,0.64C88.83,42.47,88.38,42.53,87.92,42.53z"/>
	<path class="st0" d="M93.03,46.9V30.16h2.74v2.9l-0.09,3.27l0.23,3.27v7.31h-2.88V46.9z M99.84,42.6c-1,0-1.91-0.23-2.73-0.69
		s-1.47-1.15-1.96-2.08c-0.48-0.93-0.72-2.1-0.72-3.53c0-1.44,0.23-2.62,0.7-3.54s1.11-1.61,1.92-2.06
		c0.81-0.45,1.74-0.68,2.78-0.68c1.21,0,2.28,0.26,3.21,0.78s1.66,1.25,2.21,2.18c0.54,0.94,0.82,2.04,0.82,3.31
		s-0.27,2.38-0.82,3.32s-1.28,1.67-2.21,2.2S101.05,42.6,99.84,42.6z M99.52,40.14c0.69,0,1.31-0.15,1.85-0.46
		c0.54-0.31,0.98-0.75,1.3-1.33s0.48-1.27,0.48-2.05c0-0.8-0.16-1.48-0.48-2.06c-0.32-0.58-0.76-1.02-1.3-1.32
		c-0.54-0.31-1.16-0.46-1.85-0.46s-1.31,0.15-1.86,0.46c-0.55,0.31-0.99,0.75-1.31,1.32c-0.32,0.58-0.48,1.26-0.48,2.06
		c0,0.78,0.16,1.46,0.48,2.05c0.32,0.58,0.76,1.03,1.31,1.33S98.83,40.14,99.52,40.14z"/>
	<path class="st0" d="M114.01,42.6c-1.04,0-1.96-0.2-2.76-0.59c-0.8-0.39-1.42-0.99-1.86-1.79c-0.45-0.8-0.67-1.82-0.67-3.05v-7.02
		h2.88v6.62c0,1.1,0.25,1.93,0.75,2.47s1.21,0.82,2.13,0.82c0.67,0,1.26-0.14,1.76-0.41c0.5-0.28,0.89-0.69,1.17-1.24
		c0.28-0.55,0.43-1.23,0.43-2.05v-6.21h2.88v12.28h-2.74v-3.31l0.48,1.01c-0.41,0.8-1.02,1.41-1.82,1.83
		C115.83,42.39,114.96,42.6,114.01,42.6z"/>
	<path class="st0" d="M124.47,42.44V25.38h2.88v17.07L124.47,42.44L124.47,42.44z"/>
	<path class="st0" d="M134.91,42.6c-1.03,0-2.01-0.13-2.96-0.4c-0.94-0.27-1.69-0.59-2.24-0.98l1.1-2.19
		c0.55,0.35,1.21,0.64,1.98,0.87c0.77,0.23,1.53,0.35,2.3,0.35c0.9,0,1.56-0.12,1.97-0.37s0.61-0.58,0.61-0.99
		c0-0.34-0.14-0.59-0.41-0.77c-0.28-0.18-0.64-0.31-1.08-0.4c-0.45-0.09-0.94-0.18-1.48-0.25c-0.54-0.08-1.09-0.18-1.63-0.31
		c-0.54-0.13-1.04-0.32-1.48-0.58c-0.44-0.25-0.8-0.59-1.08-1.02s-0.41-1-0.41-1.7c0-0.78,0.22-1.46,0.67-2.04
		c0.45-0.58,1.07-1.02,1.88-1.33s1.76-0.47,2.86-0.47c0.83,0,1.66,0.09,2.51,0.28c0.84,0.18,1.54,0.44,2.09,0.78l-1.1,2.19
		c-0.58-0.35-1.17-0.59-1.76-0.72s-1.18-0.2-1.76-0.2c-0.87,0-1.52,0.13-1.94,0.39s-0.63,0.59-0.63,0.99c0,0.37,0.14,0.64,0.41,0.83
		c0.28,0.18,0.64,0.33,1.08,0.44c0.44,0.11,0.94,0.2,1.48,0.26c0.54,0.07,1.08,0.17,1.62,0.31s1.03,0.33,1.48,0.56
		c0.45,0.24,0.82,0.57,1.09,1c0.28,0.43,0.41,0.99,0.41,1.68c0,0.77-0.23,1.43-0.68,2s-1.09,1.01-1.92,1.32
		C137.05,42.45,136.06,42.6,134.91,42.6z"/>
	<path class="st0" d="M148.74,42.6c-1.37,0-2.56-0.27-3.58-0.82s-1.81-1.29-2.37-2.24s-0.84-2.03-0.84-3.24
		c0-1.23,0.27-2.31,0.82-3.25s1.3-1.68,2.25-2.22c0.96-0.54,2.05-0.8,3.28-0.8c1.2,0,2.26,0.26,3.2,0.78s1.67,1.26,2.21,2.21
		c0.54,0.95,0.8,2.07,0.8,3.36c0,0.12,0,0.26-0.01,0.41s-0.02,0.3-0.04,0.44h-10.23v-1.91h8.72l-1.13,0.6
		c0.01-0.71-0.13-1.33-0.44-1.86c-0.31-0.54-0.72-0.96-1.25-1.27s-1.14-0.46-1.83-0.46c-0.71,0-1.32,0.15-1.85,0.46
		c-0.53,0.31-0.94,0.73-1.24,1.28c-0.3,0.54-0.45,1.18-0.45,1.92v0.46c0,0.74,0.17,1.39,0.51,1.96s0.81,1,1.43,1.31
		c0.61,0.31,1.32,0.46,2.12,0.46c0.69,0,1.31-0.11,1.86-0.32s1.04-0.55,1.47-1.01l1.54,1.77c-0.55,0.64-1.25,1.14-2.08,1.48
		S149.81,42.6,148.74,42.6z"/>
</g>
<g>
	<path class="st0" d="M95.42,21.22v-7h2.73c0.61,0,1.14,0.1,1.57,0.29s0.77,0.47,1,0.84s0.35,0.8,0.35,1.31s-0.12,0.94-0.35,1.3
		s-0.57,0.64-1,0.84s-0.96,0.29-1.57,0.29h-2.18l0.45-0.47v2.59L95.42,21.22L95.42,21.22z M96.42,18.73l-0.45-0.5h2.15
		c0.64,0,1.12-0.14,1.46-0.41c0.33-0.27,0.5-0.66,0.5-1.16s-0.17-0.89-0.5-1.16s-0.82-0.41-1.46-0.41h-2.15l0.45-0.5V18.73z"/>
	<path class="st0" d="M104.65,21.28c-0.53,0-1.01-0.12-1.42-0.35s-0.74-0.55-0.98-0.96c-0.24-0.41-0.36-0.88-0.36-1.4
		c0-0.53,0.12-0.99,0.36-1.4c0.24-0.41,0.57-0.73,0.98-0.96s0.89-0.34,1.42-0.34s1,0.11,1.42,0.34c0.42,0.23,0.74,0.55,0.98,0.95
		c0.24,0.4,0.35,0.87,0.35,1.4c0,0.53-0.12,0.99-0.35,1.4c-0.24,0.41-0.56,0.73-0.98,0.96C105.65,21.17,105.18,21.28,104.65,21.28z
		 M104.65,20.44c0.34,0,0.65-0.08,0.92-0.23c0.27-0.15,0.48-0.37,0.64-0.66c0.15-0.28,0.23-0.61,0.23-0.99s-0.08-0.71-0.23-0.98
		c-0.15-0.28-0.37-0.49-0.64-0.65c-0.27-0.15-0.58-0.23-0.92-0.23s-0.64,0.08-0.91,0.23c-0.27,0.15-0.48,0.37-0.64,0.65
		c-0.16,0.28-0.24,0.6-0.24,0.98c0,0.37,0.08,0.7,0.24,0.99c0.16,0.29,0.37,0.5,0.64,0.66C104.01,20.37,104.31,20.44,104.65,20.44z"
		/>
	<path class="st0" d="M109.7,21.22l-1.97-5.3h0.91l1.75,4.8h-0.43l1.82-4.8h0.81l1.78,4.8h-0.42l1.79-4.8h0.86l-1.98,5.3h-0.92
		l-1.67-4.38h0.28l-1.69,4.38C110.62,21.22,109.7,21.22,109.7,21.22z"/>
	<path class="st0" d="M119.78,21.28c-0.57,0-1.06-0.12-1.49-0.35s-0.76-0.55-1-0.96s-0.36-0.87-0.36-1.4c0-0.53,0.12-0.99,0.34-1.4
		c0.23-0.41,0.55-0.73,0.95-0.96c0.4-0.23,0.86-0.34,1.37-0.34s0.97,0.11,1.36,0.34c0.39,0.23,0.7,0.54,0.92,0.96
		c0.22,0.41,0.33,0.89,0.33,1.43c0,0.04,0,0.09,0,0.14s-0.01,0.1-0.02,0.15h-4.51V18.2h4.01l-0.39,0.24
		c0.01-0.34-0.06-0.64-0.21-0.91s-0.35-0.47-0.61-0.62c-0.26-0.15-0.55-0.22-0.89-0.22c-0.33,0-0.63,0.08-0.89,0.22
		c-0.26,0.15-0.46,0.36-0.61,0.63c-0.15,0.27-0.22,0.58-0.22,0.92v0.16c0,0.35,0.08,0.67,0.25,0.94c0.16,0.28,0.39,0.49,0.68,0.65
		c0.29,0.15,0.63,0.23,1.01,0.23c0.31,0,0.6-0.05,0.86-0.16s0.48-0.27,0.67-0.48l0.53,0.62c-0.24,0.28-0.54,0.49-0.9,0.64
		S120.22,21.28,119.78,21.28z"/>
	<path class="st0" d="M123.54,21.22v-5.3h0.92v1.44L124.37,17c0.15-0.37,0.39-0.65,0.74-0.84c0.35-0.19,0.77-0.29,1.28-0.29v0.93
		c-0.04-0.01-0.08-0.01-0.12-0.01s-0.07,0-0.1,0c-0.51,0-0.92,0.15-1.22,0.46s-0.45,0.75-0.45,1.33v2.64
		C124.5,21.22,123.54,21.22,123.54,21.22z"/>
	<path class="st0" d="M129.88,21.28c-0.57,0-1.06-0.12-1.49-0.35c-0.43-0.23-0.76-0.55-1-0.96s-0.36-0.87-0.36-1.4
		c0-0.53,0.12-0.99,0.34-1.4c0.23-0.41,0.55-0.73,0.95-0.96c0.4-0.23,0.86-0.34,1.37-0.34s0.97,0.11,1.36,0.34
		c0.39,0.23,0.7,0.54,0.92,0.96c0.22,0.41,0.33,0.89,0.33,1.43c0,0.04,0,0.09,0,0.14s-0.01,0.1-0.02,0.15h-4.51V18.2h4.01
		l-0.39,0.24c0.01-0.34-0.06-0.64-0.21-0.91s-0.35-0.47-0.61-0.62c-0.26-0.15-0.55-0.22-0.89-0.22c-0.33,0-0.63,0.08-0.89,0.22
		c-0.26,0.15-0.46,0.36-0.61,0.63c-0.15,0.27-0.22,0.58-0.22,0.92v0.16c0,0.35,0.08,0.67,0.25,0.94c0.16,0.28,0.39,0.49,0.68,0.65
		c0.29,0.15,0.63,0.23,1.01,0.23c0.31,0,0.6-0.05,0.86-0.16s0.48-0.27,0.67-0.48l0.53,0.62c-0.24,0.28-0.54,0.49-0.9,0.64
		C130.7,21.21,130.32,21.28,129.88,21.28z"/>
	<path class="st0" d="M135.83,21.28c-0.51,0-0.97-0.11-1.38-0.34s-0.72-0.54-0.96-0.95c-0.23-0.41-0.35-0.88-0.35-1.42
		s0.12-1.01,0.35-1.42c0.23-0.4,0.55-0.72,0.96-0.94s0.86-0.34,1.38-0.34c0.45,0,0.85,0.1,1.21,0.3c0.36,0.2,0.65,0.5,0.87,0.9
		s0.33,0.9,0.33,1.5s-0.11,1.1-0.32,1.5s-0.49,0.7-0.85,0.91C136.71,21.19,136.29,21.28,135.83,21.28z M135.91,20.44
		c0.33,0,0.64-0.08,0.91-0.23c0.27-0.15,0.48-0.37,0.64-0.66c0.16-0.28,0.24-0.61,0.24-0.99s-0.08-0.71-0.24-0.98
		c-0.16-0.28-0.37-0.49-0.64-0.65c-0.27-0.15-0.57-0.23-0.91-0.23c-0.34,0-0.64,0.08-0.91,0.23c-0.27,0.15-0.48,0.37-0.64,0.65
		c-0.16,0.28-0.24,0.6-0.24,0.98c0,0.37,0.08,0.7,0.24,0.99c0.16,0.29,0.37,0.5,0.64,0.66C135.27,20.37,135.57,20.44,135.91,20.44z
		 M137.72,21.22v-1.43l0.06-1.23l-0.1-1.23V13.8h0.96v7.42C138.64,21.22,137.72,21.22,137.72,21.22z"/>
	<path class="st0" d="M143.15,21.22V13.8h0.96v3.53l-0.1,1.23l0.06,1.23v1.43H143.15z M145.96,21.28c-0.45,0-0.86-0.1-1.22-0.3
		s-0.65-0.5-0.86-0.91c-0.21-0.4-0.31-0.9-0.31-1.5s0.11-1.1,0.32-1.5c0.22-0.4,0.51-0.7,0.87-0.9s0.77-0.3,1.21-0.3
		c0.52,0,0.98,0.11,1.38,0.34s0.72,0.54,0.95,0.94s0.35,0.88,0.35,1.42s-0.12,1.01-0.35,1.42s-0.55,0.72-0.95,0.95
		C146.94,21.17,146.48,21.28,145.96,21.28z M145.88,20.44c0.34,0,0.65-0.08,0.92-0.23s0.48-0.37,0.64-0.66
		c0.16-0.28,0.23-0.61,0.23-0.99s-0.08-0.71-0.23-0.98c-0.16-0.28-0.37-0.49-0.64-0.65c-0.27-0.15-0.57-0.23-0.92-0.23
		c-0.33,0-0.63,0.08-0.9,0.23c-0.27,0.15-0.48,0.37-0.64,0.65c-0.16,0.28-0.23,0.6-0.23,0.98c0,0.37,0.08,0.7,0.23,0.99
		c0.16,0.28,0.37,0.5,0.64,0.66C145.25,20.37,145.55,20.44,145.88,20.44z"/>
	<path class="st0" d="M150.05,23.22c-0.25,0-0.5-0.04-0.74-0.12s-0.45-0.21-0.62-0.37l0.41-0.72c0.13,0.13,0.28,0.22,0.44,0.29
		s0.33,0.1,0.51,0.1c0.23,0,0.43-0.06,0.58-0.18s0.3-0.33,0.43-0.64l0.33-0.73l0.1-0.12l2.08-4.81h0.94l-2.57,5.83
		c-0.15,0.37-0.33,0.67-0.52,0.88c-0.19,0.21-0.4,0.37-0.62,0.46S150.32,23.22,150.05,23.22z M151.31,21.39l-2.42-5.47h1l2.06,4.72
		L151.31,21.39z"/>
</g>
<g>
	<path class="st0" d="M97.82,55.85c-0.43,0.42-0.88,0.59-1.43,0.59c-1.08,0-1.97-0.65-1.97-1.97s0.9-1.97,1.97-1.97
		c0.53,0,0.93,0.15,1.34,0.55l-0.58,0.61c-0.22-0.2-0.49-0.29-0.75-0.29c-0.62,0-1.07,0.45-1.07,1.1c0,0.71,0.48,1.09,1.05,1.09
		c0.29,0,0.59-0.08,0.81-0.31L97.82,55.85z"/>
	<path class="st0" d="M106.68,51.05v2.07c0.33-0.43,0.74-0.56,1.16-0.56c1.06,0,1.52,0.72,1.52,1.81v1.96h-0.92v-1.95
		c0-0.68-0.35-0.96-0.84-0.96c-0.54,0-0.92,0.46-0.92,1.02v1.9h-0.92v-5.28h0.92V51.05z"/>
	<path class="st0" d="M120.63,52.61h0.88v3.72h-0.87l-0.04-0.54c-0.21,0.44-0.79,0.65-1.21,0.66c-1.1,0.01-1.92-0.67-1.92-1.98
		c0-1.28,0.85-1.95,1.94-1.94c0.5,0,0.97,0.23,1.18,0.6L120.63,52.61z M118.4,54.46c0,0.71,0.49,1.13,1.1,1.13
		c1.45,0,1.45-2.25,0-2.25C118.89,53.34,118.4,53.75,118.4,54.46z"/>
	<path class="st0" d="M130.67,52.61l0.07,0.43c0.29-0.46,0.67-0.53,1.05-0.53s0.75,0.15,0.96,0.35l-0.42,0.8
		c-0.19-0.16-0.36-0.24-0.66-0.24c-0.48,0-0.93,0.26-0.93,0.94v1.96h-0.92V52.6h0.85V52.61z"/>
	<path class="st0" d="M142.16,51.56v1.05h1.03v0.79h-1.03v1.61c0,0.35,0.2,0.53,0.48,0.53c0.14,0,0.31-0.04,0.44-0.11l0.26,0.78
		c-0.26,0.11-0.48,0.15-0.76,0.16c-0.81,0.03-1.33-0.43-1.33-1.36V53.4h-0.69v-0.79h0.69v-0.96L142.16,51.56z"/>
	<path class="st0" d="M153.83,53.6c-0.26-0.25-0.57-0.33-0.92-0.33c-0.44,0-0.68,0.14-0.68,0.37c0,0.24,0.22,0.38,0.69,0.41
		c0.7,0.05,1.59,0.2,1.59,1.19c0,0.66-0.54,1.22-1.6,1.22c-0.59,0-1.18-0.1-1.72-0.66l0.45-0.66c0.26,0.29,0.87,0.51,1.28,0.52
		c0.35,0.01,0.67-0.17,0.67-0.44c0-0.26-0.21-0.36-0.74-0.39c-0.7-0.05-1.54-0.31-1.54-1.15c0-0.86,0.89-1.16,1.57-1.16
		c0.58,0,1.02,0.11,1.45,0.49L153.83,53.6z"/>
</g>
<g>
	<path class="st1" d="M193.08,26.28c0.53-0.49,0.72-1.25,0.5-1.93c-0.23-0.69-0.83-1.18-1.55-1.26l-5.85-0.86
		c-1.01,3.67-2.48,8.83-2.48,8.83c0,0.01-0.01,0.02-0.01,0.02c-0.43,1.86-2.18,3.86-4.53,5.06c-2.65,1.43-5.47,1.23-6.97-0.34
		c-0.73-0.63-1.23-1.43-1.4-2.35c-0.49-2.62,1.84-5.29,5.3-6.2c0.23-0.06,0.47-0.11,0.71-0.16c0.38-0.07,0.76-0.11,1.13-0.14
		c1.41-0.1,2.75,0.12,3.85,0.6c0.05,0.03,0.1,0.05,0.15,0.08l1.51-6.09c-0.2-0.16-0.37-0.36-0.5-0.59l0,0l-3.41-6.96l0,0
		c-0.31-0.66-0.98-1.08-1.71-1.08c-0.73,0-1.39,0.42-1.7,1.08l-3.41,6.96c-0.29,0.54-0.81,0.92-1.41,1.02l-7.69,1.12
		c-0.72,0.08-1.32,0.57-1.55,1.26c-0.23,0.69-0.03,1.44,0.5,1.93l5.55,5.44c0.46,0.41,0.66,1.03,0.54,1.63L167.32,41
		c-0.12,0.7,0.17,1.42,0.74,1.84c0.58,0.42,1.34,0.48,1.98,0.16l0,0l6.89-3.63c0.55-0.26,1.19-0.26,1.74,0l6.9,3.63
		c0.64,0.33,1.4,0.27,1.98-0.16c0.58-0.42,0.86-1.13,0.74-1.84l-1.31-7.65c-0.12-0.6,0.09-1.22,0.54-1.63L193.08,26.28z"/>
	<polygon class="st2" points="195.14,28.05 192.97,30.47 196.3,35.86 190.18,46.45 186.41,46.45 177.94,46.45 175.69,42.55 
		172.88,44.09 176.09,49.66 192.03,49.66 192.86,48.22 196.23,42.38 200,35.86 	"/>
</g>
</svg>
