<?xml version="1.0" encoding="utf-8"?>
<!-- Generator: Adobe Illustrator 26.3.1, SVG Export Plug-In . SVG Version: 6.00 Build 0)  -->
<svg version="1.1" id="Layer_1" xmlns="http://www.w3.org/2000/svg" xmlns:xlink="http://www.w3.org/1999/xlink" x="0px" y="0px"
	 viewBox="0 0 210 60" style="enable-background:new 0 0 210 60;" xml:space="preserve">
<style type="text/css">
	.st0{fill:#99E266;}
	.st1{opacity:0.5;fill:#99E266;enable-background:new    ;}
	.st2{fill:#FFFFFF;}
</style>
<g>
	<g>
		<g>
			<path class="st0" d="M189.61,18.51c-0.01-0.62-0.5-1.12-1.12-1.14l-6.28,0.17c-0.68-0.02-1.3,0.38-1.56,1.01l-1.19,2.46
				l-15.04,0.33c-0.86,0.02-1.6,0.61-1.82,1.44l22.2-0.26c0.61-0.01,1.13,0.44,1.21,1.05l2.48,19.18c0.89-1.16,1.37-2.59,1.35-4.05
				L189.61,18.51z"/>
			<path class="st0" d="M183.34,24.72l-2.43,0.03c-1.12,4.57-2.62,10.66-2.62,10.66c0,0.01-0.01,0.01-0.01,0.02
				c-0.31,1.57-1.73,3.31-3.68,4.38c-2.19,1.27-4.56,1.18-5.87-0.1c-0.63-0.51-1.07-1.17-1.24-1.94c-0.48-2.19,1.4-4.49,4.29-5.36
				c0.19-0.06,0.39-0.11,0.59-0.15c0.32-0.07,0.63-0.12,0.94-0.15c1.18-0.12,2.31,0.03,3.25,0.4c0.04,0.02,0.08,0.04,0.13,0.06
				l1.78-7.8L160,24.97c-0.44,0-0.78,0.4-0.71,0.84l2.4,15.74c0.13,0.85,0.86,1.48,1.72,1.49l22.69,0.13c0.17,0,0.31-0.15,0.29-0.32
				l-2.06-17.27C184.27,25.08,183.84,24.71,183.34,24.72z"/>
		</g>
		<g>
			<polygon class="st1" points="192.1,22.72 192.1,29.12 194.96,34.07 194.96,34.07 196.3,36.39 190.18,46.99 186.41,46.99 
				178.42,46.99 177.94,46.99 176.71,44.85 173.01,44.85 176.09,50.19 177.55,50.19 192.03,50.19 192.86,48.76 196.23,42.92 
				200,36.39 			"/>
		</g>
	</g>
</g>
<g>
	<path class="st2" d="M28.95,43.79c-1,0-1.93-0.15-2.79-0.44s-1.54-0.66-2.01-1.1l0.53-0.92c0.46,0.4,1.07,0.74,1.84,1.02
		s1.59,0.43,2.48,0.43c1.26,0,2.16-0.21,2.71-0.62s0.83-0.96,0.83-1.63c0-0.49-0.14-0.88-0.42-1.16s-0.66-0.5-1.14-0.66
		c-0.48-0.15-1-0.28-1.56-0.38s-1.13-0.21-1.7-0.33c-0.57-0.12-1.09-0.3-1.56-0.53c-0.48-0.23-0.85-0.55-1.14-0.95
		s-0.43-0.95-0.43-1.62c0-0.61,0.17-1.17,0.51-1.66s0.84-0.89,1.52-1.18s1.52-0.45,2.53-0.45c0.75,0,1.51,0.11,2.27,0.32
		c0.76,0.21,1.38,0.5,1.85,0.85l-0.53,0.92c-0.51-0.38-1.07-0.66-1.7-0.83s-1.26-0.25-1.91-0.25c-1.17,0-2.02,0.21-2.56,0.64
		s-0.82,0.97-0.82,1.61c0,0.51,0.14,0.91,0.43,1.21c0.28,0.3,0.66,0.53,1.14,0.69c0.47,0.16,1,0.29,1.56,0.39
		c0.57,0.1,1.13,0.21,1.7,0.33s1.09,0.29,1.56,0.52c0.47,0.22,0.85,0.53,1.14,0.92c0.28,0.39,0.43,0.92,0.43,1.58
		c0,0.66-0.18,1.23-0.54,1.73c-0.36,0.49-0.89,0.87-1.6,1.15C30.84,43.65,29.98,43.79,28.95,43.79z"/>
	<path class="st2" d="M41.6,43.79c-1.15,0-2.17-0.26-3.07-0.78s-1.61-1.24-2.14-2.16s-0.79-1.97-0.79-3.15
		c0-1.2,0.26-2.25,0.79-3.16s1.24-1.63,2.14-2.15s1.92-0.78,3.07-0.78s2.18,0.26,3.08,0.78s1.62,1.24,2.14,2.15s0.78,1.97,0.78,3.16
		c0,1.18-0.26,2.23-0.78,3.15c-0.52,0.92-1.23,1.64-2.14,2.16C43.77,43.53,42.75,43.79,41.6,43.79z M41.6,42.76
		c0.92,0,1.75-0.21,2.48-0.63c0.74-0.42,1.31-1.02,1.72-1.78c0.41-0.77,0.62-1.65,0.62-2.64c0-1.01-0.21-1.9-0.62-2.66
		s-0.99-1.35-1.72-1.77c-0.74-0.42-1.56-0.63-2.48-0.63s-1.74,0.21-2.47,0.63c-0.73,0.42-1.3,1.01-1.72,1.77
		c-0.42,0.76-0.63,1.64-0.63,2.66c0,1,0.21,1.88,0.63,2.64c0.42,0.77,1,1.36,1.72,1.78S40.68,42.76,41.6,42.76z"/>
	<path class="st2" d="M57.03,31.6c0.98,0,1.84,0.19,2.56,0.56s1.3,0.94,1.7,1.7c0.41,0.76,0.61,1.7,0.61,2.82v7.01h-1.15v-6.92
		c0-1.35-0.34-2.38-1.02-3.08c-0.68-0.71-1.64-1.06-2.86-1.06c-0.93,0-1.75,0.19-2.44,0.58c-0.69,0.38-1.22,0.92-1.58,1.61
		c-0.36,0.69-0.54,1.52-0.54,2.48v6.39h-1.15v-12h1.1v3.33l-0.16-0.37c0.37-0.95,0.97-1.7,1.82-2.24
		C54.77,31.88,55.8,31.6,57.03,31.6z"/>
	<path class="st2" d="M71.31,43.26c-1.14,0-2.15-0.25-3.05-0.75s-1.61-1.19-2.14-2.07s-0.79-1.89-0.79-3.02
		c0-1.15,0.26-2.16,0.79-3.04c0.53-0.87,1.24-1.56,2.14-2.05c0.9-0.49,1.91-0.74,3.05-0.74c1.09,0,2.07,0.23,2.93,0.7
		c0.86,0.47,1.55,1.13,2.06,2s0.76,1.91,0.76,3.12c0,1.2-0.25,2.23-0.76,3.11s-1.19,1.55-2.06,2.02
		C73.38,43.03,72.4,43.26,71.31,43.26z M71.64,48.25c-1.09,0-2.12-0.17-3.1-0.51c-0.98-0.34-1.78-0.8-2.39-1.4l0.62-0.87
		c0.6,0.55,1.31,0.98,2.15,1.29s1.74,0.46,2.7,0.46c1.61,0,2.79-0.38,3.55-1.13s1.14-1.93,1.14-3.54v-3.33l0.23-1.79l-0.18-1.79
		v-3.93h1.1v10.72c0,2.01-0.49,3.48-1.46,4.43C75.02,47.78,73.57,48.25,71.64,48.25z M71.41,42.23c0.97,0,1.82-0.2,2.55-0.61
		s1.31-0.97,1.74-1.7s0.63-1.56,0.63-2.5c0-0.95-0.21-1.79-0.63-2.51s-1-1.28-1.74-1.68s-1.59-0.6-2.55-0.6
		c-0.94,0-1.78,0.2-2.52,0.6c-0.74,0.4-1.33,0.96-1.75,1.68s-0.63,1.56-0.63,2.51c0,0.94,0.21,1.77,0.63,2.5s1,1.3,1.75,1.7
		C69.63,42.03,70.47,42.23,71.41,42.23z"/>
	<path class="st2" d="M80.15,33.81v-2.3h8.19v2.3H80.15z M82.17,43.7V30.73c0-1.29,0.38-2.32,1.14-3.09s1.84-1.16,3.25-1.16
		c0.51,0,0.99,0.05,1.44,0.16c0.45,0.11,0.83,0.28,1.14,0.51l-0.78,2.16c-0.21-0.17-0.46-0.29-0.74-0.38
		c-0.28-0.08-0.56-0.13-0.85-0.13c-0.6,0-1.05,0.17-1.36,0.5s-0.46,0.82-0.46,1.48v1.38l0.09,1.29V43.7H82.17z"/>
	<path class="st2" d="M95.6,43.86c-1.26,0-2.38-0.27-3.36-0.82s-1.76-1.29-2.32-2.24c-0.57-0.95-0.85-2.03-0.85-3.24
		c0-1.23,0.28-2.31,0.85-3.25s1.34-1.68,2.32-2.22s2.1-0.8,3.36-0.8c1.27,0,2.4,0.27,3.39,0.8c0.99,0.54,1.76,1.27,2.32,2.21
		c0.56,0.94,0.84,2.02,0.84,3.27c0,1.21-0.28,2.29-0.84,3.24s-1.33,1.7-2.32,2.24S96.87,43.86,95.6,43.86z M95.6,41.4
		c0.71,0,1.33-0.15,1.89-0.46c0.56-0.31,0.99-0.75,1.3-1.33s0.47-1.27,0.47-2.05c0-0.8-0.16-1.48-0.47-2.06s-0.75-1.02-1.3-1.32
		c-0.55-0.31-1.17-0.46-1.86-0.46c-0.71,0-1.33,0.15-1.87,0.46c-0.54,0.31-0.98,0.75-1.3,1.32s-0.48,1.26-0.48,2.06
		c0,0.78,0.16,1.46,0.48,2.05s0.75,1.03,1.3,1.33C94.29,41.25,94.91,41.4,95.6,41.4z"/>
	<path class="st2" d="M104.92,43.7V26.63h2.88V43.7H104.92z"/>
	<path class="st2" d="M116.76,43.86c-1.18,0-2.24-0.26-3.19-0.79c-0.94-0.53-1.68-1.26-2.22-2.2c-0.54-0.93-0.8-2.04-0.8-3.31
		s0.27-2.38,0.8-3.31c0.54-0.93,1.28-1.66,2.22-2.18s2-0.78,3.19-0.78c1.03,0,1.95,0.23,2.76,0.68c0.81,0.45,1.46,1.14,1.93,2.06
		c0.47,0.92,0.71,2.1,0.71,3.54c0,1.43-0.23,2.6-0.69,3.53s-1.1,1.62-1.91,2.08S117.82,43.86,116.76,43.86z M117.1,41.4
		c0.69,0,1.31-0.15,1.85-0.46s0.98-0.75,1.31-1.33s0.49-1.27,0.49-2.05c0-0.8-0.17-1.48-0.49-2.06c-0.33-0.58-0.77-1.02-1.31-1.32
		c-0.54-0.31-1.16-0.46-1.85-0.46s-1.31,0.15-1.85,0.46c-0.54,0.31-0.98,0.75-1.31,1.32c-0.33,0.58-0.49,1.26-0.49,2.06
		c0,0.78,0.16,1.46,0.49,2.05c0.33,0.58,0.77,1.03,1.31,1.33C115.8,41.25,116.42,41.4,117.1,41.4z M120.83,43.7v-2.9l0.11-3.27
		l-0.23-3.27v-7.64h2.85V43.7H120.83z"/>
	<path class="st2" d="M133.14,43.86c-1.37,0-2.56-0.27-3.58-0.82s-1.81-1.29-2.37-2.24s-0.84-2.03-0.84-3.24
		c0-1.23,0.27-2.31,0.82-3.25s1.3-1.68,2.25-2.22c0.96-0.54,2.05-0.8,3.28-0.8c1.2,0,2.26,0.26,3.2,0.78
		c0.94,0.52,1.67,1.26,2.21,2.21c0.54,0.95,0.8,2.07,0.8,3.36c0,0.12,0,0.26-0.01,0.41s-0.02,0.3-0.04,0.44h-10.23v-1.91h8.72
		l-1.13,0.6c0.01-0.71-0.13-1.33-0.44-1.86c-0.31-0.54-0.72-0.96-1.25-1.27s-1.14-0.46-1.83-0.46c-0.71,0-1.32,0.15-1.85,0.46
		c-0.53,0.31-0.94,0.73-1.24,1.28c-0.3,0.54-0.45,1.18-0.45,1.92v0.46c0,0.74,0.17,1.39,0.51,1.96s0.81,1,1.43,1.31
		c0.61,0.31,1.32,0.46,2.12,0.46c0.69,0,1.31-0.11,1.86-0.32s1.04-0.55,1.47-1.01l1.54,1.77c-0.55,0.64-1.25,1.14-2.08,1.48
		S134.21,43.86,133.14,43.86z"/>
	<path class="st2" d="M141.67,43.7V31.42h2.74v3.38l-0.32-0.99c0.37-0.83,0.95-1.46,1.74-1.89c0.79-0.43,1.78-0.64,2.96-0.64v2.74
		c-0.12-0.03-0.24-0.05-0.34-0.06c-0.11-0.01-0.22-0.01-0.32-0.01c-1.09,0-1.96,0.32-2.6,0.95c-0.64,0.64-0.97,1.58-0.97,2.84v5.96
		H141.67z"/>
</g>
<g>
	<path class="st2" d="M89.7,22.48v-7h2.73c0.61,0,1.14,0.1,1.57,0.29s0.77,0.47,1,0.84c0.23,0.37,0.35,0.8,0.35,1.31
		s-0.12,0.94-0.35,1.3s-0.57,0.64-1,0.84s-0.96,0.29-1.57,0.29h-2.18l0.45-0.47v2.59h-1V22.48z M90.7,19.99l-0.45-0.5h2.15
		c0.64,0,1.12-0.14,1.46-0.41c0.33-0.27,0.5-0.66,0.5-1.16s-0.17-0.89-0.5-1.16s-0.82-0.41-1.46-0.41h-2.15l0.45-0.5V19.99z"/>
	<path class="st2" d="M98.93,22.54c-0.53,0-1.01-0.12-1.42-0.35s-0.74-0.55-0.98-0.96c-0.24-0.41-0.36-0.88-0.36-1.4
		c0-0.53,0.12-0.99,0.36-1.4c0.24-0.41,0.57-0.73,0.98-0.96s0.89-0.34,1.42-0.34s1,0.11,1.42,0.34s0.74,0.55,0.98,0.95
		c0.24,0.4,0.35,0.87,0.35,1.4c0,0.53-0.12,0.99-0.35,1.4c-0.24,0.41-0.56,0.73-0.98,0.96C99.93,22.42,99.46,22.54,98.93,22.54z
		 M98.93,21.7c0.34,0,0.65-0.08,0.92-0.23c0.27-0.15,0.48-0.37,0.64-0.66c0.15-0.28,0.23-0.61,0.23-0.99s-0.08-0.71-0.23-0.98
		c-0.15-0.28-0.37-0.49-0.64-0.65c-0.27-0.15-0.58-0.23-0.92-0.23s-0.64,0.08-0.91,0.23c-0.27,0.15-0.48,0.37-0.64,0.65
		c-0.16,0.28-0.24,0.6-0.24,0.98c0,0.37,0.08,0.7,0.24,0.99c0.16,0.29,0.37,0.5,0.64,0.66C98.29,21.63,98.59,21.7,98.93,21.7z"/>
	<path class="st2" d="M103.98,22.48l-1.97-5.3h0.91l1.75,4.8h-0.43l1.82-4.8h0.81l1.78,4.8h-0.42l1.79-4.8h0.86l-1.98,5.3h-0.92
		l-1.67-4.38h0.28l-1.69,4.38H103.98z"/>
	<path class="st2" d="M114.06,22.54c-0.57,0-1.06-0.12-1.49-0.35s-0.76-0.55-1-0.96s-0.36-0.87-0.36-1.4c0-0.53,0.12-0.99,0.34-1.4
		c0.23-0.41,0.55-0.73,0.95-0.96c0.4-0.23,0.86-0.34,1.37-0.34s0.97,0.11,1.36,0.34s0.7,0.54,0.92,0.96
		c0.22,0.41,0.33,0.89,0.33,1.43c0,0.04,0,0.09,0,0.14s-0.01,0.1-0.02,0.15h-4.51v-0.69h4.01l-0.39,0.24
		c0.01-0.34-0.06-0.64-0.21-0.91s-0.35-0.47-0.61-0.62c-0.26-0.15-0.55-0.22-0.89-0.22c-0.33,0-0.63,0.08-0.89,0.22
		c-0.26,0.15-0.46,0.36-0.61,0.63c-0.15,0.27-0.22,0.58-0.22,0.92v0.16c0,0.35,0.08,0.67,0.25,0.94c0.16,0.28,0.39,0.49,0.68,0.65
		c0.29,0.15,0.63,0.23,1.01,0.23c0.31,0,0.6-0.05,0.86-0.16s0.48-0.27,0.67-0.48l0.53,0.62c-0.24,0.28-0.54,0.49-0.9,0.64
		S114.5,22.54,114.06,22.54z"/>
	<path class="st2" d="M117.82,22.48v-5.3h0.92v1.44l-0.09-0.36c0.15-0.37,0.39-0.65,0.74-0.84s0.77-0.29,1.28-0.29v0.93
		c-0.04-0.01-0.08-0.01-0.12-0.01s-0.07,0-0.1,0c-0.51,0-0.92,0.15-1.22,0.46s-0.45,0.75-0.45,1.33v2.64
		C118.78,22.48,117.82,22.48,117.82,22.48z"/>
	<path class="st2" d="M124.16,22.54c-0.57,0-1.06-0.12-1.49-0.35s-0.76-0.55-1-0.96s-0.36-0.87-0.36-1.4c0-0.53,0.12-0.99,0.34-1.4
		c0.23-0.41,0.55-0.73,0.95-0.96c0.4-0.23,0.86-0.34,1.37-0.34s0.97,0.11,1.36,0.34s0.7,0.54,0.92,0.96
		c0.22,0.41,0.33,0.89,0.33,1.43c0,0.04,0,0.09,0,0.14s-0.01,0.1-0.02,0.15h-4.51v-0.69h4.01l-0.39,0.24
		c0.01-0.34-0.06-0.64-0.21-0.91s-0.35-0.47-0.61-0.62c-0.26-0.15-0.55-0.22-0.89-0.22c-0.33,0-0.63,0.08-0.89,0.22
		c-0.26,0.15-0.46,0.36-0.61,0.63c-0.15,0.27-0.22,0.58-0.22,0.92v0.16c0,0.35,0.08,0.67,0.25,0.94c0.16,0.28,0.39,0.49,0.68,0.65
		c0.29,0.15,0.63,0.23,1.01,0.23c0.31,0,0.6-0.05,0.86-0.16s0.48-0.27,0.67-0.48l0.53,0.62c-0.24,0.28-0.54,0.49-0.9,0.64
		S124.6,22.54,124.16,22.54z"/>
	<path class="st2" d="M130.11,22.54c-0.51,0-0.97-0.11-1.38-0.34s-0.72-0.54-0.96-0.95c-0.23-0.41-0.35-0.88-0.35-1.42
		s0.12-1.01,0.35-1.42c0.23-0.4,0.55-0.72,0.96-0.94s0.86-0.34,1.38-0.34c0.45,0,0.85,0.1,1.21,0.3c0.36,0.2,0.65,0.5,0.87,0.9
		s0.33,0.9,0.33,1.5s-0.11,1.1-0.32,1.5s-0.49,0.7-0.85,0.91C130.99,22.45,130.57,22.54,130.11,22.54z M130.19,21.7
		c0.33,0,0.64-0.08,0.91-0.23c0.27-0.15,0.48-0.37,0.64-0.66c0.16-0.28,0.24-0.61,0.24-0.99s-0.08-0.71-0.24-0.98
		c-0.16-0.28-0.37-0.49-0.64-0.65c-0.27-0.15-0.57-0.23-0.91-0.23s-0.64,0.08-0.91,0.23c-0.27,0.15-0.48,0.37-0.64,0.65
		c-0.16,0.28-0.24,0.6-0.24,0.98c0,0.37,0.08,0.7,0.24,0.99c0.16,0.29,0.37,0.5,0.64,0.66C129.55,21.63,129.85,21.7,130.19,21.7z
		 M132,22.48v-1.43l0.06-1.23l-0.1-1.23v-3.53h0.96v7.42H132z"/>
	<path class="st2" d="M137.43,22.48v-7.42h0.96v3.53l-0.1,1.23l0.06,1.23v1.43H137.43z M140.24,22.54c-0.45,0-0.86-0.1-1.22-0.3
		s-0.65-0.5-0.86-0.91c-0.21-0.4-0.31-0.9-0.31-1.5s0.11-1.1,0.32-1.5c0.22-0.4,0.51-0.7,0.87-0.9s0.77-0.3,1.21-0.3
		c0.52,0,0.98,0.11,1.38,0.34c0.4,0.23,0.72,0.54,0.95,0.94c0.23,0.4,0.35,0.88,0.35,1.42s-0.12,1.01-0.35,1.42
		c-0.23,0.41-0.55,0.72-0.95,0.95C141.22,22.43,140.76,22.54,140.24,22.54z M140.16,21.7c0.34,0,0.65-0.08,0.92-0.23
		s0.48-0.37,0.64-0.66c0.16-0.28,0.23-0.61,0.23-0.99s-0.08-0.71-0.23-0.98c-0.16-0.28-0.37-0.49-0.64-0.65
		c-0.27-0.15-0.57-0.23-0.92-0.23c-0.33,0-0.63,0.08-0.9,0.23c-0.27,0.15-0.48,0.37-0.64,0.65c-0.16,0.28-0.23,0.6-0.23,0.98
		c0,0.37,0.08,0.7,0.23,0.99c0.16,0.28,0.37,0.5,0.64,0.66C139.53,21.63,139.83,21.7,140.16,21.7z"/>
	<path class="st2" d="M144.33,24.48c-0.25,0-0.5-0.04-0.74-0.12s-0.45-0.21-0.62-0.37l0.41-0.72c0.13,0.13,0.28,0.22,0.44,0.29
		s0.33,0.1,0.51,0.1c0.23,0,0.43-0.06,0.58-0.18s0.3-0.33,0.43-0.64l0.33-0.73l0.1-0.12l2.08-4.81h0.94l-2.57,5.83
		c-0.15,0.37-0.33,0.67-0.52,0.88s-0.4,0.37-0.62,0.46S144.61,24.48,144.33,24.48z M145.59,22.65l-2.42-5.47h1l2.06,4.72
		L145.59,22.65z"/>
</g>
</svg>
