<?xml version="1.0" encoding="utf-8"?>
<!-- Generator: Adobe Illustrator 26.3.1, SVG Export Plug-In . SVG Version: 6.00 Build 0)  -->
<svg version="1.1" id="Layer_1" xmlns="http://www.w3.org/2000/svg" xmlns:xlink="http://www.w3.org/1999/xlink" x="0px" y="0px"
	 viewBox="0 0 565 565" style="enable-background:new 0 0 565 565;" xml:space="preserve">
<style type="text/css">
	.st0{fill:#FFC53B;}
	.st1{opacity:0.25;fill:#FFC53B;}
	.st2{opacity:0.3;fill:#3D77FF;}
	.st3{fill:#3D77FF;}
	.st4{fill:#FF1241;}
	.st5{opacity:0.25;fill:#FF8098;}
	.st6{fill:#99E266;}
	.st7{opacity:0.5;fill:#99E266;}
	.st8{fill:#B65FDE;}
	.st9{opacity:0.3;fill:#B65FDE;}
	.st10{opacity:0.25;}
	.st11{fill:#D6D6D6;}
	.st12{fill:#2EC4B6;}
</style>
<g>
	<path class="st12" d="M57.5,145c0-27.62,22.38-50,50-50h250c27.58,0,50,22.38,50,50v75.55c-4.14-0.39-8.28-0.55-12.5-0.55
		c-15.7,0-30.86,2.66-44.92,7.5C332.73,179.38,286.64,145,232.5,145c-69.06,0-125,55.94-125,125s55.94,125,125,125
		c10.08,0,19.84-1.17,29.22-3.44c5.08,19.92,13.83,38.05,27.19,53.44H107.5c-27.62,0-50-22.42-50-50V145z M207.5,270
		c0-13.83,11.17-25,25-25s25,11.17,25,25s-11.17,25-25,25S207.5,283.83,207.5,270z M507.5,357.5c0,62.11-50.39,112.5-112.5,112.5
		s-112.5-50.39-112.5-112.5S332.89,245,395,245S507.5,295.39,507.5,357.5z M420.47,395h-50.94c-16.4,0-30.39,10.7-35.23,25.55
		C350.08,435.7,371.41,445,395,445s44.92-9.3,60.7-24.45C450.86,405.7,436.87,395,420.47,395z M395,295c-20.7,0-37.5,16.8-37.5,37.5
		S374.3,370,395,370s37.5-16.8,37.5-37.5S415.7,295,395,295z"/>
</g>
</svg>
