<?xml version="1.0" encoding="utf-8"?>
<!-- Generator: Adobe Illustrator 26.3.1, SVG Export Plug-In . SVG Version: 6.00 Build 0)  -->
<svg version="1.1" id="Layer_1" xmlns="http://www.w3.org/2000/svg" xmlns:xlink="http://www.w3.org/1999/xlink" x="0px" y="0px"
	 viewBox="0 0 565 565" style="enable-background:new 0 0 565 565;" xml:space="preserve">
<style type="text/css">
	.st0{fill:#FFC53B;}
	.st1{opacity:0.25;fill:#FFC53B;}
	.st2{opacity:0.3;fill:#3D77FF;}
	.st3{fill:#3D77FF;}
	.st4{fill:#FF1241;}
	.st5{opacity:0.25;fill:#FF8098;}
	.st6{fill:#99E266;}
	.st7{opacity:0.5;fill:#99E266;}
	.st8{fill:#B65FDE;}
	.st9{opacity:0.3;fill:#B65FDE;}
	.st10{opacity:0.25;}
	.st11{fill:#D6D6D6;}
	.st12{fill:#2EC4B6;}
</style>
<g>
	<path class="st12" d="M416.8,238.38c19.23,3.08,36.66,11.48,50.78,23.63l0.54-159.62c-0.02-14.16-11.5-25.66-25.66-25.66
		c-2.17,0-6.33,0.53-9.14,1.2l-255.91,75.78c-9.91,3.12-17.97,14.07-17.97,24.48v185.5c-8.06-2.39-16.62-3.93-25.66-3.93
		c-41.8,0-76.27,28-76.27,63.44c0,35.45,33.04,64.16,76.27,64.16c43.23,0,76.99-28.71,77.71-64.08V256.39l205.32-60.87V238.38z"/>
	<g>
		<path class="st12" d="M357.98,359.82l31.55,31.54c2.85,3.09,6.79,4.85,10.84,4.85c0.12,0,0.24,0,0.35-0.01
			c3.85-0.1,7.49-1.79,10.07-4.67c2.88-2.58,4.57-6.22,4.67-10.07c0.1-4.14-1.62-8.18-4.75-11.11l-31.46-31.45
			c-2.61-2.86-6.24-4.49-10.21-4.59c-3.97-0.09-8.11,1.5-11.08,4.43c-2.9,2.93-4.49,6.95-4.39,11.03
			C353.66,353.75,355.29,357.38,357.98,359.82z"/>
		<path class="st12" d="M400.4,274.06c-10.1,0-18.32,8.22-18.32,18.32v25.36c0,10.1,8.22,18.32,18.32,18.32
			c10.1,0,18.32-8.22,18.32-18.32v-4.65c30.58,8.14,52.14,35.78,52.14,68.06c0,38.85-31.61,70.46-70.46,70.46
			s-70.46-31.61-70.46-70.46c0-19.11,7.5-36.97,21.13-50.3c3.52-3.43,5.48-8.02,5.53-12.92c0.05-4.9-1.81-9.52-5.25-13.03
			c-7.08-7.2-18.7-7.32-25.9-0.25c-20.72,20.33-32.14,47.49-32.14,76.5c0,59.05,48.04,107.1,107.1,107.1s107.1-48.04,107.1-107.1
			S459.46,274.06,400.4,274.06z"/>
	</g>
</g>
</svg>
