<?xml version="1.0" encoding="utf-8"?>
<!-- Generator: Adobe Illustrator 26.3.1, SVG Export Plug-In . SVG Version: 6.00 Build 0)  -->
<svg version="1.1" id="Layer_1" xmlns="http://www.w3.org/2000/svg" xmlns:xlink="http://www.w3.org/1999/xlink" x="0px" y="0px"
	 viewBox="0 0 565 565" style="enable-background:new 0 0 565 565;" xml:space="preserve">
<style type="text/css">
	.st0{fill:#FFC53B;}
	.st1{opacity:0.25;fill:#FFC53B;}
	.st2{opacity:0.3;fill:#3D77FF;}
	.st3{fill:#3D77FF;}
	.st4{fill:#FF1241;}
	.st5{opacity:0.25;fill:#FF8098;}
	.st6{fill:#99E266;}
	.st7{opacity:0.5;fill:#99E266;}
	.st8{fill:#B65FDE;}
	.st9{opacity:0.3;fill:#B65FDE;}
	.st10{opacity:0.25;}
	.st11{fill:#D6D6D6;}
	.st12{fill:#2EC4B6;}
</style>
<g>
	<path class="st12" d="M506.71,380.15c0,38.83-37.78,70.31-83.58,70.31s-83.58-31.48-83.58-69.52c0-38.83,37.78-69.52,83.58-69.52
		c9.91,0,19.29,1.69,28.13,4.3V187.67l-225.01,66.71v182.9c-0.79,38.76-37.79,70.22-85.17,70.22S57.5,476.04,57.5,437.19
		c0-38.83,37.78-69.52,83.58-69.52c9.91,0,19.29,1.69,28.12,4.3V168.68c0-11.4,8.84-23.41,19.7-26.82l280.46-83.05
		c3.07-0.73,7.64-1.31,10.01-1.31c15.52,0,28.1,12.6,28.12,28.12L506.71,380.15z"/>
</g>
</svg>
