<?xml version="1.0" encoding="utf-8"?>
<!-- Generator: Adobe Illustrator 26.3.1, SVG Export Plug-In . SVG Version: 6.00 Build 0)  -->
<svg version="1.1" id="Layer_1" xmlns="http://www.w3.org/2000/svg" xmlns:xlink="http://www.w3.org/1999/xlink" x="0px" y="0px"
	 viewBox="0 0 565 565" style="enable-background:new 0 0 565 565;" xml:space="preserve">
<style type="text/css">
	.st0{fill:#FFC53B;}
	.st1{opacity:0.25;fill:#FFC53B;}
	.st2{opacity:0.3;fill:#3D77FF;}
	.st3{fill:#3D77FF;}
	.st4{fill:#FF1241;}
	.st5{opacity:0.25;fill:#FF8098;}
	.st6{fill:#99E266;}
	.st7{opacity:0.5;fill:#99E266;}
	.st8{fill:#B65FDE;}
	.st9{opacity:0.3;fill:#B65FDE;}
	.st10{opacity:0.25;}
	.st11{fill:#D6D6D6;}
	.st12{fill:#2EC4B6;}
</style>
<g>
	<path class="st12" d="M507.5,258.74v41.64c0,9.56-7.17,18.86-17.08,20.89l-46.68,9.33v92.85c0,26.41-28.55,47.82-63.76,47.82
		s-63.76-21.41-63.76-47.82c0-26.41,28.55-47.82,63.76-47.82c7.51,0,14.55,1.13,21.26,2.92V271.49c0-10.69,7.17-18.86,17.07-20.86
		l63.76-12.75C495.21,235.3,507.5,245.33,507.5,258.74z"/>
	<path class="st12" d="M378.46,352.88v-81.38c0-2.87,0.29-5.67,0.8-8.38V123.94c0-16.69-12.97-30.22-30.22-30.22H87.15
		c-16.12,0-29.65,13.53-29.65,30.22V372.1c0,16.69,13.53,30.22,29.65,30.22h210.1C307.88,373.75,339.69,353.39,378.46,352.88z
		 M349.61,307.8v30.22h-0.57c0,2.78-2.26,5.04-5.04,5.04h-29.65c-2.78,0-4.47-2.26-4.47-5.04V307.8c0-2.78,2.25-5.04,5.03-5.04
		h29.65C347.35,302.77,349.61,305.02,349.61,307.8z M309.32,146.64c0-2.78,2.25-5.04,4.47-5.04h29.65c2.78,0,5.04,2.26,5.04,5.04
		v30.22h0.57c0,2.78-2.26,5.04-5.04,5.04h-29.65c-2.78,0-5.04-2.26-5.04-5.04V146.64z M309.32,227.22c0-2.78,2.25-5.04,5.04-5.04
		h29.65c2.78,0,5.04,2.26,5.04,5.04v30.22c0,2.78-2.26,5.04-5.04,5.04h-29.65c-2.78,0-5.04-2.26-5.04-5.04V227.22z M122.41,343.06
		H92.19c-2.78,0-5.04-2.26-5.04-5.04V307.8c0-2.78,2.26-5.04,5.04-5.04h29.65c2.78,0,5.04,2.26,5.04,5.04l0.56,30.22
		C127.44,340.8,125.19,343.06,122.41,343.06z M122.41,262.47H92.19c-2.78,0-5.04-2.26-5.04-5.04v-30.22c0-2.78,2.26-5.04,5.04-5.04
		h29.65c2.78,0,5.04,2.26,5.04,5.04v30.22h0.56C127.44,260.22,125.19,262.47,122.41,262.47z M122.41,181.89H92.19
		c-2.78,0-5.04-2.26-5.04-5.04v-30.22c0-2.78,2.26-5.04,5.04-5.04h29.65c2.78,0,5.04,2.26,5.04,5.04l0.56,30.22
		C127.44,179.64,125.19,181.89,122.41,181.89z M278.53,332.98c0,5.56-4.51,10.07-10.07,10.07H167.73c-5.56,0-10.07-4.51-10.07-10.07
		v-60.44c0-5.56,4.51-10.07,10.07-10.07h100.73c5.56,0,10.07,4.51,10.07,10.07V332.98z M268.46,222.18H167.73
		c-5.56,0-10.07-4.51-10.07-10.07v-60.44c0-5.56,4.51-10.07,10.07-10.07h100.73c5.56,0,10.07,4.51,10.07,10.07v60.44
		C278.53,217.67,274.02,222.18,268.46,222.18z"/>
</g>
</svg>
