<?xml version="1.0" encoding="utf-8"?>
<!-- Generator: Adobe Illustrator 26.3.1, SVG Export Plug-In . SVG Version: 6.00 Build 0)  -->
<svg version="1.1" id="Layer_1" xmlns="http://www.w3.org/2000/svg" xmlns:xlink="http://www.w3.org/1999/xlink" x="0px" y="0px"
	 viewBox="0 0 565 565" style="enable-background:new 0 0 565 565;" xml:space="preserve">
<style type="text/css">
	.st0{fill:#FFC53B;}
	.st1{opacity:0.25;fill:#FFC53B;}
	.st2{opacity:0.3;fill:#3D77FF;}
	.st3{fill:#3D77FF;}
	.st4{fill:#FF1241;}
	.st5{opacity:0.25;fill:#FF8098;}
	.st6{fill:#99E266;}
	.st7{opacity:0.5;fill:#99E266;}
	.st8{fill:#B65FDE;}
	.st9{opacity:0.3;fill:#B65FDE;}
	.st10{opacity:0.25;}
	.st11{fill:#D6D6D6;}
	.st12{fill:#2EC4B6;}
</style>
<g>
	<path class="st12" d="M282.5,411.88c0,19.9,9.42,37.55,24.72,50.62H81.87c-13.46,0-24.37-10.9-24.37-24.33
		c0-67.29,54.57-121.92,121.85-121.92h71.3c30.94,0,59.13,11.67,80.65,30.73C302.19,358.93,282.5,383.05,282.5,411.88z"/>
	<circle class="st12" cx="215" cy="192.5" r="90"/>
	<path class="st12" d="M507.5,237.5v44.09c0,10.12-7.59,19.97-18.08,22.11L440,313.58v98.3c0,27.96-30.22,50.62-67.5,50.62
		S305,439.83,305,411.88c0-27.96,30.22-50.63,67.5-50.63c7.95,0,15.4,1.2,22.5,3.1V251c0-11.32,7.59-19.97,18.07-22.08l67.5-13.5
		C494.49,212.68,507.5,223.3,507.5,237.5z"/>
</g>
</svg>
