<?xml version="1.0" encoding="utf-8"?>
<!-- Generator: Adobe Illustrator 26.3.1, SVG Export Plug-In . SVG Version: 6.00 Build 0)  -->
<svg version="1.1" id="Layer_1" xmlns="http://www.w3.org/2000/svg" xmlns:xlink="http://www.w3.org/1999/xlink" x="0px" y="0px"
	 viewBox="0 0 565 565" style="enable-background:new 0 0 565 565;" xml:space="preserve">
<style type="text/css">
	.st0{fill:#FFC53B;}
	.st1{opacity:0.25;fill:#FFC53B;}
	.st2{opacity:0.3;fill:#3D77FF;}
	.st3{fill:#3D77FF;}
	.st4{fill:#FF1241;}
	.st5{opacity:0.25;fill:#FF8098;}
	.st6{fill:#99E266;}
	.st7{opacity:0.5;fill:#99E266;}
	.st8{fill:#B65FDE;}
	.st9{opacity:0.3;fill:#B65FDE;}
	.st10{opacity:0.25;}
	.st11{fill:#D6D6D6;}
	.st12{fill:#2EC4B6;}
</style>
<g>
	<path class="st12" d="M453.5,180.5c0,55.27-44.73,100-100,100l-175.7-0.7c-54.59,0-99.3-44.02-99.3-99.3s44.73-100,100-100
		c37.97,0,70.55,21.39,87.5,52.54c17.03-31.15,49.53-52.54,87.5-52.54C408.81,80.5,453.5,125.22,453.5,180.5z M403.5,342.99v100
		c0,20.71-16.79,37.5-37.5,37.5H166c-20.71,0-37.5-16.8-37.5-37.5l-0.7-87.5h-25c-13.1,0-24.3-12.58-24.3-25.7s11.2-24.3,24.3-24.3
		H366C386.7,305.5,403.5,322.29,403.5,342.99z M228.5,180.5c0-27.64-22.36-50-50-50s-50,22.36-50,50s22.36,50,50,50
		C206.16,230.5,228.5,208.14,228.5,180.5z M403.5,180.5c0-27.64-22.36-50-50-50c-27.64,0-50,22.36-50,50s22.36,50,50,50
		C381.16,230.5,403.5,208.14,403.5,180.5z M528.5,305.5v149.92c0,20.62-23.52,32.42-40.03,20.03L428.5,430.5v-100l60-44.92
		C504.98,273.15,528.5,284.95,528.5,305.5z"/>
</g>
</svg>
