<?xml version="1.0" encoding="utf-8"?>
<!-- Generator: Adobe Illustrator 26.3.1, SVG Export Plug-In . SVG Version: 6.00 Build 0)  -->
<svg version="1.1" id="Layer_1" xmlns="http://www.w3.org/2000/svg" xmlns:xlink="http://www.w3.org/1999/xlink" x="0px" y="0px"
	 viewBox="0 0 210 60" style="enable-background:new 0 0 210 60;" xml:space="preserve">
<style type="text/css">
	.st0{fill:#FFC53B;}
	.st1{opacity:0.25;fill:#FFC53B;}
	.st2{fill:#FF1241;}
	.st3{opacity:0.25;fill:#FF8098;}
	.st4{fill:#99E266;}
	.st5{opacity:0.5;fill:#99E266;}
	.st6{opacity:0.3;fill:#3D77FF;}
	.st7{fill:#3D77FF;}
	.st8{fill:#F961EA;}
	.st9{opacity:0.21;fill:#F961EA;}
	.st10{fill:#17171C;}
	.st11{fill:#B65FDE;}
	.st12{opacity:0.3;fill:#B65FDE;}
</style>
<g>
	<g>
		<path class="st0" d="M34.4,20.46h-2.62c-1.57,5.35-3.85,13.04-3.85,13.04c0,0.01-0.01,0.02-0.01,0.02
			c-0.44,1.83-2.26,3.8-4.7,4.97c-2.75,1.4-5.67,1.21-7.22-0.34c-0.76-0.62-1.28-1.41-1.46-2.31c-0.51-2.58,1.91-5.2,5.49-6.1
			c0.24-0.06,0.48-0.11,0.73-0.16c0.39-0.07,0.78-0.11,1.17-0.14c1.46-0.1,2.84,0.12,3.99,0.59c0.05,0.03,0.1,0.05,0.15,0.08
			l2.67-9.67H9.91c-1.19,0-2.15,0.91-2.15,2.04v17.56c0,1.13,0.96,2.04,2.15,2.04H34.4c1.19,0,2.15-0.91,2.15-2.04V22.5
			C36.55,21.37,35.58,20.46,34.4,20.46z M21.9,22.92c0.96,0,1.73,0.74,1.73,1.65c0,0.91-0.78,1.65-1.73,1.65
			c-0.96,0-1.73-0.74-1.73-1.65C20.17,23.65,20.94,22.92,21.9,22.92z M16.93,22.92c0.96,0,1.73,0.74,1.73,1.65
			c0,0.91-0.78,1.65-1.73,1.65c-0.96,0-1.73-0.74-1.73-1.65C15.2,23.65,15.98,22.92,16.93,22.92z M11.96,26.21
			c-0.96,0-1.73-0.74-1.73-1.65c0-0.91,0.78-1.65,1.73-1.65c0.96,0,1.73,0.74,1.73,1.65C13.7,25.47,12.92,26.21,11.96,26.21z"/>
	</g>
	<g>
		<polygon class="st1" points="41.56,29.08 41.56,29.08 38.68,23.94 38.68,30.35 41.97,36.19 35.85,46.79 32.08,46.79 32.08,46.79 
			24.53,46.79 23.61,46.79 21.89,43.79 18.19,43.79 21.77,49.99 23.67,49.99 37.7,49.99 37.7,49.99 38.53,48.55 41.9,42.72 
			45.67,36.19 		"/>
	</g>
</g>
<g>
	<path class="st10" d="M58.95,43.26c-1,0-1.93-0.15-2.79-0.44s-1.54-0.66-2.01-1.1l0.53-0.92c0.46,0.4,1.07,0.74,1.84,1.02
		c0.77,0.28,1.59,0.43,2.48,0.43c1.26,0,2.16-0.21,2.71-0.62c0.55-0.41,0.83-0.96,0.83-1.63c0-0.49-0.14-0.88-0.42-1.16
		c-0.28-0.28-0.66-0.5-1.14-0.66c-0.48-0.15-1-0.28-1.56-0.38s-1.13-0.21-1.7-0.33c-0.57-0.12-1.09-0.3-1.56-0.53
		c-0.48-0.23-0.85-0.55-1.14-0.95s-0.43-0.95-0.43-1.62c0-0.61,0.17-1.17,0.51-1.66c0.34-0.49,0.84-0.89,1.52-1.18
		s1.52-0.45,2.53-0.45c0.75,0,1.51,0.11,2.27,0.32c0.76,0.21,1.38,0.5,1.85,0.85l-0.53,0.92c-0.51-0.38-1.07-0.66-1.7-0.83
		s-1.26-0.25-1.91-0.25c-1.17,0-2.02,0.21-2.56,0.64c-0.54,0.43-0.82,0.97-0.82,1.61c0,0.51,0.14,0.91,0.43,1.21
		c0.28,0.3,0.66,0.53,1.14,0.69c0.47,0.16,1,0.29,1.56,0.39c0.57,0.1,1.13,0.21,1.7,0.33s1.09,0.29,1.56,0.52
		c0.47,0.22,0.85,0.53,1.14,0.92c0.28,0.39,0.43,0.92,0.43,1.58c0,0.66-0.18,1.23-0.54,1.73c-0.36,0.49-0.89,0.87-1.6,1.15
		C60.84,43.12,59.98,43.26,58.95,43.26z"/>
	<path class="st10" d="M71.6,43.26c-1.15,0-2.17-0.26-3.07-0.78c-0.9-0.52-1.61-1.24-2.14-2.16c-0.53-0.92-0.79-1.97-0.79-3.15
		c0-1.2,0.26-2.25,0.79-3.16c0.53-0.91,1.24-1.63,2.14-2.15c0.9-0.52,1.92-0.78,3.07-0.78c1.15,0,2.18,0.26,3.08,0.78
		c0.9,0.52,1.62,1.24,2.14,2.15s0.78,1.97,0.78,3.16c0,1.18-0.26,2.23-0.78,3.15c-0.52,0.92-1.23,1.64-2.14,2.16
		C73.77,43,72.75,43.26,71.6,43.26z M71.6,42.22c0.92,0,1.75-0.21,2.48-0.63c0.74-0.42,1.31-1.02,1.72-1.78
		c0.41-0.77,0.62-1.65,0.62-2.64c0-1.01-0.21-1.9-0.62-2.66c-0.41-0.76-0.99-1.35-1.72-1.77c-0.74-0.42-1.56-0.63-2.48-0.63
		s-1.74,0.21-2.47,0.63c-0.73,0.42-1.3,1.01-1.72,1.77c-0.42,0.76-0.63,1.64-0.63,2.66c0,1,0.21,1.88,0.63,2.64
		c0.42,0.77,1,1.36,1.72,1.78S70.68,42.22,71.6,42.22z"/>
	<path class="st10" d="M87.03,31.07c0.98,0,1.84,0.19,2.56,0.56s1.3,0.94,1.7,1.7c0.41,0.76,0.61,1.7,0.61,2.82v7.01h-1.15v-6.92
		c0-1.35-0.34-2.38-1.02-3.08c-0.68-0.71-1.64-1.06-2.86-1.06c-0.93,0-1.75,0.19-2.44,0.58c-0.69,0.38-1.22,0.92-1.58,1.61
		c-0.36,0.69-0.54,1.52-0.54,2.48v6.39h-1.15V31.16h1.1v3.33l-0.16-0.37c0.37-0.95,0.97-1.7,1.82-2.24
		C84.77,31.34,85.8,31.07,87.03,31.07z"/>
	<path class="st10" d="M101.31,42.73c-1.14,0-2.15-0.25-3.05-0.75c-0.9-0.5-1.61-1.19-2.14-2.07c-0.53-0.88-0.79-1.89-0.79-3.02
		c0-1.15,0.26-2.16,0.79-3.04c0.53-0.87,1.24-1.56,2.14-2.05c0.9-0.49,1.91-0.74,3.05-0.74c1.09,0,2.07,0.23,2.93,0.7
		s1.55,1.13,2.06,2s0.76,1.91,0.76,3.12c0,1.2-0.25,2.23-0.76,3.11s-1.19,1.55-2.06,2.02C103.38,42.49,102.4,42.73,101.31,42.73z
		 M101.64,47.72c-1.09,0-2.12-0.17-3.1-0.51c-0.98-0.34-1.78-0.8-2.39-1.4l0.62-0.87c0.6,0.55,1.31,0.98,2.15,1.29
		s1.74,0.46,2.7,0.46c1.61,0,2.79-0.38,3.55-1.13c0.76-0.75,1.14-1.93,1.14-3.54v-3.33l0.23-1.79l-0.18-1.79v-3.93h1.1v10.72
		c0,2.01-0.49,3.48-1.46,4.43C105.02,47.25,103.57,47.72,101.64,47.72z M101.41,41.69c0.97,0,1.82-0.2,2.55-0.61s1.31-0.97,1.74-1.7
		s0.63-1.56,0.63-2.5c0-0.95-0.21-1.79-0.63-2.51s-1-1.28-1.74-1.68s-1.59-0.6-2.55-0.6c-0.94,0-1.78,0.2-2.52,0.6
		c-0.74,0.4-1.33,0.96-1.75,1.68s-0.63,1.56-0.63,2.51c0,0.94,0.21,1.77,0.63,2.5s1,1.3,1.75,1.7
		C99.63,41.49,100.47,41.69,101.41,41.69z"/>
	<path class="st10" d="M111.78,47.63V30.88h2.74v2.9l-0.09,3.27l0.23,3.27v7.31H111.78z M118.59,43.33c-1,0-1.91-0.23-2.73-0.69
		s-1.47-1.15-1.96-2.08c-0.48-0.93-0.72-2.1-0.72-3.53c0-1.44,0.23-2.62,0.7-3.54s1.11-1.61,1.92-2.06
		c0.81-0.45,1.74-0.68,2.78-0.68c1.21,0,2.28,0.26,3.21,0.78s1.66,1.25,2.21,2.18c0.54,0.94,0.82,2.04,0.82,3.31
		s-0.27,2.38-0.82,3.32s-1.28,1.67-2.21,2.2S119.8,43.33,118.59,43.33z M118.26,40.87c0.69,0,1.31-0.15,1.85-0.46
		c0.54-0.31,0.98-0.75,1.3-1.33c0.32-0.58,0.48-1.27,0.48-2.05c0-0.8-0.16-1.48-0.48-2.06c-0.32-0.58-0.76-1.02-1.3-1.32
		c-0.54-0.31-1.16-0.46-1.85-0.46c-0.69,0-1.31,0.15-1.86,0.46c-0.55,0.31-0.99,0.75-1.31,1.32c-0.32,0.58-0.48,1.26-0.48,2.06
		c0,0.78,0.16,1.46,0.48,2.05c0.32,0.58,0.76,1.03,1.31,1.33S117.57,40.87,118.26,40.87z"/>
	<path class="st10" d="M131.1,43.33c-0.92,0-1.72-0.16-2.42-0.47c-0.69-0.31-1.22-0.75-1.6-1.31s-0.56-1.19-0.56-1.9
		c0-0.69,0.17-1.31,0.5-1.86c0.33-0.55,0.87-0.99,1.62-1.31c0.75-0.32,1.75-0.48,2.99-0.48h3.56v1.91h-3.36
		c-0.98,0-1.64,0.16-1.98,0.47c-0.34,0.31-0.51,0.7-0.51,1.16c0,0.52,0.21,0.94,0.62,1.24s0.99,0.46,1.72,0.46
		c0.71,0,1.34-0.16,1.9-0.48c0.56-0.32,0.96-0.8,1.21-1.43l0.48,1.72c-0.28,0.72-0.77,1.28-1.48,1.68
		C133.09,43.13,132.19,43.33,131.1,43.33z M134.96,43.16v-2.48l-0.16-0.53V35.8c0-0.84-0.25-1.5-0.76-1.97s-1.27-0.7-2.3-0.7
		c-0.69,0-1.37,0.11-2.04,0.32s-1.23,0.51-1.69,0.9l-1.13-2.09c0.66-0.51,1.45-0.88,2.36-1.14c0.91-0.25,1.86-0.38,2.84-0.38
		c1.78,0,3.15,0.43,4.13,1.28s1.46,2.17,1.46,3.94v7.2H134.96z"/>
	<path class="st10" d="M146.58,42.61c-1.17,0-2.22-0.25-3.16-0.75c-0.94-0.5-1.69-1.19-2.23-2.08s-0.82-1.93-0.82-3.13
		c0-1.18,0.27-2.22,0.82-3.11c0.54-0.89,1.29-1.58,2.23-2.07c0.94-0.49,2-0.74,3.16-0.74c1.04,0,1.98,0.21,2.81,0.62
		s1.49,1.06,1.99,1.93c0.5,0.87,0.75,1.99,0.75,3.36c0,1.36-0.25,2.49-0.75,3.37c-0.5,0.88-1.16,1.53-1.99,1.96
		S147.62,42.61,146.58,42.61z M146.95,47.79c-1.13,0-2.24-0.15-3.32-0.45s-1.97-0.73-2.66-1.3l1.29-2.16
		c0.54,0.44,1.21,0.8,2.04,1.07c0.82,0.27,1.65,0.4,2.5,0.4c1.35,0,2.34-0.31,2.97-0.93c0.63-0.62,0.94-1.55,0.94-2.79v-2.18
		l0.23-2.78l-0.09-2.78v-2.99h2.74V41.3c0,2.22-0.57,3.86-1.7,4.91C150.73,47.26,149.09,47.79,146.95,47.79z M147.02,40.17
		c0.72,0,1.36-0.15,1.93-0.45s1.01-0.71,1.32-1.24s0.47-1.14,0.47-1.83c0-0.69-0.16-1.3-0.47-1.83c-0.31-0.53-0.75-0.93-1.32-1.22
		c-0.57-0.28-1.21-0.43-1.93-0.43c-0.72,0-1.37,0.14-1.94,0.43c-0.57,0.28-1.02,0.69-1.33,1.22c-0.31,0.53-0.47,1.14-0.47,1.83
		c0,0.69,0.16,1.3,0.47,1.83s0.76,0.94,1.33,1.24C145.65,40.03,146.29,40.17,147.02,40.17z"/>
	<path class="st10" d="M163.11,43.33c-1.37,0-2.56-0.27-3.58-0.82s-1.81-1.29-2.37-2.24c-0.56-0.95-0.84-2.03-0.84-3.24
		c0-1.23,0.27-2.31,0.82-3.25s1.3-1.68,2.25-2.22c0.96-0.54,2.05-0.8,3.28-0.8c1.2,0,2.26,0.26,3.2,0.78s1.67,1.26,2.21,2.21
		c0.54,0.95,0.8,2.07,0.8,3.36c0,0.12,0,0.26-0.01,0.41c-0.01,0.15-0.02,0.3-0.04,0.44h-10.23v-1.91h8.72l-1.13,0.6
		c0.01-0.71-0.13-1.33-0.44-1.86c-0.31-0.54-0.72-0.96-1.25-1.27c-0.53-0.31-1.14-0.46-1.83-0.46c-0.71,0-1.32,0.15-1.85,0.46
		c-0.53,0.31-0.94,0.73-1.24,1.28c-0.3,0.54-0.45,1.18-0.45,1.92v0.46c0,0.74,0.17,1.39,0.51,1.96c0.34,0.57,0.81,1,1.43,1.31
		c0.61,0.31,1.32,0.46,2.12,0.46c0.69,0,1.31-0.11,1.86-0.32s1.04-0.55,1.47-1.01l1.54,1.77c-0.55,0.64-1.25,1.14-2.08,1.48
		S164.19,43.33,163.11,43.33z"/>
</g>
<g>
	<path class="st10" d="M50.94,21.95v-7h2.88c0.62,0,1.15,0.1,1.59,0.3s0.79,0.49,1.03,0.86c0.24,0.37,0.36,0.82,0.36,1.33
		s-0.12,0.96-0.36,1.33c-0.24,0.37-0.58,0.66-1.03,0.86c-0.44,0.2-0.97,0.3-1.59,0.3h-2.16l0.58-0.61v2.63H50.94z M52.24,19.46
		l-0.58-0.63h2.1c0.57,0,1-0.12,1.29-0.37c0.29-0.24,0.44-0.58,0.44-1.02c0-0.45-0.15-0.79-0.44-1.03s-0.72-0.36-1.29-0.36h-2.1
		l0.58-0.64V19.46z"/>
	<path class="st10" d="M60.36,22.02c-0.55,0-1.03-0.12-1.46-0.36c-0.43-0.24-0.76-0.56-1.01-0.97c-0.25-0.41-0.37-0.88-0.37-1.41
		c0-0.53,0.12-1,0.37-1.42c0.25-0.41,0.58-0.73,1.01-0.96s0.91-0.35,1.46-0.35c0.55,0,1.04,0.12,1.48,0.35
		c0.43,0.23,0.77,0.55,1.01,0.96s0.37,0.88,0.37,1.42c0,0.53-0.12,1-0.37,1.41s-0.58,0.74-1.01,0.97
		C61.41,21.9,60.92,22.02,60.36,22.02z M60.36,20.95c0.31,0,0.58-0.07,0.82-0.2c0.24-0.13,0.43-0.33,0.57-0.58
		c0.14-0.25,0.2-0.55,0.2-0.89c0-0.35-0.07-0.65-0.2-0.9c-0.14-0.25-0.33-0.44-0.57-0.57c-0.24-0.13-0.51-0.2-0.81-0.2
		c-0.31,0-0.58,0.07-0.82,0.2c-0.24,0.13-0.42,0.32-0.57,0.57c-0.14,0.25-0.21,0.55-0.21,0.9c0,0.34,0.07,0.64,0.21,0.89
		c0.14,0.25,0.33,0.45,0.57,0.58C59.79,20.88,60.06,20.95,60.36,20.95z"/>
	<path class="st10" d="M65.44,21.95l-1.96-5.34h1.18l1.68,4.71h-0.56l1.76-4.71h1.05l1.71,4.71h-0.55l1.73-4.71h1.11l-1.97,5.34
		h-1.2l-1.56-4.17h0.37l-1.59,4.17H65.44z"/>
	<path class="st10" d="M75.81,22.02c-0.59,0-1.11-0.12-1.55-0.36c-0.44-0.24-0.79-0.56-1.03-0.97s-0.37-0.88-0.37-1.41
		c0-0.53,0.12-1,0.36-1.42c0.24-0.41,0.56-0.73,0.98-0.96s0.89-0.35,1.42-0.35c0.52,0,0.98,0.11,1.39,0.34
		c0.41,0.23,0.73,0.55,0.96,0.96c0.23,0.41,0.35,0.9,0.35,1.46c0,0.05,0,0.11,0,0.18s-0.01,0.13-0.01,0.19h-4.45v-0.83h3.79
		l-0.49,0.26c0.01-0.31-0.06-0.58-0.19-0.81c-0.13-0.23-0.32-0.42-0.55-0.55c-0.23-0.13-0.49-0.2-0.79-0.2
		c-0.31,0-0.57,0.07-0.8,0.2c-0.23,0.13-0.41,0.32-0.54,0.56c-0.13,0.24-0.2,0.51-0.2,0.83v0.2c0,0.32,0.07,0.6,0.22,0.85
		c0.15,0.25,0.35,0.44,0.62,0.57c0.27,0.13,0.57,0.2,0.92,0.2c0.3,0,0.57-0.05,0.81-0.14s0.45-0.24,0.64-0.44l0.67,0.77
		c-0.24,0.28-0.54,0.5-0.91,0.64C76.69,21.94,76.28,22.02,75.81,22.02z"/>
	<path class="st10" d="M79.52,21.95v-5.34h1.19v1.47l-0.14-0.43c0.16-0.36,0.41-0.63,0.75-0.82s0.77-0.28,1.29-0.28v1.19
		c-0.05-0.01-0.1-0.02-0.15-0.03c-0.05,0-0.09,0-0.14,0c-0.47,0-0.85,0.14-1.13,0.42c-0.28,0.28-0.42,0.69-0.42,1.24v2.59H79.52z"/>
	<path class="st10" d="M86.13,22.02c-0.59,0-1.11-0.12-1.55-0.36c-0.44-0.24-0.79-0.56-1.03-0.97s-0.37-0.88-0.37-1.41
		c0-0.53,0.12-1,0.36-1.42c0.24-0.41,0.56-0.73,0.98-0.96s0.89-0.35,1.42-0.35c0.52,0,0.98,0.11,1.39,0.34
		c0.41,0.23,0.73,0.55,0.96,0.96c0.23,0.41,0.35,0.9,0.35,1.46c0,0.05,0,0.11,0,0.18s-0.01,0.13-0.01,0.19h-4.45v-0.83h3.79
		l-0.49,0.26c0.01-0.31-0.06-0.58-0.19-0.81c-0.13-0.23-0.32-0.42-0.55-0.55c-0.23-0.13-0.49-0.2-0.79-0.2
		c-0.31,0-0.57,0.07-0.8,0.2c-0.23,0.13-0.41,0.32-0.54,0.56c-0.13,0.24-0.2,0.51-0.2,0.83v0.2c0,0.32,0.07,0.6,0.22,0.85
		c0.15,0.25,0.35,0.44,0.62,0.57c0.27,0.13,0.57,0.2,0.92,0.2c0.3,0,0.57-0.05,0.81-0.14s0.45-0.24,0.64-0.44l0.67,0.77
		c-0.24,0.28-0.54,0.5-0.91,0.64C87.01,21.94,86.6,22.02,86.13,22.02z"/>
	<path class="st10" d="M92.1,22.02c-0.51,0-0.97-0.12-1.38-0.35c-0.41-0.23-0.73-0.55-0.96-0.96c-0.23-0.41-0.35-0.89-0.35-1.44
		s0.12-1.03,0.35-1.44c0.23-0.41,0.55-0.72,0.96-0.95s0.87-0.34,1.38-0.34c0.45,0,0.85,0.1,1.2,0.29c0.35,0.2,0.63,0.5,0.84,0.9
		c0.21,0.4,0.31,0.91,0.31,1.54c0,0.62-0.1,1.13-0.3,1.54s-0.48,0.71-0.83,0.9C92.97,21.92,92.56,22.02,92.1,22.02z M92.25,20.95
		c0.3,0,0.57-0.07,0.8-0.2c0.24-0.13,0.43-0.33,0.57-0.58c0.14-0.25,0.21-0.55,0.21-0.89c0-0.35-0.07-0.65-0.21-0.9
		c-0.14-0.25-0.33-0.44-0.57-0.57c-0.24-0.13-0.5-0.2-0.8-0.2c-0.3,0-0.57,0.07-0.81,0.2c-0.24,0.13-0.43,0.32-0.57,0.57
		c-0.14,0.25-0.22,0.55-0.22,0.9c0,0.34,0.07,0.64,0.22,0.89c0.14,0.25,0.33,0.45,0.57,0.58C91.68,20.88,91.95,20.95,92.25,20.95z
		 M93.87,21.95v-1.26l0.05-1.42l-0.1-1.42v-3.32h1.24v7.42H93.87z"/>
	<path class="st10" d="M99.47,21.95v-7.42h1.25v3.32l-0.1,1.42l0.04,1.42v1.26H99.47z M102.43,22.02c-0.45,0-0.86-0.1-1.21-0.3
		c-0.35-0.2-0.63-0.5-0.83-0.9c-0.2-0.4-0.31-0.92-0.31-1.54c0-0.63,0.11-1.14,0.32-1.54s0.49-0.7,0.85-0.9
		c0.36-0.2,0.75-0.29,1.19-0.29c0.53,0,0.99,0.11,1.39,0.34s0.72,0.54,0.96,0.95c0.24,0.41,0.36,0.89,0.36,1.44
		s-0.12,1.03-0.36,1.44c-0.24,0.41-0.56,0.73-0.96,0.96C103.42,21.9,102.96,22.02,102.43,22.02z M102.29,20.95
		c0.3,0,0.57-0.07,0.81-0.2c0.24-0.13,0.42-0.33,0.56-0.58c0.14-0.25,0.21-0.55,0.21-0.89c0-0.35-0.07-0.65-0.21-0.9
		c-0.14-0.25-0.33-0.44-0.56-0.57c-0.24-0.13-0.5-0.2-0.81-0.2c-0.3,0-0.57,0.07-0.81,0.2c-0.24,0.13-0.43,0.32-0.57,0.57
		c-0.14,0.25-0.21,0.55-0.21,0.9c0,0.34,0.07,0.64,0.21,0.89c0.14,0.25,0.33,0.45,0.57,0.58C101.72,20.88,101.99,20.95,102.29,20.95
		z"/>
	<path class="st10" d="M106.62,23.96c-0.26,0-0.52-0.04-0.78-0.13c-0.26-0.09-0.48-0.21-0.65-0.36l0.5-0.92
		c0.13,0.11,0.27,0.2,0.43,0.27s0.32,0.1,0.49,0.1c0.23,0,0.41-0.06,0.55-0.17c0.14-0.11,0.27-0.3,0.39-0.57l0.31-0.7l0.1-0.15
		l2.02-4.72h1.2l-2.5,5.77c-0.17,0.4-0.35,0.72-0.56,0.95c-0.2,0.23-0.43,0.4-0.68,0.49C107.2,23.91,106.92,23.96,106.62,23.96z
		 M107.72,22.14l-2.41-5.53h1.3l1.96,4.61L107.72,22.14z"/>
</g>
</svg>
