<?xml version="1.0" encoding="UTF-8"?>
<svg width="452px" height="317px" viewBox="0 0 452 317" version="1.1" xmlns="http://www.w3.org/2000/svg" xmlns:xlink="http://www.w3.org/1999/xlink">
    <title>Group 145</title>
    <defs>
        <filter x="-7.6%" y="-23.4%" width="115.3%" height="146.8%" filterUnits="objectBoundingBox" id="filter-1">
            <feOffset dx="0" dy="10" in="SourceAlpha" result="shadowOffsetOuter1"></feOffset>
            <feGaussianBlur stdDeviation="10" in="shadowOffsetOuter1" result="shadowBlurOuter1"></feGaussianBlur>
            <feColorMatrix values="0 0 0 0 0   0 0 0 0 0   0 0 0 0 0  0 0 0 0.15 0" type="matrix" in="shadowBlurOuter1" result="shadowMatrixOuter1"></feColorMatrix>
            <feMerge>
                <feMergeNode in="shadowMatrixOuter1"></feMergeNode>
                <feMergeNode in="SourceGraphic"></feMergeNode>
            </feMerge>
        </filter>
        <linearGradient x1="50%" y1="0%" x2="50%" y2="100%" id="linearGradient-2">
            <stop stop-color="#030303" stop-opacity="0.245774489" offset="0%"></stop>
            <stop stop-color="#010101" stop-opacity="0" offset="100%"></stop>
        </linearGradient>
        <polygon id="path-3" points="75.2711621 79.1789398 80.0834344 76.7539036 72.4397483 60.4621277 86.1354364 60.4621277 58.7440602 34.7836048 58.814919 71.2885877 68.0466607 62.5437164"></polygon>
        <filter x="-25.6%" y="-11.3%" width="151.1%" height="131.5%" filterUnits="objectBoundingBox" id="filter-4">
            <feOffset dx="0" dy="2" in="SourceAlpha" result="shadowOffsetOuter1"></feOffset>
            <feGaussianBlur stdDeviation="2" in="shadowOffsetOuter1" result="shadowBlurOuter1"></feGaussianBlur>
            <feColorMatrix values="0 0 0 0 0   0 0 0 0 0   0 0 0 0 0  0 0 0 0.5 0" type="matrix" in="shadowBlurOuter1"></feColorMatrix>
        </filter>
    </defs>
    <g id="Page-1" stroke="none" stroke-width="1" fill="none" fill-rule="evenodd">
        <g id="FAV-CARD_Favs_Appear_Hsre" filter="url(#filter-1)" transform="translate(-352.000000, 25.000000)">
            <g id="Group-197" transform="translate(395.208940, 18.635000)">
                <path d="M40.1747284,24.8735629 C91.4919447,-18.8811162 158.00229,1.69978844 190.974611,35.8932599 L190.974611,35.8932599 L206.89507,52.3417782 L222.81553,35.8122327 C261.057863,-3.743164 321.140407,-11.7630586 364.79114,18.1148685 L364.789,210.501 L346.568,229.365 L67.06,229.365 L32.1740916,193.24805 C-12.7894876,146.722242 -10.6253154,69.8600011 38.6666084,26.1867699 Z" id="Combined-Shape" fill="url(#linearGradient-2)" fill-rule="nonzero" opacity="0.248652867"></path>
                <g id="Group-63" transform="translate(148.373794, 64.865000)">
                    <g id="Group-31">
                        <g id="Group-30" opacity="0.114608038" transform="translate(0.000000, 15.000000)" fill-rule="nonzero">
                            <path d="M78.998461,5.25934725 C69.6856731,-2.69020323 55.7592104,-1.37098903 47.1128421,7.57225526 L43.7465683,11.0673162 L40.3802945,7.58938791 C33.4085193,0.359408811 19.3453551,-3.99228477 8.49467558,5.25934725 C-2.23639017,14.4424487 -2.80028375,30.9240598 6.80299483,40.8609979 L39.867664,75.0920364 C40.9271004,76.1885261 42.3282905,76.7539036 43.7294806,76.7539036 C45.1306707,76.7539036 46.5318609,76.2056588 47.5912973,75.0920364 L80.6559664,40.8609979 C90.2934204,30.9240598 89.7295268,14.4424487 78.998461,5.25934725 Z M76.7599744,37.0575492 L43.814919,71.2885877 L10.7331622,37.0575492 C4.17149144,30.273019 2.8044767,17.3378668 12.0489139,9.43971432 C21.4129649,1.42163323 32.4174336,7.22960222 36.4501271,11.4099693 L43.7465683,18.9654688 L51.0430095,11.4099693 C55.0073523,7.29813283 66.1143471,1.47303118 75.4442227,9.43971432 C84.6715722,17.3207342 83.3216452,30.2558864 76.7599744,37.0575492 Z" id="Shape" fill="#000000"></path>
                            <path d="M76.7599744,37.0575492 L43.814919,71.2885877 L10.7331622,37.0575492 C4.17149144,30.273019 2.8044767,17.3378668 12.0489139,9.43971432 C21.4129649,1.42163323 32.4174336,7.22960222 36.4501271,11.4099693 L43.7465683,18.9654688 L51.0430095,11.4099693 C55.0073523,7.29813283 66.1143471,1.47303118 75.4442227,9.43971432 C84.6715722,17.3207342 83.3216452,30.2558864 76.7599744,37.0575492 Z" id="Path" fill="#FFFFFF"></path>
                        </g>
                        <g id="Group-64" transform="translate(15.000000, 0.000000)" fill-rule="nonzero">
                            <path d="M78.998461,5.25934725 C69.6856731,-2.69020323 55.7592104,-1.37098903 47.1128421,7.57225526 L43.7465683,11.0673162 L40.3802945,7.58938791 C33.4085193,0.359408811 19.3453551,-3.99228477 8.49467558,5.25934725 C-2.23639017,14.4424487 -2.80028375,30.9240598 6.80299483,40.8609979 L39.867664,75.0920364 C40.9271004,76.1885261 42.3282905,76.7539036 43.7294806,76.7539036 C45.1306707,76.7539036 46.5318609,76.2056588 47.5912973,75.0920364 L80.6559664,40.8609979 C90.2934204,30.9240598 89.7295268,14.4424487 78.998461,5.25934725 Z M76.7599744,37.0575492 L43.814919,71.2885877 L10.7331622,37.0575492 C4.17149144,30.273019 2.8044767,17.3378668 12.0489139,9.43971432 C21.4129649,1.42163323 32.4174336,7.22960222 36.4501271,11.4099693 L43.7465683,18.9654688 L51.0430095,11.4099693 C55.0073523,7.29813283 66.1143471,1.47303118 75.4442227,9.43971432 C84.6715722,17.3207342 83.3216452,30.2558864 76.7599744,37.0575492 Z" id="Shape" fill="#FFFFFF"></path>
                            <path d="M76.7599744,37.0575492 L43.814919,71.2885877 L10.7331622,37.0575492 C4.17149144,30.273019 2.8044767,17.3378668 12.0489139,9.43971432 C21.4129649,1.42163323 32.4174336,7.22960222 36.4501271,11.4099693 L43.7465683,18.9654688 L51.0430095,11.4099693 C55.0073523,7.29813283 66.1143471,1.47303118 75.4442227,9.43971432 C84.6715722,17.3207342 83.3216452,30.2558864 76.7599744,37.0575492 Z" id="Path" fill="#DA2528"></path>
                        </g>
                        <g id="Group-61" transform="translate(32.279510, 14.363695)" fill="#000000" opacity="0.0847821917">
                            <path d="M17.5739112,36.7712941 C18.6163013,36.5896735 19.6737723,37.0760018 20.210792,38.0079279 C20.7861702,39.0064201 20.62071,40.2676207 19.8073362,41.0832197 L19.8073362,41.0832197 L15.0124171,45.8879895 C14.0143976,46.8523285 12.4293895,46.8380079 11.4489132,45.8557939 C10.4684384,44.8735785 10.4538415,43.2854565 11.4160963,42.2852894 L11.4160963,42.2852894 L16.2110038,37.480508 C16.5259766,37.1632706 16.9193662,36.9355103 17.3509679,36.8205176 L17.3509679,36.8205176 Z M49.3104376,26.5574978 C50.6966965,26.5827012 51.8073604,27.7158067 51.8074935,29.1050082 C51.8076267,30.4942098 50.6971801,31.6275291 49.3109261,31.6529993 L49.3109261,31.6529993 L42.5295878,31.6533067 C42.0829878,31.6544778 41.6440846,31.5368127 41.2577435,31.3123352 L41.2577435,31.3123352 L41.0653608,31.1891861 C40.2001065,30.5790779 39.7955727,29.4859713 40.0735205,28.4465181 C40.3713217,27.3328182 41.3783733,26.5582391 42.5290993,26.5577965 L42.5290993,26.5577965 Z M13.8020275,26.557541 C14.2486274,26.5563699 14.6875307,26.674035 15.0738718,26.8985125 L15.0738718,26.8985125 L15.2662545,27.0216616 C16.1315088,27.6317698 16.5360426,28.7248763 16.2580948,29.7643296 C15.9602935,30.8780295 14.953242,31.6526086 13.802516,31.6530512 L13.802516,31.6530512 L7.02117763,31.6533499 C5.63491873,31.6281465 4.52425489,30.495041 4.52412172,29.1058394 C4.52398855,27.7166378 5.63443511,26.5833186 7.02068916,26.5578484 L7.02068916,26.5578484 Z M41.3191982,12.3228582 C42.3172176,11.3585192 43.9022258,11.3728397 44.882702,12.3550538 C45.8631769,13.3372692 45.8777738,14.9253912 44.915519,15.9255583 L44.915519,15.9255583 L40.1206115,20.7303397 C39.8056387,21.047577 39.4122491,21.2753373 38.9806474,21.3903301 L38.9806474,21.3903301 L38.7577041,21.4395535 C37.715314,21.6211742 36.657843,21.1348459 36.1208233,20.2029198 C35.545445,19.2044276 35.7109053,17.943227 36.524279,17.1276279 L36.524279,17.1276279 Z M11.4483151,12.3556531 C12.4286064,11.3732477 14.0136142,11.3586195 15.0118185,12.3227663 L15.0118185,12.3227663 L19.807159,17.1271135 C20.1237854,17.442694 20.3510985,17.8368573 20.4658651,18.2693081 L20.4658651,18.2693081 L20.5149916,18.4926901 C20.6962545,19.5371311 20.2108782,20.5966838 19.2807787,21.1347618 C18.2842435,21.7112738 17.0255163,21.5454899 16.2115176,20.7305172 L16.2115176,20.7305172 L11.4161774,15.9261697 C10.4537309,14.9261878 10.4680259,13.3380606 11.4483151,12.3556531 Z M28.1654144,5.41725123 C29.5519015,5.41711779 30.6830062,6.52974783 30.7084267,7.91872767 L30.7084267,7.91872767 L30.7087335,14.7134002 C30.7099023,15.1608782 30.5924671,15.6006445 30.3684282,15.9877453 L30.3684282,15.9877453 L30.2455198,16.1805062 C29.6366037,17.0474619 28.5456331,17.4527911 27.5082109,17.1742968 C26.3966872,16.87591 25.6236216,15.8668783 25.6231798,14.7138896 L25.6231798,14.7138896 L25.6228818,7.9192171 C25.6480359,6.53023239 26.7789273,5.41738466 28.1654144,5.41725123 Z" id="Combined-Shape" transform="translate(28.165808, 26.009602) rotate(-15.000000) translate(-28.165808, -26.009602) "></path>
                        </g>
                    </g>
                    <g id="Path-25">
                        <use fill="black" fill-opacity="1" filter="url(#filter-4)" xlink:href="#path-3"></use>
                        <use fill="#000000" fill-rule="evenodd" xlink:href="#path-3"></use>
                    </g>
                </g>
            </g>
        </g>
    </g>
</svg>