<svg width="144" height="27" viewBox="0 0 144 27" fill="none" xmlns="http://www.w3.org/2000/svg">
<rect x="11" y="18" width="124" height="4" fill="#D8D8D8"/>
<circle cx="7" cy="20" r="5" fill="#2DBFB2" stroke="#2DBFB2" stroke-width="4"/>
<circle cx="40" cy="20" r="5" fill="#2DBFB2" stroke="#2DBFB2" stroke-width="4"/>
<circle cx="105" cy="20" r="5" fill="#D8D8D8" stroke="#D8D8D8" stroke-width="4"/>
<circle cx="137" cy="20" r="5" fill="#D8D8D8" stroke="#D8D8D8" stroke-width="4"/>
<rect x="11" y="18" width="65" height="4" fill="#2DBFB2"/>
<circle cx="72" cy="20" r="5" fill="white" stroke="#2DBFB2" stroke-width="4"/>
<path d="M59.992 3.72C60.3387 3.72 60.6427 3.78667 60.904 3.92C61.1707 4.05333 61.3787 4.256 61.528 4.528C61.6773 4.8 61.752 5.144 61.752 5.56V8H60.984V5.648C60.984 5.23733 60.8827 4.928 60.68 4.72C60.4827 4.512 60.2027 4.408 59.84 4.408C59.568 4.408 59.3307 4.46133 59.128 4.568C58.9253 4.67467 58.768 4.832 58.656 5.04C58.5493 5.248 58.496 5.50667 58.496 5.816V8H57.728V3.76H58.464V4.904L58.344 4.6C58.4827 4.32267 58.696 4.10667 58.984 3.952C59.272 3.79733 59.608 3.72 59.992 3.72ZM65.0613 8.048C64.608 8.048 64.208 7.95467 63.8613 7.768C63.52 7.58133 63.2533 7.32533 63.0613 7C62.8746 6.67467 62.7813 6.30133 62.7813 5.88C62.7813 5.45867 62.872 5.08533 63.0533 4.76C63.24 4.43467 63.4933 4.18133 63.8133 4C64.1386 3.81333 64.504 3.72 64.9093 3.72C65.32 3.72 65.6826 3.81067 65.9973 3.992C66.312 4.17333 66.5573 4.42933 66.7333 4.76C66.9146 5.08533 67.0053 5.46667 67.0053 5.904C67.0053 5.936 67.0026 5.97333 66.9973 6.016C66.9973 6.05867 66.9946 6.09867 66.9893 6.136H63.3813V5.584H66.5893L66.2773 5.776C66.2826 5.504 66.2266 5.26133 66.1093 5.048C65.992 4.83467 65.8293 4.66933 65.6213 4.552C65.4186 4.42933 65.1813 4.368 64.9093 4.368C64.6426 4.368 64.4053 4.42933 64.1973 4.552C63.9893 4.66933 63.8266 4.83733 63.7093 5.056C63.592 5.26933 63.5333 5.51467 63.5333 5.792V5.92C63.5333 6.20267 63.5973 6.456 63.7253 6.68C63.8586 6.89867 64.0426 7.06933 64.2773 7.192C64.512 7.31467 64.7813 7.376 65.0853 7.376C65.336 7.376 65.5626 7.33333 65.7653 7.248C65.9733 7.16267 66.1546 7.03467 66.3093 6.864L66.7333 7.36C66.5413 7.584 66.3013 7.75467 66.0133 7.872C65.7306 7.98933 65.4133 8.048 65.0613 8.048ZM69.8558 8.048C69.4931 8.048 69.1731 7.98133 68.8958 7.848C68.6238 7.71467 68.4104 7.512 68.2558 7.24C68.1064 6.96267 68.0318 6.616 68.0318 6.2V3.76H68.7998V6.112C68.7998 6.528 68.8984 6.84 69.0958 7.048C69.2984 7.256 69.5811 7.36 69.9438 7.36C70.2104 7.36 70.4424 7.30667 70.6398 7.2C70.8371 7.088 70.9891 6.928 71.0958 6.72C71.2024 6.50667 71.2558 6.25067 71.2558 5.952V3.76H72.0238V8H71.2958V6.856L71.4158 7.16C71.2771 7.44267 71.0691 7.66133 70.7918 7.816C70.5144 7.97067 70.2024 8.048 69.8558 8.048ZM74.9418 8.048C74.5151 8.048 74.1845 7.93333 73.9498 7.704C73.7151 7.47467 73.5978 7.14667 73.5978 6.72V2.832H74.3658V6.688C74.3658 6.91733 74.4218 7.09333 74.5338 7.216C74.6511 7.33867 74.8165 7.4 75.0298 7.4C75.2698 7.4 75.4698 7.33333 75.6298 7.2L75.8698 7.752C75.7525 7.85333 75.6111 7.928 75.4458 7.976C75.2858 8.024 75.1178 8.048 74.9418 8.048ZM72.8778 4.392V3.76H75.5818V4.392H72.8778ZM76.7983 8V3.76H77.5343V4.912L77.4623 4.624C77.5796 4.33067 77.777 4.10667 78.0543 3.952C78.3316 3.79733 78.673 3.72 79.0783 3.72V4.464C79.0463 4.45867 79.0143 4.456 78.9823 4.456C78.9556 4.456 78.929 4.456 78.9023 4.456C78.4916 4.456 78.1663 4.57867 77.9263 4.824C77.6863 5.06933 77.5663 5.424 77.5663 5.888V8H76.7983ZM82.3444 8V7.104L82.3044 6.936V5.408C82.3044 5.08267 82.2084 4.832 82.0164 4.656C81.8297 4.47467 81.547 4.384 81.1684 4.384C80.9177 4.384 80.6724 4.42667 80.4324 4.512C80.1924 4.592 79.9897 4.70133 79.8244 4.84L79.5044 4.264C79.723 4.088 79.9844 3.95467 80.2884 3.864C80.5977 3.768 80.9204 3.72 81.2564 3.72C81.8377 3.72 82.2857 3.86133 82.6004 4.144C82.915 4.42667 83.0724 4.85867 83.0724 5.44V8H82.3444ZM80.9524 8.048C80.6377 8.048 80.3604 7.99467 80.1204 7.888C79.8857 7.78133 79.7044 7.63467 79.5764 7.448C79.4484 7.256 79.3844 7.04 79.3844 6.8C79.3844 6.57067 79.4377 6.36267 79.5444 6.176C79.6564 5.98933 79.835 5.84 80.0804 5.728C80.331 5.616 80.667 5.56 81.0884 5.56H82.4324V6.112H81.1204C80.7364 6.112 80.4777 6.176 80.3444 6.304C80.211 6.432 80.1444 6.58667 80.1444 6.768C80.1444 6.976 80.227 7.144 80.3924 7.272C80.5577 7.39467 80.787 7.456 81.0804 7.456C81.3684 7.456 81.619 7.392 81.8324 7.264C82.051 7.136 82.2084 6.94933 82.3044 6.704L82.4564 7.232C82.355 7.48267 82.1764 7.68267 81.9204 7.832C81.6644 7.976 81.3417 8.048 80.9524 8.048ZM84.4936 8V2.064H85.2616V8H84.4936Z" fill="#2DBFB2"/>
</svg>
