<svg width="144" height="27" viewBox="0 0 144 27" fill="none" xmlns="http://www.w3.org/2000/svg">
<rect x="11" y="18" width="124" height="4" fill="#D8D8D8"/>
<circle cx="7" cy="20" r="5" fill="#2DBFB2" stroke="#2DBFB2" stroke-width="4"/>
<circle cx="105" cy="20" r="5" fill="#D8D8D8" stroke="#D8D8D8" stroke-width="4"/>
<circle cx="76" cy="20" r="5" fill="#D8D8D8" stroke="#D8D8D8" stroke-width="4"/>
<circle cx="137" cy="20" r="5" fill="#D8D8D8" stroke="#D8D8D8" stroke-width="4"/>
<rect x="10" y="18" width="36" height="4" fill="#2DBFB2"/>
<circle cx="40" cy="20" r="5" fill="white" stroke="#2DBFB2" stroke-width="4"/>
<path d="M24.4878 8.048C24.0771 8.048 23.7091 7.95733 23.3838 7.776C23.0638 7.59467 22.8105 7.34133 22.6238 7.016C22.4371 6.69067 22.3438 6.312 22.3438 5.88C22.3438 5.448 22.4371 5.072 22.6238 4.752C22.8105 4.42667 23.0638 4.17333 23.3838 3.992C23.7091 3.81067 24.0771 3.72 24.4878 3.72C24.8451 3.72 25.1678 3.8 25.4558 3.96C25.7438 4.12 25.9731 4.36 26.1438 4.68C26.3198 5 26.4078 5.4 26.4078 5.88C26.4078 6.36 26.3225 6.76 26.1518 7.08C25.9865 7.4 25.7598 7.64267 25.4718 7.808C25.1838 7.968 24.8558 8.048 24.4878 8.048ZM24.5518 7.376C24.8185 7.376 25.0585 7.31467 25.2718 7.192C25.4905 7.06933 25.6611 6.896 25.7838 6.672C25.9118 6.44267 25.9758 6.17867 25.9758 5.88C25.9758 5.576 25.9118 5.31467 25.7838 5.096C25.6611 4.872 25.4905 4.69867 25.2718 4.576C25.0585 4.45333 24.8185 4.392 24.5518 4.392C24.2798 4.392 24.0371 4.45333 23.8238 4.576C23.6105 4.69867 23.4398 4.872 23.3118 5.096C23.1838 5.31467 23.1198 5.576 23.1198 5.88C23.1198 6.17867 23.1838 6.44267 23.3118 6.672C23.4398 6.896 23.6105 7.06933 23.8238 7.192C24.0371 7.31467 24.2798 7.376 24.5518 7.376ZM25.9998 8V6.856L26.0478 5.872L25.9678 4.888V2.064H26.7358V8H25.9998ZM28.1889 8V3.76H28.9569V8H28.1889ZM28.5729 2.944C28.4236 2.944 28.2983 2.896 28.1969 2.8C28.1009 2.704 28.0529 2.58667 28.0529 2.448C28.0529 2.304 28.1009 2.184 28.1969 2.088C28.2983 1.992 28.4236 1.944 28.5729 1.944C28.7223 1.944 28.8449 1.992 28.9409 2.088C29.0423 2.17867 29.0929 2.29333 29.0929 2.432C29.0929 2.576 29.0449 2.69867 28.9489 2.8C28.8529 2.896 28.7276 2.944 28.5729 2.944ZM31.6393 8.048C31.2873 8.048 30.9513 8 30.6313 7.904C30.3166 7.808 30.0686 7.69067 29.8873 7.552L30.2073 6.944C30.3886 7.06667 30.6126 7.17067 30.8793 7.256C31.146 7.34133 31.418 7.384 31.6953 7.384C32.0526 7.384 32.3086 7.33333 32.4633 7.232C32.6233 7.13067 32.7033 6.98933 32.7033 6.808C32.7033 6.67467 32.6553 6.57067 32.5593 6.496C32.4633 6.42133 32.3353 6.36533 32.1753 6.328C32.0206 6.29067 31.8473 6.25867 31.6553 6.232C31.4633 6.2 31.2713 6.16267 31.0793 6.12C30.8873 6.072 30.7113 6.008 30.5513 5.928C30.3913 5.84267 30.2633 5.728 30.1673 5.584C30.0713 5.43467 30.0233 5.23733 30.0233 4.992C30.0233 4.736 30.0953 4.512 30.2393 4.32C30.3833 4.128 30.586 3.98133 30.8473 3.88C31.114 3.77333 31.4286 3.72 31.7913 3.72C32.0686 3.72 32.3486 3.75467 32.6313 3.824C32.9193 3.888 33.154 3.98133 33.3353 4.104L33.0073 4.712C32.8153 4.584 32.6153 4.496 32.4073 4.448C32.1993 4.4 31.9913 4.376 31.7833 4.376C31.4473 4.376 31.1966 4.432 31.0313 4.544C30.866 4.65067 30.7833 4.78933 30.7833 4.96C30.7833 5.104 30.8313 5.216 30.9273 5.296C31.0286 5.37067 31.1566 5.42933 31.3113 5.472C31.4713 5.51467 31.6473 5.552 31.8393 5.584C32.0313 5.61067 32.2233 5.648 32.4153 5.696C32.6073 5.73867 32.7806 5.8 32.9353 5.88C33.0953 5.96 33.2233 6.072 33.3193 6.216C33.4206 6.36 33.4713 6.552 33.4713 6.792C33.4713 7.048 33.3966 7.26933 33.2473 7.456C33.098 7.64267 32.8873 7.78933 32.6153 7.896C32.3433 7.99733 32.018 8.048 31.6393 8.048ZM37.0631 8V7.104L37.0231 6.936V5.408C37.0231 5.08267 36.9271 4.832 36.7351 4.656C36.5485 4.47467 36.2658 4.384 35.8871 4.384C35.6365 4.384 35.3911 4.42667 35.1511 4.512C34.9111 4.592 34.7085 4.70133 34.5431 4.84L34.2231 4.264C34.4418 4.088 34.7031 3.95467 35.0071 3.864C35.3165 3.768 35.6391 3.72 35.9751 3.72C36.5565 3.72 37.0045 3.86133 37.3191 4.144C37.6338 4.42667 37.7911 4.85867 37.7911 5.44V8H37.0631ZM35.6711 8.048C35.3565 8.048 35.0791 7.99467 34.8391 7.888C34.6045 7.78133 34.4231 7.63467 34.2951 7.448C34.1671 7.256 34.1031 7.04 34.1031 6.8C34.1031 6.57067 34.1565 6.36267 34.2631 6.176C34.3751 5.98933 34.5538 5.84 34.7991 5.728C35.0498 5.616 35.3858 5.56 35.8071 5.56H37.1511V6.112H35.8391C35.4551 6.112 35.1965 6.176 35.0631 6.304C34.9298 6.432 34.8631 6.58667 34.8631 6.768C34.8631 6.976 34.9458 7.144 35.1111 7.272C35.2765 7.39467 35.5058 7.456 35.7991 7.456C36.0871 7.456 36.3378 7.392 36.5511 7.264C36.7698 7.136 36.9271 6.94933 37.0231 6.704L37.1751 7.232C37.0738 7.48267 36.8951 7.68267 36.6391 7.832C36.3831 7.976 36.0605 8.048 35.6711 8.048ZM41.0684 9.6C40.679 9.6 40.3004 9.544 39.9324 9.432C39.5697 9.32533 39.2737 9.17067 39.0444 8.968L39.4124 8.376C39.6097 8.54667 39.8524 8.68 40.1404 8.776C40.4284 8.87733 40.7297 8.928 41.0444 8.928C41.5457 8.928 41.9137 8.81067 42.1484 8.576C42.383 8.34133 42.5004 7.984 42.5004 7.504V6.608L42.5804 5.768L42.5404 4.92V3.76H43.2684V7.424C43.2684 8.17067 43.0817 8.72 42.7084 9.072C42.335 9.424 41.7884 9.6 41.0684 9.6ZM40.9724 7.824C40.5617 7.824 40.1937 7.73867 39.8684 7.568C39.5484 7.392 39.2924 7.14933 39.1004 6.84C38.9137 6.53067 38.8204 6.17333 38.8204 5.768C38.8204 5.35733 38.9137 5 39.1004 4.696C39.2924 4.38667 39.5484 4.14667 39.8684 3.976C40.1937 3.80533 40.5617 3.72 40.9724 3.72C41.335 3.72 41.6657 3.79467 41.9644 3.944C42.263 4.088 42.5004 4.312 42.6764 4.616C42.8577 4.92 42.9484 5.304 42.9484 5.768C42.9484 6.22667 42.8577 6.608 42.6764 6.912C42.5004 7.216 42.263 7.44533 41.9644 7.6C41.6657 7.74933 41.335 7.824 40.9724 7.824ZM41.0604 7.152C41.343 7.152 41.5937 7.09333 41.8124 6.976C42.031 6.85867 42.2017 6.696 42.3244 6.488C42.4524 6.28 42.5164 6.04 42.5164 5.768C42.5164 5.496 42.4524 5.256 42.3244 5.048C42.2017 4.84 42.031 4.68 41.8124 4.568C41.5937 4.45067 41.343 4.392 41.0604 4.392C40.7777 4.392 40.5244 4.45067 40.3004 4.568C40.0817 4.68 39.9084 4.84 39.7804 5.048C39.6577 5.256 39.5964 5.496 39.5964 5.768C39.5964 6.04 39.6577 6.28 39.7804 6.488C39.9084 6.696 40.0817 6.85867 40.3004 6.976C40.5244 7.09333 40.7777 7.152 41.0604 7.152ZM44.7358 8V3.76H45.4718V4.912L45.3998 4.624C45.5171 4.33067 45.7145 4.10667 45.9918 3.952C46.2691 3.79733 46.6105 3.72 47.0158 3.72V4.464C46.9838 4.45867 46.9518 4.456 46.9198 4.456C46.8931 4.456 46.8665 4.456 46.8398 4.456C46.4291 4.456 46.1038 4.57867 45.8638 4.824C45.6238 5.06933 45.5038 5.424 45.5038 5.888V8H44.7358ZM49.8113 8.048C49.358 8.048 48.958 7.95467 48.6113 7.768C48.27 7.58133 48.0033 7.32533 47.8113 7C47.6246 6.67467 47.5313 6.30133 47.5313 5.88C47.5313 5.45867 47.622 5.08533 47.8033 4.76C47.99 4.43467 48.2433 4.18133 48.5633 4C48.8886 3.81333 49.254 3.72 49.6593 3.72C50.07 3.72 50.4326 3.81067 50.7473 3.992C51.062 4.17333 51.3073 4.42933 51.4833 4.76C51.6646 5.08533 51.7553 5.46667 51.7553 5.904C51.7553 5.936 51.7526 5.97333 51.7473 6.016C51.7473 6.05867 51.7446 6.09867 51.7393 6.136H48.1313V5.584H51.3393L51.0273 5.776C51.0326 5.504 50.9766 5.26133 50.8593 5.048C50.742 4.83467 50.5793 4.66933 50.3713 4.552C50.1686 4.42933 49.9313 4.368 49.6593 4.368C49.3926 4.368 49.1553 4.42933 48.9473 4.552C48.7393 4.66933 48.5766 4.83733 48.4593 5.056C48.342 5.26933 48.2833 5.51467 48.2833 5.792V5.92C48.2833 6.20267 48.3473 6.456 48.4753 6.68C48.6086 6.89867 48.7926 7.06933 49.0273 7.192C49.262 7.31467 49.5313 7.376 49.8353 7.376C50.086 7.376 50.3126 7.33333 50.5153 7.248C50.7233 7.16267 50.9046 7.03467 51.0593 6.864L51.4833 7.36C51.2913 7.584 51.0513 7.75467 50.7633 7.872C50.4806 7.98933 50.1633 8.048 49.8113 8.048ZM54.7098 8.048C54.2564 8.048 53.8564 7.95467 53.5098 7.768C53.1684 7.58133 52.9018 7.32533 52.7098 7C52.5231 6.67467 52.4298 6.30133 52.4298 5.88C52.4298 5.45867 52.5204 5.08533 52.7018 4.76C52.8884 4.43467 53.1418 4.18133 53.4618 4C53.7871 3.81333 54.1524 3.72 54.5578 3.72C54.9684 3.72 55.3311 3.81067 55.6458 3.992C55.9604 4.17333 56.2058 4.42933 56.3818 4.76C56.5631 5.08533 56.6538 5.46667 56.6538 5.904C56.6538 5.936 56.6511 5.97333 56.6458 6.016C56.6458 6.05867 56.6431 6.09867 56.6378 6.136H53.0298V5.584H56.2378L55.9258 5.776C55.9311 5.504 55.8751 5.26133 55.7578 5.048C55.6404 4.83467 55.4778 4.66933 55.2698 4.552C55.0671 4.42933 54.8298 4.368 54.5578 4.368C54.2911 4.368 54.0538 4.42933 53.8458 4.552C53.6378 4.66933 53.4751 4.83733 53.3578 5.056C53.2404 5.26933 53.1818 5.51467 53.1818 5.792V5.92C53.1818 6.20267 53.2458 6.456 53.3738 6.68C53.5071 6.89867 53.6911 7.06933 53.9258 7.192C54.1604 7.31467 54.4298 7.376 54.7338 7.376C54.9844 7.376 55.2111 7.33333 55.4138 7.248C55.6218 7.16267 55.8031 7.03467 55.9578 6.864L56.3818 7.36C56.1898 7.584 55.9498 7.75467 55.6618 7.872C55.3791 7.98933 55.0618 8.048 54.7098 8.048Z" fill="#2DBFB2"/>
</svg>
