<?xml version="1.0" encoding="UTF-8"?>
<svg width="157px" height="161px" viewBox="0 0 157 161" version="1.1" xmlns="http://www.w3.org/2000/svg" xmlns:xlink="http://www.w3.org/1999/xlink">
    <title>Combined Shape</title>
    <defs>
        <linearGradient x1="50%" y1="0%" x2="50%" y2="76.6850888%" id="linearGradient-1">
            <stop stop-color="#FFFFFF" offset="0%"></stop>
            <stop stop-color="#FFFFFF" stop-opacity="0" offset="100%"></stop>
        </linearGradient>
    </defs>
    <g id="Page-1" stroke="none" stroke-width="1" fill="none" fill-rule="evenodd" opacity="0.233293806">
        <g id="Artboard" transform="translate(-569.000000, -547.000000)" fill="url(#linearGradient-1)" fill-rule="nonzero">
            <path d="M617.975,723.485052 C637.97659,723.485052 654.630924,737.915159 658.229657,757.000101 L647.736418,757.000246 C644.322674,743.657574 632.292203,733.799421 617.975,733.799421 C603.657797,733.799421 591.627326,743.657574 588.213582,757.000246 L577.720343,757.000101 C581.319076,737.915159 597.97341,723.485052 617.975,723.485052 Z M624.68,742.988585 L624.679,757 L614.249,757 L614.25,742.988585 L624.68,742.988585 Z M715.868,657.473094 L716.146888,657.476916 C721.52104,657.62438 725.851001,662.020829 725.996236,667.477501 L726,667.760672 L726,688.335828 L725.996236,688.618998 C725.851001,694.07567 721.52104,698.472119 716.146888,698.619584 L715.868,698.623405 L715.868,757 L705.735,757 L705.736,719.198561 L690.538,719.198561 L690.537,757 L680.405,757 L680.406,708.910983 L705.736,708.910983 L705.736,698.623405 L644.944,698.623405 L644.944,714.054772 L634.812,714.054772 L634.812,698.623405 L634.533112,698.619584 C629.15896,698.472119 624.828999,694.07567 624.683764,688.618998 L624.68,688.335828 L624.68,667.760672 L624.683764,667.477501 C624.828999,662.020829 629.15896,657.62438 634.533112,657.476916 L634.812,657.473094 L715.868,657.473094 Z M615,648 C615,652.619009 612.461271,656.85799 608.405923,659.010303 L607.033891,659.738487 L607.034559,699.667834 L606.990989,699.667531 C607.019833,699.950517 607.034559,700.236975 607.034559,700.526384 C607.034559,705.900247 601.957321,710.256623 595.694231,710.256623 C589.431141,710.256623 584.353904,705.900247 584.353904,700.526384 C584.353904,695.152522 589.431141,690.796145 595.694231,690.796145 C598.187358,690.796145 600.492578,691.486444 602.364437,692.656435 L602.364345,662.217143 L586.397617,670.692043 C578.576652,674.843294 573.680655,683.018634 573.680655,691.926834 L573.680655,717.411211 L573.637121,717.411265 C573.665941,717.694134 573.680655,717.980474 573.680655,718.269761 C573.680655,723.643624 568.603417,728 562.340327,728 C556.077237,728 551,723.643624 551,718.269761 C551,712.895898 556.077237,708.539522 562.340327,708.539522 C564.833752,708.539522 567.139226,709.229986 569.011205,710.400232 L569.011145,686.895333 C569.011122,677.987163 573.907067,669.811833 581.727981,665.660548 L615,648 Z M715.868,667.760672 L634.812,667.760672 L634.812,688.335828 L715.868,688.335828 L715.868,667.760672 Z M717.115077,642.296362 C719.355688,642.296362 721.172063,643.962989 721.172063,646.018876 L721.172063,648.810762 C721.172063,649.324734 720.717969,649.74139 720.157816,649.74139 L632.932627,649.74139 C632.372474,649.74139 631.91838,649.324734 631.91838,648.810762 L631.91838,646.018876 C631.91838,643.962989 633.734755,642.296362 635.975366,642.296362 L717.115077,642.296362 Z M676.545221,567.846079 C698.72742,567.846079 716.709379,584.596679 716.709379,605.259896 L716.709379,632.587229 C716.709379,634.660015 714.905531,636.34034 712.680372,636.34034 L640.410071,636.34034 C638.184912,636.34034 636.381064,634.660015 636.381064,632.587229 L636.381064,605.259896 C636.381064,584.596679 654.363023,567.846079 676.545221,567.846079 Z M663.157169,605.071221 L654.231801,605.071221 L654.231801,634.851334 L663.157169,634.851334 L663.157169,605.071221 Z M718.590038,560.683362 L723.837593,565.458306 C724.250383,565.83483 724.250383,566.444329 723.837593,566.820853 L714.842541,575.008193 C714.643698,575.189329 714.373875,575.291108 714.092512,575.291108 C713.811148,575.291108 713.541326,575.189329 713.342482,575.008193 L708.094927,570.233249 C707.895862,570.052315 707.78401,569.806793 707.78401,569.55077 C707.78401,569.294747 707.895862,569.049226 708.094927,568.868291 L717.091304,560.683362 C717.505247,560.306947 718.176094,560.306947 718.590038,560.683362 Z M635.250282,560.401051 C635.531669,560.401051 635.801513,560.502837 636.000372,560.683988 L644.996153,568.86958 C645.409859,569.246272 645.409859,569.85675 644.996153,570.233443 L639.748173,575.008773 C639.334196,575.385219 638.663295,575.385219 638.249318,575.008773 L629.253537,566.823182 C628.839831,566.446489 628.839831,565.836011 629.253537,565.459319 L634.501517,560.683988 L634.500192,560.683988 C634.699052,560.502837 634.968896,560.401051 635.250282,560.401051 Z M679.850913,547 C680.489903,547 681.007906,547.428561 681.007906,547.957218 L681.007906,559.443833 C681.007906,559.97249 680.489903,560.401051 679.850913,560.401051 L671.751968,560.401051 C671.112979,560.401051 670.594976,559.97249 670.594976,559.443833 L670.594976,547.957218 C670.594976,547.428561 671.112979,547 671.751968,547 L679.850913,547 Z" id="Combined-Shape"></path>
        </g>
    </g>
</svg>