<?xml version="1.0" encoding="UTF-8"?>
<svg width="277px" height="362px" viewBox="0 0 277 362" version="1.1" xmlns="http://www.w3.org/2000/svg" xmlns:xlink="http://www.w3.org/1999/xlink">
    <title>Group 27</title>
    <defs>
        <filter x="-16.4%" y="-11.9%" width="132.9%" height="123.8%" filterUnits="objectBoundingBox" id="filter-1">
            <feOffset dx="0" dy="-4" in="SourceAlpha" result="shadowOffsetOuter1"></feOffset>
            <feGaussianBlur stdDeviation="7.5" in="shadowOffsetOuter1" result="shadowBlurOuter1"></feGaussianBlur>
            <feColorMatrix values="0 0 0 0 0   0 0 0 0 0   0 0 0 0 0  0 0 0 0.208615603 0" type="matrix" in="shadowBlurOuter1" result="shadowMatrixOuter1"></feColorMatrix>
            <feMerge>
                <feMergeNode in="shadowMatrixOuter1"></feMergeNode>
                <feMergeNode in="SourceGraphic"></feMergeNode>
            </feMerge>
        </filter>
    </defs>
    <g id="Page-1" stroke="none" stroke-width="1" fill="none" fill-rule="evenodd">
        <g id="Artboard-Copy" transform="translate(-911.000000, -212.000000)">
            <g id="Group-20" transform="translate(0.000000, 24.000000)">
                <g id="Group-27" transform="translate(938.599154, 215.400846)">
                    <g id="Group-13">
                        <g id="Group-5" transform="translate(111.057562, 153.656716) rotate(-90.000000) translate(-111.057562, -153.656716) translate(-42.599154, 42.599154)">
                            <g id="Group" filter="url(#filter-1)" transform="translate(153.656716, 111.057562) rotate(-90.000000) translate(-153.656716, -111.057562) translate(42.599154, -42.599154)">
                                <path d="M190.712641,0.792044928 C190.95309,0.321768252 191.44224,1.58563217e-14 192.006772,1.58563217e-14 C194.813473,1.58563217e-14 200.952892,1.58563217e-14 203.759594,1.58563217e-14 C204.324125,1.58563217e-14 204.813276,0.321768252 205.053725,0.792044928 L205.315082,0.792044928 C209.560624,0.792044928 213.632294,2.47789056 216.634326,5.47886079 C219.636357,8.47983102 221.322799,12.5500619 221.322799,16.7941026 L221.322799,24.1837718 C221.793242,24.4241354 222.115124,24.9131132 222.115124,25.4774452 C222.115124,27.9668864 222.115124,33.0205731 222.115124,35.5100143 C222.115124,36.0743463 221.793242,36.563324 221.322799,36.8036877 L221.322799,39.7606554 C221.793242,40.001019 222.115124,40.4899968 222.115124,41.0543288 C222.115124,43.5938228 222.115124,48.8114188 222.115124,51.3509129 C222.115124,51.9152449 221.793242,52.4042226 221.322799,52.6445862 L221.322799,291.311375 C221.322799,295.555415 219.636357,299.625646 216.634326,302.626616 C213.632294,305.627587 209.560624,307.313432 205.315082,307.313432 C164.488332,307.313432 56.8344667,307.313432 16.0077173,307.313432 C11.7621755,307.313432 7.69050508,305.627587 4.68847348,302.626616 C1.68644187,299.625646 0,295.555415 0,291.311375 C0,238.432475 0,69.6730022 0,16.7941026 C0,12.5500619 1.68644187,8.47983102 4.68847348,5.47886079 C7.69050508,2.47789056 11.7621755,0.792044928 16.0077173,0.792044928 L190.712641,0.792044928" id="Fill-14" fill="#DADADA"></path>
                                <path d="M219.812429,17.0553675 C219.812429,13.1622466 218.265745,9.42863484 215.511865,6.67572868 C212.757985,3.92282252 209.023053,2.37613479 205.128555,2.37613479 C165.330728,2.37613479 55.7279628,2.37613479 15.9301354,2.37613479 C12.0356377,2.37613479 8.30070542,3.92282252 5.54682562,6.67572868 C2.79294582,9.42863484 1.24626129,13.1622466 1.24626129,17.0553675 C1.24626129,68.5465383 1.24626129,239.426931 1.24626129,290.918102 C1.24626129,294.811223 2.79294582,298.544835 5.54682562,301.297741 C8.30070542,304.050647 12.0356377,305.597335 15.9301354,305.597335 C55.7279628,305.597335 165.330728,305.597335 205.128555,305.597335 C209.023053,305.597335 212.757985,304.050647 215.511865,301.297741 C218.265745,298.544835 219.812429,294.811223 219.812429,290.918102 C219.812429,239.426931 219.812429,68.5465383 219.812429,17.0553675" id="Fill-15" fill="#FFFFFF"></path>
                                <path d="M210.630361,17.6395346 C210.630361,14.0578371 207.715071,11.1546327 204.118464,11.1546327 C173.882179,11.1546327 47.3785436,11.1546327 17.1422581,11.1546327 C13.5456509,11.1546327 10.6303612,14.0578371 10.6303612,17.6395346 C10.6303612,55.8677101 10.6303612,251.441555 10.6303612,289.669731 C10.6303612,293.251428 13.5456509,296.154633 17.1422581,296.154633 C47.3785436,296.154633 173.882179,296.154633 204.118464,296.154633 C207.715071,296.154633 210.630361,293.251428 210.630361,289.669731 C210.630361,251.441555 210.630361,55.8677101 210.630361,17.6395346" id="Fill-16" fill="#D0D0D0"></path>
                                <path d="M110.529345,4.75226957 C111.440519,4.75226957 112.180023,5.4915115 112.180023,6.40236317 C112.180023,7.31321484 111.440519,8.05245677 110.529345,8.05245677 C109.618172,8.05245677 108.878668,7.31321484 108.878668,6.40236317 C108.878668,5.4915115 109.618172,4.75226957 110.529345,4.75226957" id="Fill-18" fill="#DADADA"></path>
                            </g>
                        </g>
                        <g id="Group-12" transform="translate(11.400846, 11.599154)">
                            <path d="M193.488103,0 C163.251818,0 36.7481824,0 6.51189689,0 C2.91528971,0 0,2.90320439 0,6.48490185 C0,44.7130774 0,240.286923 0,278.515098 C0,282.096796 2.91528971,285 6.51189689,285 C36.7481824,285 163.251818,285 193.488103,285 C197.08471,285 200,282.096796 200,278.515098 C200,240.286923 200,44.7130774 200,6.48490185 C200,2.90320439 197.08471,0 193.488103,0 Z" id="Fill-16" fill="#000000"></path>
                            <g id="Group-9" transform="translate(0.000000, 104.000000)">
                                <g id="Group-8" transform="translate(29.469626, 36.000000)" fill="#FFFFFF" fill-rule="nonzero" opacity="0.672758557">
                                    <path d="M1.13686838e-13,3.5 C1.13686838e-13,5.43320312 1.56679688,7 3.5,7 C5.43320313,7 7,5.43320312 7,3.5 C7,1.56679688 5.43320313,0 3.5,0 C1.56679688,0 1.13686838e-13,1.56679687 1.13686838e-13,3.5 Z M3.27257085,5.28817689 C3.13937247,5.41676155 2.92398785,5.41676155 2.79220648,5.28817689 C2.6604251,5.15959222 2.6590081,4.95166809 2.79220648,4.82445134 L4.025,3.63435924 L2.79220648,2.44426714 C2.6590081,2.31568248 2.6590081,2.10775834 2.79220648,1.9805416 C2.92540486,1.85332486 3.14078947,1.85195693 3.27257085,1.9805416 L4.74625506,3.40044459 C4.87945344,3.52902925 4.87945344,3.73695339 4.74625506,3.86417013 L3.27257085,5.28817689 Z" id="Shape" transform="translate(3.500000, 3.500000) scale(-1, 1) translate(-3.500000, -3.500000) "></path>
                                    <path d="M134.186916,3.5 C134.186916,5.43320312 135.753713,7 137.686916,7 C139.620119,7 141.186916,5.43320312 141.186916,3.5 C141.186916,1.56679688 139.620119,0 137.686916,0 C135.753713,0 134.186916,1.56679687 134.186916,3.5 Z M137.459487,5.28817689 C137.326289,5.41676155 137.110904,5.41676155 136.979123,5.28817689 C136.847341,5.15959222 136.845924,4.95166809 136.979123,4.82445134 L138.211916,3.63435924 L136.979123,2.44426714 C136.845924,2.31568248 136.845924,2.10775834 136.979123,1.9805416 C137.112321,1.85332486 137.327706,1.85195693 137.459487,1.9805416 L138.933171,3.40044459 C139.06637,3.52902925 139.06637,3.73695339 138.933171,3.86417013 L137.459487,5.28817689 Z" id="Shape"></path>
                                </g>
                                <path d="M0,0 L17.1261678,0 C19.3353068,1.55629733e-15 21.1261678,1.790861 21.1261678,4 L21.1261678,73 C21.1261678,75.209139 19.3353068,77 17.1261678,77 L0,77 L0,77 L0,0 Z" id="Rectangle" fill="#575757" opacity="0.675455729"></path>
                                <path d="M179,0 L196.126168,0 C198.335307,1.55629733e-15 200.126168,1.790861 200.126168,4 L200.126168,73 C200.126168,75.209139 198.335307,77 196.126168,77 L179,77 L179,77 L179,0 Z" id="Rectangle" fill="#575757" opacity="0.675455729" transform="translate(189.563084, 38.500000) scale(-1, 1) translate(-189.563084, -38.500000) "></path>
                            </g>
                            <g id="Group-11" transform="translate(8.000000, 8.000000)" fill="#FFFFFF">
                                <g id="old-instagram">
                                    <path d="M1.44172338,0.0260651587 C0.866846185,0.268642412 0.237454778,0.951359835 0.0392212636,1.80913301 C-0.213526467,2.89447865 0.834633239,3.3521244 0.921360401,3.20207661 C1.02047716,3.02702086 0.733038563,2.96700175 0.673568509,2.40182176 C0.599230941,1.6765908 0.933749996,0.861331164 1.35499621,0.506218072 C1.43428962,0.438696568 1.42933378,0.531226036 1.42933378,0.701280193 L1.41446627,4.31743182 C1.41446627,5.09267871 1.38225332,5.33525596 1.32526119,5.57783322 C1.26826905,5.82291126 1.17658605,5.98796383 1.24348986,6.05298454 C1.32278327,6.12300684 1.65978024,5.95295268 1.85305792,5.67786507 C2.07389461,5.33791153 2.18868931,4.93895378 2.18262113,4.53250031 C2.19996657,4.01733625 2.19748865,3.19957582 2.19996657,2.73442768 C2.19996657,2.30929229 2.20740032,1.05639328 2.19253281,0.303653562 C2.18757697,0.118594626 1.67960359,-0.0739666981 1.44172338,0.0285659552 L1.44172338,0.0260651587 Z M21.7928715,3.64721838 C21.7849646,3.97163911 21.7107272,4.29091229 21.5748146,4.58501704 C21.3641915,5.01515402 20.923122,5.14769623 20.7348001,4.52999951 C20.6356834,4.19489279 20.6282496,3.6322136 20.7025872,3.16206387 C20.7769248,2.68691255 20.9850699,2.32429707 21.3295007,2.35680742 C21.6714535,2.38931778 21.8300403,2.83195874 21.7928715,3.64721838 L21.7928715,3.64721838 Z M16.0564892,6.14301321 C16.0515334,6.81072585 15.9474608,7.39591221 15.7244481,7.56846717 C15.4047965,7.80854362 14.9810724,7.62598548 15.0677995,7.13833018 C15.144615,6.7081932 15.513825,6.26805303 16.0589671,5.727881 L16.0564892,6.14301321 L16.0564892,6.14301321 Z M15.969762,3.64221678 C15.955264,3.96735975 15.8813363,4.28699674 15.7517052,4.58501704 C15.5410821,5.01515402 15.0975346,5.14769623 14.9116907,4.52999951 C14.7877947,4.10736492 14.8175297,3.5621913 14.8794777,3.21708139 C14.961249,2.77193963 15.1570046,2.35680742 15.5063912,2.35680742 C15.848344,2.35680742 16.0168425,2.73192689 15.969762,3.64221678 L15.969762,3.64221678 Z M12.6468728,3.63721519 C12.6405908,3.96558154 12.5671992,4.28910243 12.4312938,4.58751783 C12.2132369,5.01265322 11.7796011,5.14769623 11.5888014,4.52999951 C11.4525158,4.08735855 11.4995963,3.47966502 11.5565884,3.15456148 C11.6408377,2.66690618 11.8539387,2.32429707 12.1835019,2.35430663 C12.5254547,2.38931778 12.6889974,2.82945795 12.6468728,3.63721519 Z M27.8736846,4.08985934 C27.7919132,4.08985934 27.7522665,4.17738722 27.7225315,4.32243341 C27.6135031,4.82759429 27.4995188,4.94263092 27.3508437,4.94263092 C27.187301,4.94263092 27.0386259,4.69255128 26.9989792,4.192392 C26.9692442,3.79726616 26.9742,3.0720352 27.0138467,2.34930503 C27.0212804,2.20175805 26.9791558,2.05671185 26.5851667,1.91166566 C26.4166682,1.84914575 26.1688763,1.75661628 26.0474583,2.05671185 C25.8020839,2.62771179 25.6289198,3.22761897 25.5320512,3.8422805 C25.5320512,3.85728528 25.5122278,3.85978607 25.507272,3.82727572 C25.4899266,3.60970643 25.4428461,3.2120798 25.4378903,2.37931459 C25.4378903,2.21676282 25.4031994,2.07921902 25.2247892,1.96668318 C25.108327,1.89165929 24.7589405,1.76411867 24.6300887,1.91666725 C24.5235382,2.04170707 24.3971643,2.38431618 24.2658346,2.78694441 L24.0824686,3.33711962 L24.0849465,2.11673097 C24.0849465,1.99169115 24.0006973,1.94917761 23.9734402,1.94167522 C23.8280617,1.89641884 23.6786938,1.86543196 23.5274148,1.84914575 C23.4084747,1.84914575 23.3787396,1.91666725 23.3787396,2.01669911 C23.3787396,2.02920309 23.3589163,3.17956945 23.3589163,3.98482589 L23.3589163,4.09986253 C23.2920125,4.4699804 23.0764335,4.97264048 22.8410312,4.97264048 C22.6056289,4.97264048 22.4941226,4.76257358 22.4941226,3.80226776 C22.4941226,3.24208936 22.511468,2.9995121 22.5189018,2.59438308 C22.5238576,2.35930822 22.5337693,2.18175167 22.5337693,2.14173893 C22.5312914,2.01669911 22.3181903,1.9541792 22.2190736,1.92917124 C22.1199568,1.90666407 22.0307517,1.89666088 21.9638479,1.90166248 C21.8647312,1.90666407 21.7978274,1.96918398 21.7978274,2.05671185 L21.7978274,2.19425566 C21.6908878,2.02354995 21.5316772,1.89272262 21.3443682,1.82163699 C20.9875479,1.71410274 20.61586,1.80913301 20.3358552,2.20425884 C20.0941649,2.55318113 19.9518959,2.96230468 19.9245206,3.38713555 C19.8848739,3.76225501 19.8997415,4.13987527 19.9666453,4.46247801 C19.8848739,4.8225927 19.728765,4.97264048 19.5602666,4.97264048 C19.3149526,4.97264048 19.1390203,4.56751146 19.1588437,3.87229006 C19.1737112,3.41214351 19.2629163,3.08954078 19.362033,2.62439264 C19.4041577,2.42432893 19.3719447,2.32429707 19.2852176,2.22426521 C19.2059242,2.13173575 19.0374257,2.08422061 18.7921117,2.14173893 C18.6186574,2.18175167 18.3708655,2.22676601 18.1478528,2.25927636 C18.1478528,2.25927636 18.1602424,2.20675964 18.172632,2.10922858 C18.2296241,1.6015669 17.682004,1.64157965 17.5060718,1.80413141 C17.4019992,1.90166248 17.3326174,2.01419831 17.3028824,2.22176442 C17.2607578,2.54686795 17.5258951,2.69941653 17.5258951,2.69941653 C17.3556153,3.34853134 17.0701711,3.961124 16.6834027,4.50749235 L16.6834027,4.3324366 C16.6809248,3.492169 16.6908364,2.83195874 16.6957923,2.59438308 C16.7007481,2.35930822 16.7106598,2.18675327 16.7106598,2.14423973 C16.7106598,2.05421106 16.6561456,2.01919991 16.5471171,1.97668637 C16.4480004,1.93667362 16.3340161,1.91166566 16.215076,1.90166248 C16.0664009,1.88915849 15.9747179,1.96918398 15.9771958,2.06421424 L15.9771958,2.19425566 C15.8697582,2.02300266 15.7095747,1.8920912 15.5212587,1.82163699 C15.1644384,1.71410274 14.7927505,1.80913301 14.5127457,2.20425884 C14.2797105,2.55667249 14.1382588,2.96258591 14.1014112,3.38463475 C14.0642424,3.77725979 14.0691982,4.10986572 14.1237124,4.39495651 C14.0667203,4.6775465 13.9031777,4.97013968 13.7198117,4.97013968 C13.4844094,4.97013968 13.3481238,4.76257358 13.3481238,3.80226776 C13.3481238,3.24208936 13.3654692,2.9995121 13.372903,2.59438308 C13.3778588,2.35930822 13.3877705,2.18175167 13.3877705,2.14173893 C13.3877705,2.01669911 13.1721916,1.9541792 13.0730748,1.92917124 C12.9690022,1.90416327 12.8773192,1.89666088 12.8104154,1.90416327 C12.7187324,1.90916486 12.6543065,1.99169115 12.6543065,2.05421106 L12.6543065,2.19425566 C12.546869,2.02300266 12.3866854,1.8920912 12.1983694,1.82163699 C11.8415491,1.71410274 11.4723392,1.8116338 11.1898564,2.20425884 C11.0040125,2.46184087 10.8553374,2.74693167 10.7785219,3.37963316 C10.7577126,3.54886158 10.7477802,3.71927207 10.7487869,3.88979563 C10.6744493,4.34243978 10.3498419,4.86510623 10.0847046,4.86510623 C9.9285957,4.86510623 9.77992056,4.56250987 9.77992056,3.91480359 C9.77992056,3.05202883 9.83443478,1.82413779 9.84186853,1.70660035 L10.2432914,1.69909796 C10.4117899,1.69909796 10.5629429,1.70159876 10.7859556,1.68909478 C10.897462,1.68409319 11.0040125,1.27896417 10.8900282,1.22894824 C10.8379919,1.20644107 10.468782,1.1864347 10.3201069,1.1839339 C10.1962109,1.18143311 9.85425813,1.15642514 9.85425813,1.15642514 C9.85425813,1.15642514 9.88647108,0.341165508 9.89390483,0.25613843 C9.89886067,0.181114537 9.80717767,0.146103387 9.75266345,0.123596219 C9.63035592,0.0739141229 9.50331539,0.0370422856 9.37354186,0.0135611766 C9.18522002,-0.0239507697 9.10097078,0.0135611766 9.08362534,0.173612148 C9.05884615,0.416189401 9.04645656,1.12891638 9.04645656,1.12891638 C8.9076931,1.12891638 8.43441058,1.10140762 8.29812504,1.10140762 C8.16927326,1.10140762 8.0305098,1.65658443 8.20891996,1.66408682 L9.00185402,1.68659398 L8.99442026,3.31961405 L8.99442026,3.43715148 C8.86309056,4.1198689 8.40715348,4.48748598 8.40715348,4.48748598 C8.50627023,4.03734262 8.30308088,3.6997351 7.94378264,3.41214351 C7.80997502,3.30711006 7.54731561,3.10704635 7.25244326,2.88697627 C7.25244326,2.88697627 7.42341966,2.71692211 7.57457272,2.3768138 C7.68112323,2.13673734 7.68607907,1.86164973 7.42341966,1.80163062 C6.98978385,1.69909796 6.63048561,2.01919991 6.52393509,2.36430981 C6.439188,2.59202381 6.48693939,2.84840665 6.64783104,3.02952166 L6.68499982,3.07703679 C6.58588307,3.26709732 6.45207544,3.52217856 6.33809117,3.72224227 C6.02339547,4.27241748 5.78303733,4.71005686 5.60214925,4.71005686 C5.45842995,4.71005686 5.46090787,4.26741589 5.46090787,3.85228368 C5.46090787,3.4946698 5.48568706,2.95699857 5.50798833,2.40182176 C5.51542209,2.21676282 5.42373909,2.11172937 5.27010812,2.01669911 C5.14794461,1.93141029 5.00956406,1.87265168 4.86372941,1.84414416 C4.69027509,1.84414416 4.1946913,1.86915212 3.72388671,3.23708776 C3.66689457,3.40964272 3.55043238,3.72224227 3.55043238,3.72224227 L3.56034406,2.07921902 C3.56034406,2.03920628 3.54052071,2.00419513 3.49344025,1.97918716 C3.34555981,1.89984892 3.1824066,1.85377838 3.01520189,1.84414416 C2.92599681,1.84414416 2.88139427,1.8866577 2.88139427,1.96918398 L2.86404884,4.54500429 C2.86404884,4.74006641 2.86900468,4.96763889 2.88882803,5.06767075 C2.90865138,5.1677026 2.93838641,5.24772809 2.97803311,5.29524322 C3.01520189,5.34525915 3.05980443,5.3802703 3.13166408,5.39527508 C3.20104581,5.41027985 3.57273365,5.45779499 3.592557,5.31524959 C3.61733619,5.14269464 3.61733619,4.9576357 3.81309179,4.26491509 C4.1153979,3.18707184 4.51186493,2.65940379 4.70018676,2.47434486 C4.73239971,2.43933371 4.76956849,2.43933371 4.76709057,2.49185043 L4.71257636,3.82227413 C4.66301798,5.16520181 4.90585403,5.41278065 5.25028476,5.41278065 C5.51542209,5.41278065 5.88958785,5.14769623 6.29101071,4.47748279 L6.96004882,3.3521244 L7.35156001,3.71724068 C7.66873364,4.01733625 7.77280623,4.30742863 7.7034245,4.58001544 C7.6513882,4.78758155 7.45067677,5.00515083 7.09881228,4.79508394 C6.99473969,4.73256402 6.95013715,4.68504889 6.84854247,4.61752739 C6.79155034,4.58001544 6.70730109,4.56751146 6.6552648,4.6075242 C6.52393509,4.70755606 6.44711961,4.83759747 6.40499498,4.99514765 C6.36287036,5.14769623 6.51650134,5.23022251 6.67508815,5.30024481 C6.81137369,5.36276472 7.10624604,5.41778224 7.29456788,5.42528463 C8.02307604,5.4502926 8.60786491,5.07017154 9.01424361,4.08985934 C9.08858118,4.93512853 9.39832105,5.41528145 9.93602945,5.41528145 C10.2953277,5.41528145 10.6571039,4.94513172 10.8156907,4.48498518 C10.8602932,4.67254491 10.927197,4.83509668 11.0139242,4.97514128 C11.4302146,5.63785233 12.2355382,5.49280614 12.639439,4.93012694 C12.7633349,4.75757199 12.7831583,4.69505208 12.7831583,4.69505208 C12.8082084,5.0872003 13.1226149,5.39695464 13.5116665,5.41278065 C13.7842375,5.41278065 14.0642424,5.28273924 14.2624759,4.83509668 C14.2847772,4.88511261 14.3120343,4.93012694 14.3368135,4.97514128 C14.7531038,5.63785233 15.5584275,5.49280614 15.9623283,4.93012694 L16.0118867,4.86010464 L16.0242763,5.21021614 L15.6525884,5.55282525 C15.0281528,6.12800843 14.5523924,6.5656478 14.5177015,7.07581027 C14.473099,7.72601734 14.9959399,7.9660938 15.3924069,7.99860415 C15.79621,8.01888439 16.1792562,7.81698109 16.3934862,7.47093611 C16.5867639,7.18334452 16.7156156,6.56314701 16.705704,5.95045188 L16.6908364,5.06016836 C17.2843887,4.36746199 17.7403521,3.56597974 18.0338685,2.69941653 C18.0338685,2.69941653 18.264315,2.70191733 18.5096289,2.68691255 C18.5889223,2.68191096 18.6112236,2.69691574 18.5963561,2.75443405 C18.5790107,2.82445635 18.2866162,3.96481952 18.5542315,4.72506164 C18.7375975,5.24522729 19.148932,5.41278065 19.3967239,5.41278065 C19.6816846,5.41278065 19.9567336,5.19521136 20.1029308,4.87010783 L20.1599229,4.97514128 C20.5762133,5.63785233 21.3790591,5.49280614 21.7854378,4.93012694 C21.8771208,4.80508712 21.9291571,4.69505208 21.9291571,4.69505208 C22.0183621,5.24522729 22.4420863,5.41528145 22.6849223,5.41528145 C22.9376701,5.41528145 23.1805061,5.310248 23.3737838,4.84509986 C23.3812175,5.05016517 23.3936071,5.21771853 23.4134305,5.27023526 C23.4258201,5.30274561 23.4976797,5.34525915 23.552194,5.36276472 C23.7826404,5.4477918 24.0180427,5.40777906 24.1072478,5.39027348 C24.1667178,5.3777695 24.2137983,5.32775357 24.2212321,5.20271375 C24.2385775,4.87010783 24.2286658,4.31243023 24.3277826,3.89979882 C24.4938031,3.20207661 24.649912,2.9319906 24.7242496,2.79944839 C24.7663742,2.7244245 24.8134547,2.71192052 24.8159326,2.791946 C24.8184105,2.95199697 24.8258443,3.4221467 24.8902702,4.05484819 C24.9398286,4.51999633 25.0042544,4.79508394 25.0513349,4.88011101 C25.1925763,5.13019066 25.3660306,5.14269464 25.5047941,5.14269464 C25.5939991,5.14269464 25.782321,5.11768667 25.7649756,4.9601365 C25.7575418,4.88261181 25.7699314,4.40495969 25.9384299,3.71974147 C26.0449804,3.27209891 26.2233906,2.86947069 26.2878164,2.71942291 C26.3125956,2.66690618 26.3249852,2.70941972 26.3249852,2.71942291 C26.3101177,3.02452007 26.2803827,4.03234103 26.4042786,4.58501704 C26.5727771,5.33025437 27.0609272,5.41528145 27.2319036,5.41528145 C27.5961576,5.41528145 27.8935079,5.13519225 27.9926247,4.4024589 C28.0174039,4.22740315 27.9802351,4.08985934 27.8736846,4.08985934 L27.8736846,4.08985934 Z" id="Shape"></path>
                                </g>
                                <path d="M181.704934,3.99964483 L183.853214,1.85636037 C184.049118,1.66045609 184.049118,1.34283249 183.853214,1.14692821 C183.65731,0.95102393 183.339686,0.95102393 183.143782,1.14692821 L181.000497,3.29520868 L178.857213,1.14692821 C178.661309,0.951023935 178.343685,0.951023937 178.147781,1.14692822 C177.951877,1.34283249 177.951877,1.66045608 178.147781,1.85636037 L180.296061,3.99964483 L178.147781,6.1429293 C178.0532,6.23673752 178,6.36443324 178,6.49764538 C178,6.63085752 178.0532,6.75855325 178.147781,6.85236146 C178.241589,6.94694208 178.369285,7.00014233 178.502497,7.00014233 C178.635709,7.00014233 178.763405,6.94694208 178.857213,6.85236146 L181.000497,4.70408099 L183.143782,6.85236146 C183.23759,6.94694208 183.365286,7.00014233 183.498498,7.00014233 C183.63171,7.00014233 183.759406,6.94694208 183.853214,6.85236146 C183.947795,6.75855325 184.000995,6.63085752 184.000995,6.49764538 C184.000995,6.36443324 183.947795,6.23673752 183.853214,6.1429293 L181.704934,3.99964483 Z" id="Path" fill-rule="nonzero"></path>
                            </g>
                        </g>
                    </g>
                    <rect id="Rectangle" fill="#414141" x="56.400846" y="60.599154" width="110.5" height="188"></rect>
                </g>
            </g>
        </g>
    </g>
</svg>