<?xml version="1.0" encoding="UTF-8"?>
<svg width="45px" height="48px" viewBox="0 0 45 48" version="1.1" xmlns="http://www.w3.org/2000/svg" xmlns:xlink="http://www.w3.org/1999/xlink">
    <title>Path</title>
    <g id="Page-1" stroke="none" stroke-width="1" fill="none" fill-rule="evenodd">
        <g id="Artboard-Copy" transform="translate(-551.000000, -327.000000)" fill="#FFFFFF" fill-rule="nonzero">
            <g id="Group-22" transform="translate(542.432340, 318.208524)">
                <path d="M32.4701403,38.1807882 L26.5676596,38.1807882 L26.5676596,30.927743 L32.4701403,30.927743 L32.4701403,25.5788923 C32.4701403,19.3714883 36.0429221,15.9914756 41.2618344,15.9914756 L41.5600431,15.9924042 L42.1445493,15.9994788 L42.7101753,16.0127248 L43.5153425,16.0421033 L44.4892345,16.0940766 L45.1291629,16.1385345 L45.8386581,16.1990673 L46.454032,16.266147 L46.5364096,16.2772399 L46.5364096,22.7642858 L42.9166197,22.7660864 C40.1619617,22.7660864 39.5632885,24.1141308 39.5304554,26.113462 L39.5289851,30.927743 L46.2979752,30.927743 L45.4165318,38.1807882 L39.5289851,38.1807882 L39.5289851,56.7914756 L51.0840796,56.7914756 C52.4555286,56.7914756 53.5676596,55.6052114 53.5676596,54.1423439 L53.5676596,11.4407872 C53.5676596,9.97738018 52.4555286,8.79147565 51.0840796,8.79147565 L11.0512392,8.79147565 C9.67928487,8.79147565 8.56765957,9.97738018 8.56765957,11.4407872 L8.56765957,54.1423439 C8.56765957,55.6052114 9.67928487,56.7914756 11.0512392,56.7914756 L32.4701403,56.7914756 L32.4701403,38.1807882 Z" id="Path"></path>
            </g>
        </g>
    </g>
</svg>