<?xml version="1.0" encoding="UTF-8"?>
<svg width="43px" height="48px" viewBox="0 0 43 48" version="1.1" xmlns="http://www.w3.org/2000/svg" xmlns:xlink="http://www.w3.org/1999/xlink">
    <title>tiktok-logo-white</title>
    <g id="Page-1" stroke="none" stroke-width="1" fill="none" fill-rule="evenodd">
        <g id="Artboard-Copy" transform="translate(-855.000000, -134.000000)" fill="#FFFFFF" fill-rule="nonzero">
            <g id="Group-20" transform="translate(0.000000, 24.000000)">
                <g id="Group-3" transform="translate(855.000000, 110.000000)">
                    <path d="M31.4811485,17.3257782 C34.5791027,19.5405107 38.3764808,20.8439179 42.4776493,20.8439179 L42.4776493,12.9563617 C41.7005114,12.9563617 40.926906,12.8751196 40.1674304,12.7161674 L40.1674304,18.925896 C36.066262,18.925896 32.2724161,17.6224888 29.1709296,15.4077563 L29.1709296,31.5007727 C29.1709296,39.5508132 22.639439,46.0784458 14.5854648,46.0784458 C11.5793542,46.0784458 8.78519035,45.1706527 6.46437408,43.6129222 C9.11370772,46.31864 12.8051126,48 16.8921512,48 C24.949658,48 31.477616,41.4723673 31.477616,33.4223269 L31.4811485,17.3257782 L31.4811485,17.3257782 Z M34.3282991,9.36757672 C32.7457638,7.63676503 31.7036926,5.40437118 31.4811485,2.93178306 L31.4811485,1.91802193 L29.2910327,1.91802193 C29.8420942,5.05820885 31.7213548,7.7427331 34.3282991,9.36757672 M11.561692,37.4314519 C10.6785808,36.2728678 10.1981683,34.8528958 10.2017007,33.3940687 C10.2017007,29.7134447 13.1901491,26.7251453 16.874489,26.7251453 C17.5597834,26.7251453 18.2450777,26.8311134 18.8985799,27.035985 L18.8985799,18.97888 C18.1320395,18.8729119 17.3619665,18.8305247 16.588361,18.8446537 L16.588361,25.1214953 C15.9348587,24.9130915 15.2495645,24.8071234 14.5642702,24.8106557 C10.8799301,24.8106557 7.8914818,27.7954228 7.8914818,31.4795791 C7.8914818,34.0793288 9.38217353,36.3364486 11.561692,37.4314519" id="Shape" fill-opacity="0.29"></path>
                    <path d="M29.1709296,15.404224 C32.2724161,17.6189566 36.066262,18.9223637 40.1674304,18.9223637 L40.1674304,12.7126352 C37.8784062,12.2251822 35.8507828,11.0312753 34.3282991,9.36757672 C31.7213548,7.7427331 29.8420942,5.05820885 29.2910327,1.91802193 L23.5437449,1.91802193 L23.5437449,33.4187946 C23.5296151,37.0923541 20.5482317,40.0629922 16.8709566,40.0629922 C14.7055679,40.0629922 12.7803854,39.0315696 11.5581596,37.4314519 C9.38217353,36.3329164 7.88794936,34.0793288 7.88794936,31.4760468 C7.88794936,27.7918904 10.8763977,24.8071234 14.5607377,24.8071234 C15.2672267,24.8071234 15.9454561,24.9166237 16.5848286,25.1179631 L16.5848286,18.8446537 C8.67215212,19.0071382 2.30668649,25.4711899 2.30668649,33.4187946 C2.30668649,37.3855324 3.89275423,40.9849142 6.46437408,43.60939 C8.78519035,45.1671205 11.5793542,46.0749136 14.5854648,46.0749136 C22.639439,46.0749136 29.1709296,39.5472809 29.1709296,31.4972404 L29.1709296,15.404224 Z" id="Path"></path>
                    <path d="M40.1674304,12.7126352 L40.1674304,11.0348076 C38.1044826,11.0383398 36.0803917,10.4590478 34.3282991,9.36757672 C35.8790424,11.0630657 37.9207955,12.2357789 40.1674304,12.7126352 M29.2910327,1.91802193 C29.2380461,1.61777909 29.1991891,1.31753624 29.1709296,1.01376113 L29.1709296,0 L21.233526,0 L21.233526,31.5007727 C21.2193962,35.1743322 18.2380128,38.1449702 14.5607377,38.1449702 C13.4798095,38.1449702 12.4624655,37.8906468 11.5581596,37.4349841 C12.776853,39.0351019 14.7020354,40.0665244 16.8709566,40.0665244 C20.5482317,40.0665244 23.5296151,37.0923541 23.5437449,33.4223269 L23.5437449,1.91802193 L29.2910327,1.91802193 Z M16.588361,18.8446537 L16.588361,17.0573257 C15.9242614,16.9654868 15.2566294,16.9230996 14.5854648,16.9230996 C6.52795808,16.9230996 0,23.4507322 0,31.5007727 C0,36.5483848 2.56808741,40.9955111 6.46790652,43.6129222 C3.89628667,40.9849142 2.31021893,37.3890647 2.31021893,33.4223269 C2.31021893,25.4711899 8.67215212,19.0071382 16.588361,18.8446537" id="Shape" fill-opacity="0.695450789"></path>
                </g>
            </g>
        </g>
    </g>
</svg>