<?xml version="1.0" encoding="utf-8"?>
<!-- Generator: Adobe Illustrator 26.3.1, SVG Export Plug-In . SVG Version: 6.00 Build 0)  -->
<svg version="1.1" id="Layer_1" xmlns="http://www.w3.org/2000/svg" xmlns:xlink="http://www.w3.org/1999/xlink" x="0px" y="0px"
	 viewBox="0 0 160 150" style="enable-background:new 0 0 160 150;" xml:space="preserve">
<style type="text/css">
	.st0{fill:url(#SVGID_1_);}
	.st1{opacity:0.25;fill:url(#SVGID_00000116957721453514334470000007318616662769601715_);enable-background:new    ;}
	.st2{opacity:0.1;fill:#FF1241;enable-background:new    ;}
	.st3{opacity:0.3;fill:#FF1241;enable-background:new    ;}
</style>
<g>
	<g>
		
			<linearGradient id="SVGID_1_" gradientUnits="userSpaceOnUse" x1="24.0039" y1="78.0488" x2="153.6124" y2="78.0488" gradientTransform="matrix(1 0 0 -1 0 150)">
			<stop  offset="0" style="stop-color:#DB0F38"/>
			<stop  offset="0.4581" style="stop-color:#FF1241"/>
			<stop  offset="1" style="stop-color:#FF388E"/>
		</linearGradient>
		<path class="st0" d="M152.81,19.49L79.34,47.02c-2.6,0.98-6.75,2.69-7.36,5.41l-9.82,39.7c-0.16-0.09-0.33-0.19-0.5-0.28
			c-3.77-1.63-8.31-2.38-13.13-2.06c-1.26,0.08-2.55,0.23-3.84,0.48c-0.82,0.15-1.62,0.34-2.41,0.55
			c-11.78,3.12-19.74,12.21-18.05,21.14c0.58,3.14,2.3,5.85,4.79,8.01c5.11,5.36,14.71,6.04,23.75,1.17
			c8.03-4.08,14-10.91,15.46-17.25c0.01-0.02,0.02-0.06,0.04-0.08c0,0,10.26-36.11,11.5-41.61c0.57-2.57,2.35-4.71,4.76-5.75
			l57.33-27.47c0.85-0.36,1.46,0.86,0.64,1.31l-55.91,30c-3.66,2.02-4.72,3.84-5.72,7.89c-0.5,2.02,0.53,4.11,2.43,4.95l1.74,1.03
			c9.19,4.06,16.37,4.04,22.65-0.2c0.49-0.33,0.4-1.09-0.16-1.26l-21.94-7.2c-0.6-0.2-0.68-1.02-0.12-1.32l0.6-0.32
			c0.4-0.21,0.86-0.26,1.3-0.12l17.58,5.52c1.93,0.61,3.96,0.89,5.97,0.7c13.23-1.18,22.63-8.45,27.77-17.48
			c0.26-0.44-0.12-0.98-0.63-0.92l-37.18,4.73c-0.36,0.06-0.53-0.44-0.2-0.61l1.97-0.99c1.13-0.57,2.34-0.97,3.59-1.18
			c17.59-2.97,43.45-7.28,47.27-28.49C153.82,22.35,153.38,19.28,152.81,19.49z"/>
		<g>
			
				<linearGradient id="SVGID_00000118386633864152808560000017528540129875410086_" gradientUnits="userSpaceOnUse" x1="4.13" y1="44.86" x2="87.71" y2="44.86" gradientTransform="matrix(1 0 0 -1 0 150)">
				<stop  offset="0" style="stop-color:#DB0F38"/>
				<stop  offset="0.4581" style="stop-color:#FF1241"/>
				<stop  offset="1" style="stop-color:#FF388E"/>
			</linearGradient>
			
				<polygon style="opacity:0.25;fill:url(#SVGID_00000118386633864152808560000017528540129875410086_);enable-background:new    ;" points="
				77.6,87.62 74.5,99.05 78.02,105.14 61.97,132.93 52.08,132.93 29.88,132.93 13.84,105.14 29.88,77.34 39.76,77.34 60.74,77.34 
				63,68.95 25.03,68.95 22.85,72.71 14.01,88.02 14.01,88.02 4.13,105.14 25.03,141.33 66.82,141.33 68.99,137.55 68.99,137.55 
				77.83,122.26 77.83,122.26 87.71,105.14 			"/>
		</g>
	</g>
</g>
<path class="st2" d="M32.57,33.45c0,2.73-2.65,4.94-5.88,4.94s-5.88-2.21-5.88-4.89c0-2.73,2.65-4.89,5.88-4.89
	c0.69,0,1.35,0.12,1.98,0.31v-9.01l-15.82,4.7v12.86c-0.06,2.73-2.65,4.94-5.98,4.94S1,40.19,1,37.46c0-2.73,2.65-4.89,5.88-4.89
	c0.69,0,1.35,0.12,1.98,0.31v-14.3c0-0.8,0.63-1.64,1.38-1.89l19.73-5.85c0.21-0.05,0.54-0.09,0.71-0.09c1.09,0,1.98,0.89,1.98,1.98
	L32.57,33.45z"/>
<path class="st3" d="M120.34,14.82c0,1.24-1.21,2.25-2.68,2.25s-2.68-1.01-2.68-2.23c0-1.24,1.21-2.23,2.68-2.23
	c0.32,0,0.62,0.05,0.9,0.14v-4.1l-7.21,2.14v5.86c-0.03,1.24-1.21,2.25-2.73,2.25c-1.52,0-2.68-1.01-2.68-2.25s1.21-2.23,2.68-2.23
	c0.32,0,0.62,0.05,0.9,0.14V8.05c0-0.36,0.28-0.75,0.63-0.86l8.98-2.66c0.1-0.02,0.24-0.04,0.32-0.04c0.5,0,0.9,0.4,0.9,0.9
	L120.34,14.82z"/>
<path class="st2" d="M128.79,124.72c0,1.96-1.91,3.54-4.21,3.54s-4.21-1.59-4.21-3.51c0-1.96,1.91-3.51,4.21-3.51
	c0.5,0,0.97,0.08,1.42,0.21v-6.46l-11.34,3.37v9.22c-0.05,1.96-1.91,3.54-4.29,3.54c-2.4,0-4.21-1.59-4.21-3.54
	c0-1.96,1.91-3.51,4.21-3.51c0.5,0,0.97,0.08,1.42,0.21v-10.24c0-0.57,0.45-1.18,0.99-1.36l14.14-4.19c0.15-0.03,0.39-0.06,0.5-0.06
	c0.78,0,1.42,0.63,1.42,1.42L128.79,124.72z"/>
</svg>
