<?xml version="1.0" encoding="utf-8"?>
<!-- Generator: Adobe Illustrator 26.3.1, SVG Export Plug-In . SVG Version: 6.00 Build 0)  -->
<svg version="1.1" id="Layer_1" xmlns="http://www.w3.org/2000/svg" xmlns:xlink="http://www.w3.org/1999/xlink" x="0px" y="0px"
	 viewBox="0 0 160 150" style="enable-background:new 0 0 160 150;" xml:space="preserve">
<style type="text/css">
	.st0{opacity:0.3;}
	.st1{fill:#FF1241;}
	.st2{opacity:0.1;}
	.st3{opacity:0.2;}
	.st4{fill:url(#SVGID_1_);}
	.st5{opacity:0.25;}
	.cog{
		transform-box: fill-box;
		transform-origin: center;
	}
	#Main{
		transform-origin: center;
        animation: fadeInSlide 2.5s;
      }

      @keyframes fadeInSlide {
        from {
          opacity: 0;
          transform: translateX(500%) rotate(35deg);
        }

        to {
          opacity: 1;
          transform: translateX(0) rotate(0);
        }
      }
	  #cogs g{
		opacity: 0;
        animation: dropIn 2s;
        animation-timing-function: ease;
        animation-fill-mode: forwards;
        animation-delay: calc(var(--order) * 500ms);
      //  animation-iteration-count: infinite;
	  }
	@keyframes dropIn {
        0% {
          opacity: 0;
          transform: translateX(300%) rotate(0) ;	
        }

        100% {
          opacity: calc(var(--opacity));
          transform: translateX(0) rotate(-360deg);
        }

      }
</style>
<g id="cogs">
	<g id="Cog3" class="st0 cog" style="--order: 3; --opacity:0.6;">
		<path class="st1" d="M30.58,98.49c0.12,0.31,0.02,0.66-0.23,0.88l-1.55,1.41c0.04,0.3,0.06,0.6,0.06,0.91
			c0,0.31-0.02,0.61-0.06,0.91l1.55,1.41c0.24,0.23,0.34,0.57,0.23,0.88c-0.16,0.43-0.35,0.84-0.56,1.23l-0.17,0.29
			c-0.24,0.39-0.5,0.77-0.79,1.12c-0.21,0.26-0.56,0.34-0.88,0.24l-1.99-0.64c-0.48,0.37-1.04,0.68-1.58,0.91l-0.45,2.05
			c-0.07,0.32-0.32,0.55-0.65,0.64c-0.49,0.08-1,0.13-1.56,0.13c-0.49,0-1-0.04-1.49-0.13c-0.33-0.09-0.58-0.31-0.65-0.64l-0.45-2.05
			c-0.57-0.24-1.1-0.54-1.58-0.91l-1.99,0.64c-0.32,0.1-0.67,0.01-0.88-0.24c-0.29-0.35-0.56-0.73-0.79-1.12l-0.17-0.29
			c-0.22-0.39-0.41-0.8-0.57-1.23c-0.11-0.31-0.02-0.66,0.23-0.88l1.55-1.41c-0.04-0.3-0.06-0.6-0.06-0.91
			c0-0.31,0.02-0.61,0.06-0.91l-1.55-1.41c-0.25-0.23-0.34-0.57-0.23-0.88c0.16-0.43,0.35-0.84,0.57-1.23l0.17-0.29
			c0.24-0.39,0.5-0.77,0.79-1.12c0.21-0.26,0.56-0.35,0.88-0.24l1.99,0.64c0.48-0.37,1.01-0.68,1.58-0.91l0.45-2.04
			c0.07-0.33,0.32-0.58,0.65-0.64c0.49-0.08,1-0.13,1.52-0.13s1.03,0.04,1.52,0.13c0.33,0.06,0.58,0.31,0.65,0.64l0.45,2.04
			c0.53,0.23,1.1,0.54,1.58,0.91l1.99-0.64c0.31-0.1,0.66-0.01,0.88,0.24c0.29,0.35,0.56,0.73,0.79,1.12l0.17,0.29
			C30.23,97.65,30.42,98.06,30.58,98.49z M21.99,104.55c1.58,0,2.87-1.28,2.87-2.9c0-1.55-1.28-2.86-2.87-2.86
			c-1.58,0-2.86,1.31-2.86,2.86C19.12,103.27,20.41,104.55,21.99,104.55z"/>
	</g>
	<g id="Cog2" class="st2 cog" style="--order: 2; --opacity:0.4;">
		<path class="st1" d="M28.63,37.93c0.2,0.51,0.03,1.09-0.38,1.46l-2.58,2.34c0.07,0.49,0.1,1,0.1,1.51c0,0.51-0.03,1.02-0.1,1.51
			l2.58,2.34c0.41,0.37,0.57,0.95,0.38,1.46c-0.26,0.71-0.58,1.39-0.93,2.04l-0.28,0.48c-0.39,0.65-0.83,1.27-1.31,1.86
			c-0.36,0.42-0.93,0.57-1.46,0.4l-3.31-1.06c-0.8,0.61-1.73,1.13-2.62,1.52l-0.74,3.4c-0.12,0.54-0.54,0.91-1.08,1.06
			c-0.82,0.14-1.67,0.21-2.58,0.21c-0.81,0-1.65-0.07-2.47-0.21c-0.55-0.14-0.96-0.52-1.08-1.06L10,53.81
			c-0.94-0.39-1.82-0.9-2.62-1.52l-3.31,1.06c-0.53,0.17-1.11,0.02-1.46-0.4c-0.48-0.59-0.92-1.21-1.32-1.86L1.02,50.6
			c-0.36-0.65-0.67-1.33-0.94-2.04c-0.19-0.51-0.03-1.09,0.38-1.46l2.57-2.34c-0.06-0.49-0.1-1-0.1-1.51c0-0.51,0.03-1.02,0.1-1.51
			l-2.57-2.34c-0.41-0.38-0.57-0.95-0.38-1.46c0.27-0.71,0.58-1.39,0.94-2.04L1.3,35.4c0.39-0.65,0.83-1.27,1.32-1.86
			c0.35-0.43,0.93-0.57,1.46-0.41l3.31,1.06c0.8-0.61,1.68-1.13,2.62-1.51l0.74-3.4c0.12-0.54,0.54-0.97,1.08-1.06
			c0.82-0.14,1.67-0.21,2.53-0.21s1.71,0.07,2.53,0.21c0.55,0.09,0.96,0.52,1.08,1.06l0.74,3.4c0.88,0.39,1.82,0.9,2.62,1.51
			l3.31-1.06c0.52-0.17,1.1-0.02,1.46,0.41c0.48,0.58,0.92,1.2,1.31,1.86l0.28,0.48C28.05,36.53,28.36,37.22,28.63,37.93z M14.35,48
			c2.63,0,4.76-2.13,4.76-4.81c0-2.58-2.13-4.76-4.76-4.76c-2.63,0-4.76,2.18-4.76,4.76C9.59,45.87,11.72,48,14.35,48z"/>
	</g>
	<g id="Cog1" class="st3 cog" style="--order: 1; --opacity:0.2;">
		<path class="st1" d="M166.27,13.37c0.5,0.83,0.39,1.89-0.2,2.67l-3.75,4.89c0.27,0.84,0.49,1.71,0.65,2.6
			c0.16,0.89,0.26,1.78,0.29,2.66l5.22,3.28c0.82,0.52,1.29,1.48,1.11,2.43c-0.24,1.32-0.57,2.61-0.99,3.85l-0.34,0.93
			c-0.48,1.26-1.05,2.48-1.71,3.65c-0.49,0.85-1.45,1.29-2.41,1.16l-6.1-0.81c-1.2,1.32-2.67,2.5-4.09,3.46l-0.23,6.15
			c-0.04,0.97-0.65,1.76-1.56,2.18c-1.39,0.49-2.84,0.88-4.44,1.17c-1.41,0.25-2.9,0.39-4.37,0.41c-1-0.08-1.84-0.61-2.22-1.51
			l-2.36-5.69c-1.76-0.39-3.45-1.01-5.03-1.82l-5.44,2.88c-0.86,0.46-1.92,0.38-2.66-0.25c-1.03-0.87-1.98-1.81-2.87-2.83l-0.63-0.75
			c-0.83-1.02-1.59-2.11-2.27-3.26c-0.49-0.83-0.39-1.89,0.2-2.67l3.75-4.89c-0.27-0.84-0.48-1.71-0.64-2.6
			c-0.16-0.89-0.26-1.78-0.3-2.66l-5.21-3.28c-0.83-0.53-1.29-1.47-1.12-2.43c0.24-1.32,0.58-2.61,1-3.85l0.33-0.92
			c0.48-1.26,1.05-2.48,1.71-3.65c0.48-0.85,1.44-1.29,2.41-1.16l6.1,0.8c1.2-1.32,2.57-2.49,4.09-3.46l0.23-6.15
			c0.04-0.98,0.63-1.86,1.56-2.19c1.39-0.49,2.84-0.88,4.34-1.15c1.5-0.27,3-0.41,4.47-0.43c0.98-0.01,1.84,0.61,2.22,1.51l2.36,5.68
			c1.66,0.4,3.45,1,5.03,1.82l5.44-2.87c0.86-0.46,1.91-0.38,2.67,0.25c1.02,0.87,1.98,1.81,2.87,2.83l0.64,0.75
			C164.83,11.13,165.59,12.22,166.27,13.37z M144.55,35.38c4.58-0.82,7.63-5.2,6.79-9.87c-0.8-4.49-5.2-7.62-9.78-6.8
			c-4.58,0.82-7.61,5.29-6.8,9.78C135.6,33.16,139.97,36.2,144.55,35.38z"/>
	</g>
</g>
<g id="Main">
	<linearGradient id="SVGID_1_" gradientUnits="userSpaceOnUse" x1="45.237" y1="103.841" x2="103.1696" y2="45.9084">
		<stop  offset="0" style="stop-color:#B11141"/>
		<stop  offset="1" style="stop-color:#EE1241"/>
	</linearGradient>
	<path class="st4" d="M134.71,52.93c-0.62-3.25-2.36-5.04-5.54-5.63c-8.5-1.57-13.23-9.69-10.4-17.88c1.03-3,0.31-5.51-2.14-7.52
		c-0.87-0.72-1.78-1.38-2.69-2.03c-1.27,5.28-2.61,10.88-3.05,12.44c-0.95,3.39-1.89,6.76-2.78,9.91
		c-2.75,9.79-4.93,17.51-4.93,17.51c-0.01,0.03-0.02,0.05-0.03,0.08c-1.34,5.83-6.84,12.13-14.25,15.89
		c-8.34,4.48-17.18,3.86-21.89-1.08c-0.02-0.01-0.03-0.03-0.05-0.05c-2.26-1.98-3.83-4.47-4.37-7.34c-0.33-1.77-0.23-3.55,0.21-5.28
		c0.65-2.58,2.1-5.05,4.17-7.22c2.98-3.13,7.24-5.65,12.27-6.98c0.72-0.19,1.46-0.36,2.22-0.5c0.47-0.09,0.94-0.15,1.4-0.21
		c0.72-0.1,1.43-0.17,2.14-0.22c4.44-0.3,8.62,0.39,12.1,1.89c0.16,0.08,0.31,0.17,0.46,0.26l1.77-6.74l2.59-9.91l3.87-17.22
		c-1.17-0.55-2.36-1.06-3.58-1.53c-2.85-1.09-5.48-0.4-7.49,1.94c-5.83,6.79-15.11,6.79-20.97-0.01c-2.01-2.33-4.64-3.01-7.49-1.92
		c-4.74,1.81-9.14,4.23-13.16,7.33c-2.82,2.17-3.58,4.72-2.38,8.08c2.96,8.27-2.26,16.76-10.99,17.88
		c-3.23,0.41-5.31,2.41-5.88,5.55c-1.02,5.61-1.15,11.23-0.26,16.88c0.48,3.04,2.43,5.11,5.47,5.55c2.13,0.31,4.15,0.88,6,2.05
		c5.54,3.5,7.7,10.41,5.14,16.55c-1.36,3.26-0.69,5.85,2.02,8.05c3.19,2.58,6.62,4.78,10.35,6.5c2.02,0.93,4,2.03,5.96,2.12
		c2.36-0.03,3.99-0.84,5.25-2.39c0.45-0.55,0.85-1.14,1.33-1.66c5.58-6.12,15.07-5.72,20.38,0.85c2.22,2.75,4.89,3.42,8.15,2.05
		c4.61-1.94,8.86-4.49,12.74-7.66c2.52-2.07,3.22-4.65,2.07-7.71c-3.12-8.3,1.9-16.82,10.69-18.15c2.8-0.42,4.93-2.38,5.46-5.12
		C135.7,64.53,135.81,58.73,134.71,52.93z"/>
	<g class="st5">
		<path class="st1" d="M143.11,54.88l-1.69,19.87l3.24,5.62l-21.78,37.72h-13.42H79.34l-2.55-4.41c-5.64,1.42-10.31,0.45-13.14,0.04
			l9.1,15.77h56.71l2.95-5.11l11.99-20.77l13.41-23.23L143.11,54.88z"/>
	</g>
</g>
</svg>
