<?xml version="1.0" encoding="utf-8"?>
<!-- Generator: Adobe Illustrator 26.3.1, SVG Export Plug-In . SVG Version: 6.00 Build 0)  -->
<svg version="1.1" id="Layer_1" xmlns="http://www.w3.org/2000/svg" xmlns:xlink="http://www.w3.org/1999/xlink" x="0px" y="0px"
	 viewBox="0 0 18 18" style="enable-background:new 0 0 18 18;" xml:space="preserve">
<style type="text/css">
	.st0{fill:#FFFFFF;}
</style>
<g>
	<g>
		<g>
			<path class="st0" d="M16.9,2.8c0-0.3-0.3-0.6-0.6-0.6L13,2.3c-0.4,0-0.7,0.2-0.8,0.5l-0.6,1.3L3.7,4.3c-0.5,0-0.8,0.3-1,0.8
				l11.6-0.1c0.3,0,0.6,0.2,0.6,0.6l1.3,10c0.5-0.6,0.7-1.4,0.7-2.1L16.9,2.8z"/>
			<path class="st0" d="M13.6,6.1l-1.3,0c-0.6,2.4-1.4,5.6-1.4,5.6c0,0,0,0,0,0C10.8,12.5,10,13.4,9,14c-1.1,0.7-2.4,0.6-3.1-0.1
				c-0.3-0.3-0.6-0.6-0.7-1C5,11.8,6,10.6,7.5,10.1c0.1,0,0.2-0.1,0.3-0.1C8,10,8.2,10,8.3,10C9,9.9,9.6,10,10,10.2c0,0,0,0,0.1,0
				L11,6.1L1.4,6.2C1.1,6.2,1,6.4,1,6.7l1.3,8.2c0.1,0.4,0.4,0.8,0.9,0.8L15,15.7c0.1,0,0.2-0.1,0.2-0.2l-1.1-9
				C14.1,6.3,13.9,6.1,13.6,6.1z"/>
		</g>
	</g>
</g>
</svg>
