<?xml version="1.0" encoding="utf-8"?>
<!-- Generator: Adobe Illustrator 26.3.1, SVG Export Plug-In . SVG Version: 6.00 Build 0)  -->
<svg version="1.1" id="Layer_1" xmlns="http://www.w3.org/2000/svg" xmlns:xlink="http://www.w3.org/1999/xlink" x="0px" y="0px"
	 viewBox="0 0 18 18" style="enable-background:new 0 0 18 18;" xml:space="preserve">
<style type="text/css">
	.st0{fill:#B65FDE;}
	.st1{fill:#F961EA;}
	.st2{fill:#FFFFFF;}
</style>
<g>
	<path class="st2" d="M15.94,4.47c-0.49-0.59-1.07-1.1-1.74-1.54c-0.13,0.5-0.28,1.02-0.44,1.54c-0.17,0.6-0.33,1.2-0.5,1.76
		c-0.49,1.74-0.87,3.11-0.87,3.11v0.02c-0.23,1.04-1.22,2.16-2.53,2.83c-1.49,0.8-3.06,0.69-3.9-0.18l0,0
		c-0.4-0.35-0.69-0.79-0.77-1.31c-0.07-0.32-0.03-0.64,0.03-0.94c0.12-0.45,0.37-0.9,0.74-1.29c0.54-0.55,1.29-1,2.18-1.24
		c0.13-0.03,0.27-0.07,0.4-0.08C8.63,7.13,8.72,7.11,8.8,7.11C8.93,7.1,9.05,7.08,9.18,7.08c0.79-0.05,1.54,0.07,2.16,0.33
		c0.03,0.02,0.05,0.03,0.08,0.05l0.32-1.2l0.47-1.76l0.6-2.28c-1.14-0.47-2.43-0.74-3.78-0.74C4.31,1.44,0.5,4.64,0.5,8.6
		c0,1.67,0.69,3.23,1.84,4.45l-0.37,2.89c-0.05,0.38,0.33,0.67,0.69,0.52L5.7,15.2h0.02c0.72,0.25,1.51,0.44,2.31,0.5
		c0.32,0.03,0.65,0.05,0.97,0.05c4.62,0,8.37-3.1,8.5-6.94c0-0.07,0-0.13,0-0.22C17.52,7.06,16.93,5.64,15.94,4.47z"/>
</g>
</svg>
