<?xml version="1.0" encoding="utf-8"?>
<!-- Generator: Adobe Illustrator 26.3.1, SVG Export Plug-In . SVG Version: 6.00 Build 0)  -->
<svg version="1.1" id="Layer_1" xmlns="http://www.w3.org/2000/svg" xmlns:xlink="http://www.w3.org/1999/xlink" x="0px" y="0px"
	 viewBox="0 0 130 130" style="enable-background:new 0 0 130 130;" xml:space="preserve">
<style type="text/css">
	.st0{fill:#FFC53B;}
	.st1{opacity:0.25;fill:#FFC53B;}
	.st2{opacity:0.3;fill:#3D77FF;}
	.st3{fill:#3D77FF;}
	.st4{fill:#FF1241;}
	.st5{opacity:0.25;fill:#FF8098;}
	.st6{fill:#99E266;}
	.st7{opacity:0.5;fill:#99E266;}
	.st8{fill:#B65FDE;}
	.st9{opacity:0.3;fill:#B65FDE;}
	.st10{opacity:0.25;}
	.st11{fill:#D6D6D6;}
</style>
<g>
	<path class="st11" d="M116.67,59.97v8.82c0,2.03-1.52,4-3.62,4.43l-9.89,1.98v19.67c0,5.6-6.05,10.13-13.51,10.13
		s-13.51-4.54-13.51-10.13c0-5.6,6.05-10.13,13.51-10.13c1.59,0,3.08,0.24,4.5,0.62V62.67c0-2.27,1.52-4,3.62-4.42l13.51-2.7
		C114.07,55,116.67,57.12,116.67,59.97z"/>
	<path class="st11" d="M89.33,79.91V62.67c0-0.61,0.06-1.2,0.17-1.78V31.4c0-3.54-2.75-6.4-6.4-6.4H27.61
		c-3.42,0-6.28,2.87-6.28,6.4v52.58c0,3.54,2.87,6.4,6.28,6.4h44.52C74.38,84.33,81.12,80.02,89.33,79.91z M83.22,70.36v6.4H83.1
		c0,0.59-0.48,1.07-1.07,1.07h-6.28c-0.59,0-0.95-0.48-0.95-1.07v-6.4c0-0.59,0.48-1.07,1.07-1.07h6.28
		C82.74,69.29,83.22,69.77,83.22,70.36z M74.68,36.21c0-0.59,0.48-1.07,0.95-1.07h6.28c0.59,0,1.07,0.48,1.07,1.07v6.4h0.12
		c0,0.59-0.48,1.07-1.07,1.07h-6.28c-0.59,0-1.07-0.48-1.07-1.07V36.21z M74.68,53.29c0-0.59,0.48-1.07,1.07-1.07h6.28
		c0.59,0,1.07,0.48,1.07,1.07v6.4c0,0.59-0.48,1.07-1.07,1.07h-6.28c-0.59,0-1.07-0.48-1.07-1.07V53.29z M35.08,77.83h-6.4
		c-0.59,0-1.07-0.48-1.07-1.07v-6.4c0-0.59,0.48-1.07,1.07-1.07h6.28c0.59,0,1.07,0.48,1.07,1.07l0.12,6.4
		C36.14,77.35,35.67,77.83,35.08,77.83z M35.08,60.76h-6.4c-0.59,0-1.07-0.48-1.07-1.07v-6.4c0-0.59,0.48-1.07,1.07-1.07h6.28
		c0.59,0,1.07,0.48,1.07,1.07v6.4h0.12C36.14,60.28,35.67,60.76,35.08,60.76z M35.08,43.68h-6.4c-0.59,0-1.07-0.48-1.07-1.07v-6.4
		c0-0.59,0.48-1.07,1.07-1.07h6.28c0.59,0,1.07,0.48,1.07,1.07l0.12,6.4C36.14,43.2,35.67,43.68,35.08,43.68z M68.16,75.7
		c0,1.18-0.96,2.13-2.13,2.13H44.68c-1.18,0-2.13-0.96-2.13-2.13V62.89c0-1.18,0.96-2.13,2.13-2.13h21.34
		c1.18,0,2.13,0.96,2.13,2.13V75.7z M66.03,52.22H44.68c-1.18,0-2.13-0.96-2.13-2.13V37.28c0-1.18,0.96-2.13,2.13-2.13h21.34
		c1.18,0,2.13,0.96,2.13,2.13v12.81C68.16,51.26,67.2,52.22,66.03,52.22z"/>
</g>
</svg>
