<?xml version="1.0" encoding="utf-8"?>
<!-- Generator: Adobe Illustrator 26.3.1, SVG Export Plug-In . SVG Version: 6.00 Build 0)  -->
<svg version="1.1" id="Layer_1" xmlns="http://www.w3.org/2000/svg" xmlns:xlink="http://www.w3.org/1999/xlink" x="0px" y="0px"
	 viewBox="0 0 130 130" style="enable-background:new 0 0 130 130;" xml:space="preserve">
<style type="text/css">
	.st0{fill:#FFC53B;}
	.st1{opacity:0.25;fill:#FFC53B;}
	.st2{opacity:0.3;fill:#3D77FF;}
	.st3{fill:#3D77FF;}
	.st4{fill:#FF1241;}
	.st5{opacity:0.25;fill:#FF8098;}
	.st6{fill:#99E266;}
	.st7{opacity:0.5;fill:#99E266;}
	.st8{fill:#B65FDE;}
	.st9{opacity:0.3;fill:#B65FDE;}
</style>
<g>
	<g>
		<path class="st0" d="M89.98,24h-8.5c-5.1,17.41-12.52,42.39-12.52,42.39c-0.01,0.03-0.02,0.05-0.03,0.08
			c-1.44,5.94-7.34,12.35-15.28,16.17c-8.94,4.56-18.42,3.93-23.48-1.1c-2.46-2.02-4.15-4.57-4.73-7.51
			c-1.65-8.37,6.2-16.9,17.85-19.83c0.78-0.2,1.57-0.37,2.38-0.51c1.28-0.23,2.54-0.36,3.8-0.44c4.76-0.31,9.25,0.39,12.98,1.92
			c0.17,0.09,0.33,0.17,0.49,0.26L71.6,24H10.36c-3.86,0-6.98,2.97-6.98,6.63v57.1c0,3.66,3.13,6.63,6.98,6.63h79.62
			c3.86,0,6.98-2.97,6.98-6.63v-57.1C96.96,26.97,93.83,24,89.98,24z M49.35,31.99c3.11,0,5.64,2.39,5.64,5.35
			c0,2.95-2.52,5.35-5.64,5.35c-3.11,0-5.64-2.39-5.64-5.35C43.72,34.38,46.24,31.99,49.35,31.99z M33.2,31.99
			c3.11,0,5.64,2.39,5.64,5.35c0,2.95-2.52,5.35-5.64,5.35c-3.11,0-5.64-2.39-5.64-5.35C27.57,34.38,30.09,31.99,33.2,31.99z
			 M17.05,42.68c-3.11,0-5.64-2.39-5.64-5.35c0-2.95,2.52-5.35,5.64-5.35c3.11,0,5.64,2.39,5.64,5.35
			C22.68,40.29,20.16,42.68,17.05,42.68z"/>
	</g>
	<g>
		<polygon class="st1" points="113.27,52 113.27,52 103.89,35.32 103.89,56.15 114.6,75.13 94.7,109.59 82.45,109.59 82.45,109.59 
			57.89,109.59 54.92,109.59 49.3,99.85 37.28,99.85 48.91,120 55.1,120 100.72,120 100.72,120 103.41,115.33 114.37,96.35 
			126.62,75.13 		"/>
	</g>
</g>
</svg>
