<?xml version="1.0" encoding="utf-8"?>
<!-- Generator: Adobe Illustrator 26.3.1, SVG Export Plug-In . SVG Version: 6.00 Build 0)  -->
<svg version="1.1" id="Layer_1" xmlns="http://www.w3.org/2000/svg" xmlns:xlink="http://www.w3.org/1999/xlink" x="0px" y="0px"
	 viewBox="0 0 130 130" style="enable-background:new 0 0 130 130;" xml:space="preserve">
<style type="text/css">
	.st0{fill:#FFC53B;}
	.st1{opacity:0.25;fill:#FFC53B;}
	.st2{opacity:0.3;fill:#3D77FF;}
	.st3{fill:#3D77FF;}
	.st4{fill:#FF1241;}
	.st5{opacity:0.25;fill:#FF8098;}
	.st6{fill:#99E266;}
	.st7{opacity:0.5;fill:#99E266;}
	.st8{fill:#B65FDE;}
	.st9{opacity:0.3;fill:#B65FDE;}
</style>
<g>
	<path class="st8" d="M103.86,48.94c1.7-1.58,2.32-4,1.59-6.21c-0.73-2.2-2.67-3.78-4.97-4.04l-18.78-2.75
		c-3.24,11.77-7.95,28.33-7.95,28.33c-0.01,0.03-0.02,0.05-0.03,0.08c-1.37,5.96-6.99,12.4-14.56,16.24
		c-8.52,4.58-17.55,3.95-22.37-1.1c-2.34-2.03-3.95-4.59-4.51-7.54c-1.58-8.41,5.91-16.97,17.01-19.91c0.74-0.2,1.5-0.37,2.27-0.51
		c1.22-0.23,2.42-0.36,3.62-0.45c4.53-0.31,8.81,0.4,12.36,1.93c0.17,0.09,0.32,0.17,0.47,0.26l4.84-19.56
		c-0.64-0.52-1.2-1.15-1.59-1.9h0L60.31,9.46l0,0C59.31,7.35,57.18,6,54.84,6c-2.34,0-4.47,1.35-5.47,3.46L38.42,31.82
		c-0.92,1.74-2.6,2.94-4.54,3.26L9.19,38.69c-2.3,0.26-4.25,1.84-4.97,4.04c-0.73,2.2-0.1,4.63,1.59,6.21l17.82,17.47
		c1.46,1.32,2.13,3.31,1.75,5.24l-4.19,24.57c-0.39,2.26,0.54,4.54,2.39,5.9c1.85,1.36,4.31,1.55,6.34,0.5h0l22.12-11.64
		c1.77-0.82,3.82-0.82,5.59,0l22.12,11.64c2.04,1.05,4.5,0.85,6.34-0.5c1.85-1.36,2.77-3.64,2.39-5.9L84.3,71.65
		c-0.38-1.93,0.28-3.92,1.75-5.24L103.86,48.94z"/>
	<polygon class="st9" points="110.47,54.65 103.5,62.42 114.21,79.69 94.57,113.72 82.46,113.72 55.28,113.72 48.05,101.2 
		39.03,106.13 49.34,124 100.5,124 103.17,119.39 113.98,100.65 126.08,79.69 	"/>
</g>
</svg>
