<?xml version="1.0" encoding="utf-8"?>
<!-- Generator: Adobe Illustrator 26.3.1, SVG Export Plug-In . SVG Version: 6.00 Build 0)  -->
<svg version="1.1" id="Layer_1" xmlns="http://www.w3.org/2000/svg" xmlns:xlink="http://www.w3.org/1999/xlink" x="0px" y="0px"
	 viewBox="0 0 130 130" style="enable-background:new 0 0 130 130;" xml:space="preserve">
<style type="text/css">
	.st0{fill:#FFC53B;}
	.st1{opacity:0.25;fill:#FFC53B;}
	.st2{opacity:0.3;fill:#3D77FF;}
	.st3{fill:#3D77FF;}
	.st4{fill:#FF1241;}
	.st5{opacity:0.25;fill:#FF8098;}
	.st6{fill:#99E266;}
	.st7{opacity:0.5;fill:#99E266;}
	.st8{fill:#B65FDE;}
	.st9{opacity:0.3;fill:#B65FDE;}
	.st10{opacity:0.25;}
</style>
<g>
	<path class="st4" d="M97.47,49.84c-0.51-2.69-1.95-4.16-4.58-4.65c-7.02-1.3-10.93-8.01-8.6-14.77c0.85-2.48,0.26-4.55-1.77-6.22
		c-0.72-0.59-1.47-1.14-2.22-1.68c-1.05,4.36-2.15,8.99-2.52,10.28c-0.78,2.8-1.56,5.58-2.3,8.19c-2.27,8.09-4.07,14.47-4.07,14.47
		c-0.01,0.02-0.02,0.04-0.02,0.06c-1.11,4.82-5.65,10.02-11.77,13.13c-6.89,3.71-14.19,3.19-18.09-0.89
		c-0.01-0.01-0.02-0.03-0.04-0.04c-1.87-1.64-3.16-3.69-3.61-6.06c-0.27-1.46-0.19-2.93,0.17-4.36c0.54-2.13,1.73-4.17,3.44-5.97
		c2.47-2.59,5.98-4.67,10.14-5.77c0.6-0.16,1.21-0.3,1.83-0.41c0.39-0.07,0.77-0.13,1.16-0.18c0.59-0.08,1.18-0.14,1.77-0.18
		c3.67-0.25,7.13,0.32,10,1.56c0.13,0.07,0.26,0.14,0.38,0.21l1.46-5.57l2.14-8.19l3.2-14.23c-0.97-0.45-1.95-0.88-2.96-1.26
		c-2.36-0.9-4.53-0.33-6.19,1.6c-4.82,5.61-12.49,5.61-17.33-0.01c-1.66-1.93-3.83-2.49-6.19-1.59c-3.92,1.49-7.55,3.5-10.87,6.06
		c-2.33,1.79-2.96,3.9-1.96,6.68c2.45,6.83-1.86,13.85-9.08,14.77c-2.67,0.34-4.39,1.99-4.86,4.59c-0.84,4.64-0.95,9.28-0.21,13.95
		c0.4,2.51,2.01,4.22,4.52,4.59c1.76,0.26,3.43,0.73,4.95,1.69c4.58,2.89,6.36,8.6,4.24,13.68c-1.12,2.7-0.57,4.84,1.67,6.65
		c2.64,2.13,5.47,3.95,8.55,5.37c1.67,0.77,3.3,1.68,4.93,1.75c1.95-0.03,3.3-0.69,4.34-1.98c0.37-0.46,0.71-0.94,1.1-1.38
		c4.61-5.05,12.45-4.72,16.84,0.7c1.84,2.27,4.04,2.82,6.73,1.69c3.81-1.61,7.32-3.71,10.52-6.33c2.09-1.71,2.66-3.84,1.71-6.37
		c-2.58-6.86,1.57-13.9,8.83-15c2.32-0.35,4.08-1.97,4.51-4.23C98.29,59.43,98.38,54.64,97.47,49.84z"/>
	<g class="st10">
		<path class="st4" d="M104.41,51.45l-1.4,16.42l2.68,4.64l-17.99,31.17H76.62h-24.9l-2.1-3.64c-4.66,1.17-8.52,0.37-10.86,0.03
			l7.52,13.03h46.86l2.44-4.22l9.91-17.17l11.08-19.2L104.41,51.45z"/>
	</g>
</g>
</svg>
