<?xml version="1.0" encoding="utf-8"?>
<!-- Generator: Adobe Illustrator 26.3.1, SVG Export Plug-In . SVG Version: 6.00 Build 0)  -->
<svg version="1.1" id="Layer_1" xmlns="http://www.w3.org/2000/svg" xmlns:xlink="http://www.w3.org/1999/xlink" x="0px" y="0px"
	 viewBox="0 0 130 130" style="enable-background:new 0 0 130 130;" xml:space="preserve">
<style type="text/css">
	.st0{fill:#FFC53B;}
	.st1{opacity:0.25;fill:#FFC53B;}
	.st2{opacity:0.3;fill:#3D77FF;}
	.st3{fill:#3D77FF;}
	.st4{fill:#FF1241;}
	.st5{opacity:0.25;fill:#FF8098;}
	.st6{fill:#99E266;}
	.st7{opacity:0.5;fill:#99E266;}
	.st8{fill:#B65FDE;}
	.st9{opacity:0.3;fill:#B65FDE;}
</style>
<g>
	<path class="st4" d="M128.32,12.84L65.4,36.41c-2.23,0.84-5.78,2.3-6.3,4.63l-8.41,34c-0.14-0.08-0.28-0.16-0.43-0.24
		c-3.23-1.4-7.12-2.04-11.24-1.76c-1.08,0.07-2.18,0.2-3.29,0.41c-0.7,0.13-1.39,0.29-2.06,0.47c-10.09,2.67-16.9,10.46-15.46,18.1
		c0.5,2.69,1.97,5.01,4.1,6.86c4.38,4.59,12.6,5.17,20.34,1c6.88-3.49,11.99-9.34,13.24-14.77c0.01-0.02,0.02-0.05,0.03-0.07
		c0,0,8.79-30.92,9.85-35.63c0.49-2.2,2.01-4.03,4.08-4.92l49.09-23.52c0.73-0.31,1.25,0.74,0.55,1.12L71.61,47.78
		c-3.13,1.73-4.04,3.29-4.9,6.76c-0.43,1.73,0.45,3.52,2.08,4.24l1.49,0.88c7.87,3.48,14.02,3.46,19.4-0.17
		c0.42-0.28,0.34-0.93-0.14-1.08l-18.79-6.17c-0.51-0.17-0.58-0.87-0.1-1.13l0.51-0.27c0.34-0.18,0.74-0.22,1.11-0.1l15.05,4.73
		c1.65,0.52,3.39,0.76,5.11,0.6c11.33-1.01,19.38-7.24,23.78-14.97c0.22-0.38-0.1-0.84-0.54-0.79l-31.84,4.05
		c-0.31,0.05-0.45-0.38-0.17-0.52l1.69-0.85c0.97-0.49,2-0.83,3.07-1.01c15.06-2.54,37.21-6.23,40.48-24.4
		C129.18,15.29,128.8,12.66,128.32,12.84z"/>
	<g>
		<polygon class="st5" points="63.91,71.18 61.26,80.97 64.27,86.18 50.53,109.98 42.06,109.98 23.05,109.98 9.31,86.18 
			23.05,62.38 31.51,62.38 49.47,62.38 51.41,55.19 18.89,55.19 17.03,58.41 9.46,71.52 9.46,71.52 1,86.18 18.89,117.17 
			54.68,117.17 56.54,113.94 56.54,113.94 64.11,100.84 64.11,100.84 72.57,86.18 		"/>
	</g>
</g>
</svg>
