<?xml version="1.0" encoding="utf-8"?>
<!-- Generator: Adobe Illustrator 26.3.1, SVG Export Plug-In . SVG Version: 6.00 Build 0)  -->
<svg version="1.1" id="Layer_1" xmlns="http://www.w3.org/2000/svg" xmlns:xlink="http://www.w3.org/1999/xlink" x="0px" y="0px"
	 viewBox="0 0 130 130" style="enable-background:new 0 0 130 130;" xml:space="preserve">
<style type="text/css">
	.st0{fill:#FFC53B;}
	.st1{opacity:0.25;fill:#FFC53B;}
	.st2{opacity:0.3;fill:#3D77FF;}
	.st3{fill:#3D77FF;}
	.st4{fill:#FF1241;}
	.st5{opacity:0.25;fill:#FF8098;}
	.st6{fill:#99E266;}
	.st7{opacity:0.5;fill:#99E266;}
	.st8{fill:#B65FDE;}
	.st9{opacity:0.3;fill:#B65FDE;}
</style>
<g>
	<g>
		<g>
			<path class="st6" d="M95.98,17.54c-0.02-1.92-1.55-3.48-3.47-3.54l-19.51,0.52c-2.12-0.07-4.05,1.18-4.86,3.14l-3.7,7.63
				l-46.75,1.02c-2.68,0.06-4.98,1.89-5.65,4.48l68.99-0.82c1.9-0.02,3.52,1.38,3.76,3.27l7.7,59.6c2.77-3.6,4.25-8.04,4.2-12.58
				L95.98,17.54z"/>
			<path class="st6" d="M76.5,36.82l-7.55,0.08c-3.47,14.21-8.16,33.13-8.16,33.13c0,0.02-0.02,0.04-0.02,0.07
				c-0.96,4.89-5.37,10.27-11.42,13.6c-6.82,3.95-14.18,3.67-18.24-0.31c-1.96-1.59-3.34-3.63-3.87-6.02
				c-1.5-6.8,4.37-13.96,13.32-16.65c0.6-0.18,1.21-0.34,1.83-0.48c0.99-0.22,1.96-0.36,2.93-0.46c3.68-0.37,7.18,0.09,10.11,1.25
				c0.14,0.07,0.26,0.13,0.39,0.2l5.52-24.25L3.97,37.62c-1.37,0.01-2.42,1.24-2.21,2.6l7.47,48.9c0.4,2.64,2.67,4.6,5.34,4.62
				l70.51,0.4c0.54,0,0.97-0.47,0.9-1.01l-6.4-53.6C79.39,37.97,78.07,36.81,76.5,36.82z"/>
		</g>
		<g>
			<polygon class="st7" points="103.73,30.61 103.73,50.52 112.62,65.9 112.62,65.91 116.78,73.11 97.76,106.05 86.05,106.05 
				61.2,106.05 59.73,106.05 55.89,99.38 44.39,99.38 53.99,116 58.5,116 103.51,116 106.09,111.54 116.56,93.4 128.27,73.11 			"/>
		</g>
	</g>
</g>
</svg>
