<?xml version="1.0" encoding="utf-8"?>
<!-- Generator: Adobe Illustrator 26.3.1, SVG Export Plug-In . SVG Version: 6.00 Build 0)  -->
<svg version="1.1" id="Layer_1" xmlns="http://www.w3.org/2000/svg" xmlns:xlink="http://www.w3.org/1999/xlink" x="0px" y="0px"
	 viewBox="0 0 130 130" style="enable-background:new 0 0 130 130;" xml:space="preserve">
<style type="text/css">
	.st0{fill:#FFBB29;}
	.st1{opacity:0.25;fill:#FFBB29;}
	.st2{opacity:0.3;fill:#3D77FF;}
	.st3{fill:#3D77FF;}
	.st4{fill:#FF1241;}
	.st5{opacity:0.25;fill:#FF8098;}
	.st6{fill:#99E266;}
	.st7{opacity:0.5;fill:#99E266;}
	.st8{fill:#B65FDE;}
	.st9{opacity:0.3;fill:#B65FDE;}
</style>
<g>
	<g>
		<path class="st0" d="M89.98,27h-8.5c-5.1,17.41-12.52,42.39-12.52,42.39c-0.01,0.03-0.02,0.05-0.03,0.08
			c-1.44,5.94-7.34,12.35-15.28,16.17c-8.94,4.56-18.42,3.93-23.48-1.1c-2.46-2.02-4.15-4.57-4.73-7.51
			c-1.65-8.37,6.2-16.9,17.85-19.83c0.78-0.2,1.57-0.37,2.38-0.51c1.28-0.23,2.54-0.36,3.8-0.44c4.76-0.31,9.25,0.39,12.98,1.92
			c0.17,0.09,0.33,0.17,0.49,0.26L71.6,27H10.36c-3.86,0-6.98,2.97-6.98,6.63v57.1c0,3.66,3.13,6.63,6.98,6.63h79.62
			c3.86,0,6.98-2.97,6.98-6.63v-57.1C96.96,29.97,93.83,27,89.98,27z M49.35,34.99c3.11,0,5.64,2.39,5.64,5.35
			c0,2.95-2.52,5.35-5.64,5.35c-3.11,0-5.64-2.39-5.64-5.35C43.72,37.38,46.24,34.99,49.35,34.99z M33.2,34.99
			c3.11,0,5.64,2.39,5.64,5.35c0,2.95-2.52,5.35-5.64,5.35c-3.11,0-5.64-2.39-5.64-5.35C27.57,37.38,30.09,34.99,33.2,34.99z
			 M17.05,45.68c-3.11,0-5.64-2.39-5.64-5.35c0-2.95,2.52-5.35,5.64-5.35c3.11,0,5.64,2.39,5.64,5.35
			C22.68,43.29,20.16,45.68,17.05,45.68z"/>
	</g>
	<g>
		<polygon class="st1" points="113.27,55 113.27,55 103.89,38.32 103.89,59.15 114.6,78.13 94.7,112.59 82.45,112.59 82.45,112.59 
			57.89,112.59 54.92,112.59 49.3,102.85 37.28,102.85 48.91,123 55.1,123 100.72,123 100.72,123 103.41,118.33 114.37,99.35 
			126.62,78.13 		"/>
	</g>
</g>
<g>
	<polygon class="st2" points="110.45,-119.62 109.14,-121.91 105.05,-128.98 105.05,-110.02 107.05,-106.56 107.05,-106.56 
		110.35,-100.85 92.24,-69.48 81.08,-69.48 81.08,-69.48 58.72,-69.48 56.19,-69.48 56.02,-69.48 52.31,-75.9 41.36,-75.9 
		50.54,-60 53.72,-60 56.18,-60 97.71,-60 97.71,-60 100.16,-64.25 110.14,-81.53 121.29,-100.85 110.45,-119.62 	"/>
	<path class="st3" d="M91.87-141.7c-2.63-3.13-5.79-5.92-9.39-8.26c-0.75,2.7-1.53,5.49-2.31,8.26c-0.91,3.25-1.81,6.47-2.66,9.48
		c-2.63,9.37-4.71,16.75-4.71,16.75c-0.01,0.03-0.02,0.05-0.03,0.07c-1.29,5.58-6.55,11.61-13.63,15.2
		c-7.98,4.29-16.44,3.69-20.95-1.03c-0.02-0.01-0.03-0.03-0.04-0.04c-2.17-1.9-3.66-4.27-4.18-7.02c-0.32-1.7-0.22-3.39,0.2-5.05
		c0.62-2.47,2.01-4.83,3.99-6.91c2.85-3,6.93-5.41,11.74-6.68c0.69-0.18,1.4-0.34,2.12-0.48c0.45-0.08,0.9-0.15,1.34-0.21
		c0.69-0.09,1.37-0.17,2.04-0.21c4.25-0.29,8.25,0.37,11.58,1.81c0.16,0.08,0.3,0.16,0.44,0.24l1.69-6.45l2.48-9.48l3.22-12.3
		c-6.12-2.56-13.02-4-20.32-4c-25.29,0-45.79,17.24-45.79,38.52c0,9.05,3.72,17.37,9.94,23.95l-1.99,15.62
		c-0.26,2.06,1.8,3.63,3.71,2.83l16.36-6.85l0.05-0.02c3.91,1.38,8.09,2.31,12.46,2.73c1.73,0.17,3.48,0.26,5.26,0.26
		c24.83,0,45.03-16.64,45.75-37.38c0.01-0.38,0.03-0.75,0.03-1.13C100.28-127.76,97.15-135.42,91.87-141.7z"/>
</g>
<g>
	<path class="st4" d="M129.32-298.16L66.4-274.59c-2.23,0.84-5.78,2.3-6.3,4.63l-8.41,34c-0.14-0.08-0.28-0.16-0.43-0.24
		c-3.23-1.4-7.12-2.04-11.24-1.76c-1.08,0.07-2.18,0.2-3.29,0.41c-0.7,0.13-1.39,0.29-2.06,0.47c-10.09,2.67-16.9,10.46-15.46,18.1
		c0.5,2.69,1.97,5.01,4.1,6.86c4.38,4.59,12.6,5.17,20.34,1c6.88-3.49,11.99-9.34,13.24-14.77c0.01-0.02,0.02-0.05,0.03-0.07
		c0,0,8.79-30.92,9.85-35.63c0.49-2.2,2.01-4.03,4.08-4.92l49.09-23.52c0.73-0.31,1.25,0.74,0.55,1.12l-47.89,25.69
		c-3.13,1.73-4.04,3.29-4.9,6.76c-0.43,1.73,0.45,3.52,2.08,4.24l1.49,0.88c7.87,3.48,14.02,3.46,19.4-0.17
		c0.42-0.28,0.34-0.93-0.14-1.08l-18.79-6.17c-0.51-0.17-0.58-0.87-0.1-1.13l0.51-0.27c0.34-0.18,0.74-0.22,1.11-0.1l15.05,4.73
		c1.65,0.52,3.39,0.76,5.11,0.6c11.33-1.01,19.38-7.24,23.78-14.97c0.22-0.38-0.1-0.84-0.54-0.79l-31.84,4.05
		c-0.31,0.05-0.45-0.38-0.17-0.52l1.69-0.85c0.97-0.49,2-0.83,3.07-1.01c15.06-2.54,37.21-6.23,40.48-24.4
		C130.18-295.71,129.8-298.34,129.32-298.16z"/>
	<g>
		<polygon class="st5" points="64.91,-239.82 62.26,-230.03 65.27,-224.82 51.53,-201.02 43.06,-201.02 24.05,-201.02 
			10.31,-224.82 24.05,-248.62 32.51,-248.62 50.47,-248.62 52.41,-255.81 19.89,-255.81 18.03,-252.59 10.46,-239.48 
			10.46,-239.48 2,-224.82 19.89,-193.83 55.68,-193.83 57.54,-197.06 57.54,-197.06 65.11,-210.16 65.11,-210.16 73.57,-224.82 		
			"/>
	</g>
</g>
<g>
	<g>
		<g>
			<path class="st6" d="M95.98,170.54c-0.02-1.92-1.55-3.48-3.47-3.54l-19.51,0.52c-2.12-0.07-4.05,1.18-4.86,3.14l-3.7,7.63
				l-46.75,1.02c-2.68,0.06-4.98,1.89-5.65,4.48l68.99-0.82c1.9-0.02,3.52,1.38,3.76,3.27l7.7,59.6c2.77-3.6,4.25-8.04,4.2-12.58
				L95.98,170.54z"/>
			<path class="st6" d="M76.5,189.82l-7.55,0.08c-3.47,14.21-8.16,33.13-8.16,33.13c0,0.02-0.02,0.04-0.02,0.07
				c-0.96,4.89-5.37,10.27-11.42,13.6c-6.82,3.95-14.18,3.67-18.24-0.31c-1.96-1.59-3.34-3.63-3.87-6.02
				c-1.5-6.8,4.37-13.96,13.32-16.65c0.6-0.18,1.21-0.34,1.83-0.48c0.99-0.22,1.96-0.36,2.93-0.46c3.68-0.37,7.18,0.09,10.11,1.25
				c0.14,0.07,0.26,0.13,0.39,0.2l5.52-24.25l-57.39,0.63c-1.37,0.01-2.42,1.24-2.21,2.6l7.47,48.9c0.4,2.64,2.67,4.6,5.34,4.62
				l70.51,0.4c0.54,0,0.97-0.47,0.9-1.01l-6.4-53.6C79.39,190.97,78.07,189.81,76.5,189.82z"/>
		</g>
		<g>
			<polygon class="st7" points="103.73,183.61 103.73,203.52 112.62,218.9 112.62,218.91 116.78,226.11 97.76,259.05 86.05,259.05 
				61.2,259.05 59.73,259.05 55.89,252.38 44.39,252.38 53.99,269 58.5,269 103.51,269 106.09,264.54 116.56,246.4 128.27,226.11 
							"/>
		</g>
	</g>
</g>
<g>
	<path class="st8" d="M103.86,359.94c1.7-1.58,2.32-4,1.59-6.21c-0.73-2.2-2.67-3.78-4.97-4.04l-18.78-2.75
		c-3.24,11.77-7.95,28.33-7.95,28.33c-0.01,0.03-0.02,0.05-0.03,0.08c-1.37,5.96-6.99,12.4-14.56,16.24
		c-8.52,4.58-17.55,3.95-22.37-1.1c-2.34-2.03-3.95-4.59-4.51-7.54c-1.58-8.41,5.91-16.97,17.01-19.91c0.74-0.2,1.5-0.37,2.27-0.51
		c1.22-0.23,2.42-0.36,3.62-0.45c4.53-0.31,8.81,0.4,12.36,1.93c0.17,0.09,0.32,0.17,0.47,0.26l4.84-19.56
		c-0.64-0.52-1.2-1.15-1.59-1.9h0l-10.95-22.36l0,0c-1-2.12-3.13-3.46-5.47-3.46c-2.34,0-4.47,1.35-5.47,3.46l-10.95,22.36
		c-0.92,1.74-2.6,2.94-4.54,3.26l-24.69,3.61c-2.3,0.26-4.25,1.84-4.97,4.04c-0.73,2.2-0.1,4.63,1.59,6.21l17.82,17.47
		c1.46,1.32,2.13,3.31,1.75,5.24l-4.19,24.57c-0.39,2.26,0.54,4.54,2.39,5.9c1.85,1.36,4.31,1.55,6.34,0.5h0l22.12-11.64
		c1.77-0.82,3.82-0.82,5.59,0l22.12,11.64c2.04,1.05,4.5,0.85,6.34-0.5c1.85-1.36,2.77-3.64,2.39-5.9l-4.19-24.57
		c-0.38-1.93,0.28-3.92,1.75-5.24L103.86,359.94z"/>
	<polygon class="st9" points="110.47,365.65 103.5,373.42 114.21,390.69 94.57,424.72 82.46,424.72 55.28,424.72 48.05,412.2 
		39.03,417.13 49.34,435 100.5,435 103.17,430.39 113.98,411.65 126.08,390.69 	"/>
</g>
</svg>
