<?xml version="1.0" encoding="utf-8"?>
<!-- Generator: Adobe Illustrator 26.3.1, SVG Export Plug-In . SVG Version: 6.00 Build 0)  -->
<svg version="1.1" id="Layer_1" xmlns="http://www.w3.org/2000/svg" xmlns:xlink="http://www.w3.org/1999/xlink" x="0px" y="0px"
	 viewBox="0 0 130 130" style="enable-background:new 0 0 130 130;" xml:space="preserve">
<style type="text/css">
	.st0{fill:#FFC53B;}
	.st1{opacity:0.25;fill:#FFC53B;}
	.st2{opacity:0.3;fill:#3D77FF;}
	.st3{fill:#3D77FF;}
	.st4{fill:#FF1241;}
	.st5{opacity:0.25;fill:#FF8098;}
	.st6{fill:#99E266;}
	.st7{opacity:0.5;fill:#99E266;}
	.st8{fill:#B65FDE;}
	.st9{opacity:0.3;fill:#B65FDE;}
</style>
<g>
	<polygon class="st2" points="110.45,54.38 109.14,52.09 105.05,45.02 105.05,63.98 107.05,67.44 107.05,67.44 110.35,73.15 
		92.24,104.52 81.08,104.52 81.08,104.52 58.72,104.52 56.19,104.52 56.02,104.52 52.31,98.1 41.36,98.1 50.54,114 53.72,114 
		56.18,114 97.71,114 97.71,114 100.16,109.75 110.14,92.47 121.29,73.15 110.45,54.38 	"/>
	<path class="st3" d="M91.87,32.3c-2.63-3.13-5.79-5.92-9.39-8.26c-0.75,2.7-1.53,5.49-2.31,8.26c-0.91,3.25-1.81,6.47-2.66,9.48
		c-2.63,9.37-4.71,16.75-4.71,16.75c-0.01,0.03-0.02,0.05-0.03,0.07c-1.29,5.58-6.55,11.61-13.63,15.2
		c-7.98,4.29-16.44,3.69-20.95-1.03c-0.02-0.01-0.03-0.03-0.04-0.04c-2.17-1.9-3.66-4.27-4.18-7.02c-0.32-1.7-0.22-3.39,0.2-5.05
		c0.62-2.47,2.01-4.83,3.99-6.91c2.85-3,6.93-5.41,11.74-6.68c0.69-0.18,1.4-0.34,2.12-0.48c0.45-0.08,0.9-0.15,1.34-0.21
		c0.69-0.09,1.37-0.17,2.04-0.21c4.25-0.29,8.25,0.37,11.58,1.81c0.16,0.08,0.3,0.16,0.44,0.24l1.69-6.45l2.48-9.48L74.81,20
		c-6.12-2.56-13.02-4-20.32-4C29.2,16,8.71,33.24,8.71,54.52c0,9.05,3.72,17.37,9.94,23.95l-1.99,15.62
		c-0.26,2.06,1.8,3.63,3.71,2.83l16.36-6.85l0.05-0.02c3.91,1.38,8.09,2.31,12.46,2.73c1.73,0.17,3.48,0.26,5.26,0.26
		c24.83,0,45.03-16.64,45.75-37.38c0.01-0.38,0.03-0.75,0.03-1.13C100.28,46.24,97.15,38.58,91.87,32.3z"/>
</g>
</svg>
