<?xml version="1.0" encoding="utf-8"?>
<!-- Generator: Adobe Illustrator 26.3.1, SVG Export Plug-In . SVG Version: 6.00 Build 0)  -->
<svg version="1.1" id="Layer_1" xmlns="http://www.w3.org/2000/svg" xmlns:xlink="http://www.w3.org/1999/xlink" x="0px" y="0px"
	 viewBox="0 0 500 500" style="enable-background:new 0 0 500 500;" xml:space="preserve">
<style type="text/css">
	.st0{fill:#cccccc;}
	.st1{opacity:0.2;}
.op{
		opacity: 0.36;
	}
</style>
<g class="op">
<g>
	<rect class="st0" width="500" height="500"/>
</g>
<g class="st1">
	<path d="M369.43,302.02c0,20.68-20.12,37.46-44.52,37.46s-44.52-16.77-44.52-37.03c0-20.68,20.12-37.03,44.52-37.03
		c5.28,0,10.28,0.9,14.99,2.29v-68.21l-119.86,35.54l0,97.43c-0.42,20.65-20.13,37.41-45.37,37.41s-44.52-16.76-44.52-37.46
		c0-20.68,20.12-37.03,44.52-37.03c5.28,0,10.28,0.9,14.98,2.29V189.37c0-6.07,4.71-12.47,10.49-14.29l149.4-44.24
		c1.63-0.39,4.07-0.7,5.33-0.7c8.27,0,14.97,6.71,14.98,14.98L369.43,302.02z"/>
</g>
</g>
</svg>
